<?xml version="1.0" standalone="no"?>
<!DOCTYPE svg PUBLIC "-//W3C//DTD SVG 20010904//EN"
 "http://www.w3.org/TR/2001/REC-SVG-20010904/DTD/svg10.dtd">
<svg version="1.0" xmlns="http://www.w3.org/2000/svg"
 width="260.000000pt" height="260.000000pt" viewBox="0 0 260.000000 260.000000"
 preserveAspectRatio="xMidYMid meet">
<metadata>
Created by potrace 1.11, written by Peter Selinger 2001-2013
</metadata>
<g transform="translate(0.000000,260.000000) scale(0.100000,-0.100000)"
fill="#000000" stroke="none">
<path d="M1359 2498 c-4 -19 -9 -52 -14 -98 -4 -30 -8 -62 -10 -70 -2 -8 -7
-40 -10 -70 -3 -30 -10 -82 -16 -115 -13 -84 -12 -98 5 -92 9 4 13 1 10 -6 -3
-9 22 -16 88 -25 51 -6 93 -10 94 -9 1 1 5 17 9 36 5 26 4 32 -6 26 -9 -6 -11
-3 -6 8 7 18 -8 24 -68 29 -26 3 -30 7 -33 36 -2 18 -7 30 -11 27 -5 -2 -8 6
-7 18 1 15 8 22 23 23 12 1 20 -3 17 -7 -3 -5 2 -10 10 -10 9 -1 24 -2 33 -3
12 -1 19 10 24 34 7 32 6 33 -7 15 -14 -19 -14 -19 -12 5 2 20 -2 26 -22 28
-43 5 -56 12 -41 21 7 5 15 25 18 46 3 21 11 44 18 52 16 15 29 18 20 4 -3 -5
-1 -12 4 -15 5 -4 12 2 14 11 4 17 5 17 6 1 1 -10 10 -19 21 -19 11 -1 26 -2
33 -3 13 -1 25 26 25 59 l1 20 -10 -20 c-8 -17 -9 -16 -6 7 4 30 -1 32 -98 43
-33 4 -68 9 -77 11 -10 3 -18 4 -19 2z m81 -92 c0 -2 -7 -7 -16 -10 -8 -3 -12
-2 -9 4 6 10 25 14 25 6z m110 -6 c0 -5 -8 -10 -17 -10 -15 0 -16 2 -3 10 19
12 20 12 20 0z m-133 -42 c-3 -8 -6 -5 -6 6 -1 11 2 17 5 13 3 -3 4 -12 1 -19z
m-10 -40 c-3 -8 -6 -5 -6 6 -1 11 2 17 5 13 3 -3 4 -12 1 -19z m66 -105 c-7
-2 -19 -2 -25 0 -7 3 -2 5 12 5 14 0 19 -2 13 -5z m-83 -83 c0 -5 -5 -10 -11
-10 -5 0 -7 5 -4 10 3 6 8 10 11 10 2 0 4 -4 4 -10z"/>
<path d="M1025 2468 c-72 -13 -76 -20 -60 -103 7 -38 16 -90 20 -115 18 -132
38 -216 55 -232 16 -15 26 -16 79 -7 41 8 59 15 54 23 -4 8 -3 8 6 0 16 -14
48 -7 55 12 3 8 -1 47 -9 87 -8 39 -16 83 -17 97 -2 14 -9 24 -16 22 -8 -1
-11 2 -8 7 8 12 -18 32 -35 27 -8 -2 -27 -7 -43 -11 -23 -5 -27 -10 -24 -30 3
-15 1 -22 -7 -19 -7 3 -10 18 -7 36 3 17 1 28 -5 25 -5 -3 -7 9 -5 29 3 23 0
34 -8 34 -7 0 -4 8 8 19 12 10 19 21 15 25 -3 3 -1 6 5 6 6 0 14 -16 18 -35 6
-32 8 -34 28 -23 19 10 20 10 7 -6 -13 -16 -12 -17 15 -10 43 10 45 15 34 73
-15 83 -36 92 -155 69z m145 -48 c0 -5 -2 -10 -4 -10 -3 0 -8 5 -11 10 -3 6
-1 10 4 10 6 0 11 -4 11 -10z m-120 -40 c-8 -5 -17 -7 -19 -4 -3 3 1 9 9 14 8
5 17 7 19 4 3 -3 -1 -9 -9 -14z m82 -221 c8 -40 5 -45 -26 -51 -23 -5 -45 16
-31 30 3 3 5 0 5 -6 0 -7 4 -12 8 -12 5 0 7 13 4 30 -2 16 -8 28 -12 25 -5 -3
-12 0 -16 6 -4 8 -3 9 4 5 16 -10 15 7 0 23 -9 8 -2 8 22 -3 27 -11 36 -22 42
-47z m88 -104 c-7 -8 -17 -15 -22 -15 -11 0 14 29 26 30 5 0 3 -7 -4 -15z
m-145 -35 c3 -5 1 -10 -4 -10 -6 0 -11 5 -11 10 0 6 2 10 4 10 3 0 8 -4 11
-10z"/>
<path d="M1669 2223 c-112 -231 -104 -213 -85 -213 8 0 18 -4 21 -10 4 -6 -1
-7 -12 -4 -16 5 -16 4 1 -10 33 -27 51 -19 76 33 12 27 20 54 16 59 -3 6 5 32
19 59 l26 48 -6 -50 c-3 -27 -8 -59 -10 -70 -21 -99 -16 -129 25 -150 l29 -15
71 147 c39 81 68 153 65 161 -3 7 2 23 10 35 8 12 15 17 15 11 0 -5 -5 -15
-12 -22 -6 -6 -9 -15 -5 -18 4 -4 16 14 27 40 23 54 24 60 10 51 -5 -3 -7 0
-4 9 4 9 -5 20 -24 30 l-29 15 -48 -100 c-26 -55 -50 -97 -52 -95 -3 2 0 13 5
23 10 19 19 65 28 148 5 50 4 51 -29 67 l-34 16 -94 -195z m219 -53 c-7 -10
-14 -18 -15 -16 -6 6 9 36 18 36 5 0 4 -9 -3 -20z m-32 -62 c-9 -12 -16 -19
-16 -15 0 11 24 47 28 42 2 -2 -3 -14 -12 -27z m-191 -75 c-9 -21 -21 -42 -27
-48 -7 -7 -7 -2 1 12 6 12 15 33 21 47 5 14 12 26 15 26 3 0 -2 -17 -10 -37z
m165 19 c0 -5 -7 -17 -15 -28 -14 -18 -14 -17 -4 9 12 27 19 34 19 19z m-39
-75 c-10 -9 -11 -8 -5 6 3 10 9 15 12 12 3 -3 0 -11 -7 -18z m-13 -37 c-7 -11
-17 -20 -22 -20 -5 0 -1 9 9 20 10 11 20 20 22 20 2 0 -2 -9 -9 -20z"/>
<path d="M715 2368 c-11 -6 -21 -12 -23 -13 -2 -2 34 -76 78 -166 77 -152 81
-164 64 -176 -25 -18 -27 -17 -48 20 l-18 32 22 -25 c30 -34 25 -24 -55 133
-75 146 -92 162 -139 132 l-25 -16 19 -32 c10 -18 55 -102 98 -187 51 -98 88
-159 102 -167 20 -10 34 -6 96 25 40 20 76 42 79 50 5 15 -182 392 -195 392
-5 0 -14 2 -22 5 -7 2 -22 -1 -33 -7z m73 -53 c-3 -3 -9 2 -12 12 -6 14 -5 15
5 6 7 -7 10 -15 7 -18z m-124 -31 c3 -8 2 -12 -4 -9 -6 3 -10 10 -10 16 0 14
7 11 14 -7z m146 1 c0 -8 -2 -15 -4 -15 -2 0 -6 7 -10 15 -3 8 -1 15 4 15 6 0
10 -7 10 -15z m-117 -55 c3 -11 2 -18 -3 -15 -4 3 -10 14 -13 25 -3 11 -2 18
3 15 4 -3 10 -14 13 -25z m152 -10 c3 -5 1 -10 -4 -10 -6 0 -11 5 -11 10 0 6
2 10 4 10 3 0 8 -4 11 -10z m-131 -36 c3 -8 2 -12 -4 -9 -6 3 -10 10 -10 16 0
14 7 11 14 -7z m29 -54 c3 -11 2 -18 -3 -15 -4 3 -10 14 -13 25 -3 11 -2 18 3
15 4 -3 10 -14 13 -25z m151 -16 c3 -8 2 -12 -4 -9 -6 3 -10 10 -10 16 0 14 7
11 14 -7z m-126 -39 c-3 -3 -9 2 -12 12 -6 14 -5 15 5 6 7 -7 10 -15 7 -18z
m150 -10 c-3 -3 -9 2 -12 12 -6 14 -5 15 5 6 7 -7 10 -15 7 -18z m22 -35 c6
-11 8 -20 6 -20 -3 0 -10 9 -16 20 -6 11 -8 20 -6 20 3 0 10 -9 16 -20z m10
-44 c0 -8 -7 -16 -15 -20 -12 -4 -13 -2 -2 14 14 24 17 25 17 6z m-70 -40 c0
-2 -16 -13 -35 -25 -19 -11 -35 -18 -35 -16 0 5 61 45 68 45 1 0 2 -2 2 -4z"/>
<path d="M1390 2200 c0 -5 5 -10 10 -10 6 0 10 5 10 10 0 6 -4 10 -10 10 -5 0
-10 -4 -10 -10z"/>
<path d="M1990 2049 c-80 -84 -146 -158 -148 -165 -2 -7 8 -20 22 -30 14 -9
26 -20 26 -26 0 -5 -10 0 -22 12 -12 11 -25 20 -29 20 -4 0 23 -29 60 -65 37
-36 72 -65 77 -65 13 0 149 138 143 144 -3 3 -34 -24 -69 -59 -36 -36 -69 -65
-75 -65 -6 0 -27 17 -46 38 l-34 37 35 -32 c20 -18 41 -33 46 -33 6 0 57 47
114 105 56 58 105 105 108 105 3 0 -5 -11 -18 -25 -13 -14 -21 -25 -17 -25 14
0 102 104 109 127 6 22 -2 34 -60 89 -37 35 -69 64 -72 64 -3 0 -70 -68 -150
-151z m170 36 c6 -8 10 -21 8 -29 -5 -21 -176 -196 -192 -196 -18 0 -41 28
-32 38 5 4 49 51 98 105 50 53 94 97 98 97 4 0 13 -7 20 -15z m78 -74 c-13
-15 -25 -27 -27 -25 -4 4 39 54 47 54 2 0 -7 -13 -20 -29z"/>
<path d="M2045 1993 c-49 -53 -92 -101 -93 -107 -2 -6 39 34 92 89 79 83 97
97 107 85 9 -13 10 -12 5 3 -3 10 -6 21 -6 23 0 15 -26 -8 -105 -93z"/>
<path d="M382 2137 l-21 -22 125 -129 c68 -70 124 -131 124 -134 0 -3 -8 -14
-17 -24 -16 -18 -17 -18 -45 8 -27 27 -28 27 -48 9 -28 -26 -26 -35 24 -84 41
-40 103 -65 92 -36 -2 7 18 34 45 61 27 26 49 53 49 58 0 6 -51 62 -112 126
-62 63 -87 90 -54 60 78 -74 170 -169 175 -182 2 -5 -21 -34 -50 -64 -29 -30
-48 -54 -43 -54 6 0 34 25 63 55 42 44 50 58 42 72 -12 22 -306 314 -296 293
6 -12 5 -13 -6 -2 -18 16 -22 16 -47 -11z m94 -29 l19 -21 -27 18 c-29 18 -34
25 -20 25 5 0 17 -10 28 -22z"/>
<path d="M1700 2111 c-12 -24 -13 -34 -1 -27 9 6 22 46 15 46 -2 0 -8 -9 -14
-19z"/>
<path d="M2135 1900 c-10 -11 -15 -20 -11 -20 11 0 39 30 34 36 -3 2 -13 -5
-23 -16z"/>
<path d="M550 1845 c7 -9 15 -13 17 -11 7 7 -7 26 -19 26 -6 0 -6 -6 2 -15z"/>
<path d="M1318 1644 c-39 -21 -75 -89 -87 -164 -6 -36 -13 -74 -15 -85 -2 -11
-9 -50 -16 -86 -10 -55 -18 -73 -52 -107 -38 -39 -68 -54 -68 -33 0 5 16 49
35 99 41 106 39 152 -6 152 -29 0 -58 -18 -88 -53 -39 -46 -44 -56 -43 -106 1
-25 -5 -68 -12 -96 -22 -82 -6 -125 46 -125 37 0 84 22 120 55 15 14 28 25 30
25 2 0 4 -11 4 -25 3 -37 22 -55 61 -55 38 0 94 26 137 65 l30 25 11 -27 c14
-32 31 -48 61 -55 35 -9 44 4 54 85 10 84 17 102 49 131 33 30 36 13 12 -62
-26 -82 -26 -114 -3 -140 31 -36 92 -36 97 0 1 7 6 44 10 83 6 60 11 73 40
102 18 18 38 33 43 33 6 0 0 -32 -14 -72 -45 -132 -31 -185 48 -175 90 12 247
180 203 217 -12 10 -27 -1 -81 -57 -57 -57 -68 -65 -71 -48 -2 12 12 62 32
113 19 50 33 99 31 109 -6 34 -18 51 -38 56 -38 10 -86 -21 -135 -88 l-22 -30
6 40 c13 99 -95 93 -159 -9 l-19 -31 7 29 c19 81 -3 103 -69 68 -52 -27 -79
-69 -75 -116 1 -27 -6 -45 -28 -73 -33 -41 -79 -72 -90 -61 -12 13 49 229 88
310 47 98 58 157 33 181 -20 21 -61 21 -97 1z"/>
<path d="M794 1642 c-21 -14 -27 -40 -39 -165 -5 -51 -12 -77 -26 -90 -21 -19
-26 -57 -8 -57 16 0 6 -46 -51 -225 -55 -172 -60 -215 -30 -245 69 -69 206 31
271 198 31 77 33 210 5 241 -19 21 -19 21 16 21 40 0 65 32 53 69 -6 20 -12
22 -61 17 -30 -3 -54 -1 -54 3 0 5 13 34 29 66 16 32 27 65 24 74 -3 9 -10 29
-15 44 -16 42 -83 71 -114 49z m59 -459 c-2 -64 -21 -125 -59 -190 -25 -43
-51 -59 -41 -25 63 216 77 266 77 280 0 12 3 13 12 4 7 -7 11 -36 11 -69z"/>
<path d="M1111 1627 c-16 -20 -23 -81 -12 -110 6 -14 19 -31 30 -37 18 -9 24
-5 46 28 36 55 38 76 8 106 -28 29 -55 33 -72 13z"/>
<path d="M1144 907 c-2 -7 -3 -24 -2 -37 2 -18 -1 -24 -12 -22 -13 3 -13 1 -1
-10 11 -11 14 -11 18 0 4 10 8 10 21 0 15 -11 15 -11 4 3 -10 13 -8 21 9 43
11 14 24 24 29 21 5 -3 11 -1 14 4 7 10 -13 9 -31 -2 -6 -4 -14 -3 -18 3 -9
14 -25 13 -31 -3z m30 -6 c3 -5 -1 -14 -9 -21 -13 -10 -15 -9 -15 9 0 21 14
28 24 12z"/>
<path d="M1300 916 c0 -2 9 -6 20 -9 11 -3 18 -1 14 4 -5 9 -34 13 -34 5z"/>
<path d="M1352 900 c-13 -11 -18 -21 -12 -25 5 -3 10 -1 10 6 0 10 3 10 12 1
7 -7 17 -12 23 -12 5 0 2 5 -8 11 -9 6 -15 15 -12 20 4 5 11 6 17 3 7 -4 8 -2
4 4 -9 15 -6 15 -34 -8z"/>
<path d="M1403 904 c0 -7 6 -10 14 -7 7 3 13 8 13 12 0 4 -6 8 -13 8 -8 0 -14
-6 -14 -13z"/>
<path d="M1456 904 c-9 -23 -7 -34 5 -34 5 0 7 5 4 10 -4 6 -1 17 5 25 7 9 8
15 2 15 -5 0 -13 -7 -16 -16z"/>
<path d="M1110 910 c-1 -3 -3 -16 -6 -29 -2 -14 -9 -30 -15 -38 -8 -9 -8 -13
0 -13 6 0 14 12 17 26 5 19 9 22 15 12 5 -7 8 -8 8 -3 -1 13 -17 52 -19 45z"/>
<path d="M1243 883 c0 -16 2 -22 4 -15 3 6 9 10 14 6 14 -9 10 12 -5 25 -11 9
-13 6 -13 -16z"/>
<path d="M1295 889 c-4 -6 -5 -12 -2 -15 2 -3 7 2 10 11 7 17 1 20 -8 4z"/>
<path d="M1190 864 c0 -8 5 -12 10 -9 6 3 10 10 10 16 0 5 -4 9 -10 9 -5 0
-10 -7 -10 -16z"/>
<path d="M1403 873 c6 -11 -30 -43 -39 -35 -4 4 -4 1 0 -6 6 -9 13 -7 32 10
25 25 30 38 13 38 -5 0 -8 -3 -6 -7z"/>
<path d="M1308 858 c-6 -17 1 -38 12 -38 5 0 14 10 20 23 10 20 10 20 -3 5
-15 -19 -29 -14 -20 8 3 8 3 14 0 14 -3 0 -7 -6 -9 -12z"/>
<path d="M1276 845 c4 -8 8 -15 10 -15 2 0 4 7 4 15 0 8 -4 15 -10 15 -5 0 -7
-7 -4 -15z"/>
<path d="M1450 846 c0 -8 7 -17 16 -20 23 -9 24 -4 2 17 -14 13 -18 14 -18 3z"/>
<path d="M1190 835 c0 -7 30 -13 34 -7 3 4 -4 9 -15 9 -10 1 -19 0 -19 -2z"/>
<path d="M351 793 c-25 -17 -27 -55 -5 -78 23 -23 8 -32 -16 -10 -16 15 -23
16 -33 6 -9 -10 -8 -15 8 -27 11 -8 20 -21 20 -30 0 -16 124 -116 135 -109 4
2 16 -11 26 -30 10 -19 21 -35 25 -35 6 0 69 75 69 83 0 2 -18 9 -40 16 -42
13 -47 20 -28 39 10 10 6 18 -17 38 -17 14 -24 23 -17 19 37 -19 74 34 52 75
-11 21 -64 28 -75 10 -9 -15 -25 -12 -25 4 0 15 -25 39 -45 42 -7 1 -23 -5
-34 -13z"/>
<path d="M2203 797 c-13 -5 -23 -18 -23 -29 0 -22 1 -22 -40 -4 -29 12 -35 11
-51 -3 -36 -30 -14 -103 26 -87 22 8 18 -7 -5 -22 -14 -9 -20 -21 -18 -40 3
-23 -2 -28 -34 -36 l-36 -9 31 -43 c18 -24 35 -43 39 -44 3 0 15 16 27 36 12
19 25 33 29 30 12 -7 143 103 137 114 -3 5 3 15 14 21 20 13 18 39 -4 39 -7 0
-18 -7 -25 -15 -7 -8 -16 -12 -21 -10 -4 3 1 15 11 25 23 23 25 40 8 62 -18
22 -40 27 -65 15z"/>
<path d="M1555 766 c10 -14 19 -26 22 -26 7 0 -17 39 -28 46 -6 3 -3 -5 6 -20z"/>
<path d="M1011 763 c0 -11 3 -13 6 -5 2 6 8 12 12 12 9 0 35 -51 33 -62 -1 -4
8 -12 21 -18 19 -9 20 -9 6 2 -9 7 -15 21 -13 31 1 10 -2 14 -9 10 -7 -4 -8 0
-4 11 4 9 3 15 -2 12 -5 -3 -11 1 -15 9 -8 21 -36 19 -35 -2z"/>
<path d="M1068 773 c7 -3 16 -2 19 1 4 3 -2 6 -13 5 -11 0 -14 -3 -6 -6z"/>
<path d="M1178 773 c6 -2 18 -2 25 0 6 3 1 5 -13 5 -14 0 -19 -2 -12 -5z"/>
<path d="M1218 768 c-3 -7 6 -21 19 -31 18 -15 20 -21 10 -32 -6 -7 -16 -10
-21 -7 -5 3 -6 0 -2 -7 6 -9 11 -9 22 0 20 16 41 54 25 44 -7 -4 -18 -1 -26 5
-17 14 -21 35 -5 25 6 -3 10 -1 10 4 0 15 -27 14 -32 -1z"/>
<path d="M1269 763 c-13 -17 -13 -17 6 -3 11 8 22 16 24 17 2 2 0 3 -6 3 -6 0
-17 -8 -24 -17z"/>
<path d="M1422 740 c-6 -25 -9 -46 -7 -49 3 -2 8 11 12 29 5 29 7 31 14 15 5
-13 8 -14 8 -5 0 8 -4 24 -8 34 -6 16 -10 11 -19 -24z"/>
<path d="M1464 761 c0 -11 3 -18 7 -15 4 2 15 -8 26 -24 10 -15 24 -28 31 -30
18 -3 5 18 -25 41 -13 10 -23 25 -23 33 0 8 -4 14 -8 14 -4 0 -8 -9 -8 -19z"/>
<path d="M1515 769 c-4 -6 -1 -17 7 -25 12 -12 14 -11 15 6 2 23 -13 35 -22
19z"/>
<path d="M1312 741 c1 -16 5 -28 9 -26 6 5 0 55 -7 55 -3 0 -3 -13 -2 -29z"/>
<path d="M1349 768 c-10 -37 -7 -48 14 -47 19 1 19 2 3 6 -15 4 -16 7 -5 14
12 7 12 9 -1 9 -13 0 -13 1 0 10 10 6 11 10 3 10 -7 0 -13 -1 -14 -2z"/>
<path d="M1180 751 c0 -6 4 -13 10 -16 6 -3 7 1 4 9 -7 18 -14 21 -14 7z"/>
<path d="M1146 714 c-6 -23 -9 -24 -24 -12 -15 12 -16 11 -3 -5 14 -18 16 -18
28 -1 7 10 13 24 13 31 0 21 -7 15 -14 -13z"/>
<path d="M1010 718 c0 -7 4 -19 9 -27 7 -10 9 -7 8 12 -2 26 -17 39 -17 15z"/>
<path d="M1460 715 c-7 -9 -10 -18 -6 -22 3 -3 6 -1 6 6 0 7 4 10 8 7 5 -3 9
1 9 9 0 19 -2 19 -17 0z"/>
<path d="M1556 714 c-4 -9 -4 -19 -1 -22 2 -3 7 3 11 12 4 9 4 19 1 22 -2 3
-7 -3 -11 -12z"/>
<path d="M1183 705 c0 -8 4 -12 9 -9 5 3 6 10 3 15 -9 13 -12 11 -12 -6z"/>
<path d="M1371 694 c0 -11 3 -14 6 -6 3 7 2 16 -1 19 -3 4 -6 -2 -5 -13z"/>
<path d="M1278 693 c7 -3 16 -2 19 1 4 3 -2 6 -13 5 -11 0 -14 -3 -6 -6z"/>
<path d="M913 621 c-9 -6 -123 -201 -162 -278 -13 -26 -17 -44 -11 -48 6 -4 8
-10 5 -15 -7 -11 24 -22 37 -13 7 4 8 1 3 -7 -6 -10 -4 -12 9 -7 10 4 15 3 11
-3 -6 -10 45 -40 69 -40 21 0 40 37 23 43 -7 3 -5 6 5 6 11 1 15 6 12 15 -3 8
0 17 7 22 8 4 10 3 5 -4 -4 -7 -5 -12 -2 -12 3 0 10 9 16 20 8 15 6 24 -10 40
-27 27 -44 25 -58 -5 -13 -28 -21 -30 -45 -12 -15 11 -15 14 -1 32 16 19 16
19 10 -5 -6 -22 -5 -22 4 -7 7 10 9 24 7 31 -3 7 -1 19 5 27 8 11 9 10 4 -3
-11 -35 4 -17 41 52 21 39 43 68 50 66 6 -3 14 0 17 7 3 9 5 8 5 -1 1 -7 -3
-22 -9 -32 -7 -13 -6 -19 6 -24 8 -3 13 -10 10 -15 -5 -7 14 -21 29 -21 11 0
45 72 45 96 0 25 -9 34 -64 65 -35 20 -68 34 -73 30z m34 -87 c-3 -3 -12 -4
-19 -1 -8 3 -5 6 6 6 11 1 17 -2 13 -5z m-51 -66 c-9 -12 -16 -19 -16 -15 0
11 24 47 28 42 2 -2 -3 -14 -12 -27z m144 28 c0 -2 -8 -10 -17 -17 -16 -13
-17 -12 -4 4 13 16 21 21 21 13z"/>
<path d="M1619 581 c-35 -20 -63 -40 -63 -46 1 -5 41 -79 90 -162 69 -118 93
-152 107 -149 9 2 15 0 11 -5 -8 -14 8 -10 30 6 18 14 16 52 -3 40 -5 -3 -13
0 -17 6 -4 8 -3 9 4 5 15 -9 15 0 0 27 -20 39 -18 63 5 63 12 -1 22 4 22 11 0
6 3 14 7 18 4 4 4 14 1 23 -4 14 -3 15 5 2 8 -10 8 -18 0 -27 -7 -9 -7 -13 1
-13 28 0 18 34 -38 127 -36 59 -69 103 -80 106 -12 3 -45 -10 -82 -32z m130
-45 c-3 -3 -11 5 -18 17 -13 21 -12 21 5 5 10 -10 16 -20 13 -22z m-18 -132
c-18 -14 -36 -4 -52 30 -8 16 -6 15 10 -4 11 -14 21 -20 21 -14 0 5 -8 19 -18
30 -24 26 -34 53 -26 76 5 16 13 8 44 -43 34 -57 36 -64 21 -75z m-84 109 c-4
-3 -1 -13 6 -22 11 -14 10 -14 -5 -2 -16 12 -16 31 -1 31 4 0 3 -3 0 -7z m154
-60 c13 -16 12 -17 -3 -4 -10 7 -18 15 -18 17 0 8 8 3 21 -13z m-51 -113 c0
-5 -2 -10 -4 -10 -3 0 -8 5 -11 10 -3 6 -1 10 4 10 6 0 11 -4 11 -10z m18 -45
c-3 -3 -9 2 -12 12 -6 14 -5 15 5 6 7 -7 10 -15 7 -18z"/>
<path d="M1480 521 c-26 -7 -29 -17 -45 -132 -8 -64 -23 -111 -25 -84 -1 11
-2 23 -1 28 0 4 -3 7 -9 7 -5 0 -9 3 -8 8 2 10 -22 61 -45 95 -10 15 -15 27
-11 27 3 0 1 6 -5 13 -6 8 -23 12 -42 9 l-31 -5 7 -55 c4 -31 8 -59 10 -62 1
-3 5 -29 9 -58 6 -51 15 -112 21 -142 2 -8 4 -25 4 -37 1 -14 7 -23 17 -23 8
0 13 -4 9 -9 -3 -6 4 -8 15 -6 32 6 40 15 36 38 -3 12 -5 26 -5 30 -1 5 -6 5
-12 2 -7 -5 -6 -1 1 11 9 14 9 26 0 49 -6 17 -11 30 -10 30 1 0 -3 12 -9 28
-18 48 -1 29 25 -27 28 -62 42 -76 69 -71 11 2 24 4 28 4 5 1 6 30 3 66 -3 45
-2 64 5 59 6 -3 9 -17 6 -30 -2 -13 -1 -24 3 -24 4 0 7 -6 7 -12 2 -50 14
-102 25 -109 20 -13 40 -11 32 3 -6 10 -5 10 8 1 8 -7 18 -10 21 -6 11 10 8
33 -4 33 -5 0 -7 -6 -3 -12 4 -7 3 -9 -1 -5 -12 10 -15 38 -4 31 5 -3 9 6 9
20 0 14 -5 26 -11 26 -5 0 -7 -5 -3 -12 5 -7 3 -8 -5 -3 -9 5 -10 10 -2 18 13
13 15 41 3 33 -4 -2 -9 5 -9 17 -2 18 0 19 8 7 9 -12 10 -12 5 3 -3 10 -6 28
-6 38 0 11 -4 18 -8 15 -4 -2 -6 12 -4 32 3 30 1 34 -8 22 -10 -12 -11 -12 -5
5 3 11 7 22 7 25 5 59 -23 101 -62 91z m-13 -293 c-3 -8 -6 -5 -6 6 -1 11 2
17 5 13 3 -3 4 -12 1 -19z m-92 -108 c-3 -5 -12 -10 -18 -10 -7 0 -6 4 3 10
19 12 23 12 15 0z"/>
<path d="M1061 348 c-49 -112 -70 -173 -63 -176 7 -2 10 -8 7 -13 -8 -11 44
-24 55 -13 14 15 23 57 11 50 -6 -4 -11 -2 -11 4 0 6 6 10 13 9 30 -4 48 2 41
13 -4 7 -3 8 4 4 7 -4 12 -25 12 -47 0 -21 5 -39 11 -39 5 0 7 -4 4 -10 -7
-12 39 -25 55 -15 8 5 8 11 1 19 -7 9 -7 16 1 24 7 7 8 12 2 12 -5 0 -10 9
-10 20 0 11 3 20 6 20 10 0 6 125 -5 132 -6 5 -5 8 2 8 14 0 13 26 -1 49 -7
10 -5 12 3 6 9 -5 11 1 8 23 -3 18 0 33 6 36 8 3 8 5 -1 5 -7 1 -11 5 -7 10 8
14 -24 41 -48 41 -19 0 -33 -25 -96 -172z m76 -28 c0 -28 -10 -39 -20 -22 -5
7 9 52 16 52 2 0 4 -13 4 -30z m-47 -90 c0 -5 -5 -10 -11 -10 -5 0 -7 5 -4 10
3 6 8 10 11 10 2 0 4 -4 4 -10z m-35 -70 c-3 -5 -12 -10 -18 -10 -7 0 -6 4 3
10 19 12 23 12 15 0z"/>
</g>
</svg>
