<svg xmlns="http://www.w3.org/2000/svg" viewBox="0 0 74.55 67.31"><defs><style>.cls-1{fill:#fff;}.cls-2,.cls-3{fill:none;stroke:#fff;}.cls-2{stroke-width:0.37px;}.cls-3{stroke-width:0.37px;}</style></defs><title>Element 1</title><g id="Ebene_2" data-name="Ebene 2"><g id="Ebene_4" data-name="Ebene 4"><path class="cls-1" d="M.77,50.42H4.53v1.07H2.13v1.67H4.42v1.07H2.13v3H.77Z"/><path class="cls-1" d="M7.69,52.08a2.5,2.5,0,0,1,2.62,2.65,2.47,2.47,0,0,1-2.62,2.58,2.47,2.47,0,0,1-2.61-2.58A2.5,2.5,0,0,1,7.69,52.08Zm0,4.22c1,0,1.26-.89,1.26-1.73a1.32,1.32,0,0,0-1.26-1.49,1.33,1.33,0,0,0-1.25,1.49C6.44,55.4,6.71,56.3,7.69,56.3Z"/><path class="cls-1" d="M11.26,52.2h1.15v1.14h0a1.53,1.53,0,0,1,1.37-1.25,1.41,1.41,0,0,1,.4,0v1.31a1.33,1.33,0,0,0-.58-.11c-1.06,0-1.06,1.32-1.06,2V57.2h-1.3Z"/><path class="cls-1" d="M19.5,57.2H18.27v-.68h0a2.08,2.08,0,0,1-1.64.8c-1.18,0-1.7-.83-1.7-2V52.2h1.3v2.67c0,.61,0,1.44.84,1.44s1.14-1,1.14-1.66V52.2h1.3Z"/><path class="cls-1" d="M20.72,52.2h1.21v.7h0a1.76,1.76,0,0,1,1.48-.82,1.46,1.46,0,0,1,1.48.88,1.71,1.71,0,0,1,1.56-.88c1.23,0,1.58.84,1.58,2V57.2h-1.3v-3c0-.47,0-1.13-.75-1.13s-1,1-1,1.68V57.2h-1.3v-3c0-.47,0-1.13-.75-1.13s-1,1-1,1.68V57.2h-1.3Z"/><path class="cls-1" d="M31.87,50.42h1.72c1.48,0,2.82.43,2.82,2s-1.15,2.16-2.61,2.16h-.57V57.2H31.87Zm1.36,3.13h.48c.68,0,1.29-.22,1.29-1s-.59-1.06-1.29-1.06h-.48Z"/><path class="cls-1" d="M39.45,52.08a2.5,2.5,0,0,1,2.62,2.65,2.62,2.62,0,0,1-5.23,0A2.5,2.5,0,0,1,39.45,52.08Zm0,4.22c1,0,1.26-.89,1.26-1.73a1.27,1.27,0,1,0-2.51,0C38.2,55.4,38.46,56.3,39.45,56.3Z"/><path class="cls-1" d="M43,49.92h1.3V57.2H43Z"/><path class="cls-1" d="M45.62,50h1.3v1.24h-1.3Zm0,2.15h1.3v5h-1.3Z"/><path class="cls-1" d="M48.62,53.15h-1v-1h1v-1l1.3-.42V52.2h1.15v1H49.92v2.33c0,.43.12.83.61.83a1.17,1.17,0,0,0,.59-.14l0,1a3.41,3.41,0,0,1-1,.12,1.47,1.47,0,0,1-1.58-1.62Z"/><path class="cls-1" d="M51.9,50h1.3v1.24H51.9Zm0,2.15h1.3v5H51.9Z"/><path class="cls-1" d="M54.5,49.92h1.3V54.2h0l1.55-2H58.9L57,54.43l2.1,2.77H57.48l-1.67-2.43h0V57.2H54.5Z"/><path class="cls-1" d="M5.24,67.2H4v-.68H4a2.08,2.08,0,0,1-1.64.8c-1.18,0-1.7-.83-1.7-2V62.2H2v2.67c0,.61,0,1.44.84,1.44s1.14-1,1.14-1.66V62.2h1.3Z"/><path class="cls-1" d="M6.48,62.2H7.71v.68h0a1.87,1.87,0,0,1,1.64-.8c1.18,0,1.7.83,1.7,2V67.2H9.77V64.53c0-.61,0-1.44-.84-1.44s-1.15,1-1.15,1.66V67.2H6.48Z"/><path class="cls-1" d="M15.64,66.63h0a1.86,1.86,0,0,1-1.53.68c-1.53,0-2.1-1.26-2.1-2.63s.56-2.6,2.1-2.6a1.78,1.78,0,0,1,1.49.7h0V59.92h1.3V67.2H15.64Zm-1.19-.33c.86,0,1.14-.91,1.14-1.62s-.33-1.59-1.16-1.59-1.08.92-1.08,1.59S13.59,66.3,14.45,66.3Z"/><path class="cls-1" d="M26.15,61.73a4.44,4.44,0,0,0-1.75-.36,2.31,2.31,0,0,0-2.45,2.46,2.23,2.23,0,0,0,2.3,2.42,3.71,3.71,0,0,0,.89-.1V64.38H23.7V63.31h2.74V67a8.58,8.58,0,0,1-2.19.35c-2.19,0-3.72-1.1-3.72-3.39a3.36,3.36,0,0,1,3.72-3.62,6.68,6.68,0,0,1,2,.28Z"/><path class="cls-1" d="M31.66,66.91a3.44,3.44,0,0,1-1.72.4,2.37,2.37,0,0,1-2.61-2.59,2.34,2.34,0,0,1,2.32-2.64c1.85,0,2.38,1.27,2.38,3H28.57A1.31,1.31,0,0,0,30,66.36a3.37,3.37,0,0,0,1.66-.5Zm-.87-2.71c0-.63-.33-1.17-1.06-1.17a1.13,1.13,0,0,0-1.15,1.17Z"/><path class="cls-1" d="M35.91,63.25A3.19,3.19,0,0,0,34.75,63c-.35,0-.77.13-.77.55,0,.8,2.26.29,2.26,2.1,0,1.16-1,1.63-2.1,1.63a5.83,5.83,0,0,1-1.48-.21L32.75,66a2.86,2.86,0,0,0,1.28.33c.33,0,.85-.13.85-.61,0-1-2.26-.31-2.26-2.12,0-1.08.94-1.55,2-1.55a6,6,0,0,1,1.42.18Z"/><path class="cls-1" d="M41.16,66.91a3.44,3.44,0,0,1-1.72.4,2.37,2.37,0,0,1-2.61-2.59,2.34,2.34,0,0,1,2.32-2.64c1.85,0,2.38,1.27,2.38,3H38.08a1.31,1.31,0,0,0,1.43,1.26,3.38,3.38,0,0,0,1.66-.5Zm-.87-2.71c0-.63-.33-1.17-1.06-1.17a1.13,1.13,0,0,0-1.15,1.17Z"/><path class="cls-1" d="M42.48,59.92h1.3V67.2h-1.3Z"/><path class="cls-1" d="M45.08,59.92h1.3V67.2h-1.3Z"/><path class="cls-1" d="M50.62,63.25A3.2,3.2,0,0,0,49.45,63c-.35,0-.77.13-.77.55,0,.8,2.26.29,2.26,2.1,0,1.16-1,1.63-2.1,1.63a5.84,5.84,0,0,1-1.48-.21L47.45,66a2.86,2.86,0,0,0,1.28.33c.33,0,.85-.13.85-.61,0-1-2.26-.31-2.26-2.12,0-1.08.94-1.55,2-1.55a6,6,0,0,1,1.42.18Z"/><path class="cls-1" d="M55.1,63.27a2,2,0,0,0-.88-.18c-.81,0-1.32.64-1.32,1.58s.44,1.63,1.35,1.63a2.74,2.74,0,0,0,1-.23l.06,1.08a4.21,4.21,0,0,1-1.3.16,2.62,2.62,0,0,1,0-5.23,4.24,4.24,0,0,1,1.26.16Z"/><path class="cls-1" d="M56.07,59.92h1.3v3h0a1.86,1.86,0,0,1,1.57-.8c1.18,0,1.7.83,1.7,2V67.2h-1.3V64.53c0-.61,0-1.44-.84-1.44s-1.15,1-1.15,1.66V67.2h-1.3Z"/><path class="cls-1" d="M62.12,62.46a4.49,4.49,0,0,1,1.74-.38c1.52,0,2.15.63,2.15,2.11v.64c0,.5,0,.88,0,1.25s0,.73.06,1.12H64.94a6.06,6.06,0,0,1-.06-.75h0a1.79,1.79,0,0,1-1.54.86,1.59,1.59,0,0,1-1.75-1.48,1.47,1.47,0,0,1,.85-1.43,4,4,0,0,1,1.68-.29h.72c0-.81-.36-1.08-1.13-1.08a2.61,2.61,0,0,0-1.54.54Zm1.52,3.9a1.11,1.11,0,0,0,.91-.45,1.66,1.66,0,0,0,.27-1h-.56c-.58,0-1.45.1-1.45.86C62.82,66.18,63.18,66.36,63.64,66.36Z"/><path class="cls-1" d="M67.67,63.15h-1v-1h1v-.7a1.53,1.53,0,0,1,1.59-1.7,4.56,4.56,0,0,1,1,.11L70.1,61a1,1,0,0,0-.56-.17c-.44,0-.57.38-.57.77v.62H70.1v1H69v4h-1.3Z"/><path class="cls-1" d="M71.3,63.15h-1v-1h1v-1l1.3-.42V62.2h1.15v1H72.6v2.33c0,.43.12.83.61.83a1.17,1.17,0,0,0,.59-.14l0,1a3.41,3.41,0,0,1-1,.12,1.47,1.47,0,0,1-1.58-1.62Z"/></g><g id="Ebene_2-2" data-name="Ebene 2"><path class="cls-1" d="M8.91,30.27a8.73,8.73,0,0,0-4-1.05A4.14,4.14,0,0,0,.51,33.5c0,2.47,1.37,3,3.46,3.61.71.2,2,.53,2,1.46s-.83,1.29-1.61,1.29a4.56,4.56,0,0,1-2.95-1.32L0,41.21a7.88,7.88,0,0,0,4.49,1.46,5.6,5.6,0,0,0,3.63-1.2A4.34,4.34,0,0,0,9.44,38c0-2.07-1.37-3-3.15-3.49l-.85-.25C4.86,34.1,4,33.81,4,33.06S4.78,32,5.39,32a3.5,3.5,0,0,1,2.2.85l1.32-2.58Z"/><polygon class="cls-1" points="14.34 32.37 17.09 32.37 17.09 29.55 8.28 29.55 8.28 32.37 11.02 32.37 11.02 42.33 14.34 42.33 14.34 32.37 14.34 32.37"/><polygon class="cls-1" points="20.71 29.55 17.39 29.55 17.39 42.33 20.71 42.33 20.71 29.55 20.71 29.55"/><polygon class="cls-1" points="28.46 32.37 28.46 29.55 21.13 29.55 21.13 42.33 24.45 42.33 24.45 37.31 28.09 37.31 28.09 34.5 24.45 34.5 24.45 32.37 28.46 32.37 28.46 32.37"/><polygon class="cls-1" points="34.66 32.37 37.41 32.37 37.41 29.55 28.6 29.55 28.6 32.37 31.34 32.37 31.34 42.33 34.66 42.33 34.66 32.37 34.66 32.37"/><path class="cls-1" d="M45.47,29.55v6.73c0,1.66-.12,3.47-2.25,3.47S41,37.94,41,36.28V29.55H37.64v7.19c0,1.64.07,3.27,1.34,4.51a6.1,6.1,0,0,0,4.24,1.42,6.1,6.1,0,0,0,4.24-1.42c1.27-1.24,1.34-2.86,1.34-4.51V29.55Z"/><polygon class="cls-1" points="49.14 42.33 52.46 42.33 52.46 34.5 52.49 34.5 58.58 42.33 61.9 42.33 61.9 29.55 58.58 29.55 58.58 37.37 58.54 37.37 52.46 29.55 49.14 29.55 49.14 42.33 49.14 42.33"/><path class="cls-1" d="M68,35.2v2.61h2.71A2.42,2.42,0,0,1,68,40c-2.19,0-3.37-2-3.37-4s1.13-4,3.32-4a2.89,2.89,0,0,1,2.76,2l3.15-1.32a5.94,5.94,0,0,0-5.76-3.58A6.53,6.53,0,0,0,61.16,36,6.46,6.46,0,0,0,68,42.75a6.18,6.18,0,0,0,5.27-2.51,8.21,8.21,0,0,0,1.3-5Z"/><polygon class="cls-1" points="7.84 17.76 7.84 14.95 0.58 14.95 0.58 27.72 7.84 27.72 7.84 24.91 3.9 24.91 3.9 22.71 7.64 22.71 7.64 19.89 3.9 19.89 3.9 17.76 7.84 17.76 7.84 17.76"/><path class="cls-1" d="M11.53,17.49h.24c.9,0,1.93.07,1.93,1.24S12.79,20,11.91,20h-.37V17.49Zm1.8,10.23c2.34,0,4.63-.88,4.63-3.56,0-1.78-.78-3-2.61-3.25v0a2.65,2.65,0,0,0,1.41-2.61c0-2.44-1.52-3.32-3.8-3.32H8.21V27.72Zm-1.8-5.29h.34c1.08,0,2.73-.15,2.73,1.39S12.94,25.18,12,25.18h-.42V22.44Z"/><polygon class="cls-1" points="24.59 17.76 24.59 14.95 17.32 14.95 17.32 27.72 24.59 27.72 24.59 24.91 20.64 24.91 20.64 22.71 24.39 22.71 24.39 19.89 20.64 19.89 20.64 17.76 24.59 17.76 24.59 17.76"/><path class="cls-1" d="M28.28,17.49h.32c1.08,0,2.3.2,2.3,1.59s-1.22,1.59-2.3,1.59h-.32V17.49Zm3.29,5a3.43,3.43,0,0,0,2.8-3.61c0-2.73-1.91-3.93-4.44-3.93H25V27.72h3.32V22.81h0l3.13,4.91h4.13l-4-5.24Z"/><polygon class="cls-1" points="40.73 17.76 43.48 17.76 43.48 14.95 34.66 14.95 34.66 17.76 37.41 17.76 37.41 27.72 40.73 27.72 40.73 17.76 40.73 17.76"/><polygon class="cls-1" points="7.91 3.15 7.91 0.34 0.58 0.34 0.58 13.12 3.9 13.12 3.9 8.1 7.54 8.1 7.54 5.29 3.9 5.29 3.9 3.15 7.91 3.15 7.91 3.15"/><path class="cls-1" d="M11.4,2.88h.32c1.08,0,2.31.2,2.31,1.59s-1.22,1.59-2.31,1.59H11.4V2.88Zm3.29,5a3.43,3.43,0,0,0,2.8-3.61C17.48,1.54,15.57.34,13,.34h-5V13.11H11.4V8.2h0l3.14,4.91H18.7l-4-5.24Z"/><polygon class="cls-1" points="21.07 0.34 17.75 0.34 17.75 13.12 21.07 13.12 21.07 0.34 21.07 0.34"/><polygon class="cls-1" points="28.83 3.15 28.83 0.34 21.56 0.34 21.56 13.12 28.83 13.12 28.83 10.3 24.88 10.3 24.88 8.1 28.63 8.1 28.63 5.29 24.88 5.29 24.88 3.15 28.83 3.15 28.83 3.15"/><path class="cls-1" d="M32.52,3.15h.78a3.36,3.36,0,0,1,3.64,3.57,3.36,3.36,0,0,1-3.68,3.58h-.75V3.15Zm-3.32,10h4.71a6.39,6.39,0,1,0,0-12.78H29.2V13.11Z"/><path class="cls-1" d="M43.08,2.88h.32c1.08,0,2.3.2,2.3,1.59s-1.22,1.59-2.3,1.59h-.32V2.88Zm3.29,5a3.43,3.43,0,0,0,2.79-3.61c0-2.73-1.91-3.93-4.44-3.93h-5V13.11h3.32V8.2h0l3.13,4.91h4.13l-4-5.24Z"/><polygon class="cls-1" points="52.75 0.34 49.43 0.34 49.43 13.12 52.75 13.12 52.75 0.34 52.75 0.34"/><path class="cls-1" d="M62,.64A7.79,7.79,0,0,0,59,0a6.92,6.92,0,0,0-4.86,2.07,6.69,6.69,0,0,0-1.88,4.68,6.25,6.25,0,0,0,2,4.83,7.11,7.11,0,0,0,4.79,1.88A9.41,9.41,0,0,0,62,12.86v-4a3.82,3.82,0,0,1-2.87,1.36,3.31,3.31,0,0,1-3.46-3.47,3.37,3.37,0,0,1,3.41-3.54A3.61,3.61,0,0,1,62,4.63v-4Z"/><polygon class="cls-1" points="65.72 5.27 65.72 0.34 62.4 0.34 62.4 13.12 65.72 13.12 65.72 7.88 70.52 7.88 70.52 13.12 73.84 13.12 73.84 0.34 70.52 0.34 70.52 5.27 65.72 5.27 65.72 5.27"/><path class="cls-2" d="M42.57,21H57.74M42.93,23.43H57.37m-13.1,2.44H56M42.87,19.1H57.49M44.64,15.94H55.73m-9.81-1.16h8.47M43.54,17.46H56.76"/><path class="cls-3" d="M42.57,21.11a7.62,7.62,0,0,1,15.23,0,7.62,7.62,0,1,1-15.23,0Zm7.56,7.56V14.29M47,17.46l3.11-3.17,3.17,3.17"/></g></g></svg>