<svg xmlns="http://www.w3.org/2000/svg" viewBox="0 0 371.19 87.55"><defs><style>.cls-1,.cls-2{fill:#fff;}.cls-2{fill-rule:evenodd;}</style></defs><title>Element 3</title><g id="Ebene_2" data-name="Ebene 2"><g id="Ebene_1-2" data-name="Ebene 1"><path class="cls-1" d="M104.34,30.45a32.15,32.15,0,0,1-.25,4.13c-.16,1.23-.32,2.22-.47,3a8.91,8.91,0,0,1-.69,2.08c-.31.62-.62,1.27-1,2a16,16,0,0,1-6.43,6.87,17.93,17.93,0,0,1-9.21,2.48,16.44,16.44,0,0,1-12.45-5A19.39,19.39,0,0,1,70,40.22a17.23,17.23,0,0,1-1.4-7,19.12,19.12,0,0,1,1.26-6.86,18.15,18.15,0,0,1,3.59-5.83,14,14,0,0,1,5.64-3.89A19.22,19.22,0,0,1,86,15.33a17.8,17.8,0,0,1,3.78.28,8.82,8.82,0,0,1,2,.7v9.46a12.15,12.15,0,0,0-2.57-.91,12.78,12.78,0,0,0-2.77-.25A7.53,7.53,0,0,0,80.5,27a8,8,0,0,0-2.21,6.22,9.17,9.17,0,0,0,.56,2.79,7.11,7.11,0,0,0,1.51,2.45,8,8,0,0,0,2.53,1.77,8.24,8.24,0,0,0,3.45.69,7.32,7.32,0,0,0,2.7-.55,8.52,8.52,0,0,0,2.55-1.54,8.12,8.12,0,0,0,1.9-2.52,7.57,7.57,0,0,0,.76-3.41l.07-31.81h10Z"/><path class="cls-1" d="M145.73,37.13a19.87,19.87,0,0,1-7.68,10.37,21.21,21.21,0,0,1-12,3.45,18.83,18.83,0,0,1-4.55-.56,14.32,14.32,0,0,1-4.17-1.8A17.75,17.75,0,0,1,110.91,42a18.09,18.09,0,0,1-2.27-9,17.53,17.53,0,0,1,5.14-12.66,16.66,16.66,0,0,1,5.67-3.92,17.36,17.36,0,0,1,6.7-1.31,21.85,21.85,0,0,1,5,.56,16,16,0,0,1,4.67,1.9,19.74,19.74,0,0,1,4.26,3.49,24.46,24.46,0,0,1,3.67,5.33L125.45,38.22,121.27,32,131,25.32c-.09-.09-.42-.38-1-.86a3.56,3.56,0,0,0-2.41-.72,9.56,9.56,0,0,0-6.75,2.6,8.5,8.5,0,0,0-2.74,6.4A9.13,9.13,0,0,0,119,36.2a9.38,9.38,0,0,0,2,3,9.88,9.88,0,0,0,6.75,2.5,7.75,7.75,0,0,0,5.54-2,9.5,9.5,0,0,0,1.69-2c.46-.74.88-1.5,1.28-2.27l4.54.88Z"/><path class="cls-1" d="M185.51,30.45a32.26,32.26,0,0,1-.24,4.13c-.17,1.23-.33,2.22-.48,3a8.46,8.46,0,0,1-.68,2.08c-.31.62-.63,1.27-1,2a16.06,16.06,0,0,1-6.44,6.87,17.88,17.88,0,0,1-9.21,2.48,16.43,16.43,0,0,1-12.44-5,19.39,19.39,0,0,1-3.87-5.69,17.07,17.07,0,0,1-1.41-7,18.92,18.92,0,0,1,1.27-6.86,18.12,18.12,0,0,1,3.58-5.83,14.12,14.12,0,0,1,5.65-3.89,19.22,19.22,0,0,1,6.87-1.28,17.93,17.93,0,0,1,3.78.28,9,9,0,0,1,2,.7v9.46a12.34,12.34,0,0,0-2.57-.91,12.88,12.88,0,0,0-2.78-.25,7.52,7.52,0,0,0-5.9,2.43,8,8,0,0,0-2.22,6.22,9.81,9.81,0,0,0,.56,2.79,7.14,7.14,0,0,0,1.52,2.45,7.86,7.86,0,0,0,2.53,1.77,8.16,8.16,0,0,0,3.44.69,7.36,7.36,0,0,0,2.71-.55,8.52,8.52,0,0,0,2.55-1.54,8.28,8.28,0,0,0,1.9-2.52,7.56,7.56,0,0,0,.75-3.41l.07-31.81h10Z"/><path class="cls-1" d="M191.35,26.27a18.36,18.36,0,0,1,16.91-10.89,18.56,18.56,0,0,1,7,1.31,17.27,17.27,0,0,1,5.84,3.85,22.59,22.59,0,0,1,3.87,5.66,15.83,15.83,0,0,1,1.54,7,16.8,16.8,0,0,1-5.41,12.66,16.76,16.76,0,0,1-5.84,3.82,19.56,19.56,0,0,1-13.92,0,18.35,18.35,0,0,1-5.94-3.82,18.88,18.88,0,0,1-4-5.8,17.58,17.58,0,0,1,0-13.75Zm9.19,9.86a8,8,0,0,0,1.75,2.76,9.85,9.85,0,0,0,2.88,1.85,9.5,9.5,0,0,0,6.75,0,9.85,9.85,0,0,0,2.88-1.85,7.79,7.79,0,0,0,2.53-6,8.91,8.91,0,0,0-.58-3.24,6.11,6.11,0,0,0-1.95-2.6A14.9,14.9,0,0,0,212,25.41a8.41,8.41,0,0,0-3.41-.68,8.87,8.87,0,0,0-3.37.61,11.07,11.07,0,0,0-2.88,1.74,9.74,9.74,0,0,0-1.82,2.67,7.68,7.68,0,0,0-.65,3.17A8.62,8.62,0,0,0,200.54,36.13Z"/><path class="cls-1" d="M240.57,0V50.41h-9.81V0Z"/><path class="cls-1" d="M245.91,1.94A5.6,5.6,0,0,1,250.05.25a5.74,5.74,0,0,1,4.19,1.69A5.44,5.44,0,0,1,256,6a5.88,5.88,0,0,1-1.72,4.29A5.65,5.65,0,0,1,250.05,12a5.28,5.28,0,0,1-2.19-.46,6.06,6.06,0,0,1-3.17-3.23A6.13,6.13,0,0,1,244.22,6,5.48,5.48,0,0,1,245.91,1.94Zm9,14.2V50.28H244.85V16.14Z"/><path class="cls-1" d="M294.48,51.88a16.57,16.57,0,0,1-6,10.43q-4.75,3.73-12.38,4.06a21.93,21.93,0,0,1-5.73-.55c-2.13-.45-4.2-1-6.22-1.63V54.84c1,.32,2.06.64,3.16.93s2.16.53,3.17.72,1.95.33,2.85.42,1.64.14,2.25.14a13.22,13.22,0,0,0,4.48-.79A9.33,9.33,0,0,0,283,54.5a6.54,6.54,0,0,0,1.61-2.27,6.26,6.26,0,0,0,.51-2.42V32.93a7.32,7.32,0,0,0-.65-3.09,7.83,7.83,0,0,0-1.77-2.51,9.08,9.08,0,0,0-2.6-1.73A7.77,7.77,0,0,0,277,25a8.12,8.12,0,0,0-5.82,2.17,7.31,7.31,0,0,0-2.3,5.6,8.59,8.59,0,0,0,.68,3.22,8.74,8.74,0,0,0,1.6,2.69,8.32,8.32,0,0,0,6.05,2.25c.58,0,1.07,0,1.46,0a6.86,6.86,0,0,0,1.12-.15,5.38,5.38,0,0,0,1.11-.41c.37-.19.83-.44,1.37-.77v10a8.11,8.11,0,0,1-2.46.71,30.46,30.46,0,0,1-3.52.17,18.78,18.78,0,0,1-4.87-.65A16.71,16.71,0,0,1,267,47.84a15.26,15.26,0,0,1-5.85-6.17,18.61,18.61,0,0,1-1.95-8.6,17.68,17.68,0,0,1,4.92-12.79,16.39,16.39,0,0,1,12.37-5,21.52,21.52,0,0,1,9.29,2,13.86,13.86,0,0,1,6.57,6.5c.33.68.69,1.54,1.07,2.57a15.17,15.17,0,0,1,.79,2.78,40.76,40.76,0,0,1,.42,6.82V50.37Z"/><path class="cls-1" d="M298.65,0h10.16V17.87a12.51,12.51,0,0,1,3.53-2.25,11.24,11.24,0,0,1,13.73,3.94q3.06,4.5,3.06,11.85v19h-9.81V29.14a3.21,3.21,0,0,0-.62-2,4.79,4.79,0,0,0-1.44-1.3,6.49,6.49,0,0,0-1.72-.68,6.58,6.58,0,0,0-1.39-.21,8.57,8.57,0,0,0-1.49.17,5.56,5.56,0,0,0-1.76.69,5.25,5.25,0,0,0-1.48,1.3,3.2,3.2,0,0,0-.61,2V50.38H298.65Z"/><path class="cls-1" d="M343.1,6.75V16l8.3-.07v9h-8.3V36.56c0,1.74.34,2.93,1,3.57a3.15,3.15,0,0,0,2.24,1h5.2v9.28h-8.93a7.45,7.45,0,0,1-3.83-1,11.7,11.7,0,0,1-3-2.45,12,12,0,0,1-2-3.09,7.53,7.53,0,0,1-.72-3V6.75Z"/><polygon class="cls-1" points="24.42 26.17 13.75 7.7 18.49 4.67 29.3 23.43 29.3 1.75 35.07 1.75 35.07 23.39 45.91 4.67 50.66 7.7 40.02 26.15 58.47 15.46 61.38 20.42 43.03 31.12 64.34 31.07 64.34 36.91 43 36.91 61.38 47.63 58.47 52.59 39.97 41.87 50.66 60.4 45.91 63.42 35.07 44.62 35.07 66.38 29.3 66.38 29.3 44.63 18.49 63.42 13.75 60.4 24.47 41.82 5.98 52.59 2.95 47.63 21.45 36.91 0 36.91 0 31.14 21.49 31.12 2.95 20.42 5.98 15.46 24.42 26.17"/><path class="cls-2" d="M26.67,79.47H21.56v2.59h5.11a1.37,1.37,0,0,0,.8-.17.72.72,0,0,0,.22-.61v-1a.7.7,0,0,0-.22-.6,1.37,1.37,0,0,0-.8-.17Zm-7.34,8.08V77.79h8.34a2.57,2.57,0,0,1,1.69.44,1.8,1.8,0,0,1,.53,1.44v2.19a1.8,1.8,0,0,1-.53,1.44,2.57,2.57,0,0,1-1.69.44H21.56v3.81Z"/><path class="cls-2" d="M39.05,80.93H34.6v2.21h4.45a1.13,1.13,0,0,0,.69-.15.58.58,0,0,0,.19-.5v-.92a.59.59,0,0,0-.19-.5,1.22,1.22,0,0,0-.69-.14Zm-6.38,6.62v-8h7.21a2.27,2.27,0,0,1,1.43.36,1.47,1.47,0,0,1,.44,1.19V83a1.45,1.45,0,0,1-.44,1.18,2.27,2.27,0,0,1-1.43.36h-1.1l3.8,3h-2.8l-3.34-3H34.6v3Z"/><polygon class="cls-1" points="44.96 87.55 44.96 79.55 53.55 79.55 53.55 80.96 46.93 80.96 46.93 82.71 50.79 82.71 50.79 84.08 46.93 84.08 46.93 86.05 53.65 86.05 53.65 87.55 44.96 87.55 44.96 87.55"/><path class="cls-1" d="M63.46,81H58.2v5h5.26V84.31l2,.4v.94a2,2,0,0,1-.44,1.5,2.55,2.55,0,0,1-1.66.4h-5a2.48,2.48,0,0,1-1.65-.4,2,2,0,0,1-.43-1.5V81.44a2,2,0,0,1,.43-1.5,2.53,2.53,0,0,1,1.65-.39h5a2.59,2.59,0,0,1,1.67.39,2.07,2.07,0,0,1,.43,1.5v.77l-2,.29V81Z"/><polygon class="cls-1" points="68.62 87.55 68.62 79.55 70.57 79.55 70.57 87.55 68.62 87.55 68.62 87.55"/><path class="cls-1" d="M81.5,81H76v1.69H81.2a2.51,2.51,0,0,1,1.65.39,2,2,0,0,1,.42,1.49v1.1a2,2,0,0,1-.43,1.5,2.45,2.45,0,0,1-1.64.4H76a2.54,2.54,0,0,1-1.68-.4,2,2,0,0,1-.44-1.5v-.22l1.74-.32v.94h5.89V84.22H76.33a2.55,2.55,0,0,1-1.66-.4,2,2,0,0,1-.44-1.5v-.89A2,2,0,0,1,74.67,80a2.49,2.49,0,0,1,1.66-.4h4.75a2.56,2.56,0,0,1,1.65.38,1.71,1.71,0,0,1,.45,1.35v.2l-1.68.35V81Z"/><polygon class="cls-1" points="86.63 87.55 86.63 79.55 88.58 79.55 88.58 87.55 86.63 87.55 86.63 87.55"/><path class="cls-2" d="M93.87,86h6.45V81H93.87v5Zm-2-4.58a2,2,0,0,1,.43-1.5A2.51,2.51,0,0,1,94,79.55h6.19a2.52,2.52,0,0,1,1.66.39,2.07,2.07,0,0,1,.42,1.5v4.22a2,2,0,0,1-.43,1.49,2.46,2.46,0,0,1-1.65.4H94a2.44,2.44,0,0,1-1.65-.4,2,2,0,0,1-.43-1.49V81.44Z"/><polygon class="cls-1" points="105.62 87.55 105.62 79.55 106.96 79.55 113.76 84.86 113.76 79.55 115.52 79.55 115.52 87.55 114.17 87.55 107.4 82.15 107.4 87.55 105.62 87.55 105.62 87.55"/><polygon class="cls-1" points="127.13 87.55 127.13 77.79 129.4 77.79 129.4 85.71 136.72 85.71 136.72 87.55 127.13 87.55 127.13 87.55"/><polygon class="cls-1" points="139.33 87.55 139.33 79.55 141.28 79.55 141.28 87.55 139.33 87.55 139.33 87.55"/><path class="cls-1" d="M152.67,81h-6.1v5h6.1V84.31h-3.18V82.89h5.09v2.76a2,2,0,0,1-.43,1.5,2.48,2.48,0,0,1-1.65.4h-5.8a2.48,2.48,0,0,1-1.65-.4,2,2,0,0,1-.43-1.5V81.43a2,2,0,0,1,.43-1.49,2.55,2.55,0,0,1,1.65-.39h5.8a2.52,2.52,0,0,1,1.64.38,1.84,1.84,0,0,1,.44,1.41v.21l-1.91.32V81Z"/><polygon class="cls-1" points="157.89 87.55 157.89 79.55 159.86 79.55 159.86 82.59 165.96 82.59 165.96 79.55 167.9 79.55 167.9 87.55 165.96 87.55 165.96 84.18 159.86 84.18 159.86 87.55 157.89 87.55 157.89 87.55"/><polygon class="cls-1" points="176.25 80.98 176.25 87.55 174.3 87.55 174.3 80.98 170.44 80.98 170.44 79.55 180.13 79.55 180.13 80.98 176.25 80.98 176.25 80.98"/><polygon class="cls-1" points="182.64 87.55 182.64 79.55 184.59 79.55 184.59 87.55 182.64 87.55 182.64 87.55"/><polygon class="cls-1" points="188.13 87.55 188.13 79.55 189.47 79.55 196.26 84.86 196.26 79.55 198.02 79.55 198.02 87.55 196.67 87.55 189.9 82.15 189.9 87.55 188.13 87.55 188.13 87.55"/><path class="cls-1" d="M209.45,81h-6.09v5h6.09V84.31h-3.18V82.89h5.09v2.76a2,2,0,0,1-.43,1.5,2.48,2.48,0,0,1-1.65.4h-5.79a2.44,2.44,0,0,1-1.65-.4,2,2,0,0,1-.43-1.5V81.43a2,2,0,0,1,.43-1.49,2.51,2.51,0,0,1,1.65-.39h5.79a2.56,2.56,0,0,1,1.65.38,1.84,1.84,0,0,1,.43,1.41v.21l-1.91.32V81Z"/><polygon class="cls-1" points="222.71 87.55 222.71 77.79 224.98 77.79 224.98 87.55 222.71 87.55 222.71 87.55"/><polygon class="cls-1" points="229.24 87.55 229.24 79.55 230.58 79.55 237.37 84.86 237.37 79.55 239.13 79.55 239.13 87.55 237.78 87.55 231.01 82.15 231.01 87.55 229.24 87.55 229.24 87.55"/><path class="cls-1" d="M250.11,81H244.6v1.69h5.21a2.51,2.51,0,0,1,1.65.39,2,2,0,0,1,.42,1.49v1.1a2,2,0,0,1-.43,1.5,2.45,2.45,0,0,1-1.64.4h-5.19a2.54,2.54,0,0,1-1.68-.4,2,2,0,0,1-.44-1.5v-.22l1.74-.32v.94h5.89V84.22h-5.19a2.55,2.55,0,0,1-1.66-.4,2,2,0,0,1-.44-1.5v-.89a2,2,0,0,1,.44-1.48,2.49,2.49,0,0,1,1.66-.4h4.75a2.56,2.56,0,0,1,1.65.38,1.71,1.71,0,0,1,.45,1.35v.2l-1.68.35V81Z"/><polygon class="cls-1" points="260.01 80.98 260.01 87.55 258.06 87.55 258.06 80.98 254.2 80.98 254.2 79.55 263.89 79.55 263.89 80.98 260.01 80.98 260.01 80.98"/><path class="cls-2" d="M272.78,80.93h-4.45v2.21h4.45a1.19,1.19,0,0,0,.7-.15.61.61,0,0,0,.19-.5v-.92a.63.63,0,0,0-.19-.5,1.29,1.29,0,0,0-.7-.14Zm-6.38,6.62v-8h7.21a2.25,2.25,0,0,1,1.43.36,1.44,1.44,0,0,1,.44,1.19V83a1.42,1.42,0,0,1-.44,1.18,2.25,2.25,0,0,1-1.43.36h-1.1l3.81,3h-2.8l-3.35-3h-1.84v3Z"/><path class="cls-1" d="M280.65,79.55v6.5h5.56v-6.5h2v6.11a2,2,0,0,1-.44,1.49,2.59,2.59,0,0,1-1.67.4h-5.28a2.49,2.49,0,0,1-1.66-.4,2,2,0,0,1-.43-1.49V79.55Z"/><polygon class="cls-1" points="291.74 87.55 291.74 79.55 293.31 79.55 297.22 84.3 301.12 79.55 302.69 79.55 302.69 87.55 300.88 87.55 300.88 82.04 297.31 86.59 296.93 86.59 293.31 82.17 293.31 87.55 291.74 87.55 291.74 87.55"/><polygon class="cls-1" points="306.23 87.55 306.23 79.55 314.82 79.55 314.82 80.96 308.2 80.96 308.2 82.71 312.06 82.71 312.06 84.08 308.2 84.08 308.2 86.05 314.92 86.05 314.92 87.55 306.23 87.55 306.23 87.55"/><polygon class="cls-1" points="317.71 87.55 317.71 79.55 319.05 79.55 325.84 84.86 325.84 79.55 327.6 79.55 327.6 87.55 326.25 87.55 319.48 82.15 319.48 87.55 317.71 87.55 317.71 87.55"/><polygon class="cls-1" points="335.94 80.98 335.94 87.55 333.99 87.55 333.99 80.98 330.14 80.98 330.14 79.55 339.82 79.55 339.82 80.98 335.94 80.98 335.94 80.98"/><path class="cls-1" d="M349.74,81h-5.51v1.69h5.21a2.51,2.51,0,0,1,1.65.39,2,2,0,0,1,.43,1.49v1.1a2,2,0,0,1-.44,1.5,2.45,2.45,0,0,1-1.64.4h-5.19a2.54,2.54,0,0,1-1.68-.4,2,2,0,0,1-.44-1.5v-.22l1.74-.32v.94h5.88V84.22h-5.18a2.53,2.53,0,0,1-1.66-.4,2,2,0,0,1-.44-1.5v-.89a2,2,0,0,1,.44-1.48,2.47,2.47,0,0,1,1.66-.4h4.75a2.59,2.59,0,0,1,1.65.38,1.71,1.71,0,0,1,.45,1.35v.2l-1.68.35V81Z"/><path class="cls-1" d="M371.19,8.89A7.94,7.94,0,1,1,363.25,1,8,8,0,0,1,371.19,8.89Zm-14.28,0a6.36,6.36,0,1,0,6.34-6.34A6.38,6.38,0,0,0,356.91,8.89Zm3.36-4.45h3.06c1.06,0,3.11,0,3.11,2.35A2.05,2.05,0,0,1,364.76,9c1.22.08,1.31.88,1.47,2a8.88,8.88,0,0,0,.46,2.35H364.8c0-.42-.33-2.68-.33-2.81-.13-.5-.3-.76-.93-.76H362v3.57h-1.72ZM362,8.35h1.38a1.2,1.2,0,0,0,1.35-1.26c0-1.22-.84-1.22-1.3-1.22H362Z"/></g></g></svg>