<svg xmlns="http://www.w3.org/2000/svg" viewBox="0 0 494.93 133.92"><defs><style>.cls-1{fill:#cdcccc;}.cls-2{fill:#fff;}</style></defs><title>Element 4</title><g id="Ebene_2" data-name="Ebene 2"><g id="Ebene_1-2" data-name="Ebene 1"><path class="cls-1" d="M467.83,98.82c-2.22-2.81-5.19-6.28-7.67-9.21,16.46,0,29.57-8.55,29.57-25.63,0-16.15-11.88-21.63-26.48-21.63-8.53,0-13,.14-17.81.4v90.1h6.68V89.47h.37l33.41,43.38h9ZM452.12,83.6V48.49c2.85-.26,5.44-.4,8.91-.4,13.86,0,21.77,4.27,21.77,17.36,0,10.67-8,18.42-22.27,18.42C456.33,83.87,453.6,83.73,452.12,83.6Z"/><polygon class="cls-1" points="440.68 132.85 440.68 126.98 406.77 126.98 406.77 89.2 439.07 89.2 439.07 83.47 406.77 83.47 406.77 48.49 440.68 48.49 440.68 42.75 400.09 42.75 400.09 132.85 440.68 132.85"/><polygon class="cls-1" points="398.81 48.63 398.81 42.75 339.17 42.75 339.17 48.63 365.65 48.63 365.65 132.85 372.33 132.85 372.33 48.63 398.81 48.63"/><path class="cls-2" d="M332.19,39.2a213.85,213.85,0,0,0-33.53,1.32L296.56,53a136.17,136.17,0,0,1,14.67,1.89l-.17.37-13.8,77.64H315.6Z"/><path class="cls-2" d="M339.71,11.31A11.31,11.31,0,0,0,328.53,0C321.89,0,316,5.65,316,13.76c0,5.84,4.37,11.49,11,11.49s12.76-5.65,12.76-13.94"/><polygon class="cls-1" points="287.16 132.85 287.16 126.98 253.26 126.98 253.26 89.2 285.56 89.2 285.56 83.47 253.26 83.47 253.26 48.49 287.16 48.49 287.16 42.75 246.58 42.75 246.58 132.85 287.16 132.85"/><path class="cls-1" d="M217.07,98.82c-2.22-2.81-5.19-6.28-7.67-9.21C225.86,89.61,239,81.06,239,64c0-16.15-11.87-21.63-26.47-21.63-8.54,0-13,.14-17.82.4v90.1h6.68V89.47h.37l33.41,43.38h9ZM201.36,83.6V48.49c2.85-.26,5.45-.4,8.91-.4,13.86,0,21.78,4.27,21.78,17.36,0,10.67-8.05,18.42-22.28,18.42C205.57,83.87,202.85,83.73,201.36,83.6Z"/><path class="cls-1" d="M165.17,98.82c-2.23-2.81-5.19-6.28-7.67-9.21,16.46,0,29.57-8.55,29.57-25.63,0-16.15-11.88-21.63-26.48-21.63-8.53,0-13,.14-17.81.4v90.1h6.68V89.47h.37l33.41,43.38h9ZM149.46,83.6V48.49c2.85-.26,5.44-.4,8.91-.4,13.86,0,21.77,4.27,21.77,17.36,0,10.67-8,18.42-22.27,18.42C153.67,83.87,150.94,83.73,149.46,83.6Z"/><path class="cls-1" d="M101.21,41.69c-21,0-38.48,16.55-38.48,47,0,27,11.88,45.25,36.5,45.25,21,0,38.48-16.68,38.48-47C137.71,58.64,124.1,41.69,101.21,41.69Zm-1,86.09C79.93,127.78,69.9,111,69.9,86.94c0-25,14.11-39.25,30.32-39.25,18.93,0,30.31,15,30.31,40.85C130.53,113.5,116.3,127.78,100.22,127.78Z"/><path class="cls-1" d="M70.4,42.75H63.35l-21.9,62.34c-2.35,6.67-4.7,13.75-6.44,20.42h-.12c-1.86-6.94-4.21-14.28-6.06-19.75l-21-63H0l31.18,90.1h7Z"/></g></g></svg>