<svg xmlns="http://www.w3.org/2000/svg" viewBox="0 0 192.54 255.21"><defs><style>.cls-1{fill:#fff;}</style></defs><title>Element 2-weiss</title><g id="Ebene_2" data-name="Ebene 2"><g id="Ebene_1-2" data-name="Ebene 1"><path class="cls-1" d="M49.58,136.94,74,128.86c-1.77-5.34-3.51-10.6-5.27-15.9-2.62.84-5.08,1.79-7.63,2.4a43.9,43.9,0,0,1-7.3,1.09c-1.73.11-2.55-.63-2.8-2.33-.4-2.68-.68-5.39-.83-8.09-.18-3.43-.16-6.87-.28-10.31a1.22,1.22,0,0,1,1-1.43q17.29-5.67,34.56-11.43a1.31,1.31,0,0,1,1.82.65c2.34,3.48,4.82,6.87,7.1,10.39,1.2,1.87,2.09,3.94,3.11,5.93a1.77,1.77,0,0,1-.58,2.44,21.6,21.6,0,0,1-4,2.4c-2.61,1.08-5.32,1.94-8,2.89l-1.68.59c1.75,5.31,3.48,10.56,5.25,15.91l65.85-21.78-5.27-15.92c-1.93.63-3.81,1.13-5.61,1.86-5,2-9.14.76-12.45-3.23s-6.56-8.17-9.69-12.36Q96.23,39.14,71.21,5.57c-.21-.28-.4-.57-.75-1.09,22.75-7.43,44.49-5.8,65.12,6.27,23.83,13.94,35.2,37.86,36.95,57a15.37,15.37,0,0,0-13.71,3.16,15.65,15.65,0,0,0-5.61,10.4C152,90.77,159.5,99.39,170,99.08c-8.15,23.93-23.52,41-47.31,49.53C96.42,158,72,153.51,49.56,137.38Z"/><path class="cls-1" d="M50.15,34l25.7,34.35-26,8.6V34.19Z"/><path class="cls-1" d="M29.75,39.28v74.31C17.26,92.75,16.2,62.45,29.75,39.28Z"/><path class="cls-1" d="M129.41,172.59V195H125.1V182.6l-.25-.08q-1.3,2.52-2.59,5a9.51,9.51,0,0,0-.68,1.4,2.08,2.08,0,0,1-2.49,1.6,1.9,1.9,0,0,1-1.92-1.2,73.24,73.24,0,0,0-3.56-6.61V194.9h-4.47V172.6c1.33,0,2.61,0,3.87,0,.28,0,.63.42.78.72,1.56,3.15,3.08,6.32,4.61,9.48.26.53.53,1,.89,1.77l3.63-7.48c.61-1.25,1.16-2.54,1.83-3.76a1.65,1.65,0,0,1,1.15-.73C127,172.53,128.2,172.59,129.41,172.59Z"/><path class="cls-1" d="M166.33,185.67q2.26,4.38,4.81,9.31c-1.71,0-3.21,0-4.72,0-.27,0-.62-.42-.77-.72-1.16-2.28-2.34-4.55-3.38-6.88-.44-1-1-1.47-2.05-1.29a11.47,11.47,0,0,1-1.67,0v8.84H154.2V172.72a1.24,1.24,0,0,1,.4-.11c3,0,6.08-.1,9.11,0a6.66,6.66,0,0,1,5.54,10.16A18,18,0,0,1,166.33,185.67Zm-7.76-3.36c1.63,0,3.14.08,4.65,0a2.71,2.71,0,0,0,2.56-2.69,2.62,2.62,0,0,0-2.29-2.9,44.7,44.7,0,0,0-4.92,0Z"/><path class="cls-1" d="M.34,194.94V172.73a94.6,94.6,0,0,1,9.83.07c3.9.41,6.06,3,6.34,7.2a54.87,54.87,0,0,1-.15,8.6,6.79,6.79,0,0,1-6.58,6.31C6.68,195.08,3.56,194.94.34,194.94Zm4.35-3.87c1.13,0,2.16,0,3.2,0,2.53,0,4-1.27,4.14-3.82a64.45,64.45,0,0,0,0-6.95,3.56,3.56,0,0,0-3.61-3.72c-1.22-.12-2.45,0-3.73,0Z"/><path class="cls-1" d="M192.07,172.59c-2.42,2.9-4.59,5.56-6.82,8.16a1.18,1.18,0,0,0-.14,1.65c2.27,3.75,4.49,7.55,6.72,11.33.2.33.39.68.71,1.24-1.73,0-3.3,0-4.86,0-.27,0-.57-.49-.76-.8-1.72-3-3.43-6-5.24-9.23-1.36,1.79-3.31,3-2.89,5.64a28.69,28.69,0,0,1,0,4.36h-4.41V172.66h4.34v9.16l.28.13c.54-.65,1.08-1.29,1.61-1.94,1.81-2.23,3.59-4.49,5.44-6.69a2.17,2.17,0,0,1,1.37-.7C188.88,172.53,190.31,172.59,192.07,172.59Z"/><path class="cls-1" d="M30.08,194.92V172.67H44.66v3.79H34.47v5.2h8.71v4h-8.7v5.44h10.2v3.86Z"/><path class="cls-1" d="M73.68,195c-1.47,0-2.78,0-4.09,0-.23,0-.47-.3-.67-.5a1.23,1.23,0,0,1-.17-.44c-1-3-1-3-4.1-3-1.32,0-2.64,0-4,0a1,1,0,0,0-1.12.78c-.34,1-.54,2.68-1.24,2.95-1.24.49-2.8.14-4.36.14.13-.43.21-.8.34-1.16,2.45-6.71,4.91-13.41,7.33-20.14a1.34,1.34,0,0,1,1.53-1.06c2.33.05,2.33,0,3.16,2.29q3.41,9.27,6.8,18.55C73.31,193.88,73.47,194.37,73.68,195Zm-12.52-7.75h5.37c-.86-2.57-1.69-5-2.51-7.51h-.25Z"/><path class="cls-1" d="M151.65,195c-1.43,0-2.7,0-4,0-.29,0-.56-.39-.83-.61,0,0-.06-.15-.09-.22-.38-1-.49-2.39-1.21-2.89s-2.08-.16-3.15-.17c-1.28,0-2.57,0-3.84,0a1.31,1.31,0,0,0-.92.65c-.49,1-.6,2.73-1.33,3-1.22.51-2.81.14-4.41.14l1.11-3.08c2.2-6,4.42-12.07,6.57-18.12a1.46,1.46,0,0,1,1.71-1.16c2.23.07,2.23,0,3,2.07q3.45,9.45,6.91,18.89C151.34,194,151.47,194.41,151.65,195ZM142,179.74l-.27,0-2.58,7.49h5.38C143.67,184.68,142.83,182.21,142,179.74Z"/><path class="cls-1" d="M106.24,203.48c2.35-.24,2.35-.24,2.88,2l3.3,13.61c.09.37.21.74.4,1.39.22-.65.36-1,.47-1.44q2-7.22,3.93-14.44c.21-.77.45-1.19,1.41-1.21s1.17.52,1.36,1.26c1.4,5.16,2.82,10.31,4.51,15.51,1.35-5.53,2.7-11.06,4.06-16.65h2.51q-2.76,10.77-5.46,21.38c-.15.06-.22.12-.29.12-1.93.11-1.93.11-2.46-1.77q-2-7-3.92-14.07c-.07-.25-.17-.49-.37-1.07-.92,3.29-1.75,6.26-2.57,9.23-.65,2.31-1.33,4.6-1.9,6.93-.23.94-.85.75-1.46.78s-1,0-1.22-.77c-1.7-6.82-3.46-13.62-5.19-20.43A1.13,1.13,0,0,1,106.24,203.48Z"/><path class="cls-1" d="M19.18,233.53V254.9H16.92V239.38l-.26,0c-1.14,2.49-2.27,5-3.4,7.46-.6,1.31-1.25,2.6-1.77,3.93a1.29,1.29,0,0,1-1.44.9,1.34,1.34,0,0,1-1.45-.89C6.9,247,5.14,243.2,3.14,239.46v15.47H.87V233.58c1.82-.52,2.12-.39,2.89,1.27l6.3,13.68c.23-.46.42-.78.56-1.11q2.81-6.22,5.59-12.46C17,233.18,17,233.18,19.18,233.53Z"/><path class="cls-1" d="M141.88,237.94v17h-2.24V233.52a2.35,2.35,0,0,1,3,1.15c3.13,4.88,6.39,9.67,9.61,14.49.23.35.49.69.91,1.28v-17h2.2v21.41a2.41,2.41,0,0,1-3-1.13c-3.11-4.89-6.36-9.68-9.57-14.51C142.6,238.91,142.34,238.58,141.88,237.94Z"/><path class="cls-1" d="M89.81,172.67h16v3.78h-5.73v18.47H95.63V176.54H89.81Z"/><path class="cls-1" d="M61.07,203.53a2.3,2.3,0,0,1,3,1.19c3.35,5.16,6.8,10.25,10.44,15.35V203.48h2.27v21.35c-1.9.4-2,.38-3-1.18l-9.61-14.48a3,3,0,0,0-.88-.95v16.69H61.07Z"/><path class="cls-1" d="M22.82,224.94H20.51V203.59c3.34,0,6.61-.19,9.85,0a5.26,5.26,0,0,1,4.73,5c.3,3.08-1,5.38-3.71,6.4l-.86.3c1.67,3.2,3.3,6.34,5,9.68-.74,0-1.28,0-1.81,0a1.24,1.24,0,0,1-1.38-.84c-1.3-2.61-2.67-5.17-4-7.78a1.38,1.38,0,0,0-1.46-.93c-1.31.06-2.63,0-4.11,0Zm0-19.4v7.78c2.24,0,4.4.16,6.53,0,2.33-.21,3.42-1.68,3.37-4a3.54,3.54,0,0,0-3.6-3.71C27.09,205.44,25,205.54,22.85,205.54Z"/><path class="cls-1" d="M76.19,172.64h4.27V191H90.58v3.87H76.19Z"/><path class="cls-1" d="M14.88,209.57c-1.87.34-1.91.33-2.68-1.28a5.07,5.07,0,0,0-5.41-2.89c-2.5.42-4.18,2-4.3,4.42a81.65,81.65,0,0,0,0,8.85,4.69,4.69,0,0,0,4.7,4.4,5,5,0,0,0,5.38-4,32.64,32.64,0,0,0,.29-3.31H7.58v-2.06h7.29c1.07,3.85,0,8-2.65,9.92a7.77,7.77,0,0,1-8.18.77,6.5,6.5,0,0,1-4-6.29c0-2.8-.1-5.6,0-8.39.21-3.8,3.18-6.37,7.27-6.5A7.29,7.29,0,0,1,15,209.35C15,209.42,14.9,209.5,14.88,209.57Z"/><path class="cls-1" d="M114.66,254.83c-2.43.45-2.54.4-3.61-1.46q-2.46-4.32-4.94-8.64c-.19-.33-.41-.65-.7-1.1-1.47,1.77-2.89,3.44-4.25,5.15a2,2,0,0,0-.24,1.12c0,1.64,0,3.27,0,5H98.67V233.45h2.2v11.86l.24.12c.27-.3.55-.6.8-.92,2.6-3.19,5.3-6.32,7.75-9.62,1.1-1.48,2.31-1.71,4.08-1.36l-3.18,3.92c-1,1.18-1.89,2.39-2.89,3.53a1.17,1.17,0,0,0-.14,1.65c2.22,3.7,4.38,7.43,6.56,11.16C114.28,254.12,114.46,254.47,114.66,254.83Z"/><path class="cls-1" d="M156.51,203.47v2h-11v7.59h9.3v2h-9.27v7.82h10.93v2H143.25V203.47Z"/><path class="cls-1" d="M96.45,222.89v2H83.2V203.46H96.43v2H85.57v7.59h9.25v2H85.57v7.79Z"/><path class="cls-1" d="M190.84,213v2.05h-9.27v7.78h10.87v2H179.21V203.47h13.22v2h-10.9V213Z"/><path class="cls-1" d="M77.38,233.44h2.27c0,.45.06.87.06,1.29,0,4.36,0,8.72,0,13.07a5.18,5.18,0,1,0,10.35-.16c0-4.27,0-8.55,0-12.83v-1.35h2.28c0,.36.08.67.08,1,0,4.44,0,8.88,0,13.31a7,7,0,0,1-4.58,6.93c-3.18,1.16-6.88.43-8.76-2a7.36,7.36,0,0,1-1.62-3.88C77.27,243.72,77.38,238.64,77.38,233.44Z"/><path class="cls-1" d="M40.06,203.45h2.25v1.33c0,4.36,0,8.71,0,13.07a4.94,4.94,0,0,0,5.42,5.22,4.9,4.9,0,0,0,4.93-5.22c0-4.32,0-8.64,0-12.95v-1.41h2.25a5.25,5.25,0,0,1,.11.74c0,4.64,0,9.28,0,13.92a7,7,0,0,1-6.44,7c-3.85.52-7.31-1.54-8.27-5a8.5,8.5,0,0,1-.34-2.24c0-4.52,0-9,0-13.56C40,204.05,40,203.75,40.06,203.45Z"/><path class="cls-1" d="M131,233.43h2.18a4.24,4.24,0,0,1,.13.78c0,4.68,0,9.36,0,14-.05,3.76-2.74,6.5-6.64,6.9s-7.28-1.75-8.14-5.32a8.16,8.16,0,0,1-.23-1.9q0-6.9,0-13.79a6.5,6.5,0,0,1,.07-.66h2.18c0,.39.06.81.06,1.22,0,4.32,0,8.64,0,12.95.05,4,3.2,6.32,6.89,5.18a4.41,4.41,0,0,0,3.37-4.07c.18-2.22.12-4.47.13-6.71C131,239.21,131,236.38,131,233.43Z"/><path class="cls-1" d="M159.41,222.33l1.71-1.49.83.66a7.84,7.84,0,0,0,7.38,1.2,3.57,3.57,0,0,0,2.62-4.06c-.13-1.72-1.11-2.71-3.11-3.08-1.38-.25-2.77-.41-4.13-.72-3.13-.72-4.68-2.59-4.67-5.5a5.57,5.57,0,0,1,4.69-5.81c3.15-.68,6.11-.28,8.64,2.07l-1.23,1.32a24,24,0,0,0-3.83-1.47,7.6,7.6,0,0,0-3.18.11,3.62,3.62,0,0,0-2.78,3.61,3.09,3.09,0,0,0,2.54,3.33c1.44.42,3,.6,4.45.89,3.09.6,4.79,2.35,5,5.13a5.61,5.61,0,0,1-4.34,6.2C166.16,225.75,162.6,225.31,159.41,222.33Z"/><path class="cls-1" d="M69.77,235.54H59.64v-2h13.1a10.72,10.72,0,0,1-.76,2.76c-3.07,5.1-6.23,10.14-9.36,15.21-.24.39-.46.8-.82,1.42H72.51v2H59.2a4.3,4.3,0,0,1,.61-3.28c3.15-4.95,6.22-10,9.32-14.94C69.33,236.36,69.5,236,69.77,235.54Z"/><path class="cls-1" d="M25,195H20.76v-22.3H25Z"/><path class="cls-1" d="M162.11,233.46h13.18v2H164.44v7.83h9.27v2.13h-9.32v9.42h-2.28Z"/><path class="cls-1" d="M41,254.94H38.6V235.53H32.43v-2.05H47.08v2H41Z"/><path class="cls-1" d="M192.35,235.52h-6.1V254.9h-2.37V235.54h-6.16v-2h14.63Z"/><path class="cls-1" d="M28,255H25.84V233.46H28Z"/><path class="cls-1" d="M136.81,224.94h-2.14V203.46h2.14Z"/><path class="cls-1" d="M51.8,201.09H49.64v-2.66H51.8Z"/><path class="cls-1" d="M43.21,201.09v-2.66h2.12v2.66Z"/></g></g></svg>