<svg id="Ebene_1" data-name="Ebene 1" xmlns="http://www.w3.org/2000/svg" viewBox="0 0 3282.19 1362.58"><defs><style>.cls-1{fill:#fff;fill-rule:evenodd;}</style></defs><title>Zeichenfläche 1</title><path class="cls-1" d="M1403.45,718.29c6.23-2,11.2-4.25,14.79-6.77a54.48,54.48,0,0,0,8.62-7.13V655.11h-13A162,162,0,0,0,1387.4,657a53.13,53.13,0,0,0-18.68,6.23,28.23,28.23,0,0,0-11.14,11.38c-2.46,4.67-3.71,10.42-3.71,17.19a35.37,35.37,0,0,0,3.71,16.23,21,21,0,0,0,11,10.3,42.92,42.92,0,0,0,16.17,2.93A62,62,0,0,0,1403.45,718.29Z"/><path class="cls-1" d="M1242.3,671a139.8,139.8,0,0,0,1.2-19.1q0-21.56-5.21-36.41t-15.45-20.84a42.38,42.38,0,0,0-22.1-6.11,35.34,35.34,0,0,0-18.8,5,41.66,41.66,0,0,0-13.83,14,69.09,69.09,0,0,0-8.5,21.38,117.53,117.53,0,0,0-2.93,27.19v46.71A64,64,0,0,0,1174,715.29a48.75,48.75,0,0,0,21.44,4.55c8.38,0,15.81-1.62,22.16-4.91s11.08-7.37,14.13-12.28a63.56,63.56,0,0,0,6.83-14.55A102.07,102.07,0,0,0,1242.3,671Z"/><path class="cls-1" d="M1001.69,924q-29.82,76.8-43,120h86.83c-6.11-18.86-12.64-38-19.76-57.67S1010.68,946,1001.69,924Z"/><path class="cls-1" d="M2471.27,631c0-15-3.05-26.53-9-34.73S2446.72,584,2433.9,584q-20.39,0-31.08,14.55c-7.13,9.76-11.2,23.29-12.28,40.72h80.72Z"/><path class="cls-1" d="M1890.77,657a53.13,53.13,0,0,0-18.68,6.23,28.23,28.23,0,0,0-11.14,11.38c-2.46,4.67-3.71,10.42-3.71,17.19a35.37,35.37,0,0,0,3.71,16.23,21,21,0,0,0,11,10.3,42.92,42.92,0,0,0,16.17,2.93,62,62,0,0,0,18.68-2.93c6.23-2,11.2-4.25,14.79-6.77a54.5,54.5,0,0,0,8.62-7.13V655.11h-13A162,162,0,0,0,1890.77,657Z"/><path class="cls-1" d="M1729,1051a53.13,53.13,0,0,0-18.68,6.23,28.23,28.23,0,0,0-11.14,11.38c-2.46,4.67-3.71,10.42-3.71,17.19a35.37,35.37,0,0,0,3.71,16.23,21,21,0,0,0,11,10.3,42.92,42.92,0,0,0,16.17,2.93,62,62,0,0,0,18.68-2.93c6.23-2,11.2-4.25,14.79-6.77a54.49,54.49,0,0,0,8.62-7.13v-49.28h-13A162,162,0,0,0,1729,1051Z"/><path class="cls-1" d="M0,0V1362.58H3282.19V0ZM2359.47,615.17a88.54,88.54,0,0,1,15.45-30.24,68.45,68.45,0,0,1,25.27-19.58q15.09-6.92,34.55-6.89,36.38,0,54.73,21.92t18.44,62.82c0,8-.24,15.15-.72,21.2H2391.26q2.07,27.58,15.39,42.22t39.52,14.61a167.31,167.31,0,0,0,23.47-1.62,161.8,161.8,0,0,0,20-4.13l6.83,26.65a141.76,141.76,0,0,1-24.61,5.15,244.84,244.84,0,0,1-30.78,1.68q-20.75,0-36.89-6.65a74.18,74.18,0,0,1-27.25-19A83.52,83.52,0,0,1,2360,693.38q-5.75-17.61-5.75-39.34A137.13,137.13,0,0,1,2359.47,615.17ZM2104,680.08a58.3,58.3,0,0,0-18.32-9.16c-7.37-2.4-14.13-4.67-20.36-6.89-7.37-2.46-14.19-5-20.42-7.72a64.44,64.44,0,0,1-16.35-9.82,40,40,0,0,1-10.78-14c-2.57-5.51-3.83-12.22-3.83-20.18a51.5,51.5,0,0,1,4.79-22.82,46,46,0,0,1,13.59-16.65,63.21,63.21,0,0,1,21.26-10.18,101.35,101.35,0,0,1,27.55-3.53,202.09,202.09,0,0,1,31,2.1,189.16,189.16,0,0,1,23.17,5.09v28.8a156.26,156.26,0,0,0-24.13-6,161,161,0,0,0-28-2.22c-12,0-21,1.86-26.65,5.63s-8.62,9.4-8.62,17a15.74,15.74,0,0,0,3.05,9.82,27.85,27.85,0,0,0,8.68,7.19,79.88,79.88,0,0,0,13.77,5.87c5.45,1.86,11.56,3.77,18.32,5.93q21.11,6.47,33.11,13.65c8,4.79,13.65,10.78,17,17.9a54.12,54.12,0,0,1,5,23.35c0,9.22-1.74,17.31-5.27,24.19a46.21,46.21,0,0,1-14.91,17.19,67.08,67.08,0,0,1-23.23,10.18,127.39,127.39,0,0,1-30.24,3.35,186.39,186.39,0,0,1-22.58-1.32,176.91,176.91,0,0,1-18.38-3.29,136.69,136.69,0,0,1-14.13-4c-4-1.38-7.19-2.69-9.64-3.83l9.28-26.35c6.11,2.46,11.56,4.43,16.47,5.87a114,114,0,0,0,17.13,3.59A134,134,0,0,0,2071,720.2q15.81,0,25.15-3.59c6.29-2.4,10.36-5.63,12.28-9.58a27,27,0,0,0,2.93-11.74A18.4,18.4,0,0,0,2104,680.08ZM1028.1,653.25a72.51,72.51,0,0,0-23.29-14.37c-9-3.59-17.25-6.77-24.61-9.58q-10.51-3.68-19.94-7.72a119.23,119.23,0,0,1-18.92-10.42,64.48,64.48,0,0,1-16.17-15.27,49.65,49.65,0,0,1-8.68-17.72,81.55,81.55,0,0,1-2.1-18.68,66.11,66.11,0,0,1,6-28.56,60.4,60.4,0,0,1,17-21.8,79.46,79.46,0,0,1,26.95-13.77,123.73,123.73,0,0,1,35.69-4.79,196.27,196.27,0,0,1,28.08,1.86,170,170,0,0,1,21.44,4.19q8.53,2.34,12.22,3.23v31.74a188.16,188.16,0,0,0-19.28-5.87,200.26,200.26,0,0,0-21.32-4,176.44,176.44,0,0,0-21.5-1.38c-15.69,0-27.85,3.23-36.59,9.64S950,545.71,950,557.74a27.81,27.81,0,0,0,4.13,15.45,38.69,38.69,0,0,0,11.68,11.14,103.2,103.2,0,0,0,17.84,8.86c6.95,2.69,14.55,5.45,22.82,8.38,9.16,3.41,17.91,7,26.35,10.72a88.17,88.17,0,0,1,22.16,14,62.53,62.53,0,0,1,15.39,20.42q5.75,12.13,5.75,30c0,11.62-2,21.86-6,30.9a59.89,59.89,0,0,1-17.55,22.7c-7.66,6.17-16.95,10.78-28,14S1001,748.95,987,748.95a197.56,197.56,0,0,1-28.5-1.86,209.21,209.21,0,0,1-23.05-4.37,133.22,133.22,0,0,1-17.19-5.27c-4.73-1.8-8.26-3.29-10.72-4.43l10.18-29c3.35,1.8,8.86,3.89,16.41,6.35a159.72,159.72,0,0,0,24.25,5.75,149.1,149.1,0,0,0,24.25,2.16c15.21,0,27-2.22,35.51-6.59s13.83-9.82,16.17-16.23a55.41,55.41,0,0,0,3.41-18.44C1037.74,667.21,1034.51,659.3,1028.1,653.25ZM459,245.16A74.08,74.08,0,0,1,474,223.06,67.26,67.26,0,0,1,496,208.15a69,69,0,0,1,27.13-5.39,67.67,67.67,0,0,1,26.95,5.39,69.92,69.92,0,0,1,37,37,70.06,70.06,0,0,1,0,53.89,69.93,69.93,0,0,1-37,37,67.68,67.68,0,0,1-26.95,5.39A69,69,0,0,1,496,336.06,67.26,67.26,0,0,1,474,321.15,74.08,74.08,0,0,1,459,299.05a68,68,0,0,1,0-53.89ZM731.92,480.49H411.79v41.68H731.92V675.23a67.67,67.67,0,0,1-5.39,26.95,71.39,71.39,0,0,1-14.73,22.1,67.28,67.28,0,0,1-22.1,14.91,69,69,0,0,1-27.13,5.39H384.13a67.68,67.68,0,0,1-26.95-5.39,69.92,69.92,0,0,1-37-37,67.68,67.68,0,0,1-5.39-26.95V647.57H634.2V605.89H314.78V452.83a67.68,67.68,0,0,1,5.39-26.95,69.92,69.92,0,0,1,37-37,67.68,67.68,0,0,1,26.95-5.39H662.58a69,69,0,0,1,27.13,5.39,67.27,67.27,0,0,1,22.1,14.91,71.39,71.39,0,0,1,14.73,22.1,67.67,67.67,0,0,1,5.39,26.95Zm340.61,658.11q-8.26-31.08-18.26-65.81h-105q-6.2,23-18.26,65.81H895.34q5.12-18.77,11.32-39.94t13.41-43.29q7.19-22.19,15.21-44.67c5.33-15,10.72-29.58,16.29-44s11.2-28.08,16.95-41.32,11.38-25.33,17-36.47h34.19q8.44,16.71,17,36.47t16.95,41.32c5.57,14.37,11,29,16.35,44s10.36,29.88,15.15,44.67,9.28,29.22,13.41,43.29,8,27.43,11.32,39.94Zm106.29,0h-34.91V900c-3.47-.6-11.38-1.56-23.65-2.81V874.58h58.56ZM1176,744.16a61.75,61.75,0,0,1-19.28-10.66v83.72h-34.91V562.83h33.35l.72,26.47a54.45,54.45,0,0,1,13.29-16.41,53.88,53.88,0,0,1,19.22-10.48,72.7,72.7,0,0,1,21.86-3.29q25.24,0,41.92,13.29c11.08,8.8,18.68,20.42,22.7,34.91a160.73,160.73,0,0,1,6,43.89q0,23-5.09,41.08c-3.35,12-8.38,22.22-15,30.42a64,64,0,0,1-24.55,18.86c-9.76,4.31-21,6.53-33.59,6.53C1192.36,748.11,1183.44,746.79,1176,744.16Zm139.88,396.54a149.36,149.36,0,0,1-20.9,1.44c-9.1,0-16.89-1.26-23.29-3.71a39.2,39.2,0,0,1-15.81-10.6,43.5,43.5,0,0,1-9-16.95,81.77,81.77,0,0,1-2.87-22.64V984h-28.44V956.86h28.44V916.14q13.47-4.76,34.73-15.45v56.17h47.19V984h-47.19v100.36c0,10.48,2,18.08,5.87,22.82s10.6,7,20.06,7a83.75,83.75,0,0,0,13.71-1.08,62,62,0,0,0,10-2.28l6.11,26A126.63,126.63,0,0,1,1315.84,1140.7Zm19.7-405.16a45.92,45.92,0,0,1-12.1-17Q1319,708.11,1319,693.2q0-20.75,9.46-34.13c6.35-9,15.63-15.87,27.91-20.78a107.07,107.07,0,0,1,23.23-6,238.45,238.45,0,0,1,28.86-2.28c.48,0,1.62-.06,3.47-.12s3.71-.06,5.69-.06,3.89-.06,5.69-.06,3-.12,3.59-.12v-9.82c0-9.1-1.68-16.17-5-21.14s-8.5-8.38-15.39-10.18a87.28,87.28,0,0,0-22.1-2.69,117.53,117.53,0,0,0-27.19,2.93,247.88,247.88,0,0,0-23.89,7.07V567.38c9.88-2.57,17-4.25,21.44-5.09s10.12-1.56,17-2.22,13.41-1,19.46-1c12,0,22.52,1.2,31.32,3.53s16.11,6,21.86,10.9a43.55,43.55,0,0,1,12.69,18.74c2.75,7.61,4.13,16.65,4.13,27.19V744.57h-33l-.66-15.45a56.24,56.24,0,0,1-13.41,9.58,79.27,79.27,0,0,1-19,6.83,89,89,0,0,1-20.06,2.58,77.69,77.69,0,0,1-21.68-3A47.43,47.43,0,0,1,1335.54,735.53Zm279.77,403.07H1580.4V1020.69c0-13.11-2.4-22.64-7.13-28.68s-12.58-9-23.41-9a36.43,36.43,0,0,0-16.53,3.77,40.14,40.14,0,0,0-13.11,10.48,48.94,48.94,0,0,0-8.8,15.57,57.43,57.43,0,0,0-3.17,19.16V1138.6h-34.91V1020.69c0-13.11-2.34-22.64-7.07-28.68s-12.58-9-23.41-9a36.43,36.43,0,0,0-16.53,3.77,39.92,39.92,0,0,0-13.05,10.48,49.72,49.72,0,0,0-8.62,15.57,59,59,0,0,0-3.05,19.16V1138.6h-34.91V956.86H1400l.72,24a63.27,63.27,0,0,1,21-20.18c8.56-5,19-7.54,31.56-7.54s22.93,2.63,31.5,7.84a42.55,42.55,0,0,1,18.32,22.34,73.09,73.09,0,0,1,23.71-22.16q13.83-8,33.17-8,26.86,0,41,15.09c9.46,10.06,14.25,24.25,14.25,42.46Zm2.93-542.77a53.42,53.42,0,0,0-12.46-1.08c-8.74,0-16.35,1.62-22.76,4.85a50,50,0,0,0-16.17,12.34,51.27,51.27,0,0,0-9.64,16.65,54.18,54.18,0,0,0-3.17,17.55v98.45h-34.91V562.83h33.35l.72,34.37a70.51,70.51,0,0,1,14.91-20.72,52.14,52.14,0,0,1,18.2-11.5,56.55,56.55,0,0,1,18.26-3.23,65,65,0,0,1,13.65,1.08ZM1802.8,1138.6h-33l-.66-15.45a56.24,56.24,0,0,1-13.41,9.58,79.27,79.27,0,0,1-19,6.83,89,89,0,0,1-20.06,2.58,77.69,77.69,0,0,1-21.68-3,47.44,47.44,0,0,1-17.91-9.58,45.92,45.92,0,0,1-12.1-17q-4.49-10.42-4.49-25.33,0-20.75,9.46-34.13c6.35-9,15.63-15.87,27.91-20.78a107.08,107.08,0,0,1,23.23-6A238.47,238.47,0,0,1,1750,1024c.48,0,1.62-.06,3.47-.12s3.71-.06,5.69-.06,3.89-.06,5.69-.06,3-.12,3.59-.12v-9.82c0-9.1-1.68-16.17-5-21.14s-8.5-8.38-15.39-10.18a87.28,87.28,0,0,0-22.1-2.69,117.53,117.53,0,0,0-27.19,2.93,247.88,247.88,0,0,0-23.89,7.07V961.41c9.88-2.57,17-4.25,21.44-5.09s10.12-1.56,17-2.22,13.41-1,19.46-1c12,0,22.52,1.2,31.32,3.53s16.11,6,21.86,10.9a43.55,43.55,0,0,1,12.69,18.74c2.75,7.61,4.13,16.65,4.13,27.19Zm-41-394c-7.37-10.54-15.57-21.56-24.61-33.17s-17.84-22.1-26.35-31.56-16.29-17.73-23.41-24.73v89.46H1652.5v-264h34.91V633.19l67.91-70.36h41.92l-76.47,78.57q11.23,9.88,22.64,22.1t22.16,25.75c7.19,8.92,14.19,18.08,20.9,27.55s13.05,18.68,19,27.79Zm198,245.28a53.42,53.42,0,0,0-12.46-1.08c-8.74,0-16.35,1.62-22.76,4.85a50,50,0,0,0-16.17,12.34,51.27,51.27,0,0,0-9.64,16.65,54.18,54.18,0,0,0-3.17,17.55v98.45h-34.91V956.86h33.35l.72,34.37a70.51,70.51,0,0,1,14.91-20.72,52.14,52.14,0,0,1,18.2-11.5,56.55,56.55,0,0,1,18.26-3.23,65,65,0,0,1,13.65,1.08Zm4.79-245.28h-33l-.66-15.45a56.24,56.24,0,0,1-13.41,9.58,79.27,79.27,0,0,1-19,6.83,89,89,0,0,1-20.06,2.58,77.69,77.69,0,0,1-21.68-3,47.43,47.43,0,0,1-17.91-9.58,45.92,45.92,0,0,1-12.1-17q-4.49-10.42-4.49-25.33,0-20.75,9.46-34.13c6.35-9,15.63-15.87,27.91-20.78a107.07,107.07,0,0,1,23.23-6,238.45,238.45,0,0,1,28.86-2.28c.48,0,1.62-.06,3.47-.12s3.71-.06,5.69-.06,3.89-.06,5.69-.06,3-.12,3.59-.12v-9.82c0-9.1-1.68-16.17-5-21.14s-8.5-8.38-15.39-10.18a87.27,87.27,0,0,0-22.1-2.69,117.53,117.53,0,0,0-27.19,2.93,247.87,247.87,0,0,0-23.89,7.07V567.38c9.88-2.57,17-4.25,21.44-5.09s10.12-1.56,17-2.22,13.41-1,19.46-1c12,0,22.52,1.2,31.32,3.53s16.11,6,21.86,10.9a43.54,43.54,0,0,1,12.69,18.74c2.75,7.61,4.13,16.65,4.13,27.19Zm138.75,394c-7.37-10.54-15.57-21.56-24.61-33.17s-17.84-22.1-26.35-31.56-16.29-17.73-23.41-24.73v89.46h-34.91v-264H2029v152.64l67.91-70.36h41.92l-76.47,78.57q11.23,9.88,22.64,22.1t22.16,25.75c7.19,8.92,14.19,18.08,20.9,27.55s13.05,18.68,19,27.79Zm97.49-395.1a136.72,136.72,0,0,1-14.13-4c-4-1.38-7.19-2.69-9.64-3.83l9.28-26.35c6.11,2.46,11.56,4.43,16.47,5.87a114,114,0,0,0,17.13,3.59,134,134,0,0,0,19.58,1.44q15.81,0,25.15-3.59c6.29-2.4,10.36-5.63,12.28-9.58a27,27,0,0,0,2.93-11.74,18.4,18.4,0,0,0-7.31-15.21,58.3,58.3,0,0,0-18.32-9.16c-7.37-2.4-14.13-4.67-20.36-6.89-7.37-2.46-14.19-5-20.42-7.72a64.43,64.43,0,0,1-16.35-9.82,40,40,0,0,1-10.78-14c-2.57-5.51-3.83-12.22-3.83-20.18a51.5,51.5,0,0,1,4.79-22.82,46,46,0,0,1,13.59-16.65,63.21,63.21,0,0,1,21.26-10.18,101.34,101.34,0,0,1,27.55-3.53,202.1,202.1,0,0,1,31,2.1,189.16,189.16,0,0,1,23.17,5.09v28.8a156.27,156.27,0,0,0-24.13-6,161,161,0,0,0-28-2.22c-12,0-21,1.86-26.65,5.63s-8.62,9.4-8.62,17a15.74,15.74,0,0,0,3.05,9.82,27.85,27.85,0,0,0,8.68,7.19,79.86,79.86,0,0,0,13.77,5.87c5.45,1.86,11.56,3.77,18.32,5.93q21.11,6.47,33.11,13.65c8,4.79,13.65,10.78,17,17.9a54.12,54.12,0,0,1,5,23.35c0,9.22-1.74,17.31-5.27,24.19a46.22,46.22,0,0,1-14.91,17.19A67.08,67.08,0,0,1,2272,744.75a127.39,127.39,0,0,1-30.24,3.35,186.4,186.4,0,0,1-22.58-1.32A176.92,176.92,0,0,1,2200.84,743.5Zm316.9,212.22q-8.89,37.64-20.36,76.05c-7.6,25.63-14.43,47-20.48,64.31s-11.38,31.38-15.81,42.52h-32.64l-50.36-198.27-50.36,198.27h-32.94c-4.25-11.26-8.5-23.35-12.81-36.41s-8.68-26.65-13-40.78-8.62-28.68-12.81-43.53-8.26-29.64-12.1-44.37-7.55-29.28-11.08-43.59-6.65-28-9.46-41h38.8q6.47,32.43,18,81.14t30.9,112l49.28-186.71h37.37l49.16,187.19q20.48-62.61,31.8-111.14T2495.64,889h36.65Q2526.72,918.05,2517.74,955.72Zm183.72,102.7H2585.52q2.07,27.58,15.39,42.22t39.52,14.61a167.31,167.31,0,0,0,23.47-1.62,161.79,161.79,0,0,0,20-4.13l6.83,26.65a141.76,141.76,0,0,1-24.61,5.15,244.82,244.82,0,0,1-30.78,1.68q-20.75,0-36.89-6.65a74.18,74.18,0,0,1-27.25-19,83.52,83.52,0,0,1-16.95-29.88q-5.75-17.61-5.75-39.34a137.12,137.12,0,0,1,5.21-38.86A88.54,88.54,0,0,1,2569.17,979a68.45,68.45,0,0,1,25.27-19.58q15.09-6.92,34.55-6.89,36.38,0,54.73,21.92t18.44,62.82C2702.17,1045.24,2701.93,1052.37,2701.45,1058.42Zm168.39,53a46.22,46.22,0,0,1-14.91,17.19,67.08,67.08,0,0,1-23.23,10.18,127.39,127.39,0,0,1-30.24,3.35,186.38,186.38,0,0,1-22.58-1.32,177,177,0,0,1-18.38-3.29,136.72,136.72,0,0,1-14.13-4c-4-1.38-7.19-2.69-9.64-3.83l9.28-26.35c6.11,2.46,11.56,4.43,16.47,5.87a114,114,0,0,0,17.13,3.59,134.05,134.05,0,0,0,19.58,1.44q15.81,0,25.15-3.59c6.29-2.4,10.36-5.63,12.28-9.58a27,27,0,0,0,2.93-11.74,18.4,18.4,0,0,0-7.31-15.21,58.3,58.3,0,0,0-18.32-9.16c-7.37-2.4-14.13-4.67-20.36-6.89-7.37-2.46-14.19-5-20.42-7.72a64.43,64.43,0,0,1-16.35-9.82,40,40,0,0,1-10.78-14c-2.58-5.51-3.83-12.22-3.83-20.18a51.51,51.51,0,0,1,4.79-22.82,46,46,0,0,1,13.59-16.65,63.21,63.21,0,0,1,21.26-10.18,101.35,101.35,0,0,1,27.55-3.53,202.09,202.09,0,0,1,31,2.1,189.15,189.15,0,0,1,23.17,5.09v28.8a156.27,156.27,0,0,0-24.13-6,161,161,0,0,0-28-2.22c-12,0-21,1.86-26.65,5.63s-8.62,9.4-8.62,17a15.74,15.74,0,0,0,3.05,9.82,27.85,27.85,0,0,0,8.68,7.19,79.86,79.86,0,0,0,13.77,5.87c5.45,1.86,11.56,3.77,18.32,5.93q21.11,6.47,33.11,13.65c8,4.79,13.65,10.78,17,17.9a54.12,54.12,0,0,1,5,23.35C2875.11,1096.44,2873.38,1104.53,2869.84,1111.41Zm130.36,29.28a149.35,149.35,0,0,1-20.9,1.44c-9.1,0-16.89-1.26-23.29-3.71a39.2,39.2,0,0,1-15.81-10.6,43.5,43.5,0,0,1-9-16.95,81.77,81.77,0,0,1-2.87-22.64V984h-28.44V956.86h28.44V916.14q13.47-4.76,34.73-15.45v56.17h47.19V984H2963v100.36c0,10.48,2,18.08,5.87,22.82s10.6,7,20.06,7a83.74,83.74,0,0,0,13.71-1.08,62,62,0,0,0,10-2.28l6.11,26A126.63,126.63,0,0,1,3000.21,1140.7Z"/><path class="cls-1" d="M2628.16,978.06q-20.39,0-31.08,14.55c-7.13,9.76-11.2,23.29-12.28,40.72h80.72v-8.26c0-15-3.05-26.53-9-34.73S2641,978.06,2628.16,978.06Z"/></svg>