<svg xmlns="http://www.w3.org/2000/svg" viewBox="0 0 386.61 109.41"><defs><style>.cls-1{fill:#fff;}.cls-2{fill:#999;}</style></defs><title>Element 1</title><g id="Ebene_2" data-name="Ebene 2"><g id="Ebene_2-2" data-name="Ebene 2"><path class="cls-1" d="M109.75,39.24,104.62,52.5H87.75l22-51.66H131.1L153.42,52.5H135.91l-5.55-13.26ZM128,30.51l-4.48-11c-1.28-3.07-2.56-6.9-3.63-10h-.21c-1.07,3.07-2.14,7-3.31,10l-4.27,11Z"/><path class="cls-1" d="M163,.84h16.34V42.69H208V52.5H163Z"/><path class="cls-1" d="M218.12,40.47a55,55,0,0,0,18,3.22c7.47,0,11.43-2.22,11.43-5.6,0-3.22-3.42-5.06-12.07-7.28-12-3-19.75-7.74-19.75-15.25C215.77,6.75,226,0,243,0a59.28,59.28,0,0,1,18.37,2.61L257.73,12a45.49,45.49,0,0,0-15.05-2.45c-7,0-10.47,2.3-10.47,5,0,3.3,4.06,4.75,13.35,7.28,12.71,3.37,18.68,8.12,18.68,15.41,0,8.66-9.29,16-29,16-8.22,0-16.34-1.53-20.4-3.14Z"/><path class="cls-1" d="M318.06,30.66H291.58V42.92h29.58V52.5H275.24V.84h44.42v9.58H291.58V21.16h26.48Z"/><path class="cls-1" d="M332.26,1.53A198.45,198.45,0,0,1,353.93.46c10.68,0,18.15,1.15,23.28,4.06,4.27,2.45,6.62,6.05,6.62,10.81,0,6.59-6.52,11.11-12.71,12.72v.23c5,1.46,7.79,4.91,9.61,9.66,2.24,5.83,4.49,12.57,5.87,14.56H369.95c-1.17-1.46-2.88-5.67-5-12-1.92-6.44-5-8.2-11.64-8.28h-4.91V52.5H332.26Zm16.12,22.23h6.41c8.12,0,12.92-2.91,12.92-7.44,0-4.75-4.49-7.13-12-7.2a56.34,56.34,0,0,0-7.37.38Z"/><polyline class="cls-1" points="34.68 52.5 18.58 52.5 0 0.84 15.04 0.84"/><polyline class="cls-2" points="76.46 0.84 91.5 0.84 72.92 52.5 56.81 52.5"/><polyline class="cls-2" points="38.19 0.84 53.22 0.84 34.64 52.5 18.54 52.5"/><polyline class="cls-2" points="72.94 52.5 56.84 52.5 38.26 0.84 53.3 0.84"/><path class="cls-1" d="M150.18,109.25a21.5,21.5,0,0,0,.93-3.43l2.6-13.53a3.76,3.76,0,0,0,0-1.73h3l.24.75a2.17,2.17,0,0,1,.67-.62,1.94,1.94,0,0,1,.81-.14h5.93q2.52,0,1.91,3.17l-1.14,5.93q-.61,3.17-3.13,3.17h-5.72a1.5,1.5,0,0,1-1.35-.65l-.7,3.65a19.51,19.51,0,0,0-.39,3.43Zm5.18-9.42a1.72,1.72,0,0,0,0,1.07c.11.2.37.3.77.3h4.52a1.17,1.17,0,0,0,.89-.3,2.2,2.2,0,0,0,.43-1.07l1.21-6.31a1.62,1.62,0,0,0,0-1q-.17-.29-.77-.29h-4.52a1.22,1.22,0,0,0-.88.27,2.09,2.09,0,0,0-.43,1.05Z"/><path class="cls-1" d="M166.45,102.83a4.79,4.79,0,0,0,.67-1.73l1.69-8.8a4.33,4.33,0,0,0,.06-1.73H172v.77a1.72,1.72,0,0,1,.78-.67,1.54,1.54,0,0,1,.55-.1h4.37l-.26,2.33c-.35,0-.48-.07-.39-.07a6.54,6.54,0,0,0-1.46-.15H173a1.44,1.44,0,0,0-1,.29,1.91,1.91,0,0,0-.47,1.06l-1.36,7.07a3.74,3.74,0,0,0,0,1.73Z"/><path class="cls-1" d="M179.3,102.83q-2.54,0-1.93-3.17l1.14-5.93q.61-3.17,3.15-3.17h8.21q2.54,0,1.93,3.17l-1.14,5.93q-.61,3.17-3.15,3.17Zm1.18-3.14a1.94,1.94,0,0,0,0,1.2c.12.21.42.31.88.31h4.7a1.32,1.32,0,0,0,1-.31,2.42,2.42,0,0,0,.48-1.2l1.15-6a1.9,1.9,0,0,0,0-1.2c-.12-.21-.41-.31-.87-.31h-4.7a1.34,1.34,0,0,0-1,.31,2.44,2.44,0,0,0-.47,1.2Z"/><path class="cls-1" d="M17.46,90.12l-.34,9L17,102.26h4.54l4.07-9,4.07-9,.18-.38H30l-.42,11.66-.18,6.67h4.56L38.09,93l4.81-10.73a8.61,8.61,0,0,1,1-1.48v-.2H41.2a4.16,4.16,0,0,1-.37,1.33l-2.49,5.69L34,97.38l-.11.19L34,94.89,34.39,85l.14-4.25V80.6H29.21l-4.16,9.25-3.3,7.39,0-.12L22,87.81l.17-4.32a9.41,9.41,0,0,1,.35-2.64l0-.26H17.44v.24a7.08,7.08,0,0,1,.31,2.42l-.05,1.43Z"/><path class="cls-1" d="M72.68,72.68H68.06A14.13,14.13,0,0,1,67.57,76l-1.12,4.68-1.59,6.74L62.39,97.85l-.62,2.47a10.91,10.91,0,0,1-.83,2H66.1a10.36,10.36,0,0,1,.34-3l.44-1.88,1.9-8,1.71-7.27,1.74-7.28S72.69,72.81,72.68,72.68Z"/><polygon class="cls-1" points="75.84 73.78 74.97 77.25 74.96 77.49 79.3 77.49 80.13 74.07 80.13 73.78 75.84 73.78"/><path class="cls-1" d="M73.88,80.58a17.11,17.11,0,0,1-.4,3.06l-.36,1.51-1.23,5.16-2,8.39a14.59,14.59,0,0,1-1.09,3.23l-.13.36h5a20.78,20.78,0,0,1,.48-3.22l.39-1.62,1.58-6.67L78,83l.52-2.45Z"/><path class="cls-1" d="M86,80.58h-4.5a14.3,14.3,0,0,1-.67,4.08l-1.11,4.67-1.34,5.58-1,4.29a11,11,0,0,1-1.09,3v.15h5.09a16,16,0,0,1,.43-3.25L83.57,92l1.59-6.71s.42-1.73,1.86-1.74H92.7s1.36,0,1,1.59l-.34,1.61L92,92.53l-1.72,7.29a16.86,16.86,0,0,1-.86,2.34v.13h5.08a12.78,12.78,0,0,1,.43-3.37l1.23-5.19L97.52,88s.54-3,1.23-3.81a1.69,1.69,0,0,1,1.37-.61h5.52s1.41-.05,1.16,1.33l-.25,1.37-1.24,5.15-1.37,5.81-.86,3.39a17.53,17.53,0,0,1-.69,1.71h5.06a8.68,8.68,0,0,1,.29-2.58l.39-1.8,1.34-5.52,1.24-5.2s.84-3.29.48-4.76a2.25,2.25,0,0,0-2.28-1.85l-2,0h-5.74a3.54,3.54,0,0,0-3,1.53H98a2.45,2.45,0,0,0-2.21-1.53H88.1a2.48,2.48,0,0,0-2.05,1Z"/><path class="cls-1" d="M132.63,82.07a2.42,2.42,0,0,0-2.18-1.49H119a4.34,4.34,0,0,0-4.13,3,32.93,32.93,0,0,0-1.49,5.07l-1.49,6.27a31.61,31.61,0,0,0-.74,3.73,5.39,5.39,0,0,0,.28,2.51,2,2,0,0,0,1.81,1.2h14.8l1.11-3v-.23s-1.78.35-2.23.35H116.53a.87.87,0,0,1-.92-.82,2.69,2.69,0,0,1,.14-1.25c.36-1.51.38-1.61.38-1.61l.61-2.59.07-.16h14l.82-3.17,1-4.16A7.31,7.31,0,0,0,132.63,82.07Zm-4.29,3-1.14,5h-9.75l1-3.87.4-1.33a1.72,1.72,0,0,1,1.64-1.3h6.93C128.71,83.57,128.34,85,128.34,85Z"/><path class="cls-1" d="M139.13,92.09,136.41,95l-7.11,7.49-6.86,6.76v.13h3.09l4.51-4.8,6.15-6.41,3.47-3.8.11-.12h.07l.81,2.62,1.37,4.26.08.26.06.8h6l-.15-.41-.6-1.35L146,95.9l-2-6.07,5.22-5.57,3.79-4,4.45-4.44,4.82-4.78.13-.21h-3.19s-1.28,1.5-2.69,2.93L155,75.21s-3.64,3.77-5,5.15l-4.67,5-2,2.13-.1.1-.58-1.5-1.18-3.69L141.15,81l0-.55h-6a12.18,12.18,0,0,1,1,2.33l.39,1.28,1.57,4.76Z"/><path class="cls-1" d="M61.9,81.83a2.19,2.19,0,0,0-2.18-1.28H46.17v0L45,83.79a14.42,14.42,0,0,1,2.77-.32H49l8.24,0a.55.55,0,0,1,.6.61l0,.63a5,5,0,0,1-1,2.64,1.78,1.78,0,0,1-1.06.28H46.65a3,3,0,0,0-2.22.91,6.77,6.77,0,0,0-1.85,3.58L42,94.71l-.85,3.84a4.31,4.31,0,0,0,.12,2.44s.53,1.23,1.5,1.24c.07,0,9.59,0,9.59,0s.78.1,1.59-1l.15-.14s.08-.1.09,0v.14l.14,1h4.1a15.61,15.61,0,0,1,.3-2.86L59,98.28,60.7,91l1.22-5.2A7.89,7.89,0,0,0,61.9,81.83ZM55.76,93.33l-1.24,5a1.56,1.56,0,0,1-1.24,1.13H46.2a1,1,0,0,1-.89-.69,4.55,4.55,0,0,1,.18-1.64l1.24-5c.46-1.72,1.67-1.55,1.67-1.55h8Z"/><path class="cls-1" d="M201,82.81a5,5,0,1,1-1.45-3.5A4.78,4.78,0,0,1,201,82.81Zm-.66,0a4.19,4.19,0,0,0-1.26-3,4.25,4.25,0,0,0-6.06,0,4.32,4.32,0,0,0,0,6.09,4.25,4.25,0,0,0,6.06,0A4.19,4.19,0,0,0,200.34,82.81Zm-1.1,2.52H198l-1.9-2h-.93v2h-.94V80.09H196a7.51,7.51,0,0,1,.89,0,2.1,2.1,0,0,1,.69.23,1.35,1.35,0,0,1,.53.47,1.31,1.31,0,0,1,.17.7,1.35,1.35,0,0,1-.32.92A2.22,2.22,0,0,1,197,83Zm-2-3.74a.8.8,0,0,0-.08-.37.62.62,0,0,0-.27-.26,1.13,1.13,0,0,0-.38-.13,3.55,3.55,0,0,0-.5,0h-.85v1.77h.73a3.07,3.07,0,0,0,.61-.05,1,1,0,0,0,.42-.19.85.85,0,0,0,.25-.31A1.14,1.14,0,0,0,197.23,81.59Z"/><path class="cls-1" d="M221,83.26h18.74q4.08,0,5.87,1.64t1.8,5.32v12.05h-4.91V90.87a4.31,4.31,0,0,0-.62-2.77,3.48,3.48,0,0,0-2.54-.67h-2.74v14.84h-5V87.43h-5.7v14.84H221Z"/><path class="cls-1" d="M252.09,83.25h10a8.08,8.08,0,0,1,5.7,1.79,6.92,6.92,0,0,1,1.92,5.31v11.92H256.59a5.85,5.85,0,0,1-4.23-1.43,5.36,5.36,0,0,1-1.48-4.05q0-3.24,1.7-4.65t5.65-1.41h6.42v-.48a2.73,2.73,0,0,0-1-2.38,6.27,6.27,0,0,0-3.45-.69h-8.15Zm6.48,15.19h6.11V94.52h-5.75a4.26,4.26,0,0,0-2.36.47,1.94,1.94,0,0,0-.65,1.66,1.65,1.65,0,0,0,.52,1.4A3.87,3.87,0,0,0,258.57,98.45Z"/><path class="cls-1" d="M274,83.25h9.17q4.16,0,5.94,1.61t1.78,5.35v12.05H286V90.83a4.1,4.1,0,0,0-.64-2.77,3.76,3.76,0,0,0-2.58-.64h-3.92v14.84H274Z"/><path class="cls-1" d="M293.15,83.25h3.44V77.13h4.88v6.12h5.15V87h-5.15v7.69a4.6,4.6,0,0,0,.7,2.93,3.1,3.1,0,0,0,2.45.82h2v3.79h-4.45a5.38,5.38,0,0,1-4.14-1.54,6.25,6.25,0,0,1-1.44-4.42V87h-3.44Z"/><path class="cls-1" d="M327.85,92.83a9.34,9.34,0,0,1-2.54,6.87,10.45,10.45,0,0,1-13.73,0,9.47,9.47,0,0,1,6.88-16.34,9.19,9.19,0,0,1,6.84,2.58A9.36,9.36,0,0,1,327.85,92.83Zm-13.92,0a6.3,6.3,0,0,0,1.18,4.07,4.49,4.49,0,0,0,6.62,0,7.5,7.5,0,0,0,0-8.13,4.5,4.5,0,0,0-6.62,0A6.23,6.23,0,0,0,313.93,92.83Z"/><path class="cls-1" d="M330.82,83.25H340q4.16,0,5.93,1.61t1.78,5.35v12.05h-4.88V90.83a4.09,4.09,0,0,0-.64-2.77,3.76,3.76,0,0,0-2.58-.64H335.7v14.84h-4.88Z"/><path class="cls-1" d="M352.23,83.25h10a8.08,8.08,0,0,1,5.7,1.79,6.92,6.92,0,0,1,1.92,5.31v11.92H356.73a5.85,5.85,0,0,1-4.23-1.43A5.36,5.36,0,0,1,351,96.79q0-3.24,1.7-4.65t5.65-1.41h6.42v-.48a2.73,2.73,0,0,0-1-2.38,6.29,6.29,0,0,0-3.45-.69h-8.14Zm6.48,15.19h6.11V94.52h-5.75a4.24,4.24,0,0,0-2.36.47,1.93,1.93,0,0,0-.65,1.66,1.65,1.65,0,0,0,.52,1.4A3.87,3.87,0,0,0,358.71,98.45Z"/><path class="cls-1" d="M379.42,80.52a4.66,4.66,0,1,1-1.36-3.29A4.48,4.48,0,0,1,379.42,80.52Zm-.62,0a3.94,3.94,0,0,0-1.18-2.87,4,4,0,0,0-5.7,0,4.06,4.06,0,0,0,0,5.73,4,4,0,0,0,5.7,0A3.93,3.93,0,0,0,378.8,80.52Zm-1,2.37h-1.2L374.78,81h-.87v1.91H373V78h1.68a7.17,7.17,0,0,1,.83,0,1.89,1.89,0,0,1,.65.21,1.12,1.12,0,0,1,.66,1.1,1.26,1.26,0,0,1-.3.87,2.07,2.07,0,0,1-.84.55Zm-1.89-3.52a.75.75,0,0,0-.08-.34.57.57,0,0,0-.25-.25,1,1,0,0,0-.36-.12,3.37,3.37,0,0,0-.47,0h-.8V80.3h.69a2.88,2.88,0,0,0,.58-.05,1,1,0,0,0,.4-.17.79.79,0,0,0,.23-.3A1.06,1.06,0,0,0,375.87,79.37Z"/></g></g></svg>