<?xml version="1.0" encoding="utf-8"?>
<!-- Generator: Adobe Illustrator 21.1.0, SVG Export Plug-In . SVG Version: 6.00 Build 0)  -->
<svg version="1.1" baseProfile="tiny" id="Ebene_1" xmlns="http://www.w3.org/2000/svg" xmlns:xlink="http://www.w3.org/1999/xlink"
	 x="0px" y="0px" viewBox="0 0 706.6 210.9" overflow="auto" xml:space="preserve">
<g>
	<path fill="#FFFFFF" d="M205.9,16.5h34.4v83.7h38.2l-6.3,32.3h-66.3L205.9,16.5L205.9,16.5z M399.6,16.5h77.4l-6.3,31.8h-18.9v84.1
		h-34.1V48.3h-24.5L399.6,16.5L399.6,16.5z M482.1,16.5h77.4l-6.3,31.8h-18.9v84.1h-34.1V48.3h-24.5
		C475.7,48.3,482.1,16.5,482.1,16.5z M550.5,75.2c0-32.8,26.6-59.5,59.5-59.5c32.8,0,59.5,26.6,59.5,59.5
		c0,32.8-26.6,59.5-59.5,59.5C577.2,134.6,550.5,108,550.5,75.2L550.5,75.2z M584.2,75.2c0,14.2,11.5,25.8,25.8,25.8
		c14.2,0,25.8-11.5,25.8-25.8c0-14.2-11.5-25.8-25.8-25.8C595.8,49.4,584.2,60.9,584.2,75.2L584.2,75.2z M276.3,75.2
		c0-32.8,26.6-59.5,59.5-59.5c32.8,0,59.5,26.6,59.5,59.5c0,32.8-26.6,59.5-59.5,59.5C302.9,134.6,276.3,108,276.3,75.2L276.3,75.2z
		 M310,75.2c0,14.2,11.5,25.8,25.8,25.8s25.8-11.5,25.8-25.8s-11.5-25.8-25.8-25.8S310,60.9,310,75.2z M706.6,35.1
		c0-10.8-8.7-19.4-19.3-19.4s-19.3,8.6-19.3,19.4c0,10.8,8.7,19.4,19.3,19.4S706.6,45.9,706.6,35.1L706.6,35.1z M702.3,35.1
		c0,8.6-6.7,15.6-14.9,15.6c-8.2,0-14.8-7-14.8-15.6s6.6-15.5,14.8-15.5C695.6,19.6,702.3,26.4,702.3,35.1z M680.6,24.1v21.7h4.3
		v-9.1c0.3,0,0.5,0.1,0.7,0.2c0.8,0.4,1.5,1.4,3.6,5.3c0.8,1.6,1.2,2.1,2,3.6h5.2c0,0-4-6.9-5.2-8.4c-0.3-0.4-0.5-0.6-0.9-0.9
		c2.7-0.1,4.8-2.7,4.8-6c0-3.8-2.6-6.4-6.4-6.4L680.6,24.1L680.6,24.1z M684.9,27.6h1.6c1,0,2,0.1,2.5,0.3c1,0.4,1.6,1.3,1.6,2.7
		c0,0.9-0.3,1.7-0.8,2.2c-0.6,0.5-1.4,0.7-3.3,0.7h-1.5L684.9,27.6L684.9,27.6z M107.9,77.9c9.4-18.5,23-35.9,39.1-45.1
		c10.4-6,21.9-3.1,24.8,11.4c2.2,11.1,1.9,19.5-5.6,24.4C153.8,76.8,131.2,79.5,107.9,77.9L107.9,77.9z M100.8,77.3
		c-26.5-2.8-52.5-11-64.1-22.5c-5.4-5.4-3.5-12.5-0.2-17.6C48.2,18.7,79,2.9,104.2,0.2c8.1-0.9,13.2,1.2,13.6,10.2
		C118.6,28.8,113.2,53.9,100.8,77.3L100.8,77.3z M97.7,82.9c-15.1,25.7-39.1,48.3-73,55.4C5.8,142.2-0.1,129,0,114.5
		c0.1-16.4,3.6-29.8,28.9-33.5C44.8,78.6,72.5,79.4,97.7,82.9z M105,84c20.2,3.3,37.7,8.5,44.6,15.2c4.9,4.8,4.5,9.4,0.7,14.7
		c-9.3,13.1-33.1,23.5-47.1,25c-7.2,0.8-8.9-3.4-9.3-8.2C93.2,118.4,97.3,101,105,84L105,84z M91.1,106.9
		C79.8,134,62.9,167,50,171.4l-7.7-8.1c18.3-1.2,37.3-40.1,43-52.7L91.1,106.9L91.1,106.9z M229,198.9c0-5.8-4.1-9.1-9.1-10.5
		l-4.4-1.3c-4-1.2-5.5-2.7-5.5-5.4c0-3.5,2.6-5.6,6.8-5.6c3.1,0,5.4,0.8,8.9,2.9l2.3-3.7c-3.3-2.3-7.3-3.5-11.4-3.5
		c-7.4,0-12.4,4.4-12.4,10.8c0,5.3,3.2,8,8.8,9.6l3.9,1.1c4.2,1.2,6.2,3.3,6.2,6.3c0,4-3.2,6.5-8.1,6.5c-3.7,0-6.8-1.1-10.1-3.1
		l-2.1,4c3.6,2.2,7.8,3.3,12,3.3C224.8,210.5,229,204.1,229,198.9L229,198.9z M256.9,207.6c-2.1-1.3-2.2-2.8-2.2-6.6
		c0-4,0.2-8.1,0.2-10.1c0-2.7-0.1-3.6-0.5-4.8c-1-2.9-3.9-4.3-7.9-4.3c-5.3,0-8.7,2.1-11.4,3.6l2.3,3.6c2.2-1.7,5.5-3.1,8.4-3.1
		c3.8,0,4.2,2.2,4.2,5.4v1.8c-0.7-0.1-1.2-0.1-1.9-0.1c-8.8,0-13.8,3.4-13.8,9.6c0,5.2,3.4,8,8.8,8c4.7,0,7-2.7,7.7-3.6
		c0.6,1.9,1.9,3.3,3.6,3.9L256.9,207.6L256.9,207.6z M249.9,196.4l-0.2,6.9c-1.2,2.2-3.4,3.6-5.7,3.6c-2.8,0-4.3-1.7-4.3-4.7
		c0-1.8,0.4-2.8,1.4-4c1.1-1.2,3.4-2,7.1-2C248.7,196.3,249.1,196.4,249.9,196.4L249.9,196.4z M281.4,206.8l-2.4-3.1
		c-1.6,1.8-3.6,2.8-5.6,2.8c-1.6,0-2.9-0.6-3.9-1.6c-1.4-1.5-2.2-4-2.2-7.8c0-3.7,0.4-6.5,1.3-8.3s2.7-2.9,4.8-2.9
		c1.7,0,3,0.5,4.8,2.1l2.6-3.4c-2.1-1.9-4.4-2.9-7.4-2.9c-2.7,0-5,1-7,2.8c-2.6,2.3-4.6,5.9-4.6,12c0,4.1,0.8,7.3,2.6,9.8
		c1.9,2.7,4.8,4.1,8.7,4.1C276.5,210.3,278.8,209.3,281.4,206.8L281.4,206.8z M308.4,209.8v-19.4c0-2.4-0.1-3.1-0.5-4.4
		c-0.8-2.4-3.6-4.1-6.8-4.1c-2,0-3.9,0.5-5.9,1.8c-1.1,0.7-1.7,1.1-2.9,2.2c0.1-1.4,0.2-2.7,0.2-3.6v-6.1c0-2.7-0.2-4.7-0.6-6.3
		l-5,1c0.4,1.6,0.6,3.4,0.6,5.7v33h5v-19.5c2.1-2.4,4.9-4,7.2-4c1.3,0,2.5,0.5,3,1c0.5,0.6,0.9,1.9,0.9,3.8v18.6L308.4,209.8
		L308.4,209.8z M335,201.4c0-3.6-2.1-6.5-7-7.6l-3.5-0.8c-2.9-0.6-3.9-1.7-3.9-3.7c0-2.4,1.8-4.1,4.7-4.1c2.2,0,4.2,0.7,6.7,2
		l1.7-3.5c-2.2-1.3-5.3-2.2-8.6-2.2c-5.9,0-9.8,3.5-9.8,8.5c0,4,2.3,6.7,6.6,7.5l3.3,0.6c3.1,0.6,4.6,2,4.6,4.3c0,2.7-2.1,4.4-5,4.4
		c-3,0-6.1-1.2-8.7-2.7l-1.8,3.6c3.1,1.8,6.8,2.9,10.1,2.9C330.7,210.5,335,206.8,335,201.4L335,201.4z M361.9,197.2v-0.9
		c-0.1-6.2-0.9-9.3-3.3-11.7c-1.9-2-4.3-2.9-7.4-2.9c-3.4,0-6,1.2-8.2,3.7c-2.3,2.8-3.3,5.8-3.3,10.5c0,8.9,4.6,14.4,12.1,14.4
		c3.5,0,6.7-1.1,9.4-3.5l-1.9-3c-2,1.7-4.1,2.6-6.7,2.6c-2.6,0-4.8-1-6.2-3.2c-0.8-1.3-1.1-3.1-1.1-5.4v-0.6L361.9,197.2
		L361.9,197.2z M356.7,193.6h-11.3c0-4.9,1.9-8,5.7-8c1.7,0,3,0.8,3.9,1.9C356.1,188.8,356.7,191,356.7,193.6z M389.5,209.8v-20.5
		c0-1.2-0.2-2.4-0.6-3.4c-1-2.3-3.5-3.9-6.4-3.9c-1.7,0-3.5,0.4-5,1.4c-1.1,0.6-2,1.4-3.5,2.7c0-1.7-0.3-2.9-0.9-4.2l-4.7,1.3
		c0.8,2,1,3.2,1,6.5v20.2h4.9v-20.1c1.8-2,4.8-3.5,6.7-3.5c1.2,0,2.2,0.4,2.8,1.1c0.6,0.9,0.9,1.7,0.9,4.2v18.3L389.5,209.8
		L389.5,209.8z M407.8,197.6v-4.9h-11v4.9H407.8z M441.5,209.8l-12-37.4H423l-12.3,37.4h5.4l3.3-10.6h13l3.3,10.6L441.5,209.8
		L441.5,209.8z M431.2,194.9h-10.5c0.7-1.8,4.6-15.2,5.2-17.3h0.3C426.7,179.7,430.6,193.1,431.2,194.9L431.2,194.9z M466.2,209.8
		v-20.6c0-1.2-0.2-2.4-0.6-3.4c-1-2.3-3.5-3.9-6.4-3.9c-1.7,0-3.5,0.4-5,1.4c-1.1,0.6-2,1.4-3.5,2.7c0-1.7-0.3-2.9-0.9-4.2l-4.7,1.3
		c0.8,2,1,3.2,1,6.5v20.2h4.9v-20.1c1.8-2,4.8-3.5,6.7-3.5c1.2,0,2.2,0.4,2.8,1.1c0.6,0.9,0.9,1.7,0.9,4.2v18.3L466.2,209.8
		L466.2,209.8z M495.8,209.8v-19.4c0-2.4-0.1-3.1-0.5-4.4c-0.8-2.4-3.6-4.1-6.8-4.1c-2,0-3.9,0.5-5.9,1.8c-1.1,0.7-1.7,1.1-2.9,2.2
		c0.1-1.4,0.2-2.7,0.2-3.6v-6.1c0-2.7-0.2-4.7-0.6-6.3l-5,1c0.4,1.6,0.6,3.4,0.6,5.7v33h5v-19.5c2.1-2.4,4.9-4,7.2-4
		c1.3,0,2.5,0.5,3,1c0.5,0.6,0.9,1.9,0.9,3.8v18.6L495.8,209.8L495.8,209.8z M525.1,207.6c-2.1-1.3-2.2-2.8-2.2-6.6
		c0-4,0.2-8.1,0.2-10.1c0-2.7-0.1-3.6-0.5-4.8c-1-2.9-3.9-4.3-7.9-4.3c-5.3,0-8.7,2.1-11.4,3.6l2.3,3.6c2.2-1.7,5.5-3.1,8.4-3.1
		c3.8,0,4.2,2.2,4.2,5.4v1.8c-0.7-0.1-1.2-0.1-1.9-0.1c-8.8,0-13.8,3.4-13.8,9.6c0,5.2,3.4,8,8.8,8c4.7,0,7-2.7,7.7-3.6
		c0.7,1.9,2,3.3,3.6,3.9L525.1,207.6L525.1,207.6z M518,196.4l-0.2,6.9c-1.2,2.2-3.4,3.6-5.7,3.6c-2.8,0-4.3-1.7-4.3-4.7
		c0-1.8,0.4-2.8,1.4-4c1.1-1.2,3.4-2,7.1-2C516.8,196.3,517.3,196.4,518,196.4L518,196.4z M540,209.7l-0.9-3.1
		c-0.6,0.2-1.4,0-1.7-0.4c-0.5-0.5-0.7-1.1-0.7-4v-24.5c0-3.4,0-6-0.5-7.8l-5.2,1.1c0.4,2.1,0.6,4,0.6,7.8v24.6c0,2.7,0.2,3.6,1,4.7
		c1,1.5,2.3,2.1,4.2,2.1C538.1,210.3,539,210.2,540,209.7L540,209.7z M557.7,182.6h-6.6c0-2.8,0.3-6.2,0.5-8.1l-5.2,1.2
		c-0.3,2.1-0.3,4.8-0.3,6.9h-3.3v3.5h3.3v17.5c0,4,0.9,4.5,2,5.5c0.9,0.8,2.8,1.4,4.6,1.4c1.8,0,3.4-0.4,4.9-1.1l-0.6-3
		c-0.9,0.4-1.6,0.5-2.5,0.5c-2.7,0-3.5-1-3.5-4.4v-16.4h5.4L557.7,182.6L557.7,182.6z"/>
</g>
</svg>
