<svg id="schwarzweiß_Bild" data-name="schwarzweiß Bild" xmlns="http://www.w3.org/2000/svg" viewBox="0 0 1812.34 629.04"><defs><style>.cls-1{fill:#fff;}.cls-2{fill:#080808;}.cls-3{fill:#8f8f8f;}.cls-4{fill:#989898;}.cls-5{fill:#4e4e4e;}.cls-6{fill:#ebebeb;}.cls-7{fill:#cbcbcb;}.cls-8{fill:#5e5e5e;}.cls-9{fill:#e5e5e5;}.cls-10{fill:#e3e3e3;}.cls-11{fill:#e1e1e1;}.cls-12{fill:#e2e2e2;}.cls-13{fill:#e0e0e0;}.cls-14{fill:#dedede;}.cls-15{fill:#f2f2f2;}.cls-16{fill:#f7f7f7;}</style></defs><title>Zeichenfläche 1</title><path class="cls-1" d="M1552.62,5.34h254.43c3.57,0,3.19-.55,3.19,3.13q0,204.43,0,408.85a122.58,122.58,0,0,1-4.16,31.81,183.94,183.94,0,0,1-26.08,57,221.63,221.63,0,0,1-28,33.77c-37.67,36.69-81.82,62.17-132.84,75.7a286,286,0,0,1-40,7.61,266.08,266.08,0,0,1-40.27,1.28,199.73,199.73,0,0,1-33.23-4.39,314.33,314.33,0,0,1-57.56-17.15,287.76,287.76,0,0,1-82.15-51.56,268.41,268.41,0,0,1-35.49-37.8c-10.93-14.42-19.15-30.29-25.89-47-4.07-10.1-6.39-20.62-8.09-31.33a140.77,140.77,0,0,1-1.34-22.21V8.62c0-3.8-.54-3.27,3.28-3.27Z"/><path class="cls-2" d="M1552.77,15.36h244.56c3.58,0,3.33-.56,3.33,3.34V418.53a101,101,0,0,1-3.89,26,179.53,179.53,0,0,1-26,56.33,215.1,215.1,0,0,1-26.18,31.5c-36.36,35.58-79,60.27-128.25,73.34a272.65,272.65,0,0,1-38.56,7.32,244.47,244.47,0,0,1-39.51,1.14,217.68,217.68,0,0,1-37.64-5.58,296.25,296.25,0,0,1-67-23.55c-23.12-11.47-43.85-26.27-63-43.46A239.56,239.56,0,0,1,1336.44,504c-9.54-13.17-16.76-27.56-22.81-42.61-3.9-9.71-6.12-19.81-7.75-30.11a138.33,138.33,0,0,1-1.31-21.74V19.06c0-4.36-.63-3.75,3.85-3.75Z"/><path class="cls-1" d="M1552.56,24.84h235.17c4,0,3.48-.5,3.48,3.39V374c0,4.64-.07,9.28,0,13.92a2.81,2.81,0,0,1-1.94,3.08,157.49,157.49,0,0,1-19.75,7.37,53.82,53.82,0,0,1-34.14-1.35,122.8,122.8,0,0,1-16.77-7.68c-2.51-1.39-4.75-1.53-7.19,0-1.41.9-3,1.51-4.46,2.34-9.3,5.23-19.45,7.65-29.91,8.89-5.05.6-10.06-.4-15-1.44a77.74,77.74,0,0,1-25.05-10,5.56,5.56,0,0,0-5-.59,26.28,26.28,0,0,0-4.09,2,84.24,84.24,0,0,1-26.1,9.22,55.73,55.73,0,0,1-28.33-2.63,108.06,108.06,0,0,1-14.91-6.55c-6.64-3.5-5.71-3.26-12,.17a82.24,82.24,0,0,1-26.15,9A55.73,55.73,0,0,1,1492.1,397a112.56,112.56,0,0,1-17.23-7.82,6.33,6.33,0,0,0-7,.09,90.58,90.58,0,0,1-21.37,9,56.91,56.91,0,0,1-34-.77,103.13,103.13,0,0,1-16.93-7.29c-5.24-2.81-5.26-2.81-10.62-.15a113.83,113.83,0,0,1-24.66,9.17,47.31,47.31,0,0,1-23.24-.25,208.36,208.36,0,0,1-21.21-6.84,2.33,2.33,0,0,1-1.82-2.59c.1-4.16,0-8.32,0-12.48q-.07-93.11-.14-186.22V27.94c0-3.68-.27-3.19,3.22-3.19Z"/><path class="cls-3" d="M1791.22,405.79c0,3.12-.06,6.24,0,9.36a3,3,0,0,1-1.83,3,79.93,79.93,0,0,1-25.57,8.58,52.1,52.1,0,0,1-23.26-1.25,104,104,0,0,1-13.91-5.23c-2.54-1.17-5.11-2.31-7.54-3.69a8.09,8.09,0,0,0-8.4-.07,144.36,144.36,0,0,1-14.15,6.53,59.29,59.29,0,0,1-24.1,4.58,52.37,52.37,0,0,1-11.36-1.7,93.5,93.5,0,0,1-20.1-7.75,46.31,46.31,0,0,0-5.43-2.53,5.08,5.08,0,0,0-3.73,0c-2.63,1-5.1,2.31-7.61,3.53a99.39,99.39,0,0,1-16.08,6.24,52.78,52.78,0,0,1-31.42-.42,111,111,0,0,1-15.56-6.26c-2-1-4-1.93-6.06-2.89a5.87,5.87,0,0,0-4.88-.11c-1.79.7-3.5,1.57-5.22,2.43a115.16,115.16,0,0,1-18.51,7.28,51,51,0,0,1-29.56,0,111.37,111.37,0,0,1-18-7.18l-4.53-2.2a6.55,6.55,0,0,0-6.2.06,138.56,138.56,0,0,1-14.77,6.32,80.4,80.4,0,0,1-17.88,4.49,52.55,52.55,0,0,1-18.56-1.46,89.31,89.31,0,0,1-22.28-8.72,8.53,8.53,0,0,0-9,.08,96.06,96.06,0,0,1-19.86,8.37,56,56,0,0,1-31.24.52,108.79,108.79,0,0,1-18.39-6.89,3.17,3.17,0,0,1-2.13-3.28c.07-5.52-.05-11-.1-16.56V397c.11-1.21.35-1.4,1.53-1l8.1,3a92.81,92.81,0,0,0,21.46,4.93c8.93.87,17.52-.76,25.93-3.67a113.25,113.25,0,0,0,17.07-7.63,3.81,3.81,0,0,1,4,0c3.18,1.68,6.4,3.3,9.67,4.81q27,12.46,54.7,1.39a134.72,134.72,0,0,0,13.21-6.28,3.5,3.5,0,0,1,3.78,0,131.87,131.87,0,0,0,15.89,7.32c11.28,4.44,22.84,5,34.68,2.94,8.39-1.45,16-4.85,23.56-8.63,1.64-.82,3.17-2.27,4.94-2.3s3.3,1.47,4.94,2.29a94.37,94.37,0,0,0,25.49,9A60.41,60.41,0,0,0,1613,401a103.72,103.72,0,0,0,18.61-8.27,3.59,3.59,0,0,1,4,0,98,98,0,0,0,20.93,8.91c16.46,4.62,32.31,2.46,47.69-4.48a49.72,49.72,0,0,0,6.58-3.45c2.82-1.83,5.43-1.71,8.28-.09a87.83,87.83,0,0,0,12.9,5.8,73.93,73.93,0,0,0,20.46,4.9,47.38,47.38,0,0,0,14.26-1.43c7.43-1.73,14.48-4.56,21.49-7.5,3-1.27,3-1.27,3,2C1791.22,400.19,1791.22,403,1791.22,405.79Z"/><path class="cls-3" d="M1317.24,440.17a4.31,4.31,0,0,1,2.38.68,88.85,88.85,0,0,0,26.25,6.33,54.84,54.84,0,0,0,19.23-2c6.34-1.74,12.56-3.76,18.21-7.26a27.82,27.82,0,0,1,4.76-2.27,4.37,4.37,0,0,1,3.49,0c1.6.72,3.23,1.4,4.8,2.19a110.85,110.85,0,0,0,14.64,6c10.61,3.59,21.35,3.61,32.2,1.32a98.2,98.2,0,0,0,22.19-7.59c.87-.41,1.76-.78,2.59-1.26a6.23,6.23,0,0,1,6.56,0,115.86,115.86,0,0,0,19.89,8.33,67.67,67.67,0,0,0,14.85,2.62c6.65.48,13-.8,19.39-2.6a74.87,74.87,0,0,0,17.33-6.93c1.52-.88,3.18-1.5,4.75-2.3a3.48,3.48,0,0,1,3.4.13c3.65,1.81,7.32,3.6,11.06,5.23a76.15,76.15,0,0,0,21.13,6.08c10,1.25,19.6-.4,29-3.82a139.33,139.33,0,0,0,15.11-6.74c3.67-1.86,2.4-1.93,6.32,0a120.06,120.06,0,0,0,22,8.82,57,57,0,0,0,31,0,89.46,89.46,0,0,0,19.34-7.71c1.74-1,3.5-2.27,5.46-2.36s3.48,1.45,5.19,2.3c8.58,4.24,17.42,7.62,26.94,9.11a57.61,57.61,0,0,0,27.69-2.33c3.71-1.25,7.35-2.72,11-4.1.6-.22,1.19-.49,1.79-.68s1.11,0,1,.83c-.12.63-.31,1.24-.48,1.86-2.12,7.38-4.57,14.66-7.15,21.89-.35,1-.65,1.93-1.85,2.3-6.34,2-12.68,3.92-19.33,4.63-6.89.74-13.55-.44-20.13-2.29a89.14,89.14,0,0,1-20.11-8.37,8.89,8.89,0,0,0-9.28-.06,117.5,117.5,0,0,1-20.59,8.52,53,53,0,0,1-31,0,100.09,100.09,0,0,1-20.34-8.47,8.94,8.94,0,0,0-9.3,0,118,118,0,0,1-18.72,8,53.85,53.85,0,0,1-25.81,2.08,79.61,79.61,0,0,1-19-6,95.89,95.89,0,0,1-9-4.45,7.81,7.81,0,0,0-8,0,135.61,135.61,0,0,1-18.75,8c-8.64,2.89-17.42,4.06-26.47,2.5a78.62,78.62,0,0,1-18.07-5.57,89.68,89.68,0,0,1-9.27-4.52,8.67,8.67,0,0,0-8.88-.32c-4.65,2.32-9.47,4.28-14.33,6.14-15.48,5.94-30.91,6.07-46.3-.36a86.22,86.22,0,0,1-10.66-4.94c-.34-.2-.72-.36-1.06-.56a8.39,8.39,0,0,0-8.88-.1,99.71,99.71,0,0,1-15.1,6.74,68.17,68.17,0,0,1-26.38,4.07c-5.89-.34-11.47-2-17-3.84a2.28,2.28,0,0,1-1.5-1.43c-3.25-8.18-6.38-16.4-8.29-25A1.8,1.8,0,0,1,1317.24,440.17Z"/><path class="cls-3" d="M1765.63,490.77a6.14,6.14,0,0,1-1.42,2.89c-4.48,6.73-9.5,13.06-14.59,19.34a2.82,2.82,0,0,1-3.29,1.11,112.28,112.28,0,0,1-24.74-9c-1.64-.83-3.32-1.58-5-2.36a4,4,0,0,0-3.69.08c-1.71.87-3.46,1.67-5.15,2.57a79,79,0,0,1-32.47,9.42,45,45,0,0,1-13.06-1.48,94.47,94.47,0,0,1-22.38-8.46c-6.78-3.53-5.79-3.22-11.93-.25-8,3.89-16.17,7.29-25,9.05a49.37,49.37,0,0,1-26-1.46,114.18,114.18,0,0,1-17.76-7.2c-1.34-.72-2.77-1.25-4.12-2a5.27,5.27,0,0,0-5.26.11c-1.41.76-2.87,1.42-4.29,2.15a94.51,94.51,0,0,1-25.77,8.88,40.86,40.86,0,0,1-16-.08,99.85,99.85,0,0,1-26.18-9.17c-1.56-.81-3.21-1.46-4.76-2.27a3.7,3.7,0,0,0-3.82.19,110.61,110.61,0,0,1-17.15,7.42A71.68,71.68,0,0,1,1424,514c-7-.45-13.49-2.61-19.81-5.4q-5.59-2.47-11-5.31a6.06,6.06,0,0,0-5.94-.1c-3.36,1.68-6.71,3.39-10.12,5a73.4,73.4,0,0,1-18.42,6,2.89,2.89,0,0,1-3.11-1.11c-5.4-6.54-10.62-13.22-15.43-20.21a2.71,2.71,0,0,1-.69-1.41c.31-.53.75-.43,1.11-.39,12.15,1.5,23.71-.91,35-5.28a91.8,91.8,0,0,0,12.61-5.86,4.13,4.13,0,0,1,4.45,0c3.56,1.82,7.2,3.48,10.84,5.12,15.67,7.07,31.65,7.68,47.94,2.31a122.15,122.15,0,0,0,17.89-7.54,4.21,4.21,0,0,1,4.45.07,98.88,98.88,0,0,0,27.75,10.41,53.36,53.36,0,0,0,21.89-.09,92.2,92.2,0,0,0,25.51-9.55,6.75,6.75,0,0,1,7.46,0,95.21,95.21,0,0,0,23.21,9,56,56,0,0,0,31.21-1.12,137.28,137.28,0,0,0,20.84-8.54,4.5,4.5,0,0,1,4.66,0,110,110,0,0,0,22.87,9.2,56.87,56.87,0,0,0,30.32.18,90.27,90.27,0,0,0,20.93-8.22c3.29-1.85,6-2,9.45-.06a82.09,82.09,0,0,0,22.29,8.68,53.52,53.52,0,0,0,19,1.35C1762.56,490.91,1764,490.88,1765.63,490.77Z"/><path class="cls-3" d="M1672.88,556.75a53,53,0,0,1-20.67-4.46c-5.46-2.27-10.86-4.7-16.24-7.17a5.18,5.18,0,0,0-5,0c-1.48.8-3,1.41-4.53,2.2a83,83,0,0,1-28.64,9.12,51.09,51.09,0,0,1-20.16-1.88,96.29,96.29,0,0,1-21.23-8.8,8.1,8.1,0,0,0-8.57.06,140,140,0,0,1-16.69,7.31c-14.62,5.55-29,4.59-43.22-1.41q-6.86-2.89-13.44-6.37a6.78,6.78,0,0,0-6.61-.12c-4.48,2.12-9,4.2-13.64,5.93a80.8,80.8,0,0,1-21.42,5c-8.63.73-16.86-1.08-24.91-4a85.76,85.76,0,0,1-11.8-5.32,24.55,24.55,0,0,0-7.38-2.75,5.9,5.9,0,0,1-2.78-1.31c-4.5-3.73-8.82-7.65-13.09-11.64-1.38-1.29-1.35-1.54.35-2.3,5.19-2.31,10.34-4.71,15.33-7.42,1.23-.67,2.12-.17,3.12.35a109,109,0,0,0,18.3,7.77c8.09,2.52,16.33,4.06,24.82,3a98.23,98.23,0,0,0,27.62-7.75c2.27-1,4.53-2,6.72-3.19a3.55,3.55,0,0,1,3.59,0,168.32,168.32,0,0,0,16.49,7.19c8.19,3,16.56,4.91,25.36,4.31a76.49,76.49,0,0,0,22.56-5.32,100.71,100.71,0,0,0,12.81-6,4,4,0,0,1,4.22,0,129.1,129.1,0,0,0,21.07,8.62c8.3,2.45,16.71,3.62,25.35,2.32a80.49,80.49,0,0,0,16.85-4.62,137.75,137.75,0,0,0,13.59-6,5,5,0,0,1,5.3,0,101.44,101.44,0,0,0,22.89,9.15c13.1,3.49,25.83,2.13,38.36-2.62a113.08,113.08,0,0,0,14.84-6.75,4.25,4.25,0,0,1,4.44,0c4.66,2.29,9.42,4.39,14.15,6.56.44.2.89.37,1.31.6,1.27.66,1.33.87.27,1.85q-3.54,3.24-7.14,6.41c-2.1,1.84-4.26,3.63-6.38,5.46a4.6,4.6,0,0,1-2.51,1.3c-3.5.38-6.58,1.93-9.63,3.52a88.59,88.59,0,0,1-15.73,6.47A61.86,61.86,0,0,1,1672.88,556.75Z"/><path class="cls-1" d="M1314.7,422.57a5.23,5.23,0,0,1,2.45.88,85.88,85.88,0,0,0,24.51,7.24,63.7,63.7,0,0,0,20-.83c7.94-1.52,15.28-4.57,22.47-8.14,2-1,3.92-2.85,6-2.74s3.87,1.73,5.81,2.68a90.19,90.19,0,0,0,22.34,7.82,62.25,62.25,0,0,0,31.71-2.1,111.33,111.33,0,0,0,19.28-7.86,4.1,4.1,0,0,1,4.42.1,115.08,115.08,0,0,0,20.5,8.68,58.51,58.51,0,0,0,35.63,0,113.34,113.34,0,0,0,20.75-8.69,3.93,3.93,0,0,1,4.19,0,120.92,120.92,0,0,0,20.53,8.62,57.7,57.7,0,0,0,35.39.12,111.5,111.5,0,0,0,21.17-8.91,3.17,3.17,0,0,1,3.5,0,116.32,116.32,0,0,0,21.19,8.89,59.31,59.31,0,0,0,35.87-.09,113.07,113.07,0,0,0,20.52-8.64,3.86,3.86,0,0,1,4.17,0,126.36,126.36,0,0,0,17.55,7.7c12.61,4.48,25.27,5.08,38.12,1.06a142.13,142.13,0,0,0,15.09-5.47c.86-.38,1.74-.72,2.61-1.08a3.6,3.6,0,0,1,.18,2.47q-.28,2.74-.72,5.47c-.91,5.64.16,4-5,6.37a135.21,135.21,0,0,1-13.69,5.11c-10,3.3-19.95,3.13-30,.44a113.51,113.51,0,0,1-21.75-8.78c-.71-.36-1.43-.71-2.16-1a6,6,0,0,0-5.72.19,153.21,153.21,0,0,1-18.39,8.17c-12.79,4.75-25.51,4.43-38.27,0a111.89,111.89,0,0,1-11.48-4.84c-2.16-1-4.38-2-6.45-3.19a6.55,6.55,0,0,0-7.21.21,101.36,101.36,0,0,1-16.09,7.4c-14.32,5.36-28.51,4.65-42.68-.48a87.76,87.76,0,0,1-14.77-6.85,7.06,7.06,0,0,0-7.66-.13,117.51,117.51,0,0,1-19.32,8.42,54,54,0,0,1-34.85,0,128.32,128.32,0,0,1-18.07-7.7c-5.09-2.59-5.11-2.58-10.22-.07a132.67,132.67,0,0,1-18.2,7.39c-12.06,3.85-24.07,3.55-36.11-.08a86.73,86.73,0,0,1-18.22-7.89,6.45,6.45,0,0,0-7-.15c-3.36,1.84-6.84,3.48-10.31,5.11a68.46,68.46,0,0,1-26.39,6.39c-5.67.25-11.13-.94-16.55-2.38a141.28,141.28,0,0,1-15.63-5.38,3,3,0,0,1-2.18-2.77c-.28-2.78-.69-5.55-1-8.33A4.08,4.08,0,0,1,1314.7,422.57Z"/><path class="cls-1" d="M1328.35,471.67l7.49,1.53c15.68,3.12,30.52.44,44.73-6.48,2.51-1.22,5-2.46,7.45-3.85a3.19,3.19,0,0,1,3.52,0,119.76,119.76,0,0,0,15.71,7.13,62.86,62.86,0,0,0,41.62,1,120.37,120.37,0,0,0,20.19-8.18,3.65,3.65,0,0,1,3.78,0,121.69,121.69,0,0,0,24,9.67,61.93,61.93,0,0,0,14.43,2.18c6.57.16,12.85-1.36,19.06-3.23a101.45,101.45,0,0,0,19.8-8.48,3.8,3.8,0,0,1,4.16,0,105.87,105.87,0,0,0,23.79,9.41,59.49,59.49,0,0,0,36.51-1.88,149.41,149.41,0,0,0,15.33-6.8c4.39-2.22,2.59-2.24,7.15,0a144,144,0,0,0,18.8,7.81,57.14,57.14,0,0,0,36.74,0,119.9,119.9,0,0,0,20-8.63,3.8,3.8,0,0,1,4-.1c2.83,1.49,5.66,3,8.55,4.34,8.61,4,17.6,6.8,27.14,7.33a66,66,0,0,0,22-3,6.8,6.8,0,0,1,2.69-.59,3.17,3.17,0,0,1-.55,1.7c-1.79,3.84-3.9,7.52-6,11.21a5.41,5.41,0,0,1-3.9,2.77,53,53,0,0,1-23.08-.17,86,86,0,0,1-24.44-9.65,7.5,7.5,0,0,0-8.1,0,136.27,136.27,0,0,1-13.45,6.32,57.75,57.75,0,0,1-41.7,1.51,99.86,99.86,0,0,1-15.24-6.38c-.85-.45-1.73-.84-2.54-1.34a7.54,7.54,0,0,0-8.5,0,97.47,97.47,0,0,1-20.07,8.44,54.75,54.75,0,0,1-31.66.22,95.51,95.51,0,0,1-18.47-7.31l-3.61-1.9a6.08,6.08,0,0,0-6.14,0,149.77,149.77,0,0,1-17.1,7.53,57,57,0,0,1-40.56.21,103.92,103.92,0,0,1-16.84-7.5,6.57,6.57,0,0,0-6.79-.19,126.07,126.07,0,0,1-14.26,6.25,72.57,72.57,0,0,1-28,4.65c-6.81-.31-13.2-2.29-19.47-4.74a110.18,110.18,0,0,1-13-6.08,6.28,6.28,0,0,0-6.55,0,119.43,119.43,0,0,1-19.27,8.52,58.79,58.79,0,0,1-30.29,1.78,2,2,0,0,1-1.59-.88A155.91,155.91,0,0,1,1328.35,471.67Z"/><path class="cls-3" d="M1438,575.51a103.86,103.86,0,0,0,21.36-6.28c3.56-1.44,7.09-3,10.56-4.58a3.87,3.87,0,0,1,3.82.09,140.71,140.71,0,0,0,16,7.14,62.64,62.64,0,0,0,45.26-.07,117.32,117.32,0,0,0,14.84-6.74,5.42,5.42,0,0,1,5.8,0c2.88,1.57,5.88,2.91,8.85,4.3a67.68,67.68,0,0,0,34,6.49,58.58,58.58,0,0,0,17.69-4.11,164.41,164.41,0,0,0,15.3-6.91,4.18,4.18,0,0,1,4.48-.11c1.52.88,3.2,1.46,4.75,2.29a90,90,0,0,0,22.3,8,16.14,16.14,0,0,1,3.68,1.06c-.13.83-.87.91-1.38,1.17-8.09,4-16.39,7.62-24.81,10.91a4.16,4.16,0,0,1-3.45,0,8.1,8.1,0,0,0-7.78.52c-4,2.21-8.2,4-12.37,5.82-13.91,6.14-28,6.3-42.39,1.75a102.2,102.2,0,0,1-15.47-6.5c-6.43-3.28-6.51-3.27-12.88,0a101.93,101.93,0,0,1-18.19,7.41,53.67,53.67,0,0,1-31,.17,121.87,121.87,0,0,1-21.74-8.84,7.29,7.29,0,0,0-6.87-.39,5.25,5.25,0,0,1-4.36,0c-9.07-3.42-17.77-7.65-26.57-11.69C1437.19,575.83,1437.65,575.7,1438,575.51Z"/><path class="cls-1" d="M1744.75,518c-.13.78-.8,1.16-1.28,1.66-1.53,1.64-3.1,3.24-4.63,4.87-2.18,2.32-2.17,2.32-5.26,1.15-5.25-2-10.18-4.63-15.25-7-4-1.87-4-1.94-8,.14a108.21,108.21,0,0,1-12.53,6,81.36,81.36,0,0,1-20.71,4.87c-5.9.55-11.63-.61-17.3-2.07a104.5,104.5,0,0,1-23.28-9.44,6,6,0,0,0-6.29.06,98.63,98.63,0,0,1-25.14,9.88,68.21,68.21,0,0,1-11.62,1.62c-6.34.33-12.38-1.19-18.35-3.06a118,118,0,0,1-19.79-8.55,6.07,6.07,0,0,0-6.12,0,141.87,141.87,0,0,1-16.78,7.68,67.08,67.08,0,0,1-18.2,4c-7.49.5-14.61-1.21-21.62-3.59a121.25,121.25,0,0,1-18-7.87,7,7,0,0,0-7.21,0,133.74,133.74,0,0,1-20,8c-11.49,3.77-23,3.43-34.49.3a84.06,84.06,0,0,1-18.11-7.55c-5.76-3.13-5-2.3-9.43-.09-2.87,1.41-5.65,3-8.49,4.46a34.16,34.16,0,0,1-7.4,2.77,2,2,0,0,1-2.2-.41c-2.38-2.57-4.81-5.11-7.23-7.68.42-.67,1.08-.72,1.66-.89a137.65,137.65,0,0,0,25.18-9.87c.42-.22.88-.39,1.3-.62a4,4,0,0,1,4.06,0c4.55,2.35,9.25,4.36,14,6.32,13,5.37,26.19,5.94,39.72,2.46a114.72,114.72,0,0,0,23.5-8.87,3.92,3.92,0,0,1,4,0,139.68,139.68,0,0,0,22.08,9.26c7.08,2.17,14.3,2.41,21.6,2.06,7.58-.37,14.49-3.1,21.42-5.81a115,115,0,0,0,12-5.5,3.79,3.79,0,0,1,4,0c4.81,2.54,9.79,4.71,14.81,6.8,14.55,6.06,29.22,6.13,44.05,1.21a110.88,110.88,0,0,0,18.46-8,3.56,3.56,0,0,1,3.75,0,143.38,143.38,0,0,0,24.92,9.9,48.76,48.76,0,0,0,17.11,1.47,76.63,76.63,0,0,0,30.18-8.76c1.7-.9,3.47-1.65,5.14-2.59a3.47,3.47,0,0,1,3.61-.07c1,.52,2.06.89,3,1.42a104,104,0,0,0,22.26,8.78c.84.23,1.67.54,2.5.83A1.61,1.61,0,0,1,1744.75,518Z"/><path class="cls-1" d="M1704.38,553.86A261.15,261.15,0,0,1,1675.84,572a5.79,5.79,0,0,1-3.45.63,80.66,80.66,0,0,1-25.19-6.52,101.27,101.27,0,0,1-9.47-4.65,6.72,6.72,0,0,0-7.18-.07,93.37,93.37,0,0,1-20.72,8.75c-12.78,3.37-25.45,3.2-37.92-1.6a123,123,0,0,1-15.69-7.17,6.23,6.23,0,0,0-6.51-.14c-7,3.61-14.18,7-21.84,9.21a61.18,61.18,0,0,1-19.69,2.22,27.67,27.67,0,0,1-5.21-.8,104.15,104.15,0,0,1-22.58-7.9c-2.35-1.19-4.81-2.17-7.17-3.33a4,4,0,0,0-3.67.13c-2.61,1.22-5.19,2.5-7.8,3.69a86.08,86.08,0,0,1-22.12,6.94,47.3,47.3,0,0,1-8.35.72,7.85,7.85,0,0,1-3.91-1c-8.84-5.17-17.62-10.41-25.92-16.43-.43-.31-1-.53-1.14-1.16.87-.22,1.54.34,2.25.62,9.1,3.51,18.45,5.82,28.25,5.86,6.7,0,13.14-1.64,19.51-3.53a98.83,98.83,0,0,0,18.2-7.36,5.28,5.28,0,0,1,5.4,0c3,1.56,6,3,9.08,4.34a85.2,85.2,0,0,0,22.32,6.25,54.25,54.25,0,0,0,24.38-2.2c6-2,11.93-4.07,17.43-7.3,4.73-2.78,4.82-2.61,9.85-.17a129.5,129.5,0,0,0,22.08,8.61c10.71,2.94,21.21,2,31.67-1.18a111.9,111.9,0,0,0,20.77-8.65,3.93,3.93,0,0,1,4.18,0,103.27,103.27,0,0,0,25.91,9.87,57.92,57.92,0,0,0,33.49-2.21c2.92-1.1,5.84-2.16,8.77-3.24C1704.33,553.16,1704.49,553.39,1704.38,553.86Z"/><path class="cls-1" d="M1521.7,602.56a157.77,157.77,0,0,0,29.69-11.23,3.17,3.17,0,0,1,3.12.2,153.17,153.17,0,0,0,21.86,9.09c2.12.67,4.27,1.25,6.48,1.89C1576.81,605.32,1531.06,605.43,1521.7,602.56Z"/><path class="cls-4" d="M1704.38,553.86l-.56-.58a2.9,2.9,0,0,1,2.09-.76A2.16,2.16,0,0,1,1704.38,553.86Z"/><path class="cls-5" d="M1438,575.51l-.52.89c-.31-.07-.62-.22-.45-.58S1437.63,575.48,1438,575.51Z"/><path class="cls-2" d="M1603,178.13a53.8,53.8,0,0,0,2.35,8c1.57,4.87,3.13,9.74,3.08,15a22.33,22.33,0,0,1-2.69,9.85,2.72,2.72,0,0,1-1.81,1.42c-4.75,1.43-11.22.75-14.9-4.33-.79-1.1-1.69-2.12-2.48-3.11-.89,0-.95.68-1.19,1.13a65.89,65.89,0,0,0-4.1,9.19c-1.11,3.21-1.57,3.15,2.13,3.5a54.59,54.59,0,0,1,13.76,3.12,37.82,37.82,0,0,1,14,9,58.24,58.24,0,0,1,10.92,14.8c1.25,2.5,2.6,5,3.8,7.48a65,65,0,0,0,15.37,20.06,169.66,169.66,0,0,0,16.66,13,9.16,9.16,0,0,1,1.88,1.48,2.86,2.86,0,0,1,.8,2.42c-.28.89-1.38.59-2.13.61-2.48.08-5,.08-7.44.11h-2.33c-.07,1,.59,1.32,1,1.73,3.51,3.39,7,6.75,10.57,10.13,4.16,4,8.23,8.06,12,12.41a75.18,75.18,0,0,0,6.79,6.78,47.48,47.48,0,0,0,5.19,3.86,9.51,9.51,0,0,0,9.73.92,57,57,0,0,0,13.16-7.81c3.63-2.88,7.18-5.87,10.78-8.8a14,14,0,0,1,10-3.38,7.21,7.21,0,0,1,6.2,3.45,6.29,6.29,0,0,1-2.48,1.53c-2.5,1.27-2.29.85-1.53,3.31a14.8,14.8,0,0,1,.7,5,7.54,7.54,0,0,1-6.19,7.48,32.23,32.23,0,0,1-5.73.42,11.4,11.4,0,0,0-7.9,3.3c.35.67.88.47,1.31.49q14,.73,28,1.42a8.1,8.1,0,0,1,4.43,1.65,20.28,20.28,0,0,1,4.82,5.3,5.54,5.54,0,0,1,.79,3.45c-.12,2.47-1.89,3.44-4.07,2.15a30.78,30.78,0,0,0-3.87-2.39,13.69,13.69,0,0,0-.59,3.49,5.13,5.13,0,0,1-3.24,4.64,22.57,22.57,0,0,1-3.64,1.17,5.89,5.89,0,0,1-6.28-1.94c-1.13-1.24-2.18-2.55-3.23-3.87a3.68,3.68,0,0,0-3.11-1.47H1706c-.23,0-.48,0-.61.25a.57.57,0,0,0,.18.63c3.92,3.89,7.85,7.72,12.6,10.67a27.58,27.58,0,0,1,7.64,7.19c2,2.73,1.74,5.9,1.58,9,0,.93-1,1.2-1.6,1.66-3,2.22-3,2.21-5.25-.81l-1.42-1.87c-.83.13-1,.82-1.4,1.29-2.42,3.12-4.36,3.75-8.17,2.68a11.74,11.74,0,0,1-4.38-2.4,26.85,26.85,0,0,1-5.23-6.22,6.41,6.41,0,0,1-.94-2.94q-.19-2-.42-4.06a5.43,5.43,0,0,0-1.59-3.41c-2.08-2-4.12-4-6.28-5.93a13,13,0,0,0-8.46-3.51,10.92,10.92,0,0,1-5.39-1.85,13.62,13.62,0,0,0-6.84-1.88,67.46,67.46,0,0,0-8.39.13,18.22,18.22,0,0,0-8.48,3c-3.57,2.36-7.52,2.42-11.54,1.48a5.11,5.11,0,0,1-4-4c-.29-1.16-.61-2.32-.94-3.47a2.79,2.79,0,0,0-2.27-2.2c-1.25-.25-2.48-.62-3.73-.87-1-.2-1.38-.49-.87-1.6,2-4.26,5.52-6.17,10.13-5.37l.23,0c6,2,12.14,1.72,18.29,1.67h8.4c.52,0,1.11.2,1.72-.45a15.37,15.37,0,0,0-3.22-3.37q-6.86-5.63-13.77-11.22c-9.14-7.4-18.27-14.81-27.23-22.43-.47-.4-.84-1-1.78-1-1.93,4.12-2.92,8.67-4.78,13a6.76,6.76,0,0,1-3.23-3.75c-1.24-3.37-2.52-6.74-3.79-10.1a46.29,46.29,0,0,0-11.28-17.07c-3.27-3.18-6.79-6.08-10.21-9.1a115.08,115.08,0,0,1-16.82-18c-.45-.61-.77-1.39-1.81-1.75-.2,1.39-.45,2.69-.57,4a79.87,79.87,0,0,0,.29,19.39,27.06,27.06,0,0,0,5.29,12.45,17.08,17.08,0,0,0,7.09,5.19,5.24,5.24,0,0,0,7.25-3.06,19.72,19.72,0,0,0,1-3.45c.22-1.07.9-1.15,1.76-1.17s1.47.16,1.72,1.19c1.15,4.76,1.38,9.5-.25,14.19-2.18,6.25-7.79,10.19-14.92,10.56a22.21,22.21,0,0,1-6-.43c0,.88.65.93,1.07,1.18a94.68,94.68,0,0,1,8.51,5.39,14.32,14.32,0,0,0,3.21,1.59c5.56,2.24,11.15,4.42,16.69,6.69a74.49,74.49,0,0,1,13.34,7,13.94,13.94,0,0,1,3.61,3.47c4.87,6.79,6.68,14.27,4.88,22.49-1.32,6-5.12,10-10.79,12.21a106.72,106.72,0,0,1-15.72,4.27,155.48,155.48,0,0,0-15.1,3.84,27.28,27.28,0,0,0-8.92,4.54,11.83,11.83,0,0,1-4.87,2.5c-.8.18-1.2-.08-1.24-.93a11.37,11.37,0,0,1,.8-5.39A25.64,25.64,0,0,1,1580,362.69c2.59-1.43,5.21-2.8,7.83-4.17a53.05,53.05,0,0,0,6.61-3.9,14.7,14.7,0,0,0,3-2.73c2.65-3.37,3.58-7.53-.3-11.68a20.51,20.51,0,0,0-8.5-5.21,59.92,59.92,0,0,1-21.13-12.47,65.5,65.5,0,0,1-5.21-5.54c-.74,1.09-.43,2.13-.42,3.08a150.55,150.55,0,0,0,4.89,34.83c.74,2.86,1.57,5.7,2.34,8.55.42,1.53.39,1.59-1.07,2-.92.28-1.86.48-2.78.75a4.68,4.68,0,0,0-3.47,3.6c-.41,1.71-1,3.38-1.54,5a13.37,13.37,0,0,1-2.15,4,7.88,7.88,0,0,1-3.43,2.54,1.84,1.84,0,0,1-2.51-.7l-.08-.17c-1.9-3.17-3.71-6.4-4.32-10.08a5,5,0,0,0-4-4.5,8.3,8.3,0,0,1-1.33-.55,3,3,0,0,1-1.87-3.27,18.3,18.3,0,0,1,1.31-5.09c5.28-12.58,5.89-25.74,4.93-39.11a7.85,7.85,0,0,0-.71-3c-.92.35-1.22,1.14-1.68,1.76a60,60,0,0,1-10.12,10.85,32.87,32.87,0,0,1-12.72,6.48,58.5,58.5,0,0,0-5.93,1.91,13.78,13.78,0,0,0-4.34,2.52c-4.35,3.74-4.65,9.39-.68,13.54a30.24,30.24,0,0,0,5.81,4.62c2.77,1.75,5.59,3.42,8.4,5.11a49.14,49.14,0,0,1,7.89,5.44c3.33,3,5.86,6.55,6.55,11.14.12.78.49,1.73-.18,2.28s-1.68,0-2.46-.32c-2.14-.86-3.66-2.55-5.27-4.1a20.43,20.43,0,0,0-11.42-5.64,41,41,0,0,0-6.21-.52c-8.33.07-15.85-2.78-23.12-6.42a24.31,24.31,0,0,1-8.76-7.69,1.46,1.46,0,0,0-.15-.19c-4.15-4.08-4.15-9-2.95-14.22a16.09,16.09,0,0,1,2.69-6.1c5.62-7.57,12.57-13.12,22.09-15,2.59-.5,5.13-1.22,7.69-1.87a79.29,79.29,0,0,0,17.59-6.21,21.83,21.83,0,0,0,8.34-7.4,1.71,1.71,0,0,0,.49-1.46c-.9.16-1.81.34-2.73.48-5.37.8-10.52.34-15.24-2.65a9.37,9.37,0,0,1-3.7-4.28,17.88,17.88,0,0,1-1.37-11.23c.71-3.25,2.62-5.78,4.85-8.12a4,4,0,0,1,1-.69c2.12-1.16,2.8-.75,2.77,1.61,0,2.55-.25,5.12.44,7.64.51,1.85.91,2.16,2.84,2.21,2.4.06,4.2-1.32,6.13-2.45,1.28-.75,1.48-2,1.88-3.21a64.4,64.4,0,0,0,3.64-25.23,41.91,41.91,0,0,0-1.65-8.94,13.66,13.66,0,0,0-.55-1.38.72.72,0,0,0-.75.4c-2.47,4.61-5.84,8.59-9,12.71a42.56,42.56,0,0,1-5.73,5.79c-2.34,2.06-4.7,4.1-6.91,6.31a64.21,64.21,0,0,0-15.17,22.78c-1.24,3.28-2.91,6.4-4.41,9.58-.37.77-.84,1.49-1.38,2.42a6.82,6.82,0,0,1-1.49-2.34c-1.6-3.4-3.17-6.81-4.75-10.22-.24-.51-.51-1-.73-1.51-.37-.85-.83-1.08-1.62-.42-1.1.92-2.29,1.75-3.39,2.67q-20.79,17.22-41.56,34.47c-.85.71-1.65,1.47-2.74,2.45a21.34,21.34,0,0,0,6.06,1.13,109.68,109.68,0,0,0,11.51.17,99.43,99.43,0,0,1,14.62.3,12.14,12.14,0,0,1,5.75,2.2c2.26,1.64,2.87,4,2.54,6.57-.18,1.43-.76,1.94-2.22,2a19.32,19.32,0,0,1-3.11-.13,1.76,1.76,0,0,0-2.15,1.25l0,.08c-.39,1.13-1,2.18-1.49,3.27a3.62,3.62,0,0,1-2.89,2.25c-5.41.81-10.66.6-14.76-3.55a9.44,9.44,0,0,0-7.38-3c-3.67,0-7.34-.4-11-.67a4.14,4.14,0,0,0-3.31.91,10.75,10.75,0,0,1-7.13,2.4,5.27,5.27,0,0,0-3.65,1.47q-4.41,3.88-9,7.6a11.15,11.15,0,0,0-3.86,6.72c-.16.78-.31,1.57-.43,2.36-.29,2-.58,3.93-2.27,5.37a13.6,13.6,0,0,1-7,3.33,8.87,8.87,0,0,1-6-1.08c-.68-.41-1.43-.72-2.12-1.13a1.16,1.16,0,0,0-1.8.5c-.67,1.09-1.33,2.19-2,3.25-.94,1.42-1.4,1.59-3,1-.75-.26-1.44-.69-2.16-1a1.67,1.67,0,0,1-1-1.7v-9.36c0-1.34.92-1.75,1.77-2.31,7.09-4.66,13.9-9.7,20.57-15a26.3,26.3,0,0,0,5.11-5c-.38-.77-1-.52-1.52-.53a53.88,53.88,0,0,0-11,.5,23,23,0,0,0-9.27,3.71c-1,.69-2,1.35-3,1.94-3.35,1.9-6.89,1.75-10.48.85a2,2,0,0,1-1.3-1.29c-.57-1.22-1.19-2.42-1.89-3.85-2.46,1.85-4.49,4-7.44,5.17a24,24,0,0,1-.59-8.88c.49-3.64,2.44-5.85,6.12-6.42,6.22-1,12.37-2.58,18.77-2.12a34.59,34.59,0,0,0,9.56-.58,5.13,5.13,0,0,0,2.19-.8c-3-2-6-3.69-9.77-3.34a19,19,0,0,1-6-.11c-2.93-.65-3.93-1.72-4.11-4.7a22.69,22.69,0,0,1,1.26-8c.56-1.83.53-1.82-1.06-2.79a7.86,7.86,0,0,1-2.35-1.62,7.48,7.48,0,0,1,3.89-3.17c4.63-1.83,9.11-1,13.48,1a4.31,4.31,0,0,1,1.85,2.15,16.31,16.31,0,0,0,5.15,5.59c2.35,1.66,4.63,3.43,6.9,5.2a16,16,0,0,0,6,2.92c3.18.81,6.36,1.58,9.51,2.48a2.69,2.69,0,0,0,3-.77c3.73-3.62,7.55-7.15,11.33-10.73Q1445,303.69,1456.19,293c1.21-1.15,2.33-2.39,3.73-3.85-4.91-1.11-9.62.88-14.13-.53-.12-.87.55-1,1-1.33,1.74-1.27,3.49-2.55,5.27-3.77a77.31,77.31,0,0,0,20.25-20.24c1.77-2.57,3.71-5,5.31-7.7,4.45-7.38,10.15-13.75,15.87-20.12a50.16,50.16,0,0,1,30.45-16.31c.47-.07.95-.16,1.41-.26s.87-.34.76-1q-1.18-6.44-2.34-12.89c-1.05.22-1.39.92-1.9,1.39a17.87,17.87,0,0,1-5.12,3.51c-3.92,1.69-7.67,1.1-11.25-1a5.62,5.62,0,0,1-2.83-4.23,28.86,28.86,0,0,1,1-12.34c1.07-3.78,2.55-7.4,3.9-11.08a59.51,59.51,0,0,0,2.38-7.79c.3-1.36.17-1.47-1.27-1.56-2.79-.17-3.45.22-4.54,2.83-5.85,14-11.61,28.07-17.58,42a126.38,126.38,0,0,1-9,17.2c-5.39,8.65-13.31,13.86-23,16.53a17.78,17.78,0,0,1-9.72-.19,2.1,2.1,0,0,1-1.77-2.17,11.71,11.71,0,0,1,1-5.84,96.38,96.38,0,0,1,5.2-9.45,132.77,132.77,0,0,0,11.22-22.51c2-5.09,4.58-9.86,7-14.71,2.85-5.64,5.61-11.32,7.24-17.47a6.89,6.89,0,0,0,.3-1.16c0-.51.53-1.2-.2-1.49s-1.5-.72-2.25-.07a11.51,11.51,0,0,0-1,1,143.71,143.71,0,0,0-12.24,16c-4.49,6.71-9.31,13.2-14,19.76q-17.27,24.08-34.33,48.3a142.08,142.08,0,0,1-24,26,161.93,161.93,0,0,1-15.2,11.31,5,5,0,0,1-2.39,1,43.85,43.85,0,0,1-14.05-1,10.62,10.62,0,0,1-3.9-1.78,4.85,4.85,0,0,1-1.79-6.14,14.47,14.47,0,0,1,3.43-4.86q6.44-6.79,12.53-13.91a76.25,76.25,0,0,0,9.7-14,21,21,0,0,1,3.8-4.92,70.26,70.26,0,0,0,5.34-6.16c9.84-12.61,20-25,29.11-38.15,4.14-6,7.76-12.31,11.66-18.46,3.43-5.4,6.72-10.89,10.63-16a10.59,10.59,0,0,0,2.7-7c-.78-.27-1.14.25-1.52.61-1.23,1.14-2.47,2.28-3.63,3.49-12.54,13-24.9,26.22-38,38.73-4.57,4.37-9.2,8.67-14,12.78a37.09,37.09,0,0,0-6,6.47,38.53,38.53,0,0,1-7.64,7.91,135.81,135.81,0,0,1-12.39,9.06,46.39,46.39,0,0,1-9.95,4.71c-6.25,2-12.47,1.4-18.66-.31a7.23,7.23,0,0,1-3.09-1.79c-2.79-2.69-3.3-5.13-1.12-8.28a29.5,29.5,0,0,1,6.22-6.29q12.84-10.07,25.74-20.06a54.91,54.91,0,0,0,6.42-5.77c12.49-13.29,25-26.58,38.61-38.74,5.2-4.64,9.73-9.95,14.52-15a10.44,10.44,0,0,0,2.91-4.84c-.55-.45-.93,0-1.31.18-10.72,5.9-21.44,11.8-31.69,18.5-2.75,1.79-5.44,3.65-8.07,5.62A145.46,145.46,0,0,1,1357,185.33c-7.2,3.87-14.83,4.82-22.78,4.14a28.93,28.93,0,0,1-12.89-4.18c-1.19-.74-2.52-1.29-2.43-3.18.11-2.23-.29-4.51,1.91-6.09a37.37,37.37,0,0,1,7.13-3.92,209.58,209.58,0,0,0,26.14-13.63c6.84-4.15,13.5-8.57,20.15-13L1391,134.24a52.1,52.1,0,0,0,6.49-4.94,19.86,19.86,0,0,0,3.33-3.75c-.61-.57-1.11-.18-1.59,0a105.86,105.86,0,0,0-10.64,3.71c-1.87.72-3.7,1.54-5.6,2.13a41.69,41.69,0,0,0-10.09,4.93,72.39,72.39,0,0,1-31.06,11.27,32.4,32.4,0,0,1-11-.28,16.57,16.57,0,0,1-7.42-3.73,11.38,11.38,0,0,1-3.15-4.46,4.34,4.34,0,0,1,.86-5,15.48,15.48,0,0,1,6.39-4.43c13.32-4.76,26.6-9.65,39.9-14.48a33.17,33.17,0,0,0,5.48-2.42,112.28,112.28,0,0,1,14-6.82,16.83,16.83,0,0,0,4-2.2,7,7,0,0,0,2.49-3.09c-.64-.6-1.31-.41-1.91-.42-7.28-.2-14.56,0-21.83.29a159.17,159.17,0,0,1-25.16-.65,91.22,91.22,0,0,1-12.68-2.56,1.62,1.62,0,0,1-.45-.16c-5-1.84-9.87-10.08-9-15.34a3.6,3.6,0,0,1,2.84-3.32A70.51,70.51,0,0,1,1350.27,76c10.69.72,21.39,1.45,32.12,1.19,3.36-.08,6.71-.3,10.06-.53,1.8-.12,1.8-.24,2-1.73.13-1.17-.24-1.79-1.44-2-2.76-.45-5.5-1-8.26-1.45-14.49-2.28-28.72-5.5-42.38-11a54.77,54.77,0,0,1-8.56-4.3,26.84,26.84,0,0,1-2.36-1.64c-4.78-3.74-5.68-7.85-3.36-14.12a5.62,5.62,0,0,1,6.09-4,72.39,72.39,0,0,1,17.66,3.15,282,282,0,0,0,34.76,8.12c.55.1,1.11.18,1.66.23a5,5,0,0,0,.86-.08,4.21,4.21,0,0,0-2.23-1.38c-6.46-2.78-12.94-5.53-19.26-8.61a23.67,23.67,0,0,1-4.79-2.7,6,6,0,0,1-2.34-3.07,37.09,37.09,0,0,1,6.57.14c8.86.75,17.74.65,26.62.55,6.56-.07,13.12-.22,19.68-.14a99.26,99.26,0,0,1,23.94,3.28A33.88,33.88,0,0,1,1448.59,41c.71.51,1.39,1.08,2.06,1.65,4.66,3.91,5.89,8.6,4.33,14.6-1.88,7.27-6.29,11.64-13.18,13.91-.6.2-1.19.45-1.78.68-.06,0-.1.12-.17.21,0,.72.59,1.06,1,1.52,2.06,2.45,4.05,4.95,5.93,7.54a27.26,27.26,0,0,1,4.92,22.25c-.69,3.45-1.21,6.93-1.7,10.41-.33,2.3-.24,2.35,2,2.3,3.52-.07,7-.14,10.55-.31a21.18,21.18,0,0,1,6,.49,53.23,53.23,0,0,1,16,6.38A27.72,27.72,0,0,1,1494.5,133a7.5,7.5,0,0,0,1.67,2.33c1.23,1,2.46.72,2.94-.83s.84-3.25,1.19-4.89a9.79,9.79,0,0,1,2.88-5.14c4.42-4.27,9.54-7,15.82-6.93,1.19,0,1.67-.42,1.4-1.54-.4-1.61.46-2.26,1.79-2.81a45.72,45.72,0,0,0,4.5-2.26,14.51,14.51,0,0,0,4.07-3.32c1.19-1.4,1.18-1.49-.36-2.51-.8-.53-1.63-1-2.44-1.53s-2-1-1.9-2.45,1.43-1.57,2.39-2c2.07-.84,4.19-1.58,6.3-2.32,2.85-1,4.26-3.52,6-5.69.46-.57-.07-1-.4-1.47a22.24,22.24,0,0,0-4.34-4.12c-1.87-1.37-3.79-2.67-5.65-4.05a35.34,35.34,0,0,1-3.35-2.72c-1.71-1.62-1.54-2.17.74-3,3-1.2,5.94-.16,8.83.5a26.75,26.75,0,0,1,5.14,1.85c-6.21-2.92-12.79-3.31-19.48-2.88-4.26.08-8.39,1.08-12.56,1.78-4.57.77-9.09,1.88-13.78,1.64a28.16,28.16,0,0,1-9.1-1.92,17,17,0,0,1-6.81-5.16,7,7,0,0,1,1.11-10.4,25.08,25.08,0,0,1,3.67-2.26c.89-.5,1.46-.5,1.77.61.19.69.51,1.35.73,2a8.47,8.47,0,0,0,5.14,5.36,23.48,23.48,0,0,0,7.45,1.69,79.13,79.13,0,0,0,15.79-.73c5.39-.71,10.76-1.52,16.24-.78,6.48.87,12.76,2.17,18.14,6.25a17.66,17.66,0,0,0,5.23,2.85c.45-.8-.06-1.33-.32-1.84A21.32,21.32,0,0,0,1541,63a19,19,0,0,0-7.16-.1,30.47,30.47,0,0,0-3.78.63,2.5,2.5,0,0,1-3.1-1.06,9.83,9.83,0,0,0-1.43-1.61,7.15,7.15,0,0,0-8.76-1.67c-1.45.66-2.83,1.49-4.22,2.28-.94.54-1.43.35-1.71-.73a11.43,11.43,0,0,1-.19-5,20.72,20.72,0,0,1,2.83-7.08,5.69,5.69,0,0,1,1.86-1.82A37.17,37.17,0,0,1,1520.9,44c3.08-1.33,6.22-2.51,9.21-4.08a12.07,12.07,0,0,1,5.6-1.13,4.88,4.88,0,0,0,3.48-1.3c3.62-3.34,8-4.38,12.82-4.48,7.44-.15,14.61,1.45,21.78,3.11,6.15,1.43,12.26,3,18.45,4.27,3.86.77,7.79.77,11.69,1.2a38.73,38.73,0,0,1,4.54.68c.09,1.06-.74,1.55-1.33,2.13a18,18,0,0,1-6.79,3.94c-1.88.67-3.79,1.29-5.71,1.83-1.12.31-1.43.72-.83,1.84a31.66,31.66,0,0,1,2.67,7.17,14.16,14.16,0,0,1-.34,7.1c-.75,3.11-1.9,6.1-2.93,9.13a48.49,48.49,0,0,0-1.95,7.66,7.75,7.75,0,0,0,1,5.73,14,14,0,0,1,2.46,5.77,4,4,0,0,1-2.33.28c-2.24,0-4.48-.11-6.72-.2-1,0-1.5.3-1.6,1.31-.42,4.32-.62,8.62,1.12,12.76a7.78,7.78,0,0,0,3.33,3.94,29.38,29.38,0,0,1,5.38,3.57c-1.73,1.29-3.73,1.83-5.8,3a16.44,16.44,0,0,0,4.33.57,37.61,37.61,0,0,1,7.36,1c5,1.21,8.91,3.81,11.31,8.49a15.08,15.08,0,0,0,3.14,4.74,5.74,5.74,0,0,0,2.06-1.7c1.84-1.89,3.71-3.76,5.47-5.73,5.87-6.57,13.29-9.48,22-9.51h8.16a4.82,4.82,0,0,0,2.43-.28,40,40,0,0,0-1.19-5.56c-1.48-6.54-.42-12.86,1.48-19.14a42.85,42.85,0,0,1,6.42-12.27c2.49-3.52,2.45-3.55-1.52-5.47-1.15-.56-2.28-1.16-3.45-1.67-8.56-3.79-14-16.07-8-26.41a23.74,23.74,0,0,1,16.15-11.79c7-1.53,14.12-1.66,21.25-1.62,8.16,0,16.3.73,24.47.62,7.93-.11,15.8-.94,23.68-1.69,2.79-.27,5.57-.54,8.36-.77.43,0,.95-.27,1.46.43a17.42,17.42,0,0,1-5.79,5.07,122.55,122.55,0,0,1-15.74,7.08c-4.26,1.63-8.53,3.19-12.78,4.84-.7.27-1.57.31-2.19,1.31h2.46c6.4-.16,12.77-.87,19.16-1.09,9.89-.34,19.46-2.68,29.14-4.35,5.76-1,11.56-1.62,17.42-.8a6,6,0,0,1,5.55,5.08,9.18,9.18,0,0,1-1.84,7.68,19.5,19.5,0,0,1-6.05,5,73.23,73.23,0,0,1-18.08,7c-5.87,1.53-11.7,3.32-17.69,4.31-4.57.75-9.2,1.17-13.8,1.74a51.17,51.17,0,0,0-9.37,2c-2,.66-2.05.7-1.76,2.91a6.35,6.35,0,0,1,.1.71c0,1.43.83,1.88,2.16,1.92,4.32.15,8.63.45,12.95.54A286,286,0,0,0,1769,79.95a22,22,0,0,1,7.4.17,7.88,7.88,0,0,1,5.83,10.68,16.91,16.91,0,0,1-9.51,9.92,32.13,32.13,0,0,1-9.51,2.34c-5.88.73-11.78,1.18-17.69,1.43-9.43.4-18.85,1-28.27,1.55a9.89,9.89,0,0,0-5,1.33c.24.88.93,1,1.46,1.29a26,26,0,0,0,5.78,2.31,169.51,169.51,0,0,1,22.07,8c7.77,3.27,15.88,5.39,23.95,7.71a82.67,82.67,0,0,1,13.89,5.23c6.1,3,6.27,8,3.32,12.77a10.56,10.56,0,0,1-5.8,4.41,30.57,30.57,0,0,1-14.7.91c-8.75-1.35-17.17-3.76-24.89-8.24-8.85-5.12-18.52-8.25-28.1-11.6-1.38-.48-2.87-1.19-4.34,0,.29.77,1.05.95,1.64,1.28,13.51,7.64,26.59,16,39.56,24.49a111.54,111.54,0,0,0,17.33,9.25,69,69,0,0,1,10.28,5.16,22.07,22.07,0,0,1,5.45,4.66c3.41,4.26,2.8,8.79-1.56,12.1a17.56,17.56,0,0,1-10.34,3.3A37.63,37.63,0,0,1,1748.8,187a161.08,161.08,0,0,1-17.4-9.63c-11-7.16-21.9-14.44-33.2-21.11-1.79-1.06-3.67-2-5.39-3.14s-3.36-1.28-4.94.4c.11.93,1,1.48,1.59,2.17a167.9,167.9,0,0,0,16.75,16.14,207.86,207.86,0,0,1,25.16,24.3,115.9,115.9,0,0,0,9.81,9.86,12.64,12.64,0,0,1,1.35,1.36c5.57,7,12.26,12.82,19.15,18.44,4.28,3.49,8.46,7.1,12.83,10.47,4.11,3.18,4.58,8.91,2.83,12.59a7.74,7.74,0,0,1-3.49,3.83c-6.16,3-12.53,4.24-19.28,2.13a19,19,0,0,1-7.56-4.5c-5.88-5.64-12.26-10.78-17.25-17.32a28.63,28.63,0,0,0-4.52-4.63c-13.81-11.45-26.62-24-39.42-36.52-6.29-6.17-12.19-12.69-18.18-19.13a6.57,6.57,0,0,0-5.13-2.36,12.85,12.85,0,0,0,2.54,4.31c10.71,12.46,19.42,26.41,29.46,39.37,6.82,8.79,14,17.3,21.15,25.78,11.38,13.42,22.58,27,32.83,41.33a13.62,13.62,0,0,1,1.93,3.57,6.83,6.83,0,0,1-1.17,7c-.51.62-1,1.24-1.49,1.88-3.48,4.67-8.11,5.56-13.47,4.18a22.7,22.7,0,0,1-6.72-3.11,55.48,55.48,0,0,1-8.43-6.72c-3.72-3.63-7.47-7.23-11.36-10.69-7-6.2-12.66-13.55-18.58-20.69-12.71-15.34-24.57-31.37-37.63-46.41-7.88-9.08-13.9-19.31-20.36-29.3-.86-1.33-1.77-2.45-3.56-2.67a12.69,12.69,0,0,0,1.2,4.84c3.54,9.52,7.45,18.89,11.84,28A251.24,251.24,0,0,0,1654,235.37a31.19,31.19,0,0,1,3.44,6.84c1.4,4.33.2,7-3.88,9a12.46,12.46,0,0,1-12.59-.67,36.48,36.48,0,0,1-12.54-12.33,71,71,0,0,1-6.09-13.28c-3-8.68-6.39-17.23-9.93-25.72a118.16,118.16,0,0,1-4.16-11.75,41.45,41.45,0,0,0-4.67-10.47C1602.43,176.85,1602.94,177.62,1603,178.13Z"/><path class="cls-6" d="M1522.21,75.21c7.93-1.17,15.59-.64,22.6,3.75.38.24.88.38.9,1a5.84,5.84,0,0,1-2.74-.67c-2-.69-4.06-1.43-6.08-2.18a23.53,23.53,0,0,0-9.16-1.39C1525.95,74.86,1524,75.54,1522.21,75.21Z"/><path class="cls-7" d="M1603,178.13c-.62-.82-.41-1.82-.88-3a2.42,2.42,0,0,1,1.49,1.91Z"/><path class="cls-8" d="M1547.63,304.71c-1.1.48-1.31,1.31-1.7,2-1.87,3.26-3.65,6.57-5.6,9.78-4.48,7.38-11.05,12.08-19.19,14.68a72.25,72.25,0,0,0-7.48,2.59,21.66,21.66,0,0,0-5.1,3.11c-4,3.33-6.23,9.65-1.76,15.15a30.75,30.75,0,0,0,12.67,9.21,33.19,33.19,0,0,1,9.64,5.74,15.66,15.66,0,0,1,4.39,5.76,14.7,14.7,0,0,1-4.52-1.89,25.46,25.46,0,0,0-9.51-3.14c-2.55-.23-5.11-.34-7.65-.6-9.75-1-18.53-4.19-25.51-11.38-.72-.74-1.33-1.59-2-2.39-2.6-3.13-2.87-6.75-1.81-10.43,2.91-10.11,9.47-16.68,19.67-19.41,4.25-1.14,8.58-2,12.85-3a58.44,58.44,0,0,0,14.79-5.53,44,44,0,0,0,12.75-10.4,17.74,17.74,0,0,0,3.82-12.56c-.07-1.41-.45-1.59-1.58-.8a14.46,14.46,0,0,0-2.29,2.1c-1.73,1.88-3.44,3.8-5.31,5.54-3,2.77-6.44,4.13-10.56,3a8.47,8.47,0,0,1-5.51-4.28,17.27,17.27,0,0,1-1.91-10.48c1.13,0,1.69.71,2.36,1.21,5,3.69,9.45,3.37,13.56-1.3a24.32,24.32,0,0,0,5.93-14.91,106.19,106.19,0,0,0-1.86-27.69,43.13,43.13,0,0,0-3.8-11.09,5.2,5.2,0,0,0-1.56-2.24c-.56.61-.34,1.35-.37,2-.13,3,0,5.91-.23,8.87a23.67,23.67,0,0,1-4.76,11.87,57.93,57.93,0,0,1-11,12c-7.54,6-13.31,13.55-18.36,21.69-2,3.19-3.56,6.63-5.78,9.68-.67.92-1.18,2.53-2.49,2.22-1.07-.25-1-1.85-1.34-2.89a37.61,37.61,0,0,1-.63-19.44,8.4,8.4,0,0,0,.28-1.41c0-.48-.29-.8-.76-.61a11.42,11.42,0,0,0-2.35,1.16c-8.88,6.3-19.05,8.85-29.63,10.19a9.47,9.47,0,0,1-3.3,0c-.32-.81.32-1,.71-1.37,1.35-1.13,2.66-2.32,4.1-3.32,6.88-4.75,12.28-10.89,17.11-17.65,3.31-4.62,6.28-9.46,9.52-14.13a88.49,88.49,0,0,1,19.7-20.83,34.1,34.1,0,0,1,13.51-6.5,21.41,21.41,0,0,1,10.21.26c2,.57,2.18.45,1.8-1.48a236.67,236.67,0,0,0-6.86-26.22,22.27,22.27,0,0,0-1.39-3,3.35,3.35,0,0,0-1.27-1.41c-.55-.32-1.15-.74-1.76-.21s-.13,1,.07,1.54c.51,1.26,1.07,2.5,1.6,3.75,2,4.73-1.45,11.55-6.76,13a5.56,5.56,0,0,1-5.73-1.44c-3.14-3.05-3.55-6.86-2.71-10.89a55.5,55.5,0,0,1,3.79-10.35c1.75-4.12,3.51-8.24,4.25-12.71.65-3.9.31-4.29-3.51-3.64-1.26.22-2.52.49-3.78.64a3.94,3.94,0,0,0-3.5,2.75c-3.29,8-6.71,15.92-10.07,23.88-3.15,7.44-6.23,14.91-9.44,22.32-3.8,8.76-8.87,16.65-16.15,23a27.12,27.12,0,0,1-12.89,6.55,12.53,12.53,0,0,1-7.52-.82c-1-.43-1.32-1-.76-2.07.88-1.62,1.68-3.27,2.52-4.91,6.72-13.19,13-26.61,19.66-39.81,2.82-5.56,5.25-11.31,7.83-17a23,23,0,0,0,2.11-8.08,9.41,9.41,0,0,0,.06-1.43c-.14-1.57-.59-1.94-2.13-1.89-3.79.14-7,1.37-9.23,4.67-1.35,2-2.94,3.8-4.15,5.88-4.86,8.39-10.64,16.16-16.21,24.07-7.61,10.79-15,21.69-22.64,32.48-6.86,9.75-14,19.32-21.74,28.37a164,164,0,0,1-27.28,25.51,15.5,15.5,0,0,1-13.1,2.9c-1.8-.38-3.58-.82-5.38-1.22a4.45,4.45,0,0,1-2.81-2.06,2.91,2.91,0,0,1,0-3.73,67.61,67.61,0,0,1,6.39-7.78,144.53,144.53,0,0,0,10.35-11.33,48.28,48.28,0,0,0,5.54-8.68,39.14,39.14,0,0,1,8.58-11.76c4.19-3.88,7.55-8.47,11.05-12.94,7.2-9.19,14.61-18.23,20.93-28.08,5.92-9.22,11.76-18.49,17.66-27.73,2.63-4.11,5.34-8.17,7.94-12.3,1.62-2.58,1.57-2.63-1.21-3.93-3.5-1.63-3-2-5.7,1.15-.15.18-.32.35-.49.53-7.39,7.54-14.67,15.18-21.94,22.84-9.26,9.74-19.6,18.37-29.48,27.47a56.85,56.85,0,0,0-6.94,7.28,36.76,36.76,0,0,1-4.16,4.64c-4.26,4-8.42,8.12-13.15,11.55a45.32,45.32,0,0,1-20.82,8.69,14.15,14.15,0,0,1-10.72-2.43c-1.94-1.44-2.18-2.24-1.41-4.54a13.38,13.38,0,0,1,4.34-5.94c7-5.86,13.93-11.79,21.41-17,6.88-4.81,12.67-10.75,18.27-16.91,3-3.25,5.69-6.73,8.79-9.84s6.53-5.89,9.83-8.79c11.06-9.74,21.82-19.76,30.81-31.52a8.57,8.57,0,0,0,.73-.95c.57-1,2.08-1.9,1.59-3-.63-1.45-2.29-2.16-3.74-2.82-.92-.42-1.66.35-2.39.8-5.72,3.53-11.41,7.1-17.15,10.59-8,4.86-15.91,9.86-23.62,15.17-6,4.14-12.42,7.59-18.66,11.34-4,2.4-8.5,3.26-13.08,3.61a34.55,34.55,0,0,1-12.15-.87,20.85,20.85,0,0,1-5.9-2.62c-2.67-1.77-2.84-4.46-.41-6.57a9.27,9.27,0,0,1,2-1.27c1.65-.81,3.31-1.62,5-2.3,10.91-4.33,20.88-10.42,30.84-16.52a439.76,439.76,0,0,0,37-25.3c.82-.63,1.54-1.4,2.38-2,2.57-1.86,2.21-4.37,1.65-7a.92.92,0,0,0-1.23-.79,24.49,24.49,0,0,0-3.25.82c-8.77,3.26-17.54,6.54-25.66,11.28-8.71,5.08-17.86,9-27.85,10.69a33.49,33.49,0,0,1-12.4.3,12.85,12.85,0,0,1-7.41-4.13c-1.9-2.19-1.86-4.23.11-6.4a12.67,12.67,0,0,1,3.67-2.66c5.28-2.74,11-4.45,16.53-6.44,8.74-3.11,17.58-5.95,26.25-9.25a8.13,8.13,0,0,0,2-.87c4.17-3.07,9-4.91,13.65-7a50.76,50.76,0,0,0,7.83-4.16,3.24,3.24,0,0,0,1.69-3.35c-.33-3.91.19-3.45-3.61-3.42-11,.1-22,1.32-33.07,1.29-6.86,0-13.77-.06-20.52-1.66-3.87-.92-7.46-2.4-10.21-5.45a15.58,15.58,0,0,1-3.52-5.94c-1-3.29,0-5.22,3.2-6.37a30.56,30.56,0,0,1,11.62-1.27c3.34.14,6.7.38,10,.6,10.13.67,20.26,1.52,30.43,1.06a88.89,88.89,0,0,0,14.28-1.67c.84-.18,1.89-.08,2.33-1a9.13,9.13,0,0,0,.92-3.94c0-.69-.62-.86-1.18-1L1393,71c-9.57-1.92-19.21-3.53-28.68-5.82-9.24-2.24-18.42-4.87-26.72-9.77a23.53,23.53,0,0,1-5.53-4.57c-2.95-3.27-2.45-6.71-.81-10.51.54-1.25,1.74-1.51,3-1.55a38,38,0,0,1,9.77.85q4.8,1.11,9.46,2.69A92.63,92.63,0,0,0,1366,45.81c5.27,1,10.28,3,15.6,3.83,6.25.93,12.44,2.23,18.72,2.91a26.28,26.28,0,0,0,10.58-.89c.18-1-.49-1.07-1-1.26a50.27,50.27,0,0,0-8.51-2.5,111.17,111.17,0,0,1-29.68-11.41,8.25,8.25,0,0,1-.74-.51c0-.55.39-.53.68-.54,5.59-.18,11.2-.26,16.79-.23,5.75,0,11.52.21,17.27.09,3.76-.08,7.5-.09,11.25.11A74.17,74.17,0,0,1,1442.75,41a21.6,21.6,0,0,1,7,4.56,9.65,9.65,0,0,1,2.84,9.2c-1.39,6.94-5.25,11.71-12.05,13.94-1.52.5-3.1.8-4.61,1.31-1.08.37-2.85.05-3.07,1.31-.18,1.05,1.5,1.42,2.37,2.08,1.21.92,2.54,1.67,3.73,2.61a27.37,27.37,0,0,1,10.53,20,39.47,39.47,0,0,1-4.26,20.91c-.3.62-.86,1.19-.56,2.12a37.83,37.83,0,0,0,5.42-.28,83.66,83.66,0,0,1,12.92-.71,37.92,37.92,0,0,1,21,7.24,22.15,22.15,0,0,1,7.33,9c.32.73.7,1.44,1,2.17a2.53,2.53,0,0,0,2.14,1.69,5.89,5.89,0,0,1,.71.13c3.07.4,5.92,1.26,8.13,3.61a5.15,5.15,0,0,0,1,.6,6.5,6.5,0,0,0-.51-2.86,23.24,23.24,0,0,1-1-7.33,10.92,10.92,0,0,1,4.69-8.77,17.35,17.35,0,0,1,8.71-3.11,63.71,63.71,0,0,1,8.62-.48,11.72,11.72,0,0,0,1.68-.06c.78-.09.91-.56.57-1.19s-.67-1.09-1-1.65c-.94-1.76-.9-2,.67-3.17s3.39-2.42,5-3.68a18.1,18.1,0,0,0,4.71-5.06c.88-1.5.74-1.84-1-2.32a31.12,31.12,0,0,1-4.72-1.4c1.56-.87,2.77-1.58,4-2.23a64.77,64.77,0,0,0,8.18-5A6.83,6.83,0,0,1,1546,93c3.63-.58,7.29-1.09,10.67-2.67.87-.41,1.72-.85,2.55-1.33,5.58-3.26,7.23-8.33,5.2-14.9a34.76,34.76,0,0,0-5.86-10.41c-2.69-3.58-5.49-7.08-8.2-10.65a19.37,19.37,0,0,1-3.37-6c1,.74,2,1.45,3,2.21a10.2,10.2,0,0,0,8.76,2.14,48.73,48.73,0,0,1,11.2-1.09,8.9,8.9,0,0,0,3.06-.47c-.14-.89-.87-1-1.39-1.23-2.42-1.24-4.94-2.31-7.29-3.66a21.33,21.33,0,0,0-13.67-2.46,47.08,47.08,0,0,1-6.23.18,5.37,5.37,0,0,1-1.19-.13,2.78,2.78,0,0,1-2-2.21c-.32-1.09.47-1.6,1.22-2.09a14.92,14.92,0,0,1,6.27-2.24,46.47,46.47,0,0,1,11.71.27,121.83,121.83,0,0,1,17.39,3.51c6.73,1.8,13.56,3.1,20.41,4.35a8.59,8.59,0,0,1,2.81.84,3.59,3.59,0,0,1-2.24,1.07c-3.08.87-6.18,1.67-9.24,2.59-1.82.54-1.94.94-1,2.53.84,1.36,1.74,2.68,2.6,4a11,11,0,0,1,1.48,9.4c-.86,3-1.54,6-2.37,9.05a94.71,94.71,0,0,0-3.14,15.26c-.16,1.57-.45,1.81-1.76.9-2.64-1.83-3.87-.49-4.44,2.27-1.48,7.08-1.08,14,2.23,20.57a2.39,2.39,0,0,1,.49,1.74c-1.38.21-2.73-.29-4.11-.43a8.22,8.22,0,0,0-3.89.55c-.05.9.61,1,1.06,1.27,1.24.73,2.48,1.47,3.77,2.1s2.43,1.45,2.49,3.17c.05,1.35.88,1.94,2.25,1.87,2-.1,4-.06,6-.2,7.27-.51,12.68,2.49,16.44,8.62.88,1.43,1.59,3,2.43,4.41a14.89,14.89,0,0,0,1.62,2.37c1.07,1.22,1.59,1.26,2.84.26a18.66,18.66,0,0,0,3.41-3.69,52.5,52.5,0,0,1,5.78-7,26.81,26.81,0,0,1,18.36-7.68,64.14,64.14,0,0,1,10.52.73,46.46,46.46,0,0,0,6.7.28c2.05,0,2.22-.36,1.25-2.29-.75-1.5-1.67-2.92-2.34-4.46-2.85-6.62-2.64-13.39-.82-20.21a30.92,30.92,0,0,1,8-13.73c1.45-1.49,3-2.93,4.39-4.43s1.37-1.94-.62-2.51c-1.46-.42-2.95-.75-4.42-1.12-1.09-.27-2.17-.54-3.26-.83-10.06-2.7-12.54-11.51-11.31-18.5,1.69-9.55,8.85-15.65,18.9-16.4,8.62-.64,17.25-.94,25.88-.84,11,.12,21.9.59,32.85.91a2.58,2.58,0,0,1,1.69.43c-.28.92-1.16,1-1.82,1.31a167,167,0,0,1-15.7,5.94q-8.09,2.7-16.13,5.5c-.69.24-1.82.23-1.69,1.32.1.9,1,1.13,1.84,1.27a26.61,26.61,0,0,0,4.29.44A231.93,231.93,0,0,0,1730.22,51c12.86-1.54,25.7-3.2,38.55-4.8.48-.06,1-.09,1.43-.11,4.12-.21,4.63.14,6.34,4a2.69,2.69,0,0,1,0,2.5c-1.86,3.76-4.29,6.84-8.43,8.4-12.15,4.61-24.53,8.33-37.44,10.13-6.65.92-13.39,1.11-20,2.34-.39.07-.79.11-1.18.19-2.31.47-2.45.64-2.44,3a14.3,14.3,0,0,0,.49,4.27,5.25,5.25,0,0,0,4.63,3.95,21.59,21.59,0,0,0,3.11.11c9.68-.15,19.35-.22,29-.53,5.11-.16,10.2-.75,15.3-1.15a48.06,48.06,0,0,1,15.48,1.06c2.16.53,2.42.92,2.55,3.13.31,5.44-1.58,8.5-6.72,10.64a51.32,51.32,0,0,1-12.78,3.15,120.31,120.31,0,0,1-14.58,1c-9.51.16-19,.59-28.54.52a26.67,26.67,0,0,0-3.81.4c-1.92.27-2.56,1.67-2.92,3.34s-.2,3.11,1.48,4.14a31.89,31.89,0,0,0,7,3.16c3.65,1.18,7.34,2.25,11,3.31a137.8,137.8,0,0,1,15.23,5.1c6.66,2.79,13.71,4.35,20.62,6.38a82.3,82.3,0,0,1,11.74,4.19c5.71,2.67,6.56,7.61,2.14,12.13a10.16,10.16,0,0,1-6.88,2.93,46.39,46.39,0,0,1-21.54-3.8c-5-2.09-9.92-4.46-14.89-6.66l-23.94-10.53a15.06,15.06,0,0,0-1.8-.65c-4.14-1.21-6-.5-8.25,3.12-.84,1.35-.83,1.65.52,2.51a65.49,65.49,0,0,0,6,3.49c9.88,4.82,19,10.94,28.12,17,5.34,3.54,10.81,6.84,16.36,10a60.61,60.61,0,0,0,7.89,3.49,62.85,62.85,0,0,1,14.76,8.87c3.95,3,4,4.27,1.86,8.66-1.6,3.19-4.48,4.18-7.63,4.67a18.75,18.75,0,0,1-5.51,0,52.2,52.2,0,0,1-17.85-6c-14.93-8.1-28.83-17.83-43.15-26.89-2-1.24-3.78-2.69-5.68-4a17.91,17.91,0,0,0-6.52-2.93,2.51,2.51,0,0,0-2.74.88c-3.36,3.83-3.41,5.08-.28,9.12a24,24,0,0,0,4.89,4.58c5.69,4.18,10.66,9.19,16,13.81,4.58,4,9.13,8,13.42,12.34,3.05,3.06,5.9,6.31,8.75,9.55,1.48,1.68,3,3.29,4.61,4.89,2,2,4,3.92,5.94,5.94a207.48,207.48,0,0,0,26,23.39,46.41,46.41,0,0,1,6.54,6.34c2.19,2.41,2.08,5.24,1.62,8.14a3.71,3.71,0,0,1-1.69,2.25c-4.78,3.72-10.19,4.4-15.91,3.07a20.68,20.68,0,0,1-10-5.93q-12.6-12.68-25.27-25.3c-6.47-6.42-13.44-12.32-20.19-18.45-7.65-6.95-14.81-14.36-21.87-21.89-3.94-4.2-7.94-8.34-11.87-12.55a2.86,2.86,0,0,0-3.41-.89c-1.73.62-3.52,1.07-5.26,1.67-1.42.5-1.56.82-.63,2.05,1.73,2.3,3.54,4.55,5.38,6.75a236.17,236.17,0,0,1,17,22.91c5.19,8,11.36,15.26,17.22,22.76,5.18,6.63,11.07,12.63,16.6,18.94a266.28,266.28,0,0,1,17.28,21.18c2.79,3.93,6.3,7.24,9.45,10.85a28.36,28.36,0,0,1,4.83,7.4,9.84,9.84,0,0,1,.89,6.54c-1.73,6.36-5.66,8.22-11.82,6.84a10.19,10.19,0,0,1-2.84-1.27,91.39,91.39,0,0,1-14.43-10.71c-2-1.74-3.89-3.56-5.84-5.35-8.06-7.39-14.71-16-21.53-24.48q-15.88-19.71-31.78-39.41c-4.4-5.49-8.78-11-13-16.67-2.52-3.4-4.69-7.06-6.95-10.65q-3.19-5.08-6.7-9.95a5.34,5.34,0,0,0-7.34-1.76h0c-.91.47-.69,1.16-.5,1.84.83,3.09,1.8,6.14,2.86,9.16,4.24,12.11,9.82,23.62,15.57,35.06a147.53,147.53,0,0,0,8,14.23,21.41,21.41,0,0,1,3.27,7.94c.54,3.08-.73,5.22-3.77,5.95-2.52.61-5.25.87-7.41-.81-5.17-4-10.3-8.16-13.4-14.18-1.54-3-2.91-6.05-4.17-9.17-2.18-5.42-4-11-5.62-16.58q-2.35-8.07-5.37-15.91-3.55-9.17-7.05-18.37a14.5,14.5,0,0,0-3.23-5.29,2.83,2.83,0,0,1-.77-3q1.3-4.86,2.59-9.74a4.69,4.69,0,0,0,.14-2.83c-.13-.36-.26-.8-.77-.78s-.52.33-.64.63a13.88,13.88,0,0,0-.68,1.79c-2.17,8.67-6.16,16.64-9.47,24.86a167.48,167.48,0,0,1-9.34,19.72,54.25,54.25,0,0,0-4.38,10.37,69.19,69.19,0,0,1-4.62,10.8,90.3,90.3,0,0,0-9.56,31.76,61.83,61.83,0,0,0,1.2,21.23,25.9,25.9,0,0,0,9.52,14.86,11.94,11.94,0,0,0,9.48,2.42c1.11-.17,2.21-.36,3.32-.49,1.35-.16,1.67.12,1.5,1.38-1,7.61-5.45,12-14.75,11.59-4.41-.19-7.67-2.46-9.91-6.25-1.14-1.93-2.33-3.83-3.5-5.73-.21-.34-.45-.73-.88-.72-.62,0-.7.58-.84,1a11.58,11.58,0,0,0,.55,8.65,17.88,17.88,0,0,0,5.45,6.59,65.09,65.09,0,0,0,14.62,8.19c6.53,2.83,13.15,5.45,19.71,8.21a94.41,94.41,0,0,1,10.29,5.16c6.87,3.94,9.9,10.16,10.69,17.73.12,1.11,0,2.24.07,3.36.14,5-2.16,8.74-5.94,11.73s-8.27,4.48-12.85,5.7c-5.34,1.43-10.8,2.28-16.21,3.37a70.13,70.13,0,0,0-12.69,3.57c-.57.23-1.13.62-1.82.38-.42-.62.06-1.07.33-1.51a21.62,21.62,0,0,1,7.08-7c3.94-2.46,8.09-4.54,12.13-6.83,2.09-1.18,4.18-2.36,6.23-3.61a10,10,0,0,0,3.21-13.49,18,18,0,0,0-7-6.35c-3.56-2-7.47-3.27-11.17-5a45.29,45.29,0,0,1-12.92-8.59,35.33,35.33,0,0,1-7.83-12.51c-.42-1-.79-2.1-1.26-3.11s-1-1.08-1.79-.23A4.88,4.88,0,0,0,1559,309a45.58,45.58,0,0,0-.3,11c.57,5.16.81,10.35,1.54,15.51,1,6.89,2.55,13.68,3.69,20.54.33,2,.63,4,.88,5.93.2,1.6,0,1.78-1.44,2.21a2.09,2.09,0,0,1-.47.09c-2.24.11-3.11,1.44-3.48,3.52a24,24,0,0,1-2.88,8.1c-.56.93-1,2.39-2.2,2.29s-1.13-1.6-1.47-2.54c-1.08-2.93-2.14-5.86-3.11-8.83a4,4,0,0,0-3-3,11.88,11.88,0,0,1-1.59-.54,1.27,1.27,0,0,1-.86-1.71c.06-.23.12-.46.19-.69a138.63,138.63,0,0,0,4.63-23A104.56,104.56,0,0,0,1548,306C1547.91,305.64,1547.78,305.27,1547.63,304.71Z"/><path class="cls-8" d="M1653.59,288.16a20,20,0,0,1-6.85-.52c-8.36-1.74-16.43-4.22-23.23-9.72-.77-.62-1.68-1.85-2.58-1.39-1.08.55-.44,2-.47,3.1-.12,4.07.18,8.16-.57,12.2a27.81,27.81,0,0,1-2,6.88c-.52,1.11-1.05,1.12-1.61,0-1.1-2.22-2.18-4.46-3.14-6.74-3.66-8.75-9.51-15.82-16.53-22.08-5.25-4.68-10.76-9.08-15.31-14.51-1.6-1.9-3-3.9-4.46-5.94a17.55,17.55,0,0,1-2.88-12.33,45.32,45.32,0,0,1,3.54-12.66,4.29,4.29,0,0,1,3.79-2.8,22.5,22.5,0,0,1,8.8.51c7.38,1.95,14.17,5.15,19.54,10.68A58.28,58.28,0,0,1,1619.89,247c1.52,3,3.18,5.92,4.62,9,4.26,8.92,10.73,16,18.07,22.45,3.13,2.73,6.44,5.26,9.66,7.89A2.84,2.84,0,0,1,1653.59,288.16Z"/><path class="cls-9" d="M1406,332c-.35-.81-1.07-.84-1.64-1a77.6,77.6,0,0,1-9.72-4.07,27.79,27.79,0,0,0-12.52-2.79,10.37,10.37,0,0,1-1.44-.08c-1.15-.17-2.81.46-3.35-.64a7.54,7.54,0,0,1-.24-4.94c.25-1.06,1.08-1.25,2-1.28,3-.08,6.09,0,9.11-.32a11.54,11.54,0,0,1,8.23,2.34,67.57,67.57,0,0,0,13.41,7.4,40.51,40.51,0,0,0,10,2.55,5.17,5.17,0,0,0,4.55-1.44c7.27-6.64,14.16-13.65,21.28-20.45,5.14-4.91,9.95-10.18,15.63-14.53a65.2,65.2,0,0,1,20.16-10.86c.69-.21,1.38-.4,2.08-.58.87-.22,1.41,0,1.34,1-.12,1.75-.23,3.51-.32,5.27-.05,1-.89,1.47-1.54,2-7.32,6.21-14.61,12.45-22,18.58-8.24,6.85-16.57,13.59-24.86,20.38a37.06,37.06,0,0,0-5,4.67A15.72,15.72,0,0,0,1437,335c4.75.81,9.57.59,14.35.9,1.92.12,3.83.26,5.72.55.76.12,1.45.31,1.73,1.07,1.39,3.67,4.1,6.22,7.11,8.53.17.13.23.39.43.77a17.77,17.77,0,0,1-9.43,2.2,2.28,2.28,0,0,1-1.44-.78c-.61-.52-1.2-1.06-1.78-1.61a13,13,0,0,0-7.83-3.73,117.12,117.12,0,0,0-17-.72,3.22,3.22,0,0,0-2.18.78,8.3,8.3,0,0,1-7.17,1.87,2.74,2.74,0,0,0-2.77.83,79.33,79.33,0,0,1-10.9,9.37,10.92,10.92,0,0,0-4.35,6.65c-.24,1.09-.62,2.15-.84,3.25-.88,4.4-3.87,6.35-8.14,7-.73-2.43-.48-5-1-7.36-.1-.47-.09-1-.15-1.43-.57-4.13-.58-4.14,2.45-7,3.31-3.15,7-5.79,10.56-8.68a41.33,41.33,0,0,0,7.81-7.94c-.27-1-1-.66-1.4-.57-5.3,1.07-10.67.78-16,.9-2.08,0-4.15.24-6.22.42a11.4,11.4,0,0,0-5.27,2.15c-1.47,1-2.89,2-4.35,3a10.86,10.86,0,0,1-4.89,1.86,2.75,2.75,0,0,1-2.92-3.86,57.85,57.85,0,0,0,3.08-7.79c.29-1,1-1.08,1.83-1.19,3.41-.46,6.85-.66,10.28-.8,5.59-.22,11.18-.44,16.75-1A10.56,10.56,0,0,0,1406,332Z"/><path class="cls-9" d="M1676.63,333.68a20.64,20.64,0,0,0-4-3.61q-12.7-9.84-25.43-19.66l-14.42-11.15a39,39,0,0,1-6.17-5.67c-2.94-3.5-3.77-6.91-2.86-11.6.14,0,.31-.17.41-.13,10.4,4,19.94,9.28,27.75,17.46,7,7.29,14.22,14.27,21.37,21.38a59.59,59.59,0,0,0,7.11,6.06,15.64,15.64,0,0,0,15,2.22,38.32,38.32,0,0,0,8.76-4.41q4-2.64,8-5.35a6.32,6.32,0,0,1,3.8-1.15,59.09,59.09,0,0,0,10.3-.28c1-.16,1.24.27,1.31,1.17.28,3.34-.55,4.66-3.79,5.7a14.93,14.93,0,0,1-4.48.76c-5.62,0-10.37,2.33-14.71,5.68a7.68,7.68,0,0,0-2.48,2.37,21.68,21.68,0,0,0,5.69,1c6,.64,12,.46,18,.93a8,8,0,0,0,1.2,0c2.46,0,4.35.51,5.42,3.18.82,2,2.45,3.73,3.57,5.66,2,3.5,1.65,4.28-2.22,5.34-1.23.34-2.18.22-2.87-1-.36-.62-.82-1.18-1.18-1.8-1.66-2.86-4.27-4.19-7.41-4.73a29.11,29.11,0,0,0-7.65-.22,34.92,34.92,0,0,1-12.6-1,25.19,25.19,0,0,0-8.41-1.11,4.47,4.47,0,0,0,1.76,2q8.78,7.45,17.6,14.85c.55.46,1.08,1,1.64,1.41s.83.88.4,1.62c-1.3,2.23-1.3,4.75-1.42,7.22a15.87,15.87,0,0,1-.57,4.26c-.56,1.68-1.31,2.2-3.06,1.83-2.94-.62-4.66-2.61-5.64-5.34a17.68,17.68,0,0,1-.74-5.21,9.54,9.54,0,0,0-3-6.58c-4-4-7.8-8-12.47-11.2-.46-.31-1-.56-1.42-.9-1.58-1.19-3.1-1.51-4.6.14-.77.84-1.57.74-2.54.13a21.33,21.33,0,0,0-10.73-3c-4.57-.2-9.1.38-13.65.59a3.23,3.23,0,0,0-2.21,1.27,13.4,13.4,0,0,1-4.19,3.16c-3.55,1.51-6.31.49-8-2.88-.47-.94-.59-1.62.57-2.08a9.13,9.13,0,0,0,5-4.21,3.57,3.57,0,0,1,3.69-1.74c2.71.17,5.43.28,8.14.45,5,.32,10.06.59,15-.7A10.84,10.84,0,0,0,1676.63,333.68Z"/><path class="cls-9" d="M1514.27,56.52a13.08,13.08,0,0,1,11.12-11.93,2.4,2.4,0,0,1,2.19.62A51,51,0,0,0,1545.8,56a15,15,0,0,1,5.5,3.75,50,50,0,0,1,7.79,9.69,25,25,0,0,1,2.94,7.31,8.68,8.68,0,0,1-5.6,10.35c-1.71.66-3.39,1.41-5.1,2.09a7.29,7.29,0,0,1-6.86-.55A40.49,40.49,0,0,1,1534,79.87c.95-.48,1.52.13,2.13.4,2.63,1.17,5.18,2.51,7.9,3.45a16.6,16.6,0,0,0,10.57.29c3.6-1.08,7-6.12,4-10.66a33.36,33.36,0,0,0-13.47-11.93,15.49,15.49,0,0,0-6.75-1.45c-2.16,0-4.32,0-6.47.17a4.86,4.86,0,0,1-4-1.21,9.38,9.38,0,0,0-7-2.42C1518.74,56.55,1516.52,56.52,1514.27,56.52Z"/><path class="cls-8" d="M1598.63,179.91a1.64,1.64,0,0,1,1.09,1.2,68,68,0,0,1,5.15,18.14,18.2,18.2,0,0,1-1.68,9.55,1.87,1.87,0,0,1-1.29,1.3c-3,.68-5.81.63-8.24-1.76a16.57,16.57,0,0,1-4.36-8.37,5.16,5.16,0,0,1,.54-3.24,139.34,139.34,0,0,1,6.66-13C1597.21,182.44,1597.94,181.15,1598.63,179.91Z"/><path class="cls-8" d="M1553.12,81.32a8.55,8.55,0,0,1-3.11-1.84c-4.88-4.2-10.77-5.75-16.94-6.62a56.89,56.89,0,0,0-21.15,1.47,76,76,0,0,1-10.8,2.16c-5.55.49-10.86-.18-15.42-3.79a20.33,20.33,0,0,1-4.21-4.88,2.62,2.62,0,0,1,.92-3.5.88.88,0,0,1,1.1.08,16.41,16.41,0,0,1,1.68,1.36c3.62,3.61,8.19,4.89,13.08,5.18a86,86,0,0,0,16.74-.71,59.94,59.94,0,0,1,15.53-.61c6.84.85,13.53,2.54,19.12,7A10.44,10.44,0,0,1,1553.12,81.32Z"/><path class="cls-10" d="M1543.56,51.72c-4.24-1.53-8.22-3.18-11-6.77a12.26,12.26,0,0,1-1.25-2c-.47-.92-.06-1.34.9-1.31a10.14,10.14,0,0,1,2.14.16,12.44,12.44,0,0,1,9.3,9A3.65,3.65,0,0,1,1543.56,51.72Z"/><path class="cls-10" d="M1378.63,308.11a19.32,19.32,0,0,1,6.88.83,4.06,4.06,0,0,1,2.65,5.09l0,.06a1,1,0,0,1-1.06.74h-4.53a1.8,1.8,0,0,1-1.68-1.12A29.36,29.36,0,0,1,1378.63,308.11Z"/><path class="cls-10" d="M1380.47,371.45a14,14,0,0,1,.54-6.15,4.18,4.18,0,0,1,4.28-3.11,2.24,2.24,0,0,1,2.09,1.31,3.82,3.82,0,0,1-1.77,5.11l-.23.1A26.76,26.76,0,0,0,1380.47,371.45Z"/><path class="cls-11" d="M1745,340.41a62.32,62.32,0,0,1-7.09.67c-.72.07-.93-.47-1-1.07-.18-1.34-.34-2.69-.53-4-.1-.69.1-1,.86-1.06C1741.12,334.71,1743.65,336.43,1745,340.41Z"/><path class="cls-12" d="M1466.5,335.82a5.89,5.89,0,0,1,5.7,3.43c.36.88.19,1.33-.78,1.51-1.41.25-2.8.57-4.2.86a2.22,2.22,0,0,1-2.6-1.16,4,4,0,0,1-.68-3.61C1464.41,335.73,1465.67,335.93,1466.5,335.82Z"/><path class="cls-12" d="M1369.6,335.93c-.14,1-.2,1.73-.35,2.42a2.46,2.46,0,0,1-1.52,2c-.67.25-1.33.54-2,.77l-4.87,1.69c-.14-1.82.61-3.25,1-4.74a1.08,1.08,0,0,1,.82-.79A26.39,26.39,0,0,1,1369.6,335.93Z"/><path class="cls-11" d="M1719.53,361.5a10.58,10.58,0,0,1,4.32,7.22c.17,1.25-.21,1.61-1.25,1.13-1.66-.78-3.27-1.69-4.9-2.54-.7-.37-.78-.89-.53-1.61A9.1,9.1,0,0,1,1719.53,361.5Z"/><path class="cls-13" d="M1727.08,309.58c-1.56,2.9-3.38,5-6.11,6.22-.76.34-1.5.58-2.17-.19s-.25-1.62.29-2.33A9.19,9.19,0,0,1,1727.08,309.58Z"/><path class="cls-14" d="M1634.53,334.46a14.28,14.28,0,0,1,5.85-.87c1.64.12,1.85.38,2,2.06.2,2.79-.25,3.13-2.87,2.16A13.33,13.33,0,0,1,1634.53,334.46Z"/><path class="cls-15" d="M1552.29,46.3a2.13,2.13,0,0,0,2.06,1.91,11.77,11.77,0,0,0,4.29-.19c.92-.21,1.85-.35,3-.55-3.11,3.22-6.62,3.16-9.93,0C1551.7,47,1551.74,46.51,1552.29,46.3Z"/><path class="cls-16" d="M1552.29,46.3l-.64,1.18c-1.53-1.23-1.53-1.23.34-2.88A2.08,2.08,0,0,1,1552.29,46.3Z"/><path class="cls-1" d="M65.11,259.85A13.33,13.33,0,0,0,66.86,267a14.34,14.34,0,0,0,4.72,4.66,28.62,28.62,0,0,0,6.88,3q3.91,1.17,8.16,2.2,5.7,1.39,11.23,3.08a35.55,35.55,0,0,1,9.84,4.66,22.72,22.72,0,0,1,7,7.74q2.67,4.77,2.67,12.25a28.09,28.09,0,0,1-2.89,13.17,25.06,25.06,0,0,1-8,9.1,36,36,0,0,1-12.07,5.28,63.54,63.54,0,0,1-15.26,1.72,66,66,0,0,1-7.81-.48q-4-.48-7.63-1.28a57.7,57.7,0,0,1-6.57-1.83,24.91,24.91,0,0,1-4.62-2V317.29a45.47,45.47,0,0,0,5.94,2.42,66.34,66.34,0,0,0,6.82,1.87q3.52.77,7.12,1.21a55.77,55.77,0,0,0,6.75.44,52.68,52.68,0,0,0,9.79-.88,25.5,25.5,0,0,0,8.18-2.93,15.14,15.14,0,0,0,5.58-5.61,17.61,17.61,0,0,0,2.05-8.91,13.44,13.44,0,0,0-1.8-7.26,14.83,14.83,0,0,0-4.81-4.73,28.59,28.59,0,0,0-6.93-3q-3.93-1.17-8.25-2.2-5.72-1.32-11.19-3A35.16,35.16,0,0,1,62,280.09a22.24,22.24,0,0,1-6.9-7.56q-2.61-4.62-2.6-11.81a28.13,28.13,0,0,1,2.74-12.87,25.35,25.35,0,0,1,7.41-8.91,31.82,31.82,0,0,1,10.76-5.21,48.46,48.46,0,0,1,13-1.69,67.63,67.63,0,0,1,14.64,1.5,70,70,0,0,1,12.43,3.92v11.08a85.36,85.36,0,0,0-12.58-4.18A60,60,0,0,0,87,242.68a34.46,34.46,0,0,0-9.68,1.21,19,19,0,0,0-6.82,3.45,13.77,13.77,0,0,0-4,5.43A18.35,18.35,0,0,0,65.11,259.85Z"/><path class="cls-1" d="M173.75,332.18a23.72,23.72,0,0,1-4.48,1.1,48.67,48.67,0,0,1-7.19.59,30,30,0,0,1-9.54-1.36,17.91,17.91,0,0,1-6.71-3.89,15.77,15.77,0,0,1-4-6.13,23,23,0,0,1-1.32-8V272.1H127.1v-9.76h13.42V243.27h11.37v19.07h20.83v9.76H151.89v40.64a13.82,13.82,0,0,0,.7,4.47,9.07,9.07,0,0,0,2.2,3.56,10.22,10.22,0,0,0,3.85,2.35,16.76,16.76,0,0,0,5.65.84,33.48,33.48,0,0,0,4.81-.37,38,38,0,0,0,4.66-1Z"/><path class="cls-1" d="M229.94,324.33h-.29a22.69,22.69,0,0,1-3.52,3.49,25.5,25.5,0,0,1-4.91,3.08,30.37,30.37,0,0,1-6.09,2.16,29.63,29.63,0,0,1-7,.81,27.48,27.48,0,0,1-9.28-1.5,20.22,20.22,0,0,1-7.26-4.4,19.9,19.9,0,0,1-4.73-7.08,25.09,25.09,0,0,1-1.69-9.46A22.24,22.24,0,0,1,187,302.1a19.74,19.74,0,0,1,5.25-7,23.73,23.73,0,0,1,8.11-4.4,33.63,33.63,0,0,1,10.45-1.54,58,58,0,0,1,10,1,52.32,52.32,0,0,1,8.22,2.2h.29V287.5a31.12,31.12,0,0,0-.37-5.06,13,13,0,0,0-1.25-3.89,14.8,14.8,0,0,0-6.09-5.83q-4.18-2.31-11.3-2.31a47.74,47.74,0,0,0-9.94,1,62.58,62.58,0,0,0-9.28,2.75v-9.54a29.76,29.76,0,0,1,4.14-1.65,48.59,48.59,0,0,1,5-1.32,53.47,53.47,0,0,1,5.58-.84q2.93-.29,5.87-.29,10.56,0,17.28,3.74a22.27,22.27,0,0,1,9.65,9.9,20,20,0,0,1,1.58,5.17,37.4,37.4,0,0,1,.48,6.2V332h-9.54Zm-.59-22.89q-3.14-.88-7.45-1.69a56.09,56.09,0,0,0-9.49-.88q-7.23,0-11.32,3.08T197,311.42a14.42,14.42,0,0,0,1,5.65,10.86,10.86,0,0,0,2.81,4,11.54,11.54,0,0,0,4.24,2.35,17.28,17.28,0,0,0,5.22.77,21,21,0,0,0,6.79-1.06,28.67,28.67,0,0,0,5.59-2.53,30.66,30.66,0,0,0,4.16-2.93q1.72-1.47,2.52-2.27Z"/><path class="cls-1" d="M258.7,298.07a52.34,52.34,0,0,1,1.43-12.87,40.26,40.26,0,0,1,3.78-9.79,27.08,27.08,0,0,1,5.5-7,32,32,0,0,1,6.53-4.58,27.75,27.75,0,0,1,6.86-2.53,30.49,30.49,0,0,1,6.57-.77,26.65,26.65,0,0,1,11.08,2.13,25.76,25.76,0,0,1,8.44,6.24h.22V225.81h11.37V332H311.9l-2.35-7.78h-.29a34.74,34.74,0,0,1-3.08,3.41,21.08,21.08,0,0,1-4.14,3.12,22.5,22.5,0,0,1-5.5,2.24,27.83,27.83,0,0,1-7.23.84,33.46,33.46,0,0,1-11.22-1.94,25.93,25.93,0,0,1-9.79-6.24,31.64,31.64,0,0,1-6.93-11.08A45.73,45.73,0,0,1,258.7,298.07Zm11.88-.15a40.6,40.6,0,0,0,1.36,10.89,24.56,24.56,0,0,0,3.92,8.29,17.37,17.37,0,0,0,6.31,5.25,19.24,19.24,0,0,0,8.58,1.83,21.05,21.05,0,0,0,6.53-1,23.12,23.12,0,0,0,9.21-5.54,22,22,0,0,0,2.6-3V278.19a27.82,27.82,0,0,0-8.14-5.76,23.25,23.25,0,0,0-10-2.16,21.05,21.05,0,0,0-6.79,1.21,16.65,16.65,0,0,0-6.6,4.36,24.19,24.19,0,0,0-5,8.47,39.54,39.54,0,0,0-2,13.61Z"/><path class="cls-1" d="M380,332.18a23.72,23.72,0,0,1-4.48,1.1,48.67,48.67,0,0,1-7.19.59,30,30,0,0,1-9.54-1.36,17.91,17.91,0,0,1-6.71-3.89,15.77,15.77,0,0,1-4-6.13,23,23,0,0,1-1.32-8V272.1H333.31v-9.76h13.42V243.27H358.1v19.07h20.83v9.76H358.1v40.64a13.82,13.82,0,0,0,.7,4.47,9.07,9.07,0,0,0,2.2,3.56,10.22,10.22,0,0,0,3.85,2.35,16.76,16.76,0,0,0,5.65.84,33.48,33.48,0,0,0,4.81-.37,38,38,0,0,0,4.66-1Z"/><path class="cls-1" d="M45.67,512.31l40-98.15H96l40,98.15H123l-11.72-29.56h-41L58.51,512.31Zm45-82.89q-6.57,18.32-12.54,33.3L74.5,472H107l-3.72-9.24q-6-15.25-12.3-33.31Z"/><path class="cls-1" d="M187.76,451.87h-.88a42.7,42.7,0,0,0-7.92.73,33.39,33.39,0,0,0-7.3,2.24,27.7,27.7,0,0,0-6.16,3.7,19.86,19.86,0,0,0-4.58,5.21v48.56H149.54V442.62h8.8l2.2,11.08h.22a25.92,25.92,0,0,1,4.14-5.06,28.32,28.32,0,0,1,12.29-6.86,29.43,29.43,0,0,1,7.7-1h1.5a7.48,7.48,0,0,1,1.36.11Z"/><path class="cls-1" d="M233,504.24a53.43,53.43,0,0,0,10.31-.92,61.78,61.78,0,0,0,9.28-2.6v9.46a37.17,37.17,0,0,1-9.24,2.9,62.3,62.3,0,0,1-11.81,1.06,50.14,50.14,0,0,1-14-1.91,29.12,29.12,0,0,1-11.37-6.16A28.63,28.63,0,0,1,198.55,495a44.93,44.93,0,0,1-2.72-16.54,47,47,0,0,1,2.63-16.54,34.84,34.84,0,0,1,7-11.7,28.64,28.64,0,0,1,10.1-7,31.06,31.06,0,0,1,11.93-2.35,30.41,30.41,0,0,1,10.94,1.94,22.42,22.42,0,0,1,8.82,6.13,29.94,29.94,0,0,1,5.89,10.78,51.26,51.26,0,0,1,2.16,15.85V477q0,.62-.07,2.82h-48.1a28.45,28.45,0,0,0,2,11.33,19.91,19.91,0,0,0,5.5,7.56,21.88,21.88,0,0,0,8.18,4.22A37.27,37.27,0,0,0,233,504.24Zm-6-53.7a17.42,17.42,0,0,0-7.32,1.54,19,19,0,0,0-5.9,4.18,21.18,21.18,0,0,0-4.08,6.2,24.33,24.33,0,0,0-1.93,7.59h35.65a26.37,26.37,0,0,0-1.08-7.67,18.61,18.61,0,0,0-3.16-6.2,14.76,14.76,0,0,0-5.12-4.15,15.77,15.77,0,0,0-7.06-1.48Z"/><path class="cls-1" d="M285.62,452.31h.22a36.71,36.71,0,0,1,4.22-4.51,27.34,27.34,0,0,1,5.17-3.67,26.79,26.79,0,0,1,6.27-2.46,31.42,31.42,0,0,1,16.4.44,18.41,18.41,0,0,1,7.26,4.25A20.38,20.38,0,0,1,330,454a32.92,32.92,0,0,1,1.8,11.63v46.66H320.47v-44.8q0-9-3.48-13t-10.16-4a22,22,0,0,0-11.37,3.26,30.3,30.3,0,0,0-9.46,9v49.52H274.62V442.62h8.8Z"/><path class="cls-1" d="M349.81,478.35a52.34,52.34,0,0,1,1.43-12.87,40.25,40.25,0,0,1,3.78-9.79,27.06,27.06,0,0,1,5.5-7,32,32,0,0,1,6.53-4.58,27.69,27.69,0,0,1,6.86-2.53,30.47,30.47,0,0,1,6.57-.77,26.65,26.65,0,0,1,11.08,2.13,25.76,25.76,0,0,1,8.44,6.24h.22V406.09h11.37V512.31H403l-2.35-7.78h-.29a34.74,34.74,0,0,1-3.08,3.41,21.08,21.08,0,0,1-4.14,3.12,22.5,22.5,0,0,1-5.5,2.24,27.83,27.83,0,0,1-7.23.84,33.46,33.46,0,0,1-11.22-1.94A25.93,25.93,0,0,1,359.4,506a31.63,31.63,0,0,1-6.93-11.08A45.73,45.73,0,0,1,349.81,478.35Zm11.88-.15A40.6,40.6,0,0,0,363,489.09a24.56,24.56,0,0,0,3.92,8.29,17.37,17.37,0,0,0,6.31,5.25,19.24,19.24,0,0,0,8.58,1.83,21.05,21.05,0,0,0,6.53-1A23.12,23.12,0,0,0,397.6,498a22,22,0,0,0,2.6-3V458.47a27.82,27.82,0,0,0-8.14-5.76,23.24,23.24,0,0,0-10-2.16,21.06,21.06,0,0,0-6.79,1.21,16.64,16.64,0,0,0-6.6,4.37,24.17,24.17,0,0,0-5,8.47A39.53,39.53,0,0,0,361.69,478.2Z"/><path class="cls-1" d="M442.46,461.18a8.32,8.32,0,0,0,1.22,4.69,9.21,9.21,0,0,0,3.26,3,21.13,21.13,0,0,0,4.73,1.87q2.69.73,5.56,1.32,3.94.88,7.46,1.94a22.14,22.14,0,0,1,6.49,3.19A15.48,15.48,0,0,1,476,483a21,21,0,0,1,1.83,9.43,20.49,20.49,0,0,1-2,9.35,19,19,0,0,1-5.8,6.82,27,27,0,0,1-9,4.18,43.12,43.12,0,0,1-11.44,1.43,54.57,54.57,0,0,1-6.93-.4,44.65,44.65,0,0,1-5.5-1,37,37,0,0,1-4.07-1.28,26.74,26.74,0,0,1-2.79-1.25v-9.54a60.15,60.15,0,0,0,8.57,2.79,39.82,39.82,0,0,0,9.36,1,33,33,0,0,0,7.27-.73,18.43,18.43,0,0,0,5.58-2.16,10.23,10.23,0,0,0,3.6-3.59,9.8,9.8,0,0,0,1.26-5,9.24,9.24,0,0,0-1.15-4.84,9.64,9.64,0,0,0-3.1-3.15,18.77,18.77,0,0,0-4.5-2q-2.56-.81-5.36-1.47-3.67-.81-7.45-1.91a26.34,26.34,0,0,1-6.88-3.08,14.9,14.9,0,0,1-5-5.39,17.83,17.83,0,0,1-1.91-8.77,21.42,21.42,0,0,1,2-9.54,18.94,18.94,0,0,1,5.35-6.68,23.28,23.28,0,0,1,7.85-4,33.28,33.28,0,0,1,9.46-1.32A49.47,49.47,0,0,1,466,441.9a53.27,53.27,0,0,1,9,2.79v9.68a66.43,66.43,0,0,0-8.7-2.75,41.25,41.25,0,0,0-9-1.14,24.46,24.46,0,0,0-6.73.81,13.07,13.07,0,0,0-4.58,2.24,8.56,8.56,0,0,0-2.61,3.37A10.9,10.9,0,0,0,442.46,461.18Z"/><path class="cls-1" d="M528.14,504.24a53.43,53.43,0,0,0,10.31-.92,61.78,61.78,0,0,0,9.28-2.6v9.46a37.17,37.17,0,0,1-9.24,2.9,62.3,62.3,0,0,1-11.81,1.06,50.14,50.14,0,0,1-14-1.91,29.12,29.12,0,0,1-11.37-6.16A28.63,28.63,0,0,1,493.74,495,44.93,44.93,0,0,1,491,478.42a47,47,0,0,1,2.63-16.54,34.84,34.84,0,0,1,7-11.7,28.64,28.64,0,0,1,10.1-7,31.06,31.06,0,0,1,11.93-2.35,30.41,30.41,0,0,1,10.94,1.94,22.42,22.42,0,0,1,8.82,6.13,29.94,29.94,0,0,1,5.89,10.78,51.26,51.26,0,0,1,2.16,15.85V477q0,.62-.07,2.82H502.32a28.45,28.45,0,0,0,2,11.33,19.91,19.91,0,0,0,5.5,7.56,21.88,21.88,0,0,0,8.18,4.22A37.27,37.27,0,0,0,528.14,504.24Zm-6-53.7a17.42,17.42,0,0,0-7.32,1.54,19,19,0,0,0-5.9,4.18,21.18,21.18,0,0,0-4.08,6.2,24.33,24.33,0,0,0-1.93,7.59h35.65a26.37,26.37,0,0,0-1.08-7.67,18.61,18.61,0,0,0-3.16-6.2A14.76,14.76,0,0,0,529.2,452a15.77,15.77,0,0,0-7.06-1.48Z"/><path class="cls-1" d="M602.89,504.24a53.43,53.43,0,0,0,10.31-.92,61.78,61.78,0,0,0,9.28-2.6v9.46a37.17,37.17,0,0,1-9.24,2.9,62.3,62.3,0,0,1-11.81,1.06,50.14,50.14,0,0,1-14-1.91A29.12,29.12,0,0,1,576,506.08,28.63,28.63,0,0,1,568.49,495a44.93,44.93,0,0,1-2.72-16.54,47,47,0,0,1,2.63-16.54,34.84,34.84,0,0,1,7-11.7,28.64,28.64,0,0,1,10.1-7,31.06,31.06,0,0,1,11.93-2.35,30.41,30.41,0,0,1,10.94,1.94,22.42,22.42,0,0,1,8.82,6.13,29.94,29.94,0,0,1,5.89,10.78,51.26,51.26,0,0,1,2.16,15.85V477q0,.62-.07,2.82h-48.1a28.45,28.45,0,0,0,2,11.33,19.91,19.91,0,0,0,5.5,7.56,21.88,21.88,0,0,0,8.18,4.22A37.27,37.27,0,0,0,602.89,504.24Zm-6-53.7a17.42,17.42,0,0,0-7.32,1.54,19,19,0,0,0-5.9,4.18,21.18,21.18,0,0,0-4.08,6.2,24.33,24.33,0,0,0-1.93,7.59h35.65a26.37,26.37,0,0,0-1.08-7.67,18.61,18.61,0,0,0-3.16-6.2A14.76,14.76,0,0,0,604,452a15.77,15.77,0,0,0-7-1.48Z"/><path class="cls-1" d="M683.59,474.24a92,92,0,0,0,1.69,18.19,88.17,88.17,0,0,0,4.47,15.33,69.8,69.8,0,0,0,6.49,12.58,79.75,79.75,0,0,0,7.67,9.94l-6.24,5.87a56.6,56.6,0,0,1-4.77-4.73,64,64,0,0,1-5.54-7.12,104.43,104.43,0,0,1-5.64-9.39,82.74,82.74,0,0,1-5-11.52,91,91,0,0,1-3.6-13.61,88.54,88.54,0,0,1,0-31.14,91.28,91.28,0,0,1,3.6-13.57,82.83,82.83,0,0,1,5-11.52,104.28,104.28,0,0,1,5.64-9.39A64,64,0,0,1,692.9,417a56.6,56.6,0,0,1,4.77-4.73l6.24,5.87a79.82,79.82,0,0,0-7.67,9.94,69.81,69.81,0,0,0-6.49,12.58,88.18,88.18,0,0,0-4.48,15.3A92,92,0,0,0,683.59,474.24Z"/><path class="cls-1" d="M711.24,512.31l40-98.15h10.34l40,98.15h-13l-11.72-29.56h-41l-11.72,29.56Zm45-82.89q-6.57,18.32-12.54,33.3L740.07,472H772.6l-3.72-9.24q-6-15.25-12.3-33.31Z"/><path class="cls-1" d="M815.85,512.31V406.09h11.37V512.31Z"/><path class="cls-1" d="M886.71,512.46a23.72,23.72,0,0,1-4.48,1.1,48.67,48.67,0,0,1-7.19.59,30,30,0,0,1-9.54-1.36,17.91,17.91,0,0,1-6.71-3.89,15.78,15.78,0,0,1-4-6.12,23,23,0,0,1-1.32-8v-42.4H840.06v-9.76h13.42V423.55h11.37v19.07h20.83v9.76H864.85V493a13.82,13.82,0,0,0,.7,4.47,9.06,9.06,0,0,0,2.2,3.56,10.22,10.22,0,0,0,3.85,2.35,16.76,16.76,0,0,0,5.65.84,33.34,33.34,0,0,0,4.81-.37,38,38,0,0,0,4.66-1Z"/><path class="cls-1" d="M959,512.31H947.67V467.49a26.35,26.35,0,0,0-1-7.74,13.68,13.68,0,0,0-2.86-5.25,11.17,11.17,0,0,0-4.48-3,16.89,16.89,0,0,0-5.83-1,19.81,19.81,0,0,0-11.08,3.26,32.93,32.93,0,0,0-9,9v49.52H902.12V442.62h8.8l2.2,9.68h.22a40.21,40.21,0,0,1,4.14-4.51,26.75,26.75,0,0,1,5-3.67,25.11,25.11,0,0,1,6-2.46,27.84,27.84,0,0,1,7.19-.88q7.77,0,12.91,3.74a24.13,24.13,0,0,1,7.92,10.2h.29a37.08,37.08,0,0,1,10.58-10.23,25.73,25.73,0,0,1,13.89-3.7,32.25,32.25,0,0,1,7.79,1,19.7,19.7,0,0,1,7.57,3.78,20.82,20.82,0,0,1,5.73,7.59q2.28,4.84,2.28,12.47v46.66H993.3v-44.8a26.35,26.35,0,0,0-1-7.74,13.68,13.68,0,0,0-2.86-5.25,11.17,11.17,0,0,0-4.48-3,16.89,16.89,0,0,0-5.83-1A20,20,0,0,0,968,453.81a32.69,32.69,0,0,0-9,9Z"/><path class="cls-1" d="M1067.39,504.61h-.29a22.69,22.69,0,0,1-3.52,3.48,25.5,25.5,0,0,1-4.91,3.08,30.37,30.37,0,0,1-6.09,2.16,29.63,29.63,0,0,1-7,.81,27.48,27.48,0,0,1-9.28-1.5,20.22,20.22,0,0,1-7.26-4.4,19.89,19.89,0,0,1-4.73-7.08,25.09,25.09,0,0,1-1.69-9.46,22.25,22.25,0,0,1,1.87-9.32,19.73,19.73,0,0,1,5.25-7,23.72,23.72,0,0,1,8.11-4.4,33.62,33.62,0,0,1,10.45-1.54,58,58,0,0,1,10,1,52.38,52.38,0,0,1,8.22,2.2h.29V467.8a31.11,31.11,0,0,0-.37-5.06,13,13,0,0,0-1.25-3.89,14.8,14.8,0,0,0-6.09-5.83q-4.18-2.31-11.3-2.31a47.74,47.74,0,0,0-9.94,1,62.58,62.58,0,0,0-9.28,2.75V444.9a29.94,29.94,0,0,1,4.14-1.65,48.59,48.59,0,0,1,5-1.32,53.72,53.72,0,0,1,5.58-.84q2.93-.29,5.87-.29,10.56,0,17.28,3.74a22.27,22.27,0,0,1,9.65,9.9,20,20,0,0,1,1.58,5.17,37.39,37.39,0,0,1,.48,6.2v46.51h-9.54Zm-.59-22.89q-3.14-.88-7.45-1.69a56.09,56.09,0,0,0-9.49-.88q-7.23,0-11.32,3.08t-4.09,9.46a14.42,14.42,0,0,0,1,5.65,10.84,10.84,0,0,0,2.81,4,11.56,11.56,0,0,0,4.24,2.35,17.31,17.31,0,0,0,5.22.77,21,21,0,0,0,6.79-1.06,28.73,28.73,0,0,0,5.59-2.53,30.75,30.75,0,0,0,4.16-2.93q1.72-1.47,2.52-2.27Z"/><path class="cls-1" d="M1138.4,451.87h-.88a42.7,42.7,0,0,0-7.92.73,33.39,33.39,0,0,0-7.3,2.24,27.7,27.7,0,0,0-6.16,3.7,19.86,19.86,0,0,0-4.58,5.21v48.56h-11.37V442.62h8.8l2.2,11.08h.22a25.92,25.92,0,0,1,4.14-5.06,28.32,28.32,0,0,1,12.29-6.86,29.43,29.43,0,0,1,7.7-1h1.5a7.48,7.48,0,0,1,1.36.11Z"/><path class="cls-1" d="M1195.62,442.62h14.82l-34,32.06,34,37.63h-14.16l-33.45-37.12h-.15v37.12h-11.37V406.09h11.37v67.64h.15Z"/><path class="cls-1" d="M1238.24,474.24a92.08,92.08,0,0,0-1.69-18.19,88.34,88.34,0,0,0-4.47-15.33,70,70,0,0,0-6.49-12.58,80,80,0,0,0-7.67-9.94l6.24-5.87a56.91,56.91,0,0,1,4.77,4.73,64.14,64.14,0,0,1,5.54,7.12,104.6,104.6,0,0,1,5.64,9.39,83.18,83.18,0,0,1,5,11.52,91.58,91.58,0,0,1,3.6,13.57,88.51,88.51,0,0,1,0,31.14,91.25,91.25,0,0,1-3.6,13.61,83.09,83.09,0,0,1-5,11.52,104.75,104.75,0,0,1-5.64,9.39,64.21,64.21,0,0,1-5.54,7.12,56.9,56.9,0,0,1-4.77,4.73l-6.24-5.87a79.89,79.89,0,0,0,7.67-9.94,70,70,0,0,0,6.49-12.58,88.34,88.34,0,0,0,4.47-15.33A92.06,92.06,0,0,0,1238.24,474.24Z"/></svg>