<svg xmlns="http://www.w3.org/2000/svg" xmlns:xlink="http://www.w3.org/1999/xlink" viewBox="0 0 840.76 217.73"><defs><style>.cls-1,.cls-10,.cls-11,.cls-12,.cls-13,.cls-14,.cls-15,.cls-17,.cls-24,.cls-3,.cls-4,.cls-6,.cls-8{fill:none;}.cls-18,.cls-2,.cls-5{fill:#fff;}.cls-15,.cls-16,.cls-2{fill-rule:evenodd;}.cls-14,.cls-24,.cls-3,.cls-4,.cls-6,.cls-8{stroke:#fff;}.cls-4{stroke-miterlimit:10;}.cls-10,.cls-11,.cls-12,.cls-13,.cls-14,.cls-17,.cls-6,.cls-8{stroke-miterlimit:2.61;}.cls-7{clip-path:url(#clip-path);}.cls-17,.cls-8{stroke-width:0.22px;}.cls-16,.cls-9{fill:#1d1d1b;}.cls-10,.cls-11,.cls-12,.cls-13,.cls-17{stroke:#1d1d1b;}.cls-10{stroke-width:0.63px;}.cls-11{stroke-width:0.56px;}.cls-12{stroke-width:0.52px;}.cls-13{stroke-width:0.57px;}.cls-14{stroke-width:0.68px;}.cls-18{font-size:38.36px;font-family:FranklinGothic-Heavy, Franklin Gothic Heavy;}.cls-19{letter-spacing:0.76em;}.cls-20{letter-spacing:0.75em;}.cls-21{clip-path:url(#clip-path-2);}.cls-22{letter-spacing:0.75em;}.cls-23{letter-spacing:0.75em;}.cls-24{stroke-width:1.93px;}</style><clipPath id="clip-path" transform="translate(-0.5 0)"><rect class="cls-1" width="841.76" height="218.23"/></clipPath><clipPath id="clip-path-2" transform="translate(-0.5 0)"><rect class="cls-1" x="0.5" y="145.57" width="840.76" height="72.16"/></clipPath></defs><title>Element 1</title><g id="Ebene_2" data-name="Ebene 2"><g id="Ebene_1-2" data-name="Ebene 1"><polygon class="cls-2" points="559.2 3.24 566.28 6.71 565.17 9.64 558.1 6.49 559.2 3.24"/><polygon class="cls-3" points="559.2 3.24 566.28 6.71 565.17 9.64 558.1 6.49 559.2 3.24"/><polygon class="cls-2" points="580.42 12.69 587.5 15.71 586.4 18.64 579.33 15.49 580.42 12.69"/><polygon class="cls-4" points="580.42 12.69 587.5 15.71 586.4 18.64 579.33 15.49 580.42 12.69"/><polygon class="cls-5" points="572.07 52.56 587.62 59.4 586.49 62.06 571.03 55.34 572.07 52.56"/><polyline class="cls-6" points="572.07 52.56 587.62 59.4 586.49 62.06 571.03 55.34 572.07 52.56"/><polygon class="cls-2" points="538.85 38.3 544.51 40.64 543.24 43.35 537.58 41.09 538.85 38.3"/><polygon class="cls-4" points="538.85 38.3 544.51 40.64 543.24 43.35 537.58 41.09 538.85 38.3"/><polygon class="cls-5" points="549.02 42.59 564.71 49.39 563.58 52.1 547.82 45.3 549.02 42.59"/><polyline class="cls-6" points="549.02 42.59 564.71 49.39 563.58 52.1 547.82 45.3 549.02 42.59"/><g class="cls-7"><path class="cls-5" d="M612.78,29.71c-3.66-1.53-59.45-24.93-59.47-25l-14,33.83,59.1,25.33m0,0,4.93-11.57" transform="translate(-0.5 0)"/><path class="cls-6" d="M612.78,29.71c-3.66-1.53-59.45-24.93-59.47-25l-14,33.83,59.1,25.33m0,0,4.93-11.57" transform="translate(-0.5 0)"/><polyline class="cls-5" points="539.56 38.71 544.51 40.55 543.24 43.35 537.73 41.24 538.88 38.13"/><polyline class="cls-6" points="539.56 38.71 544.51 40.55 543.24 43.35 537.73 41.24 538.88 38.13"/><path class="cls-2" d="M554.29,4.13l59.16,24.8a.43.43,0,0,1,.17.58L599.26,63.39a.43.43,0,0,1-.53.28l-59.16-24.8a.43.43,0,0,1-.17-.58L553.76,4.41a.43.43,0,0,1,.53-.28" transform="translate(-0.5 0)"/><path class="cls-8" d="M554.29,4.13l59.16,24.8a.43.43,0,0,1,.17.58L599.26,63.39a.43.43,0,0,1-.53.28l-59.16-24.8a.43.43,0,0,1-.17-.58L553.76,4.41A.43.43,0,0,1,554.29,4.13Z" transform="translate(-0.5 0)"/><polygon class="cls-2" points="554.41 1.61 560.3 4.09 559.22 6.62 553.28 4.17 554.41 1.61"/><polygon class="cls-4" points="554.41 1.61 560.3 4.09 559.22 6.62 553.28 4.17 554.41 1.61"/><polygon class="cls-5" points="553.89 1.6 559.96 3.93 559.08 6.09 552.95 4.22 553.89 1.6"/><polygon class="cls-6" points="553.89 1.6 559.96 3.93 559.08 6.09 552.95 4.22 553.89 1.6"/><polygon class="cls-2" points="588.07 15.99 603.08 22.24 602.08 24.55 587.09 18.4 588.07 15.99"/><polygon class="cls-4" points="588.07 15.99 603.08 22.24 602.08 24.55 587.09 18.4 588.07 15.99"/><polygon class="cls-5" points="588.07 15.99 603.08 22.24 602.08 24.55 587.09 18.4 588.07 15.99"/><polyline class="cls-8" points="588.07 15.99 603.08 22.24 602.08 24.55 587.09 18.4 588.07 15.99"/><polygon class="cls-2" points="608.07 24.43 614.16 27.06 613.19 29.25 607.09 26.61 608.07 24.43"/><polygon class="cls-4" points="608.07 24.43 614.16 27.06 613.19 29.25 607.09 26.61 608.07 24.43"/><polygon class="cls-5" points="608.07 24.43 614.16 27.06 613.19 29.25 607.09 26.61 608.07 24.43"/><polyline class="cls-8" points="608.07 24.43 614.16 27.06 613.19 29.25 607.09 26.61 608.07 24.43"/><polygon class="cls-2" points="543.94 40.8 550.03 43.57 549.06 46.35 542.77 43.55 543.94 40.8"/><polygon class="cls-3" points="543.94 40.8 550.03 43.57 549.06 46.35 542.77 43.55 543.94 40.8"/><polygon class="cls-5" points="592.38 61.51 598.48 64.09 597.51 66.69 591.33 63.87 592.38 61.51"/><polyline class="cls-6" points="592.38 61.51 598.48 64.09 597.51 66.69 591.33 63.87 592.38 61.51"/><path class="cls-5" d="M604.36,52.06c-2.81,6.39-4.78,11.64-4.78,11.64L537.06,37.9,552.27,4.22s58.19,23.57,62,25.11" transform="translate(-0.5 0)"/><path class="cls-8" d="M604.36,52.06c-2.81,6.39-4.78,11.64-4.78,11.64L537.06,37.9,552.27,4.22s58.19,23.57,62,25.11" transform="translate(-0.5 0)"/><path class="cls-9" d="M562.71,8.84l-.22.19m1.39.15-1.05.93M565,9.57l-1.94,1.72m3-1.31-2.71,2.39m3.83-2-3.09,2.74m4.22-2.36-3.25,2.88m4.35-2.48-3.54,3.14m4.66-2.75-4.08,3.62m5.2-3.23-4.47,4m5.53-3.52-4.81,4.26m5.91-3.85-5.15,4.56m6.2-4.11-5.34,4.72m6.38-4.28-5.3,4.69M577,14l-4.71,4.17m5.83-3.78-4.25,3.76m5.35-3.36-3.83,3.39m5.91-2.35-.22.2m-3.64,3.22-3.19,2.83m7.94-5.65-7.6,6.73m8.66-6.29-7.88,7m9-6.6-8.1,7.17m9.26-6.82L577.21,25m9.51-7L578,25.71m9.89-7.38-9.33,8.26m10.37-7.8-9.85,8.72m10.85-8.23-10.09,8.93M591,19.7l-9.92,8.79m11.07-8.43-9,8m10.21-7.66-8,7.11m9.1-6.68-7.53,6.67m8.57-6.21L587.82,28m8.68-6.3-7.92,7m9-6.6-8.2,7.26m9.3-6.86-8.26,7.31m9.43-7-8.22,7.28m0,0,8.22-7.28m1.24.43-8,7.11m9.13-6.7-7.75,6.86m8.76-6.38-7.29,6.46m8.39-6.05-6.79,6m8-5.73-6.15,5.45m7.3-5.09-5.09,4.5m6.21-4.12-4.27,3.78m5.31-3.33-3.77,3.34m4.84-2.91-3.3,2.92M611,26.87l-2.66,2.36m3.72-1.92-1.73,1.53" transform="translate(-0.5 0)"/><path class="cls-10" d="M562.71,8.84l-.22.19m1.39.15-1.05.93M565,9.57l-1.94,1.72m3-1.31-2.71,2.39m3.83-2-3.09,2.74m4.22-2.36-3.25,2.88m4.35-2.48-3.54,3.14m4.66-2.75-4.08,3.62m5.2-3.23-4.47,4m5.53-3.52-4.81,4.26m5.91-3.85-5.15,4.56m6.2-4.11-5.34,4.72m6.38-4.28-5.3,4.69M577,14l-4.71,4.17m5.83-3.78-4.25,3.76m5.35-3.36-3.83,3.39m5.91-2.35-.22.2m-3.64,3.22-3.19,2.83m7.94-5.65-7.6,6.73m8.66-6.29-7.88,7m9-6.6-8.1,7.17m9.26-6.82L577.21,25m9.51-7L578,25.71m9.89-7.38-9.33,8.26m10.37-7.8-9.85,8.72m10.85-8.23-10.09,8.93M591,19.7l-9.92,8.79m11.07-8.43-9,8m10.21-7.66-8,7.11m9.1-6.68-7.53,6.67m8.57-6.21L587.82,28m8.68-6.3-7.92,7m9-6.6-8.2,7.26m9.3-6.86-8.26,7.31m9.43-7-8.22,7.28m0,0,8.22-7.28m1.24.43-8,7.11m9.13-6.7-7.75,6.86m8.76-6.38-7.29,6.46m8.39-6.05-6.79,6m8-5.73-6.15,5.45m7.3-5.09-5.09,4.5m6.21-4.12-4.27,3.78m5.31-3.33-3.77,3.34m4.84-2.91-3.3,2.92M611,26.87l-2.66,2.36m3.72-1.92-1.73,1.53" transform="translate(-0.5 0)"/><path class="cls-9" d="M549.7,40.43l-1.57,1.29M551.64,40l-2.48,2.05m3.94-2-2.93,2.43m4.64-2.62-3.6,3m6-3.77-5,4.11m6.59-4.23-5.55,4.59m6.43-4.1-5.44,4.5m6.14-3.86-5.12,4.23m5.71-3.5-4.73,3.91m4.83-2.77-3.8,3.14m3.86-2-2.88,2.38m3.19-1.42-2.22,1.83M561.9,45l-1.52,1.26m1.83-.29-.82.68" transform="translate(-0.5 0)"/><path class="cls-11" d="M549.7,40.43l-1.57,1.29M551.64,40l-2.48,2.05m3.94-2-2.93,2.43m4.64-2.62-3.6,3m6-3.77-5,4.11m6.59-4.23-5.55,4.59m6.43-4.1-5.44,4.5m6.14-3.86-5.12,4.23m5.71-3.5-4.73,3.91m4.83-2.77-3.8,3.14m3.86-2-2.88,2.38m3.19-1.42-2.22,1.83M561.9,45l-1.52,1.26m1.83-.29-.82.68" transform="translate(-0.5 0)"/><path class="cls-9" d="M568.37,36.68l-3.2,2.5m4.29-2.2L565,40.47m4.92-2.69-5.07,4m5.49-3.14L564.68,43m6.15-3.65-6.39,5m7-4.29L564,45.89m8.24-5.29-8.89,6.95m11.68-8L564.3,47.95m11.56-7.88-10.5,8.22m10.87-7.35-9.73,7.61m9.69-6.43-8.51,6.66m8.57-5.55-7.54,5.9m7.8-4.95-6.9,5.4m6.88-4.23-1.89,1.48m-3.87,3-.25.2" transform="translate(-0.5 0)"/><path class="cls-12" d="M568.37,36.68l-3.2,2.5m4.29-2.2L565,40.47m4.92-2.69-5.07,4m5.49-3.14L564.68,43m6.15-3.65-6.39,5m7-4.29L564,45.89m8.24-5.29-8.89,6.95m11.68-8L564.3,47.95m11.56-7.88-10.5,8.22m10.87-7.35-9.73,7.61m9.69-6.43-8.51,6.66m8.57-5.55-7.54,5.9m7.8-4.95-6.9,5.4m6.88-4.23-1.89,1.48m-3.87,3-.25.2" transform="translate(-0.5 0)"/><path class="cls-9" d="M579.65,44.24l-1.89,1.61m-4.55,3.87-1.67,1.42m8.61-6.07-2.88,2.45m-1.14,1-3.6,3.07m8.16-5.69-7.15,6.08m7.91-5.47-6.89,5.86m7.92-5.49-6.9,5.87M583.74,47l-7.11,6.06M585,47.19l-7.42,6.31m8.68-6.13-7.7,6.55m8.82-6.25-7.81,6.65m8.72-6.17-7.7,6.56m8.42-5.91-7.39,6.29m8-5.53-7,5.92m7.51-5.13-6.51,5.54m7.14-4.82-6.13,5.22m6.83-4.55-5.81,4.94m6.52-4.29-5.5,4.68m6.17-4-5.15,4.39m5.74-3.63-4.75,4M594,54.64l-4.38,3.73m4.83-2.85-4,3.4m4.17-2.29-3.24,2.75m3.16-1.43-2.1,1.79m2.22-.63-1.19,1m1.47,0-.45.38" transform="translate(-0.5 0)"/><path class="cls-13" d="M579.65,44.24l-1.89,1.61m-4.55,3.87-1.67,1.42m8.61-6.07-2.88,2.45m-1.14,1-3.6,3.07m8.16-5.69-7.15,6.08m7.91-5.47-6.89,5.86m7.92-5.49-6.9,5.87M583.74,47l-7.11,6.06M585,47.19l-7.42,6.31m8.68-6.13-7.7,6.55m8.82-6.25-7.81,6.65m8.72-6.17-7.7,6.56m8.42-5.91-7.39,6.29m8-5.53-7,5.92m7.51-5.13-6.51,5.54m7.14-4.82-6.13,5.22m6.83-4.55-5.81,4.94m6.52-4.29-5.5,4.68m6.17-4-5.15,4.39m5.74-3.63-4.75,4M594,54.64l-4.38,3.73m4.83-2.85-4,3.4m4.17-2.29-3.24,2.75m3.16-1.43-2.1,1.79m2.22-.63-1.19,1m1.47,0-.45.38" transform="translate(-0.5 0)"/><path d="M587.94,67.63a9.57,9.57,0,0,0,1.63-1.28c.1-.21,1.44-2.17,1.63-2.38l2.14,1c-.07.14-1,2-1.18,2.34s-1.18,2.06-1.41,2.35a6.88,6.88,0,0,0-.81,1.23,8.14,8.14,0,0,0-.46,1.14l-1.13,7.6a10.24,10.24,0,0,0,.58,2.41l-9.67.23a19.87,19.87,0,0,0-.79-9.29c-.07-.41-.15-.82-.21-1.05a5.63,5.63,0,0,0-.25-1c-.14-.29-.77-1.4-1-1.69s-1.32-2.42-1.48-2.71-1-2.39-1.15-2.65-.59-2.12-.77-2.36a8.66,8.66,0,0,1-.57-1.57c-.09-.29-.57-1.64-.66-1.88s-.35-1.92-.46-2.26L574.58,57c0,.12.2.67.27.84s.36,1.23.41,1.42.26,1.39.31,1.56a11.07,11.07,0,0,0,1.05,1.38,13.84,13.84,0,0,1,.93,1.74,15.94,15.94,0,0,0,.86,1.72l2.21,2.78a4.64,4.64,0,0,0,1.6-.2,1.86,1.86,0,0,0,.38-1,1.79,1.79,0,0,0-.29-.94c-.18-.27-.47-.29-.69-.4a1,1,0,0,1-.37-.8,2.28,2.28,0,0,0-.06-.69,2.07,2.07,0,0,1,.09-.89c.08-.14.2-.31.15-.43a.8.8,0,0,1,0-.53l.17-.28a3.39,3.39,0,0,1,.13-.5,2.55,2.55,0,0,0,.11-.67c0-.19.67-.61.89-.75,0,0,3.08,1.27,3.2,1.27Zm-3.22,28.45c0-.23.28-3.07.19-3.41s-.14-1.41-.18-1.8-.19-2.19-.19-2.19l-.23.06s0,.91,0,1.09.13.6.17,1,.25,3.31.26,3.72.09,2,.13,2.45.19,1.28.18,1.56-.07,1.17-.07,1.53,0,1.9,0,2.29.16,1.65.2,1.94a15.93,15.93,0,0,1,.18,1.68c0,.39-.11,1.17-.17,1.82s-.15,2.18-.16,2.62a16.62,16.62,0,0,0,.14,2.09c.08.52.08,1.29.12,1.6s.12,2.6.11,2.89a4.27,4.27,0,0,1,0,1,15.34,15.34,0,0,0-.09,2.26l-1.82.44c0-.31.11-2,.12-2.45a4.62,4.62,0,0,0,0-1.14c-.09-.44-.3-1.41-.42-1.75s-.78-3.42-.94-3.94-.45-5.31-.42-5.7.06-3.46,0-3.85-.79-3.19-.92-3.5-1.09-3.45-1.31-4.13a41.31,41.31,0,0,1-1-5.13c-.05-.65,0-3.36,0-4.25a26.05,26.05,0,0,1,.42-2.69l9.62-.26c.11.42.3.24.36.43.13.39.7,2.17.78,2.72s.22,2.08.24,2.45-.18,5.25-.23,5.67-.82,5.13-.88,5.62-.11,1.09-.12,1.35a13,13,0,0,0,0,1.38c0,.34,0,1.45,0,1.87s0,1.27,0,1.66a16.11,16.11,0,0,1,.14,2.44c-.06.78-.08,1.92-.18,2.42s-.29,1.66-.39,2.2-.6,3.55-.68,4.07a6.2,6.2,0,0,0-.19,1.42,7.37,7.37,0,0,1,0,1.17,5.17,5.17,0,0,0,.13,1.7l-2.36-.24s-.48-22.54-.64-24.2" transform="translate(-0.5 0)"/><path class="cls-14" d="M587.94,67.63a9.57,9.57,0,0,0,1.63-1.28c.1-.21,1.44-2.17,1.63-2.38l2.14,1c-.07.14-1,2-1.18,2.34s-1.18,2.06-1.41,2.35a6.88,6.88,0,0,0-.81,1.23,8.14,8.14,0,0,0-.46,1.14l-1.13,7.6a10.24,10.24,0,0,0,.58,2.41l-9.67.23a19.87,19.87,0,0,0-.79-9.29c-.07-.41-.15-.82-.21-1.05a5.63,5.63,0,0,0-.25-1c-.14-.29-.77-1.4-1-1.69s-1.32-2.42-1.48-2.71-1-2.39-1.15-2.65-.59-2.12-.77-2.36a8.66,8.66,0,0,1-.57-1.57c-.09-.29-.57-1.64-.66-1.88s-.35-1.92-.46-2.26L574.58,57c0,.12.2.67.27.84s.36,1.23.41,1.42.26,1.39.31,1.56a11.07,11.07,0,0,0,1.05,1.38,13.84,13.84,0,0,1,.93,1.74,15.94,15.94,0,0,0,.86,1.72l2.21,2.78a4.64,4.64,0,0,0,1.6-.2,1.86,1.86,0,0,0,.38-1,1.79,1.79,0,0,0-.29-.94c-.18-.27-.47-.29-.69-.4a1,1,0,0,1-.37-.8,2.28,2.28,0,0,0-.06-.69,2.07,2.07,0,0,1,.09-.89c.08-.14.2-.31.15-.43a.8.8,0,0,1,0-.53l.17-.28a3.39,3.39,0,0,1,.13-.5,2.55,2.55,0,0,0,.11-.67c0-.19.67-.61.89-.75,0,0,3.08,1.27,3.2,1.27Zm-3.22,28.45c0-.23.28-3.07.19-3.41s-.14-1.41-.18-1.8-.19-2.19-.19-2.19l-.23.06s0,.91,0,1.09.13.6.17,1,.25,3.31.26,3.72.09,2,.13,2.45.19,1.28.18,1.56-.07,1.17-.07,1.53,0,1.9,0,2.29.16,1.65.2,1.94a15.93,15.93,0,0,1,.18,1.68c0,.39-.11,1.17-.17,1.82s-.15,2.18-.16,2.62a16.62,16.62,0,0,0,.14,2.09c.08.52.08,1.29.12,1.6s.12,2.6.11,2.89a4.27,4.27,0,0,1,0,1,15.34,15.34,0,0,0-.09,2.26l-1.82.44c0-.31.11-2,.12-2.45a4.62,4.62,0,0,0,0-1.14c-.09-.44-.3-1.41-.42-1.75s-.78-3.42-.94-3.94-.45-5.31-.42-5.7.06-3.46,0-3.85-.79-3.19-.92-3.5-1.09-3.45-1.31-4.13a41.31,41.31,0,0,1-1-5.13c-.05-.65,0-3.36,0-4.25a26.05,26.05,0,0,1,.42-2.69l9.62-.26c.11.42.3.24.36.43.13.39.7,2.17.78,2.72s.22,2.08.24,2.45-.18,5.25-.23,5.67-.82,5.13-.88,5.62-.11,1.09-.12,1.35a13,13,0,0,0,0,1.38c0,.34,0,1.45,0,1.87s0,1.27,0,1.66a16.11,16.11,0,0,1,.14,2.44c-.06.78-.08,1.92-.18,2.42s-.29,1.66-.39,2.2-.6,3.55-.68,4.07a6.2,6.2,0,0,0-.19,1.42,7.37,7.37,0,0,1,0,1.17,5.17,5.17,0,0,0,.13,1.7l-2.36-.24S584.89,97.74,584.72,96.07Z" transform="translate(-0.5 0)"/><path class="cls-2" d="M585.79,61.82c-.1.13-.37.25-.37.37a3.21,3.21,0,0,0,.23.79c.09.21.09.67.23.76s.45-.26.72,0,.32.51.2.72a3.74,3.74,0,0,1-.58.71,2,2,0,0,0-.37.84c0,.18-.13.81-.11,1s.11.69.16.87,0,.36.29.27a1.88,1.88,0,0,1,.75,0l.55-.35s.24-.12.48-.2a.8.8,0,0,0,.42-.32,3.69,3.69,0,0,1,.53-.56A13.64,13.64,0,0,0,590.87,64c-.66-.24-5.08-2.15-5.08-2.15" transform="translate(-0.5 0)"/><path class="cls-14" d="M585.79,61.82c-.1.13-.37.25-.37.37a3.21,3.21,0,0,0,.23.79c.09.21.09.67.23.76s.45-.26.72,0,.32.51.2.72a3.74,3.74,0,0,1-.58.71,2,2,0,0,0-.37.84c0,.18-.13.81-.11,1s.11.69.16.87,0,.36.29.27a1.88,1.88,0,0,1,.75,0l.55-.35s.24-.12.48-.2a.8.8,0,0,0,.42-.32,3.69,3.69,0,0,1,.53-.56A13.64,13.64,0,0,0,590.87,64C590.21,63.73,585.79,61.82,585.79,61.82Z" transform="translate(-0.5 0)"/><polygon class="cls-2" points="553.73 0.69 614.6 26.67 614.25 27.43 553.5 1.51 553.73 0.69"/><polygon class="cls-3" points="553.73 0.69 614.6 26.67 614.25 27.43 553.5 1.51 553.73 0.69"/><polygon class="cls-2" points="553.21 3.81 613.47 28.98 613.28 29.52 553.02 4.35 553.21 3.81"/><polygon class="cls-3" points="553.21 3.81 613.47 28.98 613.28 29.52 553.02 4.35 553.21 3.81"/><path class="cls-15" d="M581.47,68.66a3.3,3.3,0,0,1-.78-.35,5.21,5.21,0,0,0-.78,1.39,11.06,11.06,0,0,1-.5,1.31c-.15.33-.48,1.26-.58,1.52a4.76,4.76,0,0,0-.27,1.44c0,.31.11,1.15.17,1.41s.19,1.42.3,1.73a18.17,18.17,0,0,1,.51,2.6c0,.36-.25,2.1-.26,2.32a3.73,3.73,0,0,1-.13.56,6.2,6.2,0,0,1,1.48,1.14c.32.38,1.37,1.65,1.71,2.21s1,1.24,1.19,1.68.73,1.36.82,1.51.15.22.34.16.38-.35.51-.8a6.8,6.8,0,0,1,.65-1.21c.13-.25.45-1,.58-1.4a14.41,14.41,0,0,1,1.39-2.51,9.25,9.25,0,0,1,1.22-1c.22-.15,0-1-.13-1.23a9.8,9.8,0,0,1-.69-2.77,4.51,4.51,0,0,1,.33-1.77c.08-.26.22-.79.29-1.15s.56-2.12.64-2.43.17-1,0-1.08a10.58,10.58,0,0,1-.88-.92,8.9,8.9,0,0,1-.67-1.66,9.92,9.92,0,0,1-.41-1.57c0-.24-.07,0-.48.16s-.51-.1-.53.11.09.87-.16,1.2a2.46,2.46,0,0,1-.87.75,7,7,0,0,1-2.69.41,2.82,2.82,0,0,1-1.49-.82c-.21-.27.07-.85.12-1" transform="translate(-0.5 0)"/><path class="cls-14" d="M581.47,68.66a3.3,3.3,0,0,1-.78-.35,5.21,5.21,0,0,0-.78,1.39,11.06,11.06,0,0,1-.5,1.31c-.15.33-.48,1.26-.58,1.52a4.76,4.76,0,0,0-.27,1.44c0,.31.11,1.15.17,1.41s.19,1.42.3,1.73a18.17,18.17,0,0,1,.51,2.6c0,.36-.25,2.1-.26,2.32a3.73,3.73,0,0,1-.13.56,6.2,6.2,0,0,1,1.48,1.14c.32.38,1.37,1.65,1.71,2.21s1,1.24,1.19,1.68.73,1.36.82,1.51.15.22.34.16.38-.35.51-.8a6.8,6.8,0,0,1,.65-1.21c.13-.25.45-1,.58-1.4a14.41,14.41,0,0,1,1.39-2.51,9.25,9.25,0,0,1,1.22-1c.22-.15,0-1-.13-1.23a9.8,9.8,0,0,1-.69-2.77,4.51,4.51,0,0,1,.33-1.77c.08-.26.22-.79.29-1.15s.56-2.12.64-2.43.17-1,0-1.08a10.58,10.58,0,0,1-.88-.92,8.9,8.9,0,0,1-.67-1.66,9.92,9.92,0,0,1-.41-1.57c0-.24-.07,0-.48.16s-.51-.1-.53.11.09.87-.16,1.2a2.46,2.46,0,0,1-.87.75,7,7,0,0,1-2.69.41,2.82,2.82,0,0,1-1.49-.82C581.14,69.36,581.42,68.78,581.47,68.66Z" transform="translate(-0.5 0)"/><polygon class="cls-16" points="564.32 6.13 580.01 12.99 579.36 14.68 563.56 8.33 564.32 6.13"/><polygon class="cls-17" points="564.32 6.13 580.01 12.99 579.36 14.68 563.56 8.33 564.32 6.13"/><path class="cls-2" d="M579.36,125.64a4.82,4.82,0,0,1,1.85-3.79,7.28,7.28,0,0,1,9,0,4.8,4.8,0,0,1,0,7.59,7.31,7.31,0,0,1-9.07,0,4.83,4.83,0,0,1-1.84-3.79" transform="translate(-0.5 0)"/><path class="cls-4" d="M579.36,125.64a4.82,4.82,0,0,1,1.85-3.79,7.28,7.28,0,0,1,9,0,4.8,4.8,0,0,1,0,7.59,7.31,7.31,0,0,1-9.07,0A4.83,4.83,0,0,1,579.36,125.64Z" transform="translate(-0.5 0)"/><path class="cls-2" d="M26.95,124.45l6.47-15.78a41.9,41.9,0,0,0,7.76,4.45,16.81,16.81,0,0,0,6.38,1.4,5.89,5.89,0,0,0,3.27-.79,2.44,2.44,0,0,0,1.2-2.14q0-2.35-6-3.58l-3-.65a17.81,17.81,0,0,1-9.67-5.47A14.55,14.55,0,0,1,30,92.1a18.73,18.73,0,0,1,6.51-14.79q6.51-5.71,17.06-5.7a36.37,36.37,0,0,1,9.55,1.27,44.4,44.4,0,0,1,9.47,3.85L66.46,91.5a25.31,25.31,0,0,0-5.87-3.29,15.87,15.87,0,0,0-5.71-1.13,6.27,6.27,0,0,0-3.27.71,2.22,2.22,0,0,0-1.15,2q0,2.39,8.43,4.2l2.08.47a16.06,16.06,0,0,1,9.17,5.35,14.8,14.8,0,0,1,3.35,9.78,19.39,19.39,0,0,1-6.76,15.28q-6.76,5.93-17.58,5.93A40.43,40.43,0,0,1,38,129.18a50.2,50.2,0,0,1-11.09-4.74" transform="translate(-0.5 0)"/><path class="cls-4" d="M26.95,124.45l6.47-15.78a41.9,41.9,0,0,0,7.76,4.45,16.81,16.81,0,0,0,6.38,1.4,5.89,5.89,0,0,0,3.27-.79,2.44,2.44,0,0,0,1.2-2.14q0-2.35-6-3.58l-3-.65a17.81,17.81,0,0,1-9.67-5.47A14.55,14.55,0,0,1,30,92.1a18.73,18.73,0,0,1,6.51-14.79q6.51-5.71,17.06-5.7a36.37,36.37,0,0,1,9.55,1.27,44.4,44.4,0,0,1,9.47,3.85L66.46,91.5a25.31,25.31,0,0,0-5.87-3.29,15.87,15.87,0,0,0-5.71-1.13,6.27,6.27,0,0,0-3.27.71,2.22,2.22,0,0,0-1.15,2q0,2.39,8.43,4.2l2.08.47a16.06,16.06,0,0,1,9.17,5.35,14.8,14.8,0,0,1,3.35,9.78,19.39,19.39,0,0,1-6.76,15.28q-6.76,5.93-17.58,5.93A40.43,40.43,0,0,1,38,129.18,50.2,50.2,0,0,1,26.95,124.45Z" transform="translate(-0.5 0)"/><path class="cls-2" d="M81.57,103.47V72.88h20.27v30.75q0,5.35,1.27,7.38a5.63,5.63,0,0,0,8.7-.06q1.31-2.08,1.31-7.32V72.88h20.27v30.59a51,51,0,0,1-.79,9.9,18.25,18.25,0,0,1-2.52,6.5,22.09,22.09,0,0,1-9.24,8.08,30.52,30.52,0,0,1-13.37,2.81A30.61,30.61,0,0,1,94,128a22.09,22.09,0,0,1-9.25-8.08,18.06,18.06,0,0,1-2.47-6.43,52.47,52.47,0,0,1-.77-10" transform="translate(-0.5 0)"/><path class="cls-4" d="M81.57,103.47V72.88h20.27v30.75q0,5.35,1.27,7.38a5.63,5.63,0,0,0,8.7-.06q1.31-2.08,1.31-7.32V72.88h20.27v30.59a51,51,0,0,1-.79,9.9,18.25,18.25,0,0,1-2.52,6.5,22.09,22.09,0,0,1-9.24,8.08,30.52,30.52,0,0,1-13.37,2.81A30.61,30.61,0,0,1,94,128a22.09,22.09,0,0,1-9.25-8.08,18.06,18.06,0,0,1-2.47-6.43A52.47,52.47,0,0,1,81.57,103.47Z" transform="translate(-0.5 0)"/><path class="cls-2" d="M145.78,129.27V72.88h19.86l17.51,29.5a36.74,36.74,0,0,1-.48-4.35q-.13-2.39-.13-6.24V72.88H202.1v56.39h-20L164.73,100q.31,1.88.46,4.06t.15,4.87v20.34Z" transform="translate(-0.5 0)"/><path class="cls-4" d="M145.78,129.27V72.88h19.86l17.51,29.5a36.74,36.74,0,0,1-.48-4.35q-.13-2.39-.13-6.24V72.88H202.1v56.39h-20L164.73,100q.31,1.88.46,4.06t.15,4.87v20.34Z" transform="translate(-0.5 0)"/><path class="cls-2" d="M233.5,106.31v9h3.4a7.92,7.92,0,0,0,4.67-1.17,4.22,4.22,0,0,0,0-6.67,8,8,0,0,0-4.67-1.15Zm0-20v7.89h2.67a6,6,0,0,0,3.77-1,3.53,3.53,0,0,0,1.29-2.95,3.47,3.47,0,0,0-1.29-2.92,6.06,6.06,0,0,0-3.77-1Zm-19,43V72.88h27q8.65,0,13.5,4.07t4.85,11.3a12.47,12.47,0,0,1-2.29,7.69,10.61,10.61,0,0,1-6.49,4q5.75,1.2,8.57,4.51t2.82,8.9q0,7.89-5.33,11.92t-15.69,4Z" transform="translate(-0.5 0)"/><path class="cls-4" d="M233.5,106.31v9h3.4a7.92,7.92,0,0,0,4.67-1.17,4.22,4.22,0,0,0,0-6.67,8,8,0,0,0-4.67-1.15Zm0-20v7.89h2.67a6,6,0,0,0,3.77-1,3.53,3.53,0,0,0,1.29-2.95,3.47,3.47,0,0,0-1.29-2.92,6.06,6.06,0,0,0-3.77-1Zm-19,43V72.88h27q8.65,0,13.5,4.07t4.85,11.3a12.47,12.47,0,0,1-2.29,7.69,10.61,10.61,0,0,1-6.49,4q5.75,1.2,8.57,4.51t2.82,8.9q0,7.89-5.33,11.92t-15.69,4Z" transform="translate(-0.5 0)"/><path class="cls-2" d="M299.76,111.83a8.79,8.79,0,0,0,6.88-2.91,11.15,11.15,0,0,0,2.6-7.72,11.36,11.36,0,0,0-2.6-7.8,9.51,9.51,0,0,0-13.78,0,11.3,11.3,0,0,0-2.62,7.78,11.09,11.09,0,0,0,2.62,7.72,8.85,8.85,0,0,0,6.9,2.91m30.15-10.65a30,30,0,0,1-2.19,11.53,28.72,28.72,0,0,1-6.43,9.53,29.46,29.46,0,0,1-9.76,6.31,32.8,32.8,0,0,1-23.58,0,29.3,29.3,0,0,1-9.78-6.39,27.28,27.28,0,0,1-6.35-9.39,32.34,32.34,0,0,1,0-23.22,27.22,27.22,0,0,1,6.35-9.44,28.93,28.93,0,0,1,9.74-6.33,33.38,33.38,0,0,1,23.72,0,29.35,29.35,0,0,1,9.78,6.33,28.15,28.15,0,0,1,6.33,9.47,30.51,30.51,0,0,1,2.17,11.59" transform="translate(-0.5 0)"/><path class="cls-4" d="M299.76,111.83a8.79,8.79,0,0,0,6.88-2.91,11.15,11.15,0,0,0,2.6-7.72,11.36,11.36,0,0,0-2.6-7.8,9.51,9.51,0,0,0-13.78,0,11.3,11.3,0,0,0-2.62,7.78,11.09,11.09,0,0,0,2.62,7.72A8.85,8.85,0,0,0,299.76,111.83Zm30.15-10.65a30,30,0,0,1-2.19,11.53,28.72,28.72,0,0,1-6.43,9.53,29.46,29.46,0,0,1-9.76,6.31,32.8,32.8,0,0,1-23.58,0,29.3,29.3,0,0,1-9.78-6.39,27.28,27.28,0,0,1-6.35-9.39,32.34,32.34,0,0,1,0-23.22,27.22,27.22,0,0,1,6.35-9.44,28.93,28.93,0,0,1,9.74-6.33,33.38,33.38,0,0,1,23.72,0,29.35,29.35,0,0,1,9.78,6.33,28.15,28.15,0,0,1,6.33,9.47A30.51,30.51,0,0,1,329.91,101.19Z" transform="translate(-0.5 0)"/><path class="cls-2" d="M339.7,103.47V72.88H360v30.75q0,5.35,1.27,7.38t4.35,2a4.75,4.75,0,0,0,4.35-2.08q1.31-2.08,1.31-7.32V72.88h20.27v30.59a51.13,51.13,0,0,1-.79,9.9,18.23,18.23,0,0,1-2.53,6.5A22.06,22.06,0,0,1,379,128a33.28,33.28,0,0,1-26.77,0,22.06,22.06,0,0,1-9.24-8.08,18,18,0,0,1-2.47-6.43,52.31,52.31,0,0,1-.77-10" transform="translate(-0.5 0)"/><path class="cls-4" d="M339.7,103.47V72.88H360v30.75q0,5.35,1.27,7.38t4.35,2a4.75,4.75,0,0,0,4.35-2.08q1.31-2.08,1.31-7.32V72.88h20.27v30.59a51.13,51.13,0,0,1-.79,9.9,18.23,18.23,0,0,1-2.53,6.5A22.06,22.06,0,0,1,379,128a33.28,33.28,0,0,1-26.77,0,22.06,22.06,0,0,1-9.24-8.08,18,18,0,0,1-2.47-6.43A52.31,52.31,0,0,1,339.7,103.47Z" transform="translate(-0.5 0)"/><path class="cls-2" d="M403.92,129.27V72.88h19.86l17.51,29.5A37.6,37.6,0,0,1,440.8,98q-.14-2.39-.13-6.24V72.88h19.56v56.39h-20L422.86,100q.31,1.88.46,4.06t.15,4.87v20.34Z" transform="translate(-0.5 0)"/><path class="cls-4" d="M403.92,129.27V72.88h19.86l17.51,29.5A37.6,37.6,0,0,1,440.8,98q-.14-2.39-.13-6.24V72.88h19.56v56.39h-20L422.86,100q.31,1.88.46,4.06t.15,4.87v20.34Z" transform="translate(-0.5 0)"/><path class="cls-2" d="M514.07,95.27a20.4,20.4,0,0,0-5.66-4A14.55,14.55,0,0,0,502.33,90a10.73,10.73,0,0,0-8,3.06,11.06,11.06,0,0,0-3,8.13,10.86,10.86,0,0,0,2.89,7.92,10.32,10.32,0,0,0,7.74,3,15.57,15.57,0,0,0,6-1.24,30.37,30.37,0,0,0,6.61-4l-.65,21.2a37.3,37.3,0,0,1-6.62,2,33.79,33.79,0,0,1-14.55-.25,27.86,27.86,0,0,1-6.89-2.62,30.14,30.14,0,0,1-11.3-10.89,29.59,29.59,0,0,1-3.83-15.14,31,31,0,0,1,2.17-11.71,28.36,28.36,0,0,1,16.05-15.81,32.88,32.88,0,0,1,12-2.14,32,32,0,0,1,13.24,2.85Z" transform="translate(-0.5 0)"/><path class="cls-4" d="M514.07,95.27a20.4,20.4,0,0,0-5.66-4A14.55,14.55,0,0,0,502.33,90a10.73,10.73,0,0,0-8,3.06,11.06,11.06,0,0,0-3,8.13,10.86,10.86,0,0,0,2.89,7.92,10.32,10.32,0,0,0,7.74,3,15.57,15.57,0,0,0,6-1.24,30.37,30.37,0,0,0,6.61-4l-.65,21.2a37.3,37.3,0,0,1-6.62,2,33.79,33.79,0,0,1-14.55-.25,27.86,27.86,0,0,1-6.89-2.62,30.14,30.14,0,0,1-11.3-10.89,29.59,29.59,0,0,1-3.83-15.14,31,31,0,0,1,2.17-11.71,28.36,28.36,0,0,1,16.05-15.81,32.88,32.88,0,0,1,12-2.14,32,32,0,0,1,13.24,2.85Z" transform="translate(-0.5 0)"/><polygon class="cls-2" points="524.52 129.27 524.52 72.88 562.23 72.88 562.23 88.17 544.39 88.17 544.39 93.62 560.58 93.62 560.58 108.05 544.39 108.05 544.39 113.97 562.69 113.97 562.69 129.27 524.52 129.27"/><polygon class="cls-4" points="524.52 129.27 524.52 72.88 562.23 72.88 562.23 88.17 544.39 88.17 544.39 93.62 560.58 93.62 560.58 108.05 544.39 108.05 544.39 113.97 562.69 113.97 562.69 129.27 524.52 129.27"/><path class="cls-2" d="M645.24,95.27a20.46,20.46,0,0,0-5.66-4A14.54,14.54,0,0,0,633.49,90a10.74,10.74,0,0,0-8,3.06,11.07,11.07,0,0,0-3,8.13,10.86,10.86,0,0,0,2.89,7.92,10.32,10.32,0,0,0,7.74,3,15.57,15.57,0,0,0,6-1.24,30.3,30.3,0,0,0,6.61-4l-.65,21.2a37.35,37.35,0,0,1-6.62,2,33.77,33.77,0,0,1-14.55-.25,27.85,27.85,0,0,1-6.89-2.62,30.14,30.14,0,0,1-11.3-10.89,29.59,29.59,0,0,1-3.83-15.14A30.93,30.93,0,0,1,604,89.48,28.33,28.33,0,0,1,620,73.67a32.84,32.84,0,0,1,12-2.14,32,32,0,0,1,13.24,2.85Z" transform="translate(-0.5 0)"/><path class="cls-4" d="M645.24,95.27a20.46,20.46,0,0,0-5.66-4A14.54,14.54,0,0,0,633.49,90a10.74,10.74,0,0,0-8,3.06,11.07,11.07,0,0,0-3,8.13,10.86,10.86,0,0,0,2.89,7.92,10.32,10.32,0,0,0,7.74,3,15.57,15.57,0,0,0,6-1.24,30.3,30.3,0,0,0,6.61-4l-.65,21.2a37.35,37.35,0,0,1-6.62,2,33.77,33.77,0,0,1-14.55-.25,27.85,27.85,0,0,1-6.89-2.62,30.14,30.14,0,0,1-11.3-10.89,29.59,29.59,0,0,1-3.83-15.14A30.93,30.93,0,0,1,604,89.48,28.33,28.33,0,0,1,620,73.67a32.84,32.84,0,0,1,12-2.14,32,32,0,0,1,13.24,2.85Z" transform="translate(-0.5 0)"/><path class="cls-2" d="M684.32,111.83a8.78,8.78,0,0,0,6.88-2.91,11.12,11.12,0,0,0,2.6-7.72,11.33,11.33,0,0,0-2.6-7.8,9.51,9.51,0,0,0-13.78,0,11.29,11.29,0,0,0-2.62,7.78,11.08,11.08,0,0,0,2.62,7.72,8.84,8.84,0,0,0,6.9,2.91m30.15-10.65a30,30,0,0,1-2.19,11.53,28.81,28.81,0,0,1-6.43,9.53,29.49,29.49,0,0,1-9.76,6.31,32.8,32.8,0,0,1-23.58,0,29.32,29.32,0,0,1-9.78-6.39,27.26,27.26,0,0,1-6.35-9.39,32.35,32.35,0,0,1,0-23.22,27.2,27.2,0,0,1,6.35-9.44,28.91,28.91,0,0,1,9.74-6.33,33.38,33.38,0,0,1,23.72,0A29.3,29.3,0,0,1,706,80.13a28.13,28.13,0,0,1,6.33,9.47,30.45,30.45,0,0,1,2.18,11.59" transform="translate(-0.5 0)"/><path class="cls-4" d="M684.32,111.83a8.78,8.78,0,0,0,6.88-2.91,11.12,11.12,0,0,0,2.6-7.72,11.33,11.33,0,0,0-2.6-7.8,9.51,9.51,0,0,0-13.78,0,11.29,11.29,0,0,0-2.62,7.78,11.08,11.08,0,0,0,2.62,7.72A8.84,8.84,0,0,0,684.32,111.83Zm30.15-10.65a30,30,0,0,1-2.19,11.53,28.81,28.81,0,0,1-6.43,9.53,29.49,29.49,0,0,1-9.76,6.31,32.8,32.8,0,0,1-23.58,0,29.32,29.32,0,0,1-9.78-6.39,27.26,27.26,0,0,1-6.35-9.39,32.35,32.35,0,0,1,0-23.22,27.2,27.2,0,0,1,6.35-9.44,28.91,28.91,0,0,1,9.74-6.33,33.38,33.38,0,0,1,23.72,0A29.3,29.3,0,0,1,706,80.13a28.13,28.13,0,0,1,6.33,9.47A30.45,30.45,0,0,1,714.46,101.19Z" transform="translate(-0.5 0)"/><path class="cls-2" d="M776.39,129.27l-2.46-22.34q-.23-2.58-.46-5.14t-.39-5.14q-.35,2.43-1,5.14t-1.56,5.79l-6.47,21.69H752l-6.47-21.69q-1-3.08-1.58-5.79t-1-5.14q-.19,2.62-.41,5.16t-.44,5.12l-2.46,22.34H719.84l9.62-56.39h20.91l4,13.95.58,2a86.2,86.2,0,0,1,3.12,14.52h.34q.46-3.58,1.39-7.63t2.46-9.09l4.2-13.71h20.87l8.93,56.39Z" transform="translate(-0.5 0)"/><path class="cls-4" d="M776.39,129.27l-2.46-22.34q-.23-2.58-.46-5.14t-.39-5.14q-.35,2.43-1,5.14t-1.56,5.79l-6.47,21.69H752l-6.47-21.69q-1-3.08-1.58-5.79t-1-5.14q-.19,2.62-.41,5.16t-.44,5.12l-2.46,22.34H719.84l9.62-56.39h20.91l4,13.95.58,2a86.2,86.2,0,0,1,3.12,14.52h.34q.46-3.58,1.39-7.63t2.46-9.09l4.2-13.71h20.87l8.93,56.39Z" transform="translate(-0.5 0)"/><polygon class="cls-2" points="564.87 49.47 571.95 52.49 570.84 55.42 563.77 52.27 564.87 49.47"/><polygon class="cls-4" points="564.87 49.47 571.95 52.49 570.84 55.42 563.77 52.27 564.87 49.47"/><polygon class="cls-2" points="586.5 58.13 592.59 61.29 591.62 64.47 585.44 61.02 586.5 58.13"/><polygon class="cls-4" points="586.5 58.13 592.59 61.29 591.62 64.47 585.44 61.02 586.5 58.13"/><polygon class="cls-2" points="535.73 40.3 597.57 66.16 597.22 66.93 535.27 40.56 535.73 40.3"/><polygon class="cls-3" points="535.73 40.3 597.57 66.16 597.22 66.93 535.27 40.56 535.73 40.3"/><polygon class="cls-16" points="537.16 37.18 545.37 40.52 543.99 44.02 535.82 40.77 537.16 37.18"/><polygon class="cls-3" points="537.16 37.18 545.37 40.52 543.99 44.02 535.82 40.77 537.16 37.18"/><polygon class="cls-16" points="550.14 43.35 564.84 49.33 563.8 52.24 548.99 46.13 550.14 43.35"/><polygon class="cls-3" points="550.14 43.35 564.84 49.33 563.8 52.24 548.99 46.13 550.14 43.35"/><polygon class="cls-16" points="572.36 52.47 586.73 58.44 585.69 61.36 571.33 55.13 572.36 52.47"/><polygon class="cls-3" points="572.36 52.47 586.73 58.44 585.69 61.36 571.33 55.13 572.36 52.47"/><polygon class="cls-16" points="592.38 60.69 598.48 63.46 597.4 66.36 591.22 63.44 592.38 60.69"/><polygon class="cls-3" points="592.38 60.69 598.48 63.46 597.4 66.36 591.22 63.44 592.38 60.69"/><polygon class="cls-16" points="553.12 1.44 560.55 4.16 559.3 7 551.77 4.58 553.12 1.44"/><polygon class="cls-3" points="553.12 1.44 560.55 4.16 559.3 7 551.77 4.58 553.12 1.44"/><polygon class="cls-16" points="587.66 16.24 602.9 22.66 602.25 24.35 586.45 18 587.66 16.24"/><polygon class="cls-17" points="587.66 16.24 602.9 22.66 602.25 24.35 586.45 18 587.66 16.24"/><polygon class="cls-2" points="603.2 22.69 609.84 25.34 609.17 27.13 602.11 24.6 603.2 22.69"/><polygon class="cls-3" points="603.2 22.69 609.84 25.34 609.17 27.13 602.11 24.6 603.2 22.69"/><polygon class="cls-16" points="608.05 24.58 614.38 27.02 613.47 28.8 607.05 26.45 608.05 24.58"/><polygon class="cls-3" points="608.05 24.58 614.38 27.02 613.47 28.8 607.05 26.45 608.05 24.58"/><rect class="cls-1" y="145.57" width="840.76" height="72.16"/></g><text class="cls-18" transform="translate(23.65 196.06) scale(1.02 1)"><tspan class="cls-19">MA</tspan><tspan class="cls-20" x="114.64" y="0">D</tspan><tspan x="169.61" y="0">E</tspan></text><g class="cls-21"><polygon class="cls-4" points="43.69 170.49 40.09 184.07 36.33 170.49 25.91 170.49 25.91 196.06 31.89 196.06 31.89 177.78 36.88 196.06 41.94 196.06 46.74 177.78 46.74 196.06 54.13 196.06 54.13 170.49 43.69 170.49"/><path class="cls-4" d="M97.91,178l2.1,7.42h-4.2Zm13.1,18-8.14-25.57H94.44l-8,25.57H92.9l1.56-5h7l1.47,5Z" transform="translate(-0.5 0)"/><path class="cls-4" d="M150.77,176.3h2.07a3.84,3.84,0,0,1,3.49,2,9.22,9.22,0,0,1,1.21,4.81,8.67,8.67,0,0,1-1.36,5.15,4,4,0,0,1-3.34,1.89h-2.07Zm2.57,19.76a12.08,12.08,0,0,0,9.06-3.59,12.8,12.8,0,0,0,3.49-9.32,13.23,13.23,0,0,0-3.25-8.84q-3.25-3.82-9.79-3.82h-10v25.57Z" transform="translate(-0.5 0)"/><polygon class="cls-4" points="205.98 189.95 205.98 185.78 215.45 185.78 215.45 180.1 205.98 180.1 205.98 176.39 217.69 176.39 217.69 170.49 198.16 170.49 198.16 196.06 217.69 196.06 217.69 189.95 205.98 189.95"/></g><text class="cls-18" transform="translate(247.99 196.06) scale(1.02 1)"> </text><text class="cls-18" transform="translate(288.3 196.06) scale(1.02 1)">I</text><g class="cls-21"><rect class="cls-4" x="290.56" y="170.49" width="7.97" height="25.57"/></g><text class="cls-18" transform="translate(330.19 196.06) scale(1.02 1)">N</text><g class="cls-21"><path class="cls-4" d="M355.15,170.49h-6.48v7.57a36.63,36.63,0,0,0,.61,6.71,36,36,0,0,0-2.74-4.91l-6-9.36H333v25.57h6.46V183.68a17.57,17.57,0,0,0-.63-4.2,43,43,0,0,0,2.76,5.28l7.11,11.3h6.48Z" transform="translate(-0.5 0)"/></g><text class="cls-18" transform="translate(386.28 196.06) scale(1.02 1)"> </text><text class="cls-18" transform="translate(426.59 196.06) scale(1.02 1)"><tspan class="cls-19">G</tspan><tspan class="cls-22" x="55.18" y="0">E</tspan><tspan class="cls-23" x="106.45" y="0">RM</tspan><tspan x="223.09" y="0">A</tspan></text><g class="cls-21"><path class="cls-4" d="M440.08,181.73v5.43h4.3a3,3,0,0,1-1,2.36,3.68,3.68,0,0,1-2.46.86,3.92,3.92,0,0,1-3-1.41q-1.26-1.41-1.26-5.85,0-7.34,3.92-7.34,3,0,3.56,4l7.72-.75a10.89,10.89,0,0,0-3.67-6.59,11.42,11.42,0,0,0-7.47-2.32q-6.18,0-9.31,3.91a14.92,14.92,0,0,0-3.13,9.64q0,5.9,3.23,9.36a10.81,10.81,0,0,0,8.25,3.46q4.74,0,7.15-3.07a15.27,15.27,0,0,1,1,2.68h3.9V181.73Z" transform="translate(-0.5 0)"/><polygon class="cls-4" points="492.69 189.95 492.69 185.78 502.16 185.78 502.16 180.1 492.69 180.1 492.69 176.39 504.41 176.39 504.41 170.49 484.88 170.49 484.88 196.06 504.41 196.06 504.41 189.95 492.69 189.95"/><path class="cls-4" d="M545.43,175.93h3.67q3.06,0,3.06,2.45a2.05,2.05,0,0,1-.91,1.82,4.24,4.24,0,0,1-2.41.62h-3.4Zm10.44,9a7.65,7.65,0,0,0,3.69-3,8.1,8.1,0,0,0,.91-3.91,6.76,6.76,0,0,0-2.48-5.46,10.59,10.59,0,0,0-7-2.07H537.47v25.57h8v-9.78h2.51l3.79,9.78h8.83Z" transform="translate(-0.5 0)"/><polygon class="cls-4" points="611.01 170.49 607.42 184.07 603.65 170.49 593.24 170.49 593.24 196.06 599.21 196.06 599.21 177.78 604.2 196.06 609.26 196.06 614.07 177.78 614.07 196.06 621.46 196.06 621.46 170.49 611.01 170.49"/><path class="cls-4" d="M665.24,178l2.1,7.42h-4.2Zm13.1,18-8.14-25.57h-8.42l-8,25.57h6.47l1.56-5h7l1.47,5Z" transform="translate(-0.5 0)"/></g><text class="cls-18" transform="translate(707.37 196.06) scale(1.02 1)">N</text><g class="cls-21"><path class="cls-4" d="M732.32,170.49h-6.48v7.57a36.63,36.63,0,0,0,.61,6.71,36,36,0,0,0-2.74-4.91l-6-9.36h-7.53v25.57h6.46V183.68a17.57,17.57,0,0,0-.63-4.2,42.91,42.91,0,0,0,2.76,5.28l7.11,11.3h6.48Z" transform="translate(-0.5 0)"/></g><text class="cls-18" transform="translate(763.45 196.06) scale(1.02 1)">Y</text><g class="cls-21"><polygon class="cls-4" points="780.3 170.49 775.94 178.92 771.39 170.49 762.67 170.49 771.4 185.23 771.4 196.06 779.14 196.06 779.14 185.23 787.26 170.49 780.3 170.49"/><line class="cls-5" x1="25.38" y1="151.3" x2="796.66" y2="151.3"/><line class="cls-24" x1="25.38" y1="151.3" x2="796.66" y2="151.3"/></g><g class="cls-7"><rect class="cls-1" y="145.57" width="840.76" height="72.16"/></g></g></g></svg>