<svg xmlns="http://www.w3.org/2000/svg" viewBox="0 0 849.25 426.72"><defs><style>.cls-1{fill:#fff;}</style></defs><title>Element 1</title><g id="Ebene_2" data-name="Ebene 2"><g id="Ebene_1-2" data-name="Ebene 1"><path class="cls-1" d="M171.75,0c5.52,4,9.08,9.57,12.38,15.33a95.65,95.65,0,0,1,11.13,32.23,175.48,175.48,0,0,1,1.6,38.74c-.25,4.39-.43,8.78-1,13.14a28,28,0,0,1-4.37,11.81c-1.41,2.14-2.84,4.26-4.23,6.41a26.27,26.27,0,0,0-4.07,12.88,113.54,113.54,0,0,0,.54,20.59,23.33,23.33,0,0,0,1,4.43,10,10,0,0,0,8.46,7.18,40,40,0,0,0,15.47-.75,70.83,70.83,0,0,0,14.23-5,51.92,51.92,0,0,1,13.82-4.61c4.08-.62,7.56.26,10.37,3.5a20.51,20.51,0,0,0,7.91,5.29,11.36,11.36,0,0,1,3.71,2.15c1.54,1.48,1.29,2.86-.64,3.71a6.69,6.69,0,0,1-2.81.53c-16.41-.14-31.66,4.66-46.62,10.81-9.54,3.92-18.76,8.55-28.34,12.37-9.36,3.73-18.81,7.19-28.73,9.15-5,1-10.13,1.87-15.23.76-9.93-2.15-20.05-3.09-30-4.85a95.24,95.24,0,0,1-19.15-5.26,35.21,35.21,0,0,1-6.4-3.25,10.55,10.55,0,0,1-2.52-2.19c-1.33-1.69-1.2-2.78.54-4a25.53,25.53,0,0,1,4.89-2.53c4.34-1.85,8.79-3.39,13.26-4.89,2.84-1,3-1.73.78-3.87a48.35,48.35,0,0,0-6-4.72,433.88,433.88,0,0,0-40.92-25c-13.82-7.56-27.82-14.75-42.49-20.57a29.13,29.13,0,0,1-6.56-3.46,4.63,4.63,0,0,1-1-6,3.71,3.71,0,0,1,3.24-1.72,13.11,13.11,0,0,1,4,.78,51,51,0,0,1,7.92,3.41c11.06,6,23,9.6,35.07,12.68,11.61,3,23.35,5.37,35,8.16,15.69,3.75,30.1,10.16,42.55,20.62,1.82,1.53,3.75,2.94,6,4.7.3-2.81.58-5.23.82-7.65.93-9.3,1.78-18.62,3.54-27.81a94.72,94.72,0,0,1,8.74-25.55C154,85.1,158,71.65,161.14,57.91A299.36,299.36,0,0,0,167.51,16a73.47,73.47,0,0,1,2.8-16Z"/><path class="cls-1" d="M803.91,426.72a18.73,18.73,0,0,1-.71-8.46q1-10.5,2-21a1.89,1.89,0,0,0-.29-1.76l-3.35,2.16a27.61,27.61,0,0,1-4.12,2.44c-2.69,1.16-5.45,1.87-8.39,1a3.87,3.87,0,0,0-4.53,1.82,20.77,20.77,0,0,0-1.87,3.61,35.7,35.7,0,0,1-4.37,7.69c-2.44,3.14-5.13,3-7.3-.33-2-3.06-2.46-6.54-2.54-10.1,0-1.76.07-3.52,0-5.27-.1-1.55-.65-1.83-2-1.13-1,.5-1.92,1.14-2.87,1.73a18.12,18.12,0,0,1-8.35,2.71c-4,.27-6.14-1-7.61-4.76-1.35-3.44-1.88-7.09-2.69-10.67-.43-1.93-.84-3.86-1.31-6.07a3,3,0,0,0-1.15,1.66c-1.57,3.67-3.12,7.35-4.71,11a29.11,29.11,0,0,1-3.94,6.84c-.75.92-1.57,2-2.92,1.78-1.51-.3-1.71-1.75-2-3-.79-4.05-.36-8.12-.13-12.19l.4-6.94a6.19,6.19,0,0,0-1.87,2c-3.93,5.15-7.66,10.45-11.8,15.43a40.92,40.92,0,0,1-4.13,4.34,8.52,8.52,0,0,1-2.58,1.72,1.71,1.71,0,0,1-2.49-1.1,7.1,7.1,0,0,1-.39-2.83c-.09-4.51.91-8.89,1.72-13.29q.5-2.71,1-5.41c.13-.2.24-.45.05-.61s-.33.1-.43.26c-1.85,1.54-3.21,3.54-4.87,5.27-1.38,1.44-2.76,2.89-4.18,4.3a8.12,8.12,0,0,1-2.77,1.86,1.88,1.88,0,0,1-2.81-1.32,6.85,6.85,0,0,1,.07-4.71,18.25,18.25,0,0,1,1.18-2.36,63.29,63.29,0,0,1,11.68-14.23,14.09,14.09,0,0,1,2.3-1.72,3.18,3.18,0,0,1,4.74,1.15,20.54,20.54,0,0,1,2,4.62c.46,1.36.83,2.76,1.33,4.1s1,1.44,2.19.76a12.73,12.73,0,0,0,3.06-2.67c1.34-1.48,2.62-3,4-4.45,2.06-2.1,3.08-2.13,5.34-.28,1.61,1.31,3.08,2.8,4.82,4,2,1.33,2,1.33,3.31-.63,1.48-2.28,2.91-4.59,4.4-6.87a17.67,17.67,0,0,1,3.36-4c2.09-1.74,3.64-1.4,4.64,1.11a25.46,25.46,0,0,1,1.43,8.47c.2,4.63,0,9.28.49,13.9a20.42,20.42,0,0,0,.93,4.69c1,2.8,2.6,3.39,4.88,1.5,4.28-3.54,7.58-7.79,8.64-13.43a60.61,60.61,0,0,0,.87-11.22,80,80,0,0,1,2-18.08,26.32,26.32,0,0,1,2.47-7c.81-1.45,1.63-3.22,3.68-2.88s2.13,2.2,2.46,3.73a34.91,34.91,0,0,1,.27,10.27,127.28,127.28,0,0,1-2.38,13.93,16.86,16.86,0,0,0-.27,3.1,5.94,5.94,0,0,0,2,4.71,10.66,10.66,0,0,1,3.25,7c.6,4.87,3.52,8.09,7.77,10.21a5,5,0,0,0,4.19,0,9.19,9.19,0,0,0,3.07-1.84,52.68,52.68,0,0,0,8.64-10.24,20.52,20.52,0,0,0,2.81-10.05c.19-5,.3-9.91.46-14.87a33.59,33.59,0,0,1,1.1-7.58,6.18,6.18,0,0,1,2-3.5c1.21-1,2-.71,2.42.81a25.23,25.23,0,0,1,.71,5.7c.18,6.72.14,13.44-.2,20.15-.19,3.76-.19,7.51-.16,11.27a16.9,16.9,0,0,0,.55,4,2.13,2.13,0,0,0,2.26,1.73c2.61.05,4-.9,4.77-3.43a27.15,27.15,0,0,0,.95-5.91c.39-6.14.71-12.29,1-18.44.4-8.14.62-16.3,1.93-24.37a14.23,14.23,0,0,1,1.1-3.91c.24-.5.57-1,1.21-1s.92.57,1.1,1.12a23,23,0,0,1,.93,5.66c.68,9.27.41,18.55.48,27.82,0,5.36,0,10.72.41,16.07a24,24,0,0,0,.56,4c.47,2,1.18,2.36,3.1,1.7,2.8-1,5.63-1.81,8.5-2.52a21.87,21.87,0,0,1,3.05-.62c1.26-.13,1.83.37,1.86,1.61a5.56,5.56,0,0,1-2.36,5.2,20.25,20.25,0,0,1-6.11,2.69,34.63,34.63,0,0,0-5.69,1.85,5.27,5.27,0,0,0-3.32,5.1,29.92,29.92,0,0,1-.48,5.73c-1.27,6.53-5.35,8.25-11,4.6a45.86,45.86,0,0,1-5.83-5,10.36,10.36,0,0,0-2.85-2.29c0,1.08,0,1.92,0,2.76-.08,3.91.15,7.83-.35,11.74a13.23,13.23,0,0,1-3.54,8.09Zm18.83-26c.1-3.81-1.58-5.39-5.29-5.09a7.37,7.37,0,0,0-.95.13c-2.53.54-3.06,1.74-1.71,3.91a13.41,13.41,0,0,0,2.9,3.17c1,.87,2.17,1.92,3.63,1.31S822.62,401.89,822.74,400.68Zm-45.8-.65a9.17,9.17,0,0,0,0-8A15.93,15.93,0,0,0,776.94,400Z"/><path class="cls-1" d="M399.54,365.76q0-15.95,0-31.89c0-.56,0-1.12,0-1.68-.1-1.19.48-1.47,1.58-1.47,5.28,0,10.55,0,15.83,0,5.59,0,11.19,0,16.77.46a63.21,63.21,0,0,1,11.8,1.94c9.54,2.7,15.54,8.8,17.72,18.53A43.9,43.9,0,0,1,462,376.48c-4,11.06-11.69,18.26-23.35,20.94a110.34,110.34,0,0,1-19,2.25c-6,.31-12,.5-18,.73-2.1.08-2.12,0-2.13-2Q399.53,382.07,399.54,365.76Zm16.8-1.56v7q0,8.88,0,17.76c0,2.19,0,2.2,2.27,2.2,2.48,0,5,0,7.44,0,9-.07,14.9-4.49,18.24-12.65a33.34,33.34,0,0,0,2.26-9c.79-7.18.22-14.21-2.7-20.92-2.36-5.41-6.24-8.9-12.16-10.16-4.36-.93-8.73-.86-13.13-.87-2.2,0-2.22,0-2.23,2.25Q416.34,352,416.35,364.2Z"/><path class="cls-1" d="M687.68,294.65c-.32,6.75-.62,13.13-.93,19.52-.11,2.16-.28,4.31-.35,6.46,0,.93-.41,1.26-1.31,1.25q-7.55,0-15.11,0c-1.05,0-1.43-.49-1.34-1.48,0-.4,0-.8,0-1.2q0-32,0-64c0-2.84-.22-2.64,2.54-2.63,6.64,0,13.27,0,19.91,0a62,62,0,0,1,13.57,1.32,26.13,26.13,0,0,1,3.2,1,10.71,10.71,0,0,1,7,7.92,33.88,33.88,0,0,1,.5,11.91,12.32,12.32,0,0,1-4.82,8.28c-2.23,1.82-4.51,3.58-6.75,5.38-1.48,1.18-1.48,1.19-.41,2.81,5.6,8.47,11.43,16.78,16.73,25.44.58,1,1.18,1.91,1.69,2.9.66,1.25.59,1.35-.86,1.74a3.44,3.44,0,0,1-.47.11,53.38,53.38,0,0,1-13.63.17A7.54,7.54,0,0,1,702,318.6a33.53,33.53,0,0,1-3.32-5c-3.14-5.57-6.25-11.15-9.39-16.72A5.77,5.77,0,0,0,687.68,294.65Zm12-23.49a14.47,14.47,0,0,0-3.22-8.48,9.07,9.07,0,0,0-5.42-3.29c-2-.38-3,.2-3.62,2.16a15.12,15.12,0,0,0-.6,3.29,91.82,91.82,0,0,0,0,12.22,14.38,14.38,0,0,0,1.09,4.89c.94,2.13,2.43,2.72,4.45,1.58C696.89,281,699.73,277.24,699.69,271.16Z"/><path class="cls-1" d="M271.29,399.57A1.48,1.48,0,0,1,270,400l-13.19-.13a8.63,8.63,0,0,1-7.15-3.74,67,67,0,0,1-4.35-6.89c-2.71-4.71-5.37-9.44-8.08-14.16a4.8,4.8,0,0,0-1.45-2,3.69,3.69,0,0,0-.2,1.84c0,7.67-.07,15.35-.12,23,0,2.06,0,2.08-2.15,2.08q-6.83,0-13.67,0c-2.16,0-2.17,0-2.17-2.29q0-19.3,0-38.61,0-12.83,0-25.66c0-.56,0-1.12,0-1.68s.28-1.05,1-1.05h1.2c7.91,0,15.83,0,23.74.06a62.4,62.4,0,0,1,7.17.48c7.16.9,11.09,5.58,13.28,11.93a14,14,0,0,1-1.32,11.57,21.83,21.83,0,0,1-5.23,6.19c-1.83,1.55-3.63,3.14-5.52,4.62a1.62,1.62,0,0,0-.41,2.57c3.14,4.91,6.17,9.9,9.3,14.82s6.31,9.81,9.47,14.71C270.51,398.3,270.87,398.91,271.29,399.57Zm-35.67-50.43c0,2.08-.08,4.16,0,6.23a12.16,12.16,0,0,0,1.3,5.31c.87,1.59,2,2,3.6,1.18a9.37,9.37,0,0,0,5.09-5.77,24.82,24.82,0,0,0,.15-13,6.27,6.27,0,0,0-5.33-5.1c-2.8-.55-3.85,0-4.5,2.8S235.58,346.35,235.62,349.14Z"/><path class="cls-1" d="M585,286.52a49,49,0,0,1,1-11.1,23.32,23.32,0,0,1,8.35-13.9c8.79-6.93,18.59-11.28,30-10.9a43.51,43.51,0,0,1,24.55,8.54c5.83,4.23,8.92,10.16,9.95,17.17A65.48,65.48,0,0,1,658,298a17.4,17.4,0,0,1-3.83,7.9,59.43,59.43,0,0,1-13.65,12c-3.59,2.33-7.7,3.13-11.85,3.5a59.63,59.63,0,0,1-22.12-1.68A33.36,33.36,0,0,1,593,311.89c-4.53-4.23-6.63-9.67-7.51-15.69A64.69,64.69,0,0,1,585,286.52Zm17,2.57c.08,1.16.13,3,.34,4.83.61,5.15,2,10,5.25,14.2a16.41,16.41,0,0,0,8.72,6c5.93,1.69,14.84-.75,18.78-6.16a31.21,31.21,0,0,0,4.24-8,46.87,46.87,0,0,0,2.2-20.32,31.87,31.87,0,0,0-3.66-12.56,13.46,13.46,0,0,0-10.81-7.38c-.71-.08-1.42-.22-2.14-.28-7.77-.7-13.95,1.92-18.11,8.71a27.5,27.5,0,0,0-2.62,5.89C602.66,278.69,602.2,283.53,602,289.09Z"/><path class="cls-1" d="M583.35,321.85c-5.4,0-10.73.31-16-.35a7.79,7.79,0,0,1-5.12-3.28,51.73,51.73,0,0,1-4-6.27c-2.67-4.64-5.21-9.36-8.09-13.88a13,13,0,0,0-2.18-2.85c-.62-.55-1.15-.56-1.37.38a10.64,10.64,0,0,0-.21,3.1q.45,7.3.93,14.6c.16,2.39.33,4.79.57,7.17.11,1.11-.35,1.41-1.34,1.41q-8,0-16.08,0c-1,0-1.47-.42-1.4-1.43,0-.4,0-.8,0-1.2q0-32,0-64.06c0-3.08-.09-2.65,2.76-2.66,8.08,0,16.16,0,24.23,0a47.17,47.17,0,0,1,9.54.83,8.58,8.58,0,0,1,4.25,2.09,23.22,23.22,0,0,1,6.49,9.93c1.8,5.85.19,10.9-4,15.17-2,2.06-4.25,3.88-6.3,5.9-2.71,2.67-2.68,2.71-.76,6.07,5.28,9.24,11.29,18,17,27A4.31,4.31,0,0,1,583.35,321.85Zm-37.6-50.39h.11c0,1-.06,1.92,0,2.87.18,2.22,0,4.48.61,6.66s1.43,2.92,3.77,2.76c3.11-.21,7.06-1.58,8.1-6.2.18-.78.45-1.54.56-2.32.5-3.6.55-7.18-.9-10.6a8.27,8.27,0,0,0-7.81-5.35c-2.18-.09-3.06.59-3.65,2.66a10.27,10.27,0,0,0-.39,2.11C546,266.52,545.88,269,545.75,271.47Z"/><path class="cls-1" d="M413.28,295.15c-.7.61-.46,1.38-.49,2.06-.37,7.59-.71,15.17-1.06,22.76-.09,1.87-.1,1.9-2.12,1.91q-6.84,0-13.67,0c-1.93,0-2,0-2-2q0-16.43,0-32.86,0-15.83,0-31.66c0-.56,0-1.12,0-1.68,0-.82.37-1.15,1.16-1.12s1.6,0,2.4,0c4.08,0,8.16,0,12.23,0,1.86,0,1.88,0,2,1.81q.53,11.5,1.05,23a6.17,6.17,0,0,0,.28,2.31c.89-.05,1.08-.76,1.45-1.22,4.85-6.05,9.47-12.28,14.49-18.2a39.52,39.52,0,0,1,4.88-4.94,11.61,11.61,0,0,1,7.73-2.76c2.07,0,4.14,0,6.36,0-.15,1.17-1,1.7-1.62,2.35-7.51,8.08-15,16.21-22.18,24.57-.31.36-.62.74-.95,1.08a1,1,0,0,0,0,1.48c.35.44.64.92,1,1.38l21.6,31.71c.72,1.06,1.36,2.17,2.12,3.2,1.14,1.53,1.41,2.76-1.48,3.16a47,47,0,0,1-12.68,0,7.86,7.86,0,0,1-4.59-2.41,28,28,0,0,1-3.78-4.94c-3.56-5.69-7.09-11.4-10.63-17.11A5.74,5.74,0,0,0,413.28,295.15Z"/><path class="cls-1" d="M374.93,373.23c.09-1.71.2-3.3.25-4.89.22-8,.4-16,.66-24a61.75,61.75,0,0,1,.82-9.79c.59-3,1.48-3.77,4.51-3.82a27.66,27.66,0,0,1,3.12.06c2.18.21,2.93,1.08,2.86,3.31a25.47,25.47,0,0,1-.39,3.33,124.74,124.74,0,0,0-1.33,17.68c-.28,11.43-.37,22.86-.54,34.3a42.44,42.44,0,0,1-.48,6.21,13.5,13.5,0,0,1-.46,2.1c-.76,2.28-2.4,2.92-4.49,1.64a29.16,29.16,0,0,1-3.64-2.72,148.6,148.6,0,0,1-13.53-13.25c-8.49-9.35-16.9-18.78-25.35-28.17-.57-.64-1-1.44-1.86-1.8-.61.48-.48,1.16-.53,1.77a188.16,188.16,0,0,0-.73,19.16c.06,7.92.5,15.82.89,23.73.09,1.92.12,2-1.69,2-2.4,0-4.8,0-7.19-.18-2.59-.18-3-.87-2.5-3.35a75.3,75.3,0,0,0,1-12.41c.57-16.79.42-33.58.43-50.37,0-3.41-.32-2.82,2.9-3a15.92,15.92,0,0,1,11.75,4.47,184.82,184.82,0,0,1,14.84,15.33c6.45,7.21,12.85,14.47,19.28,21.7A2,2,0,0,0,374.93,373.23Z"/><path class="cls-1" d="M472.18,274.18c.08,6.53-.17,14.21.51,21.87a43.19,43.19,0,0,0,1.56,9c1.4,4.56,4.51,7,9.21,7.54a51.37,51.37,0,0,0,11.72.06,6.87,6.87,0,0,0,5.61-3.94,35.52,35.52,0,0,0,3.61-11.86c1.09-7.62,1.17-15.3,1.27-23,.09-6.4,0-12.8,0-19.2,0-2.06,0-2.07,2.13-2.09,1.52,0,3,0,4.56,0,2.6.09,3.6,1,4,3.56a42.16,42.16,0,0,1,.4,5,275.38,275.38,0,0,1-.89,30.2,57.78,57.78,0,0,1-2.65,13.13,27.84,27.84,0,0,1-11.83,14.63,15,15,0,0,1-6.75,2.32c-7.11.7-14.23.8-21.22-.94-10-2.49-15.69-9-17.48-19.07A93.33,93.33,0,0,1,454.5,288c-.35-11.12-.26-22.23-.26-33.35,0-2.13,0-2.15,2.06-2.16q7,0,13.92,0c1.92,0,2,0,2,2C472.19,260.71,472.18,266.87,472.18,274.18Z"/><path class="cls-1" d="M268.82,273.39c0-6.32,0-12.64,0-19,0-1.85,0-1.88,1.84-1.9,3,0,5.92,0,8.88,0,1.26,0,1.68.4,1.61,1.66-.24,4.47-.4,8.95-.6,13.42-.27,5.83-.52,11.66-.85,17.49A156,156,0,0,1,277.83,303c-1.68,9.62-7.28,15.39-16.78,17.37a60.48,60.48,0,0,1-23.35.39,16.54,16.54,0,0,1-7.73-3.61,51.23,51.23,0,0,1-4-3.75,19.78,19.78,0,0,1-5.64-12.9c-.21-3.11-.46-6.23-.47-9.34-.07-12.16-.06-24.32-.07-36.48,0-2.08,0-2.1,2.1-2.11q6.6,0,13.2,0c2.15,0,2.19,0,2,2.31-.4,5.9-.91,11.8-1.24,17.71-.54,9.6-.47,19.19,1.67,28.64a24.86,24.86,0,0,0,2.17,6.08,7.76,7.76,0,0,0,4.15,3.79,26.69,26.69,0,0,0,15.55,1.24,9.18,9.18,0,0,0,6.9-6.06,36,36,0,0,0,2-9.59c.62-6.14.51-12.3.57-18.46C268.83,276.59,268.82,275,268.82,273.39Z"/><path class="cls-1" d="M521.24,365.36q0-15.84,0-31.68c0-.56,0-1.12,0-1.68-.05-.93.38-1.29,1.28-1.26,1.2,0,2.4,0,3.6,0,8.24,0,16.48,0,24.72.05a33.76,33.76,0,0,1,7.86.75c2.17.53,2.75,1.37,2.79,3.55,0,2.77-.9,3.87-3.74,4.27-4.62.65-9.27.28-13.9.41-1.49,0-3.37-.68-4.38.38s-.27,2.75-.29,4.18c0,3.44,0,6.88,0,10.32s-.19,2.88,3,2.9c4.24,0,8.48,0,12.72,0a18.36,18.36,0,0,1,3.81.42,3.07,3.07,0,0,1,2.67,3,32.53,32.53,0,0,1,0,4.79c-.14,1.85-.88,2.51-2.75,2.69a24.84,24.84,0,0,1-5.25-.4c-4-.47-7.92-1.06-11.88-1.63-2.35-.34-2.36-.36-2.36,2.11q0,8.88,0,17.76c0,2.51,0,2.52,2.43,2.52,4.24,0,8.48,0,12.72,0a20.93,20.93,0,0,1,4.29.45,3,3,0,0,1,2.8,3.1,28.54,28.54,0,0,1,0,4.07,2.87,2.87,0,0,1-2.26,2.77,16.27,16.27,0,0,1-4,.61c-10.72.27-21.44.11-32.16.14-1.71,0-1.74-.05-1.75-2Q521.23,381.68,521.24,365.36Z"/><path class="cls-1" d="M201,399.88c-1.68,0-3.36,0-5,0a5.32,5.32,0,0,1-5.24-3.82c-.89-2.4-1.49-4.89-2.17-7.35s-1.36-5.09-2-7.64c-.22-.84-.54-1.43-1.61-1.33-5.8.57-11.66.5-17.45,1.31a6.48,6.48,0,0,0-5.58,4.28c-.83,2.16-1.57,4.36-2.36,6.53a32.21,32.21,0,0,1-2.09,4.83A5.86,5.86,0,0,1,152,400a15,15,0,0,1-3.82-.28c-1.77-.46-2-1-1.37-2.73,2.38-6,4.76-12,7.19-18,4.76-11.77,9.3-23.64,14.34-35.3a86,86,0,0,1,4.54-9.25,16,16,0,0,1,2.88-3.82c1.85-1.7,3.44-1.7,5.28,0a15.48,15.48,0,0,1,2.88,3.81,108.66,108.66,0,0,1,6.57,14.11q9.67,24.13,19.28,48.29c.86,2.15.82,2.18-1.36,2.71C206,400.06,203.49,399.85,201,399.88ZM174.43,352c-1.91,5.47-4,10.22-5.3,15.24-.62,2.4,0,3.37,2.41,3.59a32.36,32.36,0,0,0,8.82-.27c1.41-.26,1.52-.36,1-1.7-1.36-3.49-2.78-7-4.2-10.42C176.35,356.51,175.5,354.55,174.43,352Z"/><path class="cls-1" d="M275.53,365.27q0-15.83,0-31.66c0-.56,0-1.12,0-1.68,0-.77.26-1.22,1.1-1.19.32,0,.64,0,1,0,9,0,18.07,0,27.1.07a46.23,46.23,0,0,1,6.68.54c2.76.43,3.53,1.51,3.44,4.23-.08,2.31-.89,3.33-3.24,3.71a36.32,36.32,0,0,1-5,.43c-3.76.07-7.51,0-11.27,0-1.73,0-1.77,0-1.78,1.68q0,7.19,0,14.39c0,1.68.05,1.71,1.76,1.72,3.84,0,7.67,0,11.51,0a15.22,15.22,0,0,1,3.81.36c1.94.51,2.56,1.14,2.82,3.05a17.25,17.25,0,0,1,0,4.78c-.26,1.83-.8,2.34-2.63,2.44a44.85,44.85,0,0,1-7.86-.77c-1.59-.2-3.16-.47-4.75-.62-3.06-.29-4.24.52-5.09,3.44a39.71,39.71,0,0,0-1.59,8.95,18,18,0,0,0,.17,3.1,6.28,6.28,0,0,0,4.44,5.44,21.17,21.17,0,0,0,6.84,1,49.23,49.23,0,0,1,8.13.34c2.78.52,3.48,1.24,3.78,4.08a25.7,25.7,0,0,1,.19,3.34,2.72,2.72,0,0,1-2.26,2.73,17.17,17.17,0,0,1-3.79.54c-10.55.32-21.1.16-31.65.19-1.79,0-1.82-.05-1.82-1.91Q275.52,381.7,275.53,365.27Z"/><path class="cls-1" d="M570.4,365.53q0-16.07,0-32.15c0-3.11.09-2.63,2.55-2.63q12.11,0,24.23,0a41.58,41.58,0,0,1,7.4.62c3.14.58,4.2,1.77,4.72,4.89.28,1.71-.25,2.62-1.94,3a31.37,31.37,0,0,1-6,.49,47.3,47.3,0,0,0-8.37.38c-4.43.85-6,2.53-6.66,6.92a32.22,32.22,0,0,0-.3,6.22c.13,2.64.94,3.47,3.58,3.94,3.41.6,6.86.27,10.29.37a32,32,0,0,1,5.49.4A3.26,3.26,0,0,1,608.3,361a16.63,16.63,0,0,1,0,4.3c-.28,2.18-.92,2.74-3.1,2.83a50.35,50.35,0,0,1-7.87-.72c-3.09-.37-6.17-.85-9.27-1.21-2-.24-2.06-.18-2.06,1.74q0,9.48,0,19c0,1.85,0,1.88,1.83,1.89q7.08,0,14.15,0a22.8,22.8,0,0,1,4.53.45c1.95.39,2.71,1.26,2.91,3.26a21,21,0,0,1,.05,2.16c0,3.63-.69,4.47-4.34,5a35.16,35.16,0,0,1-4.55.23q-14,.07-28.07.08c-2.13,0-2.15,0-2.15-2.31Q570.39,381.6,570.4,365.53Z"/><path class="cls-1" d="M485.29,399.74a33.15,33.15,0,0,1-8.13-.86c-4.14-1.1-6.11-3.77-6-8.05a13.81,13.81,0,0,1,1.79-6.64,5.22,5.22,0,0,1,1.52-1.83c.95-.64,1.85-.4,2,.71.46,4,3.67,5.62,6.48,7.48a11.18,11.18,0,0,0,8.71,1.68c3.5-.75,6-2.72,6.92-6.21a8.07,8.07,0,0,0-2.68-8.86,45.21,45.21,0,0,0-7.82-5.09,46.08,46.08,0,0,1-11.51-8.53,24.86,24.86,0,0,1-5.87-9.23,13.32,13.32,0,0,1-.06-8.7,27.7,27.7,0,0,1,7.95-12.07,12.58,12.58,0,0,1,3.16-2.16c6.3-2.85,12.81-3.87,19.61-2.11a12.79,12.79,0,0,1,6.25,3.37c2.69,2.81,2.31,8.35-.71,10.79a1.83,1.83,0,0,1-2.77-.1,5.38,5.38,0,0,1-1.27-2,4.93,4.93,0,0,0-3.27-2.94,17.47,17.47,0,0,0-11.07-.12,6.45,6.45,0,0,0-2.88,10.5,17.75,17.75,0,0,0,3,2.71,63.45,63.45,0,0,0,9.22,5.57,55.6,55.6,0,0,1,9,5.52,15.94,15.94,0,0,1,6.35,11.37,29,29,0,0,1-.51,10A17.81,17.81,0,0,1,504,395.47a31.42,31.42,0,0,1-12.51,3.82C489.24,399.55,487,399.62,485.29,399.74Z"/><path class="cls-1" d="M293.42,287q0-15.47,0-30.95c0-.48,0-1,0-1.44,0-2.07,0-2.09,2.14-2.09,8.56,0,17.11,0,25.67,0,2.31,0,4.63.25,6.94.41a8.32,8.32,0,0,1,1.41.25c2.55.63,3.12,1.38,3.07,4,0,2.49-.83,3.38-3.34,3.86a43.28,43.28,0,0,1-7.65.42,33,33,0,0,0-6.44.51,6.67,6.67,0,0,0-5.66,5.74,30.85,30.85,0,0,0-.45,7.41c.14,2.48.94,3.29,3.46,3.8,2.69.54,5.42.27,8.13.36,2.47.08,5-.15,7.41.37s3,1.12,3.26,3.46a15.39,15.39,0,0,1,0,4.3c-.32,2.08-1,2.79-3.13,2.91a67.52,67.52,0,0,1-9.34-.26c-2.87-.23-5.74-.4-8.61-.65-1.19-.11-1.53.32-1.41,1.49.64,6.6,1.23,13.21,1.83,19.81.28,3.1.59,6.21.82,9.31.13,1.65.07,1.72-1.43,1.73-5,0-10.08,0-15.11,0-1.37,0-1.56-.64-1.55-1.77,0-4.56,0-9.12,0-13.67Q293.42,296.73,293.42,287Z"/><path class="cls-1" d="M634.63,380.62a32.62,32.62,0,0,1,7-20.55,96.75,96.75,0,0,1,22.45-20.77,24.25,24.25,0,0,1,6.23-3c7.31-2.34,11.42,2.86,11.72,8.37a5.67,5.67,0,0,1-.22,2.37c-.3.77-.71,1.45-1.65,1.55a2,2,0,0,1-2.09-1.29,6.28,6.28,0,0,1-.46-2.33c-.27-2.27-1.33-3.05-3.6-2.67a11.48,11.48,0,0,0-3.58,1.32A63,63,0,0,0,649.62,361a35.93,35.93,0,0,0-7.48,22.09,12.58,12.58,0,0,0,.51,3.55,6.34,6.34,0,0,0,4.73,4.62c3.35.89,6.68.4,10-.18,4.09-.72,8.13-1.69,12.15-2.77a10.79,10.79,0,0,0,5.56-3.55,37.29,37.29,0,0,0,5.27-8,16,16,0,0,0,1-2.45c.68-2.31.23-2.92-2.18-2.83-4.58.17-9,1.3-13.48,2.14a72.49,72.49,0,0,1-14.5,1.72,9.68,9.68,0,0,1-3.31-.48c-1.75-.66-2-2.06-.51-3.28a9.47,9.47,0,0,1,3.24-1.52A88,88,0,0,1,662,367.41c6.76-1.24,13.5-2.58,20.34-3.33a17.33,17.33,0,0,1,6.44.15c2.16.58,2.91,1.56,2.92,3.76a13.37,13.37,0,0,1-.9,4.44,91.68,91.68,0,0,1-4.74,10.74c-3.23,6.52-6.45,13-9.08,19.83a20,20,0,0,0-1.75,7.42,8.19,8.19,0,0,1-.92,3.69c-1.07,2.16-2.77,2.78-5,1.8a12.9,12.9,0,0,1-3.33-2.32,3.14,3.14,0,0,1-.95-3.68,40.08,40.08,0,0,1,1.73-3.95c.93-1.95,1.9-3.87,2.76-5.85.47-1.08,1.16-2.38.21-3.37s-2.28-.33-3.41,0-2.28.75-3.4,1.16a39.46,39.46,0,0,1-9.3,2.21,19.27,19.27,0,0,1-8.74-1c-6-2.17-8.83-6.83-9.89-12.8A24.29,24.29,0,0,1,634.63,380.62Z"/><path class="cls-1" d="M737.92,291.51q0-13.32,0-26.64c0-.56,0-1.12,0-1.68.11-1.22-.35-1.7-1.63-1.67-3,.07-5.92,0-8.88,0a20.24,20.24,0,0,1-4.05-.39c-2.4-.48-3.29-1.53-3.34-3.94s.71-3.24,3.09-3.83a33.92,33.92,0,0,1,7.63-.7c12.15-.19,24.31-.46,36.46.23a13.48,13.48,0,0,1,3.3.54c1.55.49,1.91,1.07,1.77,2.66a5.33,5.33,0,0,1-4.42,5c-2.68.64-5.41.4-8.13.42-3.89,0-3.89,0-3.89,3.91q0,26.88,0,53.75c0,2.44.57,2.68-2.53,2.67-4.32,0-8.64,0-13,0-2.42,0-2.43,0-2.43-2.53Q737.91,305.43,737.92,291.51Z"/><path class="cls-1" d="M353.71,291.56q0-13.91,0-27.82c0-2.17,0-2.17-2.24-2.18h-8.4a19.77,19.77,0,0,1-3.58-.33c-3.08-.56-4.47-2.89-3.44-5.8a2.88,2.88,0,0,1,2.08-1.82,15.48,15.48,0,0,1,3.53-.63q19.9-1,39.79,0a15.81,15.81,0,0,1,2.6.4c2.6.58,3.26,1.4,3.2,3.92s-.86,3.4-3.32,3.91c-3,.62-6.06.27-9.09.34-3.59.09-3.18-.49-3.19,3.2q0,27,0,54c0,.64,0,1.28,0,1.92,0,.93-.43,1.25-1.32,1.25-5,0-10.07,0-15.11,0-1.12,0-1.65-.38-1.52-1.54a13.65,13.65,0,0,0,0-1.44Q353.71,305.24,353.71,291.56Z"/><path class="cls-1" d="M170.64,287.05q0-15.71,0-31.43c0-.48,0-1,0-1.44-.11-1.21.32-1.71,1.62-1.68,3.36.08,6.72,0,10.07,0,1.6,0,3.2,0,4.8,0,1,0,1.46.39,1.38,1.41,0,.56,0,1.12,0,1.68q0,26.87,0,53.74c0,.56,0,1.12,0,1.68.06,1.53.07,1.61,1.67,1.44,4.85-.52,9.68-1.1,14.53-1.67a12.36,12.36,0,0,1,3.58-.05c1.62.28,2.29.9,2.37,2.52.13,2.47.07,5,.11,7.43,0,.8-.34,1.18-1.14,1.17-.48,0-1,0-1.44,0H172.92c-2.26,0-2.28,0-2.28-2.19,0-4.4,0-8.8,0-13.19Q170.64,296.77,170.64,287.05Z"/><path class="cls-1" d="M708.26,380c.1-.16.18-.46.43-.26s.08.41-.05.61Z"/></g></g></svg>