<?xml version="1.0" encoding="UTF-8" standalone="no"?><!DOCTYPE svg PUBLIC "-//W3C//DTD SVG 1.1//EN" "http://www.w3.org/Graphics/SVG/1.1/DTD/svg11.dtd"><svg width="100%" height="100%" viewBox="0 0 334 52" version="1.1" xmlns="http://www.w3.org/2000/svg" xmlns:xlink="http://www.w3.org/1999/xlink" xml:space="preserve" xmlns:serif="http://www.serif.com/" style="fill-rule:evenodd;clip-rule:evenodd;stroke-linejoin:round;stroke-miterlimit:2;"><g><path d="M69.64,11.086l-0,25.579l17.89,-0l-0,5.165l-17.89,-0c-2.89,-0 -5.166,-2.275 -5.166,-5.165l-0,-25.579l5.166,-0Z" style="fill:#fff;fill-rule:nonzero;"/><path d="M249.354,16.25l0,7.626l15.496,-0c2.89,-0 5.164,2.213 5.164,5.164l0,7.625c0,2.89 -2.274,5.165 -5.164,5.165l-15.496,-0c-2.891,-0 -5.164,-2.275 -5.164,-5.165l20.66,-0l0,-7.625l-15.496,0c-2.891,0 -5.164,-2.582 -5.164,-5.164l0,-7.626c0,-2.889 2.273,-5.164 5.164,-5.164l15.496,-0c2.89,-0 5.164,2.275 5.164,5.164l-20.66,0Z" style="fill:#fff;fill-rule:nonzero;"/><path d="M51.023,26.458c-0,14.387 -11.389,25.542 -25.633,25.542c-14.363,-0 -25.39,-11.155 -25.39,-25.542c-0,-14.387 11.027,-25.481 25.39,-25.481c14.244,0 25.633,11.094 25.633,25.481Zm-49.631,0c-0,13.351 10.665,24.142 23.998,24.142c13.394,0 24.001,-10.791 24.001,-24.142c-0,-13.107 -10.607,-24.14 -24.001,-24.14c-13.333,0 -23.998,11.033 -23.998,24.14Z" style="fill:#fff;fill-rule:nonzero;"/><path d="M25.39,11.294c8.373,-0 15.162,6.792 15.162,15.164c-0,8.371 -6.789,15.165 -15.162,15.165c-8.371,0 -15.165,-6.794 -15.165,-15.165c0,-8.372 6.794,-15.164 15.165,-15.164Z" style="fill:#fff;fill-rule:nonzero;"/><path d="M159.015,11.086l-0,25.579l17.891,-0l0,5.165l-17.891,-0c-2.891,-0 -5.166,-2.275 -5.166,-5.165l-0,-25.579l5.166,-0Z" style="fill:#fff;fill-rule:nonzero;"/><path d="M97.289,36.665l0,-7.626l15.816,-0l0,-5.163l-15.816,-0l0,-7.626l20.539,0l0,-5.165l-25.704,-0l0,30.745l25.704,-0l0,-5.165l-20.539,-0Z" style="fill:#fff;fill-rule:nonzero;"/><path d="M186.394,36.665l-0,-7.626l15.816,-0l0,-5.163l-15.816,-0l-0,-7.626l20.538,0l0,-5.165l-25.703,-0l0,30.745l25.703,-0l0,-5.165l-20.538,-0Z" style="fill:#fff;fill-rule:nonzero;"/><path d="M300.66,16.25l0,-5.165l-25.703,-0l0,30.745l25.703,-0l0,-5.165l-20.538,-0l0,-7.626l15.815,-0l0,-5.163l-15.815,-0l0,-7.626l20.538,0Z" style="fill:#fff;fill-rule:nonzero;"/><path d="M149.216,26.319c0,-4.412 0.332,-9.13 -2.996,-12.429c-1.954,-1.939 -4.241,-2.804 -7.32,-2.804l-15.91,-0l-0,30.743l13.657,0l2.253,-0.028c3.079,-0 5.366,-0.866 7.32,-2.804c3.328,-3.299 2.996,-8.265 2.996,-12.678Zm-5.283,0c-0,4.455 -0.166,7.235 -1.248,8.555c-0.998,1.195 -2.329,1.791 -4.325,1.791l-10.149,-0l-0,-20.466l10.149,-0.001c1.996,0 3.327,0.62 4.325,1.816c1.082,1.319 1.248,3.851 1.248,8.305Z" style="fill:#fff;fill-rule:nonzero;"/><path d="M331.363,23.937l0,-7.686c0,-2.89 -2.276,-5.165 -5.164,-5.165l-20.659,-0l0,30.744l5.163,-0l0,-12.605l7.59,0l9.374,12.605l5.654,-0l-9.005,-12.605l1.883,0c2.888,0 5.164,-2.706 5.164,-5.288Zm-5.164,0.123l-15.545,-0l-0,-7.809l15.545,-0l0,7.809Z" style="fill:#fff;fill-rule:nonzero;"/><path d="M212.094,11.117l17.349,0c6.265,0 10.436,4.408 10.436,11.668l-0,19.076l-5.165,0l0,-18.446c0,-5.452 -3.305,-7.133 -5.847,-7.133l-11.607,0l-0,25.579l-5.166,0l-0,-30.744Z" style="fill:#fff;fill-rule:nonzero;"/></g></svg>