<svg xmlns="http://www.w3.org/2000/svg" viewBox="0 0 614.98 134.34"><defs><style>.cls-1{fill:#fff;}.cls-2{fill:none;stroke:#fff;stroke-miterlimit:10;stroke-width:0.5px;}</style></defs><title>Element 2</title><g id="Ebene_2" data-name="Ebene 2"><g id="Ebene_1-2" data-name="Ebene 1"><path class="cls-1" d="M92.48,1h6.44V71.66H80.51V40.26L65.51,56h-2L48.6,40.26v31.4H30.18V1h6.64L64.4,31.6Z"/><path class="cls-1" d="M108.48,36.54c0-48.72,72.27-48.72,72.27,0S108.48,85.35,108.48,36.54Zm53.85,0c0-25.36-35.33-25.36-35.33,0C127,62.1,162.33,62.1,162.33,36.54Z"/><path class="cls-1" d="M162.23,36.54c0-48.72,72.27-48.72,72.27,0S162.23,85.35,162.23,36.54Zm53.85,0c0-25.36-35.33-25.36-35.33,0C180.75,62.1,216.08,62.1,216.08,36.54Z"/><path class="cls-1" d="M264.28,37V71.66H245.66V.91h6.54l35.63,34.83V1.21h18.42V71.76h-6.44Z"/><path class="cls-1" d="M326.56,71.91h-6.44V1.25h18.42v31.4l15-15.7h2l14.9,15.7V1.25h18.42V71.91h-6.64l-27.58-30.6Z"/><path class="cls-1" d="M498.25,55.7h26.11v16.2H480.14V1.45h18.12Z"/><path class="cls-1" d="M553.85,49.06V71.91H535.53V1.45h51.8v16.1H553.85V33h23.8v16.1Z"/><path class="cls-1" d="M435.71,73.1c0-.11.08-.29.08-.29a1.14,1.14,0,0,0-.26.16l-.16.18.14-.5-.4.24a2.35,2.35,0,0,0,.26-.45c0-.11,0-.26,0-.26a.66.66,0,0,0-.35.06,1.64,1.64,0,0,0-.33.25,2.24,2.24,0,0,1,.15-.55c.09-.17.25-.42.25-.42h-.4l.21-.19-.2,0c-.12,0-.29.24-.29.24a.86.86,0,0,1,.21-.43A1.66,1.66,0,0,1,435,71l-.61,0,.48-.35-.51-.12.37-.2-.27-.16a1.14,1.14,0,0,1,.35-.23,1,1,0,0,0,.21-.08.48.48,0,0,0-.41-.22l-.33,0a2.46,2.46,0,0,1,.11-.25c0-.05.14-.31.14-.31l-.62-.55h.43l-.19,0s.23.06.29,0,0-.08,0-.08h-.55l.34-.11-.25-.12.08.17,0,.18h.15s0-.33-.08-.41a.64.64,0,0,1-.15-.22l.15-.14s0-.15-.09-.15-.42,0-.42,0a1.89,1.89,0,0,0,.34-.21.78.78,0,0,0,.08-.19s-.07-.12-.13-.13h-.43a2,2,0,0,1,.4-.25,1.87,1.87,0,0,1,.46-.09l-.64-.3a1,1,0,0,1-.26-.17l.21-.09-.39-.28a.71.71,0,0,1-.17-.33h.35a2.36,2.36,0,0,1-.41-.33,2.18,2.18,0,0,1-.15-.3l.32-.13a1.61,1.61,0,0,0,.27-.16.79.79,0,0,0-.36-.13,3.87,3.87,0,0,0-.56.06,3.68,3.68,0,0,1,.48-.34l.36-.18-.27-.09.12-.17-.49-.08.58-.33-.38-.16.34-.4-.17-.25.2-.32a5.45,5.45,0,0,0,.17-1.2,15.3,15.3,0,0,0-.37-2.24.82.82,0,0,1,0-.45,6.48,6.48,0,0,0,.09-.95l-.19.11.28-.61-.19-.05.21-.37-.14-.15,0-.47.09-.32a.13.13,0,0,0-.12,0,.57.57,0,0,0-.11.13,3.49,3.49,0,0,1,.06-.63,3.09,3.09,0,0,1,.17-.47.4.4,0,0,0-.23.05l-.12.09a2.74,2.74,0,0,1,.1-.5,3.77,3.77,0,0,1,.22-.49.36.36,0,0,0-.17.07l-.12.12a3.06,3.06,0,0,1,.18-.4,2.7,2.7,0,0,1,.22-.3.5.5,0,0,0-.12-.19l-.14-.1s.11-.2.06-.28-.63.32-.63.32l.52-.89s0-.13,0-.14a.58.58,0,0,0-.16,0s.37-.24.3-.51-.47-.11-.47-.11.74-1,.55-1.2a.58.58,0,0,0-.48-.2s.61-.42.42-.73-.4.06-.4.06a2.38,2.38,0,0,1,.31-.49.27.27,0,0,0,.1-.29c0-.12-.27-.12-.27-.12s.32-.41.35-.49a.92.92,0,0,0,0-.3h-.17s.24,0,.24-.13-.35-.07-.35-.07.35,0,.36-.56a4.89,4.89,0,0,0-.43-1.47c-.1-.34,0-.48-.22-.85s-1-1.21-1.31-1.63l-1.31-1.63a1.86,1.86,0,0,1-.21-.48,2.81,2.81,0,0,1,.26-1.94,5.06,5.06,0,0,1,1.51-1.54l.08.89.8.64s.06.08.11.08.19-.1.19-.1l1-.88a3.63,3.63,0,0,0,.18-.37,22.6,22.6,0,0,1,.29-2.77,8.67,8.67,0,0,1,.66-1.28,16.15,16.15,0,0,1,1-1.83,11.16,11.16,0,0,1,1.39-1.05s0-.17-.1-.2a2.12,2.12,0,0,1-.21-.16s-.07-.26,0-.32a1.92,1.92,0,0,1,1.57-.59c.86.14,1.42,1.31,1.63,1.71a10.12,10.12,0,0,0,.88,1.73c.37.47.92,1.09,1.19,1.54s1,1.68,1,1.68a7.45,7.45,0,0,1,3.13.89,11,11,0,0,1,2.57,2,9.28,9.28,0,0,1,1.55,3.11A11.71,11.71,0,0,0,451.82,45c.6.79,1.19.92,1.49,1.37s.2.91.56,1.24.83.6,1,.84,1.22,1.65,1.63,2.07,1.18,1.09,1.38,1.4,1.45,1.81,1.45,1.81l-.84.48-.88.5a5.5,5.5,0,0,0,1,1.64c.42.29,2.08.33,3.41,1.4s.86,1.21,1.52,1.57c.06,0,.15-.08.25-.07,4.25-5.76,6.88-12.71,6.88-22.71,0-48-72.27-48-72.27,0,0,25,18.8,37.21,37.22,36.71C435.66,73.15,435.68,73.18,435.71,73.1Z"/><path class="cls-1" d="M435.94,73.3l-.07.06h.44l0-.14A.59.59,0,0,0,435.94,73.3Z"/><path class="cls-1" d="M29.91,120.26a.58.58,0,0,1,.57-.59h9.9a.34.34,0,1,1,0,.68H30.64v6.86h9.29a.33.33,0,1,1,0,.66H30.64v6a.36.36,0,1,1-.72,0Z"/><path class="cls-1" d="M71.68,119.94a.41.41,0,1,1,.82,0v13.75a.41.41,0,0,1-.82,0Z"/><path class="cls-1" d="M104.94,134.07c-.3,0-.41-.16-.41-.43v-13.7a.39.39,0,1,1,.77,0v13.43h9.51a.35.35,0,1,1,0,.7Z"/><path class="cls-1" d="M158.66,119.83c.25-.38.75-.27.75.18v13.7a.39.39,0,1,1-.77,0V121.23l-5.84,9.17a.44.44,0,0,1-.79,0l-5.84-9.13v12.43a.39.39,0,1,1-.77,0V120a.38.38,0,0,1,.72-.18l6.3,9.8Z"/><path class="cls-1" d="M192.14,129.59v4.17a.37.37,0,0,1-.75,0V120a.38.38,0,0,1,.38-.38h5.14c3.83,0,5.78,2.58,5.78,5.14s-1.88,4.8-5.75,4.8Zm0-.7h4.8c3.53,0,5-2.06,5-4.1a4.68,4.68,0,0,0-5-4.44h-4.8Z"/><path class="cls-1" d="M234,128.75v5a.37.37,0,0,1-.75,0V120a.37.37,0,0,1,.38-.38h5.71c3.83,0,5.77,2.15,5.77,4.71s-1.63,4.17-4.94,4.42l4.69,4.82c.36.38-.11.88-.48.52l-5.09-5.37Zm0-.66h5.37c3.51,0,5-1.68,5-3.74,0-2.22-1.88-4-5-4H234Z"/><path class="cls-1" d="M275.59,126.62c.11-3.51,2.29-6.61,5.84-7.18a8.85,8.85,0,0,1,2.45,0,7.47,7.47,0,1,1-8.29,7.18Zm.77,0a6.44,6.44,0,1,0,7.41-6.48,7.29,7.29,0,0,0-2.22,0C278.35,120.66,276.45,123.47,276.36,126.64Z"/><path class="cls-1" d="M320.89,134.07a.6.6,0,0,1-.61-.59V120.23a.59.59,0,0,1,.61-.57h5.25c8.88,0,8.88,14.4,0,14.4Zm.13-.7h5.12c7.88,0,7.88-13,0-13H321Z"/><path class="cls-1" d="M376.2,119.85a.37.37,0,0,1,.75,0v7.9c0,8.65-13.07,8.65-13.07,0v-7.9a.36.36,0,1,1,.72,0v7.88c0,7.65,11.59,7.65,11.59,0Z"/><path class="cls-1" d="M419.37,119.6c.38-.34,1,.18.59.52l-6.75,6,7.13,7.45c.41.36-.2.86-.54.5l-7.13-7.47-3,2.67v4.55a.36.36,0,0,1-.38.36.38.38,0,0,1-.38-.36v-13.9a.4.4,0,0,1,.38-.39.38.38,0,0,1,.38.39v8.47Z"/><path class="cls-1" d="M461.7,119.65c.54,0,.54.68,0,.68h-5.86l0,13.41a.41.41,0,0,1-.41.43.39.39,0,0,1-.39-.43V120.32h-5.84c-.54,0-.54-.68,0-.68Z"/><path class="cls-1" d="M492.13,119.94a.41.41,0,1,1,.82,0v13.75a.41.41,0,0,1-.82,0Z"/><path class="cls-1" d="M524.09,126.62c.11-3.51,2.29-6.61,5.84-7.18a8.85,8.85,0,0,1,2.45,0,7.47,7.47,0,1,1-8.29,7.18Zm.77,0a6.44,6.44,0,1,0,7.41-6.48,7.29,7.29,0,0,0-2.22,0C526.85,120.66,525,123.47,524.86,126.64Z"/><path class="cls-1" d="M580.26,120a.39.39,0,1,1,.77,0v13.63c0,.54-.5.54-.79.18L570.39,121v12.7a.37.37,0,1,1-.75,0V120.05c0-.57.48-.63.79-.23l9.83,12.84Z"/><line class="cls-2" y1="92.78" x2="614.98" y2="92.78"/></g></g></svg>