<?xml version="1.0" encoding="utf-8"?>
<!-- Generator: Adobe Illustrator 22.1.0, SVG Export Plug-In . SVG Version: 6.00 Build 0)  -->
<svg version="1.2" baseProfile="tiny"
	 id="svg115845" inkscape:version="0.44" sodipodi:docbase="C:\Dokumente und Einstellungen\Andreas\Eigene Dateien\Eigene Bilder\sonstiges\Logos\Vektor" sodipodi:docname="Sennheiser-Logo.svg" sodipodi:version="0.32" xmlns:cc="http://web.resource.org/cc/" xmlns:dc="http://purl.org/dc/elements/1.1/" xmlns:inkscape="http://www.inkscape.org/namespaces/inkscape" xmlns:rdf="http://www.w3.org/1999/02/22-rdf-syntax-ns#" xmlns:sodipodi="http://sodipodi.sourceforge.net/DTD/sodipodi-0.dtd" xmlns:svg="http://www.w3.org/2000/svg"
	 xmlns="http://www.w3.org/2000/svg" xmlns:xlink="http://www.w3.org/1999/xlink" x="0px" y="0px" viewBox="0 0 908.5 94.1"
	 xml:space="preserve">
<sodipodi:namedview  bordercolor="#666666" borderopacity="1.0" id="base" inkscape:current-layer="layer1" inkscape:cx="350" inkscape:cy="97.718912" inkscape:document-units="px" inkscape:pageopacity="0.0" inkscape:pageshadow="2" inkscape:window-height="574" inkscape:window-width="904" inkscape:window-x="141" inkscape:window-y="185" inkscape:zoom="0.35" pagecolor="#ffffff">
	</sodipodi:namedview>
<g id="layer1" transform="translate(-434.7911,-638.1495)" inkscape:groupmode="layer" inkscape:label="Ebene 1">
	<g id="g116099">
		<path id="path1162" fill="#FFFFFF" d="M615.5,714.7v-11.6c0,0,14.6,0.1,17.1,0c2.4-0.2,3.8-2.2,2-4.6c-1.8-2.3-13.7-18.3-16.5-22
			c-3.6-4.9-4.1-19.4,10.6-19.4h36.4v11.6H647c0,0-2.6,1.6-1.3,3.7c1.3,2,15.9,21.5,17.6,24c1.8,2.5,1.8,7.1,1.8,8.1
			c0,1-2.3,10.5-10.9,10.3C645.7,714.6,615.5,714.7,615.5,714.7"/>
		<path id="path1164" fill="#FFFFFF" d="M684.5,657h50.1v11.6H709v12.2h25.6v11.3H709v10.6h25.6v11.9h-50.1V657"/>
		<path id="path1166" fill="#FFFFFF" d="M756.2,714.7V657h26.2l24.1,36.2V657h11.2v57.7h-26.2l-24.1-36.5v36.5H756.2"/>
		<path id="path1168" fill="#FFFFFF" d="M838,714.7V657h26.2l24.1,36.2V657h11.2v57.7h-26.2l-24.1-36.5v36.5H838"/>
		<path id="path1170" fill="#FFFFFF" d="M1016,657h50.1v11.6h-25.6v12.2h25.6v11.3h-25.6v10.6h25.6v11.9H1016V657"/>
		<path id="path1172" fill="#FFFFFF" d="M1201.6,657h50v11.6h-25.6v12.2h25.6v11.3h-25.6v10.6h25.6v11.9h-50V657"/>
		<path id="path1174" fill="#FFFFFF" d="M1132.8,714.7v-11.6c0,0,14.6,0.1,17.1,0c2.5-0.2,3.8-2.2,2-4.6c-1.7-2.3-13.6-18.3-16.4-22
			c-3.7-4.9-4.1-19.4,10.6-19.4h36.3v11.6h-18.1c0,0-2.6,1.6-1.3,3.7c1.3,2,15.9,21.5,17.7,24c1.7,2.5,1.7,7.1,1.7,8.1
			c0,1-2.3,10.5-10.9,10.3C1163,714.6,1132.8,714.7,1132.8,714.7"/>
		<path id="path1176" fill="#FFFFFF" d="M922.5,657h24v22.8h20.9V657h24.1v57.7h-24.1v-22.5h-20.9v22.5h-24V657"/>
		<path id="path1178" fill="#FFFFFF" d="M1087.6,657h25.6v57.7h-25.6V657z"/>
		<path id="path1186" fill="#FFFFFF" d="M1297.9,668.6h16c0,0,4.8,0.9,4.8,6.2c0,5-4.8,6-4.8,6h-16V668.6z M1273.4,714.7h24.4v-22.5
			h10.6l12.5,22.5h22.4l-12.8-24.1c0,0,11.8-3.9,11.8-16.8c0-16.6-18-16.7-18-16.7h-50.9V714.7"/>
		<path id="path1188" fill="#FFFFFF" d="M561.4,723.4h-57.1c-0.5,1-3,5.3-6.9,8.8h72.2v-71h-8.2V723.4 M443.1,647.1h54
			c2.2-3.3,3.5-5.3,3.5-5.3c0.9-1.3,2.2-2.4,3.6-3.5h-69.3v70.8h8.2V647.1 M504.5,644.5l-38.5,59.3c-2,3-9.1,10-13.6,10h-17.5v18.3
			c10.5,0,52.7,0,52.6,0c6-0.2,12.1-7.8,13.6-10.8c0,0,35.1-55.6,37.2-58.7c3-4.5,10.9-6.2,15.2-6.2l16.2-0.2v-17.9
			c-10.5,0-51.9-0.2-51.9-0.2C513.2,638.1,506.8,641.2,504.5,644.5"/>
	</g>
</g>
</svg>
