<?xml version="1.0" encoding="UTF-8" standalone="no"?><!DOCTYPE svg PUBLIC "-//W3C//DTD SVG 1.1//EN" "http://www.w3.org/Graphics/SVG/1.1/DTD/svg11.dtd"><svg width="100%" height="100%" viewBox="0 0 227 108" version="1.1" xmlns="http://www.w3.org/2000/svg" xmlns:xlink="http://www.w3.org/1999/xlink" xml:space="preserve" xmlns:serif="http://www.serif.com/" style="fill-rule:evenodd;clip-rule:evenodd;stroke-linejoin:round;stroke-miterlimit:2;"><g><path d="M54.491,34.913l0,34.379l-8.925,-0l0,-14.447l-2.717,0l-0,14.447l-8.924,-0l-0,-34.379l8.924,0l-0,12.276l2.717,-0l0,-12.276l8.925,0Z" style="fill:#fff;fill-rule:nonzero;"/><path d="M65.333,52.037l-8.063,-0l0,-1.892c0,-2.176 0.252,-3.859 0.755,-5.035c0.504,-1.183 1.517,-2.226 3.033,-3.13c1.518,-0.907 3.491,-1.361 5.917,-1.361c2.906,0 5.101,0.515 6.575,1.543c1.475,1.021 2.364,2.282 2.661,3.774c0.297,1.493 0.446,4.568 0.446,9.222l-0,14.134l-8.335,-0l-0,-2.517c-0.527,1.007 -1.205,1.76 -2.037,2.264c-0.832,0.498 -1.824,0.753 -2.977,0.753c-1.508,-0 -2.892,-0.422 -4.151,-1.261c-1.257,-0.844 -1.887,-2.684 -1.887,-5.525l0,-2.313c0,-2.111 0.333,-3.543 1.002,-4.309c0.671,-0.763 2.328,-1.652 4.978,-2.673c2.832,-1.102 4.348,-1.846 4.547,-2.227c0.201,-0.381 0.298,-1.161 0.298,-2.337c0,-1.474 -0.111,-2.429 -0.333,-2.876c-0.225,-0.448 -0.594,-0.666 -1.11,-0.666c-0.592,-0 -0.96,0.186 -1.103,0.558c-0.143,0.376 -0.216,1.352 -0.216,2.921l0,2.953Zm2.762,3.861c-1.395,1.008 -2.204,1.846 -2.428,2.527c-0.223,0.68 -0.334,1.655 -0.334,2.926c0,1.455 0.097,2.399 0.291,2.826c0.193,0.422 0.58,0.631 1.156,0.631c0.547,-0 0.903,-0.164 1.069,-0.496c0.165,-0.334 0.246,-1.207 0.246,-2.621l0,-5.793Z" style="fill:#fff;fill-rule:nonzero;"/><path d="M88.259,41.118l-0.147,2.499c0.763,-1.005 1.601,-1.759 2.519,-2.253c0.918,-0.496 1.922,-0.745 3.01,-0.745c1.327,0 2.476,0.36 3.443,1.072c0.965,0.716 1.571,1.542 1.811,2.471c0.238,0.934 0.359,2.517 0.359,4.755l-0,11.858c-0,2.562 -0.15,4.381 -0.456,5.465c-0.301,1.08 -0.925,1.943 -1.863,2.585c-0.941,0.645 -2.072,0.967 -3.4,0.967c-1.058,-0 -2.042,-0.25 -2.946,-0.744c-0.902,-0.5 -1.728,-1.233 -2.477,-2.213l-0,6.49l-8.563,0l0,-32.207l8.71,-0Zm2.435,8.198c0,-1.738 -0.066,-2.79 -0.192,-3.161c-0.125,-0.369 -0.478,-0.549 -1.058,-0.549c-0.563,-0 -0.926,0.212 -1.089,0.634c-0.163,0.427 -0.243,1.452 -0.243,3.076l-0,11.675c-0,1.698 0.085,2.76 0.255,3.186c0.169,0.422 0.536,0.631 1.099,0.631c0.549,-0 0.893,-0.192 1.026,-0.582c0.135,-0.389 0.202,-1.334 0.202,-2.836l0,-12.074Z" style="fill:#fff;fill-rule:nonzero;"/><path d="M109.783,52.037l-8.064,-0l0,-1.892c0,-2.176 0.252,-3.859 0.757,-5.035c0.503,-1.183 1.513,-2.226 3.033,-3.13c1.515,-0.907 3.489,-1.361 5.915,-1.361c2.907,0 5.098,0.515 6.577,1.543c1.472,1.021 2.362,2.282 2.657,3.774c0.301,1.493 0.447,4.568 0.447,9.222l0,14.134l-8.333,-0l0,-2.517c-0.528,1.007 -1.204,1.76 -2.039,2.264c-0.83,0.498 -1.823,0.753 -2.974,0.753c-1.509,-0 -2.893,-0.422 -4.152,-1.261c-1.257,-0.844 -1.888,-2.684 -1.888,-5.525l0,-2.313c0,-2.111 0.334,-3.543 1.005,-4.309c0.669,-0.763 2.327,-1.652 4.975,-2.673c2.832,-1.102 4.346,-1.846 4.547,-2.227c0.2,-0.381 0.3,-1.161 0.3,-2.337c-0,-1.474 -0.111,-2.429 -0.333,-2.876c-0.225,-0.448 -0.595,-0.666 -1.111,-0.666c-0.59,-0 -0.962,0.186 -1.106,0.558c-0.142,0.376 -0.213,1.352 -0.213,2.921l-0,2.953Zm2.763,3.861c-1.396,1.008 -2.207,1.846 -2.43,2.527c-0.223,0.68 -0.333,1.655 -0.333,2.926c-0,1.455 0.096,2.399 0.288,2.826c0.199,0.422 0.583,0.631 1.158,0.631c0.548,-0 0.905,-0.164 1.07,-0.496c0.164,-0.334 0.247,-1.207 0.247,-2.621l-0,-5.793Z" style="fill:#fff;fill-rule:nonzero;"/><path d="M136.01,35.004l-0,3.135l-7.029,-0l0,31.154l-3.702,-0l-0,-31.154l-7.032,-0l0,-3.135l17.763,-0Z" style="fill:#fff;fill-rule:nonzero;"/><path d="M136.098,57.513l0,1.379c0,6.034 1.377,8.023 4.603,8.023c2.612,0 3.705,-2.422 4.134,-4.653l3.227,0.382c-0.521,3.7 -3.325,7.121 -7.837,7.121c-5.173,-0 -7.545,-3.893 -7.545,-12.818c-0,-8.928 2.372,-12.825 7.545,-12.825c5.226,0 7.554,4.654 7.554,11.776l0,1.615l-11.681,0Zm8.263,-2.85c-0.098,-5.315 -1.048,-7.688 -4.136,-7.688c-2.467,-0 -4.082,1.801 -4.127,7.688l8.263,-0Z" style="fill:#fff;fill-rule:nonzero;"/><path d="M150.72,51.339c0.667,-3.892 2.947,-7.217 7.316,-7.217c4.558,0 7.075,2.659 7.075,7.031l-0,13.772c-0,2.183 0.236,3.797 0.618,4.367l-3.561,-0l-0.428,-2.09c-1.33,1.329 -3.704,2.563 -5.27,2.563c-3.846,-0 -6.409,-2.469 -6.409,-6.36c0,-6.083 6.695,-9.168 11.63,-10.26l-0,-1.756c-0,-2.708 -1.378,-4.414 -3.561,-4.414c-2.61,-0 -3.892,2.608 -4.274,4.841l-3.136,-0.477Zm10.971,4.654c-3.132,0.953 -8.212,3.23 -8.212,7.127c0,2.322 1.041,3.795 3.513,3.795c1.851,0 3.466,-1.278 4.699,-2.561l-0,-8.361Z" style="fill:#fff;fill-rule:nonzero;"/><path d="M168.639,69.292l0,-24.693l3.134,-0l-0,2.703c1.329,-1.565 3.372,-3.18 5.745,-3.18c1.946,0 3.796,1.284 4.416,3.135c1.377,-1.52 3.326,-3.135 5.746,-3.135c3.228,0 4.986,2.187 4.986,5.698l0,19.472l-3.42,-0l0,-18.996c0,-2.564 -0.762,-3.321 -2.562,-3.321c-2.09,-0 -3.278,1.47 -4.325,2.563l-0,19.754l-3.418,-0l-0,-18.996c-0,-2.564 -0.9,-3.321 -2.705,-3.321c-2.088,-0 -3.277,1.47 -4.179,2.563l0,19.754l-3.418,-0Z" style="fill:#fff;fill-rule:nonzero;"/></g></svg>