<svg xmlns="http://www.w3.org/2000/svg" viewBox="0 0 595.33 420.95"><defs><style>.cls-1{fill:#fff;}</style></defs><title>Element 1-weiss</title><g id="Ebene_2" data-name="Ebene 2"><g id="Ebene_1-2" data-name="Ebene 1"><path class="cls-1" d="M75.65,53.48a1.27,1.27,0,0,0,.52.1,2.3,2.3,0,0,0,1.08-.31,1.68,1.68,0,0,0,.27-.23V51.46h-.41a6.7,6.7,0,0,0-.85,0,1.76,1.76,0,0,0-.6.2,1,1,0,0,0-.36.37,1.18,1.18,0,0,0-.12.55,1.11,1.11,0,0,0,.12.52A.63.63,0,0,0,75.65,53.48Z"/><path class="cls-1" d="M254,330.26a2,2,0,0,0-.38-1.33,1.37,1.37,0,0,0-1.08-.42,1.47,1.47,0,0,0-1.18.51,2.46,2.46,0,0,0-.5,1.48H254Z"/><path class="cls-1" d="M254.48,352.5a1.47,1.47,0,0,0-1.18.51,2.47,2.47,0,0,0-.5,1.49h3.14v-.25a1.89,1.89,0,0,0-.38-1.32A1.35,1.35,0,0,0,254.48,352.5Z"/><path class="cls-1" d="M213.48,66.85a1.27,1.27,0,0,0,.52.1,2.3,2.3,0,0,0,1.08-.31,2.28,2.28,0,0,0,.27-.23V64.83h-.42a5.3,5.3,0,0,0-.85.06,1.63,1.63,0,0,0-.6.2.87.87,0,0,0-.35.36A1.18,1.18,0,0,0,213,66a1.15,1.15,0,0,0,.12.53A.65.65,0,0,0,213.48,66.85Z"/><path class="cls-1" d="M264.5,329.27a3,3,0,0,0-.6-.4,2.09,2.09,0,0,0-.88-.17,1.64,1.64,0,0,0-1.08.38,2,2,0,0,0-.61,1,4.66,4.66,0,0,0-.18,1.31,5.74,5.74,0,0,0,.09,1.06,2.33,2.33,0,0,0,.28.82,1.37,1.37,0,0,0,.51.53,1.73,1.73,0,0,0,1.74-.12,1.61,1.61,0,0,0,.56-.82,3.33,3.33,0,0,0,.17-1.1Z"/><path class="cls-1" d="M207.62,328.7a1.55,1.55,0,0,0-1.33.67,2.92,2.92,0,0,0-.39.87,5.18,5.18,0,0,0-.14,1.27,6.63,6.63,0,0,0,.09,1.15,2.74,2.74,0,0,0,.28.85,1.42,1.42,0,0,0,.5.53,1.39,1.39,0,0,0,.75.19,1.62,1.62,0,0,0,1-.3,1.53,1.53,0,0,0,.56-.86,4.15,4.15,0,0,0,.16-1.18v-2.62a3,3,0,0,0-.6-.4A2,2,0,0,0,207.62,328.7Z"/><path class="cls-1" d="M218.29,328.51a1.47,1.47,0,0,0-1.18.51,2.46,2.46,0,0,0-.5,1.48h3.14v-.24a2,2,0,0,0-.38-1.33A1.37,1.37,0,0,0,218.29,328.51Z"/><path class="cls-1" d="M369.31,352.5a1.45,1.45,0,0,0-1.18.51,2.4,2.4,0,0,0-.5,1.49h3.14v-.25a1.94,1.94,0,0,0-.38-1.32A1.35,1.35,0,0,0,369.31,352.5Z"/><path class="cls-1" d="M275.14,330.26a2,2,0,0,0-.38-1.33,1.37,1.37,0,0,0-1.08-.42,1.47,1.47,0,0,0-1.18.51,2.46,2.46,0,0,0-.5,1.48h3.14Z"/><path class="cls-1" d="M139.22,66.91a1.58,1.58,0,0,0,.71-.16,1.14,1.14,0,0,0,.46-.4,1.93,1.93,0,0,0,.22-.46,4.44,4.44,0,0,0,.12-.55,6,6,0,0,0,0-.61,3.53,3.53,0,0,0-.17-1.17,1.23,1.23,0,0,0-.5-.67,1.36,1.36,0,0,0-.71-.2,1.08,1.08,0,0,0-.6.16,1.38,1.38,0,0,0-.45.45,2.16,2.16,0,0,0-.27.69,3.88,3.88,0,0,0-.09.87v1.5a2.09,2.09,0,0,0,.55.4A1.58,1.58,0,0,0,139.22,66.91Z"/><path class="cls-1" d="M344.6,328.51a1.47,1.47,0,0,0-1.18.51,2.46,2.46,0,0,0-.5,1.48h3.14v-.24a2,2,0,0,0-.38-1.33A1.37,1.37,0,0,0,344.6,328.51Z"/><path class="cls-1" d="M306.48,333.73v-2h-.38a4.56,4.56,0,0,0-1.57.21,1.17,1.17,0,0,0-.69.54,1.58,1.58,0,0,0-.15.66,1.16,1.16,0,0,0,.15.6.74.74,0,0,0,.41.37,1.36,1.36,0,0,0,.58.11,2.64,2.64,0,0,0,.74-.1,3.09,3.09,0,0,0,.58-.22A1.57,1.57,0,0,0,306.48,333.73Z"/><path class="cls-1" d="M343.83,352.5a1.47,1.47,0,0,0-1.18.51,2.53,2.53,0,0,0-.5,1.49h3.14v-.25a1.89,1.89,0,0,0-.38-1.32A1.35,1.35,0,0,0,343.83,352.5Z"/><path class="cls-1" d="M127.08,50.68a1.86,1.86,0,0,0-.29-1.11,1.08,1.08,0,0,0-.91-.4,1.17,1.17,0,0,0-1,.47,2.39,2.39,0,0,0-.39,1.31h2.59Z"/><path class="cls-1" d="M358.63,352.69a1.63,1.63,0,0,0-.73.17,1.55,1.55,0,0,0-.59.5,2.5,2.5,0,0,0-.39.87,5.24,5.24,0,0,0-.14,1.27,6.63,6.63,0,0,0,.09,1.15,2.43,2.43,0,0,0,.28.85,1.38,1.38,0,0,0,.5.54,1.44,1.44,0,0,0,.75.18,1.62,1.62,0,0,0,1-.3,1.51,1.51,0,0,0,.56-.85,4.22,4.22,0,0,0,.16-1.19v-2.61a2.33,2.33,0,0,0-.6-.4A1.91,1.91,0,0,0,358.63,352.69Z"/><path class="cls-1" d="M127.25,351.52c-.16.47-.32.92-.46,1.35s-.29.85-.42,1.26-.26.8-.38,1.2h3.61q-.51-1.65-1.82-5.3C127.59,350.56,127.42,351.06,127.25,351.52Z"/><path class="cls-1" d="M121,64.05a1.86,1.86,0,0,0-.29-1.11,1.07,1.07,0,0,0-.91-.4,1.17,1.17,0,0,0-1,.47,2.39,2.39,0,0,0-.39,1.31H121Z"/><path class="cls-1" d="M86.42,64.05a1.86,1.86,0,0,0-.29-1.11,1.08,1.08,0,0,0-.91-.4,1.17,1.17,0,0,0-1,.47,2.48,2.48,0,0,0-.4,1.31h2.6Z"/><path class="cls-1" d="M82.22,352.5A1.48,1.48,0,0,0,81,353a2.53,2.53,0,0,0-.5,1.49h3.14v-.25a1.89,1.89,0,0,0-.38-1.32A1.35,1.35,0,0,0,82.22,352.5Z"/><path class="cls-1" d="M95.35,49.39a1.61,1.61,0,0,0-.49-.07,1.33,1.33,0,0,0-.6.14,1.41,1.41,0,0,0-.47.41,1.86,1.86,0,0,0-.3.65,3.06,3.06,0,0,0-.11.89,4.93,4.93,0,0,0,.06.78,2.07,2.07,0,0,0,.21.65,1.14,1.14,0,0,0,.42.45,1.29,1.29,0,0,0,.68.17,1.15,1.15,0,0,0,.81-.29,1.4,1.4,0,0,0,.45-.71,3,3,0,0,0,.12-.83V49.87a4.07,4.07,0,0,0-.36-.3A1.33,1.33,0,0,0,95.35,49.39Z"/><path class="cls-1" d="M116.53,352.69a1.59,1.59,0,0,0-1.08.39,2.06,2.06,0,0,0-.62,1,5,5,0,0,0-.17,1.3,5.85,5.85,0,0,0,.09,1.07,2.4,2.4,0,0,0,.27.82,1.37,1.37,0,0,0,.52.52,1.55,1.55,0,0,0,.78.19,1.57,1.57,0,0,0,1-.3,1.64,1.64,0,0,0,.56-.83,3.6,3.6,0,0,0,.17-1.09v-2.49a2.33,2.33,0,0,0-.6-.4A1.94,1.94,0,0,0,116.53,352.69Z"/><path class="cls-1" d="M112.47,53.53a1.66,1.66,0,0,0,.72-.15,1.18,1.18,0,0,0,.45-.4,2,2,0,0,0,.22-.47A3.92,3.92,0,0,0,114,52a4.12,4.12,0,0,0,0-.62,3.51,3.51,0,0,0-.17-1.16,1.21,1.21,0,0,0-.5-.68,1.42,1.42,0,0,0-.71-.19,1.12,1.12,0,0,0-.6.16,1.35,1.35,0,0,0-.44.45,2.17,2.17,0,0,0-.28.69,3.88,3.88,0,0,0-.09.87V53a2,2,0,0,0,.56.4A1.51,1.51,0,0,0,112.47,53.53Z"/><path class="cls-1" d="M62.68,66.69a1.85,1.85,0,0,0,.66-.62,3.1,3.1,0,0,0,.41-1,6.77,6.77,0,0,0,0-2.74,3,3,0,0,0-.41-1,1.91,1.91,0,0,0-2.45-.62,1.75,1.75,0,0,0-.65.62,3,3,0,0,0-.41,1,6.77,6.77,0,0,0,0,2.74,3.09,3.09,0,0,0,.4,1,1.88,1.88,0,0,0,2.45.62Z"/><path class="cls-1" d="M196.46,349.52a1.35,1.35,0,0,0-.81-.28,1.24,1.24,0,0,0-.74.22,1.65,1.65,0,0,0-.53.73,5.68,5.68,0,0,0-.31,1.38,21.27,21.27,0,0,0-.1,2.17,20.92,20.92,0,0,0,.1,2.14,5.57,5.57,0,0,0,.31,1.38,1.68,1.68,0,0,0,.53.74,1.24,1.24,0,0,0,.74.22,1.18,1.18,0,0,0,1-.52,3.31,3.31,0,0,0,.51-1.6,21.37,21.37,0,0,0,.12-2.36,14.26,14.26,0,0,0-.22-2.95A2.16,2.16,0,0,0,196.46,349.52Z"/><path class="cls-1" d="M185.27,332a1.17,1.17,0,0,0-.69.54,1.58,1.58,0,0,0-.15.66,1.16,1.16,0,0,0,.15.6.74.74,0,0,0,.41.37,1.36,1.36,0,0,0,.58.11,2.64,2.64,0,0,0,.74-.1,3.09,3.09,0,0,0,.58-.22,1.57,1.57,0,0,0,.33-.21v-2h-.38A4.6,4.6,0,0,0,185.27,332Z"/><path class="cls-1" d="M53.84,356a1.21,1.21,0,0,0-.7.55,1.52,1.52,0,0,0-.15.66,1.21,1.21,0,0,0,.15.6.87.87,0,0,0,.41.37,1.58,1.58,0,0,0,.58.11,2.65,2.65,0,0,0,.74-.11,2.89,2.89,0,0,0,.58-.21l.33-.21v-2H55.4A4.5,4.5,0,0,0,53.84,356Z"/><path class="cls-1" d="M170.07,352.69a1.63,1.63,0,0,0-.73.17,1.55,1.55,0,0,0-.59.5,2.5,2.5,0,0,0-.39.87,4.79,4.79,0,0,0-.14,1.27,7.88,7.88,0,0,0,.08,1.15,2.65,2.65,0,0,0,.29.85,1.31,1.31,0,0,0,.5.54,1.42,1.42,0,0,0,.74.18,1.63,1.63,0,0,0,1-.3,1.56,1.56,0,0,0,.56-.85,4.22,4.22,0,0,0,.16-1.19v-2.61a2.33,2.33,0,0,0-.6-.4A1.94,1.94,0,0,0,170.07,352.69Z"/><path class="cls-1" d="M151.55,356a1.22,1.22,0,0,0-.69.55,1.52,1.52,0,0,0-.15.66,1.21,1.21,0,0,0,.14.6.92.92,0,0,0,.41.37,1.58,1.58,0,0,0,.58.11,2.6,2.6,0,0,0,.74-.11,2.89,2.89,0,0,0,.58-.21,1.92,1.92,0,0,0,.33-.21v-2h-.38A4.5,4.5,0,0,0,151.55,356Z"/><path class="cls-1" d="M145.39,64.89a1.51,1.51,0,0,0-.6.2.89.89,0,0,0-.36.36,1.18,1.18,0,0,0-.12.55,1.15,1.15,0,0,0,.12.53.65.65,0,0,0,.35.32,1.27,1.27,0,0,0,.52.1,2.3,2.3,0,0,0,1.08-.31,1.68,1.68,0,0,0,.27-.23V64.83h-.41A5.21,5.21,0,0,0,145.39,64.89Z"/><path class="cls-1" d="M79.33,66.62a1.42,1.42,0,0,0,.46-.71,3.24,3.24,0,0,0,.12-.86V63.24a3,3,0,0,0-.37-.3,1.19,1.19,0,0,0-.41-.18,1.71,1.71,0,0,0-.49-.07,1.33,1.33,0,0,0-.6.14,1.26,1.26,0,0,0-.47.42,2.19,2.19,0,0,0-.31.67,3.54,3.54,0,0,0-.11.91A4.06,4.06,0,0,0,77.31,66a1.18,1.18,0,0,0,.48.69,1.42,1.42,0,0,0,1.54-.08Z"/><path class="cls-1" d="M119.21,53.53a1.66,1.66,0,0,0,.72-.15,1.18,1.18,0,0,0,.45-.4,2,2,0,0,0,.22-.47,3.92,3.92,0,0,0,.12-.54,6.06,6.06,0,0,0,0-.62,3.51,3.51,0,0,0-.17-1.16,1.26,1.26,0,0,0-.5-.68,1.45,1.45,0,0,0-.71-.19,1.12,1.12,0,0,0-.6.16,1.38,1.38,0,0,0-.45.45,2.16,2.16,0,0,0-.27.69,3.88,3.88,0,0,0-.09.87V53a2,2,0,0,0,.56.4A1.51,1.51,0,0,0,119.21,53.53Z"/><path class="cls-1" d="M407.12,333.73v-2h-.38a4.6,4.6,0,0,0-1.57.21,1.17,1.17,0,0,0-.69.54,1.58,1.58,0,0,0-.15.66,1.16,1.16,0,0,0,.15.6.78.78,0,0,0,.41.37,1.36,1.36,0,0,0,.58.11,2.64,2.64,0,0,0,.74-.1,3.09,3.09,0,0,0,.58-.22A1.57,1.57,0,0,0,407.12,333.73Z"/><path class="cls-1" d="M207.22,66.72a1.49,1.49,0,0,0,.75.19,1.28,1.28,0,0,0,.9-.33,1.53,1.53,0,0,0,.48-.84,4.57,4.57,0,0,0,.11-1,3.61,3.61,0,0,0-.16-1.16,1.2,1.2,0,0,0-.5-.66,1.36,1.36,0,0,0-.71-.2,1.21,1.21,0,0,0-1.05.53,2.7,2.7,0,0,0-.36,1.53v1.47A1.52,1.52,0,0,0,207.22,66.72Z"/><path class="cls-1" d="M198.54,64.05a1.79,1.79,0,0,0-.3-1.11,1,1,0,0,0-.9-.4,1.17,1.17,0,0,0-1,.47,2.48,2.48,0,0,0-.4,1.31h2.6Z"/><path class="cls-1" d="M180.19,64.05a1.86,1.86,0,0,0-.29-1.11,1.07,1.07,0,0,0-.91-.4,1.18,1.18,0,0,0-1,.47,2.39,2.39,0,0,0-.39,1.31h2.59Z"/><path class="cls-1" d="M254,256.13a1.9,1.9,0,0,0,1.38-.58l18.52-19.17L285,247.89a1.91,1.91,0,0,0,2.78,0l22.33-24L319.77,235a1.89,1.89,0,0,0,1.4.66,1.91,1.91,0,0,0,1.43-.58l20.06-20.83a1.92,1.92,0,0,0-2.76-2.66l-18.61,19.31-9.7-11.19a1.92,1.92,0,0,0-2.85,0l-22.4,24.12-11.09-11.48a2,2,0,0,0-2.76,0l-19.9,20.59a1.92,1.92,0,0,0,0,2.71A1.9,1.9,0,0,0,254,256.13Z"/><path class="cls-1" d="M0,0V421H595.33V0ZM391.59,322.77h2.47v5a2.57,2.57,0,0,1,1-.79,3.66,3.66,0,0,1,1.59-.32,3.27,3.27,0,0,1,1.78.45,2.29,2.29,0,0,1,1,1.18,4.28,4.28,0,0,1,.26,1.43V336H397.2v-5.72a2,2,0,0,0-.21-1,1.06,1.06,0,0,0-.53-.48,2,2,0,0,0-.63-.11,1.54,1.54,0,0,0-1,.34,1.84,1.84,0,0,0-.63.8,2.41,2.41,0,0,0-.18.86V336h-2.47Zm-22.83,9.87c.34-1.1.71-2.23,1.12-3.39s.81-2.22,1.2-3.18.8-1.82,1.19-2.58h2.46c.29.56.58,1.17.86,1.83s.57,1.35.85,2.06.54,1.45.8,2.19.5,1.5.7,2.25.42,1.47.61,2.18.39,1.37.56,2h-2.59l-.34-1.23-.39-1.39H371c-.3,1.19-.52,2.06-.68,2.62h-2.52C368.1,334.85,368.42,333.73,368.76,332.64Zm-7.24-3.25h5v2.36h-5Zm-63.89-205.8a20.78,20.78,0,1,1-20.78,20.78A20.78,20.78,0,0,1,297.63,123.59Zm-62.32,74.68a4.19,4.19,0,0,1,4.19-4.19h33.58a20.91,20.91,0,0,1,20.46-16.63h8.17a20.91,20.91,0,0,1,20.46,16.63h33.62a4.2,4.2,0,0,1,4.19,4.19v74.82a4.19,4.19,0,0,1-4.19,4.19H343.36a8.31,8.31,0,0,1-16.62,0H268.6a8.31,8.31,0,1,1-16.61,0H239.5a4.18,4.18,0,0,1-4.19-4.19Zm75.63,149.35a1.53,1.53,0,0,1,1.35.08,1,1,0,0,1,.47.48,1.22,1.22,0,0,1,.13.54,1.12,1.12,0,0,1-.1.48,1,1,0,0,1-.28.37,1.26,1.26,0,0,1-.44.25,1.64,1.64,0,0,1-.56.09,1.4,1.4,0,0,1-.51-.09,1.16,1.16,0,0,1-.66-.62,1.28,1.28,0,0,1-.09-.48,1.22,1.22,0,0,1,.19-.68A1.12,1.12,0,0,1,310.94,347.62Zm-1.67,1.1a1.14,1.14,0,0,1-.21.68,1.07,1.07,0,0,1-.52.4,1.91,1.91,0,0,1-.6.11,1.51,1.51,0,0,1-.53-.09,1.26,1.26,0,0,1-.69-.62,1.28,1.28,0,0,1-.09-.48,1.16,1.16,0,0,1,.2-.68,1.1,1.1,0,0,1,.51-.42,1.64,1.64,0,0,1,.6-.12,1.39,1.39,0,0,1,.75.19,1.11,1.11,0,0,1,.46.48A1.44,1.44,0,0,1,309.27,348.72Zm-12.81-17.21a4,4,0,0,0-1.17-.64l-1.2-.46-.63-.26a6,6,0,0,1-.68-.33,4.12,4.12,0,0,1-.66-.46,2.78,2.78,0,0,1-.56-.62,2.92,2.92,0,0,1-.4-.81,3.41,3.41,0,0,1-.15-1.05,3.26,3.26,0,0,1,.34-1.51,3.21,3.21,0,0,1,.93-1.14,4.56,4.56,0,0,1,1.45-.71,6.53,6.53,0,0,1,1.88-.25,11.82,11.82,0,0,1,1.8.14c.59.1,1.09.21,1.51.32v2.18a8.7,8.7,0,0,0-1-.28c-.35-.08-.72-.15-1.12-.21a7.5,7.5,0,0,0-1.1-.09,2.77,2.77,0,0,0-1.67.39,1.25,1.25,0,0,0-.51,1,1.09,1.09,0,0,0,.47.91,3.69,3.69,0,0,0,1.12.57l1.16.39c.49.18.87.34,1.16.47a4.69,4.69,0,0,1,.89.55,3.32,3.32,0,0,1,.77.82,2.87,2.87,0,0,1,.42,1,4.28,4.28,0,0,1,.11,1,3.94,3.94,0,0,1-.31,1.62,3.17,3.17,0,0,1-.92,1.17,4.37,4.37,0,0,1-1.5.73,8,8,0,0,1-2.06.24,11.31,11.31,0,0,1-2.17-.2,10.43,10.43,0,0,1-1.52-.37l-.53-.2.64-2.07a4.32,4.32,0,0,0,.77.29,11.7,11.7,0,0,0,1.3.32,7.08,7.08,0,0,0,1.17.11,3.9,3.9,0,0,0,1.63-.27,1.15,1.15,0,0,0,.69-.64,2.23,2.23,0,0,0,.12-.69A1.17,1.17,0,0,0,296.46,331.51Zm-54.4-3.11v-1.58h3.62V336H243.2v-7.47Zm3.4-3.65a1.46,1.46,0,0,1-.6.47,1.94,1.94,0,0,1-.64.12,1.44,1.44,0,0,1-.59-.11,1.64,1.64,0,0,1-.5-.29,1.48,1.48,0,0,1-.34-.44,1.18,1.18,0,0,1-.12-.53,1.23,1.23,0,0,1,.26-.77,1.38,1.38,0,0,1,.61-.47,1.78,1.78,0,0,1,.68-.15,1.63,1.63,0,0,1,.8.22,1.32,1.32,0,0,1,.55.55,1.39,1.39,0,0,1,.16.62A1.23,1.23,0,0,1,245.46,324.75ZM224.92,63.51a2.94,2.94,0,0,1,.52-1,2.33,2.33,0,0,1,.77-.6,2.25,2.25,0,0,1,1-.2,2.82,2.82,0,0,1,.52,0,3.17,3.17,0,0,1,.43.13l.34.18.23.2V59.22h1.12V67.7h-1.07l0-.75a1.83,1.83,0,0,1-.7.66,2.19,2.19,0,0,1-1,.2,2.33,2.33,0,0,1-.93-.17,1.88,1.88,0,0,1-.73-.53,2.91,2.91,0,0,1-.48-.93,4.87,4.87,0,0,1-.17-1.35A4.17,4.17,0,0,1,224.92,63.51Zm-19.37-4.29h1.13v3.35a1.43,1.43,0,0,1,.39-.43,1.81,1.81,0,0,1,.61-.29,2.38,2.38,0,0,1,1.67.09,2,2,0,0,1,.72.57,2.68,2.68,0,0,1,.44.93,4.84,4.84,0,0,1,.15,1.26,4.52,4.52,0,0,1-.17,1.33,2.75,2.75,0,0,1-.48,1,2,2,0,0,1-.78.61,2.59,2.59,0,0,1-1,.2,2.31,2.31,0,0,1-.93-.17,1.82,1.82,0,0,1-.62-.44l0,.5h-1.07ZM195,63.54a2.77,2.77,0,0,1,.49-1,2.15,2.15,0,0,1,.81-.62,2.65,2.65,0,0,1,1.11-.23,2.16,2.16,0,0,1,1.76.71,3,3,0,0,1,.59,2c0,.26,0,.49,0,.69H196a2.21,2.21,0,0,0,.49,1.35,1.65,1.65,0,0,0,1.27.47,6,6,0,0,0,.75,0,4.57,4.57,0,0,0,.65-.14l.22.86a4.71,4.71,0,0,1-.8.17,9.25,9.25,0,0,1-1,0,3.16,3.16,0,0,1-1.19-.21,2.58,2.58,0,0,1-.87-.61,2.79,2.79,0,0,1-.55-1,4.08,4.08,0,0,1-.18-1.26A4.15,4.15,0,0,1,195,63.54Zm-12-1.68H184l0,.82a2.08,2.08,0,0,1,.73-.68,2.28,2.28,0,0,1,1.11-.26A2.06,2.06,0,0,1,187,62a1.51,1.51,0,0,1,.6.73,2.54,2.54,0,0,1,.16.89V67.7h-1.12V64a1.36,1.36,0,0,0-.28-1,1,1,0,0,0-.83-.31,1.32,1.32,0,0,0-.82.27,1.47,1.47,0,0,0-.51.64,2,2,0,0,0-.14.7V67.7h-1.12Zm-6.33,1.68a3,3,0,0,1,.5-1,2.15,2.15,0,0,1,.81-.62,2.59,2.59,0,0,1,1.11-.23,2.18,2.18,0,0,1,1.76.71,3.07,3.07,0,0,1,.59,2c0,.26,0,.49,0,.69h-3.73a2.21,2.21,0,0,0,.5,1.35,1.64,1.64,0,0,0,1.27.47,6.16,6.16,0,0,0,.75,0,4.41,4.41,0,0,0,.64-.14l.22.86a4.59,4.59,0,0,1-.79.17,9.31,9.31,0,0,1-1,0,3.1,3.1,0,0,1-1.18-.21,2.52,2.52,0,0,1-.88-.61,2.62,2.62,0,0,1-.54-1,4.07,4.07,0,0,1-.19-1.26A4.5,4.5,0,0,1,176.6,63.54Zm4.08,270.39V336H173.1v-12.5h2.56v10.44Zm-6.87-268.3a2,2,0,0,0-.59-.3c-.23-.07-.45-.14-.65-.22s-.46-.16-.66-.24a2.41,2.41,0,0,1-.52-.32,1.19,1.19,0,0,1-.35-.45,1.57,1.57,0,0,1-.12-.65,1.7,1.7,0,0,1,.15-.73,1.64,1.64,0,0,1,.44-.54,2,2,0,0,1,.68-.32,3.09,3.09,0,0,1,.89-.12,7,7,0,0,1,1,.07,6,6,0,0,1,.75.17v.92a5.68,5.68,0,0,0-1.68-.27,1.57,1.57,0,0,0-.85.19.59.59,0,0,0-.28.54.49.49,0,0,0,.1.32,1,1,0,0,0,.28.23,2.63,2.63,0,0,0,.44.19l.59.19a4.34,4.34,0,0,1,1.06.44,1.31,1.31,0,0,1,.55.57,1.87,1.87,0,0,1,.16.75,1.73,1.73,0,0,1-.17.78,1.49,1.49,0,0,1-.48.55,2.58,2.58,0,0,1-.75.33,4.13,4.13,0,0,1-1,.1,5.39,5.39,0,0,1-.72,0c-.22,0-.42-.06-.59-.1l-.46-.13-.31-.13.3-.84.53.19a5.33,5.33,0,0,0,.55.11,4.46,4.46,0,0,0,.63,0,2.23,2.23,0,0,0,.81-.12.67.67,0,0,0,.39-.31.84.84,0,0,0,.09-.37A.57.57,0,0,0,173.81,65.63ZM159.66,65a1.92,1.92,0,0,1,.89-.66,3.71,3.71,0,0,1,.75-.2,8,8,0,0,1,.93-.07h.59v-.32a1.25,1.25,0,0,0-.16-.67.86.86,0,0,0-.5-.33,2.71,2.71,0,0,0-.71-.09,3.46,3.46,0,0,0-.87.1c-.27.06-.52.14-.77.22V62c.32-.08.55-.14.69-.16a5.06,5.06,0,0,1,.55-.07c.22,0,.43,0,.62,0a3.78,3.78,0,0,1,1,.12,1.65,1.65,0,0,1,.7.35,1.43,1.43,0,0,1,.41.6,2.49,2.49,0,0,1,.13.87v4h-1.06l0-.5a1.58,1.58,0,0,1-.43.31,2.92,2.92,0,0,1-1.26.3,2.61,2.61,0,0,1-.69-.09,1.71,1.71,0,0,1-.58-.31,1.39,1.39,0,0,1-.38-.55,2,2,0,0,1-.15-.81A1.83,1.83,0,0,1,159.66,65Zm-10-3.09h1.07l0,1.11a2.25,2.25,0,0,1,.48-.67,1.77,1.77,0,0,1,.58-.37,1.83,1.83,0,0,1,.59-.1,2.44,2.44,0,0,1,.44,0v1.06a2,2,0,0,0-.4,0,1.64,1.64,0,0,0-.73.15,1.76,1.76,0,0,0-.52.4,1.74,1.74,0,0,0-.41,1.1V67.7h-1.12Zm-12.76,0h1.07l0,.85a1.62,1.62,0,0,1,.43-.52,1.68,1.68,0,0,1,.61-.34,2.38,2.38,0,0,1,.7-.11,2.05,2.05,0,0,1,2.08,1.55,5.28,5.28,0,0,1,.2,1.41A4.86,4.86,0,0,1,141.8,66a2.81,2.81,0,0,1-.48,1,2,2,0,0,1-.79.6,2.6,2.6,0,0,1-1.08.21,2.68,2.68,0,0,1-.85-.12,2,2,0,0,1-.62-.35V70h-1.12ZM123.49,50.17a2.79,2.79,0,0,1,.5-1,2.12,2.12,0,0,1,.81-.63,2.75,2.75,0,0,1,1.11-.22,2.15,2.15,0,0,1,1.75.71,3,3,0,0,1,.6,2,6.66,6.66,0,0,1,0,.68h-3.72a2.21,2.21,0,0,0,.49,1.36,1.65,1.65,0,0,0,1.27.47,6.33,6.33,0,0,0,.76,0,4.41,4.41,0,0,0,.64-.14l.22.86a4.59,4.59,0,0,1-.79.17,9.61,9.61,0,0,1-1,0,3.1,3.1,0,0,1-1.18-.21,2.42,2.42,0,0,1-.88-.62,2.5,2.5,0,0,1-.54-1,3.79,3.79,0,0,1-.19-1.26A4.5,4.5,0,0,1,123.49,50.17ZM127,61.86v1.06a2,2,0,0,0-.4,0,1.67,1.67,0,0,0-.73.15,1.76,1.76,0,0,0-.52.4,1.74,1.74,0,0,0-.41,1.1V67.7h-1.12V61.86h1.07l0,1.11a2.25,2.25,0,0,1,.48-.67,1.66,1.66,0,0,1,1.17-.47A2.44,2.44,0,0,1,127,61.86Zm-10.1-13.37h1.07l0,.85a1.62,1.62,0,0,1,.43-.52,1.68,1.68,0,0,1,.61-.34,2.45,2.45,0,0,1,.71-.11,2,2,0,0,1,2.07,1.55,5.16,5.16,0,0,1,.2,1.41,4.86,4.86,0,0,1-.17,1.32,2.81,2.81,0,0,1-.48,1,2.05,2.05,0,0,1-.79.6,2.6,2.6,0,0,1-1.08.21,2.41,2.41,0,0,1-.85-.13A1.77,1.77,0,0,1,118,54v2.69h-1.12Zm-13.46,0h1.12v3.78a1.34,1.34,0,0,0,.27.94,1.11,1.11,0,0,0,.84.29,1.29,1.29,0,0,0,.58-.13,1.45,1.45,0,0,0,.47-.34,1.66,1.66,0,0,0,.31-.51,1.64,1.64,0,0,0,.11-.63v-3.4h1.13v5.84h-1.09v-.82a2,2,0,0,1-.73.68,2.34,2.34,0,0,1-1.12.25,1.91,1.91,0,0,1-1.39-.48,2,2,0,0,1-.49-1.45ZM91.93,66.75a1.8,1.8,0,0,0,.47-.35,1.88,1.88,0,0,0,.31-.51,1.8,1.8,0,0,0,.11-.62V61.86h1.12V67.7H92.85v-.82a1.85,1.85,0,0,1-.73.68,2.28,2.28,0,0,1-1.11.25,1.7,1.7,0,0,1-1.88-1.92v-4h1.12v3.78a1.34,1.34,0,0,0,.27.94,1.06,1.06,0,0,0,.83.29A1.45,1.45,0,0,0,91.93,66.75ZM86.64,53.46c.12-.19.34-.5.66-.94s.66-.9,1-1.4.77-1,1.45-1.75h-3v-.88h4.38v.86c-.59.7-1.15,1.38-1.68,2-.19.22-.45.56-.79,1s-.6.81-.77,1.06h3.36v.88H86.64Zm-6.15-5h1.07l0,.82a2.08,2.08,0,0,1,.73-.68,2.28,2.28,0,0,1,1.11-.26,2,2,0,0,1,1.12.29,1.47,1.47,0,0,1,.61.73,2.79,2.79,0,0,1,.16.89v4H84.19V50.6a1.36,1.36,0,0,0-.28-1,1,1,0,0,0-.84-.31,1.37,1.37,0,0,0-.82.27,1.39,1.39,0,0,0-.5.64,1.82,1.82,0,0,0-.14.7v3.39H80.49Zm-6.13,3.09a2,2,0,0,1,.9-.67,3.81,3.81,0,0,1,.74-.19,8.41,8.41,0,0,1,.93-.07h.59v-.32a1.2,1.2,0,0,0-.16-.68.79.79,0,0,0-.49-.32,2.71,2.71,0,0,0-.71-.09,3.35,3.35,0,0,0-.87.1,5.77,5.77,0,0,0-.77.22v-.91l.69-.17.54-.07.63,0a3.65,3.65,0,0,1,1,.12,1.69,1.69,0,0,1,.71.35,1.27,1.27,0,0,1,.4.6,2.48,2.48,0,0,1,.14.87v4H77.57l0-.5a1.64,1.64,0,0,1-.44.31,2.34,2.34,0,0,1-.6.22,3.2,3.2,0,0,1-.65.08,2.56,2.56,0,0,1-.69-.09,1.62,1.62,0,0,1-.58-.31,1.52,1.52,0,0,1-.39-.55,2.14,2.14,0,0,1-.14-.81A1.88,1.88,0,0,1,74.36,51.58Zm.77,10.28v.88H73.61V66a1.1,1.1,0,0,0,.19.73.79.79,0,0,0,.64.23,2.06,2.06,0,0,0,.44,0,1.42,1.42,0,0,0,.32-.07l.2.83a3.41,3.41,0,0,1-.59.13,5.07,5.07,0,0,1-.68,0,2,2,0,0,1-.74-.12,1.15,1.15,0,0,1-.51-.34,1.41,1.41,0,0,1-.29-.54,2.7,2.7,0,0,1-.09-.73V62.74h-.92v-.88h.92v-1.3c.28-.11.66-.27,1.11-.5v1.8ZM67.78,48.49h1.07l0,.82a2.08,2.08,0,0,1,.73-.68,2.28,2.28,0,0,1,1.11-.26,2.06,2.06,0,0,1,1.13.29,1.51,1.51,0,0,1,.6.73,2.54,2.54,0,0,1,.16.89v4H71.48V50.6a1.41,1.41,0,0,0-.27-1,1.07,1.07,0,0,0-.84-.31,1.34,1.34,0,0,0-.82.27,1.49,1.49,0,0,0-.51.64,2,2,0,0,0-.14.7v3.39H67.78ZM64.5,46.26a.69.69,0,0,1,.29-.25.78.78,0,0,1,.33-.07.7.7,0,0,1,.38.11.7.7,0,0,1,.26.28.65.65,0,0,1,.08.31.64.64,0,0,1-.13.4.7.7,0,0,1-.29.24.89.89,0,0,1-.3.06.72.72,0,0,1-.29-.06.57.57,0,0,1-.23-.15.67.67,0,0,1-.22-.49A.64.64,0,0,1,64.5,46.26Zm-.57,2.23h1.88v5.84H64.69v-5l-.76-.09Zm-5.16-2.18h4.57v1H59.92v2.28h2.85v1H59.92v3.83H58.77Zm-15.59-8a2.47,2.47,0,0,1,.48-.71,2.18,2.18,0,0,1,.7-.48,2.38,2.38,0,0,1,.88-.17,2.27,2.27,0,0,1,.86.17,2.34,2.34,0,0,1,.71.48,2.47,2.47,0,0,1,.48.71,2.29,2.29,0,0,1,0,1.73,2.34,2.34,0,0,1-.48.71,2.17,2.17,0,0,1-.71.48,2.1,2.1,0,0,1-.86.17,2.19,2.19,0,0,1-.88-.17,2,2,0,0,1-.7-.48,2.34,2.34,0,0,1-.48-.71,2.17,2.17,0,0,1,0-1.73ZM46,360c0-.9,0-2.11-.06-3.64s-.09-3.09-.15-4.69l-2.76,7H41.32l-2.73-7c0,.65-.06,1.62-.1,2.91s-.07,2.39-.09,3.27,0,1.61,0,2.19H36c0-.62,0-1.29,0-2s0-1.44.07-2.19.07-1.51.12-2.27.09-1.5.14-2.22.09-1.41.15-2.06.1-1.24.16-1.76H39.2l3,7.81,3-7.81h2.45c.06.52.12,1.11.17,1.77s.1,1.36.14,2.1.08,1.5.12,2.28.08,1.55.15,2.31.12,1.48.13,2.17,0,1.32,0,1.88ZM49.71,54.33H40.77a2.2,2.2,0,0,1-.86-.17,2.34,2.34,0,0,1-.71-.48,2.25,2.25,0,0,1-.66-1.58v-.89H48.8V49.88H38.54V45a2.12,2.12,0,0,1,.18-.87,2.08,2.08,0,0,1,.48-.7,2.25,2.25,0,0,1,1.57-.66h8.94a2.12,2.12,0,0,1,.87.18,1.94,1.94,0,0,1,.71.48,2.42,2.42,0,0,1,.48.7,2.29,2.29,0,0,1,.17.87v.89H41.66v1.34H51.94V52.1a2.29,2.29,0,0,1-.17.87,2.47,2.47,0,0,1-.48.71,2.22,2.22,0,0,1-.71.48A2.29,2.29,0,0,1,49.71,54.33ZM58.22,360H55.9l-.07-.7a2.64,2.64,0,0,1-.65.45,4,4,0,0,1-.87.32,4.09,4.09,0,0,1-.91.1,3.83,3.83,0,0,1-1.09-.15,2.57,2.57,0,0,1-.89-.49,2.45,2.45,0,0,1-.6-.88,3.31,3.31,0,0,1-.23-1.29,2.88,2.88,0,0,1,.57-1.87,3.12,3.12,0,0,1,1.6-1,5,5,0,0,1,.94-.22c.34-.05.7-.08,1.08-.1l.41,0h.59v-.34a1.14,1.14,0,0,0-.22-.75,1.08,1.08,0,0,0-.66-.37,4.62,4.62,0,0,0-.94-.09,6.75,6.75,0,0,0-1.25.11,10.9,10.9,0,0,0-1.4.37v-1.95a12.76,12.76,0,0,1,1.53-.34,11.22,11.22,0,0,1,1.65-.1,5.43,5.43,0,0,1,2.3.4,2.13,2.13,0,0,1,1.14,1.15,4.18,4.18,0,0,1,.29,1.58ZM59.35,66.78a3.86,3.86,0,0,1-.67-1.31,7,7,0,0,1,0-3.55,3.76,3.76,0,0,1,.67-1.31,2.79,2.79,0,0,1,1.06-.81,3.52,3.52,0,0,1,2.75,0,2.79,2.79,0,0,1,1.06.81,3.6,3.6,0,0,1,.67,1.31,6.68,6.68,0,0,1,0,3.55,3.69,3.69,0,0,1-.67,1.31,3,3,0,0,1-1.06.81,3.64,3.64,0,0,1-2.75,0A3,3,0,0,1,59.35,66.78Zm7.41,286.14-.39-.06a4.91,4.91,0,0,0-.57,0,2,2,0,0,0-1.32.46,2.21,2.21,0,0,0-.72,1,3.25,3.25,0,0,0-.17,1V360H61.11v-9.18h2.33l.07,1.53a3.53,3.53,0,0,1,1.07-1.23A2.47,2.47,0,0,1,66,350.7a2.6,2.6,0,0,1,.5,0,1.1,1.1,0,0,1,.31.07ZM67.7,67.77c-.22,0-.42-.06-.59-.1l-.46-.13-.31-.13.3-.84.53.19a5.33,5.33,0,0,0,.55.11,4.46,4.46,0,0,0,.63,0,2.23,2.23,0,0,0,.81-.12.67.67,0,0,0,.39-.31.84.84,0,0,0,.09-.37.57.57,0,0,0-.23-.49,2,2,0,0,0-.59-.3c-.23-.07-.45-.14-.65-.22s-.46-.16-.66-.24a2.41,2.41,0,0,1-.52-.32,1.19,1.19,0,0,1-.35-.45,1.57,1.57,0,0,1-.12-.65,1.7,1.7,0,0,1,.15-.73,1.64,1.64,0,0,1,.44-.54,2,2,0,0,1,.68-.32,3.09,3.09,0,0,1,.89-.12,7,7,0,0,1,1,.07,6,6,0,0,1,.75.17v.92a5.68,5.68,0,0,0-1.68-.27,1.57,1.57,0,0,0-.85.19.59.59,0,0,0-.28.54.49.49,0,0,0,.1.32,1,1,0,0,0,.28.23,2.63,2.63,0,0,0,.44.19l.59.19a4.34,4.34,0,0,1,1.06.44,1.31,1.31,0,0,1,.55.57,1.87,1.87,0,0,1,.16.75,1.73,1.73,0,0,1-.17.78,1.49,1.49,0,0,1-.48.55,2.58,2.58,0,0,1-.75.33,4.13,4.13,0,0,1-1,.1A5.39,5.39,0,0,1,67.7,67.77ZM74.05,360q-.72-1.17-3.08-4.33V360H68.49V346.76H71v7.49l2.88-3.44h3l-3.51,4c.49.54,1.06,1.26,1.73,2.15s1.34,1.91,2,3.05ZM76.59,67.11a2.91,2.91,0,0,1-.48-.93,4.87,4.87,0,0,1-.17-1.35,4.47,4.47,0,0,1,.19-1.32,2.94,2.94,0,0,1,.52-1,2.33,2.33,0,0,1,.77-.6,2.25,2.25,0,0,1,1-.2,2.82,2.82,0,0,1,.52,0,3.88,3.88,0,0,1,.44.13l.33.18.23.2V59.22H81V67.7H80l0-.75a1.88,1.88,0,0,1-.69.66,2.27,2.27,0,0,1-1,.2,2.33,2.33,0,0,1-.93-.17A1.88,1.88,0,0,1,76.59,67.11Zm9.54,289.06H80.61a2.31,2.31,0,0,0,.68,1.59,2.4,2.4,0,0,0,1.64.51,8.74,8.74,0,0,0,1.21-.09,6.9,6.9,0,0,0,1.08-.23l.46,1.86a14,14,0,0,1-1.46.29,12.35,12.35,0,0,1-1.65.11,5.07,5.07,0,0,1-1.93-.35,3.92,3.92,0,0,1-1.43-1,4.38,4.38,0,0,1-.89-1.51,6.12,6.12,0,0,1-.31-2,6.23,6.23,0,0,1,.28-1.92,4.5,4.5,0,0,1,.8-1.52,3.71,3.71,0,0,1,1.33-1,4.5,4.5,0,0,1,1.86-.37,3.59,3.59,0,0,1,2.89,1.15,4.89,4.89,0,0,1,1,3.3C86.16,355.53,86.15,355.9,86.13,356.17Zm.31-288.38a9.61,9.61,0,0,1-1,0,3.16,3.16,0,0,1-1.19-.21,2.58,2.58,0,0,1-.87-.61,2.79,2.79,0,0,1-.55-1,4.08,4.08,0,0,1-.18-1.26,4.15,4.15,0,0,1,.17-1.25,3,3,0,0,1,.49-1,2.15,2.15,0,0,1,.81-.62,2.65,2.65,0,0,1,1.11-.23,2.16,2.16,0,0,1,1.76.71,3,3,0,0,1,.59,2c0,.26,0,.49,0,.69H83.85a2.21,2.21,0,0,0,.49,1.35,1.65,1.65,0,0,0,1.27.47,6.33,6.33,0,0,0,.76,0,4.73,4.73,0,0,0,.64-.14l.22.86A4.8,4.8,0,0,1,86.44,67.79Zm6.4,292.29a8.52,8.52,0,0,1-1.26.08,3.33,3.33,0,0,1-1.26-.2,2.18,2.18,0,0,1-.85-.58,2.32,2.32,0,0,1-.48-.89,4.59,4.59,0,0,1-.14-1.15v-4.58H87.49v-1.95h1.36v-1.95c.34-.12.73-.28,1.17-.46a14,14,0,0,0,1.3-.62v3h2.32v1.95H91.32v4.29a1.32,1.32,0,0,0,.25.91,1,1,0,0,0,.73.26,5,5,0,0,0,1.33-.17l.43,1.78A10.56,10.56,0,0,1,92.84,360.08ZM93.57,56.7l-.7-.13.17-.85a5.93,5.93,0,0,0,1.41.18,1.85,1.85,0,0,0,1.28-.37,1.4,1.4,0,0,0,.41-1.12v-.9a1.78,1.78,0,0,1-.69.65,2.22,2.22,0,0,1-1,.2,2.51,2.51,0,0,1-.92-.16,1.75,1.75,0,0,1-.73-.53,2.36,2.36,0,0,1-.48-.92,4.41,4.41,0,0,1-.17-1.34,4.28,4.28,0,0,1,.18-1.29,2.77,2.77,0,0,1,.51-.95,2.15,2.15,0,0,1,.76-.59,2.11,2.11,0,0,1,.93-.21,2.76,2.76,0,0,1,.74.1,1.94,1.94,0,0,1,.54.24,1.92,1.92,0,0,1,.32.28l0-.5h1.07v5.85a3.05,3.05,0,0,1-.16,1.07,2,2,0,0,1-.46.73,1.92,1.92,0,0,1-.82.48,3.91,3.91,0,0,1-1.13.15A7,7,0,0,1,93.57,56.7ZM98.38,360H95.9v-7.47l-1.14-.12v-1.59h3.62Zm-.22-11.25a1.46,1.46,0,0,1-.6.47,2,2,0,0,1-.64.13,1.63,1.63,0,0,1-.59-.11,1.8,1.8,0,0,1-.5-.3,1.58,1.58,0,0,1-.34-.43,1.24,1.24,0,0,1-.12-.53,1.21,1.21,0,0,1,.26-.77,1.48,1.48,0,0,1,.61-.48,2,2,0,0,1,.68-.14,1.53,1.53,0,0,1,.8.22,1.27,1.27,0,0,1,.55.55,1.36,1.36,0,0,1,.16.62A1.19,1.19,0,0,1,98.16,348.74Zm.18-281a4.83,4.83,0,0,1-.67,0,2.11,2.11,0,0,1-.75-.12,1.17,1.17,0,0,1-.5-.34,1.28,1.28,0,0,1-.29-.54,2.34,2.34,0,0,1-.1-.73V62.74h-.91v-.88H96v-1.3a12.26,12.26,0,0,0,1.12-.5v1.8h1.51v.88H97.15V66a1.1,1.1,0,0,0,.19.73.79.79,0,0,0,.64.23,2.06,2.06,0,0,0,.44,0,1.42,1.42,0,0,0,.32-.07l.2.83A3.33,3.33,0,0,1,98.34,67.77Zm.81-19.28h1.07l0,1.11a2.25,2.25,0,0,1,.48-.67,1.67,1.67,0,0,1,.58-.37,1.83,1.83,0,0,1,.59-.1,2.44,2.44,0,0,1,.44,0v1.06a2,2,0,0,0-.4,0,1.64,1.64,0,0,0-.73.15,1.76,1.76,0,0,0-.52.4,1.68,1.68,0,0,0-.31.53,1.71,1.71,0,0,0-.1.57v3.16H99.15Zm1.14,19.18-.45-.13a2.65,2.65,0,0,1-.31-.13l.29-.84.53.19c.16,0,.35.08.55.11a4.46,4.46,0,0,0,.63,0,2.23,2.23,0,0,0,.81-.12.67.67,0,0,0,.39-.31.74.74,0,0,0,.1-.37.58.58,0,0,0-.24-.49,1.92,1.92,0,0,0-.59-.3c-.23-.07-.45-.14-.65-.22a6.88,6.88,0,0,1-.65-.24,2.26,2.26,0,0,1-.53-.32,1.3,1.3,0,0,1-.35-.45,1.78,1.78,0,0,1,0-1.38,1.49,1.49,0,0,1,.43-.54,2,2,0,0,1,.68-.32,3.14,3.14,0,0,1,.89-.12,7.23,7.23,0,0,1,1,.07,5.83,5.83,0,0,1,.74.17v.92a4.68,4.68,0,0,0-.78-.19,4.91,4.91,0,0,0-.89-.08,1.59,1.59,0,0,0-.86.19.61.61,0,0,0-.28.54.55.55,0,0,0,.1.32,1.11,1.11,0,0,0,.28.23,2.63,2.63,0,0,0,.44.19l.59.19a4.17,4.17,0,0,1,1.06.44,1.31,1.31,0,0,1,.55.57,1.86,1.86,0,0,1,0,1.53,1.49,1.49,0,0,1-.48.55,2.4,2.4,0,0,1-.74.33,4.22,4.22,0,0,1-1,.1,5.39,5.39,0,0,1-.72,0C100.66,67.74,100.46,67.71,100.29,67.67ZM109.54,360h-2.48v-5.73a2,2,0,0,0-.21-1,1,1,0,0,0-.53-.47,1.76,1.76,0,0,0-.63-.12,1.56,1.56,0,0,0-1,.34,1.87,1.87,0,0,0-.63.81,2.37,2.37,0,0,0-.18.86V360h-2.48v-9.18h2.36l.06,1a2.55,2.55,0,0,1,.71-.67,3.29,3.29,0,0,1,1-.43,4.34,4.34,0,0,1,1-.12,3.27,3.27,0,0,1,1.78.45,2.31,2.31,0,0,1,1,1.17,4.06,4.06,0,0,1,.26,1.44Zm-.62-292.28a5.3,5.3,0,0,1-1,.08,3.05,3.05,0,0,1-1.17-.21,2.17,2.17,0,0,1-.86-.59,2.4,2.4,0,0,1-.53-.94,4.08,4.08,0,0,1-.18-1.26,4.17,4.17,0,0,1,.18-1.26,2.84,2.84,0,0,1,.54-1,2.26,2.26,0,0,1,.88-.6,3.1,3.1,0,0,1,1.18-.21,5,5,0,0,1,.89.07,2.93,2.93,0,0,1,.55.14v.92l-.23-.06a2.27,2.27,0,0,0-.3-.06l-.34-.06-.36,0a1.71,1.71,0,0,0-1.34.51,2.3,2.3,0,0,0-.45,1.57,2.36,2.36,0,0,0,.43,1.56,1.56,1.56,0,0,0,1.28.5,4.42,4.42,0,0,0,.76-.06,2.56,2.56,0,0,0,.49-.14l.26.87A5.26,5.26,0,0,1,108.92,67.71Zm1.19-19.22h1.07l0,.85a1.76,1.76,0,0,1,.43-.52,1.64,1.64,0,0,1,.62-.34,2.33,2.33,0,0,1,.7-.11A2,2,0,0,1,115,49.92a5.16,5.16,0,0,1,.2,1.41,5.3,5.3,0,0,1-.16,1.32,2.66,2.66,0,0,1-.49,1,2.05,2.05,0,0,1-.79.6,2.59,2.59,0,0,1-1.07.21,2.47,2.47,0,0,1-.86-.13,1.77,1.77,0,0,1-.62-.34v2.69h-1.12ZM112,67.7h-1.12V59.22H112v3.41a1.89,1.89,0,0,1,.7-.64,2.28,2.28,0,0,1,1.11-.25,2,2,0,0,1,1.12.29,1.47,1.47,0,0,1,.61.73,2.79,2.79,0,0,1,.16.89V67.7h-1.12V64a1.36,1.36,0,0,0-.28-1,1,1,0,0,0-.84-.31,1.32,1.32,0,0,0-.81.27,1.4,1.4,0,0,0-.51.64,1.82,1.82,0,0,0-.14.7Zm8.51,291.91a5.63,5.63,0,0,1-.27,1.9,2.92,2.92,0,0,1-.76,1.21,3.41,3.41,0,0,1-1.45.83,6.83,6.83,0,0,1-2,.25,13.37,13.37,0,0,1-1.85-.12,8.2,8.2,0,0,1-1.28-.25l.34-1.82a9.06,9.06,0,0,0,2.24.29,2.85,2.85,0,0,0,1.92-.52,2,2,0,0,0,.58-1.56v-.89a2.79,2.79,0,0,1-1,.73,3.35,3.35,0,0,1-1.37.26,4,4,0,0,1-1.44-.25,2.77,2.77,0,0,1-1.16-.79,3.7,3.7,0,0,1-.78-1.4,6.8,6.8,0,0,1-.28-2.1,6.38,6.38,0,0,1,.29-2.05,4.22,4.22,0,0,1,.79-1.49,3.32,3.32,0,0,1,1.17-.91,3.37,3.37,0,0,1,1.41-.3,3.61,3.61,0,0,1,1.43.24,3.18,3.18,0,0,1,1,.64l.07-.7h2.36Zm.56-291.82a9.31,9.31,0,0,1-1,0,3.1,3.1,0,0,1-1.18-.21A2.52,2.52,0,0,1,118,67a2.62,2.62,0,0,1-.54-1,3.79,3.79,0,0,1-.19-1.26,4.5,4.5,0,0,1,.17-1.25,2.79,2.79,0,0,1,.5-1,2.07,2.07,0,0,1,.81-.62,2.59,2.59,0,0,1,1.11-.23,2.18,2.18,0,0,1,1.76.71,3.07,3.07,0,0,1,.59,2q0,.39,0,.69h-3.72a2.21,2.21,0,0,0,.5,1.35,1.61,1.61,0,0,0,1.26.47,6.19,6.19,0,0,0,.76,0,4.41,4.41,0,0,0,.64-.14l.22.86A4.59,4.59,0,0,1,121.05,67.79ZM130.9,360l-.34-1.24-.39-1.39h-4.81c-.3,1.19-.52,2.07-.67,2.63h-2.53c.32-1.14.64-2.26,1-3.36s.71-2.22,1.12-3.38.81-2.22,1.2-3.18.8-1.83,1.19-2.59h2.46c.29.56.58,1.17.86,1.83s.57,1.35.85,2.07.54,1.44.8,2.19.5,1.49.7,2.24.42,1.48.61,2.18.39,1.37.56,2Zm1.63-292.15a6.88,6.88,0,0,1-1.66-.2,3.64,3.64,0,0,1-.55-.17l-.34-.14.32-.93c.11,0,.29.12.53.2a4.89,4.89,0,0,0,1.56.25,2.52,2.52,0,0,0,1.14-.21,1,1,0,0,0,.52-.52,1.8,1.8,0,0,0,.11-.59,1,1,0,0,0-.31-.76,2.2,2.2,0,0,0-.75-.46l-.79-.31c-.23-.08-.44-.16-.64-.25a5.27,5.27,0,0,1-.61-.33,2.21,2.21,0,0,1-.52-.49,1.68,1.68,0,0,1-.28-.57,2.91,2.91,0,0,1-.06-.6,2.1,2.1,0,0,1,.19-.92,2,2,0,0,1,.54-.7,2.55,2.55,0,0,1,.87-.44,3.72,3.72,0,0,1,1.15-.16,6,6,0,0,1,1.59.2l.39.1v1c-.19-.07-.4-.13-.62-.19a5,5,0,0,0-.69-.12,4,4,0,0,0-.69,0,1.91,1.91,0,0,0-1.17.31,1,1,0,0,0-.42.89.89.89,0,0,0,.13.5,1.29,1.29,0,0,0,.38.35,3,3,0,0,0,.57.29l.73.27c.3.11.58.22.85.34a2.69,2.69,0,0,1,.71.45,1.9,1.9,0,0,1,.49.66,2.13,2.13,0,0,1,.19,1,2.4,2.4,0,0,1-.19,1,1.93,1.93,0,0,1-.57.73,2.38,2.38,0,0,1-.9.45A4.38,4.38,0,0,1,132.53,67.84Zm13.86,286.48c-.35,1.23-.7,2.33-1.06,3.28s-.67,1.76-.93,2.39h-2.25l-1.46-5.55L139.12,360h-2.26c-.25-.65-.49-1.34-.74-2.07s-.49-1.48-.72-2.26-.45-1.58-.65-2.39-.39-1.64-.54-2.46h2.44q.19,1.4,1.45,6.17l1.72-6h1.93l1.55,5.9c.28-1,.56-2,.82-3s.49-2,.68-3.11h2.44C147,351.92,146.74,353.09,146.39,354.32ZM147.76,67.7H146.7l0-.5a1.64,1.64,0,0,1-.44.31,2.34,2.34,0,0,1-.6.22,2.62,2.62,0,0,1-.65.08,2.56,2.56,0,0,1-.69-.09,1.62,1.62,0,0,1-.58-.31,1.52,1.52,0,0,1-.39-.55,2.14,2.14,0,0,1-.14-.81,1.71,1.71,0,0,1,1.2-1.76,3.8,3.8,0,0,1,.74-.2,8.41,8.41,0,0,1,.93-.07h.59v-.32a1.17,1.17,0,0,0-.16-.67.8.8,0,0,0-.49-.33,2.71,2.71,0,0,0-.71-.09,3.35,3.35,0,0,0-.87.1,7.78,7.78,0,0,0-.77.22V62c.31-.08.54-.14.69-.16a4.84,4.84,0,0,1,.54-.07c.23,0,.43,0,.63,0a3.78,3.78,0,0,1,1,.12,1.71,1.71,0,0,1,.7.35,1.33,1.33,0,0,1,.4.6,2.48,2.48,0,0,1,.14.87ZM155.94,360h-2.32l-.08-.7a2.64,2.64,0,0,1-.65.45,3.78,3.78,0,0,1-.87.32,4.09,4.09,0,0,1-.91.1A3.88,3.88,0,0,1,150,360a2.67,2.67,0,0,1-.89-.49,2.45,2.45,0,0,1-.6-.88,3.31,3.31,0,0,1-.22-1.29,2.88,2.88,0,0,1,.56-1.87,3.16,3.16,0,0,1,1.6-1,5,5,0,0,1,.94-.22c.34-.05.7-.08,1.09-.1l.4,0h.59v-.34a1.14,1.14,0,0,0-.22-.75,1,1,0,0,0-.66-.37,4.62,4.62,0,0,0-.94-.09,6.75,6.75,0,0,0-1.25.11,10.9,10.9,0,0,0-1.4.37v-1.95a13.2,13.2,0,0,1,1.53-.34,11.28,11.28,0,0,1,1.66-.1,5.41,5.41,0,0,1,2.29.4,2.19,2.19,0,0,1,1.15,1.15,4.39,4.39,0,0,1,.29,1.58ZM157.41,67.7c-.24-.34-.5-.69-.79-1.07s-.58-.71-.85-1-.52-.57-.75-.79V67.7H153.9V59.22H155v4.9l2.18-2.26h1.35l-2.46,2.53a9.59,9.59,0,0,1,.73.71c.24.26.48.53.71.82s.45.58.67.89.42.6.61.89Zm7.06,285.22-.39-.06a4.86,4.86,0,0,0-.56,0,2,2,0,0,0-1.33.46,2.21,2.21,0,0,0-.72,1,3.6,3.6,0,0,0-.17,1V360h-2.48v-9.18h2.33l.07,1.53a3.53,3.53,0,0,1,1.07-1.23,2.63,2.63,0,0,1,1.87-.37,1,1,0,0,1,.31.07ZM168.4,65.63a2.17,2.17,0,0,0-.59-.3c-.24-.07-.46-.14-.66-.22s-.45-.16-.65-.24a2.49,2.49,0,0,1-.53-.32,1.28,1.28,0,0,1-.34-.45,1.42,1.42,0,0,1-.13-.65,1.57,1.57,0,0,1,.16-.73,1.61,1.61,0,0,1,.43-.54,2,2,0,0,1,.69-.32,3,3,0,0,1,.88-.12,7.12,7.12,0,0,1,1,.07,5.45,5.45,0,0,1,.74.17v.92a4.56,4.56,0,0,0-.77-.19,4.94,4.94,0,0,0-.9-.08,1.61,1.61,0,0,0-.86.19.61.61,0,0,0-.27.54.55.55,0,0,0,.09.32,1.11,1.11,0,0,0,.28.23,2.43,2.43,0,0,0,.45.19l.58.19a4.26,4.26,0,0,1,1.07.44,1.28,1.28,0,0,1,.54.57,1.71,1.71,0,0,1,.16.75,1.6,1.6,0,0,1-.17.78,1.55,1.55,0,0,1-.47.55,2.58,2.58,0,0,1-.75.33,4.19,4.19,0,0,1-1,.1,5.44,5.44,0,0,1-.73,0l-.59-.1-.45-.13-.31-.13.3-.84c.19.08.37.14.53.19a4.84,4.84,0,0,0,.55.11,4.21,4.21,0,0,0,.62,0,2.23,2.23,0,0,0,.81-.12.7.7,0,0,0,.4-.31.84.84,0,0,0,.09-.37A.59.59,0,0,0,168.4,65.63ZM174,360h-2.34l-.07-.8a3.33,3.33,0,0,1-.76.59,3,3,0,0,1-.8.3,3.8,3.8,0,0,1-.82.08,3.85,3.85,0,0,1-1.45-.26,2.93,2.93,0,0,1-1.16-.83,4,4,0,0,1-.78-1.45,7.26,7.26,0,0,1-.28-2.12,6.84,6.84,0,0,1,.3-2.13,4.63,4.63,0,0,1,.81-1.53,3.39,3.39,0,0,1,2.65-1.21,3.68,3.68,0,0,1,1.38.23,3.85,3.85,0,0,1,.84.47v-4.57H174Zm14.88,0h-8.28v-2l.62-.69c.25-.27.51-.57.78-.88l.84-.93.79-.87.8-.91a10.14,10.14,0,0,0,.73-.92,5.58,5.58,0,0,0,.54-.93,2.18,2.18,0,0,0,.21-.9,1.52,1.52,0,0,0-.39-1.13,1.89,1.89,0,0,0-1.37-.4,4.12,4.12,0,0,0-1.4.26,7.27,7.27,0,0,0-1.07.48c-.24.15-.4.24-.46.29v-2.34a9.7,9.7,0,0,1,1.08-.43,7.74,7.74,0,0,1,1.15-.28,6.94,6.94,0,0,1,1.17-.1,4.17,4.17,0,0,1,2.92.89,3.21,3.21,0,0,1,1,2.53,4.1,4.1,0,0,1-.21,1.29,6.26,6.26,0,0,1-.56,1.2,7.23,7.23,0,0,1-.75,1.06c-.28.34-.49.58-.65.74l-.51.54-2.23,2.37h5.27Zm.75-24h-2.32l-.07-.7a2.8,2.8,0,0,1-.66.46,3.7,3.7,0,0,1-.86.32,4.09,4.09,0,0,1-.91.1,3.5,3.5,0,0,1-1.09-.16,2.25,2.25,0,0,1-1.49-1.36,3.36,3.36,0,0,1-.23-1.3,3,3,0,0,1,.56-1.87,3.27,3.27,0,0,1,1.6-1,6.17,6.17,0,0,1,.94-.22c.34-.05.71-.08,1.09-.1h1v-.33A1.23,1.23,0,0,0,187,329a1.12,1.12,0,0,0-.66-.36,4.07,4.07,0,0,0-1-.1,6.67,6.67,0,0,0-1.24.12,9.34,9.34,0,0,0-1.4.36v-1.94a12.35,12.35,0,0,1,1.53-.34,11.09,11.09,0,0,1,1.65-.11,5.44,5.44,0,0,1,2.3.41,2.1,2.1,0,0,1,1.14,1.15,4.33,4.33,0,0,1,.29,1.57Zm0-271.07c-.41-1.1-.75-2.12-1-3.06h1.19c.19.68.41,1.41.67,2.2s.56,1.61.9,2.44c.34-.83.64-1.63.9-2.42s.48-1.52.67-2.22h1.16c-.31,1-.66,2.06-1,3.09s-.77,2-1.14,2.75h-1.13C190.42,67,190,66,189.63,64.92Zm9.24,293.64a4.05,4.05,0,0,1-6.45,0,11.49,11.49,0,0,1,0-9.64,4,4,0,0,1,6.45,0,11.69,11.69,0,0,1,0,9.64ZM200.64,336h-2.48v-5.72a2,2,0,0,0-.21-1,1,1,0,0,0-.53-.48,2,2,0,0,0-.63-.11,1.54,1.54,0,0,0-1,.34,1.89,1.89,0,0,0-.62.8,2.41,2.41,0,0,0-.18.86V336h-2.48v-9.17h2.36l.06,1a2.55,2.55,0,0,1,.71-.67,3.05,3.05,0,0,1,1-.43,4.39,4.39,0,0,1,1-.13,3.27,3.27,0,0,1,1.78.45,2.29,2.29,0,0,1,1,1.18,4.28,4.28,0,0,1,.26,1.43Zm1.75-271.45V67.7h-1.12V61.86h1.07l0,1.11a2.42,2.42,0,0,1,.47-.67,1.81,1.81,0,0,1,.59-.37,1.78,1.78,0,0,1,.59-.1,2.51,2.51,0,0,1,.44,0v1.06a2,2,0,0,0-.4,0,1.68,1.68,0,0,0-.74.15,1.9,1.9,0,0,0-.52.4,1.59,1.59,0,0,0-.3.54A1.64,1.64,0,0,0,202.39,64.54ZM209.78,360h-6.92v-1.94h2.26v-8.18l-1.31.37-1.19.35v-2l2.84-1.1h2.1v10.57h2.22Zm1.79-24h-2.34l-.07-.8a2.91,2.91,0,0,1-.75.6,3.08,3.08,0,0,1-.8.29,3.91,3.91,0,0,1-.83.09,4,4,0,0,1-1.44-.26,3,3,0,0,1-1.16-.83,3.8,3.8,0,0,1-.78-1.45,7,7,0,0,1-.28-2.12,6.84,6.84,0,0,1,.3-2.13,4.36,4.36,0,0,1,.81-1.53,3.2,3.2,0,0,1,1.2-.91,3.56,3.56,0,0,1,1.45-.31,3.48,3.48,0,0,1,1.38.24,2.94,2.94,0,0,1,.83.47v-4.57h2.48Zm.32-269.94a1.71,1.71,0,0,1,1.2-1.76,3.8,3.8,0,0,1,.74-.2,8.41,8.41,0,0,1,.93-.07h.59v-.32a1.17,1.17,0,0,0-.16-.67.83.83,0,0,0-.49-.33,2.71,2.71,0,0,0-.71-.09,3.35,3.35,0,0,0-.87.1,7.78,7.78,0,0,0-.77.22V62c.31-.08.54-.14.69-.16a4.84,4.84,0,0,1,.54-.07c.22,0,.43,0,.63,0a3.7,3.7,0,0,1,1,.12,1.69,1.69,0,0,1,.71.35,1.33,1.33,0,0,1,.4.6,2.48,2.48,0,0,1,.14.87v4H215.4l0-.5a1.44,1.44,0,0,1-.43.31,2.29,2.29,0,0,1-.61.22,2.49,2.49,0,0,1-.64.08,2.69,2.69,0,0,1-.7-.09,1.57,1.57,0,0,1-.57-.31,1.52,1.52,0,0,1-.39-.55A2,2,0,0,1,211.89,66.05Zm8.86,283.44c-.2.35-.5.94-.9,1.76s-.77,1.61-1.1,2.33c-.16.34-.31.7-.48,1.1s-.33.79-.49,1.2-.34.82-.5,1.23l-.45,1.16-.38,1c-.11.3-.2.55-.26.74h-2.51c.3-.89.65-1.84,1-2.86s.81-2,1.21-2.93c.3-.71.69-1.56,1.15-2.55s.82-1.7,1-2.1h-5.74v-2.07h8.37Zm1.44-17.31h-5.51a2.36,2.36,0,0,0,.68,1.59,2.44,2.44,0,0,0,1.64.5,8.5,8.5,0,0,0,1.2-.09,6.32,6.32,0,0,0,1.09-.22l.46,1.86a11.83,11.83,0,0,1-1.46.28,10.93,10.93,0,0,1-1.66.11,5.11,5.11,0,0,1-1.93-.34,3.88,3.88,0,0,1-1.42-1,4.18,4.18,0,0,1-.89-1.52,5.8,5.8,0,0,1-.31-2,6.55,6.55,0,0,1,.27-1.92,4.27,4.27,0,0,1,.81-1.52,3.73,3.73,0,0,1,1.33-1,4.46,4.46,0,0,1,1.85-.36,3.64,3.64,0,0,1,2.9,1.14,4.92,4.92,0,0,1,1,3.31A11.18,11.18,0,0,1,222.19,332.18Zm.95-264.48H222V64a1.41,1.41,0,0,0-.28-1,1,1,0,0,0-.84-.31,1.37,1.37,0,0,0-.82.27,1.44,1.44,0,0,0-.5.64,1.82,1.82,0,0,0-.14.7V67.7h-1.12V61.86h1.07l0,.82a2,2,0,0,1,.73-.68,2.26,2.26,0,0,1,1.1-.26,2,2,0,0,1,1.13.29,1.51,1.51,0,0,1,.6.73,2.55,2.55,0,0,1,.17.89Zm1.46,268a5.1,5.1,0,0,1-.62-.24l.63-1.85.82.3a6.62,6.62,0,0,0,.95.21,6.8,6.8,0,0,0,1,.08,3,3,0,0,0,1.28-.2.65.65,0,0,0,.37-.63.62.62,0,0,0-.34-.55,4.42,4.42,0,0,0-.94-.38c-.4-.12-.75-.23-1.06-.34a8.27,8.27,0,0,1-1-.41,3.24,3.24,0,0,1-.75-.53,2.36,2.36,0,0,1-.49-.72,2.84,2.84,0,0,1,.42-2.7,2.78,2.78,0,0,1,1.43-.91,6.4,6.4,0,0,1,1.63-.23,13.58,13.58,0,0,1,1.66.1,9,9,0,0,1,1.36.3v2a13.77,13.77,0,0,0-1.44-.36,8.51,8.51,0,0,0-1.45-.12,2.64,2.64,0,0,0-.92.13.6.6,0,0,0-.36.31,1.25,1.25,0,0,0,0,.32.62.62,0,0,0,.36.53,3.83,3.83,0,0,0,.88.36l1,.28a6.32,6.32,0,0,1,1.5.65,2.19,2.19,0,0,1,.83.91,2.7,2.7,0,0,1,.26,1.2,2.57,2.57,0,0,1-.63,1.81,3.17,3.17,0,0,1-1.6.91,8,8,0,0,1-1.84.22,10.21,10.21,0,0,1-1.65-.14A7,7,0,0,1,224.6,335.73Zm10.82,20.55h-9v-1.91h9ZM240,335a3.17,3.17,0,0,1-1.6.91,8,8,0,0,1-1.84.22,10.21,10.21,0,0,1-1.65-.14,7.34,7.34,0,0,1-1.26-.3,5.51,5.51,0,0,1-.61-.24l.63-1.85.82.3a6.79,6.79,0,0,0,.94.21,6.93,6.93,0,0,0,1,.08,3,3,0,0,0,1.28-.2.65.65,0,0,0,.37-.63.62.62,0,0,0-.34-.55,4.42,4.42,0,0,0-.94-.38c-.4-.12-.75-.23-1.06-.34a8.27,8.27,0,0,1-1-.41,2.87,2.87,0,0,1-.75-.53,2.36,2.36,0,0,1-.49-.72,2.84,2.84,0,0,1,.42-2.7,2.78,2.78,0,0,1,1.43-.91,6.4,6.4,0,0,1,1.63-.23,13.29,13.29,0,0,1,1.65.1,9.18,9.18,0,0,1,1.37.3v2a13.77,13.77,0,0,0-1.44-.36,8.51,8.51,0,0,0-1.45-.12,2.6,2.6,0,0,0-.92.13.6.6,0,0,0-.36.31,1,1,0,0,0-.06.32.63.63,0,0,0,.37.53,3.83,3.83,0,0,0,.88.36l1,.28a6.32,6.32,0,0,1,1.5.65,2.26,2.26,0,0,1,.83.91,2.84,2.84,0,0,1,.26,1.2A2.57,2.57,0,0,1,240,335ZM249,360h-7.57V347.48H244v10.44h5Zm-.41-26.62a5.8,5.8,0,0,1-.31-2,6.55,6.55,0,0,1,.27-1.92,4.41,4.41,0,0,1,.8-1.52,3.77,3.77,0,0,1,1.34-1,4.46,4.46,0,0,1,1.85-.36,3.64,3.64,0,0,1,2.9,1.14,4.92,4.92,0,0,1,1,3.31c0,.48,0,.86,0,1.13h-5.51a2.31,2.31,0,0,0,.68,1.59,2.44,2.44,0,0,0,1.64.5,8.72,8.72,0,0,0,1.2-.09,6,6,0,0,0,1.08-.22l.46,1.86a11.66,11.66,0,0,1-1.45.28,11.11,11.11,0,0,1-1.66.11,5.11,5.11,0,0,1-1.93-.34,4,4,0,0,1-1.43-1A4.31,4.31,0,0,1,248.63,333.37Zm9.76,22.8h-5.52a2.31,2.31,0,0,0,.68,1.59,2.4,2.4,0,0,0,1.64.51,8.74,8.74,0,0,0,1.21-.09,7.45,7.45,0,0,0,1.08-.23l.46,1.86a14,14,0,0,1-1.46.29,12.35,12.35,0,0,1-1.65.11,5.07,5.07,0,0,1-1.93-.35,3.84,3.84,0,0,1-1.43-1,4.38,4.38,0,0,1-.89-1.51,6.12,6.12,0,0,1-.31-2,6.55,6.55,0,0,1,.27-1.92,4.52,4.52,0,0,1,.81-1.52,3.71,3.71,0,0,1,1.33-1,4.47,4.47,0,0,1,1.86-.37,3.59,3.59,0,0,1,2.89,1.15,4.89,4.89,0,0,1,1,3.3C258.42,355.53,258.41,355.9,258.39,356.17Zm1-16.73.34-1.82a9,9,0,0,0,2.24.28,2.9,2.9,0,0,0,1.92-.51,2,2,0,0,0,.58-1.56v-.89a2.64,2.64,0,0,1-1,.72,3.16,3.16,0,0,1-1.37.26,4.27,4.27,0,0,1-1.44-.24,2.93,2.93,0,0,1-1.16-.79,3.81,3.81,0,0,1-.78-1.41,6.69,6.69,0,0,1-.28-2.09,6.49,6.49,0,0,1,.29-2.06,4.31,4.31,0,0,1,.79-1.49,3.18,3.18,0,0,1,1.17-.9,3.38,3.38,0,0,1,1.41-.31,3.6,3.6,0,0,1,1.43.25,3,3,0,0,1,.95.64l.07-.7H267v8.8a6,6,0,0,1-.26,1.9,3.11,3.11,0,0,1-.77,1.21,3.4,3.4,0,0,1-1.45.82,6.82,6.82,0,0,1-1.95.26,13.37,13.37,0,0,1-1.85-.12A9.59,9.59,0,0,1,259.42,339.44Zm9.5,20.55h-2.37l-.05-1.05a2.75,2.75,0,0,1-.74.7,3.11,3.11,0,0,1-1,.4,4.25,4.25,0,0,1-.95.12,3.11,3.11,0,0,1-2.26-.75,2.9,2.9,0,0,1-.77-2.17v-6.43h2.48v5.84a2.31,2.31,0,0,0,.09.69,1.13,1.13,0,0,0,.27.44,1.07,1.07,0,0,0,.43.24,2,2,0,0,0,.57.08,1.54,1.54,0,0,0,1-.34,1.89,1.89,0,0,0,.62-.8,2.41,2.41,0,0,0,.18-.86v-5.29h2.48Zm.86-26.62a5.8,5.8,0,0,1-.31-2,6.55,6.55,0,0,1,.27-1.92,4.43,4.43,0,0,1,.81-1.52,3.73,3.73,0,0,1,1.33-1,4.46,4.46,0,0,1,1.85-.36,3.62,3.62,0,0,1,2.9,1.14,4.92,4.92,0,0,1,1,3.31,11.18,11.18,0,0,1,0,1.13h-5.51a2.36,2.36,0,0,0,.68,1.59,2.45,2.45,0,0,0,1.64.5,8.74,8.74,0,0,0,1.21-.09,6.39,6.39,0,0,0,1.08-.22l.46,1.86a11.83,11.83,0,0,1-1.46.28,10.88,10.88,0,0,1-1.65.11,5,5,0,0,1-1.93-.34,3.84,3.84,0,0,1-1.43-1A4.18,4.18,0,0,1,269.78,333.37ZM277.49,360a8.52,8.52,0,0,1-1.59.13,5.06,5.06,0,0,1-1.89-.33,4,4,0,0,1-1.4-.94,4.11,4.11,0,0,1-.87-1.48,5.94,5.94,0,0,1-.3-1.94,6.14,6.14,0,0,1,.31-2,4,4,0,0,1,.89-1.5,3.69,3.69,0,0,1,1.43-1,5.09,5.09,0,0,1,1.94-.34,7.35,7.35,0,0,1,1.42.14,4.87,4.87,0,0,1,.92.22v2a3.54,3.54,0,0,0-.74-.17,6.06,6.06,0,0,0-1.06-.11,3.49,3.49,0,0,0-1.07.16,1.84,1.84,0,0,0-.78.48,2.16,2.16,0,0,0-.48.84,4.1,4.1,0,0,0-.17,1.25,3,3,0,0,0,.58,2,2.07,2.07,0,0,0,1.66.66,6,6,0,0,0,1-.09,6.08,6.08,0,0,0,.91-.22l.54,1.91A10.07,10.07,0,0,1,277.49,360Zm2.58-33.18h2.33l.07,1.53a3.29,3.29,0,0,1,1.08-1.23,2.38,2.38,0,0,1,1.37-.42,3.6,3.6,0,0,1,.49,0l.32.07v2.12l-.4-.07a4.86,4.86,0,0,0-.56,0,2,2,0,0,0-1.33.47,2.12,2.12,0,0,0-.72,1,3.54,3.54,0,0,0-.17,1V336h-2.48ZM288.75,360h-2.47v-5.73a1.87,1.87,0,0,0-.22-1,1,1,0,0,0-.53-.47,1.76,1.76,0,0,0-.63-.12,1.58,1.58,0,0,0-.95.34,1.87,1.87,0,0,0-.63.81,2.37,2.37,0,0,0-.18.86V360h-2.48V346.76h2.48v5a2.72,2.72,0,0,1,1-.79,3.73,3.73,0,0,1,1.59-.31,3.3,3.3,0,0,1,1.79.45,2.34,2.34,0,0,1,1,1.17,4.06,4.06,0,0,1,.26,1.44Zm7.12.09a8.75,8.75,0,0,1-1.27.08,3.4,3.4,0,0,1-1.26-.2,2.14,2.14,0,0,1-.84-.58,2.32,2.32,0,0,1-.48-.89,4.16,4.16,0,0,1-.15-1.15v-4.58h-1.35v-1.95h1.35v-1.95c.34-.12.73-.28,1.17-.46a14.16,14.16,0,0,0,1.31-.62v3h2.31v1.95h-2.31v4.29a1.27,1.27,0,0,0,.25.91.94.94,0,0,0,.72.26,6.16,6.16,0,0,0,.75-.05l.58-.12.43,1.78A10.4,10.4,0,0,1,295.87,360.08Zm7.09,0a8.75,8.75,0,0,1-1.27.08,3.33,3.33,0,0,1-1.26-.2,2.18,2.18,0,0,1-.85-.58,2.45,2.45,0,0,1-.47-.89,4.16,4.16,0,0,1-.15-1.15v-4.58H297.6v-1.95H299v-1.95c.34-.12.73-.28,1.17-.46s.87-.39,1.31-.62v3h2.31v1.95h-2.31v4.29a1.27,1.27,0,0,0,.25.91.92.92,0,0,0,.72.26,5,5,0,0,0,1.33-.17l.43,1.78A10.4,10.4,0,0,1,303,360.08Zm1.14-23.91A3.5,3.5,0,0,1,303,336a2.22,2.22,0,0,1-.89-.49,2.35,2.35,0,0,1-.61-.87,3.57,3.57,0,0,1-.22-1.3,3,3,0,0,1,.56-1.87,3.27,3.27,0,0,1,1.6-1,6.17,6.17,0,0,1,.94-.22c.34-.05.7-.08,1.09-.1h1v-.33a1.23,1.23,0,0,0-.22-.76,1.12,1.12,0,0,0-.66-.36,4.07,4.07,0,0,0-1-.1,6.67,6.67,0,0,0-1.24.12,9,9,0,0,0-1.4.36v-1.94a12.35,12.35,0,0,1,1.53-.34,10.89,10.89,0,0,1,1.65-.11,5.44,5.44,0,0,1,2.3.41,2.13,2.13,0,0,1,1.14,1.15,4.33,4.33,0,0,1,.29,1.57V336H306.6l-.07-.7a3,3,0,0,1-.66.46,3.62,3.62,0,0,1-.87.32A3.94,3.94,0,0,1,304.1,336.17ZM313.86,360H311.5l-.06-1.05a2.61,2.61,0,0,1-.74.7,3.16,3.16,0,0,1-1,.4,4.19,4.19,0,0,1-1,.12,3.09,3.09,0,0,1-2.25-.75,2.9,2.9,0,0,1-.77-2.17v-6.43h2.48v5.84a2.31,2.31,0,0,0,.09.69,1.27,1.27,0,0,0,.27.44,1.07,1.07,0,0,0,.43.24,1.89,1.89,0,0,0,.56.08,1.55,1.55,0,0,0,1-.34,1.89,1.89,0,0,0,.62-.8,2.41,2.41,0,0,0,.18-.86v-5.29h2.48Zm.1-24.19a3.72,3.72,0,0,1-1.4-.94,4.07,4.07,0,0,1-.87-1.47,6,6,0,0,1-.3-1.95,5.78,5.78,0,0,1,.31-2,4.12,4.12,0,0,1,.88-1.51,4,4,0,0,1,1.44-1,5.29,5.29,0,0,1,1.94-.33,7.43,7.43,0,0,1,1.42.13,5.5,5.5,0,0,1,.92.23V329a5.6,5.6,0,0,0-.75-.17,5.79,5.79,0,0,0-1.05-.1,3.5,3.5,0,0,0-1.07.15,2.06,2.06,0,0,0-.78.48,1.91,1.91,0,0,0-.48.85,4.08,4.08,0,0,0-.17,1.24,3,3,0,0,0,.58,2,2.07,2.07,0,0,0,1.66.66,6,6,0,0,0,1-.09,6.08,6.08,0,0,0,.91-.22l.53,1.9a9.46,9.46,0,0,1-1.27.31,9.56,9.56,0,0,1-1.59.13A5.06,5.06,0,0,1,314,335.8Zm8.49,17.12-.4-.06a4.73,4.73,0,0,0-.56,0,2,2,0,0,0-1.32.46,2.32,2.32,0,0,0-.73,1,3.55,3.55,0,0,0-.16,1V360H316.8v-9.18h2.33l.07,1.53a3.43,3.43,0,0,1,1.07-1.23,2.47,2.47,0,0,1,1.37-.41,2.6,2.6,0,0,1,.5,0,1.1,1.1,0,0,1,.31.07Zm.82-23.08a2.41,2.41,0,0,0-.18.86V336h-2.48V322.77h2.48v5a2.53,2.53,0,0,1,1-.79,3.7,3.7,0,0,1,1.59-.32,3.27,3.27,0,0,1,1.78.45,2.29,2.29,0,0,1,1,1.18,4,4,0,0,1,.26,1.43V336h-2.48v-5.72a2,2,0,0,0-.21-1,1,1,0,0,0-.53-.48,2,2,0,0,0-.63-.11,1.5,1.5,0,0,0-1,.34A1.84,1.84,0,0,0,323.27,329.84ZM337.17,360h-2.48v-5.81a1.85,1.85,0,0,0-.28-1.13,1.09,1.09,0,0,0-.91-.36,1.28,1.28,0,0,0-.64.17,1.63,1.63,0,0,0-.51.43,2,2,0,0,0-.32.64,2.48,2.48,0,0,0-.12.77V360h-2.48v-5.81a1.79,1.79,0,0,0-.28-1.13,1.08,1.08,0,0,0-.9-.36,1.31,1.31,0,0,0-.65.17,1.75,1.75,0,0,0-.51.43,2.26,2.26,0,0,0-.32.64,2.47,2.47,0,0,0-.11.77V360h-2.48v-9.18h2.36l.06,1a2.74,2.74,0,0,1,1-.88,3,3,0,0,1,1.48-.34,3.07,3.07,0,0,1,1.57.35,2.2,2.2,0,0,1,.93,1,3.79,3.79,0,0,1,.78-.77,3.06,3.06,0,0,1,.95-.45,3.85,3.85,0,0,1,1-.13,3.09,3.09,0,0,1,1.75.45,2.17,2.17,0,0,1,.9,1.16,4.62,4.62,0,0,1,.23,1.41Zm.67-24.95a3.09,3.09,0,0,1-1.59.91,8,8,0,0,1-1.84.22,10,10,0,0,1-1.65-.14,6.89,6.89,0,0,1-1.26-.3,4.78,4.78,0,0,1-.61-.24l.63-1.85.82.3a7,7,0,0,0,2,.29,2.94,2.94,0,0,0,1.27-.2.65.65,0,0,0,.38-.63.64.64,0,0,0-.34-.55,4.65,4.65,0,0,0-.94-.38c-.4-.12-.76-.23-1.06-.34a8.27,8.27,0,0,1-1-.41,3.11,3.11,0,0,1-.76-.53,2.52,2.52,0,0,1-.48-.72,2.84,2.84,0,0,1,.42-2.7,2.78,2.78,0,0,1,1.43-.91,6.34,6.34,0,0,1,1.63-.23,13.29,13.29,0,0,1,1.65.1,9.18,9.18,0,0,1,1.37.3v2a13.77,13.77,0,0,0-1.44-.36,8.6,8.6,0,0,0-1.45-.12,2.6,2.6,0,0,0-.92.13.6.6,0,0,0-.36.31,1,1,0,0,0-.06.32.62.62,0,0,0,.36.53,3.92,3.92,0,0,0,.89.36l1,.28a6.71,6.71,0,0,1,1.5.65,2.17,2.17,0,0,1,.82.91,2.71,2.71,0,0,1,.27,1.2A2.54,2.54,0,0,1,337.84,335Zm9.9,21.13h-5.52a2.31,2.31,0,0,0,.68,1.59,2.4,2.4,0,0,0,1.64.51,8.74,8.74,0,0,0,1.21-.09,7.17,7.17,0,0,0,1.08-.23l.46,1.86a14,14,0,0,1-1.46.29,12.35,12.35,0,0,1-1.65.11,5.07,5.07,0,0,1-1.93-.35,3.92,3.92,0,0,1-1.43-1,4.38,4.38,0,0,1-.89-1.51,6.12,6.12,0,0,1-.31-2,6.23,6.23,0,0,1,.28-1.92,4.33,4.33,0,0,1,.8-1.52,3.71,3.71,0,0,1,1.33-1,4.47,4.47,0,0,1,1.86-.37,3.59,3.59,0,0,1,2.89,1.15,4.89,4.89,0,0,1,1,3.3C347.77,355.53,347.76,355.9,347.74,356.17Zm.76-24H343a2.36,2.36,0,0,0,.68,1.59,2.45,2.45,0,0,0,1.64.5,8.74,8.74,0,0,0,1.21-.09,6.39,6.39,0,0,0,1.08-.22l.46,1.86a11.83,11.83,0,0,1-1.46.28,10.88,10.88,0,0,1-1.65.11,5.07,5.07,0,0,1-1.93-.34,3.84,3.84,0,0,1-1.43-1,4.18,4.18,0,0,1-.89-1.52,5.8,5.8,0,0,1-.31-2,6.55,6.55,0,0,1,.27-1.92,4.43,4.43,0,0,1,.81-1.52,3.73,3.73,0,0,1,1.33-1,4.46,4.46,0,0,1,1.85-.36,3.62,3.62,0,0,1,2.9,1.14,4.92,4.92,0,0,1,1,3.31A11.18,11.18,0,0,1,348.5,332.18Zm5.15-2.34a2.41,2.41,0,0,0-.18.86V336H351v-9.17h2.36l.06,1a2.42,2.42,0,0,1,.71-.67,3.05,3.05,0,0,1,1-.43,4.32,4.32,0,0,1,1-.13,3.27,3.27,0,0,1,1.78.45,2.29,2.29,0,0,1,1,1.18,4.28,4.28,0,0,1,.26,1.43V336h-2.48v-5.72a2,2,0,0,0-.21-1,1.06,1.06,0,0,0-.53-.48,2,2,0,0,0-.63-.11,1.54,1.54,0,0,0-1,.34A1.84,1.84,0,0,0,353.65,329.84ZM362.59,360h-2.34l-.07-.8a3.33,3.33,0,0,1-.76.59,2.86,2.86,0,0,1-.8.3,4.16,4.16,0,0,1-2.26-.18,2.89,2.89,0,0,1-1.17-.83,4,4,0,0,1-.78-1.45,7.26,7.26,0,0,1-.28-2.12,6.84,6.84,0,0,1,.3-2.13,4.46,4.46,0,0,1,.82-1.53,3.48,3.48,0,0,1,1.19-.91,3.92,3.92,0,0,1,2.83-.07,3.85,3.85,0,0,1,.84.47v-4.57h2.48Zm10.62-3.82H367.7a2.27,2.27,0,0,0,.68,1.59,2.39,2.39,0,0,0,1.64.51,8.72,8.72,0,0,0,1.2-.09,6.9,6.9,0,0,0,1.08-.23l.46,1.86a13.47,13.47,0,0,1-1.46.29,12.35,12.35,0,0,1-1.65.11,5.11,5.11,0,0,1-1.93-.35,4,4,0,0,1-1.43-1,4.54,4.54,0,0,1-.89-1.51,6.12,6.12,0,0,1-.3-2,6.55,6.55,0,0,1,.27-1.92,4.5,4.5,0,0,1,.8-1.52,3.8,3.8,0,0,1,1.33-1,4.54,4.54,0,0,1,1.86-.37,3.61,3.61,0,0,1,2.9,1.15,4.94,4.94,0,0,1,1,3.3C373.24,355.53,373.23,355.9,373.21,356.17Zm8.14-3.25-.39-.06a4.91,4.91,0,0,0-.57,0,2,2,0,0,0-1.32.46,2.21,2.21,0,0,0-.72,1,3.25,3.25,0,0,0-.17,1V360H375.7v-9.18H378l.07,1.53a3.53,3.53,0,0,1,1.07-1.23,2.47,2.47,0,0,1,1.37-.41,2.6,2.6,0,0,1,.5,0,1.1,1.1,0,0,1,.31.07Zm3.7-24.22a1.54,1.54,0,0,0-1,.34,1.84,1.84,0,0,0-.63.8,2.41,2.41,0,0,0-.18.86V336H380.8v-9.17h2.37l.05,1a2.46,2.46,0,0,1,.72-.67,3,3,0,0,1,1-.43,4.23,4.23,0,0,1,.95-.13,3.3,3.3,0,0,1,1.79.45,2.27,2.27,0,0,1,1,1.18,4.06,4.06,0,0,1,.27,1.43V336h-2.48v-5.72a2,2,0,0,0-.21-1,1,1,0,0,0-.54-.48A2,2,0,0,0,385.05,328.7ZM391.68,360h-2.52V349.61h-3.45v-2.13h9.41v2.13h-3.44Zm11.87-2.71a4.55,4.55,0,0,1-.85,1.53,4,4,0,0,1-1.38,1,4.89,4.89,0,0,1-3.73,0,3.9,3.9,0,0,1-1.37-1,4.39,4.39,0,0,1-.85-1.53,6,6,0,0,1-.29-1.88,6.3,6.3,0,0,1,.28-1.93,4.23,4.23,0,0,1,.83-1.52,3.77,3.77,0,0,1,1.37-1,4.65,4.65,0,0,1,1.89-.36,4.39,4.39,0,0,1,2.62.76,3.71,3.71,0,0,1,1.41,1.89,7,7,0,0,1,.36,2.16A6,6,0,0,1,403.55,357.28Zm1.19-21.11a3.5,3.5,0,0,1-1.09-.16,2.29,2.29,0,0,1-.89-.49,2.33,2.33,0,0,1-.6-.87,3.36,3.36,0,0,1-.23-1.3,2.92,2.92,0,0,1,.57-1.87,3.19,3.19,0,0,1,1.59-1,6.17,6.17,0,0,1,.94-.22c.34-.05.71-.08,1.09-.1h1v-.33a1.17,1.17,0,0,0-.22-.76,1.12,1.12,0,0,0-.66-.36,4.07,4.07,0,0,0-.95-.1,6.75,6.75,0,0,0-1.24.12,9.34,9.34,0,0,0-1.4.36v-1.94a12.35,12.35,0,0,1,1.53-.34,11.09,11.09,0,0,1,1.65-.11,5.44,5.44,0,0,1,2.3.41,2.1,2.1,0,0,1,1.14,1.15,4.13,4.13,0,0,1,.29,1.57V336h-2.32l-.07-.7a2.8,2.8,0,0,1-.66.46,3.7,3.7,0,0,1-.86.32A4.09,4.09,0,0,1,404.74,336.17ZM414.43,360h-2.36l-.06-1.05a2.61,2.61,0,0,1-.74.7,3.11,3.11,0,0,1-1,.4,4.19,4.19,0,0,1-.95.12,3.09,3.09,0,0,1-2.25-.75,2.86,2.86,0,0,1-.77-2.17v-6.43h2.47v5.84a2.29,2.29,0,0,0,.1.69,1.12,1.12,0,0,0,.26.44,1.07,1.07,0,0,0,.43.24,2,2,0,0,0,.57.08,1.55,1.55,0,0,0,1-.34,1.87,1.87,0,0,0,.61-.8,2.41,2.41,0,0,0,.18-.86v-5.29h2.48Zm.57-24h-2.48V324.47l-1.14-.12v-1.58H415Zm8,16.93-.39-.06a4.91,4.91,0,0,0-.57,0,2,2,0,0,0-1.32.46,2.21,2.21,0,0,0-.72,1,3.25,3.25,0,0,0-.17,1V360h-2.48v-9.18h2.33l.07,1.53a3.53,3.53,0,0,1,1.07-1.23,2.47,2.47,0,0,1,1.37-.41,2.6,2.6,0,0,1,.5,0,1.1,1.1,0,0,1,.31.07Zm-.84-16.84a8.49,8.49,0,0,1-1.26.09,3.32,3.32,0,0,1-1.26-.21,2.08,2.08,0,0,1-.85-.58,2.19,2.19,0,0,1-.48-.89,4,4,0,0,1-.15-1.14v-4.59h-1.35v-1.94h1.35v-1.95l1.18-.46c.44-.19.87-.39,1.3-.62v3H423v1.94h-2.31v4.3a1.34,1.34,0,0,0,.25.91,1,1,0,0,0,.73.26,6,6,0,0,0,.74-.05,4.13,4.13,0,0,0,.59-.13l.43,1.79C423,335.94,422.59,336,422.18,336.08ZM427.42,360h-2.48v-7.47l-1.14-.12v-1.59h3.62Zm-.21-11.25a1.42,1.42,0,0,1-.61.47,1.87,1.87,0,0,1-.63.13,1.64,1.64,0,0,1-.6-.11,1.61,1.61,0,0,1-.49-.3,1.27,1.27,0,0,1-.34-.43,1.25,1.25,0,0,1-.13-.53,1.21,1.21,0,0,1,.26-.77,1.51,1.51,0,0,1,.62-.48,1.92,1.92,0,0,1,.68-.14,1.56,1.56,0,0,1,.8.22,1.3,1.3,0,0,1,.54.55,1.36,1.36,0,0,1,.16.62A1.23,1.23,0,0,1,427.21,348.74ZM436.75,359a3.1,3.1,0,0,1-1.6.91,8,8,0,0,1-1.84.22,9.19,9.19,0,0,1-1.65-.14,8.62,8.62,0,0,1-1.26-.29,5.51,5.51,0,0,1-.61-.24l.63-1.86a7.07,7.07,0,0,0,.82.3,5.6,5.6,0,0,0,.94.22,6.94,6.94,0,0,0,1,.07,3,3,0,0,0,1.28-.19.67.67,0,0,0,.37-.63.61.61,0,0,0-.34-.55,4.09,4.09,0,0,0-.94-.39c-.4-.11-.75-.23-1.06-.34a6.88,6.88,0,0,1-1-.41,2.65,2.65,0,0,1-.75-.53,2.2,2.2,0,0,1-.49-.71,2.64,2.64,0,0,1-.17-1,2.59,2.59,0,0,1,.59-1.73,2.85,2.85,0,0,1,1.43-.91,6.32,6.32,0,0,1,1.63-.22,11.6,11.6,0,0,1,1.65.1,10.66,10.66,0,0,1,1.37.29v2a10.1,10.1,0,0,0-1.44-.36,8.6,8.6,0,0,0-1.45-.12,2.39,2.39,0,0,0-.92.13.63.63,0,0,0-.36.3,1,1,0,0,0-.06.32.62.62,0,0,0,.36.54,3.51,3.51,0,0,0,.89.35l1,.28a6.3,6.3,0,0,1,1.5.66,2.24,2.24,0,0,1,.83.9,2.84,2.84,0,0,1,.26,1.2A2.57,2.57,0,0,1,436.75,359Zm16,1h-2.47v-5.81a1.78,1.78,0,0,0-.29-1.13,1.07,1.07,0,0,0-.9-.36,1.31,1.31,0,0,0-.65.17,1.71,1.71,0,0,0-.5.43,2.28,2.28,0,0,0-.33.64,2.81,2.81,0,0,0-.11.77V360H445v-5.81a1.79,1.79,0,0,0-.28-1.13,1.09,1.09,0,0,0-.91-.36,1.28,1.28,0,0,0-.64.17,1.63,1.63,0,0,0-.51.43,2,2,0,0,0-.32.64,2.48,2.48,0,0,0-.12.77V360h-2.48v-9.18h2.37l.06,1a2.79,2.79,0,0,1,1-.88,3,3,0,0,1,1.49-.34,3.12,3.12,0,0,1,1.57.35,2.2,2.2,0,0,1,.93,1,3.56,3.56,0,0,1,.78-.77,3,3,0,0,1,1-.45,3.85,3.85,0,0,1,1-.13,3.06,3.06,0,0,1,1.74.45,2.24,2.24,0,0,1,.91,1.16,4.61,4.61,0,0,1,.22,1.41Zm10.93,0h-2.36l-.06-1.05a2.61,2.61,0,0,1-.74.7,3.11,3.11,0,0,1-1,.4,4.19,4.19,0,0,1-.95.12,3.09,3.09,0,0,1-2.25-.75,2.86,2.86,0,0,1-.77-2.17v-6.43H458v5.84a2.31,2.31,0,0,0,.09.69,1,1,0,0,0,.69.68,2,2,0,0,0,.57.08,1.55,1.55,0,0,0,1-.34,1.87,1.87,0,0,0,.61-.8,2.41,2.41,0,0,0,.18-.86v-5.29h2.48Zm9.2-1a3.1,3.1,0,0,1-1.6.91,8,8,0,0,1-1.84.22,9.19,9.19,0,0,1-1.65-.14,8.62,8.62,0,0,1-1.26-.29,5.51,5.51,0,0,1-.61-.24l.63-1.86a7.07,7.07,0,0,0,.82.3,5.6,5.6,0,0,0,.94.22,6.94,6.94,0,0,0,1,.07,3,3,0,0,0,1.28-.19.66.66,0,0,0,.37-.63.61.61,0,0,0-.34-.55,3.91,3.91,0,0,0-.94-.39c-.4-.11-.75-.23-1.06-.34a6.88,6.88,0,0,1-1-.41,2.65,2.65,0,0,1-.75-.53,2.2,2.2,0,0,1-.49-.71,2.64,2.64,0,0,1-.17-1,2.59,2.59,0,0,1,.59-1.73,2.85,2.85,0,0,1,1.43-.91,6.37,6.37,0,0,1,1.63-.22,11.6,11.6,0,0,1,1.65.1,10.66,10.66,0,0,1,1.37.29v2a10.1,10.1,0,0,0-1.44-.36,8.51,8.51,0,0,0-1.45-.12,2.43,2.43,0,0,0-.92.13.63.63,0,0,0-.36.3.93.93,0,0,0-.05.32.62.62,0,0,0,.36.54,3.43,3.43,0,0,0,.88.35l1,.28a6.3,6.3,0,0,1,1.5.66,2.24,2.24,0,0,1,.83.9,2.84,2.84,0,0,1,.26,1.2A2.57,2.57,0,0,1,472.84,359Zm13.91-4.71c-.35,1.23-.7,2.33-1.06,3.28s-.66,1.76-.93,2.39h-2.25l-1.46-5.55L479.48,360h-2.26c-.24-.65-.49-1.34-.74-2.07s-.49-1.48-.72-2.26-.45-1.58-.65-2.39-.39-1.64-.54-2.46H477q.19,1.4,1.45,6.17l1.73-6h1.92l1.56,5.9c.28-1,.55-2,.81-3s.49-2,.68-3.11h2.44C487.38,351.92,487.1,353.09,486.75,354.32ZM492,360h-2.48v-7.47l-1.14-.12v-1.59H492Zm-.21-11.25a1.42,1.42,0,0,1-.61.47,1.87,1.87,0,0,1-.63.13,1.73,1.73,0,0,1-.6-.11,1.74,1.74,0,0,1-.49-.3,1.41,1.41,0,0,1-.34-.43A1.24,1.24,0,0,1,489,348a1.21,1.21,0,0,1,.25-.77,1.51,1.51,0,0,1,.62-.48,2,2,0,0,1,.68-.14,1.53,1.53,0,0,1,.8.22,1.3,1.3,0,0,1,.54.55,1.38,1.38,0,0,1,.17.62A1.19,1.19,0,0,1,491.76,348.74Zm8.94,4.18-.4-.06a4.86,4.86,0,0,0-.56,0,2,2,0,0,0-1.33.46,2.21,2.21,0,0,0-.72,1,3.6,3.6,0,0,0-.17,1V360H495v-9.18h2.33l.07,1.53a3.45,3.45,0,0,1,1.08-1.23,2.45,2.45,0,0,1,1.37-.41,2.49,2.49,0,0,1,.49,0,1.19,1.19,0,0,1,.32.07Zm5.95,7.16a8.66,8.66,0,0,1-1.27.08,3.4,3.4,0,0,1-1.26-.2,2.22,2.22,0,0,1-.84-.58,2.32,2.32,0,0,1-.48-.89,4.16,4.16,0,0,1-.15-1.15v-4.58H501.3v-1.95h1.35v-1.95c.35-.12.74-.28,1.18-.46s.87-.39,1.3-.62v3h2.31v1.95h-2.31v4.29a1.27,1.27,0,0,0,.25.91,1,1,0,0,0,.73.26,6.13,6.13,0,0,0,.74-.05,5.69,5.69,0,0,0,.58-.12l.43,1.78A10.4,10.4,0,0,1,506.65,360.08Zm9.12-1.05a3.1,3.1,0,0,1-1.6.91,8,8,0,0,1-1.84.22,9.11,9.11,0,0,1-1.65-.14,8.31,8.31,0,0,1-1.26-.29,4.78,4.78,0,0,1-.61-.24l.63-1.86a7.07,7.07,0,0,0,.82.3,5.6,5.6,0,0,0,.94.22,6.94,6.94,0,0,0,1,.07,2.94,2.94,0,0,0,1.27-.19.66.66,0,0,0,.38-.63.61.61,0,0,0-.34-.55,4.09,4.09,0,0,0-.94-.39c-.4-.11-.75-.23-1.06-.34a6.88,6.88,0,0,1-1-.41,2.65,2.65,0,0,1-.75-.53,2.2,2.2,0,0,1-.49-.71,2.64,2.64,0,0,1-.17-1,2.59,2.59,0,0,1,.59-1.73,2.85,2.85,0,0,1,1.43-.91,6.32,6.32,0,0,1,1.63-.22,11.6,11.6,0,0,1,1.65.1,10.66,10.66,0,0,1,1.37.29v2a10.1,10.1,0,0,0-1.44-.36,8.6,8.6,0,0,0-1.45-.12,2.39,2.39,0,0,0-.92.13.63.63,0,0,0-.36.3,1,1,0,0,0-.06.32.62.62,0,0,0,.36.54,3.51,3.51,0,0,0,.89.35l1,.28a6.3,6.3,0,0,1,1.5.66,2.24,2.24,0,0,1,.83.9,2.84,2.84,0,0,1,.26,1.2A2.57,2.57,0,0,1,515.77,359Zm8.6,1a8.49,8.49,0,0,1-1.58.13,5.15,5.15,0,0,1-1.9-.33,3.93,3.93,0,0,1-1.39-.94,4.11,4.11,0,0,1-.87-1.48,5.94,5.94,0,0,1-.3-1.94,6.14,6.14,0,0,1,.3-2,4,4,0,0,1,.89-1.5,3.84,3.84,0,0,1,1.43-1,5.18,5.18,0,0,1,1.95-.34,7.51,7.51,0,0,1,1.42.14,5.1,5.1,0,0,1,.92.22v2a3.52,3.52,0,0,0-.75-.17,6.05,6.05,0,0,0-1-.11,3.51,3.51,0,0,0-1.08.16,1.84,1.84,0,0,0-.78.48,2.16,2.16,0,0,0-.48.84,4.13,4.13,0,0,0-.16,1.25,3,3,0,0,0,.57,2,2.08,2.08,0,0,0,1.66.66,6.09,6.09,0,0,0,1-.09,6.4,6.4,0,0,0,.91-.22l.53,1.91A9.68,9.68,0,0,1,524.37,360Zm11.27,0h-2.48v-5.73a2,2,0,0,0-.21-1,1,1,0,0,0-.53-.47,1.76,1.76,0,0,0-.63-.12,1.61,1.61,0,0,0-1,.34,1.87,1.87,0,0,0-.63.81,2.37,2.37,0,0,0-.18.86V360h-2.47V346.76H530v5a2.76,2.76,0,0,1,1-.79,3.67,3.67,0,0,1,1.59-.31,3.27,3.27,0,0,1,1.78.45,2.31,2.31,0,0,1,1,1.17,4.3,4.3,0,0,1,.26,1.44Zm9.88,0H543.2l-.07-.7a2.64,2.64,0,0,1-.65.45,4,4,0,0,1-.87.32,4.09,4.09,0,0,1-.91.1,3.83,3.83,0,0,1-1.09-.15,2.57,2.57,0,0,1-.89-.49,2.45,2.45,0,0,1-.6-.88,3.31,3.31,0,0,1-.23-1.29,2.88,2.88,0,0,1,.57-1.87,3.12,3.12,0,0,1,1.6-1,5,5,0,0,1,.94-.22c.33-.05.7-.08,1.08-.1l.41,0h.59v-.34a1.14,1.14,0,0,0-.22-.75,1.08,1.08,0,0,0-.66-.37,4.65,4.65,0,0,0-1-.09,6.72,6.72,0,0,0-1.24.11,10.9,10.9,0,0,0-1.4.37v-1.95a12.35,12.35,0,0,1,1.53-.34,11.22,11.22,0,0,1,1.65-.1,5.46,5.46,0,0,1,2.3.4,2.13,2.13,0,0,1,1.14,1.15,4.18,4.18,0,0,1,.29,1.58Zm7.34-9.18v1.95h-2V360h-2.48v-7.23h-1.08v-1.95h1.06v-1.25a3.72,3.72,0,0,1,.22-1.32,2.51,2.51,0,0,1,.63-.94,2.66,2.66,0,0,1,1-.56,4.17,4.17,0,0,1,1.26-.18,9.28,9.28,0,0,1,1.23.07c.38.06.67.1.89.15v1.85l-.64-.11a6.84,6.84,0,0,0-.79,0,1.35,1.35,0,0,0-1,.31,1.51,1.51,0,0,0-.32,1.09v.94Zm6,9.27a8.52,8.52,0,0,1-1.26.08,3.42,3.42,0,0,1-1.27-.2,2.22,2.22,0,0,1-.84-.58,2.32,2.32,0,0,1-.48-.89,4.16,4.16,0,0,1-.15-1.15v-4.58h-1.35v-1.95h1.35v-1.95c.35-.12.74-.28,1.18-.46s.87-.39,1.3-.62v3h2.31v1.95h-2.31v4.29a1.32,1.32,0,0,0,.25.91,1,1,0,0,0,.73.26,6,6,0,0,0,.74-.05,5.69,5.69,0,0,0,.58-.12l.43,1.78A10,10,0,0,1,558.88,360.08Z"/><path class="cls-1" d="M373.4,326c-.19.52-.36,1-.53,1.49s-.32.92-.46,1.35-.29.85-.42,1.25-.26.81-.38,1.21h3.61C374.88,330.23,374.27,328.47,373.4,326Z"/><path class="cls-1" d="M541.14,356a1.21,1.21,0,0,0-.7.55,1.52,1.52,0,0,0-.15.66,1.21,1.21,0,0,0,.15.6.87.87,0,0,0,.41.37,1.58,1.58,0,0,0,.58.11,2.65,2.65,0,0,0,.74-.11,2.89,2.89,0,0,0,.58-.21l.33-.21v-2h-.38A4.5,4.5,0,0,0,541.14,356Z"/><path class="cls-1" d="M301.71,185.26h-8.17a13.1,13.1,0,0,0-12.36,8.82h32.9A13.12,13.12,0,0,0,301.71,185.26Z"/><path class="cls-1" d="M226.57,66.7a1.34,1.34,0,0,0,.72.19,1.29,1.29,0,0,0,.83-.27,1.42,1.42,0,0,0,.46-.71,3.24,3.24,0,0,0,.12-.86V63.24a3,3,0,0,0-.37-.3,1.16,1.16,0,0,0-.42-.18,1.59,1.59,0,0,0-.48-.07,1.4,1.4,0,0,0-.61.14,1.31,1.31,0,0,0-.46.42,2.19,2.19,0,0,0-.31.67,3.54,3.54,0,0,0-.11.91A4.06,4.06,0,0,0,226.1,66,1.22,1.22,0,0,0,226.57,66.7Z"/><path class="cls-1" d="M400.33,352.76a1.67,1.67,0,0,0-.88-.26,1.53,1.53,0,0,0-.78.2,1.51,1.51,0,0,0-.55.57,3.2,3.2,0,0,0-.32.92,6.77,6.77,0,0,0,0,2.43,3,3,0,0,0,.32.91,1.51,1.51,0,0,0,.55.57,1.53,1.53,0,0,0,.78.2,1.43,1.43,0,0,0,1.34-.77,4.33,4.33,0,0,0,.44-2.13,5.15,5.15,0,0,0-.24-1.7A1.77,1.77,0,0,0,400.33,352.76Z"/><path class="cls-1" d="M161,66.85a1.22,1.22,0,0,0,.51.1,1.8,1.8,0,0,0,.6-.1,1.67,1.67,0,0,0,.48-.21,1.81,1.81,0,0,0,.28-.23V64.83h-.42a5.21,5.21,0,0,0-.85.06,1.63,1.63,0,0,0-.6.2.89.89,0,0,0-.36.36,1.18,1.18,0,0,0-.12.55,1.15,1.15,0,0,0,.12.53A.66.66,0,0,0,161,66.85Z"/></g></g></svg>