<svg xmlns="http://www.w3.org/2000/svg" xmlns:xlink="http://www.w3.org/1999/xlink" viewBox="0 0 323.02 44.97"><defs><style>.cls-1{fill:none;}.cls-2{clip-path:url(#clip-path);}.cls-3{fill:#fff;}</style><clipPath id="clip-path" transform="translate(0)"><rect class="cls-1" width="323.02" height="44.97"/></clipPath></defs><title>Element 1</title><g id="Ebene_2" data-name="Ebene 2"><g id="Ebene_1-2" data-name="Ebene 1"><g class="cls-2"><path class="cls-3" d="M253.44,20.67A11.52,11.52,0,0,0,265,32.19h2.89a11.52,11.52,0,0,0,11.52-11.52V11.59a2.27,2.27,0,0,1,2.3-2.3h14.68a2.29,2.29,0,0,1,2.3,2.3V44.33h9.26V11.52a11.65,11.65,0,0,0-3.35-8.14A11.71,11.71,0,0,0,296.43,0H281.61a11.54,11.54,0,0,0-11.53,11.52v7.73a3.67,3.67,0,0,1-3.67,3.68,3.67,3.67,0,0,1-2.6-1.08,3.71,3.71,0,0,1-1.08-2.6V11.52A11.52,11.52,0,0,0,251.2,0H236.4a11.68,11.68,0,0,0-8.15,3.38,11.61,11.61,0,0,0-3.36,8.14V44.33h9.27V11.59a2.35,2.35,0,0,1,.68-1.63,2.3,2.3,0,0,1,1.62-.67h14.67a2.29,2.29,0,0,1,2.31,2.3v9.08m-96,5.32,7.23,9H208a2.29,2.29,0,0,0,2.3-2.31V11.59a2.32,2.32,0,0,0-.67-1.63A2.3,2.3,0,0,0,208,9.29H164.69l-7.25,9.06h-18l-7.23-9.06H88.91a2.29,2.29,0,0,0-2.3,2.3V32.75a2.3,2.3,0,0,0,2.3,2.3h43.3L139.44,26Zm-144,9.06a3,3,0,0,1-2.24-4.9,3,3,0,0,1,2-1l49.92-4.9A11.52,11.52,0,0,0,73.44,12.78V11.52A11.53,11.53,0,0,0,61.93,0H2V9.29H60a3,3,0,0,1,.29,5.9l-49.92,4.9A11.51,11.51,0,0,0,0,31.55v1.26A11.69,11.69,0,0,0,3.37,41a11.64,11.64,0,0,0,8.15,3.37h60V35.05Zm135-5.47L136.68,44.33H88.85A11.51,11.51,0,0,1,77.33,32.81V11.52A11.52,11.52,0,0,1,88.85,0h47.82l11.77,14.75L160.22,0H208a11.54,11.54,0,0,1,11.52,11.52v21.3A11.53,11.53,0,0,1,208,44.33H160.22Z" transform="translate(0)"/><path class="cls-3" d="M320.21,42.65h-1.32l-1.08-2.85h-1.75v2.85H314.8V35.71h3a2.59,2.59,0,0,1,1.85.56,2,2,0,0,1,.59,1.47A1.84,1.84,0,0,1,319,39.59Zm-4.16-3.85h1.55a1.49,1.49,0,0,0,1-.28,1,1,0,0,0,.34-.78.91.91,0,0,0-.33-.74,1.33,1.33,0,0,0-.91-.29h-1.65Z" transform="translate(0)"/><path class="cls-3" d="M317.23,33.39a5.79,5.79,0,1,1-5.78,5.78,5.79,5.79,0,0,1,5.78-5.78m5.17,5.78a5.17,5.17,0,1,0-5.17,5.17,5.17,5.17,0,0,0,5.17-5.17" transform="translate(0)"/></g></g></g></svg>