<svg xmlns="http://www.w3.org/2000/svg" viewBox="0 0 156.86 123.59"><defs><style>.cls-1,.cls-2{fill:#fff;}.cls-1{fill-rule:evenodd;}</style></defs><title>Element 1</title><g id="Ebene_2" data-name="Ebene 2"><g id="Ebene_1-2" data-name="Ebene 1"><path class="cls-1" d="M15.92,58.05A69,69,0,0,0,1.25,62.24c-.36.14-1.33.58-1.24,1.54.26,3,.48,5.74.88,8.76,0,.27.34.36.62.3,1.05-.3,1.88-1.34,3.06-1.2.29.11.34.37.38.65.17,1.19.24,2.34.34,3.53,0,0,0,.08,0,.12.1.57.13,1.19.23,1.69A76.82,76.82,0,0,0,8,90.88C8.33,92,8.41,93.69,9.83,94c.5.08,5.75.51,6.84.55,3.11.12,7.3,0,8.25,0s6.8-.44,7.79-.64,1.65-.27,2.16-1a11.87,11.87,0,0,0,.83-1.73,25.79,25.79,0,0,0,1.54-4.75,70.67,70.67,0,0,0,1.31-7c0-.47.19-2.44-.48-3.31-.54-.71-1.74-.86-2-1.73a.88.88,0,0,1,.13-.69c.75-1.19,1.45-2.38,2.2-3.56.16-.32,1.5-2.54,2-3.36,1-1.56,2.09-3.69,2-5.12s-1.81-2.5-3.07-2.9l-2.08-.58a51.8,51.8,0,0,0-9.33-1.2A52.57,52.57,0,0,0,15.92,58.05ZM35,62.37a1.18,1.18,0,0,1,.7,1.54,4.19,4.19,0,0,1-.5,1,16.94,16.94,0,0,1-5,4.62c-1.42.93-6.09,2.28-9.63,2.63-1.41.14-3,0-3.39.4s-.4,1-.38,2.25c0,1,1.2,1.2,1.75,1.37.83.25,1.67.5,2.49.7,1.7.42,4,1.24,4.89,1.56,1.26.44,4.6,1.1,5,3.28.27,1.49-1.32,2.16-2.23,2.66a43.67,43.67,0,0,1-9.41,3.54,15.75,15.75,0,0,1-6,.48,1.14,1.14,0,0,1-.8-1A102.52,102.52,0,0,1,13,71.86c.17-1.49.4-5.16,1.66-5.95a20.09,20.09,0,0,1,3.42-1.51,39.07,39.07,0,0,1,5.55-1.51A56,56,0,0,1,30.5,62,18.33,18.33,0,0,1,35,62.37Z"/><path class="cls-1" d="M113.1,94.6a82.45,82.45,0,0,0,8.52-.38c.11,0,3.15-.22,4.41-1.16.23-.17.32-.33.37-.86s-.25-3,.32-4.22a.91.91,0,0,1,.95-.39,30.81,30.81,0,0,1,4.85,2.29,74.24,74.24,0,0,0,9.67,3.45c1,.25,2.79.63,3.87.8.91.13,2.68.34,3.24.4l1.5.11s1.78.06,2.37,0a14.11,14.11,0,0,0,3.24-.58c.57-.46.51-.78.27-1.41a56.48,56.48,0,0,0-3.39-6.25,1.7,1.7,0,0,0-1.57-1A42.21,42.21,0,0,1,138,85c-.66-.25-3.72-.49-3.57-1.26.12-.59,2.15-1,2.29-1.08s2.66-.74,3.16-.9l3.45-1a56.84,56.84,0,0,0,5.87-2.35,5.2,5.2,0,0,0,1.52-1.63,47.73,47.73,0,0,0,3.55-9.53A24.34,24.34,0,0,0,155,61l-.07-.64c-.1-.39-.32-.59-.88-.67a28.62,28.62,0,0,0-8.42.81,41.27,41.27,0,0,0-8.27,3,29.1,29.1,0,0,0-5.87,4.16c-1,.83-2.32,2.33-3.3,3.08-.19.09-.52.09-.6-.17a55.17,55.17,0,0,1,.52-5.76c.32-2.06.94-4,1.42-6,.05-.47.27-1,0-1.48s-1.1-.36-1.52-.32c-.65.14-3.93,1.24-5.89,1.86-1.23.39-2.94.78-3.32,1.29a1.56,1.56,0,0,0-.31,1.18c.36,1.82.63,5.27.69,5.63s.5,9.41.46,14.08c-.21,1.28-.15,2.79-1.3,3.64A25.11,25.11,0,0,1,112,86.86c-3.59.77-9.79.93-11.14.32-.61-.27-.52-.62-.5-1.09a9,9,0,0,1,1.31-3.5,39.86,39.86,0,0,1,3.72-4.79,24,24,0,0,1,6-3.83l4.74-2a1.13,1.13,0,0,0,.56-1.35c-1.21-2.14-3.31-4-5-5.86a1.13,1.13,0,0,0-.33-.27c-1.77-.91-4.59,1.33-4.59,1.33a22.2,22.2,0,0,0-3.42,2.66,22.77,22.77,0,0,0-4.29,5.24c-.27.42-1.47,2.43-1.87,3.15a23.31,23.31,0,0,0-1,2.15c-.2.58-.59,1.58-.8,2.42a33.63,33.63,0,0,0-.92,6.38,9,9,0,0,0,.3,2.83C96.13,95.22,113.1,94.6,113.1,94.6Zm31.79-28.39a.86.86,0,0,1,.56.69,5.64,5.64,0,0,1-.13,1.59,7,7,0,0,1-.77,1.92c-1.86,3.06-7,6.88-8.35,7.45a49.87,49.87,0,0,1-7.81,2.72.81.81,0,0,1-.75-.25c-.27-.19-.24-.63-.18-1a7.31,7.31,0,0,1,.69-1.94c.12-.23.27-.38.67-.95a35.69,35.69,0,0,1,5.8-5.64,26.16,26.16,0,0,1,8.58-4.49A3.15,3.15,0,0,1,144.88,66.21Z"/><path class="cls-1" d="M66.22,92c.57-.32.47-1.3.41-1.86a47.36,47.36,0,0,0-1.12-5.5c-1.06-4.1-1.57-7.92-3.8-11.38-.08-.12-.59-.73-.7-.83a32,32,0,0,0-10.68-7,1.05,1.05,0,0,0-.75,0c-1.44.56-4.21,3.5-5.85,5.52-.36.45-1,1.09-.66,1.62.24.36,3.92,1.11,5.72,2,.7.36,1.75.74,1.94,1.25a.49.49,0,0,1-.18.64c-2,.74-4,1.34-5.94,2.1a4.81,4.81,0,0,0-3.23,3.28c-.11.26-.28.87-.28.87s-.81,3.27-.86,3.62l-.49,3.11c0-.11-.59,3.18.44,4.11s3.49,1,4.3,1.05,2.64.18,4.09.15C48.57,94.73,60.67,95.06,66.22,92ZM57.11,79.71a8.8,8.8,0,0,1,2,2.38,12.13,12.13,0,0,1,1.05,2.18c.09.28.84,2.55.26,3.48s-3.86.88-5.41.79a13.8,13.8,0,0,1-5.78-1.2,3.56,3.56,0,0,1-1-.73,1,1,0,0,1-.21-.44c-.33-1.52.86-2.45,1.9-3.44a4.59,4.59,0,0,1,.59-.48,26.41,26.41,0,0,1,4.71-2.62A2.37,2.37,0,0,1,57.11,79.71Z"/><path class="cls-1" d="M88.31,91.36c.85-.81,2.19-4.41,2.19-4.41l.85-2.12.87-2.08s.84-2.23,1.23-3.38c.49-1.48,1.07-3.55,1.07-3.55a16.31,16.31,0,0,0,.68-3.57c0-.55-.74-.59-1.36-.45-2.22.62-4.49,1.07-6.74,1.65-.74.19-1.35.41-1.52,1.22-.87,4-.05,8.19-1.67,11.83a2.9,2.9,0,0,1-2.35,1.68c-1.72.18-4.13.12-5.07-1.65a21,21,0,0,1-1-4.09,57,57,0,0,1-.52-7.57c0-1.41-1.79-1.55-2.54-1.73a38.07,38.07,0,0,0-6.19-1.29,1.07,1.07,0,0,0-1.07.7A4.67,4.67,0,0,0,65.39,75l.54,1.71s1.4,4.05,2.19,6a87.06,87.06,0,0,0,3.69,8.06,4.44,4.44,0,0,0,3,2.19S85,94.48,88.31,91.36Z"/><path class="cls-1" d="M81.24,53.45,80.15,54c-.11.05-1.24.58-1.45.63a2.11,2.11,0,0,0-.79.45.69.69,0,0,0-.23.36.88.88,0,0,0,.43.75s.63.31.79.37l1.07.31a5.89,5.89,0,0,0,1.14.4,8.21,8.21,0,0,1,1.9.44,4.3,4.3,0,0,0,1.7.64s1.41.12,1.57.11,2,.63,2.24.64.82,0,1,0a20.13,20.13,0,0,1,2.29.81s.81.44,1,.5a4.11,4.11,0,0,1,.78.26c.32.16.73.81.93.94s.83.53.88.77a3.15,3.15,0,0,1,0,1.18c-.08.17-.48.61-.52.72s-.23.52,0,.51a1.45,1.45,0,0,0,.62-.23c.11,0,1.43-1.28,1.54-1.4s.49-.27.56-.45a3,3,0,0,0-.78-2l-1.22-.88L95,59.47l-1.73-.66s-1.36-.52-1.62-.57-1.6-.15-1.6-.15c-.27,0-2.28-.56-2.49-.55a12.87,12.87,0,0,1-1.43-.1c-.3-.06-1-.4-1.22-.45s-1.79-.39-2-.5a9.64,9.64,0,0,0-1.67-.29,13,13,0,0,1-1.31-.42c-.14,0-.53-.16-.58-.38-.1-.55.57-.7.67-.8s.69-.37.89-.51.63-.59.53-.71Z"/><path class="cls-1" d="M78.4,60.34a4,4,0,0,1,1,.39,7.74,7.74,0,0,0,1.72.56,29.55,29.55,0,0,1,2.85.85c.24.17,1.33.72,1.33.72.21.08.34.06.33.3s-1.52,1.15-1.72,1.21-2.68.8-2.91.93-.37,0-.56,0c0,0-.2.07-.13.18a1.65,1.65,0,0,0,.87.26,13.66,13.66,0,0,0,1.61-.26,5.64,5.64,0,0,1,1.09,0c.26,0,1.44-.81,2-.82a5.15,5.15,0,0,0,1-.07,3.13,3.13,0,0,0,.8-.45c.06-.1.64-.4.22-.73l-1.72-1.33c-.27-.19-1.19-.52-1.55-.74a10.27,10.27,0,0,0-1.91-.52c-.92-.23-2-.43-2.87-.66a9.21,9.21,0,0,1-1.3-.52,7.51,7.51,0,0,0-1.44-.57C76.8,59.07,78.12,60.14,78.4,60.34Z"/><path class="cls-1" d="M71.75,54c-.26,0-.82.06-1,.12a2.54,2.54,0,0,1-.92.2,1.17,1.17,0,0,0-.61.07c-.18,0-1.73.59-2,.63a10.4,10.4,0,0,0-1.71.44,8.6,8.6,0,0,0-1.35.75c-.19.15-.7.42-.8.64-.16.37.44.81.49.87a6.88,6.88,0,0,0,1.1.86c.3.13,2.27.88,2.27.88.42,0,.72.33,1,.38s2,.83,2,.83l2.45,1,1,.53a.42.42,0,0,1,.23.3c-.2.42-.87.36-1.17.4s-.64.47-.93.47a10.14,10.14,0,0,0-2.16.62,7.71,7.71,0,0,0,2.13,0,4.18,4.18,0,0,1,.94-.13,7.58,7.58,0,0,1,1.58-.13,2.57,2.57,0,0,0,1-.19c.13,0,.48-.33.55-.48s.39-.81.17-.89a3.24,3.24,0,0,0-1.23-.78,10.12,10.12,0,0,0-1.55-.63l-1.42-.42c-.25,0-.86-.57-1.07-.63l-1.44-.42c-.39,0-.59-.54-.81-.53s-.91-.38-1.17-.39A3.32,3.32,0,0,1,66,57.87c-.19-.17-1.68-.77.22-1.72.11-.05.3-.41.67-.4s.42,0,.6,0A8.1,8.1,0,0,0,69,55.3a5,5,0,0,1,1.34-.45,1.41,1.41,0,0,0,.9-.2,3.27,3.27,0,0,1,1-.41,17.87,17.87,0,0,1,1.83-.37c.11,0,.25,0,.25-.1s-.63-.19-1-.22A11,11,0,0,0,71.75,54Z"/><path class="cls-1" d="M74.26,55.31a10.06,10.06,0,0,1-1.1.37,8.43,8.43,0,0,1-1,.3c-.3.05-1.34.52-1.31.77a.67.67,0,0,0,.17.38c.08.08.47.36.63.33a.88.88,0,0,1,.55.12,2.14,2.14,0,0,0,.8.34,7.4,7.4,0,0,1,1.12,0,1.69,1.69,0,0,0,.59.16.18.18,0,0,0,.13-.14c0-.11-.7-.29-1-.34s-.22-.09-.37-.19-.66,0-.73-.12L72,56.71c0-.09.12-.15.23-.18l.71-.32.7-.25a4.71,4.71,0,0,0,.65-.25c.21-.12.6-.35.61-.47s0-.18-.09-.19S74.52,55.27,74.26,55.31Z"/><path class="cls-1" d="M106.1,34.18a2.74,2.74,0,0,0,.29-1.37,3.33,3.33,0,0,0-.23-1.51,4.88,4.88,0,0,0-.79-1.28,4.75,4.75,0,0,0-1.44-1,6.88,6.88,0,0,0-2.73-.34,6,6,0,0,0-1.75.41,6.9,6.9,0,0,0-1.12.57c-.4.24-1.21.71-1.68,1.07l-.18.14c-.35.32-.65.56-.63.68s0,.11.51-.1,2.22-1.33,2.57-1.51a6.57,6.57,0,0,1,2.1-.72,3.77,3.77,0,0,1,2.35.29A2.82,2.82,0,0,1,104.66,31a3.76,3.76,0,0,1,.31,1.79,5.89,5.89,0,0,1-1,2.62l-.29.44a.12.12,0,0,0,0,.19,2,2,0,0,0,1.2.14l1.24-.12a7.36,7.36,0,0,0,.73-.13c1.63-.34,4.7-1.13,5.83,0l.06.06.59.65c.72.75.84.7,1.4.71s1.23-.49,2.54.1a3.11,3.11,0,0,1,1.38,1.36,8.3,8.3,0,0,1,.94,2.42,3.64,3.64,0,0,1-.92,2.39c-.31.36-1.11.71-1.13,1s2.15.71,2.71,1a2.37,2.37,0,0,1,1.31,1,3.84,3.84,0,0,1,.42,2,2,2,0,0,1-.6,1.13c-.21.2-.39.42-.29.52s.41,0,.41,0a3,3,0,0,0,1-.57,2.78,2.78,0,0,0,.67-1.31c0-.41.18-1.19-1.36-2.48-1-.81-2.58-1.21-2.45-1.47s1-.9,1.28-1.38a5.67,5.67,0,0,0,.39-.86,1.22,1.22,0,0,0,.08-.33,5,5,0,0,0-1.32-3.84,6.76,6.76,0,0,0-2.47-1.12c-.44-.07-1.92-.15-2.35-.28l-.07,0a4.6,4.6,0,0,1-1-.68l-.08-.07c-.35-.31-.86-1-1.14-1.2a3,3,0,0,0-1.06-.54,2.64,2.64,0,0,0-1.54,0c-.71.17-1.15.47-2,.72a11.58,11.58,0,0,1-2.42.24C105.52,35,105.87,34.69,106.1,34.18Z"/><path class="cls-1" d="M59.48,30.38A5.44,5.44,0,0,0,57,29.5a9.4,9.4,0,0,0-4.3,1,11.73,11.73,0,0,1-1.94,1c-.43.05-1.63-.59-2.52-.32s-.71,1.18-1.15,1.21A4.66,4.66,0,0,0,43.62,34a3.65,3.65,0,0,0-.79,1.69,2.48,2.48,0,0,0-.08.48,5.93,5.93,0,0,0,0,.71c0,.18,0,.36.06.52.1.77,1.25,1.82,1.25,1.82a5.67,5.67,0,0,1-2.29,0L40.63,39h-.11a5,5,0,0,0-1.66.32A4.3,4.3,0,0,0,37,40.65a3.24,3.24,0,0,0-.73,1.53,2,2,0,0,0,.63,2.06,0,0,0,0,1,0,.08c-.2.11-1.26.32-2.36.8a4.78,4.78,0,0,0-1.72,1.34A1.72,1.72,0,0,0,33.12,49a6,6,0,0,0,3.54,1c0-.07-1.27-.71-1.63-1a2.22,2.22,0,0,1-.55-2.66,2.5,2.5,0,0,1,2.07-1.26A25.65,25.65,0,0,0,40,44.81c0-.14-1.11-.47-1.31-.64a2.2,2.2,0,0,1-.92-1.82,2.74,2.74,0,0,1,.49-2.12c.8-1.08,2.84-.71,3.18-.62a12.64,12.64,0,0,0,2,.51,21.59,21.59,0,0,0,3.55-.35c.13-.06-.2-.27-.45-.38s-.95-.51-1.11-.63a3.74,3.74,0,0,1-1.34-1.9,2.84,2.84,0,0,1-.09-.56s0-.1,0-.14c0-1.86.83-2.86,1.89-3.17.3-.09.84,0,1.18-.12a.49.49,0,0,0,.16-.08c.36-.26.54-.75,1-.95.76-.34,1.55.41,2.25.25.89-.17,1-.7,1.7-1a6.09,6.09,0,0,1,2.33-.74,6.8,6.8,0,0,1,4.22.57c1.44.62,2.11,2,2.18,1.82s-.33-1-.46-1.16A4,4,0,0,0,59.48,30.38Z"/><path class="cls-1" d="M68.72,28.47l0,1.34v1.54L66.41,33.6c-.24.24-.36.4-.45.5s-.37.36-.46.46C64.74,35.43,64,36,64.08,36c-.38.4-1.94,1.92-2,2-.26.33-1.9,1.86-1.93,1.89a2.73,2.73,0,0,0-.54.68.37.37,0,0,0,0,.33.73.73,0,0,0,.57.56l.55,0a3.81,3.81,0,0,1,.81,0c.13,0,.28.38.31.51a4.69,4.69,0,0,1,0,.78v5.17c0,.73.16,2.26,0,2.3s-.42-.17-.81,0-1.27,1-1.72,1-2.49-.21-2.49-.21a27.83,27.83,0,0,0-3.94.23,12.17,12.17,0,0,1-2.54.57c-.12,0-1.38.18-1.76.25-.15,0-.19.15-.15.22s.31.07.31.07a8.42,8.42,0,0,1,1-.07c1,0,4.56-.2,4.56-.2.51-.06.85.17,1.33.09s.75.11,1.22.09h2.49c.32,0,.43-.09.74-.09,1.61,0,5.27,0,5.27,0a6.73,6.73,0,0,0,2.17.24s1.9-.18,2.66-.15a5,5,0,0,1,1.12.13s1.69.09,2.3.07,1.63,0,1.8,0a1.14,1.14,0,0,0,.7-.42s.45-.55.74-.53a33.22,33.22,0,0,1,5.57.71c.22-.07.71.31.71.31a1.32,1.32,0,0,1,.36.1h.13c.16-.06.16-.24.43-.26a4.32,4.32,0,0,1,1-.06c.25,0,2.53.3,3.11.25a13.11,13.11,0,0,1,2.1-.11,30.65,30.65,0,0,1,3.44,0c.22.12.18.36.58.38a16.09,16.09,0,0,0,2.15,0c.61-.08,3.75-.24,3.75-.24l1.5,0h0a1,1,0,0,0,.26.05,3.76,3.76,0,0,0,1.06,0l.58,0a11.39,11.39,0,0,1,1.53.11,10.06,10.06,0,0,0,1.57,0,7.55,7.55,0,0,0,1.11-.26,1.91,1.91,0,0,1,.68-.25,14,14,0,0,0,1.61,0l-.55-.24-1.19-.4a8.08,8.08,0,0,0-2.06.06c-.12,0-.85,0-1.34,0a11.74,11.74,0,0,0-1.53-.11,15.53,15.53,0,0,0-1.83.17,1.68,1.68,0,0,1-.7.09h-.11a2.41,2.41,0,0,1-1.07-.29c-.1-.11.07-.36,0-.49a1,1,0,0,0-.85-.18c-.28.09-1,.38-1.19.4s-.13-.14-.13-.14a38.38,38.38,0,0,1,0-4.53l0-.13c0-.46.1-1.23.1-1.23a6,6,0,0,0-.07-1,7.23,7.23,0,0,1-.17-1.27c0-.26,0-2,0-2,.07-.16.41-.08.4.18s.47.15.47.15a7.2,7.2,0,0,0,1.34-.11c.25,0,.27-1,.18-1.15a9.12,9.12,0,0,0-1.55-1.56,1.56,1.56,0,0,1-.25-.25c-.5-.59-2.63-2.56-2.71-2.65.07.08-.59-.56-1-1l-.77-.83c-.7-.71-2.87-2.66-3.19-3l-2.79-2.8-.3-.34c-.48-.6-2.75-2.89-3.27-3.44-.09-.11-1.85-1.73-1.85-1.73-.44-.35-.72-.54-.72-.54a.68.68,0,0,1-.11-.91c.25-.27.62-.77.62-.77.19-.08,1.2.41,1.43.39s.59-.18.59-.42c-.45-.38-.89-.7-1.34-1.06-.45.06-.15-.56-.33-.65-.24.47-.83.62-1.22.88l.15.15c-.15.15-.39,0-.54.12s0,.23.12.3l-.12.11-.06-.06s-.33,0-.36,0,0,.32.12.29c-.09.3-.35.06-.51.18l.06.3,0,0c-.12,0-.36-.41-.51-.42-.34,0-.41.56-.73.27.42-.5-.39-.15-.48-.47l.24-.09c.09-.38-.48-.21-.69-.35.12,0,.24-.09.21-.21s-.3,0-.42-.15l.06-.18a.35.35,0,0,1-.33-.12c-.39,0-.59-.47-.86-.67-.15.15.09.62-.3.5l-1.61,1.29c.44,1.09,1.4-.18,2.2,0,0,0,.75.7.87.82a.94.94,0,0,1,0,.85.3.3,0,0,1-.06.13c0,.06-5.51,6.05-5.71,6.25,0-.1,0-.19,0-.27a12.14,12.14,0,0,0,0-1.63c0-.16-.08-.33-.24-.31a16.83,16.83,0,0,1-2.22.09h-.6c-.17,0-.25.08-.21.23a.37.37,0,0,0,.09.2M89,33.32c.33,0,1.53,0,1.53,0a.74.74,0,0,1,.66.22l.08.09.79.85c.6.65,1.28,1.44,1.37,1.54s.36.37.54.58,1.79,2.08,1.92,2.3c0,0,.85,1,1,1.17,0,0-.18,2.34-.11,3.14,0,.29.19,1,.23,1.17s0,2.52,0,2.52a8.51,8.51,0,0,0,0,.94,16.45,16.45,0,0,1,0,2.92c-.12.12-.37.09-.54.07a3.73,3.73,0,0,1-.63-.24c-.31,0-1-.13-1.05,0a.26.26,0,0,1-.31.22c-.16,0-.75-.72-1-.68s-.27.53-.44.54-.13-.52-.29-.47a6.76,6.76,0,0,0-2.23.72c-.14.08-.41.22-.54.18s-.21-.32-.27-.46-.14-.16-.63,0c0,0-.55-.45-.78-.31a2.26,2.26,0,0,1-.17.56L87.3,51c-.16-.11-.09-.7-.36-.79-.8.31-2.4.94-2.63,1s-.13-.25-.42-.22a2.25,2.25,0,0,0-.83.46v.25l-.66-.15-.24-.13v-.05l-1.08-.16-4.05,0a.62.62,0,0,1,0,.07l-.82.13c0-.14,0-.28,0-.43a.84.84,0,0,1-.4-.31c-.05-.12,0,0-.15,0s-.69-.16-.92-.16-.52-.23-.72-.22-.7.26-.92.28,0-.41-.28-.4-.93.43-1.14.45-.23-.16-.6-.16-1.48.26-1.55.26-1.14,0-1.38,0,.32-.41,0-.42-2,.38-2.25.38,0-.56-.38-.6a8.34,8.34,0,0,0-1.71.52c-.32.07-.95-.45-.95-.45l.08-.86c0-.2-.18-2.81-.18-2.81l.11-2.23a10.63,10.63,0,0,0-.2-3.07c-.16-.15-.11-.53-.11-.53,0-.37,1.29-1.64,1.49-1.79l2.56-2.67.87-1,.71-.75.83-.85.13-.13s.67,0,.89,0c0,0,3.27-.15,3.66-.12,0,0,1.58,0,2.08,0l3.38,0Z"/><path class="cls-1" d="M90.35,34.33h-4v.12c0,1.71-.05,3.6.06,5.35a13,13,0,0,0,3.86.15l.05-5.5Zm-.45.6-.08.81h-.63a.43.43,0,0,0,.14.55l.49-.06v1.28c-.28.05-.65-.12-.85.13-.32.62.67.43.85.47l-.06,1.35-1.14-.06-.18-4.48C88.9,35.05,89.46,34.73,89.9,34.94Zm-2.92,0h1c.16,1.43,0,2.88.08,4.41a3.79,3.79,0,0,1-1.11.07c.12-.39-.31-1.34.36-1.43l.13-.05c.06-.32-.33-.23-.49-.34l-.08-1.3a.93.93,0,0,0,.35-.27c0-.11,0-.28-.14-.28h-.21C86.9,35.48,86.72,35.07,87,34.94Z"/><path class="cls-1" d="M85,34.33H81v.12c0,1.71-.05,3.6.06,5.35a13,13,0,0,0,3.86.15l.05-5.5Zm-.45.6-.08.81H83.8a.43.43,0,0,0,.14.55l.49-.06v1.28c-.28.05-.65-.12-.85.13-.32.62.67.43.85.47l-.06,1.35-1.14-.06L83,34.94C83.52,35.05,84.08,34.73,84.51,34.94Zm-2.92,0h1c.16,1.43,0,2.88.08,4.41a3.79,3.79,0,0,1-1.11.07c.12-.39-.31-1.34.36-1.43l.13-.05c.06-.32-.33-.23-.49-.34l-.08-1.3A.93.93,0,0,0,81.8,36c0-.11,0-.28-.14-.28h-.21C81.51,35.48,81.33,35.07,81.59,34.94Z"/><path class="cls-1" d="M78.64,34.33h-4v.12c0,1.71-.05,3.6.06,5.35a13,13,0,0,0,3.86.15l.05-5.5Zm-.45.6-.08.81h-.63a.43.43,0,0,0,.14.55l.49-.06v1.28c-.28.05-.65-.12-.85.13-.32.62.67.43.85.47L78,39.47l-1.14-.06-.18-4.48C77.19,35.05,77.75,34.73,78.18,34.94Zm-2.92,0h1c.16,1.43,0,2.88.08,4.41a3.79,3.79,0,0,1-1.11.07c.12-.39-.31-1.34.36-1.43l.13-.05c.06-.32-.33-.23-.49-.34l-.08-1.3a.93.93,0,0,0,.35-.27c0-.11,0-.28-.14-.28h-.21C75.18,35.48,75,35.07,75.26,34.94Z"/><path class="cls-1" d="M73.25,34.33h-4v.12c0,1.71-.05,3.6.06,5.35a13,13,0,0,0,3.86.15l.05-5.5Zm-.45.6-.08.81h-.63a.43.43,0,0,0,.14.55l.49-.06v1.28c-.28.05-.65-.12-.85.13-.32.62.67.43.85.47l-.06,1.35-1.14-.06-.18-4.48C71.8,35.05,72.36,34.73,72.8,34.94Zm-2.92,0h1c.16,1.43,0,2.88.08,4.41a3.79,3.79,0,0,1-1.11.07c.12-.39-.32-1.34.35-1.44l.14,0c.06-.32-.33-.25-.49-.36l-.08-1.3a.93.93,0,0,0,.35-.27c0-.11,0-.28-.14-.28h-.21C69.8,35.48,69.62,35.07,69.87,34.94Z"/><path class="cls-1" d="M95,48.25V42.31l-.19-.13H88.43c-.12,1.84-.05,3.69,0,5.43,0,.77,1.18.72,1.84.7ZM91.71,44c-.34.44.15.53.07.83s.17,1-.21,1.31c.38.39.14,1,.21,1.52H90.68V46.34c.12,0,.32-.12.29-.24-.08-.3-.32-.21-.42-.38.06-.43-.13-1,.13-1.26.27,0,.56,0,.63-.29s-.36-.29-.63-.27c0-.35-.43-1.18.29-1.28C92,42.49,91.65,43.48,91.71,44Zm1.66,0c-.15,0-.18-.17-.37-.12s-.26.12-.2.33.28.31.57.27l.13,1.39c-.19.06-.46-.11-.56.14-.17.44.33.34.48.56v1.18H92.34c0-.46-.29-1.25.19-1.52-.5-.35-.19-1.15-.26-1.74l.26-.29c-.34-.14-.36-.52-.34-.89s.34-.62.65-.62l.56.05A2.8,2.8,0,0,1,93.37,44Zm1.2,3.74h-.63c-.05-1.75.07-3.57.12-5.15h.51Zm-4.57,0H88.87l-.07-5.15h1.07Z"/><path class="cls-1" d="M71.33,48.25V42.31l-.19-.13H64.75c-.12,1.84-.05,3.69,0,5.43,0,.77,1.18.72,1.84.7ZM68,44c-.34.44.15.53.07.83s.17,1-.21,1.31c.38.39.14,1,.21,1.52H67V46.34c.12,0,.32-.12.29-.24-.08-.3-.32-.21-.42-.38.06-.43-.13-1,.13-1.26.27,0,.56,0,.63-.29s-.36-.29-.63-.27c0-.35-.43-1.18.29-1.28C68.31,42.49,68,43.48,68,44Zm1.66,0c-.15,0-.18-.17-.37-.12s-.26.12-.2.33.28.31.57.27l.13,1.39c-.19.06-.46-.11-.56.14-.17.44.33.34.48.56v1.18H68.66c0-.46-.29-1.25.19-1.52-.5-.35-.19-1.15-.26-1.74l.26-.29c-.34-.14-.35-.52-.34-.89,0-.58.34-.62.65-.62l.56.05A2.8,2.8,0,0,1,69.69,44Zm1.2,3.74h-.63c-.05-1.75.07-3.57.12-5.15h.51Zm-4.57,0H65.2l-.07-5.15H66.2Z"/><path class="cls-1" d="M79.37,43.33l-.05,1.49.07,1.25-.11,2.41a.72.72,0,0,0,0,.07l.09,1.61c.09.06.17.25.31.2,0-.56,0-1.72,0-2.3s.09-.93.1-1.65a17.13,17.13,0,0,0-.22-3.16.13.13,0,0,0-.12-.05C79.4,43.2,79.37,43.33,79.37,43.33Z"/><path class="cls-1" d="M72.29,42l.16,6.33a3.81,3.81,0,0,0,1.91.28c.39-.62,1.15,0,1.79-.22,0,.88,0,1.78,0,2.62,0,.15,0,.29,0,.43l.82-.13a.62.62,0,0,0,0-.07c0-.2-.1-.43-.09-.63a21.47,21.47,0,0,0,0-2.9c-.11-1.55,0-3.09,0-4.72a3.08,3.08,0,0,1,.88-.48,5.5,5.5,0,0,1,3.79.12l.62.58,0,2.6,0,1-.06.83,0,3.08V51l-.06.34v.05l.24.13.66.15v-.25l0-3c1.25-.22,2.41.42,3.48,0V41.89l-.23-.14-13.9-.08Zm1.8.2,0,5.77H73a34.94,34.94,0,0,1-.15-5.83A6.21,6.21,0,0,1,74.09,42.16Zm11.84-.06v5.61c-.23.26-.66.08-1,.14a53.2,53.2,0,0,1,0-5.67A2.57,2.57,0,0,1,85.93,42.11Zm-2.11,1.69-.07.23c1.06.06.39,1.17.58,1.76a.54.54,0,0,0-.58.51c.09.24.37.12.58.16l.09,1.39h-1l-.07-5.62,1-.06C84.27,42.6,84.85,43.9,83.81,43.79Zm-8.27-1.36h.59c.14,1.64.07,3.56.09,5.34H75L75,46.58c.26-.15,1,0,.86-.46-.21-.23-.59-.15-.86-.23.07-.59-.21-1.32.24-1.8a.37.37,0,0,0-.17-.38C75,43.38,74.55,42.31,75.55,42.43Z"/><path class="cls-2" d="M58.44,119.55h0c0-1,0-1.5,0-3.34,0-2.51-1.71-2.3-1.71-2.3l-5.33.19c-.26,0-1.41.46-1.37,1.5s0,4.47,0,4.47a16.9,16.9,0,0,1-.25,2.86.62.62,0,0,1-.56.51c-.61,0-1.86.09-3.88.09a1.64,1.64,0,0,1-1.71-1.67c-.26-7.25-.38-12.51-.38-16.31,0-3.13-.2-4.51-.15-4.9,0,0,0-1.31,1.84-1.39,2.21-.1,4.7.08,4.7.08.74,0,.68,2.53.68,2.53l.16,5.55a.38.38,0,0,0,.19.32c.46.26,1.91.79,5.85.41,1.13-.11,1.43-.45,1.53-.68a.41.41,0,0,0,0-.17c0-.72,0-6.93,0-6.93s-.07-1.2.65-1.22l5.63-.31s1.42-.08,1.32,1.15c-.38,6.67-.2,9.17-.4,15.08,0,.35,0,1.84.08,3.4.21,4.08-.48,4.35-.56,4.48a.81.81,0,0,1-.08.09c-.33.39-2.68.64-5.3.34C58.26,123.28,58.44,119.57,58.44,119.55Z"/><path class="cls-2" d="M90.07,119.35q-3.35,3.94-9.79,3.94a10.53,10.53,0,0,1-9-4.42,14.88,14.88,0,0,1-2.76-9q0-11,13.08-11,5.53,0,8.65,2.7t3.22,8a16,16,0,0,1-.88,5.14A13.46,13.46,0,0,1,90.07,119.35Zm-8.34-14.27c-2.29,0-3.62,0-4.52.88a4.85,4.85,0,0,0-1.61,3.94c0,6.17,1.73,8.69,5.19,8.69a4.49,4.49,0,0,0,4.09-1.92A8.8,8.8,0,0,0,86.42,111c0-2.13.07-3.38-.51-4.31C85.2,105.58,83.56,105.08,81.72,105.08Z"/><path class="cls-2" d="M97.89,121.25c-.51-3.17-.62-4-.87-6.62-.34-3.6-1.09-15.12,2.3-15.36,3-.22,6.38-.26,6.38-.26s7.2-.1,8.27-.1a1.2,1.2,0,0,1,1.19,1.14s.41,2.92.08,3.63-2.35.48-2.35.48l-4.57.08c-1.32,0-3.18-.13-3.21.89-.06,2.14-.06,4.12-.06,4.12q2.22,0,7.19-.1s.88-.06,1.13.41a5.17,5.17,0,0,1,.16,3.44,1.59,1.59,0,0,1-1.25,1.22l-.37,0q-2.38.13-7,.34c-.24,3.66-.22,6.21-.24,7.65,0,.09.07,1.11-1.38,1.24a19.39,19.39,0,0,1-3.83,0C98.69,123.42,98.12,122.62,97.89,121.25Z"/><text></text><path class="cls-2" d="M20.51,30.33l-7-.91,4.1,3.84a.24.24,0,1,1-.32.34L12.7,29.3a.19.19,0,0,1-.13-.2.29.29,0,0,1,.1-.2.2.2,0,0,1,.17,0l7,.91-4.08-3.82a.23.23,0,0,1,0-.33.24.24,0,0,1,.17-.08.22.22,0,0,1,.17.06l4.61,4.32a.22.22,0,0,1,.07.17.26.26,0,0,1-.07.18.21.21,0,0,1-.19.07Z"/><path class="cls-2" d="M26.3,25.21l-.06.07a.22.22,0,0,1-.27,0l-1.52-.82-2.36,2.06.61,1.62a.22.22,0,0,1-.07.27l-.07.05a.26.26,0,0,1-.19,0,.21.21,0,0,1-.12-.13L19.86,22a.25.25,0,0,1,.09-.27.21.21,0,0,1,.27,0l6,3.23a.22.22,0,0,1,.12.14A.24.24,0,0,1,26.3,25.21Zm-5.77-2.84,1.37,3.69L24,24.24Z"/><path class="cls-2" d="M28.53,23.24l-3.66-4.93L23.2,19.54a.22.22,0,0,1-.18,0,.24.24,0,0,1-.16-.1.23.23,0,0,1,0-.33l3.7-2.75a.23.23,0,0,1,.33,0,.24.24,0,0,1,0,.18.22.22,0,0,1-.09.16L25.24,18,28.9,23a.24.24,0,1,1-.38.28Z"/><path class="cls-2" d="M30.85,18.44l-2-3.29a.22.22,0,0,1,0-.18.23.23,0,0,1,.11-.15.24.24,0,0,1,.18,0,.22.22,0,0,1,.15.1l2,3.29a2.2,2.2,0,0,0,1.42,1,2.28,2.28,0,0,0,2.77-1.69,2.19,2.19,0,0,0-.27-1.73l-2-3.29a.23.23,0,0,1,.08-.32.25.25,0,0,1,.18,0,.22.22,0,0,1,.15.1l2,3.29a2.77,2.77,0,0,1-4.73,2.89Z"/><path class="cls-2" d="M43,14.72q-.56.28-1.2-1a1.24,1.24,0,0,0-1-.69,2,2,0,0,0-.89,0h0l-1.49.74,1.2,2.44a.22.22,0,0,1,0,.18.24.24,0,0,1-.12.14.24.24,0,0,1-.31-.11l-2.82-5.73a.22.22,0,0,1,0-.17.24.24,0,0,1,.1-.14l1.76-.87a1.87,1.87,0,0,1,1.49-.1,1.9,1.9,0,0,1,1.12,1,2,2,0,0,1-.23,2.09h.11a2,2,0,0,1,.86.25,1.8,1.8,0,0,1,.7.81q.29.59.54.67a.22.22,0,0,1,.31,0,.24.24,0,0,1,0,.35h0l-.08.05Zm-2.51-3a1.43,1.43,0,0,0-.08-1.12,1.41,1.41,0,0,0-.85-.74,1.43,1.43,0,0,0-1.13.07L37,10.72l1.31,2.65,1.56-.77A1.44,1.44,0,0,0,40.54,11.76Z"/><path class="cls-2" d="M45.27,13.57,42.94,7.65a.25.25,0,0,1,0-.19.22.22,0,0,1,.13-.13.24.24,0,0,1,.18,0,.23.23,0,0,1,.13.14l1.45,3.69,2.34-5.38a.26.26,0,0,1,.14-.13.23.23,0,0,1,.3.13.24.24,0,0,1,0,.19L46.14,9.4l3.75,2.19a.24.24,0,0,1,.09.33.25.25,0,0,1-.14.11.19.19,0,0,1-.19,0L45.94,9.84l-.85,2,.63,1.6a.22.22,0,0,1,0,.18.24.24,0,0,1-.13.13.23.23,0,0,1-.31-.13Z"/><path class="cls-2" d="M50.52,8.07a3.49,3.49,0,0,1,.23-2.64,3.19,3.19,0,0,1,4.47-1.32A3.51,3.51,0,0,1,56.85,6.2a3.51,3.51,0,0,1-.22,2.64,3.19,3.19,0,0,1-4.47,1.32A3.49,3.49,0,0,1,50.52,8.07Zm2.32-3.8a2.66,2.66,0,0,0-1.66,1.39A3,3,0,0,0,51,7.93a3,3,0,0,0,1.4,1.81,2.68,2.68,0,0,0,3.8-1.13,3,3,0,0,0,.2-2.27A3,3,0,0,0,55,4.53,2.63,2.63,0,0,0,52.84,4.27Z"/><path class="cls-2" d="M59.19,3.93q.21,1,2.21.93h0a4.57,4.57,0,0,1,1.83.27,1.49,1.49,0,0,1,1,1.12,1.63,1.63,0,0,1-.48,1.48,3,3,0,0,1-1.63.89,4.09,4.09,0,0,1-2.67-.47.2.2,0,0,1-.09-.29.22.22,0,0,1,.13-.11.2.2,0,0,1,.16,0A3.53,3.53,0,0,0,62,8.19a2.46,2.46,0,0,0,1.39-.74,1.23,1.23,0,0,0,.37-1.12q-.22-1.08-2.4-1h0Q59,5.33,58.76,4a1.52,1.52,0,0,1,.43-1.39,2.76,2.76,0,0,1,1.54-.83,2.66,2.66,0,0,1,.86,0,4,4,0,0,1,.7.14l.67.25a.2.2,0,0,1,.12.29.19.19,0,0,1-.28.12l-.63-.23a3.24,3.24,0,0,0-.63-.13,2.27,2.27,0,0,0-.73,0,2.35,2.35,0,0,0-1.29.68A1.16,1.16,0,0,0,59.19,3.93Z"/><path class="cls-2" d="M68,7.39l-.78-6.1-2.05.26A.22.22,0,0,1,65,1.5a.24.24,0,0,1-.09-.16.23.23,0,0,1,.2-.26L69.69.5A.23.23,0,0,1,70,.7a.24.24,0,0,1,0,.18.22.22,0,0,1-.16.09l-2.05.26.78,6.1a.24.24,0,1,1-.47.06Z"/><path class="cls-2" d="M79.7,6.82h-.09a.22.22,0,0,1-.23-.15l-.65-1.6-3.12.09L75,6.8a.22.22,0,0,1-.22.16h-.09a.26.26,0,0,1-.14-.13.21.21,0,0,1,0-.18L76.79.22A.25.25,0,0,1,77,.07a.21.21,0,0,1,.23.14L79.81,6.5a.22.22,0,0,1,0,.18A.24.24,0,0,1,79.7,6.82ZM77.05,1,75.76,4.68l2.77-.08Z"/><path class="cls-2" d="M81.68,4.07,81.9.22A.23.23,0,0,1,82,.06.22.22,0,0,1,82.14,0a.24.24,0,0,1,.17.08.22.22,0,0,1,.06.17l-.21,3.85a2.19,2.19,0,0,0,.58,1.65A2.28,2.28,0,0,0,86,5.92a2.19,2.19,0,0,0,.76-1.58L87,.5A.23.23,0,0,1,87,.34.23.23,0,0,1,87.2.28a.24.24,0,0,1,.17.08.22.22,0,0,1,.06.17l-.21,3.85a2.67,2.67,0,0,1-.92,1.91,2.77,2.77,0,0,1-3.91-.22A2.67,2.67,0,0,1,81.68,4.07Z"/><path class="cls-2" d="M90.4,2.3q-.11,1,1.78,1.61h0a4.57,4.57,0,0,1,1.64.86,1.49,1.49,0,0,1,.57,1.39,1.63,1.63,0,0,1-.94,1.24,3,3,0,0,1-1.84.3,4.09,4.09,0,0,1-2.37-1.33.2.2,0,0,1,0-.3A.22.22,0,0,1,89.44,6a.2.2,0,0,1,.15.07A3.53,3.53,0,0,0,91.7,7.26,2.46,2.46,0,0,0,93.25,7,1.23,1.23,0,0,0,94,6.09Q94.13,5,92.05,4.31h0Q89.79,3.57,90,2.24a1.52,1.52,0,0,1,.87-1.17A2.76,2.76,0,0,1,92.57.79a2.65,2.65,0,0,1,.82.26,3.94,3.94,0,0,1,.62.36q.22.16.55.46a.2.2,0,0,1,0,.31.19.19,0,0,1-.3,0l-.52-.43a3.31,3.31,0,0,0-.55-.33,2.26,2.26,0,0,0-.7-.22,2.35,2.35,0,0,0-1.44.22A1.16,1.16,0,0,0,90.4,2.3Z"/><path class="cls-2" d="M100.42,9.35,99.16,9A.25.25,0,0,1,99,8.92a.21.21,0,0,1,0-.17l1.58-6.19a.23.23,0,0,1,.29-.17l1.24.32a3.3,3.3,0,0,1,2.1,1.58,3.32,3.32,0,0,1,.37,2.6,3.42,3.42,0,0,1-4.17,2.46Zm-.89-.72,1,.26a2.94,2.94,0,0,0,3.59-2.12,2.84,2.84,0,0,0-.32-2.23A2.88,2.88,0,0,0,102,3.17l-1-.26Z"/><path class="cls-2" d="M105.91,10.62l2-6.05a.23.23,0,0,1,.3-.15l3.34,1.13a.23.23,0,0,1,.14.12.25.25,0,0,1-.11.32.23.23,0,0,1-.18,0L108.33,5l-.87,2.57,2.72.92a.22.22,0,0,1,.13.12.25.25,0,0,1,0,.18.23.23,0,0,1-.3.15L107.31,8l-.87,2.56,3.11,1.05a.23.23,0,0,1,.14.12.25.25,0,0,1-.11.32.23.23,0,0,1-.18,0L106,10.92a.25.25,0,0,1-.12-.12A.21.21,0,0,1,105.91,10.62Z"/><path class="cls-2" d="M115.38,14.36q-.58-.24,0-1.57a1.25,1.25,0,0,0-.11-1.17,2,2,0,0,0-.62-.65v0l-1.53-.65L112,12.8a.22.22,0,0,1-.13.12.24.24,0,0,1-.18,0,.23.23,0,0,1-.12-.31l2.49-5.89a.23.23,0,0,1,.12-.12.24.24,0,0,1,.17,0l1.8.76a1.87,1.87,0,0,1,1,1.07,2,2,0,0,1-1.75,2.69l.07.08a2,2,0,0,1,.37.82,1.79,1.79,0,0,1-.16,1.06,1.28,1.28,0,0,0-.16.85.22.22,0,0,1,.18.25.24.24,0,0,1-.27.23h0l-.09,0Zm.6-3.83a1.43,1.43,0,0,0,.79-.79,1.4,1.4,0,0,0,0-1.13,1.43,1.43,0,0,0-.79-.8l-1.56-.66-1.15,2.73,1.6.68A1.44,1.44,0,0,0,116,10.53Z"/><path class="cls-2" d="M123.59,18.49l1.46-2.57L122,14.18l-1.46,2.57a.22.22,0,0,1-.15.11.25.25,0,0,1-.18,0,.24.24,0,0,1-.09-.32L123.26,11a.23.23,0,0,1,.32-.09.24.24,0,0,1,.12.14.22.22,0,0,1,0,.18l-1.46,2.57,3.07,1.74,1.46-2.57a.23.23,0,0,1,.32-.09.24.24,0,0,1,.12.14.22.22,0,0,1,0,.18L124,18.73a.22.22,0,0,1-.15.11.24.24,0,0,1-.18,0,.24.24,0,0,1-.09-.32Z"/><path class="cls-2" d="M126.39,20.22,130,14.95a.23.23,0,0,1,.33-.06l2.91,2a.23.23,0,0,1,.1.15.25.25,0,0,1-.19.28.23.23,0,0,1-.18,0l-2.71-1.85-1.53,2.24,2.37,1.62a.22.22,0,0,1,.1.15.24.24,0,0,1,0,.18.23.23,0,0,1-.33.06l-2.37-1.62-1.53,2.23,2.71,1.85a.23.23,0,0,1,.1.15.25.25,0,0,1-.19.28.23.23,0,0,1-.18,0l-2.93-2a.24.24,0,0,1-.08-.15A.22.22,0,0,1,126.39,20.22Z"/><path class="cls-2" d="M131.37,23.77l3.92-5a.23.23,0,0,1,.33,0,.24.24,0,0,1,.09.16.22.22,0,0,1,0,.18l-3.92,5a.22.22,0,0,1-.16.09.24.24,0,0,1-.18-.05.23.23,0,0,1-.09-.16A.23.23,0,0,1,131.37,23.77Z"/><path class="cls-2" d="M134.92,27l-1-.87a.24.24,0,0,1-.06-.16.22.22,0,0,1,.06-.16L138.22,21a.23.23,0,0,1,.33,0l1,.86a3.43,3.43,0,1,1-4.59,5.1Zm-.45-1.05.77.7a2.95,2.95,0,0,0,4.92-2.34,2.88,2.88,0,0,0-1-2l-.77-.69Z"/><path class="cls-2" d="M139.22,30.71l4.71-4.32a.24.24,0,0,1,.33,0l2.39,2.6a.22.22,0,0,1,.06.17.23.23,0,0,1-.08.17.24.24,0,0,1-.17.07.23.23,0,0,1-.16-.08l-2.22-2.42-2,1.84L144,30.86a.22.22,0,0,1,.06.17.25.25,0,0,1-.08.17.23.23,0,0,1-.33,0l-1.94-2.11-2,1.83,2.22,2.42a.23.23,0,0,1,.06.17.23.23,0,0,1-.08.17.23.23,0,0,1-.34,0L139.19,31a.25.25,0,0,1,0-.16A.22.22,0,0,1,139.22,30.71Z"/></g></g></svg>