<svg id="Ebene_1" data-name="Ebene 1" xmlns="http://www.w3.org/2000/svg" viewBox="0 0 1160 650"><defs><style>.cls-1{fill:#fff;}.cls-2{fill:#fdfefe;}</style></defs><title>Zeichenfläche 1</title><path class="cls-1" d="M148.47,206.87c-.8,4.92-1.63,9.11-2.15,13.34-1,8.21-2.55,16.44-2.56,24.67,0,6.58-1,13.12-.17,19.84a71.26,71.26,0,0,1,.47,13.59c-.22,3,1.2,5.75,1.47,8.67a1.94,1.94,0,0,0,1.4,2c3.49.82,3.68,2.77,3.21,6.11-1.81,13-2.76,26.08-4.7,39-1.77,11.8-3.91,23.58-8,34.89-.51,1.42-.75,2.61-2.53,2.57-.66,0-1.33.16-1.27,1,.21,3-2.59,3.84-4.11,3.88-4,.09-7.59,1.9-11.64,2-12.09.35-23.24-3-34.19-7.48-9.41-3.88-18.07-9.14-26.6-14.64-4.19-2.7-4.82-6.77-4.85-11.25,0-7,4.21-12.92,5.08-19.77,1-7.76,3-15.39,4-23.15q2.58-18.43,4.49-37c.4-3.84.71-7.73.83-11.59.4-13,1.31-25.91.75-38.87-.58-13.25-1.2-26.51-2.28-39.73-.82-9.95-2.71-19.8-2.91-29.82a28.34,28.34,0,0,1,4.82-16.33c2.38-3.6,6.42-5.56,10.79-6.34,10.68-1.91,20.5,1.91,30.49,4.6a2.33,2.33,0,0,1,.33.18c3,1.37,5.14,1.51,8.39-.83,12.51-9,26.47-15.55,41.11-20.39a201.24,201.24,0,0,1,42.19-9.2,300,300,0,0,1,48.77-.71c12.81.73,25.54,2.1,37.9,5.38,13,3.44,25.11,9.08,36.89,15.67,5.7,3.19,11.53,6.22,16.86,9.94a153.12,153.12,0,0,1,37.1,36.17c7.4,10.33,14.73,20.81,18.41,33.25,1.92,6.49,3.71,13,3.43,19.88-.11,2.6,1.09,3.56,3.48,3.56,5.5,0,11,.07,16.5,0,2.55-.06,4.5-.89,5.33-3.9,5.82-21.14,11.79-42.25,17.74-63.36,7-24.74,13.87-49.5,21-74.18,2.27-7.82,4.34-15.71,7-23.44,3.9-11.31,13.57-16,24.62-13.3,12.42,3.08,24.91,5.86,37.39,8.66a11.73,11.73,0,0,1,4.53,2.18c5.3,3.87,11,6.73,17.82,6.93,3.82.11,6.33,1.47,8.34,5.45,5.88,11.66,12.72,22.82,18.93,34.31C588.09,109.74,594,120,599.7,130.45c5,9.13,10,18.28,15.27,27.27,1,1.69,2.62,1.82,4,2.17a223.77,223.77,0,0,1,55.67,22.75c5.67,3.21,7.53,12.42,3.38,17-2.91,3.18-7.33,2.82-11.12,3.95-4.5,1.33-8.93,2.93-13.38,4.44-2.15.73-.34,2-.07,2.59,3,6.64,7.61,12.23,12.34,17.7,4.51,5.21,9.11,10.34,13.69,15.48,9.7,10.89,3.63,18.11-6.25,22a31.85,31.85,0,0,1-13.7,2.56c-5.41-.32-10.91,1.27-16.39,1.77-6.36.59-12.75.84-19.11,1.34-8.95.7-17.9,1.14-26.87,1.54-1.54.07-3.17.34-4.74.34-16.25,0-32.51.32-48.75-.11-8.61-.22-17.29-.53-25.83-2.09-3.85-.7-7.69.29-11.41.94-2.78.48-5.62.6-8.4,1.1a7.18,7.18,0,0,0-5.45,3.6c-3.75,5.88-7.42,11.77-9.94,18.33-3.65,9.5-11.61,12.26-20.79,13.63-4.78.71-8.16-1.75-11.82-3.6-6.31-3.18-12.54-6.56-18.52-10.32-4.78-3-10.5-2.93-15.36-5.64-6.23-3.47-6.35-4.06-5.45-11.16A98.83,98.83,0,0,0,411.82,262c-.07-1.9-1-2.28-2.31-2.63-3.07-.82-6.17-1.5-9.22-2.38-1.57-.45-1.63.4-2.17,1.53-4.78,10-9.81,19.91-16.34,28.94-8.47,11.72-18,22.33-29.67,31.11-20.19,15.13-42.65,25-66.86,31.48-13.67,3.64-27.49,6-41.65,4.91A103.16,103.16,0,0,1,211,346.89a131.56,131.56,0,0,1-34.9-22.18,184.47,184.47,0,0,1-15.35-15.6c-3.36-3.69-3.4-10.91-.19-13.86a5.25,5.25,0,0,1,3.56-1.74c5,.07,10.07-.34,15.09,1.3,3.74,1.22,7.65,2.38,11.87,1,2.4-.76,3.08-1.9,3.19-4.16.21-4.16-1.1-7.94-2.25-11.84-3.81-13-7.74-25.93-10.92-39.06-1.33-5.51-5.35-7-9.38-8.64-6.85-2.81-12.47-7.21-17.77-12.17-1.16-1.09-1.37-2.61-1.65-4A28.91,28.91,0,0,0,148.47,206.87ZM650.4,245.25c-3.52-8.27-9-14.74-14.5-21.06-4.67-5.35-10.06-10.06-15-15.17-6.48-6.68-4.74-14.61,3.75-16.71,5.47-1.35,10.71-3.34,16-5.14.88-.3,2.39,0,2.45-1.19s-1.48-1.52-2.42-1.87c-6.95-2.61-13.94-5.05-21-7.23-6.21-1.9-12.09-2-17.76,1.25-2.4,1.38-3.74.38-4.87-1.52-2-3.34-3.9-6.71-5.8-10.1-6.24-11.15-12.9-22.06-19.2-33.18-3.92-6.91-8.27-13.69-12.41-20.53-9.66-16-18.79-32.25-27.95-48.52a13.27,13.27,0,0,0-9.48-7c-9.79-2.06-19.51-4.46-29.27-6.66-6.56-1.48-11.9,2-13.65,8.47-2.78,10.23-5.62,20.46-8.78,30.58-3.22,10.33-6.13,20.76-9,31.16q-6.35,22.7-12.72,45.42c-2,7-4.13,14-6,21.07-3.35,12.57-7,25.05-10.67,37.54-1,3.5-5.15,5.7-7.93,6.76-4.78,1.83-10.43,1.35-15.7,1.91-6.08.65-11.88,2.55-17.71,4.26-1.12.33-2.84,1-1.33,2.38,3.27,2.9,6.28,6.38,10.71,7.53q9.39,2.44,18.92,4.29c2,.39,2.57,1,2.57,3,0,7.52-.79,15-1.42,22.46-.12,1.46-.66,3.25,1.17,3.92,2.46.9,4.8,2.13,7.6,2.13,6.12,0,11.32-3,16.82-4.92C453,276,458.41,271.68,458.26,263c0-.24,0-.58.14-.72,3.34-3.11,3.58-7.68,5.42-11.49.41-.85.76-2.1,2.06-1.45,4.58,2.27,5.84-1.32,7.39-4.17,2.31-4.26,5.34-7.29,10.23-8.77,20.63-6.21,41.18-12.68,61.75-19.08q21.1-6.56,42.19-13.19c2.47-.77,5.15-1.65,7.26.18,7.25,6.34,14.34,12.84,21.39,19.4,3,2.82,2.76,9-.8,11a27.79,27.79,0,0,0-6.58,4.89,5.18,5.18,0,0,1-3.24,1.49c-6.78.86-13.17,3.9-20.14,3.68-2-.07-3.25,1.88-5.53,1.64-4.69-.49-9.28,1-13.88,1.69-9.49,1.45-19,2.85-28.57,3.45-3.65.23-7.28.7-10.91,1.07,2.45.49,4.9.35,7.35,1s5.64,1.55,7.55.54a12,12,0,0,1,6.58-1.11c14.09.47,28.14-1,42.23-.86a16.19,16.19,0,0,0,2.19-.28c6.94-.89,13.88-1.77,20.82-2.69s14.09-2.12,21.17-2.8C639.49,245.93,644.62,244.6,650.4,245.25Zm-481.84,57a85.47,85.47,0,0,0,15.1,15.95c5.19,4.42,12.48,3.56,18.79,4.95,5.94,1.3,12.35.56,18.56.91,10.27.56,20.47-.75,30.7-2a134.23,134.23,0,0,0,43.52-13.31c20.17-10,37-24.28,51.23-41.82,13.44-16.58,16.48-35.3,13-55.75-.83-4.83-2.49-9.45-3.13-14.27a74.65,74.65,0,0,0-5.68-21.13c-6.88-15.28-18-27.05-31.52-36.51-9.44-6.63-18.91-13.74-30.44-16.41-8.68-2-17.49-3.51-26.27-5.09a308.43,308.43,0,0,0-38.32-4.92c-18.17-1-36.05.55-53.76,5.66A126.33,126.33,0,0,0,125.95,141c-1.74,1.39-2.79,2.77-1.56,5.38a90.32,90.32,0,0,1,3.87,11,112.29,112.29,0,0,0,12.27,27c.54.84,1,3.14,3,1.74,1.45-1,3.42-1.6,1.74-4.35-4.69-7.69-1.4-16.77,5.79-21.92,4-2.85,7.87-5.81,11.88-8.63q4.47-3.15,9.12-6c5.23-3.25,11-.95,16.51-1.39.58,0,.49,1,.43,1.63-.36,3.24.89,6.32,1.53,9.32.61,2.84.94,5.15-.48,7.64a41.32,41.32,0,0,0-5.61,23.25c.59,11.21,1.41,22.28,4.51,33.16,4,14.05,7.6,28.22,11.36,42.34,2.29,8.6,4.5,17.21,6.91,25.77.36,1.27.67,2.59-.66,2.61-3.27.06-2.51,2.74-3.18,4.38-.39,1-.33,2.08-.74,3.16-2.92,7.61-11.18,8.79-17.81,8.24C179.45,304.86,174.45,302.42,168.56,302.3ZM71,350.5c11.7-.68,23.2-3.62,35-3,1.45.07,1.83-1,1.94-2.22,1-11.56,1.81-23.15,3.16-34.68.53-4.55.09-9.23,2.44-13.69,1.51-2.86,3-6.68-1.83-9.31-2.09-1.15-3.22-4-3.07-7.08.29-6.2.5-12.42.68-18.62.44-15.36.49-30.73.72-46.09.29-19.41,1.38-38.81.9-58.23-.05-2.12-.4-4.37.16-6.34,1-3.6.35-7.18.59-10.75.11-1.7-.47-2.47-2.32-3.09-8.57-2.86-17.07-5.8-26.24-6.15-4.8-.18-8.83,1.85-10.5,6.77-2.24,6.62-1.24,13.29-.35,19.73,1.18,8.56,1.75,17.16,2.6,25.74.83,8.4.83,16.87,1.32,25.3.91,15.69.16,31.36-.63,47-.2,3.94-.23,7.93-.65,11.85-1.09,10.11-2.41,20.2-3.68,30.29-1.22,9.7-3.23,19.26-5,28.87-1,5.39-3.08,10.4-4.43,15.65-1.5,5.83.26,8,6.19,8.06Zm532.57-121c-4.79-5.67-5.82-6-12.62-3.87q-10.81,3.34-21.63,6.65c-2.92.89-5.85,1.74-8.78,2.6C573.87,236.73,596.89,233.61,603.59,229.54Z"/><path class="cls-1" d="M941.28,404.52c4.11-1.83,6.77-5.58,10.47-8,.91-.59,1.74-1.33,2.6-2,6.8-5.25,9.7-11.72,8.23-20.72-.89-5.45-1.41-10.88-3.24-16.13a4.57,4.57,0,0,1,.51-3.95c.56-.88.88-1.8,2.1-1.74s1.46.91,1.88,1.92c2.45,5.86,5.05,11.65,6.67,17.82.28,1.06.56,2.6,1.61,2.49,1.45-.15,1.83-1.85,2.09-3.14,1.3-6.35,2.46-12.73,3.82-19.07.33-1.55.06-3.55,1.67-4.49,2.44-1.44,4.71.55,4.27,4-.5,4-1.47,7.93-2.27,11.88-.38,1.86-.86,3.69-1.38,5.91a7.34,7.34,0,0,0,3.77-3.33c2.67-4.09,5.45-8.11,8.23-12.12,1.18-1.71,3.13-3.07,4.89-2.27,2.14,1,2,3.28,1.09,5.43-1.39,3.35-4.37,5.59-6,8.77-.53,1.06-1.24,2-2.08,3.39,3.15,0,5.9.29,8.57-.09,2.42-.34,4,1.1,6,1.8a1.54,1.54,0,0,1,.95,2.14c-1.12,1.55-2.16,3.49-4.37,3.65-2.36.17-4.75.07-7.12,0a7.56,7.56,0,0,0-3.58.77c-1.23.59-1.37,1.57-1.39,2.78s.69,1.44,1.69,1.87c2.13.9,4.52,1.81,3.2,5.13s-3.52,2.13-5.86,1.81c-3.54-.48-6.77-2-10.24-2.76a9.33,9.33,0,0,0-9,2.45c-4,3.58-9.82,4-13.63,8.12-1.42,1.54-3.44,2.89-4.9,4.38-1.72,1.76.69,2.85,2.26,3.14a19.23,19.23,0,0,0,11-1.13c7.43-3.07,14.56-1.63,21.59,1.41,4.22,1.82,8.86,1.57,13.22,2.75,9.87,2.67,19.9,4.75,29.86,7,6.17,1.37,13.39,2.55,19-1.83a108.37,108.37,0,0,0,9.45-8.81c1.24-1.22,0-2-1.2-2.25a56.49,56.49,0,0,0-7.93-1.44c-3.77-.25-7-2-10.49-3-5.43-1.55-6.67-5.72-6.79-10.51-.22-8.79.61-17.39,5-25.33.44-.81,1.75-2.25.2-3.64-1.17-1.05-2.33-1.44-3.68-.7a4.37,4.37,0,0,1-2.54.38c-1.52-.1-3.58.72-4.17-1.39-.55-1.94.45-4.33,2.07-4.78,9.78-2.67,6.39-9.59,5.21-15.66-.33-1.71-1.36-3.85-.06-4.78s3.73-.74,5.68.11c5,2.19,5.06,2.14,8.29-2.68.14-.2.39-.33.53-.53,3-4.31,2.9-4.23,6.14,0,1.79,2.34,3.59,4.7,5.46,7,1.6,1.93,4.12.9,6.29.66,5.42-.61,10.85-1,16.24.31.24.06.59,0,.72.14,4.1,4.59,9.46,2.78,14.43,2.82,3.33,0,3.53,1.26,2.12,3.91a45.52,45.52,0,0,0-2.63,6.77c-.73,2.14-1.75,4-4,4.88-2.46.94-2.22,2-.6,3.68a7.6,7.6,0,0,1,2.25,4.92c0,.77.34,1.64-.89,2.13-6.37,2.54-6.19,2.85-6.66,9.78-.36,5.28-.72,10.61-3.47,15.57-1.54,2.77-3,5.14-5.72,6.86-3.51,2.25-3.64,3.38-.38,6.42a125.79,125.79,0,0,1,11.1,12.31c4.67,5.68,7.33,12.55,10.34,19.15a115,115,0,0,1,7.9,22.75,91.76,91.76,0,0,1,2.32,18.71c.12,9.89-2.11,19.06-5.54,28-2.07,5.43-4,11.35-7.71,15.61a35.53,35.53,0,0,1-19.21,11.24c-1.88.42-3.78,1.21-5.84.84-.92-.17-1.85.11-1.67,1.36.44,3-.94,5.84-.85,8.85.21,7.47-.94,14.89-1.14,22.32-.23,8.23-1.26,16.42-1,24.65a32.7,32.7,0,0,1-1.78,11.61c-1.46,4.34.17,6.61,4.73,6.88,5.36.33,10.55-.73,15.73-1.89a15.76,15.76,0,0,1,2.56-.31,1,1,0,0,1,1.19,1.08c0,.73-.43,1.06-1.14,1.21-6.69,1.44-13.36,3-20.29,2.21-4.15-.45-7.6-4.92-6-8.74,2.93-7,1.78-14.4,2.57-21.58.81-7.39.13-15,1-22.34s.14-14.87,1.34-22.23c.4-2.45-.78-3.2-3.07-4a183,183,0,0,1-17.63-6.92c-3.55-1.61-3.65-1.82-4,2.12-.28,3.13-.87,6.21-1.39,9.3q-2.91,17.55-5.34,35.19c-.91,6.57-2.64,13-3,19.66-.19,3.14,0,6.26-.45,9.44-.67,4.75-2.4,6.47-6.71,7.22-6,1-11.59-1-17.39-.88-1.41,0-2.68-.38-2.38-2s1.67-.89,2.7-.71a73.24,73.24,0,0,0,15.89,1.17c3.56-.16,5.38-2.12,5.28-5.57-.41-13.69,3.19-26.84,5.22-40.2,1.59-10.43,2.37-21,4.8-31.27,1.53-6.43-1.27-9.57-5-13.75-7.28-8.25-10.69-18.67-13.11-29.16a113.59,113.59,0,0,1-3.17-29.38,36.26,36.26,0,0,1,5-17.39c.87-1.5,1.47-2.52-.61-4.12-7.84-6-17-9.11-26.17-12-7.33-2.27-14.85-4.06-22.37-5.59-9.13-1.87-18.38-2.35-27.49.25-4.66,1.33-6.83,4.79-6.31,9.71.24,2.31-1,4.37-.75,6.62,1.42,15,.28,30.07.95,45.11.14,3.09,1.52,6.29-.13,9.49-.69,1.33.8,2.17,1.83,2.1,5.65-.41,11.31-.81,16.95-1.29s11.07-.88,16.61-1.27c2.37-.17,4.11,1.39,4.1,3.35s-1.75,3.27-4.09,3.47c-10.95.92-21.88,2-32.82,2.9-1.45.12-1.95.54-1.91,2,.08,3.28.1,6.57,0,9.85,0,1.51.88,2.29,1.84,3,1.35,1,3.14,1.66,4.17,2.93,2.22,2.73,4,2.44,6-.13.49-.64.94-1.32,2-.36s.65,1.56-.17,2.27c-2,1.77-2.68,2.79-.42,5.71,7.1,9.18,11.68,19.45,12.28,31.51a58.13,58.13,0,0,1-9.29,34.81c-1.39,2.2-.95,3,.53,4.49,1.25,1.26,4.08,3,2.55,4.45-2,2-3-1.49-4.32-2.58s-2.34-1.66-3.55-.3a50.2,50.2,0,0,1-30.15,16.53,49.09,49.09,0,0,1-30.81-4.67,53.22,53.22,0,0,1-13.05-9.41c-1.62-1.54-2.62-4.26-5.85-3.5-.9.21-1.11-1.39-1.54-2.21-1.76-3.38-3.27-6.91-6.22-9.52-.81-.72-1.84-1.58-2.71-1a3.54,3.54,0,0,0-1.27,3.13c-.06,5.62-.44,11.23-.8,16.84-.1,1.56-.4,3,1.63,3.53.22.05.39.29.59.44,1.41,1.14,2.69,3,2.45,4.34-.3,1.62-2.83,2-4.37,1.8a14.53,14.53,0,0,0-10.32,2.84c-2.12,1.48-3.94,3.24-6.44,4.31-9.66,4.11-19.92,4.49-28.33-.91-8.23-5.28-15.17-13.18-16.14-24.07-.48-5.38,2.38-9.92,4.88-14.37,5.59-9.92,14.61-16.51,23.3-23.39,1.27-1,3.59-.33,4-2.62.56-3-2-5.38-5.28-4.65-10.83,2.47-21.66,4.92-32.43,7.64a38.73,38.73,0,0,1-6,.57c5.35-6.59,12-10,19.41-12,7.76-2.14,15.65-3.38,23.72-1.6a5.08,5.08,0,0,0,3-.12c6.3-2.81,12.94-4.24,19.71-5.43a17.48,17.48,0,0,1,9,.9c.8.27,2.06,1,2.32.76,2.26-2.23,2.83-5.44,4.42-8.09.93-1.56-.46-1.72-1.37-2.34-5.19-3.52-10.51-5.08-16.87-3s-13.15,1.94-19.76,2.27a59.17,59.17,0,0,0-15.5,2.77c-5.55,1.81-9.37-.56-9.78-6.37-.22-3.15-1.46-3.25-4.12-2.46-4.6,1.36-8.12,4.92-12.95,5.79-4,.72-6.71-1.5-7.05-5.59-.9-10.81-1.24-21.66-2.83-32.41a11.66,11.66,0,0,1,3.05-9.43c2.39-2.76,6.44-4.56,6.84-8.49A20,20,0,0,1,793.55,458c1.06-1,.5-1.88.08-3-2.89-7.58-7-14.49-11.21-21.39-2.76-4.57-5.54-9.07-9.56-12.82-2.71-2.53-4.94-.46-7.21-.21-1.23.14-.76,2.7-.49,4.05,1.32,6.48.74,13.06.8,19.55s-.34,12.86-.77,19.29A134.51,134.51,0,0,1,755.57,505c-4.46,11.06-12.69,18.26-24.15,21-4.73,1.14-4.72,3.89-4.59,7.18.4,9.82-.25,19.6-.5,29.4-.21,8.4-.35,16.91,1.1,25.3,0,.24.08.49.11.74.73,7.58,2,8.48,9.28,6.93a79.73,79.73,0,0,1,9.44-1.32c1-.09,2.87-.88,2.93,1.12.05,1.81-1.66.92-2.6,1.1-5.67,1.06-11.37,1.81-17.11,2.32-2.09.18-2.78-.79-3.2-2.5a98.39,98.39,0,0,1-2.65-16.74c-.76-11.58.29-23.11.36-34.66,0-4.29.32-8.66.51-13,.12-2.76-1.13-4.31-3.93-4.38a21.6,21.6,0,0,1-9.92-2.38c-2.63-1.42-2.49,1.29-2.48,2,.07,5.48-.92,10.82-1.61,16.21-1.44,11.28-2,22.65-3.59,33.94-.74,5.33-.84,10.79-1.64,16.16a7.18,7.18,0,0,0,.36,3.65c1.59,3.82,1.47,4.53-2.57,5.61-5.41,1.44-9.72,2.94-22.1-1.91,4.57-6.26,11.35-5.09,17.74-5.07,2.22,0,3.49,0,3.65-3,.36-6.49,1.35-13,2.09-19.43,1-8.55,2.21-17.08,2.82-25.65.41-5.79.51-11.7,1.86-17.27,1.49-6.1-.86-9.22-5.2-13.08-10.27-9.13-14.76-21.36-16.87-34.81a120.81,120.81,0,0,1-.56-30.36c1.23-12.94,3.37-25.81,2.94-38.88-.3-9-.74-17.94-.85-26.92a13.77,13.77,0,0,0-4.38-10.12c-6.88-6.59-13.65-13.18-21.87-18.2-2.2-1.34-3.89-.74-5.59-.33s-.66,2.17-.71,3.48A26.35,26.35,0,0,1,649.3,372c-.45.92-.81,2.39-2.34,1.61-1.23-.63-2.39-1.62-1.84-3.27,1.2-3.56,1.27-7.44,3.17-10.81,1.25-2.22.38-2.93-2.08-3.11-3.94-.29-6.45,2.69-9.79,3.69-2.32.69-4.58,1.58-6.9,2.29a2.2,2.2,0,0,1-2.95-1.4c-.93-2,1-1.8,1.64-2.14,5.1-2.82,10.74-4.55,16.06-7.87-4.7-1.81-9.22-2.46-13.64-3.46-1.08-.24-2-.47-2.1-1.67-.13-1.38.77-1.83,2-2.21,5.63-1.77,10.88.07,16.16,1.59a11.43,11.43,0,0,1,1.78.9,5.72,5.72,0,0,0-2-5.91c-3.87-3.66-7.94-7.17-11-11.62-.39-.57-1.34-1-.8-1.85.38-.62,1-1.28,1.83-1,2.25.68,4.68.69,6.34,3,1.92,2.73,3.7,5.74,7.22,7.7.63-5.25-.7-10-.93-14.71-.14-2.82-.17-5.69-.35-8.52,0-.66-.25-1.55.87-1.7s1.18.67,1.47,1.56c1.37,4.33.46,8.83,1.26,13.27,1.46,8,1.69,16.22,3.84,24.15.71,2.64,1.6,4.71,4.27,5.93,3.58,1.63,6.15,5,9.64,6.59,5.5,2.51,9.64,6.56,14,10.39,1.45,1.26,2.44.43,2.7-1.09,1.66-9.65,4-19.16,5.42-28.86a79.16,79.16,0,0,1,11.57-31.73c4.51-7,11.64-10.69,20.21-11.66a111.41,111.41,0,0,1,14.18-.63c2.9,0,5.36.87,7.08,3.25,7.31,10.13,14.3,20.4,18.37,32.41a166.43,166.43,0,0,1,8.19,39,170,170,0,0,1,.14,30.42c-.44,4.84,1.67,7.6,4.15,10.93A179.41,179.41,0,0,1,795.09,448c1.8,3.91,4.47,4.92,8.56,3.51,1.74-.6,3.4-1.45,5.33-1.31,1.67.12,3.64-.53,4.19,2a4.57,4.57,0,0,1-2.06,4.67c-4.27,3.27-4.3,3.16-.62,7s7.2,7.54,10.67,11.42c1.46,1.63,3,4,1.38,5.82-1.44,1.67-3.6.61-5.53-.64a7.74,7.74,0,0,1-3.09-3.52,13.85,13.85,0,0,0-7.37-7.38c-.84-.37-1.76-1.3-2.52-.69a3.63,3.63,0,0,0-1.34,3.57,234.28,234.28,0,0,0,5.55,23.67c.91,3.41,2.34,6.69,3.1,10.13.47,2.14,1.53,2.48,3.37,2.49a25.88,25.88,0,0,0,9.44-1.41c4-1.5,8.1-2.56,12.14-3.87,1.68-.54,2.57-1.13,1.58-3.43a72.4,72.4,0,0,1-5.19-37c1.41-12.8,6.26-24.58,15.47-34.1,1.05-1.09,1.79-1.85,1.08-3.79-5.39-14.85-12-29.12-18.94-43.3-3-6.13-6.56-5.94-10.64-1.59a17.8,17.8,0,0,1-8.48,5.53c-1.22.31-2.57,1.35-3.39-.62-.73-1.73-1.65-3.51.06-5.12a26.05,26.05,0,0,1,4.89-3.91c1.18-.66,1.73-1.57,3-2.92-5.32,0-9.87-1.45-14.53-.89-3.19.38-5.19-2-7.81-2.87-1.07-.37-.9-1.85-.54-2.69.55-1.27,1.65-2.49,3.2-2,4.44,1.45,9.12,0,13.57,1.25a3.76,3.76,0,0,0,2.56.08c1.21-.7,3.47-.14,3.56-2,.07-1.35-1.12-2.38-2.42-3.36-3.14-2.37-6.53-4.47-9.22-7.42a12,12,0,0,1-2-2.65c-1-2-.23-3.72,1.12-5s2.88.06,3.87,1c2.69,2.42,5.56,4.79,7.61,7.7,1.26,1.78,3,2.32,4.43,3.92,2.21-5.31,1.18-10.24.2-15.16-.6-3-1.48-5.95-1.87-9s-.29-5.93,2.13-8.28c3.09,2.22,3.3,6.2,5,9.3s1.15,7.1,1.39,11.54c2.26-2.87,3.14-5.47,4.25-8,2-4.48,4.15-8.88,6-13.4.75-1.8,2-1.81,3.51-1.85,2.22,0,2.42.86,1.64,2.69-2.75,6.46-5.14,13.08-8.16,19.4a43.18,43.18,0,0,0-4,24c.63,5.73,2.87,10.69,5.58,15.47,4.41,7.76,7.54,16.07,11.14,24.18,1.43,3.23,2.63,6.56,3.91,9.85.52,1.34,1.5,1.46,2.7,1.11,5.37-1.57,10.42-4.09,15.91-5.31,1.38-.31,1.34-1.48,1.48-2.65.54-4.58-.82-9-2.51-12.91-2.55-5.93-.32-10.81,1.82-15.84a53.16,53.16,0,0,0,2-5.84c.8-2.71-1-4.15-3.94-3.32-2.57.74-5.08,1.72-7.69,2.24-2.14.43-4.59.91-6-1.58-1.14-2-.17-7.65,1.56-8.61,4.53-2.51,8.48-6,13.76-7.26,3.15-.76,5.67-2.81,5.5-6.85-.11-2.6,1.51-4.14,4.18-4,8,.31,15.89-1.27,23.87-.74,1.46.1,2.86-.24,3.55,1.8,1.93,5.72,6,8.1,12.81,6.2,4.24-1.18,7,1.53,10.36,2.64,1.56.52.95,2.74.46,4-1.23,3.09-.55,5.26,2.41,6.67,1.67.79,3.17,2,2.87,3.8a5.88,5.88,0,0,1-3.43,4.16c-5.61,2.63-5.64,2.64-2.89,8,.11.22.36.4.39.63.28,1.81,3.42,2.91,1.72,5s-4.32.91-6.15.39c-3.11-.88-4.08.16-4.44,2.91-.64,5-2.75,9.44-5.11,13.8a1.36,1.36,0,0,0-.18.69c-1.48.82-1.93,2.26-2.24,3.77-3.79,3.25-7.13,7.05-11.63,9.31,4.15,3,6.81,7.36,10.5,10.75l19.2-18.48,0,0c3.18-1.16,4.74-4.33,7.49-6h0A9.91,9.91,0,0,0,941.28,404.52ZM941.22,529h0L936,535l-.75.75-3.75,3.78-.72.73-1.53,2.26,0,0c-3.18,3.09-6.48,6.07-9.47,9.33-1.17,1.28-1,2.66,1.45,2.75,4.29.15,8.43,0,11.89-3l10.42-.16c2.9-.84,5.87-.62,8.82-.62s4.76-.92,4.83-4.18c.14-6.78-2.46-13.12-4.77-19.07-2.68-6.9-3.8-6.47-9-.91a9.54,9.54,0,0,0-.66.88h0Zm-217.86-3.62c1.44.61,3.65-.39,5.69-1,7.48-2.18,15.19-5.11,19.23-11.93C757,497.82,761,481.62,762.12,464.6c.32-4.94.19-9.92.87-14.81,1.17-8.39.51-16.79-.81-25-.94-5.79-4.51-11-8.12-15.74-1.1-1.46-1.73-2.73-.24-4.23,3.25-3.27,3.3-6.29.16-9.48-1.73-1.76-3.79-3.29-4.72-5.68-2.62-6.8-14.21-12.13-21.29-11.35a45.58,45.58,0,0,0-24.73,11c-5.32,4.49-5.79,6.46-3.83,13,1,3.25,3.19,5.74,4.41,8.8.33.83.93,1.76-.14,2.21a2,2,0,0,1-2.69-.57,14.32,14.32,0,0,1-.94-2.36,4.87,4.87,0,0,0-4.35-3.49c-1.83-.06-3.28,1.2-4.28,3a18.35,18.35,0,0,0-2.12,6.94c-1,9.57-2.28,19.1-3.11,28.7-.93,10.72-2.53,21.5-1,32.14,1.83,13.06,4.91,26,14.74,35.94C706.17,520,713.17,524.88,723.37,525.36Zm382.14-49.41a74,74,0,0,0-1.53-12.71c-3.94-17.93-10.21-34.86-21.37-49.68-3.52-4.68-11.66-8.22-16.32-6.59-9.31,3.26-18.43,7.4-26.14,13.41-5.72,4.46-11.32,9.55-15.15,16.16s-6.25,13.82-6.18,21.24a105.72,105.72,0,0,0,1.73,17.18c2.33,13.25,5.64,26.05,13.84,36.92a34.2,34.2,0,0,0,18,12.75c8.8,2.56,17.43,1.94,25.9-.52,7.6-2.21,16-3.82,18.34-13.53a27.51,27.51,0,0,1,1.88-4.32A79.64,79.64,0,0,0,1105.51,475.95ZM913.68,499.06c-7.6-.45-15.15,1.34-22.81,1.62-3.69.13-7.27.78-9.53,5.08-1.89,3.61-6.15,3.2-8.88-.32-1.4-1.81-2.64-2.79-5.08-2.8-1.87,0-4.15-1.08-4-3.49.1-2.17,1.57-3.23,4.07-3.34,1.39-.06,3.56,0,4.38-1.44,1.17-2.08,2.51-3,5-3,2.23.05,4.21.16,5.56,2.21.86,1.31,2.23.86,3.42.86,9,0,17.8-2.69,26.89-2.39a4.89,4.89,0,0,0,5.28-4,73.53,73.53,0,0,0,2.06-19,59.59,59.59,0,0,0-3.8-21.19c-1.24-3.22-2.48-5.12-6.19-4.48-2.36.41-4.89-.19-5.74-2.4-.7-1.81,1.71-3,2.85-4.34.87-1.05,2.65-1.8,1.17-3.6-3.29-4-5.67-8.7-11.56-10.19a93.38,93.38,0,0,0-11.11-2c-10.31-1.32-20.13-1.09-29.44,5-8.41,5.53-13.21,13.38-16.74,22.16a58.44,58.44,0,0,0-4,27.82c1.13,11.57,3.09,22.62,10.83,32.1,6.32,7.75,13.59,13.29,23.59,15.09a2.62,2.62,0,0,0,3.08-1.16c9.49-11,21.45-17.6,36-19.18C911.52,502.52,914,502.92,913.68,499.06Zm-35.32,95.45c5.23,5.8,14.93,12.3,24.82,13.93a48.94,48.94,0,0,0,21.93-.86,52.16,52.16,0,0,0,20.77-11.89c3.38-3.08,3.31-4.15,0-7.67-5-5.34-10.47-10.24-15.3-15.8-2.87-3.3-5.5-7.29-10.07-8.91-1-.36-2.38-.94-2.59,0-.56,2.7-3.1,4.16-3.7,6.78-2.68,11.71-5.5,23.4-8.08,35.14-.34,1.54-.8,1.91-2.08,1.69-1.6-.28-.94-1.26-.71-2.24,2.58-11.06,5.23-22.12,7.58-33.23.75-3.53,1.78-7.13,1.56-12C900.94,572,889.69,583.31,878.36,594.51ZM728.11,366.18c5.77.93,10.72-2.3,15.9-4.83,3.87-1.89,5.13-5.3,6-9.14,1.33-6-.22-12-.93-17.84a13,13,0,0,0-4.68-8.74,138.21,138.21,0,0,1-11.17-10.37,24.13,24.13,0,0,0-6.38-4.32c-1.53-.78-3.71-2.06-5.31.23-1.45,2.06-3.45,4-1.53,6.89a20,20,0,0,1,1.92,4c1.58,4.15-1.29,7.57-5.69,6.82A4.9,4.9,0,0,0,711,331.3,27.35,27.35,0,0,0,707,352.1C708.52,359.52,719,367.18,728.11,366.18Zm344.47,25.89c7.35-7.07,8.16-15.81,7.22-24.8-.33-3.16-.7-6.57-2.62-9.46-4.84-7.25-10.54-9-19.84-7.43-9.54,1.62-16,6.38-18.77,15.66a78.65,78.65,0,0,0-2.67,12.12c-1,7.69,3.5,13.09,10.23,12.63a14.72,14.72,0,0,0-6-5.34c-3.77-1.77-1.61-4.11-.56-5.58,1.43-2,3.33-.94,4.86.65,2.42,2.52,5,4.89,7.4,7.42,3.3,3.47,7.06,4.61,11.6,2.75a41.17,41.17,0,0,1,4.8-1.71C1070.81,388.29,1072.82,388.6,1072.58,392.07Zm-168-22.29c-1.64-1.52-3.16-2.49-4.72-1.83-3.15,1.32-5.8.55-8.18-1.43a3.78,3.78,0,0,0-5-.21,24.17,24.17,0,0,0-10.54,15.13c-.75,3.25-2.58,6.67-.58,9.92a28.2,28.2,0,0,0,7.67,8.51c4.1,2.84,8.45,5.34,14,2.72,4.07-1.93,6.54-5.1,8.89-8.6.86-1.28,2-3.45,3.56-1.69s2.82,4.75.42,7a33.55,33.55,0,0,0-4.82,6.27c-3.86,5.71-14.84,7.66-20.8,4.13-4.09-2.42-7.25-5.9-11-9.52-.91,4.59.79,7.64,3.69,9.29,7.21,4.1,15.17,6.52,23.29,3.87,6.1-2,11.74-5.7,13.44-12.64,1.25-5.09,1.74-10.36,2.67-15.53.9-5-1.44-7.11-6.31-5.5-2.65.87-5.27,1.83-7.89,2.77s-4.84-.32-6.8-1.65-.65-3.6.12-4.7C897.68,373.09,899.74,369.72,904.55,369.78Zm26.9,67.82c-.31-4,.12-7.9-.33-11.89-.34-3.06-1.74-2.68-3.72-2.45-5.22.61-7.47,5.24-11.12,8-3.41,2.56-3.13,5-1.1,8.22,4.58,7.27,6.49,15.55,7.18,23.9.71,8.59.68,17.31-2,25.74-.3.93-.64,2.38,1.26,2.37a57,57,0,0,0,7.85-.09c2.08-.3,3.72-1.47,3.56-4.19-.27-4.46-.58-9-.62-13.37C932.32,461.74,931.64,449.68,931.46,437.6ZM923.15,557a5.51,5.51,0,0,0,.61,1.27c7.85,7.78,15.14,16.09,22.68,24.16,5.86,6.27,7.21,5.74,10.5-2.57a63.52,63.52,0,0,0,4.9-21.54c.1-3.26-.53-4.25-3.72-3.82-.71.1-1.39.6-2.08.58C945.16,554.85,934.35,555.83,923.15,557Zm-12.84-2.63c0-1.74-1.23-1.79-1.84-2.44-1.36-1.45-4.13-1.3-4.6-3.41-.87-3.89-3.76-4.93-7-6.12-10.67-4-20.73-3.06-30.33,3.1-1.77,1.14-4,7.23-3.25,9.17.44,1.14,1.4,1.12,2.41,1.34,6.26,1.36,12.81.63,18.94,2.32,5.6,1.55,10.82-.33,15.95-1.26C903.67,556.55,906.68,554.36,910.31,554.4Zm-73.89,25.08a29,29,0,0,0,13.12-4.18c3.66-2.24,8.74-3.7,9.13-9.33a16.9,16.9,0,0,0,0-4.58c-.66-3.14,2-5.19,2.32-7.94.39-3.33.66-6.67,1-10-6.9-.68-13.69.13-20.48.65-2.19.17-4.6,1.11-4.36,4,.22,2.62,1.93,3.82,4.65,3.36,4.14-.7,6.21,1.89,8.23,4.92a21.36,21.36,0,0,1,3.48,7.94c.23,1.23,2.24,2.85-.47,4-2.06.84-2.77-.36-3.67-1.75a11,11,0,0,0-2.09-2.13c-2.26-2-5.29-1.75-6.87.79C837.61,569.6,835.63,574.28,836.41,579.49ZM895.91,565c-1.74,1-3.46.79-5.16.81-8,.08-15.92.59-23.85,1.42-1.94.2-2.49.87-2,2.48,2.14,7.68,5.06,14.95,10.18,21.25,1.24,1.53,1.86,1.24,2.84.29C885.58,583.78,893.86,576.75,895.91,565Zm-105.47-83.9c-5.78,2.64-8,3.38-5.95,10.25a4.4,4.4,0,0,1,0,1.49c-.47,7.38.95,14.69.74,22.06-.08,2.94,1.45,3.44,3.81,2.45,3.93-1.64,7.86-3.27,11.72-5.08,4-1.89,4.65-3.62,3.68-7.89s-2.92-8.46-4.51-12.64-1.71-4.06-4.52-1a10.71,10.71,0,0,1-1.07,1,3.86,3.86,0,0,1-3.9.34c-1.38-.54-.84-2.17-.45-3.27C790.9,486.34,790.28,483.88,790.45,481.05ZM696,383.83c0,2.52,1.74,3.62,3.67,2.2,4.61-3.41,9.07-7,13.63-10.52,2.16-1.65,2.63-3.26.68-5.5-2.9-3.32-5.58-6.82-8.38-10.22a2.06,2.06,0,0,0-2.28-.92,3.25,3.25,0,0,0-2,2.91c-.31,3-1.47,5.76-2.17,8.64C698.12,374.91,697.08,379.41,696,383.83ZM898.33,529.72C903.19,529,908,528.29,913,528c.87,0,1.72-.88,2.53-1.42,3.93-2.62,2.79-6.93,2.66-10.34-.22-5.8-.86-6-5.77-2.83-5.56,3.56-10.41,8.07-15.3,12.49-.88.8-2.58,1.3-2.07,2.61C895.42,529.55,897,529.88,898.33,529.72ZM837.89,519l0,.17a36.31,36.31,0,0,0,4.49,0c1.88-.24,4.22-1.07,4.1-3-.13-2.11-1.68-3.89-4.56-3.75a51.62,51.62,0,0,0-11.68,1.4c-5.26,1.45-10.83,1.6-16.11,3.15-1.58.46-3.18,1-2.93,2.93.28,2.15,2.16,1.45,3.54,1.54a6.57,6.57,0,0,0,1.12,0Zm95.91-1a11.63,11.63,0,0,0-3.06-5.9c-1.51-1.54-2.7-1.95-4.47-.15-3.06,3.11-3.62,7-3.65,11,0,1.52-1.41,3.29.46,4.73a6,6,0,0,0,8.36-1.39C933.16,523.83,932.62,520.82,933.8,518Zm-97.38,94.18c3.28.19,5.35-1.63,7.3-3.72s2.17-3.92-.19-5.91c-3-2.5-5.75-5.21-8.68-7.74-1.53-1.32-1.44.18-1.66,1.09a28.78,28.78,0,0,0,.27,14.53A2.28,2.28,0,0,0,836.41,612.21Zm-28.27-19.43a39.14,39.14,0,0,0,13.09-4.19,2.35,2.35,0,0,0,1.48-2.39c-.21-1.24-1.38-1.29-2.2-1.62-2.7-1.1-5.58-1.82-8.17-3.13-3.27-1.65-5.22-.32-6.46,2.46a20.53,20.53,0,0,0-1.11,5.34C804.41,591.74,805.33,593.14,808.15,592.78Zm45.32-2.84c0-6.43-1-7.16-6.48-5.17-.34.12-.64.35-1,.49-2.18.87-5.38.93-5.81,3.56-.52,3.17,2.63,4.79,4.68,6.69.6.55,1.58.67,2.31,1.11,2.83,1.73,4.41.05,5.4-2.22A18.42,18.42,0,0,0,853.47,589.94ZM753,374.29c.58-2.2-.55-4.55-.85-7-.34-2.69-2.52-3.27-4.46-1.29s-3.66,4.24-6.32,5.39c-1.83.8-1.24,1.95-.18,2.75,2.8,2.12,5.58,4.3,9.06,5.3,1.75.5,2.62-.12,2.73-1.87C753,376.62,753,375.62,753,374.29ZM933.73,504.19c0-6.42-.53-7-6.57-6.64-2.56.16-5.06,1-7.68.73s-3,1.85-3.06,3.56c-.06,1.53,1.72,1.52,2.79,1.61a34.19,34.19,0,0,1,11.21,2.88C932.75,507.36,934.43,507.19,933.73,504.19Zm-46.58,19c6.42-.5,11.1-5.21,16.37-8.73a2.94,2.94,0,0,0,.86-2c.12-1.18.55-2.67-1.78-1.58-5.8,2.71-11.42,5.74-17,8.89-1.09.62-2.54,1-1.9,2.58C884.23,523.59,885.68,522.74,887.15,523.14Zm-59.17,51c0-4.19-2.51-8.12-4.83-8.18-2.07,0-4.86,3.42-4.87,6s4.19,6.71,7,6.35S827.94,575.62,828,574.17Zm74.31-35.54c3,2.63,5.65,5,8.3,7.3.84.74,1.18.58,2.42.11,3-1.16,3.69-4.43,6.48-5.7,1.64-.74,4-.64,5-2.8A3.7,3.7,0,0,0,921,538c-3,1.88-5.75,1.91-9.14.44C909,537.29,905.64,537.56,902.29,538.63Zm127.8-116.47c-8.86-3.34-17.95-3.71-26.72-5.53,6.09,2.5,12.25,4.71,18.3,7.17C1024.71,425,1027.27,424.87,1030.09,422.15ZM764.8,376.95a29.9,29.9,0,0,0-1.88-17.14A23.78,23.78,0,0,0,764.8,376.95Zm62.46,231.73c-.11-2.42.07-5.39-2.11-6.56-.9-.48-1.38,3.13-2.87,4.43-.4.35-.29,1.43-.23,2.16.13,1.71.12,3.52,2.68,3.53S827.37,610.55,827.26,608.68ZM940,514.78c-1.78,1.31-1.87,3.32-1.72,5.34.08,1.14-.81,2.91,1.64,2.87,2.91-.05,3.43-3.08,5.48-4.16A9.46,9.46,0,0,0,940,514.78Zm-127,90.7c3.29.55,3.88-2.49,5-4.39.58-1-1.18-1.92-2.23-1.51-2.08.82-5.18.32-5.68,3.54C809.79,605.19,811.23,605.59,813,605.48Zm65.4-72.67c.86-.5,2.62.75,2.58-1,0-1.6-2-1.35-3-1.61-.82-.2-2.56.44-2.49,1.61C875.62,533.78,877.48,532.23,878.4,532.81Z"/><path class="cls-2" d="M938.28,407.54l-.32-.18.33.18Z"/><path class="cls-1" d="M482,214.73c-1.5.06-2.61.24-3-1.29-.12-.42-1-.57-1.47-1-1.64-1.5-4.69-.89-5.56-3-.81-2,1.53-3.64,1.93-5.43,2.11-9.38,5.16-18.46,8.08-27.59s5.73-18.34,8.59-27.52c4.24-13.58,8.52-27.15,12.66-40.75.68-2.25,1.16-3.69,3.92-2.26,1.42.74,2.45-.65,3.51-1.53,1.59-1.32,2.56-1.63,4.28.6,10.64,13.79,21.61,27.33,32.45,41,7.74,9.74,15.56,19.41,23.11,29.3,1.87,2.44,2.83,5.53,5.31,7.65,1.32,1.12.26,2-.93,2.49-18.51,7.49-37.05,14.86-56.26,20.46-11.84,3.46-23.77,6.46-35.86,8.9A2.24,2.24,0,0,1,482,214.73ZM529,148.85l-2.85,9.59a189.26,189.26,0,0,0-4.88,21.42c-.71,4.1.45,5.48,3.83,4.79a127.47,127.47,0,0,0,18.33-5c6.61-2.42,6.73-2.26,3.47-8.63C542.55,162.48,536.26,155.46,529,148.85Z"/><path class="cls-1" d="M239.43,137.52a92.09,92.09,0,0,1,29.51,4.3c15.33,4.62,29.75,11,42.79,20.37a112.49,112.49,0,0,1,15.49,13.36c5.14,5.34,11,9.9,15.37,16.06s7.55,12.91,8.06,20.09c.57,8-2.76,15.36-7.61,22a186,186,0,0,1-21.27,24.17,160.26,160.26,0,0,1-19.83,15.9c-9.3,6.5-19.37,11.69-29.42,16.9-11.28,5.85-23.19,8.53-35.89,7.29-2.07-.2-4.08-.75-6.2-.81a3.9,3.9,0,0,1-3.9-3.91c-.81-8.84-1.47-17.56,2.47-26.1,2-4.26-.23-9-1.13-13.41-2.9-14.27-5.82-28.52-8.24-42.89-1.94-11.51-3.17-23.11-5-34.63-1-6-.89-12.07-1.69-18.07-.55-4.15-.32-8.37-1.3-12.49-.63-2.67-.37-4.6,3.44-5.37C223.3,138.65,231.5,137.14,239.43,137.52Zm18.33,27.78c-1.75,0-3.5-.06-5.24,0-1.22.05-2.06.36-1.72,2.06,3.06,15.23,6,30.47,9,45.71,2.4,12.23,4.82,24.46,7.17,36.7,1,5.4,2,10.82,2.88,16.24.39,2.33,1.06,3,3.72,2.13,4.35-1.36,8.31-3.48,12.42-5.3,7.42-3.29,13.54-8.2,19.55-13.81,6.5-6.07,14.17-10.9,19.83-18,7.81-9.83,9.79-20.28,2.17-31-4.69-6.61-10.85-11.78-17.37-16.54-4.33-3.16-9-5.87-13.5-8.66-3.71-2.29-8.46-3.55-13-4.58C275.09,168.28,266.71,165.29,257.77,165.29Z"/><path class="cls-1" d="M723.82,391.75c3.84.07,7.19,3.64,6.55,7.31-.53,3-.26,6-.53,9-.24,2.78-1.82,4.73-3.09,6.93-.79,1.37-1.88.77-2.9.48-5.76-1.67-11.59-8.77-12.08-14.71,0-.47,0-1.19.24-1.41C715.84,396.42,719,392.43,723.82,391.75Z"/><path class="cls-1" d="M722.93,456.36a49.54,49.54,0,0,1-7.49-1c-3-.83-4.79-3-4.43-6.34.57-5.21,5.41-11.31,10.92-12.16a5.88,5.88,0,0,1,6.27,3.56,24.89,24.89,0,0,1,2.13,6.55C731.18,452.15,729.36,457.09,722.93,456.36Z"/><path class="cls-1" d="M717.78,481.75c1.89.07,4.26-.27,6.45,1.52,4.19,3.42,2.53,7.62,1.72,11.55-.69,3.34-3.44,5.16-6.49,6.37-1.15.46-1.84-.42-2.54-1.11-4.84-4.73-5.34-10.77-5.17-17,0-1.28.85-1.31,1.77-1.3Z"/><path class="cls-1" d="M1071.74,506.28c-.18,1.31.26,2.64-.33,4-1.58,3.65-3.89,4.77-8.2,3.75-4.46-1.06-8.77-5.8-9.5-10.23-.54-3.33,1.12-5.36,3.67-7a7.68,7.68,0,0,1,9.81.43C1069.95,499.44,1072.57,502.07,1071.74,506.28Z"/><path class="cls-1" d="M1068.8,432.46a7.87,7.87,0,0,1-.51,2.28c-2.08,4.51-10.36,8.2-14.92,6.52-3.6-1.32-4.84-4.62-2.73-7.71,1.1-1.6,1.79-3.4,3.17-4.89a9.66,9.66,0,0,1,10.49-2.82C1067.67,427,1068.28,429.71,1068.8,432.46Z"/><path class="cls-1" d="M1060.45,458.46c5.78,0,9.36,4.14,9.8,9.74.31,3.93-3.83,7.31-8.78,7.53-3.86.17-7.47-5.27-7.66-11C1053.72,461.57,1057,458.44,1060.45,458.46Z"/><path class="cls-1" d="M879.58,451c-6.9,0-9.41-2.63-8.85-9,.3-3.38,3.27-4.55,5.29-6.16,2.79-2.22,6.33-4.41,10.08-2a8.57,8.57,0,0,1,4.13,8.19C889.71,447.65,885.64,451,879.58,451Z"/><path class="cls-1" d="M872.47,480.27c-5-.16-7.48-4.07-5.34-8.53a8.8,8.8,0,0,0,.61-4c.08-5.28,4.68-8,9.46-5.64s6.65,5.85,5.53,10.37A10.89,10.89,0,0,1,872.47,480.27Z"/><path class="cls-1" d="M727.53,359.5c-6.83,0-14-5.32-16.28-12.11-.25-.74-.56-1.54.18-2a1.77,1.77,0,0,1,2,.37c1.23,1,1.59,2.45,2.26,3.73,3.43,6.5,9.91,9,17.88,6.9,4.83-1.28,8.73-7,8.85-13.1,0-1.37-.05-2.75,0-4.11,0-.87-.43-2.19,1.22-2.15,1.21,0,1.6.84,1.82,1.95,2,10.41-6,20.4-16.49,20.52Z"/><path class="cls-1" d="M724.54,341.7c1-3.85.57-8.57,3.09-12.58.71-1.14,1.43-2.29.56-3.61-1.48-2.24.37-3.44,1.59-4.56s2.51-.68,3.61.52a3.45,3.45,0,0,1,0,5c-5.48,4.59-5.65,10.76-5.91,17.06-.05,1.26,1.08,3.5-.93,3.69-1.79.16-1.08-2.44-2-3.57C724.33,343.37,724.54,342.71,724.54,341.7Z"/><path class="cls-1" d="M1055.51,364.68c3.71-2.15,6.89-4.14,7.48-8.6.21-1.63,2.28-1,3.59-1.08,1.87-.16,2.23,1.41,2.68,2.57s.86,3-.53,3.75c-7.22,4.11-9.63,11.48-12.75,18.39-.53,1.18-.81,2.71-2.68,2.3s-1-2.07-1-3.05a30.4,30.4,0,0,1,2.34-9.92c1-2.49,1-3.78-2.15-3.55-1.56.11-3.67-.58-3.64-1.79,0-1.93.77-4.27,2.72-5.33,1.62-.88,2.39.74,2.85,2A35.91,35.91,0,0,1,1055.51,364.68Z"/><path class="cls-1" d="M1077.76,373.45c.14,4.89-1.39,8.19-3,11.5-.48,1-1.06,1.73-2.22,1.49s-.93-1.42-.8-2.14q1.2-6.82,2.65-13.6c.12-.56.27-1.46,1.35-1.49,1.24,0,1.47,1,1.68,1.67A9,9,0,0,1,1077.76,373.45Z"/><path class="cls-1" d="M894,385.9a30,30,0,0,1-3.26,9.46c-1.09,2-3.18,2.09-4.92,1.47s-1-2.54-.65-3.61c.59-1.67.53-3.55,2.08-5,2.47-2.3,1.66-5-.81-6.51-3.43-2.13-2.53-4.83-1.34-7.31s3.63-4,5.87-5.48c1.14-.78,1.58-.18,1.55,1C892.38,375.26,893.45,380.51,894,385.9Z"/></svg>