<svg id="Ebene_1" data-name="Ebene 1" xmlns="http://www.w3.org/2000/svg" xmlns:xlink="http://www.w3.org/1999/xlink" viewBox="0 0 1437.76 898"><defs><style>.cls-1,.cls-10,.cls-5,.cls-9{fill:none;}.cls-2,.cls-3{fill:#fff;}.cls-10,.cls-2,.cls-9{stroke:#000;}.cls-2{stroke-miterlimit:10;}.cls-4{clip-path:url(#clip-path);}.cls-5{stroke:#fff;stroke-width:0.04px;}.cls-10,.cls-5,.cls-9{stroke-miterlimit:3.86;}.cls-6{clip-path:url(#clip-path-2);}.cls-7{clip-path:url(#clip-path-75);}.cls-8{fill:#1a962b;}.cls-9{stroke-width:0.11px;}.cls-10{stroke-width:1.98px;}</style><clipPath id="clip-path"><path class="cls-1" d="M717.29,477.71A123.22,123.22,0,0,1,594,354.55V179.4h246.4v175A123.23,123.23,0,0,1,717.29,477.7h0"/></clipPath><clipPath id="clip-path-2"><path class="cls-1" d="M717.29,477.71A123.22,123.22,0,0,1,594,354.55h246.4A123.2,123.2,0,0,1,717.29,477.71"/></clipPath><clipPath id="clip-path-75"><rect class="cls-1" x="594.05" y="179.4" width="246.4" height="164.72"/></clipPath></defs><title>Zeichenfläche 1</title><rect class="cls-2" width="1437.76" height="898"/><g id="svg2278"><rect id="rect2610" class="cls-3" x="594.05" y="179.4" width="246.4" height="164.72"/><rect id="rect2612" x="596.04" y="197.85" width="242.28" height="16.25"/><rect id="rect2614" x="596.04" y="230.35" width="242.28" height="16.25"/><rect id="rect2616" x="596.04" y="296.87" width="242.28" height="16.25"/><rect id="rect2618" x="596.04" y="263.13" width="242.28" height="16.25"/><rect id="rect2620" x="596.04" y="329.11" width="242.28" height="16.25"/><g id="g2622"><g class="cls-4"><rect id="rect2630" class="cls-3" x="594.05" y="344.12" width="246.4" height="133.59"/></g></g><path id="path2632" class="cls-5" d="M717.29,477.71A123.22,123.22,0,0,1,594,354.55V179.4h246.4v175A123.23,123.23,0,0,1,717.3,477.71Z"/><rect id="rect2634" x="763.99" y="180.09" width="76.53" height="83.66"/><rect id="rect2636" class="cls-3" x="764.61" y="179.4" width="75.85" height="83.66"/><path id="path2638" d="M810.28,208.75c-4.39.07-3.7-3.5-3.15-6.17s1.37-4.18,1.65-6.38a1.78,1.78,0,0,0-1.15-2.24l-.08,0a17.3,17.3,0,0,0-2.81-.75c-1.51-.41-2.4-1.3-3.84-1.1-.48.07-.69.48-1,.89a10.79,10.79,0,0,0-2.26-.07,3.64,3.64,0,0,0-3,1.1,5.29,5.29,0,0,0-.82,2.4c-.07.82-.27,1.3-.41,2.13a6.2,6.2,0,0,1,2.74-1.23,3.39,3.39,0,0,1,1.65.34A10.58,10.58,0,0,1,794,199a9.66,9.66,0,0,1-2.81,0c-.41-.07-.89,0-1,.41-.34.89,2.61,2,4.46,1.85a5,5,0,0,0,1.92-.48,4.3,4.3,0,0,1-.75,1,2.86,2.86,0,0,1-.41.55c.89-.21,1.85.14,3.63-1.37a7.49,7.49,0,0,0,1.65-1.65,12.42,12.42,0,0,1-.82,3.84A12.9,12.9,0,0,1,798,207a6.16,6.16,0,0,1-4.46,1.71,6.06,6.06,0,0,1-5.42-5.9c.07-2.9,2-6.51,2.74-8.37.34-1,.75-2.88,0-3.36-1.58-1-4.94-1-7.13-1-4.25,0-5.49.14-9.6.21-2.4.07-3.77.07-6.17.14.14,3.5,2,5.55,5.21,6.17a71.43,71.43,0,0,0,7.83.4c.41,0,3-.07,3,.41,0,.27-.89.34-1.17.34-2.47.14-4.11.21-7,.21h-7.61a5.92,5.92,0,0,0,1.3,3.84c1.58,1.85,4.66,2.19,6.51,2.19s3.36-.07,4.8,0c1,.07,2.54.21,2.47.48s-1.1.34-2,.34c-4.39.07-9.74-.07-13.72-.07a6,6,0,0,0,1.51,4.32c1.37,1.51,4,2,6,2.13,2.81.07,4.94-.14,8,0,.21,0,.62-.07.62.07s-.34.21-.62.21c-2.88.41-4.94.75-8.09,1.1-2.88.34-4.46.55-7.34.82a6.36,6.36,0,0,0,3.36,4.53,11.14,11.14,0,0,0,5.49.89c3.29-.14,6-.75,9.6-1.17.34-.07.89-.21.89-.07s-.34.21-.62.27c-2.74.82-5.49,1.71-9,2.67-3.91,1.1-6.1,1.65-10.08,2.61,3.29,3.43,4.8,4.39,6.51,4.53,2.19.14,5.21-1.3,8.3-2.74,2-1,3.77-1.78,5.62-2.67.21-.07.48-.21.48-.14s-.27.27-.48.41c-3,1.78-5.55,3.09-9,5.21-2.26,1.44-3.5,2.19-5.76,3.7,2.19.82,4.11,1.78,6.65,1.78a6,6,0,0,0,4-1.23c1.23-1,2.33-2.13,3.84-3.5s2.06-2.06,3.63-3.5c.21-.14.55-.55.62-.48s-.27.41-.48.62c-2.26,2.88-3.77,4.59-6.51,7.89a14.62,14.62,0,0,0,6.79-1,12.92,12.92,0,0,0,5.9-4.8c.21-.27.21.34.14.62-.27.89-2.26,2.67-3.57,3.7a62.72,62.72,0,0,1-6.17,3.91,3,3,0,0,1,1,.34,1.94,1.94,0,0,1,.75.55,31.83,31.83,0,0,1-2.88,2.54,6.18,6.18,0,0,1-3.22,1,13.24,13.24,0,0,1-2.33,0,6,6,0,0,0-1.17-.14c-.21,0-.27.21-.41.41a1.63,1.63,0,0,0-.82.21,2,2,0,0,0-1.37,1.71,1.82,1.82,0,0,0,.82,1.78,1.4,1.4,0,0,1,.62-1.1,2,2,0,0,1,.69-.27c0,.21.34.27.62.27a5.41,5.41,0,0,0,.89-.21c.34-.07.55-.07,1-.14-.89.55-1.58,1-2.26,1.44-.27.21-.48.27-.55.62s0,.34.14.62a2.66,2.66,0,0,0-.27,2.06,2.87,2.87,0,0,0,2.19,1.65,3,3,0,0,1-.21-1.3,2.44,2.44,0,0,1,.14-.69.66.66,0,0,0,.69-.21c.34-.41.55-.62.89-1s.62-.75,1-1.17c-.21.75-.34,1.17-.55,1.92a6.82,6.82,0,0,0-.48,1.65c0,.21.14.34.34.48a2.4,2.4,0,0,0,1.23,2.4,5.07,5.07,0,0,0,3,.34,2.45,2.45,0,0,1-1.44-1.3,2.3,2.3,0,0,1-.34-1c.27-.07.48-.14.55-.62.14-1,.21-1.44.34-2.33.07-.55.27-1.51.41-1.44a16.25,16.25,0,0,1,1,1.44c.21.34.41.48.75.41a.87.87,0,0,0,.41-.27,1.11,1.11,0,0,1,.34.62,1.66,1.66,0,0,1-.21,1.1,1.9,1.9,0,0,0,2.19-1.17,2.74,2.74,0,0,0-.69-2.61.85.85,0,0,0-.27-1,12.8,12.8,0,0,0-1.51-1.17.71.71,0,0,1,0-1,6.47,6.47,0,0,1,1.23-1.44,6,6,0,0,1,1.51-1.17,9.75,9.75,0,0,1,.82.89,6.79,6.79,0,0,1,.75,1.17,10.88,10.88,0,0,1,1.23-1.85,24,24,0,0,1,1.65-2.06c.69-.69,1.58-1.44,1.71-1.65s.55.62.75,1.17a2.33,2.33,0,0,1,0,1.37,38.5,38.5,0,0,1-3.5,8.09,57,57,0,0,1-7.13,9.19,9.89,9.89,0,0,0,4,.48,24.53,24.53,0,0,0,4.8-.69,22.91,22.91,0,0,0,2.19,2.26A24.3,24.3,0,0,0,802,259a26,26,0,0,0,3.09-2.33,17.64,17.64,0,0,0,2.26-2.26,42.54,42.54,0,0,0,4.8.69,9.54,9.54,0,0,0,3.91-.48,63.65,63.65,0,0,1-7.13-9.19,38.5,38.5,0,0,1-3.5-8.09,1.89,1.89,0,0,1,0-1.37c.21-.55.55-1.51.75-1.17a19.26,19.26,0,0,0,1.78,1.65,24,24,0,0,1,1.65,2.06c.48.69.75,1.1,1.23,1.85a6.8,6.8,0,0,1,.75-1.17,9.75,9.75,0,0,1,.82-.89,12.61,12.61,0,0,1,1.51,1.17,8.51,8.51,0,0,1,1.23,1.44.74.74,0,0,1,0,1,11.18,11.18,0,0,0-1.51,1.17,1,1,0,0,0-.27,1,2.64,2.64,0,0,0-.69,2.61,1.9,1.9,0,0,0,2.19,1.17,1.66,1.66,0,0,1-.21-1.1,1.11,1.11,0,0,1,.34-.62.46.46,0,0,0,.41.27c.34.07.55-.14.75-.41a16.25,16.25,0,0,1,1-1.44c.14,0,.34.89.41,1.44.14,1,.21,1.44.34,2.33a.66.66,0,0,0,.55.62,2.3,2.3,0,0,1-.34,1,2.45,2.45,0,0,1-1.44,1.3,6.43,6.43,0,0,0,3-.34,2.24,2.24,0,0,0,1.23-2.4c.27-.07.41-.21.34-.48a9.4,9.4,0,0,0-.48-1.65c-.21-.75-.34-1.17-.55-1.92.41.48.62.69,1,1.17a10.81,10.81,0,0,1,.82,1,.56.56,0,0,0,.69.21,2.44,2.44,0,0,1,.14.69,2.89,2.89,0,0,1-.21,1.3,2.87,2.87,0,0,0,2.13-1.65,2.4,2.4,0,0,0-.27-2.06c.14-.27.21-.48.14-.62-.07-.34-.27-.41-.55-.62-.69-.48-1.44-.89-2.26-1.44.41.07.62.07,1,.14a5.41,5.41,0,0,0,.89.21c.27,0,.55,0,.62-.27a.88.88,0,0,1,.69.27,1.24,1.24,0,0,1,.62,1.1,1.82,1.82,0,0,0,.82-1.78,2.17,2.17,0,0,0-1.37-1.71,1.83,1.83,0,0,0-.82-.21c-.07-.21-.21-.48-.41-.41a6.76,6.76,0,0,1-1.17.14,9.58,9.58,0,0,1-5.62-1,33.17,33.17,0,0,1-2.88-2.54,2,2,0,0,1,.75-.55,2.61,2.61,0,0,1,1-.34,62.72,62.72,0,0,1-6.17-3.91c-1.3-1-3.29-2.81-3.57-3.7-.07-.27-.07-.89.14-.62,1.71,2.19,3,3.63,5.9,4.8a14.62,14.62,0,0,0,6.79,1c-2.74-3.29-4.25-5-6.51-7.89-.21-.21-.55-.55-.48-.62s.41.27.62.48c1.65,1.44,2.26,2.19,3.7,3.5s2.61,2.54,3.84,3.5a5.76,5.76,0,0,0,4,1.23c2.54-.07,4.46-1,6.65-1.78-2.19-1.51-3.5-2.26-5.76-3.7-3.43-2.13-6-3.43-9-5.21-.21-.14-.55-.27-.48-.41s.27.07.48.14c1.85.82,3.63,1.71,5.69,2.67,3.09,1.44,6,2.95,8.3,2.74,1.71-.14,3.22-1.1,6.51-4.53-4-1-6.17-1.51-10.08-2.61-3.5-1-6.24-1.85-9-2.67-.21-.07-.62-.14-.62-.27s.55,0,.89.07c3.57.41,6.31,1,9.6,1.17a9.89,9.89,0,0,0,5.49-.89,6.23,6.23,0,0,0,3.36-4.53c-2.88-.27-4.46-.48-7.34-.82-3.15-.41-5.21-.75-8.09-1.1-.21,0-.62-.07-.62-.21s.34-.07.62-.07c3-.14,5.14.07,8,0,1.92-.07,4.53-.55,6-2.13a6.53,6.53,0,0,0,1.51-4.32c-4,.07-9.33.21-13.72.07-.89,0-1.92.07-2-.34s1.51-.48,2.47-.48c1.51-.07,2.88,0,4.87,0,1.78-.07,4.94-.34,6.45-2.19a6.12,6.12,0,0,0,1.37-3.84H828.1c-3,0-4.53-.07-7-.21-.34,0-1.23-.07-1.23-.34,0-.48,2.61-.34,3-.41a58.71,58.71,0,0,0,7.89-.48c3.15-.62,5-2.67,5.14-6.17-2.4-.07-3.84-.07-6.17-.14-4.11-.07-5.28-.21-9.53-.21-2.19,0-5.55,0-7.13,1-.82.48-.41,2.4,0,3.36.75,1.92,2.67,5.35,2.74,8.37a6.2,6.2,0,0,1-5.55,6"/><path id="path2640" d="M801.84,258.54a19.17,19.17,0,0,1-2.4-1.71,14.45,14.45,0,0,1-2.67-2.74,19.4,19.4,0,0,1-4.46.62,21.49,21.49,0,0,1-3.63-.14c2.33-2.81,4.11-4.53,6.1-8a35.55,35.55,0,0,0,4-9.19,2.28,2.28,0,0,0-.07-1.51c-.34-.62-.55-1.92-1.3-1.37a15.62,15.62,0,0,0-2.47,2.33,19.77,19.77,0,0,0-2.06,2.67,9.53,9.53,0,0,0-1.85-2.19,11.63,11.63,0,0,0-2.26-1.85c1.78-1.17,3.15-1.85,5.07-3.29a14.92,14.92,0,0,0,3.77-3.7,2.29,2.29,0,0,0,.07-1.65c-.07-.27-.41-.48-.89.14a14.6,14.6,0,0,1-3.57,3.57,14,14,0,0,1-7.82,2.13c1.51-1.71,2.33-2.67,3.77-4.46,1.1-1.3,1.71-2,2.74-3.43a1.35,1.35,0,0,0,.34-.89c0-.48-.62-.27-1,0-2,1.71-3.22,3.09-5.07,4.8-2.26,2.06-4,4-6.72,4a15.18,15.18,0,0,1-5.76-1.51c3.09-2,4.8-3.09,7.89-4.94,2.74-1.65,4.87-2.81,7.13-4.25a.47.47,0,0,0,.21-.69,1.56,1.56,0,0,0-1.1.07c-1.71.69-3.5,1.51-5.69,2.54-3,1.44-6,2.95-8.5,3.09-2.06.14-4.46-2.4-5.83-3.84,4-1,6.31-1.51,10.29-2.61,3.22-.89,4.8-1.44,8.23-2.47.69-.21.82-.48.82-.69-.07-.41-.34-.55-1.1-.48-2.54.34-8.5,1.37-10.36,1.37-3.7-.07-6.79-.82-7.89-4.53,3.09-.27,4.87-.48,8-1,2.88-.34,4.39-.69,7.27-1.1.62-.07.62-.48.62-.69s0-.41-.75-.48c-3.7-.27-6,.21-9.33-.14s-5.69-2.06-5.9-5.35c3,.07,4.66.14,7.68.14,2.74,0,3.5-.07,7.06-.07.48,0,.89-.34.89-.62a.76.76,0,0,0-.62-.82,18.53,18.53,0,0,0-4.11-.41,25.12,25.12,0,0,1-6.38-.48,4.66,4.66,0,0,1-3.91-4.53c2.88,0,4.53-.07,7.41-.07s5.14-.07,7.41-.21c.21,0,1-.14,1-.89s-1.23-.82-1.58-.82c-3,0-3.43-.07-5.76-.14s-4.94-.27-6.31-1.3c-1.85-1.3-2.06-2.26-2.33-4.11,2.54-.07,4.87-.27,7.41-.27,5.69,0,10.84-.62,14.06.48,1,.34.82,1.3.62,2.06-.55,2.13-1.92,4.11-2.74,7.27a7.09,7.09,0,0,0,.14,4.59,6.75,6.75,0,0,0,5.62,4.11,6.62,6.62,0,0,0,5.14-2.47c1.37-1.78,2.4-6.17,2.4-8s-1-3.15-1-4.59c.07-.75.34-1.71,1.17-1.65,1.17.07,2.13.82,3.57,1.17,1.17.27,2.13.55,3,.82s.69,1.23.55,1.92c-.48,2.26-1.23,3.91-1.71,6.45a8.06,8.06,0,0,0-.34,3.29,3.06,3.06,0,0,0,1.51,2.54,4.63,4.63,0,0,0,2.47.55,6.75,6.75,0,0,0,5.62-4.11,7.58,7.58,0,0,0,.14-4.59c-.82-3.09-2.19-5.14-2.74-7.27-.21-.75-.34-1.71.62-2.06,3.22-1.1,8.37-.55,14.06-.48,2.54,0,4.87.21,7.41.27-.27,1.85-.48,2.81-2.33,4.11-1.44,1-3.84,1.17-6.31,1.3s-2.74.14-5.76.14c-.34,0-1.58.14-1.58.82s.75.89,1,.89c2.26.14,4.66.21,7.41.21s4.53.07,7.41.07a4.78,4.78,0,0,1-3.91,4.53,25.12,25.12,0,0,1-6.38.48,18.53,18.53,0,0,0-4.11.41c-.62.07-.62.48-.69.82s.41.62.89.62c3.57,0,4.32.07,7.06.07,3,0,4.73-.07,7.68-.14-.21,3.29-2.74,5.07-5.9,5.35s-5.62-.14-9.33.14c-.75.07-.75.14-.75.48s0,.55.62.69c3,.41,4.46.69,7.27,1.1,3.09.41,4.87.62,8,1-1.1,3.63-4.25,4.46-7.89,4.53-1.78,0-7.82-1-10.29-1.37-.75-.07-1,.07-1.1.48,0,.21.07.48.82.69,3.43,1,5,1.58,8.23,2.47,4,1.1,6.24,1.71,10.29,2.61-1.3,1.44-3.77,3.91-5.83,3.84-2.61-.14-5.49-1.65-8.5-3.09-2.19-1-4-1.92-5.69-2.54-.48-.21-.89-.21-1-.07a.51.51,0,0,0,.14.69c2.26,1.44,4.39,2.54,7.13,4.25,3.09,1.92,4.87,2.95,8,4.94a16.16,16.16,0,0,1-5.76,1.51c-2.74.07-4.46-2-6.72-4-1.92-1.71-3.09-3.09-5.14-4.8-.34-.27-.89-.48-1,0a1.53,1.53,0,0,0,.34.89c1,1.44,1.65,2.06,2.74,3.43,1.44,1.71,2.26,2.74,3.7,4.46a13.8,13.8,0,0,1-7.75-2.13,17.44,17.44,0,0,1-3.57-3.57c-.48-.62-.82-.34-.89-.14a2.29,2.29,0,0,0,.07,1.65,14.92,14.92,0,0,0,3.77,3.7c1.92,1.44,3.29,2.13,5.07,3.29a11.63,11.63,0,0,0-2.26,1.85,13.67,13.67,0,0,0-1.85,2.19,15.43,15.43,0,0,0-2.06-2.67,15.62,15.62,0,0,0-2.47-2.33c-.69-.55-1,.75-1.3,1.37a1.93,1.93,0,0,0-.07,1.51,38.07,38.07,0,0,0,4,9.19c2,3.36,3.77,5.14,6.17,8a16,16,0,0,1-3.63.14,19.4,19.4,0,0,1-4.46-.62,16.87,16.87,0,0,1-2.67,2.74,7.87,7.87,0,0,1-2.19,1.71"/><path id="path2642" class="cls-3" d="M789.16,245.85a5,5,0,0,0,.34-.62,5,5,0,0,1,.55-.62,1.74,1.74,0,0,1,.62,1.44c0,1-.34,1-.89,1.3a1.34,1.34,0,0,0-.07-.89,2.22,2.22,0,0,0-.55-.62"/><path id="path2644" class="cls-3" d="M784.77,249.21a2.33,2.33,0,0,1-.69-.07c-.21-.07-.34-.07-.62-.14a1.44,1.44,0,0,0,.34,1,3.14,3.14,0,0,0,1.65.89,2.46,2.46,0,0,1-.48-.69,3.38,3.38,0,0,1-.21-1"/><path id="path2646" class="cls-3" d="M780.52,246.74a2.17,2.17,0,0,1-.41-.34l-.48-.48a2.19,2.19,0,0,0-.21,1,1.77,1.77,0,0,0,1,1.51,2.81,2.81,0,0,1-.07-.75,1.72,1.72,0,0,1,.21-.89"/><path id="path2648" class="cls-3" d="M779.35,240.92a1.69,1.69,0,0,0-1.1.55A1.49,1.49,0,0,0,778,243a1.37,1.37,0,0,1,.55-.69,1.23,1.23,0,0,1,.75-.21v-.62a2.12,2.12,0,0,0,.07-.62"/><path id="path2650" class="cls-3" d="M789.91,236.94a2.14,2.14,0,0,1,.62.48,5,5,0,0,1,.55.62,8.68,8.68,0,0,0-1.71,1.44A6.33,6.33,0,0,0,788.2,241a1.23,1.23,0,0,0,.07,1.44c.41.48.69.48,1.1.82a6,6,0,0,1,.75.62,5.53,5.53,0,0,0-.82,1,7.12,7.12,0,0,0-.82,1.17c-.62-.82-.89-1.17-1.23-1.65s-.75-.48-1,.34a11.55,11.55,0,0,0-.41,1.65c-.14,1-.21,1.51-.34,2.26a2.6,2.6,0,0,1-1,0,2.71,2.71,0,0,1-1-.41,13.82,13.82,0,0,0,.48-1.58c.21-.75.27-1,.48-1.85.07-.27.07-.62-.14-.75s-.62,0-1,.41a10,10,0,0,1-1.1,1.3,8.7,8.7,0,0,1-.75.89,2.23,2.23,0,0,1-.89-.69,4,4,0,0,1-.75-1,17.18,17.18,0,0,1,1.51-1c.62-.38,1.1-.69,1.65-1.1a.46.46,0,0,0,.21-.55c-.07-.27-.48-.27-.75-.21-.48.07-.82.14-1.37.21-.34.07-.62.07-1,.14a2.81,2.81,0,0,1,.07-.75,5.29,5.29,0,0,1,.14-1,15,15,0,0,0,1.85.27,8.78,8.78,0,0,0,3-.27,6.44,6.44,0,0,0,2.19-1,9.83,9.83,0,0,0,1.58-1.37,9.64,9.64,0,0,1,1.17-1.23"/><path id="path2652" class="cls-3" d="M814.6,245.85a5,5,0,0,1-.34-.62,5,5,0,0,0-.55-.62,1.74,1.74,0,0,0-.62,1.44c0,1,.34,1,.89,1.3a1.34,1.34,0,0,1,.07-.89,1.12,1.12,0,0,1,.55-.62"/><path id="path2654" class="cls-3" d="M818.92,249.21a2.33,2.33,0,0,0,.69-.07c.21-.07.34-.07.62-.14a1.44,1.44,0,0,1-.34,1,3.14,3.14,0,0,1-1.65.89,2.46,2.46,0,0,0,.48-.69,3.38,3.38,0,0,0,.21-1"/><path id="path2656" class="cls-3" d="M823.17,246.74a2.17,2.17,0,0,0,.41-.34l.48-.48a1.51,1.51,0,0,1,.14,1,1.77,1.77,0,0,1-1,1.51,2.81,2.81,0,0,0,.07-.75,1.24,1.24,0,0,0-.14-.89"/><path id="path2658" class="cls-3" d="M824.34,240.92a1.69,1.69,0,0,1,1.1.55,1.49,1.49,0,0,1,.27,1.58,1.37,1.37,0,0,0-.55-.69,1.32,1.32,0,0,0-.69-.21v-.62a2.54,2.54,0,0,1-.14-.62"/><path id="path2660" class="cls-3" d="M813.85,236.94a2.14,2.14,0,0,0-.62.48,5,5,0,0,0-.55.62,9.11,9.11,0,0,1,1.78,1.44,6.33,6.33,0,0,1,1.17,1.51,1.23,1.23,0,0,1-.07,1.44c-.41.48-.69.48-1.1.82a6,6,0,0,0-.75.62,5.53,5.53,0,0,1,.82,1c.34.41.48.69.82,1.17.62-.82.89-1.17,1.23-1.65s.75-.48,1,.34a6.44,6.44,0,0,1,.41,1.65c.14,1,.21,1.51.34,2.26a2.6,2.6,0,0,0,1,0,2.71,2.71,0,0,0,1-.41,13.82,13.82,0,0,1-.48-1.58c-.21-.75-.27-1-.48-1.85-.07-.27-.07-.62.14-.75s.62,0,1,.41.62.82,1,1.3a8.7,8.7,0,0,0,.75.89,2.23,2.23,0,0,0,.89-.69,2.86,2.86,0,0,0,.75-1,17.18,17.18,0,0,0-1.51-1c-.62-.38-1.1-.69-1.65-1.1a.46.46,0,0,1-.21-.55c.07-.27.55-.27.75-.21.48.07.82.14,1.37.21s.62.07,1,.14a2.81,2.81,0,0,0-.07-.75,5.29,5.29,0,0,0-.14-1,17.23,17.23,0,0,1-1.85.27,8.47,8.47,0,0,1-3-.27,7.46,7.46,0,0,1-2.26-1,9.83,9.83,0,0,1-1.58-1.37,8.87,8.87,0,0,0-1.1-1.23"/><path id="path2662" class="cls-3" d="M790.87,199.7a10.61,10.61,0,0,0,3,0,8.31,8.31,0,0,0,4.53-1.85l.27.14a5,5,0,0,1-4,2.67c-1.44.21-3.43-.41-3.7-1"/><path id="path2664" class="cls-3" d="M796.7,201.69c.55-.69.82-1,1.3-1.65.69-.89,1-1.37,1.65-2.19l-.55-.21c-1-.41-1.58-1-2.67-.89a3.5,3.5,0,0,0-2.13.75c.21-.75.14-1.1.34-1.71a2.55,2.55,0,0,1,.62-1.3,2.8,2.8,0,0,1,2.19-.82,12.1,12.1,0,0,1,2.26.07,5.29,5.29,0,0,0-.14,1,5.93,5.93,0,0,0,.62,2.4,5.87,5.87,0,0,1,.34,1.58,9.41,9.41,0,0,1-1.37,1.51,19,19,0,0,1-2.47,1.44"/><path id="path2666" class="cls-3" d="M802.74,194.56a.49.49,0,0,0-.21.41c0,.27.07.55.41.62a.46.46,0,0,0,.55-.21.44.44,0,0,0,0-.41,2.33,2.33,0,0,1,.69.07,1.31,1.31,0,0,1,.82.48c.21.21,0,.55-.27.62s-.62-.21-.89-.14-.27.48-1,.41-1.23-.48-1.17-1.1c.07-.34-.41-.41-.27-.82a.48.48,0,0,1,.62-.27,1,1,0,0,1,.75.34"/><g class="cls-6"><polyline id="polyline2676" points="594.05 423.26 627.52 423.26 627.52 414.14 645.01 414.14 645.01 423.26 659.89 423.26 659.89 414.14 677.38 414.14 677.38 423.26 692.33 423.26 692.33 414.14 709.81 414.14 709.81 423.26 724.76 423.26 724.76 414.14 742.25 414.14 742.25 423.26 757.13 423.26 757.13 414.14 774.69 414.14 774.69 423.26 789.57 423.26 789.57 414.14 807.13 414.14 807.13 423.26 840.45 423.26 840.45 484.16 594.05 484.16 594.05 423.26"/></g><g class="cls-6"><rect id="rect2678" class="cls-3" x="701.72" y="424.57" width="14.88" height="7.75"/></g><g class="cls-6"><rect id="rect2680" class="cls-3" x="685.54" y="424.57" width="14.88" height="7.75"/></g><g class="cls-6"><rect id="rect2682" class="cls-3" x="669.28" y="424.57" width="14.88" height="7.75"/></g><g class="cls-6"><rect id="rect2684" class="cls-3" x="653.1" y="424.57" width="14.88" height="7.75"/></g><g class="cls-6"><rect id="rect2686" class="cls-3" x="636.85" y="424.57" width="14.88" height="7.75"/></g><g class="cls-6"><rect id="rect2688" class="cls-3" x="620.66" y="424.57" width="14.88" height="7.75"/></g><g class="cls-6"><rect id="rect2690" class="cls-3" x="604.48" y="424.57" width="14.88" height="7.75"/></g><path class="cls-1" d="M717.29,477.71A123.22,123.22,0,0,1,594,354.55h246.4A123.2,123.2,0,0,1,717.29,477.71"/><rect id="rect2692" class="cls-3" x="717.91" y="424.57" width="14.88" height="7.75"/><g class="cls-6"><rect id="rect2694" class="cls-3" x="734.16" y="424.57" width="14.88" height="7.75"/></g><path class="cls-1" d="M717.29,477.71A123.22,123.22,0,0,1,594,354.55h246.4A123.2,123.2,0,0,1,717.29,477.71"/><rect id="rect2696" class="cls-3" x="750.34" y="424.57" width="14.88" height="7.75"/><g class="cls-6"><rect id="rect2698" class="cls-3" x="766.6" y="424.57" width="14.88" height="7.75"/></g><g class="cls-6"><rect id="rect2700" class="cls-3" x="782.78" y="424.57" width="14.88" height="7.75"/></g><g class="cls-6"><rect id="rect2702" class="cls-3" x="798.96" y="424.57" width="14.88" height="7.75"/></g><g class="cls-6"><rect id="rect2704" class="cls-3" x="815.22" y="424.57" width="14.88" height="7.75"/></g><g class="cls-6"><rect id="rect2706" class="cls-3" x="693.63" y="433.62" width="14.88" height="7.82"/></g><g class="cls-6"><rect id="rect2708" class="cls-3" x="677.38" y="433.62" width="14.88" height="7.82"/></g><g class="cls-6"><rect id="rect2710" class="cls-3" x="661.19" y="433.62" width="14.88" height="7.82"/></g><g class="cls-6"><rect id="rect2712" class="cls-3" x="645.01" y="433.62" width="14.88" height="7.82"/></g><g class="cls-6"><rect id="rect2714" class="cls-3" x="628.75" y="433.62" width="14.88" height="7.82"/></g><g class="cls-6"><rect id="rect2716" class="cls-3" x="612.57" y="433.62" width="14.88" height="7.82"/></g><g class="cls-6"><rect id="rect2718" class="cls-3" x="726.07" y="433.62" width="14.88" height="7.82"/></g><g class="cls-6"><rect id="rect2720" class="cls-3" x="742.25" y="433.62" width="14.88" height="7.82"/></g><g class="cls-6"><rect id="rect2722" class="cls-3" x="758.44" y="433.62" width="14.88" height="7.82"/></g><g class="cls-6"><rect id="rect2724" class="cls-3" x="774.69" y="433.62" width="14.88" height="7.82"/></g><g class="cls-6"><rect id="rect2726" class="cls-3" x="790.87" y="433.62" width="14.88" height="7.82"/></g><g class="cls-6"><rect id="rect2728" class="cls-3" x="807.13" y="433.62" width="14.88" height="7.82"/></g><g class="cls-6"><rect id="rect2730" class="cls-3" x="685.54" y="442.67" width="14.88" height="7.82"/></g><g class="cls-6"><rect id="rect2732" class="cls-3" x="669.28" y="442.67" width="14.88" height="7.82"/></g><g class="cls-6"><rect id="rect2734" class="cls-3" x="653.1" y="442.67" width="14.88" height="7.82"/></g><g class="cls-6"><rect id="rect2736" class="cls-3" x="636.85" y="442.67" width="14.88" height="7.82"/></g><g class="cls-6"><rect id="rect2738" class="cls-3" x="620.66" y="442.67" width="14.88" height="7.82"/></g><g class="cls-6"><rect id="rect2740" class="cls-3" x="734.16" y="442.67" width="14.88" height="7.82"/></g><g class="cls-6"><rect id="rect2742" class="cls-3" x="750.34" y="442.67" width="14.88" height="7.82"/></g><g class="cls-6"><rect id="rect2744" class="cls-3" x="766.6" y="442.67" width="14.88" height="7.82"/></g><g class="cls-6"><rect id="rect2746" class="cls-3" x="782.78" y="442.67" width="14.88" height="7.82"/></g><g class="cls-6"><rect id="rect2748" class="cls-3" x="798.96" y="442.67" width="14.88" height="7.82"/></g><g class="cls-6"><rect id="rect2750" class="cls-3" x="693.63" y="451.79" width="14.88" height="7.82"/></g><g class="cls-6"><rect id="rect2752" class="cls-3" x="677.38" y="451.79" width="14.88" height="7.82"/></g><g class="cls-6"><rect id="rect2754" class="cls-3" x="661.19" y="451.79" width="14.88" height="7.82"/></g><g class="cls-6"><rect id="rect2756" class="cls-3" x="645.01" y="451.79" width="14.88" height="7.82"/></g><g class="cls-6"><rect id="rect2758" class="cls-3" x="628.75" y="451.79" width="14.88" height="7.82"/></g><g class="cls-6"><rect id="rect2760" class="cls-3" x="726.07" y="451.79" width="14.88" height="7.82"/></g><g class="cls-6"><rect id="rect2762" class="cls-3" x="742.25" y="451.79" width="14.88" height="7.82"/></g><g class="cls-6"><rect id="rect2764" class="cls-3" x="758.44" y="451.79" width="14.88" height="7.82"/></g><g class="cls-6"><rect id="rect2766" class="cls-3" x="774.69" y="451.79" width="14.88" height="7.82"/></g><g class="cls-6"><rect id="rect2768" class="cls-3" x="790.87" y="451.79" width="14.88" height="7.82"/></g><g class="cls-6"><rect id="rect2770" class="cls-3" x="685.54" y="460.84" width="14.88" height="7.75"/></g><g class="cls-6"><rect id="rect2772" class="cls-3" x="669.28" y="460.84" width="14.88" height="7.75"/></g><g class="cls-6"><rect id="rect2774" class="cls-3" x="653.1" y="460.84" width="14.88" height="7.75"/></g><g class="cls-6"><rect id="rect2776" class="cls-3" x="734.16" y="460.84" width="14.88" height="7.75"/></g><g class="cls-6"><rect id="rect2778" class="cls-3" x="750.34" y="460.84" width="14.88" height="7.75"/></g><g class="cls-6"><rect id="rect2780" class="cls-3" x="766.6" y="460.84" width="14.88" height="7.75"/></g><g class="cls-6"><rect id="rect2782" class="cls-3" x="693.63" y="469.9" width="14.88" height="7.82"/></g><g class="cls-6"><rect id="rect2784" class="cls-3" x="677.38" y="469.9" width="14.88" height="7.82"/></g><g class="cls-6"><rect id="rect2786" class="cls-3" x="726.07" y="469.9" width="14.88" height="7.82"/></g><g class="cls-6"><rect id="rect2788" class="cls-3" x="742.25" y="469.9" width="14.88" height="7.82"/></g><g class="cls-6"><rect id="rect2790" class="cls-3" x="693.63" y="415.44" width="14.88" height="7.82"/></g><g class="cls-6"><rect id="rect2792" class="cls-3" x="661.19" y="415.44" width="14.88" height="7.82"/></g><g class="cls-6"><rect id="rect2794" class="cls-3" x="628.75" y="415.44" width="14.88" height="7.82"/></g><g class="cls-6"><rect id="rect2796" class="cls-3" x="726.07" y="415.44" width="14.88" height="7.82"/></g><path class="cls-1" d="M717.29,477.71A123.22,123.22,0,0,1,594,354.55h246.4A123.2,123.2,0,0,1,717.29,477.71"/><rect id="rect2798" class="cls-3" x="758.44" y="415.44" width="14.88" height="7.82"/><path class="cls-1" d="M717.29,477.71A123.22,123.22,0,0,1,594,354.55h246.4A123.2,123.2,0,0,1,717.29,477.71"/><rect id="rect2800" class="cls-3" x="790.87" y="415.44" width="14.88" height="7.82"/><g class="cls-6"><rect id="rect2802" class="cls-3" x="709.81" y="433.62" width="14.88" height="7.82"/></g><g class="cls-6"><path id="path2804" d="M717.29,432.32a17.47,17.47,0,0,1,17.49,17.45v34.4h-35V449.8a17.58,17.58,0,0,1,17.56-17.49"/></g><g class="cls-6"><rect id="rect2806" class="cls-3" x="701.1" y="451.79" width="5.21" height="7.75"/></g><g class="cls-6"><rect id="rect2808" class="cls-3" x="701.1" y="460.84" width="5.21" height="7.75"/></g><g class="cls-6"><rect id="rect2810" class="cls-3" x="701.1" y="469.9" width="5.21" height="7.82"/></g><g class="cls-6"><path id="path2812" class="cls-3" d="M703.3,441.64a16.35,16.35,0,0,1,6.31-6.1l2.4,5.28a11,11,0,0,0-3.91,3.63l-4.8-2.81"/></g><g class="cls-6"><path id="path2814" class="cls-3" d="M707.41,445.55l-4.8-2.74a16.09,16.09,0,0,0-1.58,7v.62h5.21a10.62,10.62,0,0,1,1.17-4.87"/></g><g class="cls-6"><rect id="rect2816" class="cls-3" x="728.33" y="451.79" width="5.21" height="7.75"/></g><g class="cls-6"><rect id="rect2818" class="cls-3" x="728.33" y="460.84" width="5.21" height="7.75"/></g><g class="cls-6"><rect id="rect2820" class="cls-3" x="728.33" y="469.9" width="5.21" height="7.82"/></g><g class="cls-6"><path id="path2822" class="cls-3" d="M731.28,441.64a16.35,16.35,0,0,0-6.31-6.1l-2.4,5.28a11,11,0,0,1,3.91,3.63l4.8-2.81"/></g><g class="cls-6"><path id="path2824" class="cls-3" d="M727.1,445.55l4.8-2.74a16.09,16.09,0,0,1,1.58,7v.62h-5.14a9.88,9.88,0,0,0-1.23-4.87"/></g><g class="cls-6"><path id="path2826" class="cls-3" d="M717.29,440.75a9.78,9.78,0,0,1,9.74,9.74v33.74H707.62V450.49a9.63,9.63,0,0,1,9.52-9.74h.15"/></g><g class="cls-6"><path id="path2828" class="cls-3" d="M717.29,433.62a15.84,15.84,0,0,0-6.51,1.37l2.4,5.28a11.58,11.58,0,0,1,4.11-.82,10.5,10.5,0,0,1,4.11.82l2.4-5.28a15.84,15.84,0,0,0-6.51-1.37"/></g><g class="cls-7"><path id="path2838" d="M893.88,341.52a6.49,6.49,0,0,0-8.92,9.12c-.41.69-.82,1.37-1.17,1.92a6.64,6.64,0,1,0-2.95,3.32c-5.14,4.8-11,4.18-15,1.51s-6.17-6.38-5.76-11.45a6.47,6.47,0,1,0-3.36-9.81,6.38,6.38,0,0,0,.41,7.75,12,12,0,0,1-12.82-1c-4-2.67-6.72-8.09-4.18-14.61a6.64,6.64,0,0,0,2.74,6.38,6.45,6.45,0,1,0-.89-10,18.1,18.1,0,0,1,1.44-2,6.42,6.42,0,1,0-3.77-2.53,13,13,0,0,1-1.17,1.92,6.57,6.57,0,0,0-2.47-7.68,6.48,6.48,0,1,0-.41,11c-5.14,4.8-11,4.18-15,1.51s-6.17-6.38-5.76-11.52a6.49,6.49,0,1,0-2.88-2,12,12,0,0,1-12.82-1c-4-2.67-6.72-8.09-4.18-14.61a6.37,6.37,0,1,0,1.85-3.7c.41-.62.89-1.3,1.44-2a6.4,6.4,0,1,0-3.84-2.54c-.41.69-.82,1.3-1.23,1.92a6.47,6.47,0,1,0-2.88,3.36c-5.14,4.8-11,4.18-15,1.51s-6.17-6.38-5.76-11.52a6.49,6.49,0,1,0-2.88-2,12,12,0,0,1-12.82-1c-4-2.67-6.65-8.09-4.18-14.61a6.47,6.47,0,1,0,1.92-3.7c.41-.62.89-1.3,1.44-2a6.47,6.47,0,1,0-3.93-9.95,6.39,6.39,0,0,0,.07,7.34c-.41.69-.82,1.3-1.23,1.92a6.57,6.57,0,1,0-3,3.36c-5.14,4.73-11,4.18-15,1.51s-6.17-6.38-5.76-11.52a6.45,6.45,0,1,0-3-2c-4.59,2.33-8.92,1.65-12.82-1s-6.72-8.09-4.18-14.68a6.47,6.47,0,1,0,1.92-3.7,12.76,12.76,0,0,1,1.44-1.92,6.52,6.52,0,1,0-3.77-2.61,20.69,20.69,0,0,1-1.17,1.92,6.47,6.47,0,1,0-2.88,3.36c-5.14,4.8-11,4.18-15,1.51s-6.17-6.38-5.76-11.52a6.62,6.62,0,1,0-2.88-2.06,12,12,0,0,1-12.82-1c-4-2.67-6.72-8.09-4.18-14.61a6.64,6.64,0,0,0,2.74,6.38,6.45,6.45,0,1,0-.89-10,18.1,18.1,0,0,1,1.44-2,6.41,6.41,0,1,0-3.84-2.54,13,13,0,0,1-1.17,1.92,6.57,6.57,0,0,0-2.47-7.68,6.48,6.48,0,1,0-.41,11c-5.14,4.73-11,4.18-15,1.51s-6.2-6.35-5.82-11.4a6.62,6.62,0,1,0-2.88-2.06c-4.59,2.33-8.92,1.65-12.82-1a11.89,11.89,0,0,1-4.18-14.61,6.46,6.46,0,1,0,10-4.29l-.08-.05a6.51,6.51,0,0,0-8.09.69c.41-.62.89-1.3,1.44-2a6.4,6.4,0,1,0-3.84-2.54c-.41.69-.82,1.3-1.23,1.92a6.53,6.53,0,1,0-3,3.43c-5.14,4.8-11,4.18-15,1.51s-6.17-6.38-5.76-11.52a6.47,6.47,0,1,0-3.36-9.74,6.37,6.37,0,0,0,.41,7.75,12,12,0,0,1-12.82-1c-4-2.67-6.72-8.09-4.18-14.61a6.47,6.47,0,1,0,1.92-3.7c.41-.62.89-1.3,1.44-2a6.41,6.41,0,0,0,6.86-2.67c2-2.54,1.23-6.58-1.78-8.57l-36.07,53.49L857.87,395l36-53.49"/></g><g class="cls-7"><path id="path2840" class="cls-3" d="M881.67,360.24l-23.25,34.49L541.8,181.12l23.2-34.5c-1.17,6.17,1.1,12.41,6.1,15.77a15.63,15.63,0,0,0,14.61,2.19c.55,5.07,2.4,9.26,7,12.34a15,15,0,0,0,17.56.21c-1.17,6.17,1.1,12.41,6.1,15.77A15.8,15.8,0,0,0,631,195.11c.55,5.07,2.4,9.26,7,12.34a15,15,0,0,0,17.56.21c-1.17,6.17,1.1,12.41,6.1,15.77,4.73,3.15,9.53,3.91,14.61,2.19.55,5.07,2.4,9.26,6.93,12.34a15,15,0,0,0,17.56.21,15.4,15.4,0,0,0,6.1,15.77c4.73,3.15,9.53,3.91,14.61,2.19.62,5.07,2.4,9.26,7,12.34a15,15,0,0,0,17.56.21,15.4,15.4,0,0,0,6.1,15.77,15.61,15.61,0,0,0,14.61,2.19c.55,5.07,2.4,9.26,7,12.34a15,15,0,0,0,17.56.21c-1.17,6.17,1.1,12.41,6.1,15.77a15.8,15.8,0,0,0,14.6,2.21c.55,5.07,2.4,9.26,6.93,12.34a15,15,0,0,0,17.56.21c-1.17,6.17,1.1,12.41,6.1,15.77,4.73,3.15,9.53,3.91,14.61,2.19.62,5.07,2.4,9.26,7,12.34,5.69,3.91,11.73,3.91,17.49.21"/></g><rect class="cls-1" x="594.05" y="179.4" width="246.4" height="164.72"/><path id="path2842" class="cls-3" d="M715.71,241a5.83,5.83,0,1,0-7.91,1.54,5.83,5.83,0,0,0,7.91-1.54"/><rect class="cls-1" x="594.05" y="179.4" width="246.4" height="164.72"/><path id="path2844" class="cls-3" d="M731.28,251.48a5.78,5.78,0,1,0-8,1.56l0,0a5.76,5.76,0,0,0,8-1.57h0"/><rect class="cls-1" x="594.05" y="179.4" width="246.4" height="164.72"/><path id="path2846" class="cls-3" d="M737.18,255.45a5.77,5.77,0,0,1,8-1.58,5.84,5.84,0,0,1,1.58,8.09,5.77,5.77,0,0,1-8,1.58,5.84,5.84,0,0,1-1.58-8.09"/><rect class="cls-1" x="594.05" y="179.4" width="246.4" height="164.72"/><path id="path2848" class="cls-3" d="M760.9,271.5a5.78,5.78,0,0,0-9.6-6.45h0a5.78,5.78,0,0,0,9.6,6.45"/><rect class="cls-1" x="594.05" y="179.4" width="246.4" height="164.72"/><path id="path2850" class="cls-3" d="M776.47,282a5.78,5.78,0,1,0-8,1.56l0,0a5.76,5.76,0,0,0,8-1.57h0"/><rect class="cls-1" x="594.05" y="179.4" width="246.4" height="164.72"/><path id="path2852" class="cls-3" d="M782.44,286a5.78,5.78,0,1,1,1.6,8l0,0a5.77,5.77,0,0,1-1.58-8"/><rect class="cls-1" x="594.05" y="179.4" width="246.4" height="164.72"/><path id="path2854" class="cls-3" d="M806.16,302a5.78,5.78,0,1,0-8,1.56l0,0a5.76,5.76,0,0,0,8-1.57h0"/><rect class="cls-1" x="594.05" y="179.4" width="246.4" height="164.72"/><path id="path2856" class="cls-3" d="M821.73,312.51a5.85,5.85,0,0,0-1.58-8.09,5.78,5.78,0,1,0-6.45,9.6,5.69,5.69,0,0,0,7.92-1.4l.08-.11"/><rect class="cls-1" x="594.05" y="179.4" width="246.4" height="164.72"/><path id="path2858" class="cls-3" d="M827.63,316.56a5.84,5.84,0,0,1,8.09-1.58,5.78,5.78,0,1,1-8.09,1.58"/><rect class="cls-1" x="594.05" y="179.4" width="246.4" height="164.72"/><path id="path2860" class="cls-3" d="M670.45,210.47a5.78,5.78,0,1,0-8,1.56l0,0a5.76,5.76,0,0,0,8-1.57h0"/><rect class="cls-1" x="594.05" y="179.4" width="246.4" height="164.72"/><path id="path2862" class="cls-3" d="M686,221a5.76,5.76,0,0,0-1.57-8h0a5.83,5.83,0,0,0-6.51,9.67A5.92,5.92,0,0,0,686,221"/><rect class="cls-1" x="594.05" y="179.4" width="246.4" height="164.72"/><path id="path2864" class="cls-3" d="M691.91,225a5.84,5.84,0,0,1,8.09-1.58,5.77,5.77,0,0,1,1.58,8,5.84,5.84,0,0,1-8.09,1.58,5.77,5.77,0,0,1-1.58-8"/><g class="cls-7"><path id="path2866" class="cls-3" d="M625.19,179.95a5.78,5.78,0,1,0-8,1.56l0,0a5.76,5.76,0,0,0,8-1.57h0"/></g><rect class="cls-1" x="594.05" y="179.4" width="246.4" height="164.72"/><path id="path2868" class="cls-3" d="M640.76,190.44a5.78,5.78,0,1,0-8,1.56l0,0a5.76,5.76,0,0,0,8-1.57h0"/><rect class="cls-1" x="594.05" y="179.4" width="246.4" height="164.72"/><path id="path2870" class="cls-3" d="M646.65,194.49a5.78,5.78,0,1,1,1.6,8l0,0a5.83,5.83,0,0,1-1.58-8"/><rect class="cls-1" x="594.05" y="179.4" width="246.4" height="164.72"/><path id="path2872" class="cls-3" d="M667.3,189.48a5.78,5.78,0,1,1-8,1.6l0,0a5.77,5.77,0,0,1,8-1.58"/><rect class="cls-1" x="594.05" y="179.4" width="246.4" height="164.72"/><path id="path2874" class="cls-3" d="M712.56,220a5.77,5.77,0,0,1,1.58,8,5.83,5.83,0,1,1-9.81-6.3l.14-.21a5.9,5.9,0,0,1,8.09-1.51"/><rect class="cls-1" x="594.05" y="179.4" width="246.4" height="164.72"/><path id="path2876" class="cls-3" d="M757.82,250.52a5.85,5.85,0,0,0-8.09,1.58,5.78,5.78,0,0,0,9.6,6.45,5.69,5.69,0,0,0-1.4-7.92l-.11-.08"/><rect class="cls-1" x="594.05" y="179.4" width="246.4" height="164.72"/><path id="path2878" class="cls-3" d="M803,281a5.78,5.78,0,1,0,1.56,8l0,0a5.76,5.76,0,0,0-1.57-8h0"/><g class="cls-7"><path id="path2880" class="cls-8" d="M848.27,311.55a5.78,5.78,0,1,0,1.56,8l0,0a5.76,5.76,0,0,0-1.57-8h0"/></g><g class="cls-7"><path id="path2882" class="cls-3" d="M886.67,352.29a6.41,6.41,0,0,1-1.23-1.1c-5.69,10.15-14.33,10.56-19.82,6.79-4.11-2.74-6.58-6.79-6-12.28a4.37,4.37,0,0,1-1-.55,4.72,4.72,0,0,1-.89-.75c-4.87,2.54-9.53,1.78-13.65-1-5.55-3.7-8.37-11.93-1.1-21a5.18,5.18,0,0,1-1.51-.75,4.73,4.73,0,0,1-1.23-1.1c-5.69,10.15-14.26,10.56-19.82,6.79-4.11-2.81-6.58-6.79-6-12.28a4.37,4.37,0,0,1-1-.55,4.72,4.72,0,0,1-.89-.75c-4.87,2.54-9.53,1.78-13.65-1-5.55-3.77-8.37-11.93-1.1-21a7.75,7.75,0,0,1-1.51-.75,6.41,6.41,0,0,1-1.23-1.1c-5.62,10.15-14.26,10.56-19.82,6.86-4.11-2.81-6.51-6.79-6-12.28a4.37,4.37,0,0,1-1-.55,4.72,4.72,0,0,1-.89-.75c-4.87,2.54-9.53,1.78-13.65-1-5.55-3.77-8.37-11.93-1.1-20.92a7.75,7.75,0,0,1-1.51-.75,6.41,6.41,0,0,1-1.23-1.1c-5.69,10.15-14.33,10.56-19.82,6.86-4.11-2.81-6.58-6.79-6-12.28a4.37,4.37,0,0,1-1-.55,10.08,10.08,0,0,1-.89-.69,12.72,12.72,0,0,1-13.65-1c-5.55-3.77-8.37-11.93-1.1-21a7.75,7.75,0,0,1-1.51-.75,6.41,6.41,0,0,1-1.23-1.1c-5.64,10.09-14.3,10.5-19.79,6.79-4.11-2.81-6.58-6.79-6-12.28a4.37,4.37,0,0,1-1-.55,10.08,10.08,0,0,1-.89-.69c-4.87,2.54-9.53,1.78-13.65-1-5.55-3.77-8.37-11.93-1.1-21a5.18,5.18,0,0,1-1.51-.75,6.41,6.41,0,0,1-1.23-1.1c-5.62,10.15-14.26,10.56-19.82,6.86a12.69,12.69,0,0,1-6-12.28,4.37,4.37,0,0,1-1-.55,4.72,4.72,0,0,1-.89-.75c-4.87,2.54-9.53,1.78-13.65-1-5.55-3.7-8.37-11.93-1.1-21a5.18,5.18,0,0,1-1.51-.75,6.41,6.41,0,0,1-1.23-1.1c-6,10.42-14.68,10.9-20.16,7.13-4.11-2.81-6.58-6.79-6-12.28a4.37,4.37,0,0,1-1-.55,4.72,4.72,0,0,1-.89-.75c-4.87,2.54-9.53,1.78-13.65-1-5.55-3.77-8.37-11.93-1.1-20.92a7.75,7.75,0,0,1-1.51-.75L566.39,144a15.09,15.09,0,0,0,19.68,19.68,15.63,15.63,0,0,0,7,12.89,14.84,14.84,0,0,0,18.58-2.06,15,15,0,0,0,19.61,19.61c.27,5.35,2.33,9.74,7,12.89a14.83,14.83,0,0,0,18.58-2,15,15,0,0,0,19.61,19.61c.27,5.35,2.33,9.74,7,12.89a14.83,14.83,0,0,0,18.58-2,15,15,0,0,0,19.61,19.61c.27,5.35,2.33,9.74,7,12.89a14.83,14.83,0,0,0,18.58-2,15,15,0,0,0,19.61,19.68c.27,5.35,2.33,9.67,7,12.82a14.83,14.83,0,0,0,18.58-2A15,15,0,0,0,812,316.11c.27,5.35,2.33,9.74,7,12.89a14.85,14.85,0,0,0,18.62-2,15,15,0,0,0,5.14,18,14.62,14.62,0,0,0,14.54,1.65c.27,5.35,2.33,9.74,7,12.89a14.83,14.83,0,0,0,18.58-2,39.19,39.19,0,0,0,3.77-5.28"/></g><g class="cls-7"><polygon id="polygon2884" points="555.99 160.2 872.48 373.68 872.21 374.09 555.72 160.61 555.99 160.2"/></g><g class="cls-7"><polygon id="polygon2886" class="cls-9" points="555.99 160.2 872.48 373.68 872.21 374.09 555.72 160.61 555.99 160.2"/></g><g class="cls-7"><polygon id="polygon2888" points="544.68 176.93 861.23 390.48 860.89 390.89 544.4 177.34 544.68 176.93"/></g><g class="cls-7"><polygon id="polygon2890" class="cls-9" points="544.68 176.93 861.23 390.48 860.89 390.89 544.4 177.34 544.68 176.93"/></g><path d="M594,179.4V354.55a123.2,123.2,0,0,0,246.4,0s0-.07,0-.1V179.4ZM838.53,354.48a121.24,121.24,0,1,1-242.49,0V181.39H838.53Z"/><path id="path2896" d="M692.74,352.15a63.06,63.06,0,0,1,6.38-2.67,3.39,3.39,0,0,1,1.1-.34,64.55,64.55,0,0,1,7.2-.48c1.85-.07,2.88-.07,4.8-.07a2.55,2.55,0,0,1,1.58.34c1.65,1.23,2.88,2.26,4.66,3.77s2.81,2.33,4.66,3.84a7.16,7.16,0,0,1-.82,2.67,9.54,9.54,0,0,1-1.71,2.61,10.18,10.18,0,0,0,2.67-3.36,11.37,11.37,0,0,0,1-2.26c.14-.41.41-.62,1-.41a48.42,48.42,0,0,0,12.41,3,20.9,20.9,0,0,0,2.19.14,2.78,2.78,0,0,1,1.3.27,43.89,43.89,0,0,1,5.62,3c2.4,1.51,4.66,2.67,6.86,5.07a17,17,0,0,0,5.62,4.25c1.71.82,2.54.75,4.66,1.51.34.14.48.27.62.82.69,2.61,1,4.25,1.51,6.93s.89,4.18,1.51,6.86a19.59,19.59,0,0,0,4.59,4,20.21,20.21,0,0,0,4.39,2.19,66.24,66.24,0,0,1,1.17,11c.07,2.67.07,4.18-.07,6.86a3.38,3.38,0,0,1-1.71,2.33,4.14,4.14,0,0,1-2.19.55H758.92a3.14,3.14,0,0,1-1.1-3.36A3,3,0,0,1,760,408.9a11.61,11.61,0,0,1,3.84-.41,9.14,9.14,0,0,0-.69-3.7,3.59,3.59,0,0,0-1.37-1.3c-3.22-2.26-4.94-3.5-7.54-5.62a27.84,27.84,0,0,1-3.57-3.36,7.18,7.18,0,0,0-.27-1.17c-.07-.27-.07-.41-.14-.69a4.74,4.74,0,0,0,.69-1.3,6.59,6.59,0,0,0,.55-2,8.33,8.33,0,0,1-1,2.26,5.72,5.72,0,0,1-.55.82,45.49,45.49,0,0,1,1.1,6.1,40,40,0,0,1,.41,5c-1.23,2.4-2.26,3.84-3.91,6.45a28.12,28.12,0,0,1-3.15,3.91,3.17,3.17,0,0,1-2.4.55H727a2.9,2.9,0,0,1-1.23-2.4,3.75,3.75,0,0,1,3-3.7,9.26,9.26,0,0,1,3.09-.21A20,20,0,0,0,732,406c.07-.82,0-1.17.07-2.19a1.61,1.61,0,0,0-.34-1.1,21.62,21.62,0,0,1-3-4.53,12.72,12.72,0,0,1-.82-2.26c-2.47-.27-3.84-.48-6.31-.89l-5.42-.89a15.75,15.75,0,0,0-5.14-2.88,3.62,3.62,0,0,0-.89-.07,13.72,13.72,0,0,1-.69-1.44,15,15,0,0,1-.69-3.29,16.94,16.94,0,0,0,1.17,5.83c.69,2,.82,2.47,1.51,4.94a2.57,2.57,0,0,1,0,1.44,66.37,66.37,0,0,1-1.78,7.06,46.7,46.7,0,0,1-2.61,7.27c-.27.62-.75,1.44-1.44,1.44h-16a4.72,4.72,0,0,1-.82-2.88,3.57,3.57,0,0,1,1-2.13,9.7,9.7,0,0,1,5-2.19c0-3-.14-4.32-.14-7.06v-7.34a9,9,0,0,1-1.37-2.67,12.16,12.16,0,0,1-.75-3,8.82,8.82,0,0,0,.21,2.67,9.55,9.55,0,0,0,1.23,3,45.22,45.22,0,0,1-6,4.8,58.59,58.59,0,0,1-5.62,3.43,4.6,4.6,0,0,1-.55,2,3,3,0,0,1-2.13,1.51h-13.1c-.89,0-2.06-3.29-1-4.39a52.39,52.39,0,0,0,5-6c1.44-1.92,2.4-3.36,3.5-5.07,1-1.51,3.09-2.13,5.28-3.22a35.36,35.36,0,0,1,5-2.13s.27-1.71-.21-1.71a12.19,12.19,0,0,1-3-.14,23.85,23.85,0,0,1-4.53-1.3,26.8,26.8,0,0,1-4.32-1.92,31.08,31.08,0,0,1-3.57-.21c-1.3-.14-2-.21-3.29-.41,0,0-.62-2.06.07-2.13.48-.07.69-.07,1.17-.14s1.3.14,1.3-.27c-1,.07-1.58.07-2.74.14H663c-.27,0-1.1-.82-1.92-1.65s-1.92-1.71-1.92-2.13v-2.26a.63.63,0,0,1,.48-1L662,368a38.3,38.3,0,0,1,3.15-2.67,32.52,32.52,0,0,1,3.5-2.54c.48-2.19.55-3.91,2-4.18a34.28,34.28,0,0,1,7-.82,4,4,0,0,1,1.85-2.61c1.37-.82,3.43-.82,4.8-.82a9.76,9.76,0,0,1,2.54,5.49,8,8,0,0,1-.55,3.84,3.42,3.42,0,0,0,.69-1.3c.69-2.54-.27-5.76-1-7.68-.07-.34,3.29-1,6.65-2.54"/><path id="path2898" d="M684.78,381c.34-.07.34,1,.34,1.58a4.47,4.47,0,0,1-.14,1.65c-1.65.62-2.61,1-4.25,1.78a52.08,52.08,0,0,0-5.21,2.67,3,3,0,0,0-1.17,1.3c-1.3,2.06-2.06,3.09-3.5,5a65.45,65.45,0,0,1-4.53,5.28,1.35,1.35,0,0,0-.48,1.37c.21,1.1.55,1.85,1,1.85h11.73a3,3,0,0,0,1.71-.41,2.8,2.8,0,0,0,1-2.67,46.27,46.27,0,0,0,6.38-3.84,41.59,41.59,0,0,0,5.07-4.11,8.78,8.78,0,0,1-.89-2.67,7.54,7.54,0,0,1-.27-3,5.83,5.83,0,0,1,1.17-3,22,22,0,0,0,.48,3,15.84,15.84,0,0,0,1,3.63,7.78,7.78,0,0,0,1.1,1.78c0,2.61.07,4,.07,6.58.07,3.29.07,5,.14,8.37a.69.69,0,0,1-.62.75,15.67,15.67,0,0,0-2.61.69c-1.3.62-2.4,1.3-2.67,2.61-.14.89.14,2.19.62,2.19h15c1,0,2.4-4.18,3.43-7.54.82-2.81,1.37-4.66,1.85-7.06a3.34,3.34,0,0,0,0-1.65c-.27-.89-1.1-3.5-1.78-5.49a20.59,20.59,0,0,1-1-5.62,3.92,3.92,0,0,1,1.3-3.57,16.79,16.79,0,0,0,.21,3.7,16,16,0,0,0,1.1,4,9.4,9.4,0,0,1,1.65.48,16.45,16.45,0,0,1,4.32,2.61c1.78.34,2.74.48,4.59.82,3,.48,4.59.69,7.54,1a9.88,9.88,0,0,0,.89,2.74,18.9,18.9,0,0,0,3.15,4.53,1.44,1.44,0,0,1,.34,1c0,1-.07,1.65-.07,2.54-.07,1.58-.34,3.09-.75,3.09a7,7,0,0,0-2.33-.14,3.14,3.14,0,0,0-3.15,3.09c-.07.69.48,1.51,1.1,1.51h14.61c.41,0,1.3.07,1.71-.41a32.69,32.69,0,0,0,3.7-5c1.23-1.85,1.85-3,3-4.94-.07-1.78-.14-2.81-.34-4.59a49.57,49.57,0,0,0-1.1-6.38A13.19,13.19,0,0,0,750.4,390a10.94,10.94,0,0,0,1.17-3.77,5.13,5.13,0,0,1,.62,2.67,7,7,0,0,1-1.3,3.91c-.27.48,1.85,2.4,3.29,3.63a65.79,65.79,0,0,0,5.55,4.39c1.1.75,2,1.3,2.74,1.85a3.74,3.74,0,0,1,1.78,2.61,14,14,0,0,1,.34,3.91h-2.13c-1.78.07-3.57.34-3.84,2.4-.07.75.27,1.85,1,1.85H773.8a2.41,2.41,0,0,0,1.37-.34,2.93,2.93,0,0,0,1.65-1.78,68.9,68.9,0,0,0,.07-7.54,64.22,64.22,0,0,0-1-9.6,18.2,18.2,0,0,1-4.46-2.26,19.89,19.89,0,0,1-4.32-3.91,3.49,3.49,0,0,1-.48-1.17c-.82-3.77-1.1-4.87-1.71-8-.41-2-.69-3.15-1-5.14-1.65-.55-2.54-.69-3.84-1.23a17.64,17.64,0,0,1-4.73-2.81,24,24,0,0,1-3-3,26.4,26.4,0,0,0-5.21-3.7c-2.33-1.44-4.8-2.61-6.17-3.29a2.25,2.25,0,0,0-1.17-.27,23.29,23.29,0,0,1-4.94-.41,67.87,67.87,0,0,1-9.81-2.74c-.48,1.17-.82,2-1.37,3.09-1.3,2.33-2.81,3.36-5,3.57-.07-.21,1.44-1.44,2.13-2.61a11.48,11.48,0,0,0,1.58-3.63c-1.51-1.23-2.4-1.92-3.91-3.15-2.06-1.65-3.22-2.61-5.28-4.25-1.92-.07-3-.07-4.87,0-3.09.07-4.8.21-7.82.48-1.71.69-2.67,1.1-4.39,1.78s-2.88,1.3-4.73,2c-1.58.62-2.47.89-4,1.44a17.73,17.73,0,0,1,.89,5.42,6.07,6.07,0,0,1-1.1,3.91,11.78,11.78,0,0,1-2.4,1.92,18.55,18.55,0,0,0,1.1-3.29,7.41,7.41,0,0,0,.41-2.74A10,10,0,0,0,684.1,355a13.12,13.12,0,0,0-3.29.41,3.87,3.87,0,0,0-2.4,3.15,31,31,0,0,0-3.57.14,24,24,0,0,0-3.77.62.73.73,0,0,0-.62.62c-.27,1-.55,2.19-.75,3.36a37.74,37.74,0,0,0-3.43,2.33c-1.44,1.1-3.15,2.81-3.57,3l-1.1.34a8.82,8.82,0,0,1-1.3.27v2.26c.55.55.89.82,1.44,1.37l1.65,1.65a31,31,0,0,1,3.57-.07c1.51.07,3.77,0,3.84.34a4,4,0,0,1-1.71,1.17,18.92,18.92,0,0,1-3,.48l.07.62,2.19.34a29.43,29.43,0,0,0,4.25.21c1.37.69,2.13,1,3.5,1.58a23,23,0,0,0,4.8,1.51,14.6,14.6,0,0,0,1.71.21,4.26,4.26,0,0,0,2.13.21"/><path id="path2900" class="cls-3" d="M759.53,411c0,.69.21,1.44,1,1.44a.53.53,0,0,0,.48-.21c.21-.21.07-.48.21-.75.21-.48.48-.62.75-1.17.07-.21-.07-.55-.34-.55a4.22,4.22,0,0,1-.89-.07c-.69-.14-1.1.62-1.17,1.3"/><path id="path2902" class="cls-3" d="M761.93,411c0,.69.21,1.44,1,1.44.27,0,.27-.07.48-.21s.07-.48.21-.75c.21-.48.48-.62.69-1.17a.39.39,0,0,0-.2-.52l-.14,0a4.22,4.22,0,0,1-.89-.07c-.62-.14-1.1.62-1.1,1.3"/><path id="path2904" class="cls-3" d="M727.71,411c0,.69.21,1.44,1,1.44a.53.53,0,0,0,.48-.21c.21-.21.07-.48.21-.75.21-.48.48-.62.75-1.17.07-.21-.07-.55-.34-.55a4.22,4.22,0,0,1-.89-.07c-.69-.14-1.1.62-1.17,1.3"/><path id="path2906" class="cls-3" d="M730.11,411c-.07.69.21,1.44,1,1.44.27,0,.27-.07.48-.21s.07-.48.21-.75c.21-.48.48-.62.75-1.17.07-.21-.07-.55-.34-.55a4.22,4.22,0,0,1-.89-.07c-.69-.14-1.17.62-1.17,1.3"/><path id="path2908" class="cls-3" d="M690.54,411c0,.69.21,1.44,1,1.44.27,0,.27-.07.48-.21s.07-.48.21-.75c.21-.48.48-.62.75-1.17.07-.21-.14-.55-.34-.55a4.22,4.22,0,0,1-.89-.07c-.69-.14-1.1.62-1.17,1.3"/><path id="path2910" class="cls-3" d="M692.94,411c0,.69.21,1.44,1,1.44.27,0,.27-.07.48-.21s.07-.48.21-.75c.21-.48.48-.62.75-1.17.07-.21-.14-.55-.34-.55a4.22,4.22,0,0,1-.89-.07c-.75-.14-1.17.62-1.17,1.3"/><path id="path2912" class="cls-3" d="M666.88,401.59c0,.69.21,1.44,1,1.44.27,0,.27-.07.48-.27s.07-.48.21-.75c.21-.55.48-.62.75-1.23.07-.21-.14-.55-.34-.55a4.22,4.22,0,0,1-.89-.07,1.36,1.36,0,0,0-1.17,1.44"/><path id="path2914" class="cls-3" d="M669.22,401.59c0,.69.21,1.44,1,1.44.27,0,.27-.07.48-.27s.07-.48.21-.75c.21-.55.48-.62.75-1.23.07-.21-.14-.55-.34-.55a4.22,4.22,0,0,1-.89-.07c-.69,0-1.1.75-1.17,1.44"/><path id="path2916" class="cls-3" d="M667.78,402.55a3.39,3.39,0,0,1,.27-.89,3.45,3.45,0,0,1,.55-.82,6.52,6.52,0,0,1-1-.07.86.86,0,0,0-.41.75c.07.41.14.89.55,1"/><path id="path2918" class="cls-3" d="M670.18,402.55a3.39,3.39,0,0,1,.27-.89,2.17,2.17,0,0,1,.55-.82,7.08,7.08,0,0,1-1-.07.86.86,0,0,0-.41.75c0,.41.07.89.55,1"/><path id="path2920" class="cls-3" d="M691.5,412a4.44,4.44,0,0,1,.27-.89,2.17,2.17,0,0,1,.55-.82,6.52,6.52,0,0,1-1-.07.9.9,0,0,0-.41.82.88.88,0,0,0,.55,1"/><path id="path2922" class="cls-3" d="M693.84,412a4.44,4.44,0,0,1,.27-.89,2.17,2.17,0,0,1,.55-.82,5.81,5.81,0,0,1-.89-.07.9.9,0,0,0-.41.82.83.83,0,0,0,.48,1"/><path id="path2924" class="cls-3" d="M728.67,412a4.44,4.44,0,0,1,.27-.89,3.45,3.45,0,0,1,.55-.82,7.08,7.08,0,0,1-1-.07.9.9,0,0,0-.41.82,1,1,0,0,0,.55,1"/><path id="path2926" class="cls-3" d="M731,412a4.44,4.44,0,0,1,.27-.89,3.45,3.45,0,0,1,.55-.82,7.08,7.08,0,0,1-1-.07.9.9,0,0,0-.41.82c.07.34.14.82.55,1"/><path id="path2928" class="cls-3" d="M760.49,412a4.44,4.44,0,0,1,.27-.89,3.45,3.45,0,0,1,.55-.82,5.81,5.81,0,0,1-.89-.07.9.9,0,0,0-.41.82.77.77,0,0,0,.45,1h0"/><path id="path2930" class="cls-3" d="M762.82,412a4.44,4.44,0,0,1,.27-.89,3.45,3.45,0,0,1,.55-.82,7.08,7.08,0,0,1-1-.07.9.9,0,0,0-.41.82,1,1,0,0,0,.55,1"/><path id="path2932" class="cls-3" d="M673.19,362.37a3.08,3.08,0,0,0-.48,2.06,3,3,0,0,0,1.37,2.4v-.89h.62a5.47,5.47,0,0,0,1-.21,3.78,3.78,0,0,1-1.37-1.17,4.85,4.85,0,0,1-1.17-2.19"/><path id="path2934" class="cls-3" d="M673.26,363.67a5.67,5.67,0,0,0,.48.89,3,3,0,0,0,1,.89,1,1,0,0,1-.62,0,1.51,1.51,0,0,1-.55-.07c-.07-.21-.14-.27-.21-.48a3.75,3.75,0,0,1-.07-1.23"/><line class="cls-10" x1="595.16" y1="344.12" x2="839.54" y2="344.12"/></g><g id="schrift"><path d="M662.85,552.74c1.69,3.25,3.28,6.55,5.08,9.73,12,21.4,25.84,41.73,38.65,62.67a2.2,2.2,0,0,0,2.22,1.1c2.77,0,5.55-.07,8.33,0,1.22,0,1.88-.26,1.69-1.61a7.16,7.16,0,0,1,0-1V539.16c0-.72-.33-1-1-1h-8.57c-.85,0-1.18.35-1.14,1.17v1.47c0,14-.06,28.08,0,42.12,0,6.85.23,13.7.74,20.54.16,2.19.24,4.39.35,6.59a27.17,27.17,0,0,1-3-5c-5.16-10.3-11.31-20-17.51-29.7q-11.2-17.52-22.3-35.11c-.93-1.48-1.87-2.2-3.68-2.08-2.44.17-4.89,0-7.34,0-3.06,0-2.75-.42-2.75,2.71v82.53a14.23,14.23,0,0,1,0,1.47c-.12,1.12.43,1.38,1.45,1.36,2.53,0,5.06,0,7.59,0,1.68,0,1.72,0,1.71-1.8-.08-21.55.32-43.1-.49-64.64C662.73,557.43,662.35,555.1,662.85,552.74Z"/><path d="M932.64,610.47a6,6,0,0,1-1.49-2.33c-1.92-4-3.93-7.88-6.14-11.69-11.31-19.47-24-38.09-35.86-57.21a2.23,2.23,0,0,0-2.23-1.1c-2.69.06-5.39,0-8.08,0-3.2,0-2.83-.46-2.83,2.87v84c0,.8.25,1.19,1.12,1.18h8.57c.69,0,1.07-.26,1.06-1v-38c0-10.69-.19-21.38-.8-32v-2.59a2.44,2.44,0,0,1,1,1.31c1.85,3.54,3.65,7.1,5.57,10.61,5.09,9.31,10.89,18.19,16.52,27.17,6.84,10.92,13.74,21.8,20.54,32.75a3.2,3.2,0,0,0,3.32,1.79c2.19-.14,4.41,0,6.61,0,3.06,0,2.74.42,2.74-2.72V540c0-1.77,0-1.79-1.7-1.81h-7.35c-1.66,0-1.66,0-1.7,1.81v.73c0,14,0,28.08,0,42.12q0,10.27.74,20.54C932.42,605.61,932.5,607.84,932.64,610.47Z"/><path d="M1035.71,582.44V539c0-.58-.27-.92-.88-.92H1025a.8.8,0,0,0-.91.88v33.8c0,2.17.22,2.06-1.89,2.06H983.5c-2.35,0-2,0-2-2.21V539.35c.07-1-.36-1.27-1.3-1.25h-7.35c-3.07,0-2.72-.37-2.72,2.75q0,41.27,0,82.54v1.71a.9.9,0,0,0,1,1h9.31c.71,0,1.06-.27,1-1V585.92c0-.86.39-1.17,1.18-1.14H1023c.68,0,1.08.22,1,1V625.2a.8.8,0,0,0,.69.9h10a.8.8,0,0,0,.9-.9v-2Q1035.71,602.89,1035.71,582.44Z"/><path d="M487.08,582.44V539.33c0-.81-.27-1.17-1.13-1.16h-9.31c-.74,0-1,.33-1,1V574a.78.78,0,0,1-.85.92h-39.2c-2.57,0-2.57,0-2.57-2.6q0-.61,0-1.22,0-15.43,0-30.87c0-2,0-2-2-2h-7.1c-2.24,0-2.41-.51-2.38,2.38v84.76a.81.81,0,0,0,.71.9H432c.74,0,1-.39,1-1.08V586c0-.57.22-1.08,1-1h40.67c.73,0,1,.39,1,1.08v39.19a.89.89,0,0,0,1,1H486c.86,0,1.17-.35,1.13-1.16v-1.71Q487.08,602.89,487.08,582.44Z"/><path d="M582.78,582.23v42.86c0,.82.35,1.19,1.18,1.13h47.27c.84,0,1.16-.34,1.15-1.17V617.7c0-.84-.36-1.18-1.18-1.14h-35c-1.92,0-2,0-2-1.75V586.64c0-1.71,0-1.74,1.72-1.75h30.86c1.26,0,1.74-.37,1.68-1.68-.1-2-.07-4.08,0-6.12,0-1.18-.22-1.91-1.6-1.72a11.25,11.25,0,0,1-1.47,0H596.27c-2.11,0-2,.25-2-1.91V549.7c0-2.17-.06-1.92,2-1.92h31.11a11.4,11.4,0,0,1,1.47,0c1.36.18,1.65-.5,1.62-1.71-.07-2.12-.06-4.25,0-6.37,0-1.1-.23-1.75-1.48-1.59a10,10,0,0,1-1.22,0H585.4c-2.7,0-2.58-.47-2.58,2.66Q582.78,561.53,582.78,582.23Z"/><path d="M554.69,550.34l2.87-8.38a1,1,0,0,0-.43-1.35l-.13-.05c-.75-.32-1.47-.71-2.23-1a44.13,44.13,0,0,0-19.22-2.77,30.83,30.83,0,0,0-16.85,5.89c-10.93,8.16-12.08,25.14-1.52,34.2a38.74,38.74,0,0,0,5.35,3.87A63.17,63.17,0,0,0,533,585.53a41.5,41.5,0,0,1,10.83,5.58,13.81,13.81,0,0,1,5.43,7.9c2,8.4-2.24,15.6-10.55,18-5.66,1.61-11.3,1.11-16.92-.27a45.3,45.3,0,0,1-10.7-4.36,77.28,77.28,0,0,0-2.49,7.74c-.58,1.82-.55,1.87,1.21,2.75a35.82,35.82,0,0,0,3.58,1.56,50.22,50.22,0,0,0,22.39,2.8A33.42,33.42,0,0,0,547.49,624c8.41-4.11,13.14-10.82,13.84-20.14s-2.85-16.53-10.61-21.72a58.46,58.46,0,0,0-10.41-5.38c-2.71-1.11-5.43-2.23-8.09-3.45a25,25,0,0,1-6.56-4.22,12.23,12.23,0,0,1-4.09-11.24c.84-6,4.65-9.32,10.21-10.89a27.93,27.93,0,0,1,11.9-.32A35.88,35.88,0,0,1,554.69,550.34Z"/><path d="M228.12,550.35c1-3,1.89-5.66,2.86-8.33.3-.83,0-1.21-.68-1.51s-1.48-.69-2.23-1a44,44,0,0,0-19.22-2.71,31.08,31.08,0,0,0-16.23,5.52c-11.42,8.11-13,25.67-1.36,35.12a45.54,45.54,0,0,0,11.6,6.7c2.49,1,5,1.92,7.48,3A31.92,31.92,0,0,1,219,592.6c5.8,5.24,6.17,18.08-3.39,23a22.2,22.2,0,0,1-9.17,2.34,39.43,39.43,0,0,1-19.16-4.13,10.36,10.36,0,0,0-3-1.33l-1.78,5.86c-1.16,3.82-1.19,3.89,2.59,5.43a49.41,49.41,0,0,0,27.84,2.87A28.24,28.24,0,0,0,226,620.83c6.43-5.24,9.06-12.12,8.72-20.31a21.6,21.6,0,0,0-7.28-15.75,35.51,35.51,0,0,0-9.21-6c-3.48-1.59-7.06-3-10.56-4.51a35.61,35.61,0,0,1-8.2-4.82,12.77,12.77,0,0,1,3.11-21.6,22.29,22.29,0,0,1,9.8-1.66A35.81,35.81,0,0,1,228.12,550.35Z"/><path d="M398.21,614.39a4.47,4.47,0,0,0-.83.13,46.49,46.49,0,0,1-23.29,2.94c-13-1.66-22-8.44-26.24-21a46.37,46.37,0,0,1-1.8-19.35,37,37,0,0,1,3.88-13.81c5.61-10.77,14.89-15.83,26.65-16.78a41.68,41.68,0,0,1,20.13,3c1.16.5,1.39.06,1.63-.89.36-1.42.83-2.81,1.25-4.22,1.2-4,1.22-4.07-2.76-5.28a55.67,55.67,0,0,0-27.34-1.42c-16.75,3.34-28.15,13-33.44,29.43a52.66,52.66,0,0,0-1.39,26.37c3.23,16.88,12.94,28,29.75,32.39,9.09,2.38,18.27,1.88,27.42.16a40.47,40.47,0,0,0,7.49-2.2c.78-.31,1.22-.7,1-1.64C399.57,619.59,398.9,617,398.21,614.39Z"/><path d="M1231.22,587.09v-38.2a.91.91,0,0,1,1-1h24c1.89,0,1.91,0,1.93-1.82s0-3.43,0-5.14c0-3.08.35-2.75-2.72-2.75h-60a11,11,0,0,1-1.22,0c-1.07-.12-1.44.36-1.41,1.4V546c0,1.94,0,2,2,2h22c3.06,0,2.7-.48,2.7,2.73v74.49c0,.85.35,1.15,1.17,1.14H1230c.85,0,1.18-.35,1.14-1.17v-1.71Q1231.22,605.21,1231.22,587.09Z"/><path d="M1146.76,581.94v42.12c0,2.13,0,2.13,2.11,2.15h46c.57,0,.95-.25.95-.85v-7.84c0-.75-.43-1-1.11-1H1161c-2.76,0-2.76,0-2.76-2.66V541.37a16.65,16.65,0,0,1,0-1.71c.12-1.15-.29-1.6-1.5-1.57-2.45.08-4.9,0-7.35,0-2.7,0-2.61-.49-2.61,2.63Q1146.76,561.37,1146.76,581.94Z"/><path d="M754.38,595h14.2c2.36,0,2.16.17,2.16-2v-4.41c0-2,0-2-2-2H740.38c-1.92,0-1.93,0-1.94,2v4.65c0,1.71,0,1.74,1.74,1.75C744.92,595,749.65,595,754.38,595Z"/><path d="M178.82,679.7v-5.88c0-1.17.43-1.65,1.54-1.55H1255.8c.79,0,1.58,0,2.38.07v7.35Z"/><path d="M662.85,552.74c-.51,2.37-.12,4.7,0,7,.81,21.54.41,43.09.49,64.64,0,1.75,0,1.78-1.71,1.8H654c-1,0-1.56-.24-1.45-1.36a14.23,14.23,0,0,0,0-1.47V540.82c0-3.13-.31-2.68,2.75-2.71,2.45,0,4.91.12,7.34,0,1.81-.13,2.75.6,3.68,2.08q11.07,17.6,22.3,35.11c6.2,9.69,12.34,19.4,17.51,29.7a27.17,27.17,0,0,0,3,5c-.11-2.2-.19-4.4-.35-6.59-.51-6.84-.7-13.69-.74-20.54-.08-14,0-28.08,0-42.12v-1.47c0-.82.29-1.18,1.14-1.17h8.57c.71,0,1.06.28,1,1v84.47a7.16,7.16,0,0,0,0,1c.19,1.34-.47,1.64-1.69,1.61-2.77-.07-5.55-.06-8.33,0a2.2,2.2,0,0,1-2.22-1.1c-12.81-20.93-26.6-41.26-38.65-62.67C666.13,559.28,664.54,556,662.85,552.74Z"/><path d="M932.64,610.47c-.14-2.63-.23-4.86-.39-7.08-.5-6.84-.7-13.69-.74-20.54-.08-14,0-28.08,0-42.12V540c0-1.77,0-1.8,1.7-1.81h7.35c1.66,0,1.66,0,1.7,1.81v83.53c0,3.14.32,2.7-2.74,2.72-2.2,0-4.42-.1-6.61,0a3.2,3.2,0,0,1-3.32-1.79c-6.8-11-13.7-21.83-20.54-32.75-5.63-9-11.43-17.86-16.52-27.17-1.92-3.5-3.72-7.07-5.57-10.61a2.44,2.44,0,0,0-1-1.31v2.59c.62,10.68.81,21.36.8,32v38c0,.73-.37,1-1.06,1h-8.57c-.87,0-1.15-.38-1.12-1.18V541c0-3.33-.37-2.84,2.83-2.87h8.08a2.23,2.23,0,0,1,2.23,1.1C901,558.37,913.71,577,925,596.45c2.21,3.81,4.22,7.73,6.14,11.69A6,6,0,0,0,932.64,610.47Z"/><path d="M1035.71,582.44v42.9a.8.8,0,0,1-.69.9h-10a.8.8,0,0,1-.9-.9V585.92c0-.76-.35-1-1-1H982.66c-.79,0-1.23.28-1.18,1.14v39.18c0,.72-.33,1-1,1h-9.31c-.73,0-1-.34-1-1v-1.71q0-41.27,0-82.54c0-3.12-.35-2.73,2.72-2.75h7.35c.93,0,1.37.28,1.3,1.25V572.8c0,2.18-.32,2.21,2,2.21h38.7c2.11,0,1.89.11,1.89-2.06v-33.8a.8.8,0,0,1,.71-.88h10c.61,0,.88.33.88.92v2Q1035.71,561.75,1035.71,582.44Z"/><path d="M487.08,582.44v42.62c0,.81-.27,1.17-1.13,1.16h-9.31c-.74,0-1-.33-1-1V586c0-.57-.25-1.09-1-1.08H434c-.76,0-1,.35-1,1v39.19c0,.57-.24,1.08-1,1.08h-9.55a.81.81,0,0,1-.9-.9V540.56c0-2.88.14-2.36,2.38-2.38s4.74,0,7.1,0c1.94,0,2,0,2,2v32.09c0,2.6,0,2.6,2.57,2.6h39.2a.78.78,0,0,0,.85-.92V539.17a.89.89,0,0,1,1-1h9.31c.86,0,1.17.36,1.13,1.16V541Q487.08,561.73,487.08,582.44Z"/><path d="M784,626.21a3.58,3.58,0,0,1,.42-2.54q14.15-41.65,28.34-83.29c.9-2.65.38-2.17,3-2.2h9.55c2,0,2,0,2.67,2l15.72,46,12.79,37.47a6.39,6.39,0,0,1,.6,2.57h-11c-1.15,0-1.25-.77-1.51-1.55-1.75-5.17-3.53-10.33-5.29-15.5-1.08-3.16-2.17-6.32-3.2-9.5a1.55,1.55,0,0,0-1.74-1.26c-9.47,0-18.94,0-28.41,0-1.33,0-1.62.66-2,1.66q-3.89,11.84-7.82,23.67c-.82,2.48-.82,2.48-3.52,2.48Zm23-36.79h26.19c-4.37-13.72-9.68-26.92-13.17-40.72-3.37,13.86-8.6,27-13,40.72Z"/><path d="M1054.31,626.21c1-2.91,1.87-5.6,2.79-8.28l26.28-77.31c.18-.54.37-1.08.56-1.62a1.2,1.2,0,0,1,1.3-.85H1097c1.14,0,1.27.77,1.53,1.54q2.76,8.1,5.53,16.19,11.63,34,23.24,68a3.49,3.49,0,0,1,.43,2.31h-11.14c-.94,0-1-.73-1.18-1.3-1.41-4.08-2.79-8.17-4.18-12.26s-2.94-8.47-4.31-12.74a1.81,1.81,0,0,0-2.08-1.49q-14,.07-27.93,0c-1.32,0-1.8.5-2.18,1.68-2.61,8.06-5.31,16.1-8,24.14-.65,2-.67,2-2.65,2Zm49.63-36.75c-4.3-13.68-9.69-26.85-13.15-40.73-3.46,13.83-8.68,27.06-13,40.73Z"/><path d="M582.78,582.23V540.84c0-3.13-.12-2.66,2.58-2.66h42.37a10,10,0,0,0,1.22,0c1.25-.15,1.51.49,1.48,1.59-.06,2.12-.07,4.25,0,6.37,0,1.2-.26,1.89-1.62,1.71a11.4,11.4,0,0,0-1.47,0H596.25c-2.09,0-2-.24-2,1.92v23.76c0,2.16-.07,1.91,2,1.91H625.4a11.25,11.25,0,0,0,1.47,0c1.38-.18,1.64.54,1.6,1.72-.06,2-.09,4.09,0,6.12.06,1.3-.42,1.69-1.68,1.68-4.49,0-9,0-13.47,0H595.93c-1.69,0-1.72,0-1.72,1.75v28.17c0,1.73,0,1.74,2,1.75h35c.82,0,1.19.3,1.18,1.14v7.35c0,.82-.32,1.21-1.15,1.17H584c-.83.06-1.2-.31-1.18-1.13V582.23Z"/><path d="M554.69,550.34a35.88,35.88,0,0,0-11-3.69,27.93,27.93,0,0,0-11.9.32c-5.56,1.57-9.36,4.93-10.21,10.89a12.23,12.23,0,0,0,4.09,11.24,25,25,0,0,0,6.56,4.22c2.66,1.22,5.38,2.34,8.09,3.45a58.46,58.46,0,0,1,10.41,5.38c7.75,5.19,11.3,12.5,10.61,21.72s-5.43,16-13.84,20.14a33.42,33.42,0,0,1-11.74,3.16,50.22,50.22,0,0,1-22.39-2.8,35.82,35.82,0,0,1-3.58-1.56c-1.76-.89-1.79-.94-1.21-2.75a77.28,77.28,0,0,1,2.49-7.74,45.3,45.3,0,0,0,10.7,4.36c5.62,1.38,11.26,1.88,16.92.27,8.32-2.36,12.54-9.56,10.55-18a13.81,13.81,0,0,0-5.43-7.9A41.5,41.5,0,0,0,533,585.53a63.17,63.17,0,0,1-10.43-4.78,38.74,38.74,0,0,1-5.35-3.87c-10.56-9.06-9.41-26,1.52-34.2a30.83,30.83,0,0,1,16.85-5.89,44.13,44.13,0,0,1,19.22,2.77c.76.3,1.48.68,2.23,1a1,1,0,0,1,.61,1.27l-.05.13Z"/><path d="M228.12,550.35a35.81,35.81,0,0,0-15.71-4.13,22.29,22.29,0,0,0-9.8,1.66,12.77,12.77,0,0,0-3.11,21.6,35.61,35.61,0,0,0,8.2,4.82c3.51,1.53,7.08,2.92,10.56,4.51a35.51,35.51,0,0,1,9.21,6,21.6,21.6,0,0,1,7.28,15.75c.34,8.18-2.29,15.07-8.72,20.31A28.24,28.24,0,0,1,213,626.64a49.41,49.41,0,0,1-27.84-2.87c-3.78-1.54-3.75-1.61-2.59-5.43l1.78-5.86a10.36,10.36,0,0,1,3,1.33,39.43,39.43,0,0,0,19.16,4.13,22.2,22.2,0,0,0,9.17-2.34c9.57-4.86,9.2-17.71,3.39-23a31.92,31.92,0,0,0-8.64-5.46c-2.46-1.08-5-2-7.48-3a45.54,45.54,0,0,1-11.6-6.7c-11.62-9.45-10.06-27,1.36-35.12a31.08,31.08,0,0,1,16.23-5.52,44,44,0,0,1,19.22,2.71c.76.29,1.48.67,2.23,1s1,.69.68,1.51C230,544.69,229.13,547.4,228.12,550.35Z"/><path d="M398.21,614.39c.69,2.61,1.35,5.2,2.06,7.78.26.94-.19,1.33-1,1.64a40.47,40.47,0,0,1-7.49,2.2c-9.15,1.73-18.33,2.23-27.42-.16-16.81-4.41-26.52-15.52-29.75-32.39A52.66,52.66,0,0,1,336,567.1c5.29-16.42,16.69-26.09,33.44-29.43a55.67,55.67,0,0,1,27.34,1.42c4,1.21,4,1.27,2.76,5.28-.42,1.4-.88,2.8-1.25,4.22-.24,1-.47,1.39-1.63.89a41.68,41.68,0,0,0-20.13-3c-11.76,1-21,6-26.65,16.78A37,37,0,0,0,346,577.07a46.37,46.37,0,0,0,1.8,19.35C352,609,361,615.81,374,617.42a46.49,46.49,0,0,0,23.29-2.94A4.47,4.47,0,0,1,398.21,614.39Z"/><path d="M1231.22,587.09v38c0,.82-.29,1.18-1.14,1.17h-9.31c-.82,0-1.21-.29-1.17-1.14V550.58c0-3.21.36-2.72-2.7-2.73h-22c-2,0-2,0-2-2v-6.37c0-1,.34-1.52,1.41-1.4a11,11,0,0,0,1.22,0h60c3.07,0,2.7-.32,2.72,2.75V546c0,1.71,0,1.82-1.93,1.82h-24c-.72,0-1,.28-1,1v1.71Q1231.22,568.85,1231.22,587.09Z"/><path d="M1146.76,581.94V540.8c0-3.12-.09-2.61,2.61-2.63h7.35c1.21,0,1.62.42,1.5,1.57a16.65,16.65,0,0,0,0,1.71v72.49c0,2.66,0,2.66,2.76,2.66h33.73c.57,0,1.11.21,1.11,1v7.84c0,.6-.38.85-.95.85h-46c-2.09,0-2.11,0-2.11-2.15Z"/><path d="M754.38,595h-14.2c-1.71,0-1.72,0-1.74-1.75V588.6c0-2,0-2,1.94-2h28.41c1.94,0,1.94,0,2,2V593c0,2.21.2,2-2.16,2Z"/><path d="M320.91,623.63l-13.74-40.25q-7.38-21.63-14.77-43.25c-.67-2-.68-2-2.68-2h-9.55c-2.51,0-2-.49-3,2.22Q263,582,248.87,623.69a3.49,3.49,0,0,0-.41,2.53h8.94c2.45,0,2.46,0,3.2-2.26l7.76-23.43c.81-2.45.53-2.07,2.82-2.07h26.69c2.55,0,2.09-.43,3,2.18,2.74,8,5.5,16,8.19,24.06.37,1.1.81,1.57,2,1.54,3.42-.09,6.85,0,10.45,0A6.67,6.67,0,0,0,320.91,623.63ZM271.45,589.5c4.35-13.65,9.61-26.87,13-40.77,3.5,13.82,8.81,27,13.2,40.77Z"/></g></svg>