<?xml version="1.0" encoding="utf-8"?>
<!-- Generator: Adobe Illustrator 22.0.1, SVG Export Plug-In . SVG Version: 6.00 Build 0)  -->
<svg version="1.1" id="Ebene_1" xmlns="http://www.w3.org/2000/svg" xmlns:xlink="http://www.w3.org/1999/xlink" x="0px" y="0px"
	 viewBox="0 0 342.9 114.3" style="enable-background:new 0 0 342.9 114.3;" xml:space="preserve">
<style type="text/css">
	.st0{fill:#FFFFFF;}
	.st1{opacity:0.3;}
</style>
<g>
	<path class="st0" d="M-3.5-1.7v118H346v-118H-3.5z M71.4,84.7H59.8l-3.6-12.5V59.9h-0.8c-9.8,0-11.4,2.5-11.4,8.4
		c0,5.5,1.4,7.4,5.4,7.4c1,0,1.8-0.2,2.6-0.4l2.4,8.2C52,85,49,86.1,45.2,86.1C33.7,86.1,29,79.3,29,68.5c0-12.8,7.5-18,23.9-18h3.3
		v-2c0-5.5-1-7.8-6.1-7.8c-3.7,0-7.2,1.1-10.4,2.6l-3.4-11.6c4.4-2,9.3-3.2,15.2-3.2c13.8,0,19.8,4.8,19.8,17.7V84.7z M93.2,84.7
		L74.5,29.7h15.9l16,54.9H93.2z M108.9,76l-6.8-23.6l6.6-22.7h15.9L108.9,76z M167.7,84.7h-11.5l-3.6-12.5V59.9h-0.8
		c-9.8,0-11.4,2.5-11.4,8.4c0,5.5,1.4,7.4,5.4,7.4c1,0,1.8-0.2,2.6-0.4l2.4,8.2c-2.4,1.6-5.4,2.6-9.2,2.6
		c-11.5,0-16.2-6.8-16.2-17.6c0-12.8,7.5-18,23.9-18h3.3v-2c0-5.5-1-7.8-6.1-7.8c-3.7,0-7.2,1.1-10.4,2.6l-3.4-11.6
		c4.4-2,9.3-3.2,15.2-3.2c13.8,0,19.8,4.8,19.8,17.7V84.7z M198.9,86.1c-15.9,0-23.5-9.1-23.5-29.1c0-20.3,7.8-28.6,22.9-28.6
		c5.3,0,9.5,1.1,13.3,3.4l-3.7,12.7c-2.3-2.5-4.7-4-8.3-4c-5.6,0-7.7,2.4-7.7,16.2c0,13.8,1.9,17.1,8.2,17.1c4.2,0,6.3-1.6,9-3.9
		l3.6,12.3C209,84.6,204.6,86.1,198.9,86.1z M239.1,86.1c-15.2,0-23.9-8.5-23.9-29.1c0-20.6,8.7-28.6,23.9-28.6
		c15.2,0,23.9,8.3,23.9,29C263,78,254.3,86.1,239.1,86.1z M312.5,84.7h-15.3V46.9c0-5.3-1.9-6.5-5.1-6.5c-3.3,0-5.4,1.2-8,3.2v41
		H269V29.7h12.4l1.3,5.3c4.1-3.9,8.6-6.7,15.5-6.7c9.4,0,14.3,4,14.3,15.2V84.7z"/>
	<path class="st0" d="M239.1,39.6c-6,0-7.5,3.1-7.5,17.7c0,14,1.6,17.5,7.6,17.5c5.9,0,7.5-3.9,7.5-18
		C246.8,42.4,245,39.6,239.1,39.6z"/>
</g>
<g class="st1">
	<polygon class="st0" points="90.4,29.7 74.5,29.7 93.2,84.7 106.3,84.7 90.4,29.7 	"/>
	<path class="st0" d="M211.5,31.8c-3.7-2.3-8-3.4-13.3-3.4c-15.1,0-22.9,8.3-22.9,28.6c0,20,7.6,29.1,23.5,29.1
		c5.7,0,10.1-1.5,13.6-3.9L209,69.9c-2.7,2.4-4.8,3.9-9,3.9c-6.2,0-8.2-3.3-8.2-17.1c0-13.9,2.2-16.2,7.7-16.2c3.6,0,5.9,1.5,8.3,4
		L211.5,31.8L211.5,31.8z"/>
	<path class="st0" d="M263,57.4c0-20.8-8.7-29-23.9-29c-15.2,0-23.9,8-23.9,28.6c0,20.6,8.7,29.1,23.9,29.1
		C254.3,86.1,263,78,263,57.4L263,57.4z M246.8,56.9c0,14.1-1.6,18-7.5,18c-6,0-7.6-3.5-7.6-17.5c0-14.6,1.5-17.7,7.5-17.7
		C245,39.6,246.8,42.4,246.8,56.9L246.8,56.9z"/>
	<path class="st0" d="M269,84.7h15.2v-41c2.6-2,4.6-3.2,8-3.2c3.1,0,5.1,1.2,5.1,6.5v37.7h15.3V43.5c0-11.2-4.9-15.2-14.3-15.2
		c-6.9,0-11.4,2.8-15.5,6.7l-1.3-5.3H269V84.7L269,84.7z"/>
	<path class="st0" d="M59.8,84.7h11.5V46.1c0-12.9-6-17.7-19.8-17.7c-5.9,0-10.8,1.2-15.2,3.2l3.4,11.6c3.2-1.5,6.7-2.6,10.4-2.6
		c5.2,0,6.1,2.4,6.1,7.8v2h-3.3c-16.3,0-23.9,5.2-23.9,18c0,10.9,4.7,17.6,16.2,17.6c3.8,0,6.8-1.1,9.2-2.6L52,75.3
		c-0.8,0.2-1.6,0.4-2.6,0.4c-4,0-5.4-1.9-5.4-7.4c0-5.9,1.6-8.4,11.4-8.4h0.8v12.4L59.8,84.7L59.8,84.7z"/>
	<path class="st0" d="M156.2,84.7h11.5V46.1c0-12.9-6-17.7-19.8-17.7c-5.9,0-10.8,1.2-15.2,3.2l3.4,11.6c3.2-1.5,6.7-2.6,10.4-2.6
		c5.2,0,6.1,2.4,6.1,7.8v2h-3.3c-16.3,0-23.9,5.2-23.9,18c0,10.9,4.7,17.6,16.2,17.6c3.8,0,6.8-1.1,9.2-2.6l-2.4-8.2
		c-0.8,0.2-1.6,0.4-2.6,0.4c-4,0-5.4-1.9-5.4-7.4c0-5.9,1.6-8.4,11.4-8.4h0.8v12.4L156.2,84.7L156.2,84.7z"/>
</g>
</svg>
