<?xml version="1.0" encoding="utf-8"?>
<!-- Generator: Adobe Illustrator 22.0.2, SVG Export Plug-In . SVG Version: 6.00 Build 0)  -->
<svg version="1.1" id="Ebene_1" xmlns="http://www.w3.org/2000/svg" xmlns:xlink="http://www.w3.org/1999/xlink" x="0px" y="0px"
	 viewBox="0 0 220 68.5" style="enable-background:new 0 0 220 68.5;" xml:space="preserve">
<style type="text/css">
	.st0{fill:#CDCCCC;}
	.st1{clip-path:url(#SVGID_2_);fill:#CDCCCC;}
	.st2{clip-path:url(#SVGID_2_);fill:#FFFFFF;}
	.st3{clip-path:url(#SVGID_4_);fill:none;stroke:#CDCCCC;stroke-width:4;stroke-miterlimit:10;}
</style>
<g>
	<path class="st0" d="M131.3,33.2l-2.6-10.1h1.4l1.2,5.1c0.3,1.3,0.6,2.5,0.8,3.5h0c0.2-1,0.5-2.2,0.8-3.5l1.3-5.1h1.4l1.2,5.1
		c0.3,1.2,0.6,2.4,0.7,3.5h0c0.2-1.1,0.5-2.2,0.8-3.5l1.3-5.1h1.3l-2.9,10.1h-1.4l-1.3-5.3c-0.3-1.3-0.5-2.3-0.7-3.3h0
		c-0.2,1-0.4,2-0.8,3.3l-1.4,5.3H131.3z"/>
	<path class="st0" d="M143.6,23.1v10.1h-1.3V23.1H143.6z"/>
	<path class="st0" d="M145.9,23.3c0.7-0.1,1.6-0.2,2.5-0.2c1.4,0,2.3,0.3,2.9,0.8c0.5,0.5,0.8,1.1,0.8,1.9c0,1.3-0.8,2.2-1.9,2.6v0
		c0.8,0.3,1.2,1,1.5,2c0.3,1.4,0.6,2.4,0.8,2.8h-1.3c-0.2-0.3-0.4-1.2-0.7-2.4c-0.3-1.4-0.8-1.9-2-2h-1.2v4.4h-1.3V23.3z
		 M147.2,27.9h1.3c1.4,0,2.3-0.8,2.3-1.9c0-1.3-0.9-1.9-2.3-1.9c-0.6,0-1.1,0.1-1.3,0.1V27.9z"/>
</g>
<g>
	<path class="st0" d="M137.3,49c-0.6,0.2-1.7,0.6-3.1,0.6c-1.5,0-2.8-0.4-3.8-1.3c-0.9-0.8-1.4-2.2-1.4-3.8c0-3,2.1-5.2,5.5-5.2
		c1.2,0,2.1,0.3,2.5,0.5l-0.3,1.1c-0.5-0.2-1.2-0.4-2.2-0.4c-2.5,0-4.1,1.5-4.1,4.1c0,2.6,1.5,4.1,3.9,4.1c0.9,0,1.4-0.1,1.7-0.3v-3
		H134v-1h3.3V49z"/>
	<path class="st0" d="M144.6,44.7h-3.9v3.6h4.4v1.1h-5.7V39.4h5.5v1.1h-4.2v3.2h3.9V44.7z"/>
	<path class="st0" d="M146.5,47.9c0.6,0.4,1.4,0.7,2.3,0.7c1.3,0,2.1-0.7,2.1-1.7c0-0.9-0.5-1.5-1.9-2c-1.6-0.6-2.7-1.4-2.7-2.9
		c0-1.6,1.3-2.7,3.3-2.7c1,0,1.8,0.2,2.2,0.5l-0.4,1.1c-0.3-0.2-1-0.5-1.9-0.5c-1.4,0-1.9,0.8-1.9,1.5c0,0.9,0.6,1.4,2,2
		c1.7,0.7,2.6,1.5,2.6,3c0,1.6-1.2,2.9-3.5,2.9c-1,0-2-0.3-2.6-0.6L146.5,47.9z"/>
	<path class="st0" d="M156,40.5H153v-1.1h7.5v1.1h-3.1v9H156V40.5z"/>
	<path class="st0" d="M162.1,46.3l-1,3.2h-1.3l3.4-10.1h1.6l3.5,10.1h-1.4l-1.1-3.2H162.1z M165.4,45.3l-1-2.9
		c-0.2-0.7-0.4-1.3-0.5-1.8h0c-0.2,0.6-0.3,1.2-0.5,1.8l-1,2.9H165.4z"/>
	<path class="st0" d="M169.7,39.4h1.3v9h4.3v1.1h-5.6V39.4z"/>
	<path class="st0" d="M177.1,40.5h-3.1v-1.1h7.5v1.1h-3.1v9h-1.3V40.5z"/>
	<path class="st0" d="M187.9,44.7H184v3.6h4.4v1.1h-5.7V39.4h5.5v1.1H184v3.2h3.9V44.7z"/>
	<path class="st0" d="M190,49.5V39.4h1.4l3.2,5.1c0.8,1.2,1.3,2.3,1.8,3.3l0,0c-0.1-1.4-0.1-2.6-0.1-4.2v-4.2h1.2v10.1h-1.3
		l-3.2-5.1c-0.7-1.1-1.4-2.3-1.9-3.4l0,0c0.1,1.3,0.1,2.5,0.1,4.2v4.3H190z"/>
</g>
<g>
	<path class="st0" d="M129.6,55.7c0.8-0.1,1.7-0.2,2.8-0.2c1.9,0,3.2,0.4,4.1,1.3c0.9,0.8,1.4,2,1.4,3.6c0,1.7-0.5,3-1.5,3.9
		c-0.9,0.9-2.5,1.5-4.5,1.5c-0.9,0-1.7,0-2.4-0.1V55.7z M130.9,64.7c0.3,0.1,0.8,0.1,1.3,0.1c2.8,0,4.3-1.6,4.3-4.3
		c0-2.4-1.3-3.9-4.1-3.9c-0.7,0-1.2,0.1-1.5,0.1V64.7z"/>
	<path class="st0" d="M145.4,60.9h-3.9v3.6h4.4v1.1h-5.7V55.6h5.5v1.1h-4.2v3.2h3.9V60.9z"/>
	<path class="st0" d="M156.6,61.2c-0.1-1.4-0.2-3.1-0.1-4.4h0c-0.3,1.2-0.8,2.4-1.3,3.8l-1.8,4.9h-1l-1.6-4.8
		c-0.5-1.4-0.9-2.7-1.2-3.9h0c0,1.3-0.1,3-0.2,4.5l-0.3,4.3h-1.2l0.7-10.1h1.7l1.7,4.9c0.4,1.2,0.8,2.4,1,3.4h0
		c0.3-1,0.6-2.1,1.1-3.4l1.8-4.9h1.7l0.6,10.1h-1.3L156.6,61.2z"/>
	<path class="st0" d="M169.3,60.5c0,3.5-2.1,5.3-4.7,5.3c-2.7,0-4.5-2.1-4.5-5.1c0-3.2,2-5.3,4.7-5.3
		C167.5,55.4,169.3,57.5,169.3,60.5z M161.4,60.7c0,2.2,1.2,4.1,3.2,4.1c2.1,0,3.2-1.9,3.2-4.2c0-2-1-4.1-3.2-4.1
		C162.5,56.5,161.4,58.5,161.4,60.7z"/>
	<path class="st0" d="M179.2,65.2c-0.6,0.2-1.7,0.6-3.1,0.6c-1.5,0-2.8-0.4-3.8-1.3c-0.9-0.8-1.4-2.2-1.4-3.8c0-3,2.1-5.2,5.5-5.2
		c1.2,0,2.1,0.3,2.5,0.5l-0.3,1.1c-0.5-0.2-1.2-0.4-2.2-0.4c-2.5,0-4.1,1.5-4.1,4.1c0,2.6,1.5,4.1,3.9,4.1c0.9,0,1.4-0.1,1.7-0.3v-3
		h-2.1v-1h3.3V65.2z"/>
	<path class="st0" d="M181.7,55.7c0.7-0.1,1.6-0.2,2.5-0.2c1.4,0,2.3,0.3,2.9,0.8c0.5,0.5,0.8,1.1,0.8,1.9c0,1.3-0.8,2.2-1.9,2.6v0
		c0.8,0.3,1.2,1,1.5,2c0.3,1.4,0.6,2.4,0.8,2.8H187c-0.2-0.3-0.4-1.2-0.7-2.4c-0.3-1.4-0.8-1.9-2-2H183v4.4h-1.3V55.7z M183,60.3
		h1.3c1.4,0,2.3-0.8,2.3-1.9c0-1.3-0.9-1.9-2.3-1.9c-0.6,0-1.1,0.1-1.3,0.1V60.3z"/>
	<path class="st0" d="M192,62.5l-1,3.2h-1.3l3.4-10.1h1.6l3.5,10.1h-1.4l-1.1-3.2H192z M195.3,61.5l-1-2.9c-0.2-0.7-0.4-1.3-0.5-1.8
		h0c-0.2,0.6-0.3,1.2-0.5,1.8l-1,2.9H195.3z"/>
	<path class="st0" d="M200,55.6h5.4v1.1h-4.1V60h3.8v1.1h-3.8v4.6H200V55.6z"/>
	<path class="st0" d="M209.2,55.6v10.1h-1.3V55.6H209.2z"/>
	<path class="st0" d="M217.2,60.9h-3.9v3.6h4.4v1.1H212V55.6h5.5v1.1h-4.2v3.2h3.9V60.9z"/>
</g>
<g>
	<defs>
		<rect id="SVGID_1_" x="-29.1" y="-4.3" width="336.1" height="81.3"/>
	</defs>
	<clipPath id="SVGID_2_">
		<use xlink:href="#SVGID_1_"  style="overflow:visible;"/>
	</clipPath>
	<path class="st1" d="M17.6,36.2c0,0,0-0.3,0-0.3C17.4,36,17.6,36.3,17.6,36.2 M13.1,34.8c0-0.1-0.1-1,0-1c0.1,0.1,0.2,0.5,0.2,0.6
		c0,0.1-0.1,0.5-0.1,0.5C13.1,34.9,13.1,34.8,13.1,34.8 M13.8,20.5c0.4-0.4,0.3,0.2,0.6,0.5c0.4,0.4-0.1,0.6-0.5,0.8
		C14.2,21.6,13.6,20.7,13.8,20.5 M8.2,12.3c0.3,0.7,1.2,1,1.8,1.4c0.3,0.2,0.5,0.7,0.9,0.6c0.2-0.1,0.7,0.2,0.9,0.3
		c0.9,0.6,0.5,1.5,0.9,2.3c0.2,0.5,0.2,1,0.4,1.4c0.1,0.2,0,0.5,0.2,0.6c0.1,0,0.5,0.5,0.5,0.5c0,0,0-0.4,0-0.4
		c-0.1,0.1,0-0.3,0.1-0.5c0.1-0.4,0.5-0.8,0.9-0.9c0.9-0.4,2.3,0.4,2,1.5c0,0.1,0-0.3,0,0c0,0,0,0,0,0c0,0,0,0.1,0,0.1
		c0,0,0,0,0-0.1c0.1,0.2,0,0,0,0.1c-0.2,0.3,0.1,0,0,0.1c0,0,0,0.4,0,0.5c0.2,0.2,0.1,0.4,0,0.6c-0.1,0.2-0.3,0.1-0.4,0.1
		c-0.1,0-0.3,0.7-0.2,0.8c0.3,0.4,0.2,0,0.4,0.1c0.2,0.1,0.3,0.3,0.5,0.4c1,0.3,1.2,1.4,1.5,2.3c0.2,0.7,0.5,0.9-0.1,1.2
		c-0.4,0.2-0.3,0.3-0.3,0.8c0,0.8-0.3,1.6-0.1,2.3c0.4,1.4,0.3,2.9,0.2,4.3c-0.1,0.8-0.1,1.6-0.1,2.4c0,0.1-0.5,1.5-0.4,1.4
		c0,0-0.2-0.1-0.2-0.1c-0.1,0.3,0.2,1.1-0.4,0.8c-0.3-0.2-1-0.4-1-0.7c0-0.1-0.4-0.1-0.2-0.4c0.1-0.2,0.3-0.3,0.3-0.5
		c0-0.1-0.3-0.5-0.3-0.6c-0.1-0.3,0.1-0.5,0.3-0.8c0.2-0.3-0.1-1-0.2-1.3c-0.2-0.6-0.1-1.2-0.4-1.7c0.1,0.2-0.3,0.8-0.4,0.9
		c-0.1,0.1,0,0.4,0,0.6c0,0.4-0.2,0.8-0.2,1.2c0,0.6,0.5,1,0.2,1.5c-0.2,0.5-0.2,0.6-0.2,1.1c0,0.3-0.1,0.5-0.4,0.5
		c-0.3,0-0.1,0.2-0.2,0.4c-0.1,0.1-0.2,0.1-0.3,0.1c-0.2,0.1-0.8,0-1-0.1c-0.5,0,0-0.4-0.1-0.6c0,0-0.7,0-0.8,0
		c-0.5,0-0.2-0.2-0.3-0.6c0-0.3,0.2-0.6,0.2-0.9c0-0.4,0.1-0.7,0.2-1.1c0-0.6-0.2-1.3-0.3-1.9c-0.1-0.8-0.1-1.5-0.5-2.3
		c-0.1-0.2-0.3-0.1-0.5-0.1c-0.1,0-0.2,0.4-0.2,0.5c-0.1,0.7-0.1,1.3-0.2,1.9c0,0.6-0.4,1.7,0,2.3c0.2,0.3,0.8,0.2,1,0.3
		c0.6,0.1-0.2,0.6-0.4,0.7c-0.5,0.2-0.6,0.1-0.5,0.7c0,0.2,0.1,0.6-0.1,0.8c-0.1,0.1-0.8,0.1-1,0.1c-0.6,0-0.3-0.4-0.4-0.7
		c-0.1-0.3,0.5-0.8-0.1-0.8c-0.4,0-1.6,0.2-1.7-0.4c-0.1-0.4,0.1-1,0.1-1.5c0-0.6,0-1.1,0-1.7c-0.1-0.6-0.1-1.2-0.2-1.8
		c0-0.6,0.1-1.2,0-1.8c0,0.3-0.4,1.1-0.4,1.5c-0.1,0.6-0.2,1.2-0.4,1.8c-0.2,0.8-0.2,1.5-0.2,2.3c0,0.2,0,0.3,0,0.5
		c0,0.3-0.1,0.6-0.1,0.8c0,0.1,0.3,0.1,0.2,0.2c0,0-0.4,0.3-0.4,0.3c-0.2,0.5,0.4,1.2-0.3,1.2c-0.3,0-0.7,0-1,0
		c-0.4,0-0.4-0.1-0.3-0.4c0.3-1-0.4-2.1-0.4-3.1c-0.1-2.1,0.5-4.1,0.2-6.1c-0.1-1-0.3-1.9-0.5-2.9c-0.2-1.3-0.3-2.5-0.3-3.8
		c0-0.2,0.1-1-0.1-1.1c-0.2-0.1-0.5,0.1-0.7-0.1c-0.5-0.3,0-1.9,0-2.5c-0.1-1.1,0.2-2.5,1.1-3.3c0.5-0.4,1.3-0.8,1.7-1.2
		c0.2-0.2,0.2-0.5,0.4-0.7c0.2-0.2,0.3-0.1,0.2-0.6C6.2,11,6,11,5.9,10.9c-0.1-0.2-0.2-0.5-0.2-0.7c0-0.3,0.2,0,0.1-0.4
		c0,0-0.1-0.3-0.1-0.2C5.7,9.5,5.7,9.3,5.6,9.3c0,0,0-0.2,0-0.1c0,0,0-0.1,0-0.1c-0.1,0,0-0.7,0.2-0.8c0.5-0.4,1-0.8,1.7-0.7
		c0.3,0,0.4,0,0.7,0.1c0.1,0,0.1,0.3,0.2,0.3c0.1,0.2,0.2,0,0.4,0.1C9,8.2,9,8.6,9,8.8c0,0,0,0.1,0,0.1c0,0,0,0,0-0.1
		c0,0,0,0.1,0,0.1C9,8.9,9,9.1,9,9c0,0,0,0,0,0c0,0.2,0,0,0,0c0,0,0,0.1,0,0.1c0,0,0,0,0,0c0,0,0,0.1,0,0.1c0,0,0,0,0,0
		c0,0.4-0.1,0.8,0,1.2c0,0.2-0.1,0.7-0.2,0.9C8.7,11.6,8.1,12.1,8.2,12.3"/>
	<path class="st1" d="M34.1,26.5c-0.1,0.3-0.3,0.5-0.4,0.8c0,0.3,0,0.5,0,0.8c-0.1,0.4-0.2,0.6-0.4,0.8c0,0.2,0.2,0.3,0.3,0.5
		c0.3,0.6,0.3,1.3,0.7,1.7h0c0.3-0.9,0.3-2.3,0.1-3.4C34.2,27.3,34.3,26.8,34.1,26.5 M30,26.4c-0.3,0.6-0.5,1.4-0.7,2.1
		c0.3,0,0.6,0,0.9,0C30.1,27.9,30.1,27.2,30,26.4 M37.5,23.4c-0.1,0.1-0.1,0.1-0.2,0.2c0,0,0,0,0,0.1h0.1
		C37.4,23.6,37.5,23.5,37.5,23.4L37.5,23.4z M38.8,23.3c-0.1,0.1-0.2,0.2-0.4,0.3c0.1,0.2,0,0.5,0.1,0.7c0,0,0,0,0,0
		C38.6,24,38.9,23.5,38.8,23.3 M31.1,22.9c-0.1,0-0.2,0.1-0.2,0.1c0.1,0.6-0.2,1-0.1,1.6c0.1,0,0.1,0,0.2,0v0
		c-0.1,0.2-0.2,0.3-0.3,0.4c0.1,0.1,0.1,0.1,0.1,0.2c-0.3,0.1-0.2,0.3-0.2,0.6c-0.1,0.4-0.2,2.9,0,3.1c0.1,0,0.2,0,0.3,0
		c0,0,0,0,0-0.1c-0.2-0.1,0.2-1.1,0.1-1.5c0-0.3,0-0.6,0.1-0.9V26c0.1-0.5,0.1-1.3,0.3-1.8c0.1-0.1,0.1-0.1,0.2-0.2
		C31.5,23.8,31.1,23,31.1,22.9 M44.6,34.1c0,0.4-0.1,1-0.4,0.9c-0.1,0-0.2,0-0.3,0c-0.1-0.1-0.1-0.2-0.2-0.3
		c-0.1,0.1-0.2,0.2-0.3,0.3c-0.2,0.1-0.3,0.3-0.6,0.2c-0.6-0.5,0.2-1.3,0-1.9c-0.1-0.1-0.2-0.2-0.3-0.3c-0.2-0.4-0.2-0.9-0.4-1.3
		c-0.2-0.3-0.4-0.6-0.6-0.9c-0.2-0.5-0.4-1-0.6-1.5c-0.1-0.2-0.2-0.4-0.3-0.6c-0.1-0.4,0.4-0.4,0.3-0.8c-0.1-0.2-0.1-0.4-0.2-0.6
		c0-0.2,0.1-0.3,0.1-0.5c0.1-0.4-0.1-0.9,0-1.3h0c-0.3-0.1-0.4,0.1-0.7,0c-0.2-0.1-0.3-0.2-0.5-0.2c-0.1-0.1-0.1-0.2-0.2-0.3
		c-0.2-0.1-0.5,0-0.7-0.1c0-0.1,0-0.1-0.1-0.2c-0.1,0-0.2,0-0.3,0c-0.2,0.6-0.5,0.9-1.3,0.9c0,0,0,0,0-0.1c0.1-0.3,0.6-0.6,0.4-1
		c0,0-0.1-0.1-0.1-0.1h0c-0.1,0.7-0.7,1-0.9,1.7c-0.2,1.1-0.3,2.3-0.5,3.4c-0.1,0.4,0,0.8,0.1,1.1c-0.1,0.3-0.1,0.6-0.2,0.9
		c0,0.3,0,0.6-0.1,1c-0.1,0.1-0.1,0.3-0.2,0.4c-0.1,0.4,0,0.7-0.1,1c-0.1,0.3-0.4,0.5-0.5,0.9c-0.1,0.5,0.1,0.9,0,1.4
		c-0.4,0.2-0.7,0-1.1,0.1c-0.1,0.1-0.2,0.2-0.4,0.3c-0.5,0.3-0.9,0-1-0.5c-0.2-0.8,0.8-1.5,0.5-2.3c-0.1-0.4-0.7-0.7-0.9-1.1
		c-0.3-0.6-0.6-1.2-0.9-1.8c-0.2-0.4-0.2-1-0.5-1.3h0c-0.3,1.3-0.7,2.8-1.2,4c-0.1,0.2-0.3,1.2-0.4,1.3c-0.3,0.1-1,0-1.1-0.2
		c0-0.1-0.1-0.2-0.1-0.4c-0.6-1.1-0.7-3-0.4-4.4c0.1-0.3,0.1-1.4,0.2-1.4c0.3,0,0.6,0,0.8-0.1c0.3-1.1,0.7-2.2,1.1-3.3
		c0.1-0.3-0.2-0.7-0.3-0.9c-0.1-0.2,0.1-0.4,0.1-0.5c0-0.3,0-0.6,0-0.9c-0.4-0.3-0.7-1-0.5-1.9c0-0.2,0.1-0.3,0.1-0.5
		c-0.1-0.4-0.1-0.8-0.1-1.3c0-0.2,0-0.4,0-0.7c-0.1-0.6-0.3-1.6-0.2-2.2c0.1-0.3,0.2-0.5,0.3-0.8c0.2-0.6,0.3-1,0.6-1.4
		c0.6-0.7,1.8-0.6,2.5-1.2c-0.4-0.4-0.4-0.7-0.2-1.4c0-0.1,0-0.2,0-0.3c0.2-1,0.6-1.4,1.7-1.6c1.5-0.3,1.9,2.2,1,2.8
		c0,0.1,0.3,0.8,0.4,0.9c0.2,0.2,0.5,0.3,0.8,0.4c0.7,0.3,1.6,0.7,2,1.3c0.4,0.6,0.3,1.7,0.7,2.2c0.4-0.3,0.6-1,0.8-1.5
		c0.1-0.4,0-0.7,0.3-1c0.2-0.3,0.9-0.5,1.3-0.6c0.2,0,0.4-0.1,0.6-0.1c0.1-0.4-0.2-0.7-0.3-1c0-0.2,0.1-0.4,0.1-0.6
		c-0.1-1,0-2,1.1-2.2c0.5-0.1,1.2,0.2,1.4,0.5c0.1,0.1,0.1,0.3,0.1,0.5c0.1,0.2,0.2,0.3,0.3,0.5c0.2,0.4,0.2,1.1-0.2,1.3
		c-0.2,0-0.3,0-0.5,0.1c0,0,0,0.1-0.1,0.1c0,0.1,0.5,0.7,0.6,0.8c0.3,0.1,0.5,0.2,0.8,0.3c0.4,0.1,0.7,0.1,0.9,0.3
		c0.2,0.3,0.3,0.9,0.4,1.4v0.7c0.1,0.5,0.1,1.2,0.2,1.8c0,0.3-0.1,0.5-0.1,0.7c0.1,0.6,0.3,1.2,0.4,1.7c0.1,0.5,0.3,1.6,0.2,1.9
		c0,0-0.1,0-0.1,0.1c0.2,0.6,0.4,1.1-0.1,1.5c-0.2,0-0.5-0.1-0.7-0.2c0,0,0-0.1,0-0.1h0c0,0,0,0,0,0.1c-0.2,0.3-0.1,2.1-0.2,2.7
		c-0.3,1.9-0.3,4-0.7,5.8c-0.1,0.5,0,1-0.2,1.3C45,34,44.8,34,44.6,34.1"/>
	<path class="st2" d="M100.7,54.5c0.1,0.8,0.4,1.3,0.6,2c0.1,0,0.2,0,0.3,0c0.1-0.1,0.1-0.1,0.2-0.2c-0.2-0.3-0.4-0.5-0.6-0.8
		C101,55.2,100.8,54.9,100.7,54.5 M94.8,41.6C94.8,41.6,94.8,41.6,94.8,41.6c0.1-0.2,0.2-0.2,0.2-0.4h0v0c-0.1,0.1-0.2,0.2-0.2,0.3
		C94.8,41.5,94.8,41.6,94.8,41.6 M106.5,38.3C106.5,38.3,106.5,38.3,106.5,38.3C106.5,38.3,106.5,38.3,106.5,38.3 M94.4,35.3
		L94.4,35.3L94.4,35.3C94.4,35.4,94.4,35.4,94.4,35.3 M94.5,35.3C94.5,35.3,94.5,35.3,94.5,35.3C94.5,35.3,94.5,35.3,94.5,35.3
		 M94.5,35.3C94.5,35.3,94.5,35.3,94.5,35.3C94.5,35.3,94.5,35.3,94.5,35.3 M99.6,32.5c0,0.4-0.3,0.6-0.3,0.9h0c0,0,0,0,0.1,0
		c0.1-0.1,0.1-0.2,0.3-0.3c0.1,0,0.2,0,0.2-0.1v0C99.8,32.9,99.8,32.6,99.6,32.5 M106.4,38.5c0,0.1-0.1,0.4-0.1,0.5c0,0,0,0-0.1,0.1
		c0,0.1-0.1,0.3-0.1,0.4v0.1c-0.1,0.3-0.2,0.7-0.3,1c-0.1,0.2-0.3,0.4-0.4,0.6c0,0.1-0.1,0.2-0.1,0.3c0,0.1,0,0.2,0,0.2
		c-0.1,0.1-0.3,0.4-0.3,0.5v0.2c-0.1,0.3-0.1,0.6-0.2,0.9c0.1,0.2,0.1,0.5,0.2,0.7c0,0.1,0,0.3,0,0.4c0,0.3,0.1,0.5,0.1,0.8
		c0,0.1,0,0.3,0,0.4v0.4c0,0.2,0,0.4-0.1,0.6c0,0.1,0,0.3,0,0.4c0.2,1.1,0.2,2.4,0.4,3.5c0,0.4,0.1,0.7,0.1,1.1
		c0,0.5,0.1,0.9,0.1,1.4c0.1,0.5,0.1,1,0.2,1.4c0.2,1,0.3,2.1,0,2.9c0,0,0,0,0,0h-0.1c0,0,0,0.4-0.1,0.4c0.1,0.1,0.1,0.6,0.1,0.8
		c-0.1,0-0.1,0.1-0.1,0.1c-0.1,0.8-1.6,0.6-2.3,0.4c0-0.4,0.2-0.6,0.3-0.9c-0.4,0-0.7,0.1-1,0.1c-0.2,0-0.5,0-0.7-0.1
		c-0.2,0-0.4,0.2-0.6,0.2c-0.1,0-0.3,0-0.4,0c-0.6,0.1-1.7,0-2-0.4c0.1-0.2,0.1-0.3,0.2-0.4c-0.1,0-0.1,0-0.2,0
		c0-0.1-0.1-0.1-0.2-0.2c-0.1-0.6-0.1-1.2-0.2-1.8c0-0.3,0-0.5,0-0.8c0-0.2-0.1-0.4-0.1-0.6c0-0.3,0-0.7,0-1
		c-0.1-0.6-0.1-1.2-0.2-1.8c0-0.3,0-0.6,0-0.9c-0.1-0.5-0.2-1-0.3-1.5c0-0.3,0-0.6-0.1-0.9c-0.2-0.7-0.3-1.3-0.5-2.1h0h0
		c-0.1,0.3-0.2,0.6-0.3,0.8c-0.2,0.6-0.3,1.2-0.4,1.7c-0.3,1-0.4,2.2-0.6,3.3c0,0.1,0,0.2,0.1,0.3c0,0.4,0.1,0.8,0.1,1.2
		c0,0.7,0.1,1.3,0.1,2c0,0.2,0,0.3,0,0.5c0,0.4,0.1,0.8,0.1,1.2c-0.1,0.3-0.1,0.5-0.2,0.8c0.1,0.1,0.1,0.1,0.2,0.2
		c0.1,0.1,0.2,0.1,0.2,0.3c0,0-0.1,0-0.1,0c0,0,0,0,0,0c-0.3,0-0.5,0-0.8,0c-0.3-0.1-0.6-0.1-0.9-0.2v-0.2h0c-0.1,0-0.2,0.1-0.2,0
		v-0.3c-0.1,0-0.3,0-0.4,0c-0.2-0.3-0.1-0.8-0.1-1.3c0-0.2,0-0.5-0.1-0.7v-1.2c0-0.5,0-1,0-1.6c0.1-0.9,0.1-1.7,0.2-2.6
		c0-0.4,0-0.8,0-1.2c0.1-0.6,0.2-1.3,0.1-1.9v-1c0-0.1-0.1-0.3-0.1-0.4v-0.4c-0.1-0.5-0.2-1.2-0.2-1.8v-0.5c0.1-0.5,0.2-0.9,0.4-1.3
		c0.1-0.2-0.1-0.2-0.1-0.4c0-0.1,0.2-0.2,0.2-0.3c0.1-0.3,0.1-0.8,0.2-1.1c0-0.1,0-0.2,0-0.2c0,0,0.1,0,0.1-0.1
		c-0.4-0.2-0.4-0.5-0.5-1c0-0.1-0.1-0.2-0.1-0.3c0-0.2,0.2-0.2,0.2-0.4c-0.1-0.1-0.1-0.2-0.2-0.3c0-0.1,0.1-0.2,0.3-0.2
		c0-0.2-0.1-0.4-0.2-0.5c0-0.3-0.1-0.5-0.1-0.8c0,0-0.1,0-0.1,0c0,0,0,0,0,0c0,0,0,0,0,0c-0.1,0-0.4,0.1-0.5,0v0
		c0.1,0,0.3,0,0.3-0.1c-0.1-0.1-0.1-0.1-0.2-0.2c0-0.2,0.2-0.3,0.2-0.5h0c0,0,0,0,0,0c0.1-0.2,0.3-0.5,0.4-0.6
		c0-0.5,0.4-1.1,0.8-1.1c0-0.2,0.1-0.2,0.2-0.3v-0.1c0-0.2,0.2-0.3,0.3-0.4c0,0,0,0,0-0.1c0.1-0.2,0-0.2,0-0.4c0,0,0,0-0.1,0.1
		c0,0.1-0.1,0.1-0.1,0.1c0-0.1,0.1-0.2,0.1-0.2c0,0,0,0,0,0c0.1,0,0.1,0,0.1-0.1c-0.1-0.2,0-0.6,0.1-0.8c0.1-0.1,0.1-0.2,0.2-0.2
		c0.1-0.2,0.1-0.3,0.2-0.5c0.3-0.4,0.8-0.9,1.4-1c0.1,0,0.2,0,0.3,0.1c0.1,0,0.2,0,0.3,0c0,0,0,0,0,0c0-0.1,0-0.4,0-0.5c0,0,0,0,0,0
		c0-0.2,0.1-0.3,0-0.5c0,0,0,0,0.1,0c0,0,0,0,0-0.1h0.1v0c0,0,0,0-0.1-0.1c0-0.1,0-0.1,0-0.1c0-0.2,0.1-0.1,0.2-0.2
		c0.2-0.3,0.8-0.5,1.1-0.5c0-0.1,0,0,0-0.1c0,0,0.1,0.1,0.2,0.1c0-0.1,0-0.1,0.1-0.1c0.1,0,0.1,0,0.2,0c0,0,0,0.1-0.1,0.1h0
		c0.1-0.1,0.5,0,0.6,0.1c0,0,0,0.1,0,0.1c0.1,0.1,0.4,0.1,0.4,0.3h-0.1c0.2,0.3,0.2,0.6,0.2,1.1c0,0.1,0,0.3,0,0.4
		c0,0,0.1,0,0.1,0.1c0,0.4,0,0.8-0.3,1.1c0,0.4,0.2,0.7,0.5,0.9c0.2-0.1,0.4,0.1,0.6,0.1c0.5,0.1,0.9,0.2,1.3,0.3
		c0.3,0.1,0.6,0.5,0.8,0.8c0.1,0.2,0.3,0.4,0.4,0.6c0.1,0.1,0.1,0.3,0.1,0.5c0.4,0.7,0.7,1.6,1,2.4c0.1,0.3,0.5,1.4,0.4,1.7
		c0,0-0.1,0.1-0.1,0.1c0,0,0,0,0,0c0,0,0,0,0.1,0C106.5,38.4,106.5,38.5,106.4,38.5L106.4,38.5z"/>
	<path class="st1" d="M61.1,25.6L61.1,25.6c-0.1,0.5-0.4,0.6-0.6,0.8c0,0.2,0.4,1,0.6,1.1h0c0-0.1,0.2-0.1,0.2-0.2c0,0,0-0.5,0-0.6
		c0.1,0,0.2,0,0.2,0c0,0,0,0,0,0C61.6,26.4,61.3,25.8,61.1,25.6 M65.8,32.4c0.4,0.1,0.4,0.9,0.2,1.2c-0.3,0.1-0.6-0.3-0.9-0.2v0
		c0.1,0.1,0.3,0.2,0.4,0.3c0,0.1,0,0.2,0,0.4c0,0.1,0.1,0.2,0.2,0.3c0.1,0.2,0.1,0.4,0.1,0.6h0c-0.1,0-0.3-0.1-0.5-0.1
		c0,0.1,0,0.1,0,0.2c-0.2,0-0.2-0.1-0.5-0.1v0c-0.3,0.5,0.1,1,0.1,1.6c0,0.3,0,0.7,0.1,1c0,0.3-0.1,0.7-0.1,0.9
		c-0.1,0.4,0.1,0.9,0.1,1.2c0.1,0.3,0.1,0.8,0.3,0.9c0.6,0.4,2.2,0.2,2.2,1c-0.4,0.6-1.4,0.5-2.4,0.7c-0.3,0-0.8,0.1-1,0
		c0-0.2,0.1-0.3,0.1-0.5c0-0.2-0.1-0.4-0.1-0.5c0-0.1,0.1-0.3,0.1-0.4c-0.1-0.6-0.5-1.1-0.8-1.6c0,0,0,0,0,0
		c-0.1,0.2-0.2,0.4-0.2,0.7c-0.3,0.1-0.6,0-0.9,0c0,0.5-0.2,1.1,0,1.5c0.1,0.3,0.9,1,0.7,1.4c-0.4,0.1-1.3,0.3-1.7,0.2
		c-0.1-0.1-0.5-0.8-0.4-1.1c0-0.1,0.2-0.2,0.3-0.3c0.2-0.2,0.1-0.8,0.1-1.1c-0.1-0.4-0.2-0.8-0.2-1.2c0-0.5-0.1-1-0.1-1.5
		c-0.1-0.6,0.2-1.2,0.1-1.7c0-0.1-0.1-0.3-0.1-0.4c-0.1-0.3,0-0.6-0.1-0.8c-0.1-0.1-0.2-0.2-0.2-0.4c0.1-0.2,0.3-1,0.2-1.4
		c0-0.2-0.1-0.4-0.1-0.6c0.1-0.1,0.1-0.2,0.2-0.3c0-0.1,0-0.3,0-0.4c0.1-0.4,0.3-0.9,0.2-1.5c-0.1-0.4-0.3-0.7-0.4-1.1
		c0-0.4,0.1-0.9,0.2-1.2c0.1-0.1,0.3-0.4,0.2-0.6c-0.2-0.4-0.4-0.7-0.6-1.1c-0.1-0.1-0.5-0.2-0.6-0.3c-0.8-0.7-1.8-1.3-2.3-2.2
		c-0.7-1.2-0.2-2.8,0.7-3.4c0.3-0.2,0.6-0.2,0.9-0.3c1.9,0,2.6,1.4,2.8,3.1h0c0.4-0.2,1-0.1,1.5,0.2c0.1,0.1,0.2,0.2,0.4,0.3
		c0,0.1-0.1,0.3,0,0.3c0,0.1,0.2,0.3,0.2,0.5c0.1,0.3-0.1,0.7,0,0.9c0.1,0.1,0.2,0.2,0.2,0.4c0,0.3-0.2,0.5-0.3,0.7
		c0,0.1,0,0.2,0,0.3c-0.1,0.3-0.4,0.3-0.7,0.3c0,0,0,0,0,0c0.7,0.5,1,1.1,1.2,2.1c0.1,0.4,0.3,0.7,0.4,1.2c0.1,0.5,0,1.4,0.2,1.7
		c0.1,0,0.1,0.1,0.2,0.1C65.4,32.5,65.6,32.3,65.8,32.4 M77.6,19.5c-0.2,0.1-2-0.8-1.7-1.1c-0.2,0.4,0.1,1.7,0.1,2.2
		c0,0.9,0.1,1.7,0,2.6c0,0.4,0,0.8,0,1.3c0,0.6-0.2,1.1-0.2,1.6c0,0.9,0,2-0.1,2.9c-0.1,0.6,0,1.5-0.4,2.1c-0.6,1,0.1,2.4,0,3.4
		c-0.1,1-0.2,1.8,0,2.8c0.1,0.4,0.3,1,0.3,1.4c0,0.2,0,0.4,0,0.7c0,0.5-0.2,0.2-0.3,0.4c0,0,0.3,0.4,0.3,0.4
		c0.1,0.3-0.1,0.3-0.1,0.5c-0.1,0.1,0.4,0.6,0.4,0.6c0.4,0.1,0.4,0.5,0.5,0.9c0.3,0.5-0.9,0.5-1.2,0.5c-0.2,0-0.5,0.1-0.7,0
		c-0.3-0.1-0.4-0.8-0.9-0.6c-0.5,0.2-0.6-0.2-0.6-0.4c-0.1-0.4-0.3-0.7-0.4-1.2c-0.2-0.9,0.1-1.6,0.1-2.5c0-0.5,0-1-0.1-1.5
		c0-0.7-0.3-1.2-0.4-1.8c-0.1-0.2,0-0.4,0.2-0.6c0.1-0.1,0-0.5-0.1-0.6c0-0.6-0.2-1.2-0.2-1.8c-0.1-0.5-0.2-1-0.2-1.5
		c0-0.2-0.2-1.5-0.1-1.7c-0.2,0.3-0.1,1-0.2,1.3c-0.2,0.5-0.1,1-0.2,1.5c0,0.5-0.1,0.9-0.1,1.4c-0.1,0.5-0.4,0.8-0.3,1.4
		c0.2,1.1,0.1,2.1,0.3,3.2c0.1,0.7-0.2,2.5,0.3,3c0.3,0.3-0.1,1.1-0.4,1.3c-0.2,0.2-0.2,0.8-0.7,0.8c-0.2,0-0.1,0.6-0.7,0.7
		c-0.4,0-0.7,0-1.1,0c-0.3,0-0.7,0.1-0.6-0.4c0-0.3,0.1-0.7,0.4-0.9c0.1-0.1,0.2-0.5,0-0.6c-0.2-0.1-0.5-0.3-0.4-0.6
		c0.1-0.3,0.5-0.2,0.7-0.4c0,0-0.5-0.8-0.5-0.8c-0.1-0.5,0.1-1.1-0.1-1.5c-0.3-0.8-0.4-1.7-0.6-2.6c-0.2-0.9,1-1.7,0.5-2.6
		c-0.4-0.7-0.1-1.7-0.4-2.5c-0.2-0.8-0.3-1.7-0.4-2.5c0-0.9-0.3-1.6-0.1-2.5c0.1-0.7,0.6-6,0.3-6c-0.1,0-0.9,0.7-1.1,0.8
		c-0.8,0.2-1-0.2-1.1-0.9c-0.1-0.7-0.5-1,0-1.7c0.1-0.2,0.4-0.7,0.3-1c0,0,0.5-0.8,0.6-0.9c0.2-0.3,0.3-0.7,0.5-1
		c0.2-0.3,0.4-1,0.8-1.1c0.5-0.2,0.8-0.2,0.5-0.8c-0.3-0.5,0.5-0.8,0.5-1.2c0-0.1-0.2-0.3-0.3-0.4c-0.1-0.2,0-0.7-0.1-0.8
		c-0.3-0.5,0.4-2.1,1-2.2c0.3-0.1,0.5-0.2,0.8-0.4c0.1-0.1,0-0.4,0-0.3c-0.2,0.2-0.6-0.6-0.4-0.9c0.1-0.2-0.1-0.8-0.1-1
		c0-0.5,0.5-0.8,0.9-1c0.6-0.3,1.3-0.1,1.7,0.3c0.3,0.3,0.4,0.4,0.4,0.8c0,0.1,0,0.8,0,0.8c0,0-0.2,0.8-0.2,0.9
		c0,0.2,0.5,0.4,0.7,0.6c0.4,0.3,0.7,1.1,0.8,1.5c0.2,0.6-0.1,0.8-0.3,1.2c0-0.1,1.1,0.9,1.2,1.1c0,0.2,0,1.1,0.2,1.2
		c0.5,0.3,1,0.3,1.5,0.7c0.2,0.1,0.3,0.4,0.5,0.6c0.1,0.2,0.1,0.4,0.2,0.6c0.1,0.3,0.4,0.3,0.5,0.6c0,0.1,0,0.2,0,0.3
		c0,0.1,0.2,0.1,0.3,0.2c0.1,0.2,0,0.5,0.1,0.7c0.3,0.4,0.6,0.8,0.7,1.3c0.1,0.5-0.3,0.7-0.3,1.1C78.2,18.9,77.9,19.4,77.6,19.5
		 M88.6,35.9c-0.1-0.6-0.2-1.3-0.3-1.9c0-0.4,0-1.1-0.3-1.3c-0.7-0.8-0.9-2.1-1.4-3.1c-0.1,0.4-0.2,0.7-0.3,1.1c0,0.2-0.3,0.8-0.2,1
		c0.3,0.8,0.7,1.6,0.7,2.6c0.1,1-0.3,2-0.3,3.1c0,0.5,0,1,0.1,1.4c0.1,0.4,0.7,0.8,0.6,1.3c0.6-0.1,0.3,1,0.3,1.4
		c0.5-0.7,0.7-1.2,1-2C89,38.3,88.8,37.1,88.6,35.9 M83.2,24c0,0.1,0,0.1,0,0.2C83.2,24.2,83.3,24,83.2,24 M93.2,20.8
		c0,0.3,0.1,0.6,0,0.8c-0.1,0.4-0.3,0.1-0.6,0.1c-0.5-0.1-1,0.2-1.5-0.1c0.1,0.4,0,1,0,1.3c0.1,0.6-0.7,6.3-0.6,6.4
		c-0.1,0-0.2,0-0.3-0.1c-0.2,2,1.1,3.6,0.8,5.5c-0.1,0.8-0.3,1.6-0.5,2.4c-0.2,0.9-0.6,1.7,0,2.5c0.1,0.1,0.1,0.4,0.2,0.4
		c0.1,0,0.2,0.1,0.2,0.2c0.1,0.4-0.1,0.9-0.1,1.4c0,0.2,0.4,0.8,0.2,1c-0.1,0.2-0.8,0.3-1,0.3c-0.3,0-0.5,0.4-0.8,0.5
		c-0.4,0.1-0.9,0.1-1.3,0.1c-0.5,0-1-0.1-1.5-0.2c-0.3-0.1-0.1-0.4-0.1-0.6c-0.4,0-0.7-0.3-1.1-0.2c-0.5,0.2-0.9,0.3-1.5,0.4
		c-0.4,0-0.8-0.1-1.2-0.2c-0.5-0.2-0.4-0.2-0.4-0.6c0-0.7,0.3-0.7,0.8-0.9c0.5-0.2,0.8-0.6,1.2-1l0,0c0.4-0.7,0.7-1.1,0.6-1.9
		c-0.1-0.7-0.2-1.4-0.4-2.1c-0.2-0.7-0.3-1.4-0.5-2.1c-0.1-0.6-0.1-1.2-0.3-1.8c-0.2-0.6-0.4-1.3-0.5-2c0-0.3,0-1.6-0.3-1.6
		c-0.7-0.1-0.3-1-0.2-1.5c0.1-0.6,0.2-1.2,0.3-1.8c-0.4-0.1-0.6-1-1-1.2c-0.3-0.2-0.4-0.7,0-0.9c0.2-0.1,0-0.3,0.2-0.3
		c-0.2,0,0.1-0.9,0.2-0.9c0-0.8,0.9-1.3,0.7-2c-0.1-0.3-0.4-0.2-0.8-0.1c-0.4,0.1-0.8-0.5-0.7-0.9c0-0.2,0.2-0.4,0.1-0.6
		c0-0.3-0.2-0.6-0.2-0.9c0-0.5,0.2-0.9,0.3-1.4c0-0.3,0.1-0.6,0.1-0.8c0-0.2-0.3-0.3-0.3-0.5c-0.1-0.2-0.1-0.4-0.1-0.7
		c0-0.2-0.5-0.2-0.4-0.5c0.1-0.2,0.2-0.5,0.3-0.7c0.2-0.4,0.5-0.7,0.1-1c0.1,0,0.1,0,0.2,0c-0.1-0.1-0.2-0.1-0.3-0.3
		c0.1,0.1,0.2,0.1,0.3,0.1c-0.1-0.1-0.1-0.1-0.1-0.2c0.2,0.2,0.5,0.2,0.5-0.1c0-0.3-0.4-0.6-0.5-0.8c-0.3-0.6-0.1-1.7,0.2-2.3
		c0.6-1.3,2.7-1.4,3.4-0.1c0.2,0.3,0.1,0.7,0.1,1c0,0.2-0.2,0.3-0.1,0.5c0.2,0.3-0.4,1.3-0.6,1.4c-0.6,0.4-0.2,0.6,0.1,1.2
		c0.1,0.3,0.5,0.3,0.5,0.7c0,0.2,0,0.4,0,0.6c0.4,0,0.8-0.5,1.2-0.6c0.5-0.1,1-0.4,1.5-0.5c-0.3-0.3-0.7-0.2-1.1-0.3
		c-0.4-0.1-0.3-0.8-0.3-1c0-0.6-0.8-1.2-0.2-1.8c0.1-0.3,0.2-1,0.4-1.5c0.5-1,1.4-1.4,2.5-1.3c0.5,0.1,1.1,0.3,1.3,0.8
		c0.1,0.2,0.4,0.7,0.3,1c-0.1,0.4,0.2,0.7,0.4,1c0.2,0.4,0.3,0.8,0.4,1.2c0.2,0.8,0.4,1.6,0.6,2.4c0.3,0.9,0.7,1.7,0.8,2.6
		c0.1,0.8,0,1.7,0.2,2.5C93.6,19.1,93.3,19.9,93.2,20.8"/>
	<path class="st2" d="M31.8,46.8c0,0,0.1,0.4,0.1,0.5c0,0.1,0,0,0,0.1c-0.1,0.1-0.1,0.1-0.1,0C31.8,47.3,31.8,46.8,31.8,46.8
		C31.8,46.7,31.8,46.8,31.8,46.8 M30.4,29.4c0,0.1,0,0.2,0,0.3c0,0.1-0.1,0.5-0.1,0.6c0,0.2,0,0.1,0,0.1c0.1,0,0.2,0,0.2,0.1
		c0.1,0.1-0.1,0.3-0.1,0.4c0,0.1-0.2,0.3-0.2,0.4c0,0.1-0.1,0.2-0.2,0.2c0,0,0,0.2,0,0.3c0,0.1,0,0.1,0.1,0.1c0,0,0.1,0,0.2,0
		c0.1,0.1,0,0.3,0,0.5c0,0.2,0.3,0.4,0.4,0.5c0.1,0.1-0.1,0.1,0.1,0.2c0.1,0.1,0.1,0.1,0.3,0.2c0.1,0.1,0.9,0.9,1.1,1.1
		c0.2,0.1,0.4,1,0.5,1.2c0.1,0.2,0.1,0.6,0.2,0.8c0,0.2,0,0.6,0,0.8c0,0.1,0,0.5,0.1,0.6c0.1,0.1,0.8,0.9,0.9,1
		C34,38.7,34,39,34,39.1c0,0.1-0.1,0.4-0.2,0.6c-0.1,0.2-0.3,0.3-0.3,0.3c-0.1,0,0,0.1,0,0.2c0,0.2-0.3,0.4-0.4,0.5
		c-0.1,0-0.3,0.1-0.4,0.1c0,0-0.2,0.4-0.2,0.4c-0.1,0-0.1,0.5-0.1,0.6c0,0.1-0.2,0.7-0.2,0.8c0,0.1,0,0.6,0.1,0.9
		c0,0.2,0.2,0.9,0.3,1.1c0.1,0.2-0.1,0.4-0.1,0.5c-0.1,0.1-0.4,0.1-0.4,0.1c-0.1,0-0.1,0-0.1,0.1c0,0.1,0,0.8,0,0.9
		c0,0.1-0.1,0.5-0.1,0.6c0,0.1,0,0,0.1,0.1c0.1,0.1,0.2,0.6,0.1,0.8c0,0.2-0.1,0.3-0.1,0.3c-0.1,0-0.1,0,0,0.1
		c0,0.1,0.1,1.5,0.1,1.7c0,0.1-0.1,1.6-0.1,1.7c0,0.1-0.1,1-0.1,1.1c0,0.1-0.1,1.1-0.1,1.2c0,0.2-0.1,0.6-0.1,0.8
		c0,0.2-0.1,0.9-0.1,1c0,0.1-0.1,0.9-0.1,1c0,0.2,0,0.6,0,0.7c0,0.1-0.1,0.9-0.1,1c-0.1,0.4-0.3,0.4-0.3,0.6c0,0.2,0.2,0.5,0.3,0.6
		c0.2,0.1,0.2,0.5,0.3,0.6c0,0.1-0.1,0.4-0.2,0.5c-0.1,0.1-0.2,0.2-0.3,0.2c0,0-0.1,0-0.1,0.1c0,0.1-0.1,0.3-0.1,0.4
		c0,0.1-0.1,0.2-0.1,0.2c0,0,0,0.4,0,0.4c0,0-0.1,0.2-0.2,0.2c-0.1,0-0.1,0-0.1,0c0,0,0,0.3-0.1,0.4c0,0-0.1,0.2-0.1,0.1
		c0,0,0,0,0,0c0,0,0,0-0.1,0c0,0,0,0,0,0c0,0-0.1,0-0.1,0c0,0,0,0-0.1,0c0,0-0.1,0-0.1,0c0,0-0.1,0,0,0c0,0,0,0-0.1,0
		c0,0-0.1,0-0.1,0c0,0-0.1,0-0.1,0c0,0,0,0-0.1,0c-0.1,0-0.1,0-0.1,0c0,0-0.1,0-0.1,0c0,0-0.1,0-0.1,0c-0.1,0-0.1,0-0.1,0
		c0,0-0.1,0-0.1,0c0,0,0,0-0.1,0c-0.1,0-0.1,0-0.1,0c0,0-0.1,0-0.1,0c0,0,0,0-0.1,0c-0.1,0-0.2,0-0.2,0c0,0-0.1,0-0.1,0
		c0,0-0.1,0-0.1,0c-0.1,0-0.1,0-0.1,0c0,0-0.1,0-0.1,0c0,0-0.1,0-0.1,0c0,0,0-0.3,0-0.4c0-0.1,0,0,0-0.1c0-0.1,0.1,0,0.1-0.1
		c0,0,0-0.2,0.1-0.3c0.1-0.1,0.1-0.1,0.2-0.3c0.1-0.2,0.2-0.2,0.2-0.2c0,0,0.1-0.2,0.1-0.3c0-0.1,0,0-0.1,0c0,0-0.1,0-0.1,0
		c0,0-0.1,0-0.1,0c0,0,0,0-0.1,0.1c-0.1,0-0.1,0-0.1,0c0,0-0.1,0-0.1,0c0,0,0,0-0.1,0.1c-0.1,0-0.1,0-0.1,0c0,0-0.1,0-0.1,0
		c0,0,0,0.1-0.1,0.1c0,0-0.1,0-0.1,0c0,0-0.1,0-0.1,0c0,0,0,0-0.1,0c-0.1,0-0.1,0-0.1,0c0,0-0.1,0-0.1,0c0,0,0,0-0.1,0.1
		c-0.1,0-0.1,0-0.1,0c0,0-0.1,0-0.1,0c0,0,0,0-0.1,0C27,61.1,27,61,27,61c0,0-0.1,0-0.1,0c0,0,0,0-0.1,0c-0.1,0-0.1,0-0.1-0.1
		c0,0-0.1,0-0.1,0c0,0,0,0-0.1,0c-0.1,0-0.1,0-0.1-0.1c0,0-0.1,0-0.1,0c0,0-0.1,0-0.2,0c-0.1,0-0.1-0.1-0.1-0.1c0,0-0.1-0.1-0.1,0
		c0,0-0.1,0-0.1,0c-0.1,0-0.1,0-0.1-0.1c0,0,0,0,0,0c0,0-0.1-0.1-0.1-0.1c0,0,0.1-0.3,0.1-0.3c0,0,0.1,0,0.1-0.1
		c0-0.1,0.1,0,0.1-0.1c0-0.1,0.1-0.3,0.2-0.3c0.1,0,0.3,0,0.4,0c0.1,0,0.6,0,0.8,0c0.2,0,0.3-0.1,0.3-0.1c0.1,0,0.2-0.2,0.3-0.2
		c0,0,0,0,0-0.1c0,0,0.4-0.3,0.4-0.4c0.1,0,0-0.1,0-0.1c0,0-0.1-0.2-0.2-0.3c0-0.1,0-0.1,0.1-0.2c0-0.1,0.1-0.1,0-0.2
		c-0.4-0.4-0.6-0.6-1-1.6c-0.1-0.1-0.4-1.3-0.4-1.4c0-0.1-0.3-1.3-0.3-1.5c0-0.2-0.1-1.2-0.2-1.3c0-0.1-0.2-0.9-0.2-1.1
		c0-0.2-0.1-0.7-0.1-0.8c0-0.1,0-0.8,0-1c0-0.1,0-0.9,0.1-1.1c0-0.2,0-0.8,0.1-0.9c0-0.1,0.1-0.5,0.1-0.6s0-0.1,0-0.2
		c0,0-0.4-0.6-0.5-0.7c0-0.1-0.1-0.3-0.2-0.4c0-0.1-0.1-0.1-0.1-0.2c-0.1-0.2,0-0.3,0-0.3c0-0.1,0-0.3,0-0.3c0-0.1,0-0.2,0-0.2
		c-0.1-0.2,0-0.4,0-0.4c0,0,0-0.3,0-0.3c0-0.1,0.1-0.2,0.1-0.3c0-0.1,0.1-0.3,0.1-0.3c0-0.1,0.1-0.2,0.1-0.2c0-0.1,0.1-0.3,0.1-0.4
		c0-0.2,0-0.1,0-0.2c-0.1,0-0.1-0.2-0.1-0.2c0,0,0.1-0.3,0.2-0.4c0.1-0.1,0.1-0.3,0.1-0.4c0-0.2,0.1-0.7,0.2-0.7
		c0-0.1,0.1-0.2,0-0.2c0,0-0.1-0.1-0.2,0c-0.1,0.1-0.3,0-0.4,0c-0.1-0.1,0-0.4,0.1-0.5c0.1-0.2,0.1-0.5,0.1-0.7c0-0.2,0-0.3,0.2-0.3
		c0.1-0.1,0.1,0,0.1-0.2c-0.1-0.2-0.1-0.5,0-0.7c0-0.1,0.1-0.2,0.1-0.2c0,0,0-0.2,0-0.5c0-0.3,0.1-0.8,0.1-0.9c0-0.2,0-0.4,0-0.6
		c0-0.2,0-0.5,0.1-0.7c0-0.3,0.3-0.5,0.3-0.6c0.2-0.2,1.1-0.7,1-0.6c0.1-0.1,0.1-0.1,0.2-0.2c0-0.1,0-0.2,0-0.3
		c0-0.1-0.1-0.1-0.3-0.2c-0.1-0.1-0.1-0.3-0.1-0.4c0-0.1,0.1-0.2,0.2-0.2c0.1-0.1,0.1,0,0-0.1c0,0-0.1-0.1-0.2-0.3
		c-0.1-0.1-0.2-0.5-0.3-0.7c0-0.1,0-0.5,0-0.6c0-0.3,0.1-0.6,0.1-0.8c0-0.1,0-0.5,0-0.7c0-0.3,0-0.4,0.1-0.5c0-0.1,0-0.2,0.1-0.3
		c0.1-0.1,0-0.1,0.2-0.3c0.1-0.1,0.2-0.2,0.3-0.3c0,0,0.2-0.1,0.3-0.1c0.1,0,0.2-0.1,0.3-0.1c0.1,0,0.1,0,0.2,0c0.1,0,0.2,0,0.3,0
		c0,0,0.1,0,0.1,0c0,0,0,0,0,0c0,0,0,0,0,0c0,0,0.1,0,0.1,0s0,0,0,0c0,0,0,0,0,0c0,0,0,0,0,0c0,0,0.1,0,0,0c0,0,0.1,0,0,0
		c0,0,0,0,0.1,0c0.1,0,0,0,0,0c0,0,0,0,0,0c0,0,0.1,0,0.1,0c0,0,0,0,0,0c0,0,0,0,0,0c0,0,0,0,0.1,0c0,0,0.1,0,0.1,0
		c0,0,0.1,0.1,0.1,0.1c0,0,0.1,0,0.1,0c0,0,0,0,0.1,0c0,0,0.1,0,0.1,0c0,0,0,0.1,0.1,0.1c0,0,0.1,0,0.1,0c0,0,0,0.1,0.1,0.1
		c0,0,0,0.1,0.1,0.1c0,0,0.1,0,0.1,0.1c0,0,0.1,0.1,0.2,0.2c0,0,0,0.1,0.1,0.1c0,0,0.1,0.1,0.1,0.1c0,0,0,0,0,0s0,0.1,0,0.1
		c0,0,0,0.1,0,0.1c0,0,0,0,0,0c0,0,0,0,0,0.1c0,0.1,0,0.1,0,0c0,0,0,0,0,0.1c0,0.1,0,0,0,0s0,0,0,0.1c0,0.1,0,0.1,0,0.1c0,0,0,0,0,0
		C30.5,29.2,30.4,29.3,30.4,29.4C30.4,29.4,30.4,29.4,30.4,29.4C30.4,29.4,30.4,29.3,30.4,29.4 M19.5,38.9c0,0.1,0.1,0.3,0.1,0.3
		c0,0,0.1,0,0,0.1c-0.1,0.1-0.1,0.3-0.1,0.3c0,0,0,0.1-0.1,0.1c-0.1,0.1-0.1,0.1-0.1-0.1C19.3,39.6,19.4,39,19.5,38.9
		C19.5,38.5,19.4,38.7,19.5,38.9 M17,29.2c0,0,0-0.2,0-0.1c0,0.1,0,0,0,0c0,0,0-0.3,0-0.3c0,0,0,0,0,0c0,0,0-0.1,0-0.1
		c0,0,0-0.3,0-0.4c0-0.1,0.1,0.2,0-0.1c0,0,0,0,0,0c0,0-0.1-0.1-0.1-0.2c0,0-0.1-0.2-0.2-0.2c-0.1,0-0.1-0.1-0.2-0.1
		c-0.1,0-0.1-0.1-0.3-0.1c-0.1,0-0.1,0.1-0.2,0c0,0-0.1-0.1-0.1-0.1c0,0-0.3-0.3-0.5-0.3c-0.2,0-0.4,0-0.5,0.1c0,0-0.1,0-0.1,0
		c-0.1,0-0.4,0.1-0.5,0.2c-0.1,0.1-0.2,0.1-0.3,0.2c-0.1,0-0.2,0.2-0.3,0.3c-0.1,0.1-0.2,0.2-0.2,0.3c-0.2,0.2-0.3,0.9-0.2,0.7
		c0,0.1-0.1,0.2-0.1,0.3c0,0.1,0.1,0.6,0.1,0.6c0,0,0,0,0,0.1c0,0.1,0,0.3,0,0.3c0,0.1,0.1,0.3,0.1,0.4c0,0.1,0.1,0.3,0.2,0.3
		c0.1,0,0.1,0.2,0.2,0.2c0,0,0,0.1,0,0.2c0.1,0.3,0,0.6-0.1,0.7c0,0.1,0,0.1-0.1,0.1c0,0-0.1,0-0.1,0.1c0,0,0,0.1-0.1,0.1
		c-0.1,0-0.2,0.1-0.2,0.2c-0.1,0.1-0.3,0.2-0.4,0.2c-0.1,0.1-0.4,0.3-0.7,0.6c-0.2,0.2-0.4,0.5-0.5,0.6c-0.1,0.1-0.4,0.5-0.5,0.7
		c-0.1,0.2-0.3,0.5-0.3,0.6c-0.1,0.9,0,0.8,0.1,1.1c0,0.1,0,0,0,0.3c0,0.2,0,0.8,0,0.9c0,0.1-0.1,0.8-0.1,0.9c0,0.1,0,0.2,0,0.3
		c0.1,0.1,0.2,0.3,0.2,0.3c0,0,0,0,0.1,0.1c0,0.1,0,0.5,0,0.7c0,0.1,0.1,0.2,0.1,0.4c0,0,0.2,1.2,0.4,1.6c0.1,0.2,0.2,0.8,0.3,0.9
		c0,0.1,0,0.1-0.1,0.2c-0.1,0.1-0.1,0.2-0.1,0.3c0,0,0,0.1,0,0.1c0,0,0,0.1,0,0.1c0,0.1,0,0.4,0,0.6c0,0,0.3,1.3,0.5,1.7
		c0.1,0.1,0.6,1.8,0.6,1.9c0.1,0.2,0,0.2,0,0.3c0,0.2,0.1,1.2,0.1,1.3c0,0.1,0.1,1.2,0.1,1.4c0,0.2,0.1,0.4,0.1,0.6
		c0,0.2-0.1,0.4-0.1,0.5c0,0.1-0.1,0.3-0.1,0.4c0,0.1-0.1,1.4-0.1,1.6c0,0.3-0.2,1.5-0.2,1.7c0,0.1-0.1,1.2,0,1.5
		c0,0.4,0.1,1.2,0.1,1.3c0,0.1,0,0.2-0.1,0.3c-0.1,0.1-0.1,0.3-0.1,0.5c0,0.1,0,0.3-0.1,0.5c0,0.1-0.1,0.5-0.1,0.5c0,0,0,0,0,0.1
		c0,0,0,0,0,0.1c0,0,0,0.3,0,0.4c0,0.1,0,0.1-0.1,0.1c0,0-0.1,0-0.1,0.1c0,0.5-0.1,0.6,0.1,0.7c0,0,0.2,0.1,0.2,0.1
		c0.2,0.1,0.1,0,0.1,0c0,0,0.1,0,0.1,0c0,0.1,0,0.1,0.1,0.1c0.1,0,0.1,0,0.1,0c0,0,0,0,0,0c0,0,0.1,0,0.1,0c0,0,0.1,0,0.2,0
		c0.1,0,0.2,0,0.1,0.1c0,0,0,0.1,0,0.2c0,0.1-0.1,0.4-0.1,0.5c0,0.1,0.1,0.2,0.1,0.2c0,0,0.1,0,0.1,0c0,0,0,0.1,0.1,0.1
		c0,0,0.1,0,0.1,0c0,0,0.1,0.1,0.1,0.1c0,0,0.1,0,0.2,0c0.1,0,0.1,0,0.1,0.1c0,0.1,0.1,0.3,0.1,0.3c0,0,0.1,0,0.1,0
		c0,0,0.1,0.1,0.1,0.1c0.1,0,0.1-0.1,0.1,0c0,0.1,0.1,0.1,0.2,0.1c0.1,0,0.1,0,0.1,0c0,0,0.1,0,0.1,0c0,0,0,0,0.1,0
		c0.1,0,0.2,0,0.2,0c0,0,0.1,0,0.1,0c0,0,0,0,0.1,0c0,0,0.7-0.1,0.8-0.1c0.1,0,0.8-0.1,0.9-0.1c0.1,0,0-0.1,0-0.1
		c0-0.2-0.1-0.1-0.2-0.2c0,0,0-0.1,0-0.2c0-0.1-0.1-0.3-0.2-0.3c-0.1,0-0.2-0.2-0.3-0.3c-0.1-0.1-0.1-0.2-0.2-0.2
		c0-0.1-0.1-0.1-0.2-0.2c0-0.1,0-0.1,0,0c0,0,0.1,0.1,0.2,0.1c0,0,0.1,0,0,0c-0.1,0-0.1-0.1-0.1-0.1c0,0,0.4,0.1,0.4,0
		c0-0.1,0.1-0.1,0.1,0c0,0,0,0,0.1,0c0.1,0,0.2,0,0.2,0c0,0,0.2-0.1,0.2,0c0,0,0,0,0.1,0c0.1,0,0.2,0,0.1-0.1c0,0,0.1-0.1,0.1-0.1
		c0,0,0,0,0.1,0c0.1,0,0.3-0.2,0.3-0.3c0,0,0-0.3,0-0.3c0,0-0.1-0.1-0.1-0.1c-0.1,0,0.1-0.4-0.8-0.4c-0.2,0-0.6,0-0.7,0
		c0,0-0.1,0,0-0.1c0-0.1,0.1-0.4,0.1-0.6c0-0.2,0.1-0.9,0.2-1.1c0-0.2,0.1-1.2,0.1-1.4c0-0.2,0-1.6,0-1.8c0-0.1,0.3-1.2,0.3-1.4
		c0-0.2,0.2-1.1,0.2-1.3c0-0.2,0-0.7,0-0.8c0-0.1,0.2-0.6,0.2-0.8c0-0.2,0.2-1.3,0.2-1.5c0-0.2,0.2-1,0.2-1.1c0-0.2,0.2-1.3,0.2-1.3
		c0-0.1,0.1-0.6,0.1-0.7c0,0,0,0,0,0c0,0,0.1,0,0.1,0c0,0,0.1,0.1,0.1,0.1c0.1,0,0.1,0.1,0.1,0.1c0.1,0.1,0.1,0,0.1,0.2
		c0,0.1,0,0.6,0,0.8c0,0.2,0,1.1,0,1.2c0,0.2,0,1,0,1.2c0,0.2,0.1,1,0.1,1.3c0,0.2,0.1,1.1,0.1,1.3c0,0.2,0.1,1.3,0.1,1.6
		c0,0.3,0.2,1.7,0.2,1.9c0,0.2,0.3,2,0.3,2.2c0,0.3,0.2,1.5,0.2,1.7c0,0.2,0.1,0.9,0.1,0.9c0,0.1,0,0.1,0.1,0.1c0.1,0,0.6,0,0.7,0
		c0,0,0,0.1,0,0.2c0,0.1,0,0.2,0,0.3c0,0.1,0,0.2,0,0.2c0,0.1,0.3,0.3,0.4,0.3c0.1,0,0.6,0,0.7,0c0.1,0,0.5-0.1,0.6-0.1
		c0,0,0-0.2,0-0.2c0-0.1,0-0.2,0-0.3c0-0.1,0-0.3-0.1-0.3c0-0.1-0.1-0.2-0.1-0.2c0-0.1,0,0,0.1,0c0,0,0.5,0.2,0.5,0.2
		c0.1,0,0.6,0.1,0.8,0.1c0.2,0,0.7-0.1,0.8-0.2c0,0,0-0.1,0-0.1c0,0,0,0,0-0.1c0-0.2-0.2-0.3-0.4-0.4c-0.1-0.1-0.4-0.3-0.4-0.3
		c0,0,0-0.1,0-0.1c0-0.1-0.2-0.6-0.3-0.8c0-0.2-0.2-1.1-0.3-1.3c-0.1-0.1-0.1-0.3-0.1-0.3c0,0,0.2-1.6,0.2-1.7c0-0.2,0.2-2,0.2-2.1
		c0-0.1,0.1-0.3,0.1-0.4c0-0.1,0.1-0.4,0.1-0.4c0.1-0.1,0.4-0.8,0.4-0.9c0.3-0.8,0.3-0.9,0.3-1.1c0-0.2,0.1-1.7,0.1-1.7
		c0-0.1,0.2-1.1,0.2-1.2c0-0.1,0.1-0.5,0.1-0.6c0-0.1,0.2-0.9,0.2-1.1c0-0.2,0.2-1.3,0.2-1.5c0-0.2,0-1,0-1c0-0.1,0,0,0,0
		c0.2,0,0.5-0.2,0.4-0.1c0.1,0,0.1-0.1,0.1-0.1c0,0-0.1-0.6-0.1-0.6c0,0,0-0.1,0-0.2c0-0.1,0-1.1,0-1.2c0-0.3,0-0.8-0.2-1.2
		c0-0.1,0-0.2,0-0.2c0.1-0.1,0.2-0.4,0.2-0.5c0-0.1,0.3-0.8,0.3-0.9c0.1-0.3,0.3-1.4,0.4-1.5c0-0.1,0.1-1.2,0.1-1.3
		c0-0.1,0-1.4,0-1.6c0-0.2,0-0.3-0.2-0.4c-0.3-0.2-0.8-0.4-1.5-0.7c-0.1-0.1-0.1-0.1-0.2-0.1c-0.2-0.4-0.1-0.8-0.1-1.2
		c0-0.1-0.1-0.7-0.1-0.8c0-0.1-0.1-1-0.1-1c-0.2-1.4-1-1.8-1.1-1.8c-0.1,0-0.2-0.1-0.3-0.1c-0.3,0-0.2-0.1-0.7-0.1
		c-0.3,0-0.7,0.3-0.9,0.4c-0.4,0.3-0.6,0.9-0.7,1.2c-0.1,0.3-0.2,0.9-0.2,1.2c0,0.2-0.2,1.3-0.2,1.5c0,0.2-0.1,0.7-0.2,0.7
		c-0.1,0.1-0.2,0.3-0.2,0.4c0,0.1,0,0.1-0.1,0.1c-0.1,0-0.2,0.1-0.4,0.2c-0.2,0.1-0.4,0.1-0.5,0.2c-0.1,0.1-0.2,0.2-0.2,0.4
		c0,0.2-0.1,0.3-0.1,0.4c0,0.1-0.1,0.1-0.1,0.4c0,0.2-0.1,0.8-0.1,0.9c-0.1,0.4-0.1,0.3-0.1,0c0-0.2-0.2-0.9-0.2-1
		c0-0.1-0.3-0.4-0.3-0.4c0-0.1-0.3-0.2-0.3-0.3c-0.2-0.3-0.3-0.2-0.9-0.6c-0.1-0.1-0.2-0.1-0.2-0.2c0-0.1,0-0.2,0-0.3
		c0-0.1,0-0.5,0-0.6c0-0.1,0-0.3,0.1-0.3c0,0,0.1-0.2,0.2-0.2c0,0,0.3-0.4,0.3-0.5c0.1-0.1,0.1-0.3,0.1-0.4c0-0.1,0.1,0,0.1-0.1
		c0,0,0-0.1,0-0.1c0,0-0.1-0.2-0.1-0.2c0,0,0-0.2,0-0.2c0-0.1,0-0.2,0-0.3c0-0.1,0-0.2,0-0.2c0,0,0,0,0,0l0-0.1l0,0
		c0,0,0.1-0.3,0.1-0.4c0,0,0,0.2,0,0c0,0,0-0.1,0,0c0,0.1,0,0.1,0,0C17,29.4,17,29.3,17,29.2C17,29.3,17,29.4,17,29.2"/>
	<path class="st2" d="M51.9,40.2c-0.1,0.4-0.3,0.9-0.4,1.3c0.5,0,0.6,0.6,0.7,1h0.1v-0.2c0-0.2,0-0.4,0-0.6c0-0.2,0-0.7-0.1-0.9
		c0,0-0.1,0-0.1-0.1C52,40.7,52,40.4,51.9,40.2L51.9,40.2z M59.3,39.2v0.4c0,0,0.1,0.1,0.1,0.1c0,0,0.1,0,0.1,0
		C59.5,39.5,59.4,39.3,59.3,39.2 M47.3,59.8c-0.2,0-0.4-0.1-0.5-0.1c-0.2,0.2-0.3,0.5-0.4,0.8c-0.3,0.7-1.2,2.2-0.8,3.1
		c0.1,0.2,0.5,0.3,0.7,0.4c0.1,0.2,0.1,0.4,0,0.6c-0.1,0.1-1.5,0.6-1.7,0.7c-0.3,0-0.6,0-0.8-0.1c0-0.5,0.1-1.1,0.3-1.5
		c0.1-0.2,0.2-0.4,0.2-0.6c0.1-0.6,0.1-1.3,0.2-2c0.1-0.4,0.2-1,0.1-1.3c-0.5,0-1-0.1-1.5-0.1h-1.6c-0.2,0.1-0.3,0.5-0.4,0.8
		c-0.3,0.6-0.5,1.6-0.3,2.6c0.1,0.7,0.5,1.4,0.3,2.3c-0.5,0.3-0.9-0.1-1.2-0.4c-0.4-0.4-0.5-0.7-0.6-1.4c0-0.2,0-0.5,0-0.7
		c0,0-0.1-0.1-0.1-0.1c-0.1-0.2-0.2-0.7-0.1-1c0.1-0.3,0.3-0.7,0.5-0.9c0.2-0.2,0.3-0.7,0.2-1.1c-0.3,0-1,0-1.1-0.2
		c-0.5-1.1,0-1.8,0.1-2.8c0.1-0.7-0.1-1.4,0-2c0.3-1.5,0.5-2.9,0.7-4.3c0.1-0.5,0.6-1.5,0.4-2c-0.8-0.1-2.3-0.2-2.5-0.8
		c-0.1-0.4,0.4-0.7,0.5-0.9c0.3-0.3,0.4-0.6,0.7-1c0.2-0.3,0.7-0.6,0.7-1.1c-0.3-0.1-1,0-1.2-0.4c-0.1-0.2-0.1-1,0-1.2
		c0.2-0.5,0.7-0.8,1-1.3c0.3-0.5,0.5-1,0.8-1.5c0.1-0.2-0.1-0.3,0-0.5c0.1-0.3,0.4-0.6,0.6-0.7c0.3-0.2,0.7-0.3,1-0.5
		c0.1,0,0.3,0,0.4,0.1c0.3-0.1,0.8-0.2,1-0.4c0.1-0.1-0.1-0.4-0.2-0.4c-0.1-0.1-0.2-0.2-0.2-0.3c0-0.2,0-0.3,0-0.5
		c0-0.1-0.1-0.2-0.1-0.4c0.1-0.6,0.8-1.9,1.2-2.2c0.3-0.2,0.7-0.4,0.9-0.5c0.7-0.2,2.3,0.3,2.5,0.7c0.1,0.1,0.2,0.9,0.2,1.1
		c-0.8,0.6-0.6,1.4-0.9,2.3c-0.1,0.2-0.1,0.4-0.2,0.5c-0.1,0.1-0.2,0.1-0.3,0.2c0,0.1,0.1,0.1,0.1,0.2c0.2,0,0.3,0.2,0.5,0.2
		c0.2,0,0.4,0,0.6,0c0.4,0.1,1.2,0.4,1.5,0.7c0.1,0.2,0.2,0.4,0.3,0.5v0.3c0.1,0.1,0.7,0.8,0.9,0.8c0,0,0,0,0-0.1
		c0.2-0.3,0.2-0.8,0.3-1.2c0.3-1.1,0.5-2.3,1.1-3.1c0,0,0-0.1,0-0.1c-0.1-0.2-0.3-0.3-0.3-0.6c-0.1-0.6,0.4-1.1,0.3-1.5
		c-0.1-0.5-0.6-1.8-0.4-2.2c0.1-0.2,0.4-0.3,0.6-0.4c0.1-0.1,0.2-0.2,0.2-0.3h0c0,0,0.7-0.5,0.7-0.5c0.2-0.1,0.6,0,0.9-0.1
		c0.2-0.1,0.4-0.2,0.7-0.2c1,0.2,1.8,1.9,2.2,2.8c0.4,0.6,0.8,1.2,1.3,1.7c0.2,0.2,0.5,0.4,0.7,0.6c0.2,0.3,0.4,0.6,0.5,0.9
		c0,0.2,0.1,0.5,0.1,0.7c0.2,0.4,0.4,0.7,0.5,1.1c-0.1-0.1-0.2-0.2-0.2-0.3c0,0.3,0.1,0.5,0.3,0.6v0c-0.1,0-0.2-0.1-0.3-0.1v0.1
		c0.1,0.1,0.1,0.3,0.1,0.5c0,0,0.1,0,0.1,0v0.1c-0.1,0.2-0.3,0.3-0.4,0.4c0,0.4,0.2,1.6,0.4,1.7c0.4-0.1,2.2-1.3,2.3-1.6
		c0-0.1,0-0.2,0-0.3c0.1-0.4,0.2-1,0.5-1.2c0.4,0.1,1.9,1,2,1.4c-0.1,0.2-0.2,0.4-0.2,0.6c0,0.2,0.1,0.1,0.1,0.3
		c-0.1,0-0.1,0.1-0.1,0.2c-0.3,0.1-0.6,0.3-0.9,0.4c-0.3-0.2-0.6-0.6-1-0.6c-0.6,0.4-0.9,1-1.4,1.4c-0.3,0.2-0.6,0.4-0.9,0.5
		c-0.3,0.2-0.5,0.6-0.9,0.7c-0.6-0.3-0.8-1.3-1-2C58,41.4,58,41.2,57.9,41c-0.1,0-0.1,0-0.2,0c-0.1,0.4-0.2,0.9,0,1.3
		c-0.1,0.1-0.1,0.2-0.2,0.3c0.3,0.5,0.3,1.3,0.6,1.9c0.1,0.3,0.3,0.6,0.4,0.9c0.1,0.4,0,0.8,0.1,1.2c0.1,0.7,0.2,1.4,0.1,2.2
		c-0.2,0.9-0.4,1.9-0.7,2.8c-0.1,0.3-0.2,0.6-0.3,1c-0.1,0.5-0.1,1.1-0.2,1.6c-0.1,0.3-0.2,0.6-0.3,0.8c-0.2,1-0.2,1.9-0.4,2.9
		c-0.2,1-0.4,2.1-0.6,3.1c0,0.4,0,0.8,0,1.2c0,0.2-0.1,0.6,0,0.8c0.2,0,0.4,0.1,0.5,0.2c0.2,0.2,0.2,0.9,0,1.1
		c-0.1,0.2-0.5,0.2-0.7,0.2c-0.7,0.2-2.1,0.7-1.8-0.8c0-0.2,0.1-0.2,0.2-0.3c-0.5-0.2-0.1-1.4,0-1.8c0.2-0.7,0-1.6,0.1-2.5
		c0.1-0.9,0.2-1.8,0.2-2.8c0-0.5,0.2-1.7,0-2c0,0,0,0,0,0c-0.1,0.7-0.6,1.2-0.8,1.8c-0.3,0.7-0.4,1.5-0.7,2.2
		c-0.2,0.4-0.4,0.7-0.6,1.1c-0.1,0.6-0.2,1.2-0.3,1.8c-0.1,0.1-0.2,0.2-0.2,0.3c-0.2,0.8,0.5,2.9-0.3,3.1c-0.2,0-0.4-0.1-0.6-0.1
		c-1.1-0.3-0.7-0.9-0.9-2.1c-0.2-0.8-0.4-1.8,0.5-2.1c0.1-0.2,0.1-0.4,0.2-0.6c0.1-0.4,0-0.7,0.1-1c0.1-0.3,0.2-0.7,0.3-1v-0.8
		c0.1-0.5,0.2-0.9,0.2-1.4c0-0.3,0.1-0.5,0.1-0.8c0.1-0.2,0.2-0.4,0.4-0.5c-0.3-0.6,0.4-1,0.3-1.5c-0.1-0.1-0.2-0.3-0.2-0.4
		c-0.1-0.6-0.2-1.1-0.3-1.7v-0.9c-0.1-0.7-0.3-1.9-0.2-2.6c0-0.2,0-0.5,0-0.7c0.1-0.2,0.1-0.3,0.2-0.5c0.1-0.4,0-0.7,0.2-1.1
		c0.1-0.3,0.5-0.6,0.3-1.1c0,0,0,0-0.1,0c-0.1,0.4-0.7,0.5-1.3,0.4c-0.4-0.1-0.8-0.4-1.2-0.5c-0.1,0-0.3,0-0.4,0
		c-0.1-0.1-0.2-0.2-0.3-0.3c-0.2-0.1-0.3-0.1-0.4,0.1c-0.2,0.7,0,1.5-0.2,2.2c-0.2,0.8-0.6,1.8-0.5,2.8c0.1,0.2,0.1,0.4,0.2,0.7
		c0.2,1.2,0.3,2.2,0.6,3.3c0.1,0.6,0.3,1.2,0.2,1.9c-0.2,1.1-0.2,2.5-0.6,3.6C48,58.6,47.3,59.2,47.3,59.8"/>
	<path class="st2" d="M72.7,33.4c-0.1-0.1-0.1-0.5-0.2-0.6c0-0.1-0.3-0.4-0.3-0.5c0-0.2-0.1-0.3-0.1-0.5c0-0.1-0.1-0.2,0-0.4
		c0.1-0.2,0-0.4,0.1-0.6c0.1-0.2,0.3-0.7,0.4-0.8c0.1-0.1,0.3-0.3,0.4-0.4c0.1-0.1,0.2-0.3,0.3-0.3c0.1,0,0.1-0.1,0.4-0.1
		c0.3,0,0.6,0,0.6,0s0.2,0.1,0.3,0.1c0.1,0,0.1,0,0.5,0.2c0.4,0.2,0.4,0.1,0.6,0.2c0.2,0.1,0.3,0.1,0.4,0.2c0.1,0.1,0,0.3,0,0.4
		c0,0.1-0.1,0.2-0.1,0.2s0.1,0.3,0.1,0.3c0,0.1,0.2,0.5,0.2,0.6c0,0.2,0,0.3,0,0.3c0,0,0,0.2,0,0.2c0,0,0,0.1,0,0.1
		c0.1,0,0.1,0,0.1,0.1c0,0.1,0,0.3,0,0.3s-0.1,0.1-0.1,0.1c0,0-0.1,0-0.1,0.1c0,0.1,0.1,0.2,0.1,0.2s0,0.1,0,0.1
		c0,0-0.1,0.1-0.1,0.1c-0.1,0-0.2,0.1-0.2,0.1c-0.1,0-0.1,0-0.1,0s0,0.2,0,0.2c0,0-0.1,0.1-0.1,0.1s0,0.1,0,0.1
		c0,0.1-0.1,0.1-0.1,0.2c0,0,0,0.1,0,0.1c0,0.1,0.1,0.1,0,0.2c-0.1,0.1-0.2,0.1-0.2,0.1s-0.1,0.1-0.1,0.1c0,0.1,0,0.1,0,0.1l0,0.2
		c0,0,0.2,0.1,0.2,0.1c0,0.1,0.1,0.1,0.2,0.1c0.1,0,0.4,0,0.4,0c0,0,0.2,0.1,0.2,0.1c-0.1,0-0.2,0-0.2,0.1c0,0.1,0.3,0.2,0.4,0.3
		c0.1,0.1,0.2,0.2,0.3,0.2c0.1,0.1,0.2,0,0.4-0.1c0.2-0.1,0.4-0.3,0.4-0.4c0-0.1,0.2-0.2,0.2-0.4c0-0.2,0.1-0.3,0.2-0.5
		c0-0.1,0-0.3,0-0.5c0-0.1,0.1-0.4,0.1-0.5c0-0.2,0-0.3,0-0.3s0-0.1-0.1-0.1c-0.1,0-0.2-0.1-0.2-0.2c0-0.1,0.1-0.4,0.2-0.5
		c0.1-0.1,0.4-0.9,0.5-1c0.1-0.1,0.1-0.2,0.2-0.3c0.2-0.1,0.1-0.2,0.3-0.3c0.2-0.1,0.6-0.2,0.7-0.2c0.1,0,0.3,0,0.4,0
		c0.1,0,0.2,0.1,0.2,0.1c0.1,0,0.2-0.1,0.2-0.1s0.1,0,0.1,0c0,0,0.2,0.2,0.3,0.3c0.1,0.1,0.1,0.1,0.3,0.6c0.2,0.5,0.5,1.2,0.5,1.6
		c0.1,0.5,0.2,0.5,0.1,0.9c-0.1,0.4-0.2,0.4-0.3,0.5c-0.1,0.1,0.1,0.2,0.1,0.2s0.2,0,0.6,0.3c0.4,0.3,0.5,0.4,0.5,0.4
		s0.2,0.1,0.4,0.1c0.3,0,0.3,0,0.5,0c0.2,0,0.3,0.1,0.4,0.3c0.2,0.2,0.8,1.4,0.8,1.7c0.1,0.3,0,0.6,0.2,1.1c0.2,0.5,0.5,1.4,0.6,1.7
		c0.1,0.3,0.3,0.5,0.3,0.6c0,0.1,0.1,0.1,0,0.2c-0.1,0.1-0.1,0-0.1,0.2c0,0.2-0.1,0.3-0.1,0.4c0,0,0.1,0,0.2,0.2c0,0.2,0,0.2,0,0.3
		c0,0.1-0.1,0.1,0,0.2c0.1,0.1,0.2,0.1,0.2,0.2c0.1,0.1,0,0.3,0.1,0.3c0,0.1,0.1,0.6,0.1,0.9c0,0.2-0.1,0.7-0.1,1.1
		c0,0.4-0.1,0.6-0.1,0.7c0,0.1,0,0.2,0,0.3c0,0.1-0.2,0.1-0.2,0.2c0,0,0,0.3,0.1,0.4c0,0.1,0.1,0.4,0.1,0.4c0,0.1,0.1,0.3,0,0.4
		c-0.1,0-0.1,0.1-0.3,0.3c-0.2,0.2-0.4,0.3-0.6,0.4c-0.1,0.1-0.3,0.3-0.4,0.3c-0.1,0.1-0.3,0.1-0.4,0.1c-0.1,0-0.3-0.1-0.3-0.1
		c0,0-0.1,0-0.1,0s-0.1,0.5-0.2,0.8c-0.1,0.3-0.3,0.9-0.3,1.2c0,0.2-0.2,0.6-0.2,0.9c0,0.3,0,0.6,0,0.9c0,0.3,0,0.5,0,0.7
		c-0.1,0.2-0.4,0.8-0.5,0.9c-0.1,0.1-0.1,0.2-0.2,0.5c-0.1,0.2-0.1,0.3-0.1,0.5c0,0.2,0,0.3,0,0.4c0,0.1,0.1-0.1,0,0.2
		c-0.1,0.3-0.2,0.3-0.2,0.5c-0.1,0.2-0.1,0.1-0.1,0.4c0,0.3-0.2,1.1-0.2,1.3c0,0.2-0.1,0.4-0.1,0.7c-0.1,0.3-0.1,0.4-0.2,0.6
		C82,59,82,59,81.9,59.2c-0.1,0.2-0.2,0.4-0.3,0.5c-0.1,0.2-0.3,0.7-0.3,0.7s0.1,1.2,0.1,1.3c0,0.1,0,0.7,0,0.8c0,0.1,0,0.5,0,0.6
		v0.4c0,0.2,0,0.2,0,0.3c0,0.1,0.1,0.2,0.1,0.3c0,0.1,0,0.2,0,0.4c0,0.1,0,0.2-0.1,0.2c-0.1,0-0.2,0-0.5,0.1c-0.3,0.1-0.8,0-0.8,0.1
		c-0.1,0-0.3,0-0.5-0.1c-0.2-0.1-0.2-0.1-0.3-0.2c-0.1-0.1-0.2-0.1-0.2-0.2c0-0.1,0-0.3,0-0.4c0-0.1,0-0.1-0.1-0.1
		c-0.1,0-0.3,0-0.3-0.1c0-0.1,0-0.3,0-0.5c0-0.2-0.1-0.5-0.1-0.7c0-0.2-0.2-2.2-0.2-2.5c0-0.2-0.1-0.7-0.1-0.9c0-0.1,0-0.7,0-0.9
		c0-0.3-0.2-1.5-0.3-1.7c0-0.1-0.1-0.7-0.1-0.8c0-0.1,0.1-1,0.1-1.1c0-0.1-0.1-0.1-0.1-0.4c0-0.3,0-0.3,0-0.5c0-0.3,0-1.6,0-1.8
		c0-0.2-0.3-2.3-0.4-2.7c-0.1-0.4-0.2-1.3-0.2-1.3s-0.3,0.6-0.3,1.2c0,0.6-0.1,1.8-0.2,2.4c-0.1,0.6-0.5,2.6-0.6,2.9
		c0,0.4-0.1,1.6-0.2,2.2c0,0.6-0.2,2.6-0.2,3.1c0,0.6-0.2,1.8-0.3,2.2c-0.1,0.4,0,0.5,0,0.6c0,0.1,0,0.2-0.2,0.3
		c-0.2,0.1-0.2,0.1-0.2,0.2c0,0.1,0.1,0.3,0,0.3c-0.1,0.1-0.1,0.1-0.1,0.3c0.1,0.2,0.2,0.2,0.4,0.5c0.2,0.3,0.4,0.7,0.3,0.8
		c-0.1,0.1-0.1,0.1-0.3,0.2c-0.2,0.1-0.5,0.2-0.6,0.3c-0.2,0.1-0.8-0.1-0.9-0.1c-0.1,0-0.4-0.1-0.4-0.3c0-0.1-0.1-0.2-0.1-0.4
		c0-0.2,0-0.5,0-0.5s-0.2-0.1-0.3-0.4C73.2,64,73.1,64,73,63.8c-0.1-0.2-0.2-0.1-0.1-0.4c0.1-0.2,0.1-0.3,0.2-0.5
		c0.1-0.2,0.1-0.2,0.1-0.3c0-0.1,0-0.1,0-0.2c0-0.2,0-0.5,0-0.6c0-0.1,0.2-2.6,0.3-2.8c0.1-0.2,0.2-0.4,0.2-0.5c0-0.1,0.1,0,0-0.4
		c-0.1-0.4-0.1-0.2-0.1-0.4c0.1-0.2,0.1-0.3,0.1-0.4c0-0.1,0-0.2,0-0.3c0-0.1-0.1-0.1-0.1-0.3c0-0.2,0.1-0.2,0.1-0.3
		c0-0.1,0-0.3,0-0.4c-0.1-0.1-0.1-0.2-0.1-0.4c0-0.1,0-0.3,0-0.5c0-0.2,0.1-1.8,0.1-1.9c0-0.1-0.1-0.3-0.1-0.4
		c0-0.2,0.2-0.4,0.2-0.5c0-0.1,0-0.3-0.1-0.5c-0.1-0.2-0.1-0.2-0.2-0.6c-0.1-0.3-0.1-0.5-0.1-0.5s-0.2-0.2-0.2-0.1
		c0,0.1-0.2,0.6-0.2,0.7c0,0.1,0,0.3-0.1,0.4c-0.1,0.1-0.1,0.3-0.1,0.4c0,0.1,0-0.1,0,0.2c0,0.3,0,0.3,0,0.5c0,0.2,0,0.2-0.1,0.5
		c-0.1,0.3-0.2,0.3-0.2,0.4c0,0.1-0.1,0.2,0,0.4c0,0.1,0.1,0,0,0.2c0,0.2-0.1,0.2-0.1,0.4c-0.1,0.1-0.1-0.1-0.2,0.2
		c0,0.3-0.1,0.3-0.1,0.5c0,0.2,0,0.1,0,0.3c-0.1,0.1-0.3,0.1-0.2,0.3c0.1,0.2,0.2,0,0.2,0.2c0,0.2-0.2,0.7-0.1,0.8
		c0,0.1,0.1,0.2,0.1,0.3c0,0.1-0.3,0.5-0.3,0.6c0,0.1,0,0.2,0,0.4c0,0.2,0,0.4,0,0.5c0,0.1,0.1,0.1,0,0.3c-0.1,0.1-0.1,0.1-0.2,0.3
		c-0.1,0.2,0,0.1-0.1,0.3c-0.1,0.2-0.3,0.2-0.4,0.5C71,60.6,71,60.6,71,60.8c0,0.1,0.2,0.2,0.2,0.8c0,0.6,0,0.5-0.2,1
		c-0.2,0.5-0.2,0.6-0.3,0.7c-0.1,0-0.1,0.2-0.5,0c-0.4-0.1-0.4-0.1-0.5-0.3c-0.1-0.2-0.3-0.5-0.4-0.8c0-0.3-0.1-0.4,0-0.7
		c0.1-0.3,0.1-0.3,0.1-0.6c0-0.2,0-0.4,0-0.6c0-0.2,0-0.3,0-0.3s-0.1-0.1-0.1-0.3c-0.1-0.2-0.1-0.4,0-0.5c0-0.1,0-0.2,0.1-0.4
		c0.1-0.2,0.3-0.4,0.3-0.5c0-0.1,0.1-0.5,0.1-0.7c0-0.1-0.3-1.4-0.3-1.7c0-0.3,0-0.5,0-0.6c0.1-0.1,0.4-0.4,0.4-0.6
		c0-0.1-0.2-0.2-0.3-0.4c-0.1-0.1-0.2-0.2-0.1-0.4c0.1-0.2,0.1-0.5,0.1-0.5s0-0.1,0.1-0.2c0.1-0.2,0.1-0.1,0-0.4
		c-0.1-0.3-0.2-0.3-0.2-0.6c0-0.3-0.1-0.3,0-0.5c0.1-0.1,0.2-0.3,0.2-0.3c0-0.1,0-0.3,0-0.4c0-0.2-0.1-0.2,0-0.4
		c0-0.2,0.1-0.4,0.1-0.6c0-0.2-0.1-0.2-0.2-0.3c-0.1-0.1-0.2-0.1-0.1-0.2c0-0.2,0-0.4,0.1-0.5c0.1-0.1,0.1-0.2,0.2-0.2
		c0-0.1,0-0.2,0-0.3c0-0.1-0.1-0.2-0.2-0.2c-0.1,0-0.3-0.1-0.5-0.1c-0.2,0-0.3-0.2-0.3-0.3c0-0.1-0.1-0.6-0.1-0.7c0-0.1,0-0.3,0-0.4
		c0-0.1-0.1-0.2-0.1-0.2s0.1-0.1,0.1-0.3c0-0.2-0.1-0.6-0.1-0.8c0-0.1-0.3-1-0.3-1.2c0-0.2-0.1-0.7-0.1-0.9c0-0.2-0.2-0.7-0.2-0.9
		c0-0.1-0.1-0.4,0-0.6c0.1-0.2,0.4-2.2,0.4-2.5c0-0.3,0.3-2,0.3-2.3c0-0.3,0.3-1.3,0.3-1.4c0-0.1,0.3-0.2,0.4-0.3
		c0.2-0.1,0.3-0.2,0.5-0.3c0.2-0.1,0.3-0.2,0.4-0.2c0.1,0,0.2,0,0.2,0L70.4,35c0,0,0.3-0.1,0.6-0.1c0.3,0,0.6-0.1,0.6-0.1
		c0-0.1,0.2-0.1,0.2-0.2c0-0.1,0-0.2,0.1-0.3c0-0.1,0-0.2,0.2-0.2c0.1,0,0.1,0,0.2,0c0.1,0,0.2,0,0.2,0s0.1,0.1,0.2,0.1
		c0.1,0,0.2-0.1,0.2-0.1v-0.2C72.8,33.6,72.8,33.5,72.7,33.4"/>
</g>
<g>
	<defs>
		<rect id="SVGID_3_" x="-29.1" y="-4.6" width="336.1" height="81.3"/>
	</defs>
	<clipPath id="SVGID_4_">
		<use xlink:href="#SVGID_3_"  style="overflow:visible;"/>
	</clipPath>
	<line class="st3" x1="117.5" y1="65.7" x2="117.5" y2="23.1"/>
</g>
<g>
	<path class="st0" d="M114.6,11.9c0.6,0.3,1.6,0.6,2.5,0.6c1,0,1.6-0.4,1.6-1.1c0-0.6-0.5-1-1.7-1.4c-1.7-0.6-2.8-1.5-2.8-3
		c0-1.7,1.4-3,3.8-3c1.1,0,2,0.2,2.6,0.5l-0.5,1.8c-0.4-0.2-1.1-0.5-2.1-0.5s-1.5,0.5-1.5,1c0,0.6,0.6,0.9,1.9,1.4
		c1.8,0.7,2.6,1.6,2.6,3c0,1.7-1.3,3.1-4.1,3.1c-1.2,0-2.3-0.3-2.9-0.6L114.6,11.9z"/>
	<path class="st0" d="M126.7,14.3l-0.1-0.7h0c-0.5,0.6-1.2,0.9-2.1,0.9c-1.5,0-2.4-1.1-2.4-2.3c0-1.9,1.7-2.8,4.3-2.8V9.3
		c0-0.4-0.2-0.9-1.3-0.9c-0.8,0-1.5,0.3-2,0.6l-0.4-1.5c0.5-0.3,1.5-0.6,2.8-0.6c2.4,0,3.2,1.4,3.2,3.2v2.5c0,0.7,0,1.4,0.1,1.8
		H126.7z M126.4,10.8c-1.2,0-2.1,0.3-2.1,1.2c0,0.6,0.4,0.9,0.9,0.9c0.6,0,1-0.4,1.2-0.8c0-0.1,0-0.3,0-0.4V10.8z"/>
	<path class="st0" d="M136,14.1c-0.4,0.2-1.2,0.3-2,0.3c-2.4,0-3.9-1.4-3.9-3.8c0-2.1,1.5-3.9,4.2-3.9c0.6,0,1.3,0.1,1.7,0.3
		l-0.4,1.7c-0.3-0.1-0.7-0.2-1.3-0.2c-1.2,0-2,0.9-2,2.1c0,1.3,0.9,2.1,2,2.1c0.5,0,1-0.1,1.3-0.2L136,14.1z"/>
	<path class="st0" d="M137.2,3.6h2.3v4.2h0c0.2-0.3,0.5-0.6,0.9-0.8c0.3-0.2,0.8-0.3,1.2-0.3c1.5,0,2.6,1,2.6,3.2v4.3h-2.3v-4
		c0-1-0.3-1.6-1.2-1.6c-0.6,0-1,0.4-1.1,0.8c-0.1,0.1-0.1,0.3-0.1,0.5v4.3h-2.3V3.6z"/>
	<path class="st0" d="M146,12.3c0.4,0.3,1.3,0.6,2,0.6c0.7,0,1-0.2,1-0.6s-0.2-0.6-1.1-0.8c-1.5-0.5-2.1-1.3-2.1-2.2
		c0-1.4,1.2-2.4,3-2.4c0.9,0,1.6,0.2,2.1,0.4l-0.4,1.6c-0.3-0.2-1-0.4-1.6-0.4c-0.6,0-0.9,0.2-0.9,0.6c0,0.3,0.3,0.5,1.2,0.8
		c1.4,0.5,2,1.2,2,2.3c0,1.4-1.1,2.4-3.2,2.4c-1,0-1.8-0.2-2.4-0.5L146,12.3z"/>
	<path class="st0" d="M154.3,11.3c0.1,0.9,1,1.4,2.1,1.4c0.8,0,1.4-0.1,2-0.3l0.3,1.5c-0.8,0.3-1.7,0.5-2.7,0.5
		c-2.5,0-3.9-1.4-3.9-3.7c0-1.9,1.2-3.9,3.7-3.9c2.4,0,3.3,1.8,3.3,3.7c0,0.4,0,0.7-0.1,0.9H154.3z M157,9.8c0-0.6-0.2-1.5-1.3-1.5
		c-1,0-1.3,0.9-1.4,1.5H157z"/>
	<path class="st0" d="M160.5,9.3c0-0.9,0-1.7-0.1-2.3h2l0.1,1h0c0.3-0.5,1-1.2,2.3-1.2c1.5,0,2.6,1,2.6,3.2v4.3h-2.3v-4.1
		c0-0.9-0.3-1.6-1.2-1.6c-0.6,0-1,0.4-1.2,0.9c-0.1,0.1-0.1,0.4-0.1,0.6v4.2h-2.3V9.3z"/>
	<path class="st0" d="M172.7,9.6v1.5h-3.9V9.6H172.7z"/>
	<path class="st0" d="M176.4,11.7l-0.7,2.6h-2.4l3.1-10.1h3l3.1,10.1h-2.5l-0.8-2.6H176.4z M179,10l-0.6-2.1
		c-0.2-0.6-0.4-1.3-0.5-1.9h0c-0.2,0.6-0.3,1.4-0.5,1.9l-0.6,2.1H179z"/>
	<path class="st0" d="M183.8,9.3c0-0.9,0-1.7-0.1-2.3h2l0.1,1h0c0.3-0.5,1-1.2,2.3-1.2c1.5,0,2.6,1,2.6,3.2v4.3h-2.3v-4.1
		c0-0.9-0.3-1.6-1.2-1.6c-0.6,0-1,0.4-1.2,0.9c-0.1,0.1-0.1,0.4-0.1,0.6v4.2h-2.3V9.3z"/>
	<path class="st0" d="M192.6,3.6h2.3v4.2h0c0.2-0.3,0.5-0.6,0.9-0.8c0.3-0.2,0.8-0.3,1.2-0.3c1.5,0,2.6,1,2.6,3.2v4.3h-2.3v-4
		c0-1-0.3-1.6-1.2-1.6c-0.6,0-1,0.4-1.1,0.8c-0.1,0.1-0.1,0.3-0.1,0.5v4.3h-2.3V3.6z"/>
	<path class="st0" d="M205.6,14.3l-0.1-0.7h0c-0.5,0.6-1.2,0.9-2.1,0.9c-1.5,0-2.4-1.1-2.4-2.3c0-1.9,1.7-2.8,4.3-2.8V9.3
		c0-0.4-0.2-0.9-1.3-0.9c-0.8,0-1.5,0.3-2,0.6l-0.4-1.5c0.5-0.3,1.5-0.6,2.8-0.6c2.4,0,3.2,1.4,3.2,3.2v2.5c0,0.7,0,1.4,0.1,1.8
		H205.6z M205.3,10.8c-1.2,0-2.1,0.3-2.1,1.2c0,0.6,0.4,0.9,0.9,0.9c0.6,0,1-0.4,1.2-0.8c0-0.1,0-0.3,0-0.4V10.8z"/>
	<path class="st0" d="M209.3,3.6h2.3v10.6h-2.3V3.6z"/>
	<path class="st0" d="M216,4.8v2.1h1.6v1.7H216v2.7c0,0.9,0.2,1.3,0.9,1.3c0.3,0,0.5,0,0.7-0.1l0,1.7c-0.3,0.1-0.8,0.2-1.5,0.2
		c-0.7,0-1.4-0.3-1.7-0.6c-0.4-0.4-0.6-1.1-0.6-2.2v-3h-1V6.9h1V5.3L216,4.8z"/>
</g>
<g>
</g>
<g>
</g>
<g>
</g>
<g>
</g>
<g>
</g>
<g>
</g>
<g>
</g>
<g>
</g>
<g>
</g>
<g>
</g>
<g>
</g>
<g>
</g>
<g>
</g>
<g>
</g>
<g>
</g>
</svg>
