<svg id="Ebene_1" data-name="Ebene 1" xmlns="http://www.w3.org/2000/svg" viewBox="0 0 357 99"><defs><style>.cls-1,.cls-2{fill:#fff;}.cls-2{stroke:#fff;stroke-miterlimit:10;}</style></defs><title>Zeichenfläche 1</title><path class="cls-1" d="M91.39,35.16H89.9l-2.73-5.67H82.95v5.67H81.57v-13h6.26a3.27,3.27,0,0,1,3.44,3.61,3.55,3.55,0,0,1-2.58,3.66ZM87.83,23.69H82.95V28h4.79a1.85,1.85,0,0,0,2.07-2.11C89.8,24.4,89.13,23.69,87.83,23.69Z"/><path class="cls-1" d="M103.28,35.16H95v-10h7.91v1.47H96.3v2.51h4.32v1.45H96.3v3.17h7Z"/><path class="cls-1" d="M115.56,32.7A4.76,4.76,0,0,1,111,35.48a4.85,4.85,0,0,1-3.68-1.5,5.4,5.4,0,0,1-1.4-3.81,5.36,5.36,0,0,1,1.4-3.81,5.23,5.23,0,0,1,8,.86l-1,.86A3.68,3.68,0,0,0,111,26.29a3.48,3.48,0,0,0-2.68,1.13,3.76,3.76,0,0,0-1.06,2.73,3.86,3.86,0,0,0,1.06,2.75A3.6,3.6,0,0,0,111,34a3.9,3.9,0,0,0,3.51-2.16Z"/><path class="cls-1" d="M127.81,35.16h-1.3V30.49h-5.94v4.67h-1.3v-10h1.3V29h5.94V25.11h1.3Z"/><path class="cls-1" d="M139.06,26.51H135.5v8.65h-1.33V26.51h-3.56v-1.4h8.45Z"/><path class="cls-1" d="M148.42,34.59a4,4,0,0,1-2.65.88,7.75,7.75,0,0,1-4.64-1.6l.64-1.33A6.34,6.34,0,0,0,145.64,34a2.92,2.92,0,0,0,1.69-.47,1.68,1.68,0,0,0,.79-1.47c0-.93-.56-1.5-1.72-1.67l-3.19-.34a2.19,2.19,0,0,1-1.72-2.36,2.51,2.51,0,0,1,1.06-2.19,4,4,0,0,1,2.41-.66,6.55,6.55,0,0,1,4.1,1.42l-.66,1.3a5.47,5.47,0,0,0-3.46-1.33,2.65,2.65,0,0,0-1.37.32,1.21,1.21,0,0,0-.71,1.13c0,.69.59,1.08,1.74,1.2a23,23,0,0,1,3.19.42,2.69,2.69,0,0,1,1.74,2.82A3,3,0,0,1,148.42,34.59Z"/><path class="cls-1" d="M161.16,35.16h-1.4l-1.1-2.55h-4.45l-1.1,2.55h-1.37l4.27-10h.83Zm-3.07-3.88-1.67-3.83-1.65,3.83Z"/><path class="cls-1" d="M171.3,35.16h-.69l-5.38-7v7H164v-10h.69l5.35,7v-7h1.3Z"/><path class="cls-1" d="M186.48,25.11l-2.85,10h-1l-2.24-7.71-2.24,7.71h-.93l-2.87-10h1.3l2.06,7.37,2.11-7.37H181l2.14,7.37,2.06-7.37Z"/><path class="cls-1" d="M197.36,35.16H196l-1.1-2.55h-4.45l-1.1,2.55h-1.38l4.27-10H193Zm-3.07-3.88-1.67-3.83L191,31.28Z"/><path class="cls-1" d="M207.72,35.16h-7.59v-10h1.3v8.6h6.29Z"/><path class="cls-1" d="M217.59,26.51H214v8.65h-1.33V26.51h-3.56v-1.4h8.45Z"/><path class="cls-1" d="M239.77,35.06h-1.72l-1.2-1.62a6.18,6.18,0,0,1-4.25,2.09,4,4,0,0,1-4.08-4.22c0-2,1.11-3.68,3.29-4.89l-3-4.22H236l.74,1.42h-5.11l5.33,7.47a8.77,8.77,0,0,0,1.11-1.45l.88,1.35a10.4,10.4,0,0,1-1.1,1.4Zm-7.1-7.52c-1.79.86-2.7,2.09-2.7,3.68a2.58,2.58,0,0,0,2.6,2.77A4.54,4.54,0,0,0,236,32.23Z"/><path class="cls-1" d="M262.32,35.16H261V25l-4.35,7.69L252.32,25V35.16H251v-13h1.25l4.4,7.93,4.45-7.93h1.23Z"/><path class="cls-1" d="M275.06,35.16h-8.28v-10h7.91v1.47h-6.61v2.51h4.32v1.45h-4.32v3.17h7Z"/><path class="cls-1" d="M285.59,33.73a4.24,4.24,0,0,1-3.41,1.42h-3.73v-10h3.73a4.23,4.23,0,0,1,3.41,1.47,5.29,5.29,0,0,1,1.18,3.59A5.23,5.23,0,0,1,285.59,33.73Zm-1-6.12a2.91,2.91,0,0,0-2.38-1.06h-2.46v7.15h2.46a3,3,0,0,0,2.41-1,3.88,3.88,0,0,0,.79-2.53A3.86,3.86,0,0,0,284.59,27.62Z"/><path class="cls-1" d="M291.69,35.16h-1.33V25.09h1.33Z"/><path class="cls-1" d="M303.89,35.16h-1.4l-1.1-2.55h-4.45l-1.11,2.55h-1.37l4.27-10h.83Zm-3.07-3.88-1.67-3.83-1.65,3.83Z"/><path class="cls-1" d="M313.54,26.51H310v8.65h-1.33V26.51h-3.56v-1.4h8.45Z"/><path class="cls-1" d="M324.47,34a5.28,5.28,0,0,1-7.42,0,5.33,5.33,0,0,1-1.45-3.81,5.27,5.27,0,0,1,1.45-3.78,5.37,5.37,0,0,1,7.44,0,5.19,5.19,0,0,1,1.45,3.78A5.33,5.33,0,0,1,324.47,34Zm-3.71-7.66A3.66,3.66,0,0,0,317,30.15,3.83,3.83,0,0,0,318,32.92,3.75,3.75,0,0,0,320.76,34a3.66,3.66,0,0,0,3.83-3.85A3.68,3.68,0,0,0,320.76,26.29Z"/><path class="cls-1" d="M338.42,35.16H337l-2.38-4.4h-3.69v4.4h-1.3v-10h5.79a2.55,2.55,0,0,1,2.75,2.8,3,3,0,0,1-.54,1.79,2.26,2.26,0,0,1-1.55,1Zm-3-8.57h-4.49v2.73h4.49c1,0,1.43-.47,1.43-1.37S336.36,26.59,335.4,26.59Z"/><path class="cls-1" d="M94.51,80.85H92.6V74.48H83.51v6.36H81.57v-13h1.94V73H92.6V67.88h1.92Z"/><path class="cls-1" d="M117.23,80.85H105.54v-10h11.17v1.47h-9.33v2.51h6.12v1.45h-6.12V79.4h9.85Z"/><path class="cls-1" d="M136.9,80.85h-1l-7.59-7v7h-1.82v-10h1l7.56,7v-7h1.82Z"/><path class="cls-1" d="M157.36,79.72a7.87,7.87,0,0,1-4.42,1.13h-5.28v-10h5.28A7.8,7.8,0,0,1,157.36,72a4.39,4.39,0,0,1,2.06,3.88A4.27,4.27,0,0,1,157.36,79.72Zm-1.3-6.61a5.52,5.52,0,0,0-3.09-.86h-3.44V79.4H153a5.55,5.55,0,0,0,3.12-.81,3.09,3.09,0,0,0,1.42-2.75A3.16,3.16,0,0,0,156.06,73.11Z"/><path class="cls-1" d="M181.5,80.85h-2l-3.39-4.4h-5.18v4.4H169v-10h8.2a5.17,5.17,0,0,1,2.6.59,2.38,2.38,0,0,1,1.28,2.21,3.08,3.08,0,0,1-2.95,2.83Zm-4.27-8.57h-6.34V75h6.34c1.33,0,2-.47,2-1.38S178.55,72.27,177.22,72.27Z"/><path class="cls-1" d="M193,80.85h-1.89V70.78H193Z"/><path class="cls-1" d="M215.19,80.85H213.1l-5-5.55-2.43,1.77v3.78h-1.87v-10h1.87v4.45L212,70.83h2.48l-5,3.56Z"/><path class="cls-1" d="M256.38,80.85h-1.89V70.7l-6.14,7.69-6.09-7.69V80.85h-1.89v-13h1.77l6.21,7.93,6.29-7.93h1.75Z"/><path class="cls-1" d="M278.92,80.85H267.23v-10H278.4v1.47h-9.33v2.51h6.12v1.45h-6.12V79.4h9.85Z"/><path class="cls-1" d="M298.93,70.8l-5.5,4.91v5.13h-1.82V75.74l-5.43-4.94h2.43l3.91,3.56,3.9-3.56Z"/><path class="cls-1" d="M319.32,80.85H307.63v-10H318.8v1.47h-9.33v2.51h6.11v1.45h-6.11V79.4h9.85Z"/><path class="cls-1" d="M341.1,80.85h-2l-3.39-4.4h-5.18v4.4h-1.87v-10h8.2a5.17,5.17,0,0,1,2.6.59,2.38,2.38,0,0,1,1.28,2.21,3.08,3.08,0,0,1-2.95,2.83Zm-4.27-8.57h-6.34V75h6.34c1.32,0,2-.47,2-1.38S338.15,72.27,336.83,72.27Z"/><polygon class="cls-2" points="350.13 94.21 6.71 94.21 6.71 54.96 28.56 54.96 28.56 46.05 6.71 46.05 6.71 6.13 350.13 6.13 350.13 46.1 63.34 46.1 63.34 28.85 64.37 28.85 64.37 45.08 349.11 45.08 349.11 7.16 7.73 7.16 7.73 45.02 29.59 45.02 29.59 55.99 7.73 55.99 7.73 93.18 349.11 93.18 349.11 56.06 64.37 56.06 64.37 72.28 63.34 72.28 63.34 55.03 350.13 55.03 350.13 94.21"/><rect class="cls-1" x="19.46" y="17.57" width="22.14" height="66.47"/><rect class="cls-1" x="52.54" y="61.9" width="22.14" height="22.14"/><rect class="cls-1" x="52.77" y="17.63" width="22.14" height="22.14"/></svg>