<svg xmlns="http://www.w3.org/2000/svg" viewBox="0 0 363.23 72.67"><defs><style>.cls-1{fill:#fff;}</style></defs><title>Element 1</title><g id="Ebene_2" data-name="Ebene 2"><g id="Ebene_1-2" data-name="Ebene 1"><path class="cls-1" d="M21.36,35.2a3.24,3.24,0,0,0-1.5-2.53,4.46,4.46,0,0,0-2.86-1c-1.82,0-3.89.39-3.89,2.6,0,1,.78,1.43,1.5,1.76,2.14.91,7,1.17,11.3,2.59S34,42.54,34,48.06c0,9.35-9,11.88-17.15,11.88C8.9,59.94.19,56.76,0,48.06H12.27a4.14,4.14,0,0,0,1.56,3,5.31,5.31,0,0,0,3.44,1c1.69,0,4.35-.65,4.35-2.6s-1.11-2.53-7.08-3.57C4.74,44.16.78,41,.78,35.27c0-8.51,9.16-10.72,15.91-10.72,7.27,0,16,2,16.36,10.65Z"/><path class="cls-1" d="M59.69,44a22.25,22.25,0,0,1-5.06,1.62c-2.86.65-4.35,1.36-4.35,3.63,0,1.56,1.69,3.12,4,3.12,2.92,0,5.2-1.76,5.39-5.26ZM72,51.57c0,2.53.13,5.39,1.56,7.53H60.47A9,9,0,0,1,60,55.92h-.13c-2.73,3.12-6.69,4-10.84,4-6.49,0-11.88-3.12-11.88-10.2,0-10.65,12.47-10.26,19-11.49,1.76-.33,3.51-.84,3.51-3s-2.15-3.12-4.22-3.12c-4,0-4.74,2-4.81,3.45H38.71c.39-9.49,9.35-11,17.34-11,16.11,0,16,6.69,16,13.18Z"/><path class="cls-1" d="M100.6,38.19A4.58,4.58,0,0,0,99.17,35a4.69,4.69,0,0,0-3.25-1.1c-4.93,0-5.65,4.28-5.65,8.37s.72,8.31,5.65,8.31a5.16,5.16,0,0,0,5-4.93H113.2c-1.23,9.16-8.44,14.29-17.53,14.29-10.13,0-18.25-7-18.25-17.66s8.12-17.73,18.25-17.73c8.83,0,16.37,4.35,17.15,13.64Z"/><path class="cls-1" d="M118.53,12.73h12.86V29h.13c2.21-2.6,5.07-4.48,10.52-4.48,6,0,11.56,3.7,11.56,11.43V59.1H140.73V41.43c0-3.89-.45-6.62-4.22-6.62-2.21,0-5.13,1.1-5.13,6.49V59.1H118.53Z"/><path class="cls-1" d="M176.07,25.4H183v7.92h-6.88V45.07c0,3.11.71,4.48,4,4.48a22.59,22.59,0,0,0,2.92-.19V59.1c-2.6,0-5.52.39-8.25.39-5.46,0-11.5-.85-11.5-10.07V33.32H157.5V25.4h5.72V15.13h12.86Z"/><rect class="cls-1" x="188.58" y="12.73" width="12.86" height="46.37"/><path class="cls-1" d="M230.7,38.45A5.53,5.53,0,0,0,225,32.8c-3.83,0-6,2-6.62,5.65Zm-12.34,6.69c.33,3.84,2.53,6.56,6.56,6.56,2.07,0,4.35-.78,5.39-2.4h12c-2.6,7.27-9.68,10.65-17.34,10.65-10.78,0-18.9-6.36-18.9-17.6,0-9.8,7.14-17.8,17.8-17.8C237.25,24.55,243,32,243,45.13Z"/><path class="cls-1" d="M248.43,25.4h12.34v5.39h.13c2.08-4,4.81-6.23,9.48-6.23a14.55,14.55,0,0,1,3.77.52V36.43a13.05,13.05,0,0,0-5.07-.84c-5.06,0-7.79,3-7.79,10.19V59.1H248.43Z"/><path class="cls-1" d="M292.7,48.68l-.42-1.15,22.29-.07.26.27a16.17,16.17,0,0,0,11.91,5h0a16.36,16.36,0,0,0,14.11-8.07h0l-49.33.1-.15-.68a36.58,36.58,0,0,1-.82-7.71h0A36.34,36.34,0,0,1,326.89,0h0a36.36,36.36,0,0,1,34,23.55h0l.44,1.18-23.24-.16-.25-.23A16.3,16.3,0,0,0,326.74,20h0a16.36,16.36,0,0,0-14,7.88h0l49.33.05.16.66a30.71,30.71,0,0,1,1,7.77h0a36.34,36.34,0,0,1-36.34,36.34h0a36.35,36.35,0,0,1-34.19-24Zm34.19,22.26a34.5,34.5,0,0,0,24.47-10.13h0A34.49,34.49,0,0,0,361.5,36.34h0a28,28,0,0,0-.79-6.71h0l-50.81-.06.62-1.24a18.1,18.1,0,0,1,16.23-10.09h0a18,18,0,0,1,12.06,4.61h0l20,.14A34.63,34.63,0,0,0,326.89,1.73h0a34.5,34.5,0,0,0-24.47,10.14h0a34.51,34.51,0,0,0-10.14,24.47h0a35,35,0,0,0,.64,6.67h0l50.74-.1-.59,1.24a18.1,18.1,0,0,1-16.33,10.29h0a17.93,17.93,0,0,1-12.9-5.24h0l-19.07.06a34.62,34.62,0,0,0,32.12,21.69Z"/><path class="cls-1" d="M357.39,1.94A3.32,3.32,0,1,1,354,5.25,3.3,3.3,0,0,1,357.39,1.94Zm0,6.16a2.74,2.74,0,0,0,2.72-2.85,2.73,2.73,0,1,0-5.47,0A2.74,2.74,0,0,0,357.39,8.1ZM356.1,3.32h1.5c.92,0,1.36.36,1.36,1.11a1,1,0,0,1-1,1.06L359,7.2h-.65l-1.06-1.67h-.64V7.2h-.61ZM356.7,5h.63c.53,0,1,0,1-.64s-.44-.59-.85-.59h-.79Z"/></g></g></svg>