<svg xmlns="http://www.w3.org/2000/svg" viewBox="0 0 1520.29 259.05"><defs><style>.cls-1{fill:#fff;}</style></defs><title>Element 1</title><g id="Ebene_2" data-name="Ebene 2"><g id="Ebene_1-2" data-name="Ebene 1"><path class="cls-1" d="M634.69,237.43H583.87v-137l-1.09-.48L517.8,188l-64-86.69-1,.22V237.34H402.24v-215c11.54,0,22.89.75,34.09-.23,9.95-.87,15.83,2.64,21.6,10.71,18.61,26,38.17,51.32,57.37,76.89.89,1.19,1.86,2.32,3.17,4,1.37-1.74,2.58-3.21,3.72-4.74q31.22-41.55,62.36-83.15a7.59,7.59,0,0,1,7-3.51c12.83.19,25.66.07,38.49.09,1.46,0,2.92.12,4.64.2Z"/><path class="cls-1" d="M1128.05,43.19l-25.43,37.69c-5.9-3.08-11.49-6.3-17.34-9-16.73-7.67-34-8.59-51.69-3.73C1007.16,75.43,991,95,988.81,122.43c-2.39,30,9.23,53.65,32.9,65.19,21.93,10.69,44.07,9.88,66-.59,3-1.45,4.36-3.44,4.21-7-.31-7.11-.09-14.25-.09-21.9h-33.53V116h79.87c0,1.86,0,3.49,0,5.11,0,28.5-.06,57,.08,85.5a8.8,8.8,0,0,1-3.56,7.64c-17.45,14.08-37.67,21.84-59.51,25.31-27.74,4.42-54.9,1.69-80.66-9.89-31.5-14.16-49.9-39-56.5-72.62-4.31-21.92-3.72-43.77,3-65.19,9.47-30.07,28.58-52.07,58-63.31,40.3-15.4,80.18-13.78,118.47,7.49,3,1.69,5.9,3.74,8.83,5.65A20.16,20.16,0,0,1,1128.05,43.19Z"/><path class="cls-1" d="M1380,128,1309.33,22.39h5.9c16.5,0,33,.11,49.5-.09,3.63,0,5.59,1.17,7.53,4.2,13,20.17,26.15,40.2,39.27,60.26.91,1.39,1.87,2.74,3.09,4.51,3.28-5.21,6.38-10.12,9.47-15,10.52-16.79,21-33.63,31.65-50.32,1-1.63,3.45-3.35,5.25-3.38,18-.25,36-.15,54-.14a25.73,25.73,0,0,1,2.62.35c-2.93,4.4-5.53,8.37-8.18,12.3q-30.07,44.5-60.22,88.95c-1.91,2.81-2.22,4.74-.12,7.83q34.46,50.57,68.57,101.39c.8,1.19,1.53,2.43,2.65,4.23-2.25.11-3.85.27-5.46.27-16.5,0-33-.1-49.5.09-3.62,0-5.64-1.18-7.6-4.19-14.64-22.43-29.49-44.73-44.71-67.74-4.83,7.33-9.39,14.19-13.89,21.1-10.18,15.62-20.41,31.22-30.44,46.94-1.85,2.9-3.89,3.91-7.28,3.87-16.5-.16-33-.07-49.5-.08-1.6,0-3.21-.16-5.76-.29Z"/><path class="cls-1" d="M911,237.72h-43.5c-10.85,0-10.88,0-15.06-10.17s-8.49-20.61-12.52-31c-1.15-3-2.81-3.91-5.93-3.9q-39.74.17-79.48,0c-3.18,0-4.65,1-5.81,4-4.93,12.54-10.07,25-15.34,37.38-.64,1.5-2.51,3.5-3.84,3.52-16,.24-32,.16-48.62.16.57-1.78.89-3.14,1.43-4.41q44.55-103.59,89.07-207.2c1.26-2.93,2.84-3.84,5.95-3.8,12.49.18,25,.13,37.49,0,2.61,0,4.13.52,5.28,3.2q45,105,90.22,209.94C910.5,235.92,910.58,236.4,911,237.72Zm-92.09-91.67-24.45-60-24.73,60Z"/><path class="cls-1" d="M93.73,259.05c-17.45-.11-29-17.42-22.15-33.84,8.16-19.66,16.75-39.14,25.16-58.69Q129,91.36,161.36,16.22c7.92-18.4,30.89-21.94,42.49-6.5,5.91,7.87,6.48,16.43,2.59,25.46q-20.56,47.63-41,95.32-24.24,56.36-48.5,112.72C112.56,253.41,104.17,259.12,93.73,259.05Z"/><path class="cls-1" d="M1252,237.51h-50.13V22.6H1252Z"/><path class="cls-1" d="M291,50.37c-.89,3.35-1.39,6.86-2.74,10q-33.78,78.89-67.78,157.68c-4.31,10-13.51,15.64-23.68,15.14a24.4,24.4,0,0,1-22.06-16.76,23.35,23.35,0,0,1,.66-17.08q34.05-79.31,68.25-158.56a24.23,24.23,0,0,1,27.81-14.38C282.55,28.82,290.48,38.74,291,50.37Z"/><path class="cls-1" d="M0,180c.79-2.93,1.31-6.43,2.65-9.58q21.12-49.58,42.49-99.06c5.79-13.41,19.73-19.27,32.52-13.87S95.83,77,90.05,90.51Q68.73,140.27,47.23,190c-4.23,9.76-13.52,15.49-23.3,15-10.43-.57-19-6.87-22.18-16.54A77.83,77.83,0,0,1,0,180Z"/></g></g></svg>