<svg xmlns="http://www.w3.org/2000/svg" viewBox="0 0 630.62 131.88"><defs><style>.cls-1{fill:#27343e;}</style></defs><title>Element 1</title><g id="Ebene_2" data-name="Ebene 2"><g id="Ebene_1-2" data-name="Ebene 1"><path class="cls-1" d="M303.58,39.34q4.62,0,6.58,1.54c1.3,1,2,2.94,2,5.74q0,5.33-5.32,18.48Q301.06,79,301.06,82.46c0,1.4.65,2.1,2,2.1A8.55,8.55,0,0,0,306.66,83a41.61,41.61,0,0,0,6.79-5.81,80.56,80.56,0,0,0,8.61-10.43,5.59,5.59,0,0,1,3.78,1.47,4.57,4.57,0,0,1,1.68,3.57q0,4.34-6.37,12.11A77.84,77.84,0,0,1,305.89,98Q297,104.3,291,104.3q-11.07,0-11.06-11.34a46.38,46.38,0,0,1,2.24-12.88q6.3-21.14,7-23.8a9.24,9.24,0,0,0,.28-1.4c0-.93-1.08-1.4-3.22-1.4a155.68,155.68,0,0,0-21.28,1.82,17.69,17.69,0,0,1,7.91,8.33,29.51,29.51,0,0,1,2.87,13.23,64.86,64.86,0,0,1-5.39,25.27,62.93,62.93,0,0,1-14.21,21.28q-8.82,8.47-17.78,8.47-14,0-14-12.18,0-6.72,6.58-26.6a300.44,300.44,0,0,0,9.8-36.26c-2.62-.09-3.92-1.26-3.92-3.5a9.51,9.51,0,0,1,1.89-5.6c1.26-1.77,2.63-2.71,4.13-2.8.09-.93.39-3.34.91-7.21s.86-6.93,1.05-9.17q1.4-14.14,3.57-18.06t7.77-3.92q5.73,0,10.92,5.53t5.18,12q0,4.07-9.1,19A256.52,256.52,0,0,1,303.58,39.34Zm-46.2,26.74q-3.09,19.88-11.62,44.8a4.33,4.33,0,0,0-.28,1.26c0,.93.51,1.4,1.54,1.4q3.78,0,9.17-11.62t5.39-22.26Q261.58,69.58,257.38,66.08Zm44.1-46.9q0-15.4,6.86-15.4,4.05,0,8,3.57t3.92,6.93q0,5.6-9.38,17.08a8.36,8.36,0,0,1-6.79-3.15Q301.47,25.06,301.48,19.18Z"/><path class="cls-1" d="M321.35,62q4.48-23.94,5.46-31.78,1.81-13.86,8.4-22T350.33,0q9.8,0,9.8,9.94a30.78,30.78,0,0,1-2.73,11.27q-2.73,6.65-10.57,21.49-10.36,37.24-10.36,41.44c0,1.4.65,2.1,2,2.1q3.22,0,8.82-5.39a76.54,76.54,0,0,0,11.06-13.93,5.5,5.5,0,0,1,3.71,1.4,4.32,4.32,0,0,1,1.61,3.36q0,5.17-6.16,13a63.4,63.4,0,0,1-15.05,13.72q-8.9,5.88-15.61,5.88-6,0-8.54-2.59t-2.52-8.19a63.53,63.53,0,0,1,1.05-10.36q1.05-6.16,2.73-13.09T321.35,62Z"/><path class="cls-1" d="M406.19,62.72q15.54-23.23,25.34-23.24a8.57,8.57,0,0,1,7.07,3,11.3,11.3,0,0,1,2.45,7.35q0,5.59-3.78,14.42-.56,1.26-2.31,5.39t-2.8,6.72q-1.05,2.59-2,5.53a15.7,15.7,0,0,0-1,4.2c0,1.4.65,2.1,2,2.1q2.24,0,8.33-5.81A108,108,0,0,0,452.25,67.2,5.91,5.91,0,0,1,456,68.53a4,4,0,0,1,1.68,3.29q0,4.34-6.58,12.53a83.87,83.87,0,0,1-15.68,14.91q-9.1,6.72-15.12,6.72t-8.54-2.73q-2.52-2.73-2.52-8.61,0-5.33,4.13-16.73t4.13-12.25A1.48,1.48,0,0,0,415.85,64a5.51,5.51,0,0,0-2.31,1,26.4,26.4,0,0,0-4.2,3.5,45.3,45.3,0,0,0-5.11,6q-3.36,18.48-3.78,28.14a7.57,7.57,0,0,1-5.6,2.1q-13.16,0-13.3-11.62,0-7.56,4.76-20.3c1.59-4.39,2.38-7,2.38-7.7A1.48,1.48,0,0,0,387,63.42q-3.08,0-10.08,9.66a204.81,204.81,0,0,0-3.64,28.14q-1.82,1.82-5.6,1.82A12.1,12.1,0,0,1,358,98.35,17.44,17.44,0,0,1,354,87.22q0-8.4,3.92-19a22.87,22.87,0,0,1-1.4-8.68q0-6.16,6.65-12.39t13.23-6.23q6,0,6,5.88,0,6.3-4.34,15.82,7.14-12.31,12.67-17t10.71-4.69a8,8,0,0,1,6.09,2.31,8.32,8.32,0,0,1,2.17,6A30.33,30.33,0,0,1,406.19,62.72Z"/><path class="cls-1" d="M488.21,57.56V50.12a3,3,0,0,0-.37-1.72c-.25-.34-.81-.51-1.67-.51H481c-.87,0-1.41.17-1.63.51a3.31,3.31,0,0,0-.33,1.72V90.21a3.31,3.31,0,0,0,.33,1.72c.22.34.76.51,1.63.51h5.21c.86,0,1.42-.17,1.67-.51a3,3,0,0,0,.37-1.72V79.79h10.61V99.42a7.37,7.37,0,0,1-.75,3.35c-.49,1-1.7,1.48-3.62,1.48H472.68a5.47,5.47,0,0,1-2.33-.41,3,3,0,0,1-1.25-1.12,4.32,4.32,0,0,1-.56-1.54,10.92,10.92,0,0,1-.14-1.76V41a12,12,0,0,1,.14-1.81,3.93,3.93,0,0,1,.56-1.54,3.16,3.16,0,0,1,1.25-1.07,5.32,5.32,0,0,1,2.33-.41h21.77a5.27,5.27,0,0,1,2.32.41,3.49,3.49,0,0,1,1.3,1.07,3.7,3.7,0,0,1,.61,1.54,12,12,0,0,1,.14,1.81V57.56Z"/><path class="cls-1" d="M542.91,104.25H531.65l-2-14.79H519.19l-2.61,14.79H505.14l14.05-68.08h11.34ZM527.37,77.56l-2.6-13.12L522,77.56Z"/><path class="cls-1" d="M593.13,36v68.27h-10.6V67.05l-7.81,25.11.09.28H565l.09-.28-7.81-25.11v37.2h-10.6V36h10.6l12.65,40.65L582.48,36Z"/><path class="cls-1" d="M600.48,104.25V36h25.86a5.3,5.3,0,0,1,2.33.42,2.92,2.92,0,0,1,1.25,1.12,4.27,4.27,0,0,1,.56,1.53,11.17,11.17,0,0,1,.14,1.78V78.39a5.39,5.39,0,0,1-.88,3.31c-.59.77-1.72,1.16-3.4,1.16H611.09v21.39Zm10.61-30.6h7c.86,0,1.4-.17,1.61-.51A3.12,3.12,0,0,0,620,71.5V49.94a3.38,3.38,0,0,0-.33-1.73c-.21-.34-.75-.51-1.61-.51h-7Z"/><path class="cls-1" d="M30.59,36v63.8a8,8,0,0,1-.7,3.37c-.47,1-1.7,1.49-3.7,1.49H4.4c-2,0-3.23-.5-3.7-1.49A7.82,7.82,0,0,1,0,99.79V81.08H10.66v9.45A3.35,3.35,0,0,0,11,92.26c.22.34.76.51,1.64.51H18c.87,0,1.42-.17,1.64-.51a3.48,3.48,0,0,0,.32-1.73V36Z"/><path class="cls-1" d="M67.35,35.62v64a12.22,12.22,0,0,1-.14,1.83,3.93,3.93,0,0,1-.56,1.54,3.15,3.15,0,0,1-1.26,1.08,5.38,5.38,0,0,1-2.34.42H41.35a5.32,5.32,0,0,1-2.34-.42A3.18,3.18,0,0,1,37.74,103a4.1,4.1,0,0,1-.56-1.54A12.22,12.22,0,0,1,37,99.6v-64H47.71V90.53A3.16,3.16,0,0,0,48,92.17c.21.34.74.51,1.6.51h5.13c.86,0,1.39-.17,1.6-.51a3.15,3.15,0,0,0,.33-1.64V35.62Z"/><path class="cls-1" d="M94.1,57.7V50.21a3,3,0,0,0-.37-1.73c-.25-.34-.81-.51-1.69-.51H86.81c-.88,0-1.42.17-1.64.51a3.38,3.38,0,0,0-.33,1.73V90.53a3.35,3.35,0,0,0,.33,1.73c.22.34.76.51,1.64.51H92c.88,0,1.44-.17,1.69-.51a3,3,0,0,0,.37-1.73V81.08a3,3,0,0,0-.37-1.73c-.25-.34-.81-.51-1.69-.51H88.77V67.05h11.6a5.32,5.32,0,0,1,2.34.42A3.35,3.35,0,0,1,104,68.59a3.88,3.88,0,0,1,.6,1.54,10.06,10.06,0,0,1,.15,1.77V99.8a7.35,7.35,0,0,1-.75,3.36c-.5,1-1.72,1.49-3.65,1.49H78.48a5.32,5.32,0,0,1-2.34-.42,3,3,0,0,1-1.26-1.12,4.32,4.32,0,0,1-.56-1.54,10.19,10.19,0,0,1-.14-1.78V41a10.91,10.91,0,0,1,.14-1.82,3.88,3.88,0,0,1,.56-1.54,3.07,3.07,0,0,1,1.26-1.08,5.32,5.32,0,0,1,2.34-.42h21.89a5.32,5.32,0,0,1,2.34.42,3.32,3.32,0,0,1,1.91,2.62,10.9,10.9,0,0,1,.15,1.82V57.7Z"/><path class="cls-1" d="M142.09,104.65h-30.5V36.18h30.5V48H122.26V67.8H134.6v9.45H122.26V93.43h19.83Z"/><path class="cls-1" d="M180.53,36v68.66H169.87L158.64,68v36.66H148V36h10.66l11.23,36.67V36Z"/><path class="cls-1" d="M212.9,36.18a5.38,5.38,0,0,1,2.34.42,3.38,3.38,0,0,1,1.91,2.62,10.91,10.91,0,0,1,.14,1.82V99.79a7.42,7.42,0,0,1-.75,3.37c-.49,1-1.71,1.49-3.64,1.49H186.71V36.18H212.9Zm-6.27,14a3,3,0,0,0-.38-1.73c-.25-.34-.82-.51-1.7-.51h-7.18v44.8h7.18c.88,0,1.45-.17,1.7-.51a3,3,0,0,0,.38-1.73Z"/></g></g></svg>